# Created by DisUnity v0.3.4
v 0.9943085 0.25001082 1.1444092E-5
v 1.9886265 0.25001082 7.9816113
v 0.994318 0.25001082 7.981617
v 1.988615 0.25001082 1.5308747E-17
v 1.9073486E-6 0.25001082 1.9073486E-5
v 0.994318 0.25001082 7.981617
v 1.1444092E-5 0.25001082 7.981621
v 0.9943085 0.25001082 1.1444092E-5
v 0.9943085 0.25001082 1.1444092E-5
v 1.988615 2.9802322E-8 1.824866E-24
v 1.988615 0.25001082 1.5308747E-17
v 0.9943085 2.9802322E-8 1.1444092E-5
v 1.9073486E-6 0.25001082 1.9073486E-5
v 1.9073486E-6 2.9802322E-8 1.9073486E-5
v 1.9886265 0.25001082 7.9816113
v 0.99432564 2.9802322E-8 7.981617
v 0.994318 0.25001082 7.981617
v 1.9886322 2.9802322E-8 7.9816093
v 1.9073486E-5 2.9802322E-8 7.9816284
v 1.1444092E-5 0.25001082 7.981621
v 1.9886265 0.25001082 7.9816113
v 1.988615 2.9802322E-8 1.824866E-24
v 1.9886189 2.9802322E-8 7.981613
v 1.988615 0.25001082 1.5308747E-17
v 1.9073486E-6 0.25001082 1.9073486E-5
v 3.8146973E-6 2.9802322E-8 7.981613
v 1.9073486E-6 2.9802322E-8 1.9073486E-5
v 1.1444092E-5 0.25001082 7.981621
v 0.4068184 0.2500335 7.981613
v 1.5900841 0.32863992 7.981613
v 1.5900841 0.25003338 7.981613
v 0.4068184 0.32863998 7.981613
v 0.7029724 0.6221319 7.981613
v 1.2939377 0.6221318 7.981613
v 0.77573395 1.5530559 7.981613
v 0.99845314 1.5530559 7.981613
v 1.2211685 1.5530559 7.981613
v 0.7029686 0.6221372 4.2373886
v 0.4068184 0.32863998 7.981613
v 0.40681648 0.3286453 4.2373886
v 0.7029724 0.6221319 7.981613
v 0.77573204 1.5530611 4.2373886
v 0.77573395 1.5530559 7.981613
v 0.7029686 0.6221372 3.514122
v 0.40681648 0.3286453 3.514122
v 1.2939358 0.6221371 3.514122
v 1.2939358 0.6221371 4.2373886
v 1.5900822 0.32864523 4.2373886
v 1.2939377 0.6221318 7.981613
v 1.2939358 0.6221371 4.2373886
v 1.5900841 0.32863992 7.981613
v 1.2211685 1.5530559 7.981613
v 1.2211647 1.5530611 4.2373886
v 0.4068184 0.2500335 7.981613
v 0.40681648 0.3286453 4.2373886
v 0.4068184 0.32863998 7.981613
v 0.40681648 0.2500388 4.2373886
v 0.77573395 1.5530559 7.981613
v 0.99845123 1.5530611 4.2373886
v 0.99845314 1.5530559 7.981613
v 0.77573204 1.5530611 4.2373886
v 1.2211647 1.5530611 4.2373886
v 1.2211685 1.5530559 7.981613
v 1.5900841 0.32863992 7.981613
v 1.5900822 0.25003868 4.2373886
v 1.5900841 0.25003338 7.981613
v 1.5900822 0.32864523 4.2373886
v 0.7029686 0.6221372 4.2373886
v 0.99845123 1.5530611 4.2373886
v 0.77573204 1.5530611 4.2373886
v 1.2939358 0.6221371 4.2373886
v 1.2211647 1.5530611 4.2373886
v 0.4068184 0.2500335 -6.1035156E-5
v 1.5900841 0.32863992 -6.1035156E-5
v 0.4068184 0.32863998 -6.1035156E-5
v 1.5900841 0.25003338 -6.1035156E-5
v 0.7029724 0.6221319 -6.1035156E-5
v 1.2939377 0.6221318 -6.1035156E-5
v 0.77573395 1.5530559 -6.1035156E-5
v 0.99845314 1.5530559 -6.1035156E-5
v 1.2211685 1.5530559 -6.1035156E-5
v 0.7029686 0.6221372 3.514122
v 0.4068184 0.32863998 -6.1035156E-5
v 0.7029724 0.6221319 -6.1035156E-5
v 0.40681648 0.3286453 3.514122
v 0.77573204 1.5530611 3.514122
v 0.77573395 1.5530559 -6.1035156E-5
v 1.5900822 0.32864523 3.514122
v 1.2939377 0.6221318 -6.1035156E-5
v 1.5900841 0.32863992 -6.1035156E-5
v 1.2939358 0.6221371 3.514122
v 1.2211685 1.5530559 -6.1035156E-5
v 1.2211647 1.5530611 3.514122
v 0.4068184 0.2500335 -6.1035156E-5
v 0.40681648 0.3286453 3.514122
v 0.40681648 0.2500388 3.514122
v 0.4068184 0.32863998 -6.1035156E-5
v 0.77573395 1.5530559 -6.1035156E-5
v 0.99845123 1.5530611 3.514122
v 0.77573204 1.5530611 3.514122
v 0.99845314 1.5530559 -6.1035156E-5
v 1.2211647 1.5530611 3.514122
v 1.2211685 1.5530559 -6.1035156E-5
v 1.5900841 0.32863992 -6.1035156E-5
v 1.5900822 0.25003868 3.514122
v 1.5900822 0.32864523 3.514122
v 1.5900841 0.25003338 -6.1035156E-5
v 1.2939358 0.6221371 3.514122
v 0.99845123 1.5530611 3.514122
v 1.2211647 1.5530611 3.514122
v 0.7029686 0.6221372 3.514122
v 0.77573204 1.5530611 3.514122
v 1.5900822 0.32864523 4.2373886
v 1.5900822 0.25003868 3.514122
v 1.5900822 0.25003868 4.2373886
v 1.5900822 0.32864523 3.514122
v 0.40681648 0.2500388 4.2373886
v 0.40681648 0.3286453 3.514122
v 0.40681648 0.3286453 4.2373886
v 0.40681648 0.2500388 3.514122
v 0.40681648 0.3286453 4.2373886
v 1.5900822 0.32864523 3.514122
v 1.5900822 0.32864523 4.2373886
v 0.40681648 0.3286453 3.514122
v 1.2939358 0.6221371 4.2373886
v 1.5900822 0.32864523 3.514122
v 1.5900822 0.32864523 4.2373886
v 1.2939358 0.6221371 3.514122
v 1.5900822 0.32864523 4.2373886
v 0.40681648 0.3286453 3.514122
v 0.40681648 0.3286453 4.2373886
v 1.5900822 0.32864523 3.514122
vn -0.0 1.0 0.0
vn -0.0 1.0 0.0
vn -0.0 1.0 0.0
vn -0.0 1.0 0.0
vn -0.0 1.0 0.0
vn -0.0 1.0 0.0
vn -0.0 1.0 0.0
vn -0.0 1.0 0.0
vn -1.1509622E-5 0.0 -1.0
vn -1.1509623E-5 0.0 -1.0
vn -1.1509622E-5 0.0 -1.0
vn -1.1509622E-5 0.0 -1.0
vn -0.0 0.0 -1.0
vn -0.0 0.0 -1.0
vn -0.0 0.0 1.0
vn -0.0 0.0 1.0
vn -0.0 0.0 1.0
vn -0.0 0.0 1.0
vn -0.0 3.0516381E-5 1.0
vn -0.0 3.0516381E-5 1.0
vn 1.0 -3.0516267E-5 0.0
vn 1.0 -3.0516268E-5 0.0
vn 1.0 -3.0516267E-5 0.0
vn 1.0 0.0 0.0
vn -1.0 0.0 0.0
vn -1.0 0.0 0.0
vn -1.0 0.0 0.0
vn -1.0 3.0516227E-5 0.0
vn -0.0 0.0 1.0
vn -0.0 0.0 1.0
vn -0.0 0.0 1.0
vn -0.0 0.0 1.0
vn -0.0 0.0 1.0
vn -0.0 0.0 1.0
vn -0.0 0.0 1.0
vn -0.0 0.0 1.0
vn -0.0 0.0 1.0
vn -0.69346386 0.72049147 0.0
vn -0.9230135 0.3847676 0.0
vn -0.9230139 0.3847665 0.0
vn -0.9073087 0.42046505 0.0
vn -0.67899734 0.7341407 0.0
vn -0.67899805 0.73414004 0.0
vn -0.6934638 0.72049147 0.0
vn -0.9230138 0.38476673 0.0
vn 0.69346666 0.72048867 0.0
vn 0.69346666 0.72048867 0.0
vn 0.9230158 0.3847622 0.0
vn 0.9073098 0.42046285 0.0
vn 0.69346666 0.72048867 0.0
vn 0.9230158 0.3847621 0.0
vn 0.67899567 0.7341423 0.0
vn 0.6789938 0.734144 0.0
vn -1.0 0.0 0.0
vn -0.9230139 0.3847665 0.0
vn -0.9230135 0.3847676 0.0
vn -1.0 0.0 0.0
vn -0.67899805 0.73414004 0.0
vn -0.0 1.0 0.0
vn -0.0 1.0 0.0
vn -0.67899734 0.7341407 0.0
vn 0.6789938 0.734144 0.0
vn 0.67899567 0.7341423 0.0
vn 0.9230158 0.3847621 0.0
vn 1.0 0.0 0.0
vn 1.0 0.0 0.0
vn 0.9230158 0.3847622 0.0
vn -0.0 0.0 -1.0
vn -0.0 0.0 -1.0
vn -0.0 0.0 -1.0
vn -0.0 0.0 -1.0
vn -0.0 0.0 -1.0
vn -0.0 0.0 -1.0
vn -0.0 0.0 -1.0
vn -0.0 0.0 -1.0
vn -0.0 0.0 -1.0
vn -0.0 0.0 -1.0
vn -0.0 0.0 -1.0
vn -0.0 0.0 -1.0
vn -0.0 0.0 -1.0
vn -0.0 0.0 -1.0
vn -0.6934638 0.72049147 0.0
vn -0.9230135 0.38476768 0.0
vn -0.9073087 0.42046505 0.0
vn -0.9230138 0.38476673 0.0
vn -0.67899746 0.73414063 0.0
vn -0.6789985 0.73413974 0.0
vn 0.9230158 0.38476217 0.0
vn 0.9073098 0.4204628 0.0
vn 0.92301583 0.38476187 0.0
vn 0.69346666 0.72048867 0.0
vn 0.67899555 0.73414236 0.0
vn 0.6789941 0.7341438 0.0
vn -1.0 0.0 0.0
vn -0.9230138 0.38476673 0.0
vn -1.0 0.0 0.0
vn -0.9230135 0.38476768 0.0
vn -0.6789985 0.73413974 0.0
vn -0.0 1.0 0.0
vn -0.67899746 0.73414063 0.0
vn -0.0 1.0 0.0
vn 0.6789941 0.7341438 0.0
vn 0.67899555 0.73414236 0.0
vn 0.92301583 0.38476187 0.0
vn 1.0 0.0 0.0
vn 0.9230158 0.38476217 0.0
vn 1.0 0.0 0.0
vn -0.0 0.0 1.0
vn -0.0 0.0 1.0
vn -0.0 0.0 1.0
vn -0.0 0.0 1.0
vn -0.0 0.0 1.0
vn 0.9230158 0.3847622 0.0
vn 1.0 0.0 0.0
vn 1.0 0.0 0.0
vn 0.9230158 0.38476217 0.0
vn -1.0 0.0 0.0
vn -0.9230138 0.38476673 0.0
vn -0.9230139 0.3847665 0.0
vn -1.0 0.0 0.0
vn -0.0 1.0 0.0
vn -0.0 1.0 0.0
vn -0.0 1.0 0.0
vn -0.0 1.0 0.0
vn 0.69346666 0.72048867 0.0
vn 0.9230158 0.38476217 0.0
vn 0.9230158 0.3847622 0.0
vn 0.69346666 0.72048867 0.0
vn -0.0 -1.0 0.0
vn -0.0 -1.0 0.0
vn -0.0 -1.0 0.0
vn -0.0 -1.0 0.0
vt 5.776781 0.8752916
vt 5.6168323 0.89640003
vt 5.6168323 0.8752916
vt 5.776781 0.89640003
vt 2.5695705 0.89645517
vt 2.7295163 0.8753467
vt 2.729519 0.89645517
vt 2.5695677 0.8753468
vt 0.02217963 0.9076486
vt 0.03435926 0.90458614
vt 0.03435926 0.9076486
vt 0.02217963 0.90458614
vt 0.01 0.9076486
vt 0.01 0.90458614
vt 0.01 0.9022332
vt 0.02217963 0.8991707
vt 0.02217963 0.9022332
vt 0.01 0.8991707
vt 0.03435926 0.8991707
vt 0.03435926 0.9022332
vt 0.107769765 0.9184795
vt 0.01 0.9154171
vt 0.107769765 0.9154171
vt 0.01 0.9184795
vt 0.99 0.91306406
vt 0.8922305 0.9100016
vt 0.99 0.9100016
vt 0.8922305 0.91306406
vt 0.560914 0.87414736
vt 0.52167445 0.87096894
vt 0.52167445 0.87414736
vt 0.5609281 0.870986
vt 0.551196 0.85909903
vt 0.5315316 0.8590925
vt 0.5489161 0.8214599
vt 0.54133785 0.8214856
vt 0.5337267 0.8214876
vt 0.23274654 0.8575698
vt 0.3083195 0.8705251
vt 0.23274654 0.87030536
vt 0.3083195 0.85735005
vt 0.2327465 0.8155602
vt 0.3083195 0.8155602
vt 0.21141702 0.8575698
vt 0.21141702 0.8703053
vt 0.21141702 0.8454108
vt 0.23274654 0.8454108
vt -1.3568525 0.87047756
vt -1.437468 0.85642326
vt -1.3568525 0.85642326
vt -1.437468 0.87047756
vt -1.437468 0.81184506
vt -1.3568524 0.81184506
vt 0.35525757 0.873796
vt 0.27464205 0.87003183
vt 0.35525757 0.87003183
vt 0.27464205 0.873796
vt -1.437468 0.8297745
vt -1.3568524 0.82103264
vt -1.437468 0.8210326
vt -1.3568524 0.8297745
vt -1.3568524 0.81184506
vt -1.437468 0.81229085
vt -1.3590208 0.87047756
vt -1.2784053 0.87424165
vt -1.3590208 0.87424165
vt -1.2784053 0.87047756
vt 0.23162282 0.8554419
vt 0.2177651 0.81178296
vt 0.22821033 0.81178296
vt 0.20390733 0.8554419
vt 0.20732017 0.81178296
vt 0.560914 0.87414736
vt 0.52167445 0.87096894
vt 0.5609281 0.870986
vt 0.52167445 0.87414736
vt 0.551196 0.85909903
vt 0.5315316 0.8590925
vt 0.5489161 0.8214599
vt 0.54133785 0.8214856
vt 0.5337267 0.8214876
vt 0.21141702 0.8575698
vt 0.2869899 0.8705251
vt 0.2869899 0.8573501
vt 0.21141702 0.8703053
vt 0.21141697 0.8155602
vt 0.2869899 0.8155602
vt -1.3568525 0.87047756
vt -1.437468 0.85642326
vt -1.437468 0.87047756
vt -1.3568525 0.85642326
vt -1.437468 0.81184506
vt -1.3568524 0.81184506
vt 0.35525757 0.873796
vt 0.27464205 0.87003183
vt 0.27464205 0.873796
vt 0.35525757 0.87003183
vt -1.437468 0.8297745
vt -1.3568524 0.82103264
vt -1.3568524 0.8297745
vt -1.437468 0.8210326
vt -1.3568524 0.81184506
vt -1.437468 0.81229085
vt -1.3590208 0.87047756
vt -1.2784053 0.87424165
vt -1.2784053 0.87047756
vt -1.3590208 0.87424165
vt 0.18066314 0.8554419
vt 0.16680534 0.81178296
vt 0.1772503 0.81178296
vt 0.15294763 0.8554419
vt 0.15636013 0.81178296
vt 0.024127448 0.8709006
vt 0.05804763 0.8745871
vt 0.024127448 0.8745871
vt 0.05804763 0.8709006
vt 0.06993728 0.8708869
vt 0.10385743 0.8745735
vt 0.06993728 0.87457347
vt 0.10385743 0.8708869
vt -0.053685427 0.8050872
vt -0.01976531 0.8605807
vt -0.05368548 0.8605807
vt -0.019765265 0.8050872
vt 0.16349109 0.8580869
vt 0.1848206 0.8703827
vt 0.16349109 0.8703827
vt 0.1848206 0.8580869
vt -1.3568525 0.87047756
vt -1.437468 0.81184506
vt -1.437468 0.81184506
vt -1.3568525 0.87047756

g Barrier_For_LampC
s 1
usemtl Barrier_For_LampC
f 3/3/3 2/2/2 1/1/1 
f 4/4/4 1/1/1 2/2/2 
f 7/7/7 6/6/6 5/5/5 
f 8/8/8 5/5/5 6/6/6 
f 11/11/11 10/10/10 9/9/9 
f 12/12/12 9/9/9 10/10/10 
f 9/9/9 12/12/12 13/13/13 
f 14/14/14 13/13/13 12/12/12 
f 17/17/17 16/16/16 15/15/15 
f 18/18/18 15/15/15 16/16/16 
f 16/16/16 17/17/17 19/19/19 
f 20/20/20 19/19/19 17/17/17 
f 23/23/23 22/22/22 21/21/21 
f 24/24/24 21/21/21 22/22/22 
f 27/27/27 26/26/26 25/25/25 
f 28/28/28 25/25/25 26/26/26 
f 31/31/31 30/30/30 29/29/29 
f 32/32/32 29/29/29 30/30/30 
f 32/32/32 30/30/30 33/33/33 
f 34/34/34 33/33/33 30/30/30 
f 33/33/33 34/34/34 35/35/35 
f 36/36/36 35/35/35 34/34/34 
f 34/34/34 37/37/37 36/36/36 
f 40/40/40 39/39/39 38/38/38 
f 41/41/41 38/38/38 39/39/39 
f 38/38/38 41/41/41 42/42/42 
f 43/43/43 42/42/42 41/41/41 
f 38/38/38 44/44/44 40/40/40 
f 45/45/45 40/40/40 44/44/44 
f 44/44/44 38/38/38 46/46/46 
f 47/47/47 46/46/46 38/38/38 
f 50/50/50 49/49/49 48/48/48 
f 51/51/51 48/48/48 49/49/49 
f 49/49/49 50/50/50 52/52/52 
f 53/53/53 52/52/52 50/50/50 
f 56/56/56 55/55/55 54/54/54 
f 57/57/57 54/54/54 55/55/55 
f 60/60/60 59/59/59 58/58/58 
f 61/61/61 58/58/58 59/59/59 
f 59/59/59 60/60/60 62/62/62 
f 63/63/63 62/62/62 60/60/60 
f 66/66/66 65/65/65 64/64/64 
f 67/67/67 64/64/64 65/65/65 
f 70/70/70 69/69/69 68/68/68 
f 69/69/69 71/71/71 68/68/68 
f 72/72/72 71/71/71 69/69/69 
f 75/75/75 74/74/74 73/73/73 
f 76/76/76 73/73/73 74/74/74 
f 75/75/75 77/77/77 74/74/74 
f 78/78/78 74/74/74 77/77/77 
f 77/77/77 79/79/79 78/78/78 
f 80/80/80 78/78/78 79/79/79 
f 81/81/81 78/78/78 80/80/80 
f 84/84/84 83/83/83 82/82/82 
f 85/85/85 82/82/82 83/83/83 
f 82/82/82 86/86/86 84/84/84 
f 87/87/87 84/84/84 86/86/86 
f 90/90/90 89/89/89 88/88/88 
f 91/91/91 88/88/88 89/89/89 
f 89/89/89 92/92/92 91/91/91 
f 93/93/93 91/91/91 92/92/92 
f 96/96/96 95/95/95 94/94/94 
f 97/97/97 94/94/94 95/95/95 
f 100/100/100 99/99/99 98/98/98 
f 101/101/101 98/98/98 99/99/99 
f 99/99/99 102/102/102 101/101/101 
f 103/103/103 101/101/101 102/102/102 
f 106/106/106 105/105/105 104/104/104 
f 107/107/107 104/104/104 105/105/105 
f 110/110/110 109/109/109 108/108/108 
f 108/108/108 109/109/109 111/111/111 
f 109/109/109 112/112/112 111/111/111 
f 115/115/115 114/114/114 113/113/113 
f 116/116/116 113/113/113 114/114/114 
f 119/119/119 118/118/118 117/117/117 
f 120/120/120 117/117/117 118/118/118 
f 123/123/123 122/122/122 121/121/121 
f 124/124/124 121/121/121 122/122/122 
f 127/127/127 126/126/126 125/125/125 
f 128/128/128 125/125/125 126/126/126 
f 131/131/131 130/130/130 129/129/129 
f 132/132/132 129/129/129 130/130/130 

