# Created by DisUnity v0.3.4
v 7.6293945E-6 0.25001082 -0.99430466
v 80.0041 0.25001082 -1.9886513
v 80.004105 0.25001082 -0.9943447
v -3.8146973E-6 0.25001082 -1.9886112
v 1.5258789E-5 0.25001082 1.9073486E-6
v 80.004105 0.25001082 -0.9943447
v 80.00412 0.25001082 -3.8146973E-5
v 7.6293945E-6 0.25001082 -0.99430466
v 79.98593 0.3286608 -0.40673637
v 79.985916 0.62215275 -1.293848
v 79.98593 0.32866085 -1.5900021
v 79.98593 0.6221527 -0.70288277
v 79.985916 1.5530764 -1.2210827
v 79.985916 1.5530766 -0.9983673
v 79.98593 0.25005418 -0.40673637
v 79.98593 0.2500543 -1.5900021
v 79.985916 1.5530764 -0.77565193
v 3.8146973E-6 0.2500335 -1.5899658
v 3.8146973E-6 0.32863992 -0.40670013
v 3.8146973E-6 0.25003338 -0.40670013
v 3.8146973E-6 0.32863998 -1.5899658
v 3.8146973E-6 0.6221319 -1.2938118
v 3.8146973E-6 0.6221318 -0.7028465
v 3.8146973E-6 1.5530559 -1.2210503
v 3.8146973E-6 1.5530559 -0.99833107
v 3.8146973E-6 1.5530559 -0.7756157
v 79.985916 0.62215275 -1.293848
v 3.8146973E-6 0.32863998 -1.5899658
v 79.98593 0.32866085 -1.5900021
v 3.8146973E-6 0.6221319 -1.2938118
v 79.985916 1.5530764 -1.2210827
v 3.8146973E-6 1.5530559 -1.2210503
v 79.98593 0.3286608 -0.40673637
v 3.8146973E-6 0.6221318 -0.7028465
v 79.98593 0.6221527 -0.70288277
v 3.8146973E-6 0.32863992 -0.40670013
v 3.8146973E-6 1.5530559 -0.7756157
v 79.985916 1.5530764 -0.77565193
v 3.8146973E-6 0.2500335 -1.5899658
v 79.98593 0.32866085 -1.5900021
v 3.8146973E-6 0.32863998 -1.5899658
v 79.98593 0.2500543 -1.5900021
v 3.8146973E-6 1.5530559 -1.2210503
v 79.985916 1.5530766 -0.9983673
v 3.8146973E-6 1.5530559 -0.99833107
v 79.985916 1.5530764 -1.2210827
v 79.985916 1.5530764 -0.77565193
v 3.8146973E-6 1.5530559 -0.7756157
v 3.8146973E-6 0.32863992 -0.40670013
v 79.98593 0.25005418 -0.40673637
v 3.8146973E-6 0.25003338 -0.40670013
v 79.98593 0.3286608 -0.40673637
v 7.6293945E-6 0.25001082 -0.99430466
v -3.8146973E-6 2.9802322E-8 -1.9886112
v -3.8146973E-6 0.25001082 -1.9886112
v 7.6293945E-6 2.9802322E-8 -0.99430466
v 1.5258789E-5 0.25001082 1.9073486E-6
v 1.5258789E-5 2.9802322E-8 1.9073486E-6
v 80.0041 0.25001082 -1.9886513
v 80.004105 2.9802322E-8 -0.9943447
v 80.004105 0.25001082 -0.9943447
v 80.0041 2.9802322E-8 -1.9886513
v 80.00412 2.9802322E-8 -3.8146973E-5
v 80.00412 0.25001082 -3.8146973E-5
v -3.8146973E-6 0.25001082 -1.9886112
v 80.0041 2.9802322E-8 -1.9886513
v 80.0041 0.25001082 -1.9886513
v -3.8146973E-6 2.9802322E-8 -1.9886112
v 80.00412 0.25001082 -3.8146973E-5
v 1.5258789E-5 2.9802322E-8 1.9073486E-6
v 1.5258789E-5 0.25001082 1.9073486E-6
v 80.00412 2.9802322E-8 -3.8146973E-5
vn -0.0 1.0 0.0
vn -0.0 1.0 0.0
vn -0.0 1.0 0.0
vn -0.0 1.0 0.0
vn -0.0 1.0 0.0
vn -0.0 1.0 0.0
vn -0.0 1.0 0.0
vn -0.0 1.0 0.0
vn 1.0 0.0 0.0
vn 1.0 2.616109E-5 -1.2143158E-5
vn 1.0 1.7263636E-5 0.0
vn 1.0 -1.3575448E-5 -2.2939415E-5
vn 1.0 1.1283298E-5 0.0
vn 1.0 1.6391015E-5 0.0
vn 1.0 0.0 0.0
vn 1.0 0.0 0.0
vn 1.0 1.6391024E-5 0.0
vn -1.0 0.0 0.0
vn -1.0 0.0 0.0
vn -1.0 0.0 0.0
vn -1.0 0.0 0.0
vn -1.0 0.0 0.0
vn -1.0 0.0 0.0
vn -1.0 0.0 0.0
vn -1.0 0.0 0.0
vn -1.0 0.0 0.0
vn -0.0 0.42047054 -0.90730613
vn -0.0 0.3847681 -0.9230133
vn -0.0 0.3847643 -0.92301494
vn -0.0 0.42046532 -0.90730864
vn -0.0 0.73414207 -0.6789959
vn -0.0 0.73413986 -0.67899835
vn -0.0 0.38476083 0.92301625
vn -0.0 0.4204615 0.90731037
vn -0.0 0.4204643 0.9073091
vn -0.0 0.38476273 0.92301553
vn -0.0 0.73414266 0.67899513
vn -0.0 0.73413914 0.6789991
vn -0.0 0.0 -1.0
vn -0.0 0.3847643 -0.92301494
vn -0.0 0.3847681 -0.9230133
vn -0.0 0.0 -1.0
vn -0.0 0.73413986 -0.67899835
vn -0.0 1.0 0.0
vn -0.0 1.0 0.0
vn -0.0 0.73414207 -0.6789959
vn -0.0 0.73413914 0.6789991
vn -0.0 0.73414266 0.67899513
vn -0.0 0.38476273 0.92301553
vn -0.0 0.0 1.0
vn -0.0 0.0 1.0
vn -0.0 0.38476083 0.92301625
vn -1.0 0.0 1.1509622E-5
vn -1.0 0.0 1.1509623E-5
vn -1.0 0.0 1.1509622E-5
vn -1.0 0.0 1.1509622E-5
vn -1.0 0.0 0.0
vn -1.0 0.0 0.0
vn 1.0 0.0 0.0
vn 1.0 0.0 0.0
vn 1.0 0.0 0.0
vn 1.0 0.0 0.0
vn 1.0 0.0 -1.5346164E-5
vn 1.0 0.0 -1.5346162E-5
vn -0.0 0.0 -1.0
vn -0.0 0.0 -1.0
vn -0.0 0.0 -1.0
vn -0.0 0.0 -1.0
vn -0.0 0.0 1.0
vn -0.0 0.0 1.0
vn -0.0 0.0 1.0
vn -0.0 0.0 1.0
vt 5.776781 0.8752916
vt 4.1735287 0.89640033
vt 4.173526 0.87529194
vt 5.776781 0.89640003
vt 2.5695705 0.89645517
vt 4.172822 0.8753464
vt 4.172823 0.8964549
vt 2.5695677 0.8753468
vt 0.68161345 0.8709777
vt 0.65231603 0.8590957
vt 0.6424019 0.8709059
vt 0.6720035 0.859066
vt 0.6575331 0.820617
vt 0.66211134 0.82136905
vt 0.68160117 0.8740444
vt 0.6424066 0.87414736
vt 0.6697488 0.8214009
vt 0.560914 0.87414736
vt 0.52167445 0.87096894
vt 0.52167445 0.87414736
vt 0.5609281 0.870986
vt 0.551196 0.85909903
vt 0.5315316 0.8590925
vt 0.5489161 0.8214599
vt 0.54133785 0.8214856
vt 0.5337267 0.8214876
vt -1.4372845 0.8559776
vt 0.313055 0.87003183
vt -1.4372845 0.8700317
vt 0.313055 0.85597765
vt -1.4372845 0.81139934
vt 0.313055 0.81139934
vt 0.31287196 0.87047756
vt -1.437468 0.85642326
vt 0.31287196 0.8564234
vt -1.437468 0.87047756
vt -1.437468 0.81184506
vt 0.31287196 0.81184506
vt 0.313055 0.873796
vt -1.4372845 0.8700317
vt 0.313055 0.87003183
vt -1.4372845 0.8737959
vt -1.437468 0.8297745
vt 0.31287196 0.82103294
vt -1.437468 0.8210326
vt 0.31287196 0.82977474
vt 0.31287196 0.81184506
vt -1.437468 0.81229085
vt -1.437468 0.87047756
vt 0.31287196 0.87424165
vt -1.437468 0.87424165
vt 0.31287196 0.87047756
vt 0.02217963 0.9076486
vt 0.03435926 0.90458614
vt 0.03435926 0.9076486
vt 0.02217963 0.90458614
vt 0.01 0.9076486
vt 0.01 0.90458614
vt 0.01 0.9022332
vt 0.02217963 0.8991707
vt 0.02217963 0.9022332
vt 0.01 0.8991707
vt 0.03435926 0.8991707
vt 0.03435926 0.9022332
vt 0.01 0.9184795
vt 0.99 0.9154171
vt 0.99 0.9184795
vt 0.01 0.9154171
vt 0.01 0.91306406
vt 0.99 0.9100016
vt 0.99 0.91306406
vt 0.01 0.9100016

g Barrier_Long
s 1
usemtl Barrier_Long
f 3/3/3 2/2/2 1/1/1 
f 4/4/4 1/1/1 2/2/2 
f 7/7/7 6/6/6 5/5/5 
f 8/8/8 5/5/5 6/6/6 
f 11/11/11 10/10/10 9/9/9 
f 12/12/12 9/9/9 10/10/10 
f 10/10/10 13/13/13 12/12/12 
f 14/14/14 12/12/12 13/13/13 
f 9/9/9 15/15/15 11/11/11 
f 16/16/16 11/11/11 15/15/15 
f 12/12/12 14/14/14 17/17/17 
f 20/20/20 19/19/19 18/18/18 
f 21/21/21 18/18/18 19/19/19 
f 21/21/21 19/19/19 22/22/22 
f 23/23/23 22/22/22 19/19/19 
f 22/22/22 23/23/23 24/24/24 
f 25/25/25 24/24/24 23/23/23 
f 23/23/23 26/26/26 25/25/25 
f 29/29/29 28/28/28 27/27/27 
f 30/30/30 27/27/27 28/28/28 
f 27/27/27 30/30/30 31/31/31 
f 32/32/32 31/31/31 30/30/30 
f 35/35/35 34/34/34 33/33/33 
f 36/36/36 33/33/33 34/34/34 
f 34/34/34 35/35/35 37/37/37 
f 38/38/38 37/37/37 35/35/35 
f 41/41/41 40/40/40 39/39/39 
f 42/42/42 39/39/39 40/40/40 
f 45/45/45 44/44/44 43/43/43 
f 46/46/46 43/43/43 44/44/44 
f 44/44/44 45/45/45 47/47/47 
f 48/48/48 47/47/47 45/45/45 
f 51/51/51 50/50/50 49/49/49 
f 52/52/52 49/49/49 50/50/50 
f 55/55/55 54/54/54 53/53/53 
f 56/56/56 53/53/53 54/54/54 
f 53/53/53 56/56/56 57/57/57 
f 58/58/58 57/57/57 56/56/56 
f 61/61/61 60/60/60 59/59/59 
f 62/62/62 59/59/59 60/60/60 
f 60/60/60 61/61/61 63/63/63 
f 64/64/64 63/63/63 61/61/61 
f 67/67/67 66/66/66 65/65/65 
f 68/68/68 65/65/65 66/66/66 
f 71/71/71 70/70/70 69/69/69 
f 72/72/72 69/69/69 70/70/70 

