# Created by DisUnity v0.3.4
v 2.954891 0.042715073 -1.5669894
v 2.9548914 3.3479977 1.5669885
v 2.954891 3.3479977 -1.5669894
v 2.9548914 0.042715073 1.5669885
v 2.954891 0.042715073 -1.5669894
v -2.954879 0.042715073 1.5669894
v 2.9548914 0.042715073 1.5669885
v -2.9548795 0.042715073 -1.5669885
v 2.9548914 3.3479977 1.5669885
v -2.9548795 3.3479977 -1.5669885
v 2.954891 3.3479977 -1.5669894
v -2.954879 3.3479977 1.5669894
v 2.9548914 0.042715073 1.5669885
v -2.954879 3.3479977 1.5669894
v 2.9548914 3.3479977 1.5669885
v -2.954879 0.042715073 1.5669894
v 2.954891 3.3479977 -1.5669894
v -2.9548795 0.042715073 -1.5669885
v 2.954891 0.042715073 -1.5669894
v -2.9548795 3.3479977 -1.5669885
v -2.954879 3.3479977 1.5669894
v -2.9548795 0.042715073 -1.5669885
v -2.9548795 3.3479977 -1.5669885
v -2.954879 0.042715073 1.5669894
vn 1.0 0.0 0.0
vn 1.0 0.0 0.0
vn 1.0 0.0 0.0
vn 1.0 0.0 0.0
vn -0.0 -1.0 0.0
vn -0.0 -1.0 0.0
vn -0.0 -1.0 0.0
vn -0.0 -1.0 0.0
vn -0.0 1.0 0.0
vn -0.0 1.0 0.0
vn -0.0 1.0 0.0
vn -0.0 1.0 0.0
vn -0.0 0.0 1.0
vn -0.0 0.0 1.0
vn -0.0 0.0 1.0
vn -0.0 0.0 1.0
vn -0.0 0.0 -1.0
vn -0.0 0.0 -1.0
vn -0.0 0.0 -1.0
vn -0.0 0.0 -1.0
vn -1.0 0.0 0.0
vn -1.0 0.0 0.0
vn -1.0 0.0 0.0
vn -1.0 0.0 0.0
vt 0.53818727 0.5575258
vt 0.479606 0.5005309
vt 0.53818727 0.5005309
vt 0.479606 0.55752575
vt 0.62725735 0.56208235
vt 0.5377259 0.50146765
vt 0.62725735 0.50146765
vt 0.5377259 0.56208235
vt 0.479606 0.56123
vt 0.39075127 0.5008163
vt 0.479606 0.5008163
vt 0.39075127 0.56123
vt 0.38991687 0.50014627
vt 0.27534163 0.56116235
vt 0.39050055 0.56116235
vt 0.27475795 0.50014627
vt 0.38991687 0.50014627
vt 0.27534163 0.56123
vt 0.39050055 0.56123
vt 0.27475795 0.50014627
vt 0.5380292 0.5003569
vt 0.47844255 0.5573519
vt 0.47844255 0.5003569
vt 0.5380292 0.5573519

g BigCrate
s 1
usemtl BigCrate
f 3/3/3 2/2/2 1/1/1 
f 4/4/4 1/1/1 2/2/2 
f 7/7/7 6/6/6 5/5/5 
f 8/8/8 5/5/5 6/6/6 
f 11/11/11 10/10/10 9/9/9 
f 12/12/12 9/9/9 10/10/10 
f 15/15/15 14/14/14 13/13/13 
f 16/16/16 13/13/13 14/14/14 
f 19/19/19 18/18/18 17/17/17 
f 20/20/20 17/17/17 18/18/18 
f 23/23/23 22/22/22 21/21/21 
f 24/24/24 21/21/21 22/22/22 

