# Created by DisUnity v0.3.4
v 7.247925E-5 -0.015906189 0.17044163
v 0.12057495 1.5975238 0.120529175
v 0.12057495 -0.015906192 0.120529175
v 6.866455E-5 1.5975238 0.17044163
v 0.17049026 1.5975237 2.4795532E-5
v 0.17049026 -0.015906192 2.4795532E-5
v 0.17049026 -0.015906192 2.4795532E-5
v 0.12057114 1.5975237 -0.12048054
v 0.12057495 -0.015906189 -0.12047863
v 0.17049026 1.5975237 2.4795532E-5
v 7.247925E-5 1.5975238 -0.1703949
v 7.6293945E-5 -0.015906192 -0.17039299
v 7.6293945E-5 -0.015906192 -0.17039299
v -0.12043381 1.5975237 -0.12047863
v -0.12043381 -0.015906185 -0.12047863
v 7.247925E-5 1.5975238 -0.1703949
v -0.1703453 1.5975238 2.4795532E-5
v -0.1703453 -0.015906189 2.4795532E-5
v -0.12043762 1.5975237 0.120529175
v -0.12042999 -0.015906185 0.12052727
v -0.12042999 -0.015906185 0.12052727
v 6.866455E-5 1.5975238 0.17044163
v 7.247925E-5 -0.015906189 0.17044163
v -0.12043762 1.5975237 0.120529175
v 0.030220032 1.6902965 0.07280445
v -0.07270813 1.6902965 0.030171394
v 0.07285309 1.6902964 -0.03012085
v 0.12057495 1.5975238 0.120529175
v 0.17049026 1.5975237 2.4795532E-5
v 0.12057114 1.5975237 -0.12048054
v -0.030075073 1.6902966 -0.07275486
v 7.247925E-5 1.5975238 -0.1703949
v 6.866455E-5 1.5975238 0.17044163
v 0.030220032 1.6902965 0.07280445
v 0.12057495 1.5975238 0.120529175
v -0.12043762 1.5975237 0.120529175
v -0.07270813 1.6902965 0.030171394
v 7.247925E-5 1.5975238 -0.1703949
v -0.030075073 1.6902966 -0.07275486
v -0.12043381 1.5975237 -0.12047863
v -0.07270813 1.6902965 0.030171394
v -0.1703453 1.5975238 2.4795532E-5
v -0.12043762 1.5975237 0.120529175
vn -0.0 0.0 1.0
vn 0.6683675 0.36582687 0.6476539
vn 0.7070996 0.0 0.7071139
vn -0.014661757 0.36583138 0.9305656
vn 0.9305682 0.36582553 0.014648849
vn 1.0 0.0 0.0
vn 1.0 0.0 0.0
vn 0.6476411 0.36582962 -0.6683785
vn 0.70710593 0.0 -0.70710754
vn 0.9305682 0.36582553 0.014648849
vn 0.014663388 0.36583126 -0.9305656
vn 1.121265E-5 0.0 -1.0
vn 1.121265E-5 0.0 -1.0
vn -0.6683784 0.36583075 -0.6476405
vn -0.70711136 0.0 -0.7071022
vn 0.014663388 0.36583126 -0.9305656
vn -0.9305651 0.3658328 -0.014661372
vn -1.0 0.0 0.0
vn -0.6476527 0.36583117 0.66836643
vn -0.7071101 0.0 0.70710343
vn -0.7071101 0.0 0.70710343
vn -0.014661757 0.36583138 0.9305656
vn -0.0 0.0 1.0
vn -0.6476527 0.36583117 0.66836643
vn 0.17102171 0.8945918 0.4128646
vn -0.4128597 0.8945958 0.1710125
vn 0.41287133 0.8945904 -0.17101268
vn 0.6683675 0.36582687 0.6476539
vn 0.9305682 0.36582553 0.014648849
vn 0.6476411 0.36582962 -0.6683785
vn -0.17101462 0.89459527 -0.41285992
vn 0.014663388 0.36583126 -0.9305656
vn -0.014661757 0.36583138 0.9305656
vn 0.17102171 0.8945918 0.4128646
vn 0.6683675 0.36582687 0.6476539
vn -0.6476527 0.36583117 0.66836643
vn -0.4128597 0.8945958 0.1710125
vn 0.014663388 0.36583126 -0.9305656
vn -0.17101462 0.89459527 -0.41285992
vn -0.6683784 0.36583075 -0.6476405
vn -0.4128597 0.8945958 0.1710125
vn -0.9305651 0.3658328 -0.014661372
vn -0.6476527 0.36583117 0.66836643
vt 0.9074589 0.24971855
vt 0.9111301 0.15683281
vt 0.9111301 0.24971855
vt 0.9074589 0.15683281
vt 0.91480356 0.15683281
vt 0.91480356 0.24971855
vt 0.91480356 0.24971855
vt 0.9184791 0.15683281
vt 0.9184792 0.24971855
vt 0.91480356 0.15683281
vt 0.9221564 0.15683281
vt 0.9221564 0.24971855
vt 0.9221564 0.24971855
vt 0.92583394 0.15683281
vt 0.9258338 0.24971855
vt 0.9221564 0.15683281
vt 0.9295096 0.15683281
vt 0.9295096 0.24971855
vt 0.9331831 0.15683281
vt 0.9331831 0.24971855
vt 0.9331831 0.24971855
vt 0.93685424 0.15683281
vt 0.93685424 0.24971855
vt 0.9331831 0.15683281
vt 0.9246056 0.16159046
vt 0.9246203 0.16624206
vt 0.9199543 0.16160518
vt 0.92498964 0.15734148
vt 0.9195439 0.15735853
vt 0.91570526 0.16122103
vt 0.91996884 0.16625649
vt 0.91572195 0.16666698
vt 0.92885244 0.16118014
vt 0.9246056 0.16159046
vt 0.92498964 0.15734148
vt 0.9288692 0.1666261
vt 0.9246203 0.16624206
vt 0.91572195 0.16666698
vt 0.91996884 0.16625649
vt 0.91958493 0.17050558
vt 0.9246203 0.16624206
vt 0.9250305 0.17048866
vt 0.9288692 0.1666261

g Bollard
s 1
usemtl Bollard
f 3/3/3 2/2/2 1/1/1 
f 2/2/2 4/4/4 1/1/1 
f 5/5/5 2/2/2 3/3/3 
f 6/6/6 5/5/5 3/3/3 
f 9/9/9 8/8/8 7/7/7 
f 8/8/8 10/10/10 7/7/7 
f 11/11/11 8/8/8 9/9/9 
f 12/12/12 11/11/11 9/9/9 
f 15/15/15 14/14/14 13/13/13 
f 14/14/14 16/16/16 13/13/13 
f 17/17/17 14/14/14 15/15/15 
f 18/18/18 17/17/17 15/15/15 
f 19/19/19 17/17/17 18/18/18 
f 20/20/20 19/19/19 18/18/18 
f 23/23/23 22/22/22 21/21/21 
f 22/22/22 24/24/24 21/21/21 
f 27/27/27 26/26/26 25/25/25 
f 27/27/27 25/25/25 28/28/28 
f 29/29/29 27/27/27 28/28/28 
f 30/30/30 27/27/27 29/29/29 
f 31/31/31 27/27/27 30/30/30 
f 31/31/31 26/26/26 27/27/27 
f 32/32/32 31/31/31 30/30/30 
f 35/35/35 34/34/34 33/33/33 
f 33/33/33 34/34/34 36/36/36 
f 34/34/34 37/37/37 36/36/36 
f 40/40/40 39/39/39 38/38/38 
f 41/41/41 39/39/39 40/40/40 
f 42/42/42 41/41/41 40/40/40 
f 43/43/43 41/41/41 42/42/42 

