# Created by DisUnity v0.3.4
v -1.0204796 -0.007293701 -1.0298117
v 1.0204786 1.5067062 -1.029812
v -1.0204796 1.5067062 -1.0298117
v 1.0204786 -0.007293701 -1.029812
v 1.0204788 -0.007293701 1.0298117
v -1.0204796 -0.007293701 -1.0298117
v -1.0204793 -0.007293701 1.029812
v 1.0204786 -0.007293701 -1.029812
v -1.0204793 -0.007293701 1.029812
v -1.0204796 1.5067062 -1.0298117
v -1.0204793 1.5067062 1.029812
v -1.0204796 -0.007293701 -1.0298117
v -1.0204793 1.5067062 1.029812
v 1.0204786 1.5067062 -1.029812
v 1.0204788 1.5067062 1.0298117
v -1.0204796 1.5067062 -1.0298117
v 1.0204788 1.5067062 1.0298117
v 1.0204786 -0.007293701 -1.029812
v 1.0204788 -0.007293701 1.0298117
v 1.0204786 1.5067062 -1.029812
v 1.0204788 1.5067062 1.0298117
v -1.0204793 -0.007293701 1.029812
v -1.0204793 1.5067062 1.029812
v 1.0204788 -0.007293701 1.0298117
vn -0.0 0.0 -1.0
vn -0.0 0.0 -1.0
vn -0.0 0.0 -1.0
vn -0.0 0.0 -1.0
vn -0.0 -1.0 0.0
vn -0.0 -1.0 0.0
vn -0.0 -1.0 0.0
vn -0.0 -1.0 0.0
vn -1.0 0.0 0.0
vn -1.0 0.0 0.0
vn -1.0 0.0 0.0
vn -1.0 0.0 0.0
vn -0.0 1.0 0.0
vn -0.0 1.0 0.0
vn -0.0 1.0 0.0
vn -0.0 1.0 0.0
vn 1.0 0.0 0.0
vn 1.0 0.0 0.0
vn 1.0 0.0 0.0
vn 1.0 0.0 0.0
vn -0.0 0.0 1.0
vn -0.0 0.0 1.0
vn -0.0 0.0 1.0
vn -0.0 0.0 1.0
vt 0.40490848 0.62878585
vt 0.49552488 0.5615659
vt 0.40490848 0.5615659
vt 0.49552488 0.62878585
vt 0.53860676 0.49989074
vt 0.6292814 0.5586159
vt 0.53860676 0.5586159
vt 0.6292814 0.49989074
vt 0.40588295 0.6280534
vt 0.49515066 0.56083345
vt 0.40588295 0.56083345
vt 0.49515066 0.6280534
vt 0.49558398 0.5618693
vt 0.4054234 0.6140319
vt 0.4054234 0.5618693
vt 0.49558398 0.6140319
vt 0.4064241 0.56068397
vt 0.49475384 0.627904
vt 0.4064241 0.627904
vt 0.49475384 0.56068397
vt 0.49560148 0.56177235
vt 0.40498513 0.6289923
vt 0.40498513 0.56177235
vt 0.49560148 0.6289923

g Bricks
s 1
usemtl Bricks
f 3/3/3 2/2/2 1/1/1 
f 4/4/4 1/1/1 2/2/2 
f 7/7/7 6/6/6 5/5/5 
f 8/8/8 5/5/5 6/6/6 
f 11/11/11 10/10/10 9/9/9 
f 12/12/12 9/9/9 10/10/10 
f 15/15/15 14/14/14 13/13/13 
f 16/16/16 13/13/13 14/14/14 
f 19/19/19 18/18/18 17/17/17 
f 20/20/20 17/17/17 18/18/18 
f 23/23/23 22/22/22 21/21/21 
f 24/24/24 21/21/21 22/22/22 

