# Created by DisUnity v0.3.4
v -20.015625 -1.6716888 15.1823845
v 1.5258789E-5 -3.54774 15.012658
v -20.015625 -3.5477402 15.012661
v 1.5258789E-5 -1.671689 15.182378
v -20.015625 1.0795045 16.000042
v 1.5258789E-5 -1.671689 16.00004
v -20.015625 -1.6716897 16.000042
v 1.5258789E-5 1.0795021 16.00004
v 1.5258789E-5 1.079505 13.985314
v -20.015625 3.5477395 14.55566
v -20.015625 1.0824924 13.985291
v 1.5258789E-5 3.54774 14.555628
v -20.015625 3.5477386 15.148506
v 1.5258789E-5 3.54774 14.555628
v 1.5258789E-5 3.547739 15.148474
v -20.015625 3.5477395 14.55566
v -20.015625 1.0795045 16.000042
v 1.5258789E-5 3.547739 15.148474
v 1.5258789E-5 1.0795021 16.00004
v -20.015625 3.5477386 15.148506
v 1.5258789E-5 -1.671689 15.182378
v -20.015625 -1.6716897 16.000042
v 1.5258789E-5 -1.671689 16.00004
v -20.015625 -1.6716888 15.1823845
v 1.5258789E-5 -3.54774 15.012658
v -20.015625 -3.5477402 8.013638
v -20.015625 -3.5477402 15.012661
v 1.5258789E-5 -3.54774 8.013637
v -20.015625 -1.6716881 0.84489346
v 1.5258789E-5 -3.54774 1.0146136
v 1.5258789E-5 -1.6716895 0.84489393
v -20.015625 -3.5477395 1.014616
v -20.015625 1.079505 1.335144E-5
v 1.5258789E-5 -1.671689 1.1444092E-5
v 1.5258789E-5 1.0795021 1.1444092E-5
v -20.015625 -1.671689 1.335144E-5
v 1.5258789E-5 1.079505 2.0419579
v -20.015625 3.547742 1.4716177
v 1.5258789E-5 3.547741 1.4716454
v -20.015625 1.0824928 2.041987
v -20.015625 3.54774 0.8787713
v 1.5258789E-5 3.547741 1.4716454
v -20.015625 3.547742 1.4716177
v 1.5258789E-5 3.54774 0.87879944
v -20.015625 1.079505 1.335144E-5
v 1.5258789E-5 3.54774 0.87879944
v -20.015625 3.54774 0.8787713
v 1.5258789E-5 1.0795021 1.1444092E-5
v 1.5258789E-5 -1.6716895 0.84489393
v -20.015625 -1.671689 1.335144E-5
v -20.015625 -1.6716881 0.84489346
v 1.5258789E-5 -1.671689 1.1444092E-5
v 1.5258789E-5 -3.54774 1.0146136
v -20.015625 -3.5477402 8.013638
v 1.5258789E-5 -3.54774 8.013637
v -20.015625 -3.5477395 1.014616
v -1.5258789E-5 1.3087502 14.504714
v -20.015625 1.3117356 12.470263
v -1.5258789E-5 1.3087511 12.47026
v -20.015625 1.3117347 14.504719
v -20.015625 1.3117409 3.4167104
v -1.5258789E-5 1.3087521 1.5654707
v -1.5258789E-5 1.3087521 3.416708
v -20.015625 1.3117409 1.5654731
v -1.5258789E-5 1.0794945 11.766538
v -20.015625 1.082479 11.985144
v -20.015625 1.082479 11.766541
v -1.5258789E-5 1.0794945 11.985141
v -1.5258789E-5 1.0794964 4.2214923
v -20.015625 1.082479 11.766541
v -20.015625 1.0824852 4.2214947
v -1.5258789E-5 1.0794945 11.766538
v -1.5258789E-5 1.0794964 3.9857583
v -20.015625 1.0824852 4.2214947
v -20.015625 1.0824852 3.9857607
v -1.5258789E-5 1.0794964 4.2214923
v -1.5258789E-5 1.0794945 11.985141
v -20.015625 1.082479 12.470249
v -20.015625 1.082479 11.985144
v -1.5258789E-5 1.0794945 12.470246
v -20.015625 1.0824852 3.9857607
v -1.5258789E-5 1.0794964 3.416769
v -1.5258789E-5 1.0794964 3.9857583
v -20.015625 1.0824852 3.4167714
v -1.5258789E-5 1.0794945 12.470246
v -20.015625 1.3117356 12.470263
v -20.015625 1.082479 12.470249
v -1.5258789E-5 1.3087511 12.47026
v -20.015625 1.0824852 3.4167714
v -1.5258789E-5 1.3087521 3.416708
v -1.5258789E-5 1.0794964 3.416769
v -20.015625 1.3117409 3.4167104
v -20.015625 -1.6716888 15.1823845
v -40.031754 -3.5477414 15.012659
v -40.031754 -1.6716905 15.182379
v -20.015625 -3.5477402 15.012661
v -20.015625 1.0795045 16.000042
v -40.031754 -1.6716905 16.00004
v -40.031754 1.0795012 16.00004
v -20.015625 -1.6716897 16.000042
v -40.031754 1.079504 13.985315
v -20.015625 3.5477395 14.55566
v -40.031754 3.547739 14.555629
v -20.015625 1.0824924 13.985291
v -20.015625 3.5477386 15.148506
v -40.031754 3.547739 14.555629
v -20.015625 3.5477395 14.55566
v -40.031754 3.547738 15.148475
v -20.015625 1.0795045 16.000042
v -40.031754 3.547738 15.148475
v -20.015625 3.5477386 15.148506
v -40.031754 1.0795012 16.00004
v -40.031754 -1.6716905 15.182379
v -20.015625 -1.6716897 16.000042
v -20.015625 -1.6716888 15.1823845
v -40.031754 -1.6716905 16.00004
v -40.031754 -3.5477414 15.012659
v -20.015625 -3.5477402 8.013638
v -40.031754 -3.5477405 8.013638
v -20.015625 -3.5477402 15.012661
v -20.015625 -1.6716881 0.84489346
v -40.031754 -3.54774 1.0146141
v -20.015625 -3.5477395 1.014616
v -40.031754 -1.6716895 0.8448944
v -20.015625 1.079505 1.335144E-5
v -40.031754 -1.671689 1.2397766E-5
v -20.015625 -1.671689 1.335144E-5
v -40.031754 1.0795021 1.2397766E-5
v -40.031754 1.079505 2.0419588
v -20.015625 3.547742 1.4716177
v -20.015625 1.0824928 2.041987
v -40.031754 3.547741 1.4716463
v -20.015625 3.54774 0.8787713
v -40.031754 3.547741 1.4716463
v -40.031754 3.54774 0.8788004
v -20.015625 3.547742 1.4716177
v -20.015625 1.079505 1.335144E-5
v -40.031754 3.54774 0.8788004
v -40.031754 1.0795021 1.2397766E-5
v -20.015625 3.54774 0.8787713
v -40.031754 -1.6716895 0.8448944
v -20.015625 -1.671689 1.335144E-5
v -40.031754 -1.671689 1.2397766E-5
v -20.015625 -1.6716881 0.84489346
v -40.031754 -3.54774 1.0146141
v -20.015625 -3.5477402 8.013638
v -20.015625 -3.5477395 1.014616
v -40.031754 -3.5477405 8.013638
v -40.031723 1.3087492 14.504715
v -20.015625 1.3117356 12.470263
v -20.015625 1.3117347 14.504719
v -40.031723 1.3087502 12.470261
v -20.015625 1.3117409 3.4167104
v -40.031723 1.3087521 1.5654716
v -20.015625 1.3117409 1.5654731
v -40.031723 1.3087521 3.416709
v -40.031723 1.0794935 11.766539
v -20.015625 1.082479 11.985144
v -40.031723 1.0794935 11.985142
v -20.015625 1.082479 11.766541
v -40.031723 1.0794964 4.2214932
v -20.015625 1.082479 11.766541
v -40.031723 1.0794935 11.766539
v -20.015625 1.0824852 4.2214947
v -40.031723 1.0794964 3.9857593
v -20.015625 1.0824852 4.2214947
v -40.031723 1.0794964 4.2214932
v -20.015625 1.0824852 3.9857607
v -40.031723 1.0794935 11.985142
v -20.015625 1.082479 12.470249
v -40.031723 1.0794935 12.470247
v -20.015625 1.082479 11.985144
v -20.015625 1.0824852 3.9857607
v -40.031723 1.0794964 3.41677
v -20.015625 1.0824852 3.4167714
v -40.031723 1.0794964 3.9857593
v -40.031723 1.0794935 12.470247
v -20.015625 1.3117356 12.470263
v -40.031723 1.3087502 12.470261
v -20.015625 1.082479 12.470249
v -20.015625 1.0824852 3.4167714
v -40.031723 1.3087521 3.416709
v -20.015625 1.3117409 3.4167104
v -40.031723 1.0794964 3.41677
vn -0.0 -0.09010051 0.99593264
vn -0.0 -0.09010051 0.99593264
vn -0.0 -0.09010051 0.99593264
vn -0.0 -0.09009853 0.9959329
vn -0.0 0.0 1.0
vn -0.0 0.0 1.0
vn -0.0 0.0 1.0
vn -0.0 0.0 1.0
vn -0.0 0.22515206 -0.97432363
vn -0.0 0.22538729 -0.97426933
vn -0.0 0.22540972 -0.974264
vn -0.0 0.22512963 -0.9743289
vn -0.0 1.0 0.0
vn -0.0 1.0 0.0
vn -0.0 1.0 0.0
vn -0.0 1.0 0.0
vn -0.0 0.32613546 0.9453231
vn -0.0 0.32614392 0.9453201
vn -0.0 0.3261447 0.9453198
vn -0.0 0.32613465 0.9453233
vn -0.0 -1.0 0.0
vn -0.0 -1.0 0.0
vn -0.0 -1.0 0.0
vn -0.0 -1.0 0.0
vn -0.0 -1.0 0.0
vn -0.0 -1.0 0.0
vn -0.0 -1.0 0.0
vn -0.0 -1.0 0.0
vn -0.0 -0.09009856 -0.9959329
vn -0.0 -0.09009855 -0.9959329
vn -0.0 -0.090098545 -0.9959329
vn -0.0 -0.090100005 -0.99593276
vn -0.0 0.0 -1.0
vn -0.0 0.0 -1.0
vn -0.0 0.0 -1.0
vn -0.0 0.0 -1.0
vn -0.0 0.22515161 0.97432375
vn -0.0 0.22538695 0.97426933
vn -0.0 0.2251292 0.974329
vn -0.0 0.22540939 0.97426414
vn -0.0 1.0 0.0
vn -0.0 1.0 0.0
vn -0.0 1.0 0.0
vn -0.0 1.0 0.0
vn -0.0 0.3354046 -0.9420742
vn -0.0 0.33541286 -0.9420713
vn -0.0 0.33540383 -0.9420745
vn -0.0 0.33541363 -0.94207096
vn -0.0 -1.0 0.0
vn -0.0 -1.0 0.0
vn -0.0 -1.0 0.0
vn -0.0 -1.0 0.0
vn -0.0 -1.0 0.0
vn -0.0 -1.0 0.0
vn -0.0 -1.0 0.0
vn -0.0 -1.0 0.0
vn 1.4910981E-4 1.0 0.0
vn -0.0 1.0 0.0
vn 1.4910981E-4 1.0 0.0
vn -0.0 1.0 0.0
vn -0.0 1.0 0.0
vn 1.4932423E-4 1.0 0.0
vn 1.4932423E-4 1.0 0.0
vn -0.0 1.0 0.0
vn 1.4910982E-4 1.0 0.0
vn -0.0 1.0 0.0
vn -0.0 1.0 0.0
vn 1.4910982E-4 1.0 0.0
vn 1.492416E-4 1.0 0.0
vn -0.0 1.0 0.0
vn -0.0 1.0 0.0
vn 1.4910982E-4 1.0 0.0
vn 1.4932423E-4 1.0 0.0
vn -0.0 1.0 0.0
vn -0.0 1.0 0.0
vn 1.492416E-4 1.0 0.0
vn 1.4910982E-4 1.0 0.0
vn -0.0 1.0 0.0
vn -0.0 1.0 0.0
vn 1.4910982E-4 1.0 0.0
vn -0.0 1.0 0.0
vn 1.4932423E-4 1.0 0.0
vn 1.4932423E-4 1.0 0.0
vn -0.0 1.0 0.0
vn -0.0 5.823797E-5 -1.0
vn -0.0 5.823797E-5 -1.0
vn -0.0 5.823797E-5 -1.0
vn -0.0 5.823797E-5 -1.0
vn -0.0 2.6623183E-4 1.0
vn -0.0 2.6623183E-4 1.0
vn -0.0 2.6623183E-4 1.0
vn -0.0 2.6623183E-4 1.0
vn -0.0 -0.09009852 0.9959329
vn -0.0 -0.09009852 0.9959329
vn -0.0 -0.09009853 0.9959329
vn -0.0 -0.090100504 0.99593264
vn -0.0 0.0 1.0
vn -0.0 0.0 1.0
vn -0.0 0.0 1.0
vn -0.0 0.0 1.0
vn -0.0 0.22515208 -0.97432363
vn -0.0 0.22538729 -0.97426933
vn -0.0 0.22512965 -0.9743289
vn -0.0 0.22540972 -0.974264
vn -0.0 1.0 0.0
vn -0.0 1.0 0.0
vn -0.0 1.0 0.0
vn -0.0 1.0 0.0
vn -0.0 0.32613546 0.9453231
vn -0.0 0.3261436 0.9453202
vn -0.0 0.32613465 0.9453233
vn -0.0 0.32614446 0.94532
vn -0.0 -1.0 0.0
vn -0.0 -1.0 0.0
vn -0.0 -1.0 0.0
vn -0.0 -1.0 0.0
vn -0.0 -1.0 0.0
vn -0.0 -1.0 0.0
vn -0.0 -1.0 0.0
vn -0.0 -1.0 0.0
vn -0.0 -0.09010001 -0.99593276
vn -0.0 -0.09010002 -0.99593276
vn -0.0 -0.090100005 -0.99593276
vn -0.0 -0.090098545 -0.9959329
vn -0.0 0.0 -1.0
vn -0.0 0.0 -1.0
vn -0.0 0.0 -1.0
vn -0.0 0.0 -1.0
vn -0.0 0.22515161 0.97432375
vn -0.0 0.22538695 0.97426933
vn -0.0 0.22540939 0.97426414
vn -0.0 0.2251292 0.974329
vn -0.0 1.0 0.0
vn -0.0 1.0 0.0
vn -0.0 1.0 0.0
vn -0.0 1.0 0.0
vn -0.0 0.3354046 -0.9420742
vn -0.0 0.33541283 -0.9420713
vn -0.0 0.33541363 -0.94207096
vn -0.0 0.33540383 -0.9420745
vn -0.0 -1.0 0.0
vn -0.0 -1.0 0.0
vn -0.0 -1.0 0.0
vn -0.0 -1.0 0.0
vn -0.0 -1.0 0.0
vn -0.0 -1.0 0.0
vn -0.0 -1.0 0.0
vn -0.0 -1.0 0.0
vn -1.4915383E-4 1.0 0.0
vn -0.0 1.0 0.0
vn -0.0 1.0 0.0
vn -1.4915383E-4 1.0 0.0
vn -0.0 1.0 0.0
vn -1.493206E-4 1.0 0.0
vn -0.0 1.0 0.0
vn -1.4932058E-4 1.0 0.0
vn -1.4915381E-4 1.0 0.0
vn -0.0 1.0 0.0
vn -1.4915381E-4 1.0 0.0
vn -0.0 1.0 0.0
vn -1.4925633E-4 1.0 0.0
vn -0.0 1.0 0.0
vn -1.4915381E-4 1.0 0.0
vn -0.0 1.0 0.0
vn -1.4932058E-4 1.0 0.0
vn -0.0 1.0 0.0
vn -1.4925633E-4 1.0 0.0
vn -0.0 1.0 0.0
vn -1.4915381E-4 1.0 0.0
vn -0.0 1.0 0.0
vn -1.4915381E-4 1.0 0.0
vn -0.0 1.0 0.0
vn -0.0 1.0 0.0
vn -1.4932058E-4 1.0 0.0
vn -0.0 1.0 0.0
vn -1.4932058E-4 1.0 0.0
vn -0.0 5.8237973E-5 -1.0
vn -0.0 5.823797E-5 -1.0
vn -0.0 5.823797E-5 -1.0
vn -0.0 5.823797E-5 -1.0
vn -0.0 2.6623186E-4 1.0
vn -0.0 2.6623183E-4 1.0
vn -0.0 2.6623186E-4 1.0
vn -0.0 2.6623186E-4 1.0
vt 0.8951633 0.7485658
vt 0.8531239 0.62944734
vt 0.8531239 0.7485658
vt 0.8951633 0.62944734
vt 0.7893199 0.6541597
vt 0.95805544 0.6781408
vt 0.7893199 0.6781217
vt 0.95805544 0.6541407
vt 0.7612385 0.6433051
vt 0.9287768 0.6742301
vt 0.9287768 0.6433039
vt 0.7612385 0.67423
vt 0.9287768 0.68242025
vt 0.7612385 0.67423
vt 0.7612385 0.6824204
vt 0.9287768 0.6742301
vt 0.9287768 0.71965975
vt 0.7612385 0.6824204
vt 0.7612385 0.71965975
vt 0.9287768 0.68242025
vt 0.9523598 0.7485659
vt 0.94658136 0.62752503
vt 0.9465813 0.7485659
vt 0.9523598 0.62752503
vt 0.8531239 0.62944734
vt 0.8012062 0.7485658
vt 0.8531239 0.7485658
vt 0.80120623 0.62944734
vt 0.8951633 0.7485658
vt 0.8531239 0.62944734
vt 0.8951633 0.62944734
vt 0.8531239 0.7485658
vt 0.7893199 0.6541597
vt 0.95805544 0.6781408
vt 0.95805544 0.6541407
vt 0.7893199 0.6781217
vt 0.7612385 0.6433051
vt 0.9287768 0.6742301
vt 0.7612385 0.67423
vt 0.9287768 0.6433039
vt 0.9287768 0.68242025
vt 0.7612385 0.67423
vt 0.9287768 0.6742301
vt 0.7612385 0.6824204
vt 0.9287768 0.71965975
vt 0.7612385 0.6824204
vt 0.9287768 0.68242025
vt 0.7612385 0.71965975
vt 0.9523598 0.7485659
vt 0.94658136 0.62752503
vt 0.9523598 0.62752503
vt 0.9465813 0.7485659
vt 0.8531239 0.62944734
vt 0.8012062 0.7485658
vt 0.80120623 0.62944734
vt 0.8531239 0.7485658
vt 0.07521397 0.7517987
vt 0.48120007 0.7978104
vt 0.07521623 0.79782987
vt 0.48119855 0.75177366
vt 1.315376 0.7969126
vt 1.7220083 0.75639063
vt 1.7220101 0.79688776
vt 1.3153741 0.7564092
vt 1.0245292 0.43670517
vt 0.7599937 0.4401105
vt 0.7599937 0.43670517
vt 1.0245292 0.4401105
vt 1.0245291 0.004339397
vt 0.7599937 0.12187487
vt 0.7599937 0.004339397
vt 1.0245292 0.12187487
vt 1.0245291 0.31098258
vt 0.7599937 0.31465483
vt 0.7599937 0.31098258
vt 1.0245291 0.31465483
vt 0.11118695 0.93384886
vt 0.5171701 0.9190896
vt 0.51717055 0.9338311
vt 0.11118623 0.91910917
vt 0.47221455 0.93547094
vt 0.8788501 0.91934776
vt 0.87885094 0.9354435
vt 0.47221398 0.9193727
vt -0.7976988 0.80393517
vt -0.39465356 0.7991413
vt -0.39449567 0.80393517
vt -0.7978566 0.7991413
vt 1.31054 0.80143857
vt 1.7098242 0.7970489
vt 1.7087675 0.80143857
vt 1.3108972 0.7970489
vt 0.8951633 0.7485658
vt 0.8531239 0.62944734
vt 0.8951633 0.62944734
vt 0.8531239 0.7485658
vt 0.7893199 0.6541597
vt 0.95805544 0.6781408
vt 0.95805544 0.6541407
vt 0.7893199 0.6781217
vt 0.7612385 0.6433051
vt 0.9287768 0.6742301
vt 0.7612385 0.67423
vt 0.9287768 0.6433039
vt 0.9287768 0.68242025
vt 0.7612385 0.67423
vt 0.9287768 0.6742301
vt 0.7612385 0.6824204
vt 0.9287768 0.71965975
vt 0.7612385 0.6824204
vt 0.9287768 0.68242025
vt 0.7612385 0.71965975
vt 0.9523598 0.7485659
vt 0.94658136 0.62752503
vt 0.9523598 0.62752503
vt 0.9465813 0.7485659
vt 0.8531239 0.62944734
vt 0.8012062 0.7485658
vt 0.80120623 0.62944734
vt 0.8531239 0.7485658
vt 0.8951633 0.7485658
vt 0.8531239 0.62944734
vt 0.8531239 0.7485658
vt 0.8951633 0.62944734
vt 0.7893199 0.6541597
vt 0.95805544 0.6781408
vt 0.7893199 0.6781217
vt 0.95805544 0.6541407
vt 0.7612385 0.6433051
vt 0.9287768 0.6742301
vt 0.9287768 0.6433039
vt 0.7612385 0.67423
vt 0.9287768 0.68242025
vt 0.7612385 0.67423
vt 0.7612385 0.6824204
vt 0.9287768 0.6742301
vt 0.9287768 0.71965975
vt 0.7612385 0.6824204
vt 0.7612385 0.71965975
vt 0.9287768 0.68242025
vt 0.9523598 0.7485659
vt 0.94658136 0.62752503
vt 0.9465813 0.7485659
vt 0.9523598 0.62752503
vt 0.8531239 0.62944734
vt 0.8012062 0.7485658
vt 0.8531239 0.7485658
vt 0.80120623 0.62944734
vt 0.07521397 0.7517987
vt 0.48120007 0.7978104
vt 0.48119855 0.75177366
vt 0.07521623 0.79782987
vt 1.315376 0.7969126
vt 1.7220083 0.75639063
vt 1.3153741 0.7564092
vt 1.7220101 0.79688776
vt 1.0245292 0.43670517
vt 0.7599937 0.4401105
vt 1.0245292 0.4401105
vt 0.7599937 0.43670517
vt 1.0245291 0.004339397
vt 0.7599937 0.12187487
vt 1.0245292 0.12187487
vt 0.7599937 0.004339397
vt 1.0245291 0.31098258
vt 0.7599937 0.31465483
vt 1.0245291 0.31465483
vt 0.7599937 0.31098258
vt 0.11118695 0.93384886
vt 0.5171701 0.9190896
vt 0.11118623 0.91910917
vt 0.51717055 0.9338311
vt 0.47221455 0.93547094
vt 0.8788501 0.91934776
vt 0.47221398 0.9193727
vt 0.87885094 0.9354435
vt -0.7976988 0.80393517
vt -0.39465356 0.7991413
vt -0.7978566 0.7991413
vt -0.39449567 0.80393517
vt 1.31054 0.80143857
vt 1.7098242 0.7970489
vt 1.3108972 0.7970489
vt 1.7087675 0.80143857

g Bridge_Ramps_2Lanes_03
s 1
usemtl Bridge_Ramps_2Lanes_03
f 3/3/3 2/2/2 1/1/1 
f 4/4/4 1/1/1 2/2/2 
f 7/7/7 6/6/6 5/5/5 
f 8/8/8 5/5/5 6/6/6 
f 11/11/11 10/10/10 9/9/9 
f 12/12/12 9/9/9 10/10/10 
f 15/15/15 14/14/14 13/13/13 
f 16/16/16 13/13/13 14/14/14 
f 19/19/19 18/18/18 17/17/17 
f 20/20/20 17/17/17 18/18/18 
f 23/23/23 22/22/22 21/21/21 
f 24/24/24 21/21/21 22/22/22 
f 27/27/27 26/26/26 25/25/25 
f 28/28/28 25/25/25 26/26/26 
f 31/31/31 30/30/30 29/29/29 
f 32/32/32 29/29/29 30/30/30 
f 35/35/35 34/34/34 33/33/33 
f 36/36/36 33/33/33 34/34/34 
f 39/39/39 38/38/38 37/37/37 
f 40/40/40 37/37/37 38/38/38 
f 43/43/43 42/42/42 41/41/41 
f 44/44/44 41/41/41 42/42/42 
f 47/47/47 46/46/46 45/45/45 
f 48/48/48 45/45/45 46/46/46 
f 51/51/51 50/50/50 49/49/49 
f 52/52/52 49/49/49 50/50/50 
f 55/55/55 54/54/54 53/53/53 
f 56/56/56 53/53/53 54/54/54 
f 59/59/59 58/58/58 57/57/57 
f 60/60/60 57/57/57 58/58/58 
f 63/63/63 62/62/62 61/61/61 
f 64/64/64 61/61/61 62/62/62 
f 67/67/67 66/66/66 65/65/65 
f 68/68/68 65/65/65 66/66/66 
f 71/71/71 70/70/70 69/69/69 
f 72/72/72 69/69/69 70/70/70 
f 75/75/75 74/74/74 73/73/73 
f 76/76/76 73/73/73 74/74/74 
f 79/79/79 78/78/78 77/77/77 
f 80/80/80 77/77/77 78/78/78 
f 83/83/83 82/82/82 81/81/81 
f 84/84/84 81/81/81 82/82/82 
f 87/87/87 86/86/86 85/85/85 
f 88/88/88 85/85/85 86/86/86 
f 91/91/91 90/90/90 89/89/89 
f 92/92/92 89/89/89 90/90/90 
f 95/95/95 94/94/94 93/93/93 
f 96/96/96 93/93/93 94/94/94 
f 99/99/99 98/98/98 97/97/97 
f 100/100/100 97/97/97 98/98/98 
f 103/103/103 102/102/102 101/101/101 
f 104/104/104 101/101/101 102/102/102 
f 107/107/107 106/106/106 105/105/105 
f 108/108/108 105/105/105 106/106/106 
f 111/111/111 110/110/110 109/109/109 
f 112/112/112 109/109/109 110/110/110 
f 115/115/115 114/114/114 113/113/113 
f 116/116/116 113/113/113 114/114/114 
f 119/119/119 118/118/118 117/117/117 
f 120/120/120 117/117/117 118/118/118 
f 123/123/123 122/122/122 121/121/121 
f 124/124/124 121/121/121 122/122/122 
f 127/127/127 126/126/126 125/125/125 
f 128/128/128 125/125/125 126/126/126 
f 131/131/131 130/130/130 129/129/129 
f 132/132/132 129/129/129 130/130/130 
f 135/135/135 134/134/134 133/133/133 
f 136/136/136 133/133/133 134/134/134 
f 139/139/139 138/138/138 137/137/137 
f 140/140/140 137/137/137 138/138/138 
f 143/143/143 142/142/142 141/141/141 
f 144/144/144 141/141/141 142/142/142 
f 147/147/147 146/146/146 145/145/145 
f 148/148/148 145/145/145 146/146/146 
f 151/151/151 150/150/150 149/149/149 
f 152/152/152 149/149/149 150/150/150 
f 155/155/155 154/154/154 153/153/153 
f 156/156/156 153/153/153 154/154/154 
f 159/159/159 158/158/158 157/157/157 
f 160/160/160 157/157/157 158/158/158 
f 163/163/163 162/162/162 161/161/161 
f 164/164/164 161/161/161 162/162/162 
f 167/167/167 166/166/166 165/165/165 
f 168/168/168 165/165/165 166/166/166 
f 171/171/171 170/170/170 169/169/169 
f 172/172/172 169/169/169 170/170/170 
f 175/175/175 174/174/174 173/173/173 
f 176/176/176 173/173/173 174/174/174 
f 179/179/179 178/178/178 177/177/177 
f 180/180/180 177/177/177 178/178/178 
f 183/183/183 182/182/182 181/181/181 
f 184/184/184 181/181/181 182/182/182 

