# Created by DisUnity v0.3.4
v -20.0 1.2077136 0.8641205
v -2.1362305E-4 -0.6683383 1.0338402
v -2.1362305E-4 1.2077127 0.8641224
v -20.0 -0.6683378 1.033843
v -20.0 3.9589076 -1.1444092E-5
v -2.1362305E-4 1.2077125 -1.1444092E-5
v -2.1362305E-4 3.9589047 -1.1444092E-5
v -20.0 1.2077125 -1.1444092E-5
v -2.1362305E-4 3.9589067 2.0611858
v -20.0 6.4271417 1.4908428
v -2.1362305E-4 6.4271426 1.4908714
v -20.0 3.9618945 2.0612135
v -20.0 6.4271417 0.89799786
v -2.1362305E-4 6.4271426 1.4908714
v -20.0 6.4271417 1.4908428
v -2.1362305E-4 6.4271417 0.8980255
v -20.0 3.9589076 -1.1444092E-5
v -2.1362305E-4 6.4271417 0.8980255
v -20.0 6.4271417 0.89799786
v -2.1362305E-4 3.9589047 -1.1444092E-5
v -2.1362305E-4 1.2077127 0.8641224
v -20.0 1.2077125 -1.1444092E-5
v -20.0 1.2077136 0.8641205
v -2.1362305E-4 1.2077125 -1.1444092E-5
v -20.0 -0.6683378 11.822293
v -2.1362305E-4 -0.6683383 1.0338402
v -20.0 -0.6683378 1.033843
v -2.1362305E-4 -0.6683378 11.822292
v -20.0 1.2077136 23.208569
v -5.722046E-5 -0.6683383 23.038843
v -20.0 -0.6683378 23.038845
v -5.722046E-5 1.2077127 23.208563
v -20.0 3.9589074 24.000011
v -5.722046E-5 1.2077125 24.000011
v -20.0 1.2077125 24.000011
v -5.722046E-5 3.9589045 24.000011
v -5.722046E-5 3.958907 22.0115
v -20.0 6.4271417 22.581844
v -20.0 3.9618948 22.011475
v -5.722046E-5 6.4271426 22.581812
v -20.0 6.4271417 23.17469
v -5.722046E-5 6.4271426 22.581812
v -5.722046E-5 6.4271417 23.174658
v -20.0 6.4271417 22.581844
v -20.0 3.9589074 24.000011
v -5.722046E-5 6.4271417 23.174658
v -5.722046E-5 3.9589045 24.000011
v -20.0 6.4271417 23.17469
v -5.722046E-5 1.2077127 23.208563
v -20.0 1.2077125 24.000011
v -5.722046E-5 1.2077125 24.000011
v -20.0 1.2077136 23.208569
v -5.722046E-5 -0.6683383 23.038843
v -20.0 -0.6683378 11.822293
v -20.0 -0.6683378 23.038845
v -2.1362305E-4 -0.6683378 11.822292
v 7.247925E-5 4.1881533 22.536575
v -20.0 4.1911387 20.502125
v 7.247925E-5 4.1881537 20.502121
v -20.0 4.1911383 22.53658
v 3.5476685E-4 3.9588983 19.788723
v -20.0 3.9618824 20.017006
v -20.0 3.9618852 19.788727
v 3.5476685E-4 3.9588974 20.017002
v 1.9836426E-4 3.9588988 8.5695915
v -20.0 3.9618843 16.279226
v -20.0 3.9618866 8.569593
v 3.5476685E-4 3.9588983 16.279224
v 3.5476685E-4 3.9588974 20.017002
v -20.0 3.9618824 20.50211
v -20.0 3.9618824 20.017006
v 3.5476685E-4 3.9588974 20.502108
v 3.5476685E-4 3.9588974 20.502108
v -20.0 4.1911387 20.502125
v -20.0 3.9618824 20.50211
v 7.247925E-5 4.1881537 20.502121
v 1.9836426E-4 3.9588993 4.318233
v -20.0 3.9618866 8.569593
v -20.0 3.961888 4.318235
v 1.9836426E-4 3.9588988 8.5695915
v -20.0 4.191144 3.5134516
v -8.392334E-5 4.1881557 1.6622124
v -8.392334E-5 4.188155 3.5134497
v -20.0 4.1911445 1.6622143
v 1.9836426E-4 3.9588993 4.0825
v -20.0 3.961888 4.318235
v -20.0 3.961888 4.082502
v 1.9836426E-4 3.9588993 4.318233
v -20.0 3.961888 4.082502
v 1.9836426E-4 3.9588993 3.5135107
v 1.9836426E-4 3.9588993 4.0825
v -20.0 3.961888 3.5135126
v -20.0 3.961888 3.5135126
v -8.392334E-5 4.188155 3.5134497
v 1.9836426E-4 3.9588993 3.5135107
v -20.0 4.191144 3.5134516
v -20.0 3.9618843 16.279226
v 3.5476685E-4 3.9588983 19.788723
v -20.0 3.9618852 19.788727
v 3.5476685E-4 3.9588983 16.279224
v -20.0 1.2077136 0.8641205
v -39.999786 -0.6683383 1.0338402
v -20.0 -0.6683378 1.033843
v -39.999786 1.2077127 0.8641224
v -20.0 3.9589076 -1.1444092E-5
v -39.999786 1.2077125 -1.1444092E-5
v -20.0 1.2077125 -1.1444092E-5
v -39.999786 3.9589047 -1.1444092E-5
v -39.999786 3.9589067 2.0611858
v -20.0 6.4271417 1.4908428
v -20.0 3.9618945 2.0612135
v -39.999786 6.4271426 1.4908714
v -20.0 6.4271417 0.89799786
v -39.999786 6.4271426 1.4908714
v -39.999786 6.4271417 0.8980255
v -20.0 6.4271417 1.4908428
v -20.0 3.9589076 -1.1444092E-5
v -39.999786 6.4271417 0.8980255
v -39.999786 3.9589047 -1.1444092E-5
v -20.0 6.4271417 0.89799786
v -39.999786 1.2077127 0.8641224
v -20.0 1.2077125 -1.1444092E-5
v -39.999786 1.2077125 -1.1444092E-5
v -20.0 1.2077136 0.8641205
v -20.0 -0.6683378 11.822293
v -39.999786 -0.6683383 1.0338402
v -39.999786 -0.6683378 11.822292
v -20.0 -0.6683378 1.033843
v -20.0 1.2077136 23.208569
v -39.999943 -0.6683383 23.038843
v -39.999943 1.2077127 23.208563
v -20.0 -0.6683378 23.038845
v -20.0 3.9589074 24.000011
v -39.999943 1.2077125 24.000011
v -39.999943 3.9589045 24.000011
v -20.0 1.2077125 24.000011
v -39.999943 3.958907 22.0115
v -20.0 6.4271417 22.581844
v -39.999943 6.4271426 22.581812
v -20.0 3.9618948 22.011475
v -20.0 6.4271417 23.17469
v -39.999943 6.4271426 22.581812
v -20.0 6.4271417 22.581844
v -39.999943 6.4271417 23.174658
v -20.0 3.9589074 24.000011
v -39.999943 6.4271417 23.174658
v -20.0 6.4271417 23.17469
v -39.999943 3.9589045 24.000011
v -39.999943 1.2077127 23.208563
v -20.0 1.2077125 24.000011
v -20.0 1.2077136 23.208569
v -39.999943 1.2077125 24.000011
v -39.999943 -0.6683383 23.038843
v -20.0 -0.6683378 11.822293
v -39.999786 -0.6683378 11.822292
v -20.0 -0.6683378 23.038845
v -40.000072 4.1881533 22.536575
v -20.0 4.1911387 20.502125
v -20.0 4.1911383 22.53658
v -40.000072 4.1881537 20.502121
v -40.000355 3.9588983 19.788723
v -20.0 3.9618824 20.017006
v -40.000355 3.9588974 20.017002
v -20.0 3.9618852 19.788727
v -40.0002 3.9588988 8.5695915
v -20.0 3.9618843 16.279226
v -40.000355 3.9588983 16.279224
v -20.0 3.9618866 8.569593
v -40.000355 3.9588974 20.017002
v -20.0 3.9618824 20.50211
v -40.000355 3.9588974 20.502108
v -20.0 3.9618824 20.017006
v -40.000355 3.9588974 20.502108
v -20.0 4.1911387 20.502125
v -40.000072 4.1881537 20.502121
v -20.0 3.9618824 20.50211
v -40.0002 3.9588993 4.318233
v -20.0 3.9618866 8.569593
v -40.0002 3.9588988 8.5695915
v -20.0 3.961888 4.318235
v -20.0 4.191144 3.5134516
v -39.999916 4.1881557 1.6622124
v -20.0 4.1911445 1.6622143
v -39.999916 4.188155 3.5134497
v -40.0002 3.9588993 4.0825
v -20.0 3.961888 4.318235
v -40.0002 3.9588993 4.318233
v -20.0 3.961888 4.082502
v -20.0 3.961888 4.082502
v -40.0002 3.9588993 3.5135107
v -20.0 3.961888 3.5135126
v -40.0002 3.9588993 4.0825
v -20.0 3.961888 3.5135126
v -39.999916 4.188155 3.5134497
v -20.0 4.191144 3.5134516
v -40.0002 3.9588993 3.5135107
v -20.0 3.9618843 16.279226
v -40.000355 3.9588983 19.788723
v -40.000355 3.9588983 16.279224
v -20.0 3.9618852 19.788727
vn -0.0 -0.09009752 -0.995933
vn -0.0 -0.090097524 -0.995933
vn -0.0 -0.090097524 -0.995933
vn -0.0 -0.09010001 -0.99593276
vn -0.0 0.0 -1.0
vn -0.0 0.0 -1.0
vn -0.0 0.0 -1.0
vn -0.0 0.0 -1.0
vn -0.0 0.22515233 0.9743235
vn -0.0 0.22538766 0.9742692
vn -0.0 0.22512989 0.97432876
vn -0.0 0.2254101 0.974264
vn -0.0 1.0 0.0
vn -0.0 1.0 0.0
vn -0.0 1.0 0.0
vn -0.0 1.0 0.0
vn -0.0 0.3419017 -0.9397357
vn -0.0 0.34190917 -0.93973297
vn -0.0 0.34190097 -0.939736
vn -0.0 0.34190992 -0.93973273
vn -0.0 -1.0 0.0
vn -0.0 -1.0 0.0
vn -0.0 -1.0 0.0
vn -0.0 -1.0 0.0
vn -0.0 -1.0 0.0
vn -0.0 -1.0 0.0
vn -0.0 -1.0 0.0
vn -0.0 -1.0 0.0
vn -0.0 -0.090100504 0.99593264
vn -0.0 -0.0901005 0.99593264
vn -0.0 -0.090100504 0.99593264
vn -0.0 -0.09009853 0.9959329
vn -0.0 0.0 1.0
vn -0.0 0.0 1.0
vn -0.0 0.0 1.0
vn -0.0 0.0 1.0
vn -0.0 0.22515167 -0.97432375
vn -0.0 0.22538726 -0.97426933
vn -0.0 0.22540975 -0.974264
vn -0.0 0.2251292 -0.974329
vn -0.0 1.0 0.0
vn -0.0 1.0 0.0
vn -0.0 1.0 0.0
vn -0.0 1.0 0.0
vn -0.0 0.31711945 0.9483856
vn -0.0 0.31712857 0.94838256
vn -0.0 0.31712943 0.94838226
vn -0.0 0.31711856 0.9483859
vn -0.0 -1.0 0.0
vn -0.0 -1.0 0.0
vn -0.0 -1.0 0.0
vn -0.0 -1.0 0.0
vn -0.0 -1.0 0.0
vn -0.0 -1.0 0.0
vn -0.0 -1.0 0.0
vn -0.0 -1.0 0.0
vn 1.4924949E-4 1.0 0.0
vn -0.0 1.0 0.0
vn 1.4924949E-4 1.0 0.0
vn -0.0 1.0 0.0
vn 1.4927422E-4 1.0 0.0
vn -0.0 1.0 0.0
vn -0.0 1.0 0.0
vn 1.492474E-4 1.0 0.0
vn 1.4935463E-4 1.0 0.0
vn -0.0 1.0 0.0
vn -0.0 1.0 0.0
vn 1.4929507E-4 1.0 0.0
vn 1.492474E-4 1.0 0.0
vn -0.0 1.0 0.0
vn -0.0 1.0 0.0
vn 1.492474E-4 1.0 0.0
vn -0.0 6.6557746E-5 -1.0
vn -0.0 6.6557746E-5 -1.0
vn -0.0 6.655775E-5 -1.0
vn -0.0 5.8237798E-5 -1.0
vn 1.4941863E-4 1.0 0.0
vn -0.0 1.0 0.0
vn -0.0 1.0 0.0
vn 1.4935463E-4 1.0 0.0
vn -0.0 1.0 0.0
vn 1.494414E-4 1.0 0.0
vn 1.494414E-4 1.0 0.0
vn -0.0 1.0 0.0
vn 1.4943931E-4 1.0 0.0
vn -0.0 1.0 0.0
vn -0.0 1.0 0.0
vn 1.4941863E-4 1.0 0.0
vn -0.0 1.0 0.0
vn 1.494393E-4 1.0 0.0
vn 1.4943931E-4 1.0 0.0
vn -0.0 1.0 0.0
vn -0.0 2.6623174E-4 1.0
vn -0.0 2.6623177E-4 1.0
vn -0.0 2.6623174E-4 1.0
vn -0.0 2.6623157E-4 1.0
vn -0.0 1.0 0.0
vn 1.4927422E-4 1.0 0.0
vn -0.0 1.0 0.0
vn 1.4929507E-4 1.0 0.0
vn -0.0 -0.09010001 -0.99593276
vn -0.0 -0.09010001 -0.99593276
vn -0.0 -0.09010001 -0.99593276
vn -0.0 -0.090097524 -0.995933
vn -0.0 0.0 -1.0
vn -0.0 0.0 -1.0
vn -0.0 0.0 -1.0
vn -0.0 0.0 -1.0
vn -0.0 0.22515233 0.9743235
vn -0.0 0.22538766 0.9742692
vn -0.0 0.2254101 0.974264
vn -0.0 0.22512989 0.97432876
vn -0.0 1.0 0.0
vn -0.0 1.0 0.0
vn -0.0 1.0 0.0
vn -0.0 1.0 0.0
vn -0.0 0.3419017 -0.9397357
vn -0.0 0.34190917 -0.93973297
vn -0.0 0.34190992 -0.93973273
vn -0.0 0.34190097 -0.939736
vn -0.0 -1.0 0.0
vn -0.0 -1.0 0.0
vn -0.0 -1.0 0.0
vn -0.0 -1.0 0.0
vn -0.0 -1.0 0.0
vn -0.0 -1.0 0.0
vn -0.0 -1.0 0.0
vn -0.0 -1.0 0.0
vn -0.0 -0.09009852 0.9959329
vn -0.0 -0.09009852 0.9959329
vn -0.0 -0.09009853 0.9959329
vn -0.0 -0.090100504 0.99593264
vn -0.0 0.0 1.0
vn -0.0 0.0 1.0
vn -0.0 0.0 1.0
vn -0.0 0.0 1.0
vn -0.0 0.22515167 -0.97432375
vn -0.0 0.22538726 -0.97426933
vn -0.0 0.2251292 -0.974329
vn -0.0 0.22540975 -0.974264
vn -0.0 1.0 0.0
vn -0.0 1.0 0.0
vn -0.0 1.0 0.0
vn -0.0 1.0 0.0
vn -0.0 0.31711945 0.9483856
vn -0.0 0.31712857 0.94838256
vn -0.0 0.31711856 0.9483859
vn -0.0 0.31712943 0.94838226
vn -0.0 -1.0 0.0
vn -0.0 -1.0 0.0
vn -0.0 -1.0 0.0
vn -0.0 -1.0 0.0
vn -0.0 -1.0 0.0
vn -0.0 -1.0 0.0
vn -0.0 -1.0 0.0
vn -0.0 -1.0 0.0
vn -1.4924949E-4 1.0 0.0
vn -0.0 1.0 0.0
vn -0.0 1.0 0.0
vn -1.4924949E-4 1.0 0.0
vn -1.492742E-4 1.0 0.0
vn -0.0 1.0 0.0
vn -1.492474E-4 1.0 0.0
vn -0.0 1.0 0.0
vn -1.4935463E-4 1.0 0.0
vn -0.0 1.0 0.0
vn -1.4929507E-4 1.0 0.0
vn -0.0 1.0 0.0
vn -1.492474E-4 1.0 0.0
vn -0.0 1.0 0.0
vn -1.492474E-4 1.0 0.0
vn -0.0 1.0 0.0
vn -0.0 5.82378E-5 -1.0
vn -0.0 5.8237805E-5 -1.0
vn -0.0 5.8237798E-5 -1.0
vn -0.0 6.655775E-5 -1.0
vn -1.4941863E-4 1.0 0.0
vn -0.0 1.0 0.0
vn -1.4935463E-4 1.0 0.0
vn -0.0 1.0 0.0
vn -0.0 1.0 0.0
vn -1.494414E-4 1.0 0.0
vn -0.0 1.0 0.0
vn -1.494414E-4 1.0 0.0
vn -1.4943931E-4 1.0 0.0
vn -0.0 1.0 0.0
vn -1.4941863E-4 1.0 0.0
vn -0.0 1.0 0.0
vn -0.0 1.0 0.0
vn -1.494393E-4 1.0 0.0
vn -0.0 1.0 0.0
vn -1.4943931E-4 1.0 0.0
vn -0.0 2.6623154E-4 1.0
vn -0.0 2.6623154E-4 1.0
vn -0.0 2.6623157E-4 1.0
vn -0.0 2.6623174E-4 1.0
vn -0.0 1.0 0.0
vn -1.492742E-4 1.0 0.0
vn -1.4929507E-4 1.0 0.0
vn -0.0 1.0 0.0
vt 0.8951633 0.7485658
vt 0.8746647 0.62944734
vt 0.8951633 0.62944734
vt 0.8746647 0.7485658
vt 0.7893199 0.6541597
vt 0.95805544 0.6781408
vt 0.95805544 0.6541407
vt 0.7893199 0.6781217
vt 0.7612385 0.6433051
vt 0.9287768 0.6742301
vt 0.7612385 0.67423
vt 0.9287768 0.6433039
vt 0.9287768 0.68242025
vt 0.7612385 0.67423
vt 0.9287768 0.6742301
vt 0.7612385 0.6824204
vt 0.9287768 0.71965975
vt 0.7612385 0.6824204
vt 0.9287768 0.68242025
vt 0.7612385 0.71965975
vt 0.9523598 0.7485659
vt 0.94658136 0.62752503
vt 0.9523598 0.62752503
vt 0.9465813 0.7485659
vt 0.7946376 0.7485658
vt 0.8746647 0.62944734
vt 0.8746647 0.7485658
vt 0.7946377 0.62944734
vt 0.8951633 0.7485658
vt 0.84375834 0.62944734
vt 0.84375834 0.7485658
vt 0.8951633 0.62944734
vt 0.7893199 0.6541597
vt 0.95805544 0.6781408
vt 0.7893199 0.6781217
vt 0.95805544 0.6541407
vt 0.7612385 0.6433051
vt 0.9287768 0.6742301
vt 0.9287768 0.6433039
vt 0.7612385 0.67423
vt 0.9287768 0.68242025
vt 0.7612385 0.67423
vt 0.7612385 0.6824204
vt 0.9287768 0.6742301
vt 0.9287768 0.71965975
vt 0.7612385 0.6824204
vt 0.7612385 0.71965975
vt 0.9287768 0.68242025
vt 0.9523598 0.7485659
vt 0.94658136 0.62752503
vt 0.9465813 0.7485659
vt 0.9523598 0.62752503
vt 0.84375834 0.62944734
vt 0.76373124 0.7485658
vt 0.84375834 0.7485658
vt 0.7637313 0.62944734
vt 0.07521397 0.7517987
vt 0.48120007 0.7978104
vt 0.07521623 0.79782987
vt 0.48119855 0.75177366
vt 1.0245292 0.43670517
vt 0.7599937 0.4401105
vt 0.7599937 0.43670517
vt 1.0245292 0.4401105
vt 0.7665497 0.004339397
vt 1.0310851 0.12187487
vt 1.0310851 0.004339397
vt 0.7665496 0.12187487
vt 0.11118695 0.93384886
vt 0.5171701 0.9190896
vt 0.51717055 0.9338311
vt 0.11118623 0.91910917
vt -0.7976988 0.80393517
vt -0.39465356 0.7991413
vt -0.39449567 0.80393517
vt -0.7978566 0.7991413
vt 0.7665497 0.004339397
vt 1.0310851 0.065650046
vt 1.0310851 0.004339397
vt 0.7665496 0.065650046
vt 1.315376 0.7969126
vt 1.7220083 0.75639063
vt 1.7220101 0.79688776
vt 1.3153741 0.7564092
vt 1.0245291 0.31098258
vt 0.7599937 0.31465483
vt 0.7599937 0.31098258
vt 1.0245291 0.31465483
vt 0.47221455 0.93547094
vt 0.8788501 0.91934776
vt 0.87885094 0.9354435
vt 0.47221398 0.9193727
vt 1.31054 0.80143857
vt 1.7098242 0.7970489
vt 1.7087675 0.80143857
vt 1.3108972 0.7970489
vt 1.0245292 0.06471348
vt 0.7599938 0.010552108
vt 1.0245292 0.010552108
vt 0.7599937 0.06471348
vt 0.8951633 0.7485658
vt 0.8746647 0.62944734
vt 0.8746647 0.7485658
vt 0.8951633 0.62944734
vt 0.7893199 0.6541597
vt 0.95805544 0.6781408
vt 0.7893199 0.6781217
vt 0.95805544 0.6541407
vt 0.7612385 0.6433051
vt 0.9287768 0.6742301
vt 0.9287768 0.6433039
vt 0.7612385 0.67423
vt 0.9287768 0.68242025
vt 0.7612385 0.67423
vt 0.7612385 0.6824204
vt 0.9287768 0.6742301
vt 0.9287768 0.71965975
vt 0.7612385 0.6824204
vt 0.7612385 0.71965975
vt 0.9287768 0.68242025
vt 0.9523598 0.7485659
vt 0.94658136 0.62752503
vt 0.9465813 0.7485659
vt 0.9523598 0.62752503
vt 0.7946376 0.7485658
vt 0.8746647 0.62944734
vt 0.7946377 0.62944734
vt 0.8746647 0.7485658
vt 0.8951633 0.7485658
vt 0.84375834 0.62944734
vt 0.8951633 0.62944734
vt 0.84375834 0.7485658
vt 0.7893199 0.6541597
vt 0.95805544 0.6781408
vt 0.95805544 0.6541407
vt 0.7893199 0.6781217
vt 0.7612385 0.6433051
vt 0.9287768 0.6742301
vt 0.7612385 0.67423
vt 0.9287768 0.6433039
vt 0.9287768 0.68242025
vt 0.7612385 0.67423
vt 0.9287768 0.6742301
vt 0.7612385 0.6824204
vt 0.9287768 0.71965975
vt 0.7612385 0.6824204
vt 0.9287768 0.68242025
vt 0.7612385 0.71965975
vt 0.9523598 0.7485659
vt 0.94658136 0.62752503
vt 0.9523598 0.62752503
vt 0.9465813 0.7485659
vt 0.84375834 0.62944734
vt 0.76373124 0.7485658
vt 0.7637313 0.62944734
vt 0.84375834 0.7485658
vt 0.07521397 0.7517987
vt 0.48120007 0.7978104
vt 0.48119855 0.75177366
vt 0.07521623 0.79782987
vt 1.0245292 0.43670517
vt 0.7599937 0.4401105
vt 1.0245292 0.4401105
vt 0.7599937 0.43670517
vt 1.0245291 0.004339397
vt 0.7599937 0.12187487
vt 1.0245292 0.12187487
vt 0.7599937 0.004339397
vt 0.11118695 0.93384886
vt 0.5171701 0.9190896
vt 0.11118623 0.91910917
vt 0.51717055 0.9338311
vt -0.7976988 0.80393517
vt -0.39465356 0.7991413
vt -0.7978566 0.7991413
vt -0.39449567 0.80393517
vt 1.0245291 0.004339397
vt 0.7599937 0.065650046
vt 1.0245292 0.065650046
vt 0.7599937 0.004339397
vt 1.315376 0.7969126
vt 1.7220083 0.75639063
vt 1.3153741 0.7564092
vt 1.7220101 0.79688776
vt 1.0245291 0.31098258
vt 0.7599937 0.31465483
vt 1.0245291 0.31465483
vt 0.7599937 0.31098258
vt 0.47221455 0.93547094
vt 0.8788501 0.91934776
vt 0.47221398 0.9193727
vt 0.87885094 0.9354435
vt 1.31054 0.80143857
vt 1.7098242 0.7970489
vt 1.3108972 0.7970489
vt 1.7087675 0.80143857
vt 0.7665496 0.06471348
vt 1.031085 0.010552108
vt 1.0310851 0.06471348
vt 0.7665496 0.010552108

g Bridge_Ramps_4Lanes_03
s 1
usemtl Bridge_Ramps_4Lanes_03
f 3/3/3 2/2/2 1/1/1 
f 4/4/4 1/1/1 2/2/2 
f 7/7/7 6/6/6 5/5/5 
f 8/8/8 5/5/5 6/6/6 
f 11/11/11 10/10/10 9/9/9 
f 12/12/12 9/9/9 10/10/10 
f 15/15/15 14/14/14 13/13/13 
f 16/16/16 13/13/13 14/14/14 
f 19/19/19 18/18/18 17/17/17 
f 20/20/20 17/17/17 18/18/18 
f 23/23/23 22/22/22 21/21/21 
f 24/24/24 21/21/21 22/22/22 
f 27/27/27 26/26/26 25/25/25 
f 28/28/28 25/25/25 26/26/26 
f 31/31/31 30/30/30 29/29/29 
f 32/32/32 29/29/29 30/30/30 
f 35/35/35 34/34/34 33/33/33 
f 36/36/36 33/33/33 34/34/34 
f 39/39/39 38/38/38 37/37/37 
f 40/40/40 37/37/37 38/38/38 
f 43/43/43 42/42/42 41/41/41 
f 44/44/44 41/41/41 42/42/42 
f 47/47/47 46/46/46 45/45/45 
f 48/48/48 45/45/45 46/46/46 
f 51/51/51 50/50/50 49/49/49 
f 52/52/52 49/49/49 50/50/50 
f 55/55/55 54/54/54 53/53/53 
f 56/56/56 53/53/53 54/54/54 
f 59/59/59 58/58/58 57/57/57 
f 60/60/60 57/57/57 58/58/58 
f 63/63/63 62/62/62 61/61/61 
f 64/64/64 61/61/61 62/62/62 
f 67/67/67 66/66/66 65/65/65 
f 68/68/68 65/65/65 66/66/66 
f 71/71/71 70/70/70 69/69/69 
f 72/72/72 69/69/69 70/70/70 
f 75/75/75 74/74/74 73/73/73 
f 76/76/76 73/73/73 74/74/74 
f 79/79/79 78/78/78 77/77/77 
f 80/80/80 77/77/77 78/78/78 
f 83/83/83 82/82/82 81/81/81 
f 84/84/84 81/81/81 82/82/82 
f 87/87/87 86/86/86 85/85/85 
f 88/88/88 85/85/85 86/86/86 
f 91/91/91 90/90/90 89/89/89 
f 92/92/92 89/89/89 90/90/90 
f 95/95/95 94/94/94 93/93/93 
f 96/96/96 93/93/93 94/94/94 
f 99/99/99 98/98/98 97/97/97 
f 100/100/100 97/97/97 98/98/98 
f 103/103/103 102/102/102 101/101/101 
f 104/104/104 101/101/101 102/102/102 
f 107/107/107 106/106/106 105/105/105 
f 108/108/108 105/105/105 106/106/106 
f 111/111/111 110/110/110 109/109/109 
f 112/112/112 109/109/109 110/110/110 
f 115/115/115 114/114/114 113/113/113 
f 116/116/116 113/113/113 114/114/114 
f 119/119/119 118/118/118 117/117/117 
f 120/120/120 117/117/117 118/118/118 
f 123/123/123 122/122/122 121/121/121 
f 124/124/124 121/121/121 122/122/122 
f 127/127/127 126/126/126 125/125/125 
f 128/128/128 125/125/125 126/126/126 
f 131/131/131 130/130/130 129/129/129 
f 132/132/132 129/129/129 130/130/130 
f 135/135/135 134/134/134 133/133/133 
f 136/136/136 133/133/133 134/134/134 
f 139/139/139 138/138/138 137/137/137 
f 140/140/140 137/137/137 138/138/138 
f 143/143/143 142/142/142 141/141/141 
f 144/144/144 141/141/141 142/142/142 
f 147/147/147 146/146/146 145/145/145 
f 148/148/148 145/145/145 146/146/146 
f 151/151/151 150/150/150 149/149/149 
f 152/152/152 149/149/149 150/150/150 
f 155/155/155 154/154/154 153/153/153 
f 156/156/156 153/153/153 154/154/154 
f 159/159/159 158/158/158 157/157/157 
f 160/160/160 157/157/157 158/158/158 
f 163/163/163 162/162/162 161/161/161 
f 164/164/164 161/161/161 162/162/162 
f 167/167/167 166/166/166 165/165/165 
f 168/168/168 165/165/165 166/166/166 
f 171/171/171 170/170/170 169/169/169 
f 172/172/172 169/169/169 170/170/170 
f 175/175/175 174/174/174 173/173/173 
f 176/176/176 173/173/173 174/174/174 
f 179/179/179 178/178/178 177/177/177 
f 180/180/180 177/177/177 178/178/178 
f 183/183/183 182/182/182 181/181/181 
f 184/184/184 181/181/181 182/182/182 
f 187/187/187 186/186/186 185/185/185 
f 188/188/188 185/185/185 186/186/186 
f 191/191/191 190/190/190 189/189/189 
f 192/192/192 189/189/189 190/190/190 
f 195/195/195 194/194/194 193/193/193 
f 196/196/196 193/193/193 194/194/194 
f 199/199/199 198/198/198 197/197/197 
f 200/200/200 197/197/197 198/198/198 

