# Created by DisUnity v0.3.4
v 0.2468642 1.6469553 0.049194403
v -0.24685438 2.0793567 0.049194265
v 0.24686427 2.0793567 0.049194343
v -0.24685445 1.6469553 0.04919433
v 0.24686421 1.6469553 -0.049214344
v -0.24685434 2.0793567 -0.049214493
v -0.24685441 1.6469553 -0.049214426
v 0.24686429 2.0793567 -0.049214404
v 0.2468642 1.6469553 0.049194403
v -0.24685441 1.6469553 -0.049214426
v -0.24685445 1.6469553 0.04919433
v 0.24686421 1.6469553 -0.049214344
v -0.24685445 1.6469553 0.04919433
v -0.24685434 2.0793567 -0.049214493
v -0.24685438 2.0793567 0.049194265
v -0.24685441 1.6469553 -0.049214426
v -0.24685438 2.0793567 0.049194265
v 0.24686429 2.0793567 -0.049214404
v 0.24686427 2.0793567 0.049194343
v -0.24685434 2.0793567 -0.049214493
v 0.24686427 2.0793567 0.049194343
v 0.24686421 1.6469553 -0.049214344
v 0.2468642 1.6469553 0.049194403
v 0.24686429 2.0793567 -0.049214404
v -0.03297696 2.030899 0.034297723
v -0.03297732 -2.5103622E-5 -0.038570177
v -0.032976963 2.030899 -0.038570177
v -0.032977313 -2.5103622E-5 0.034297723
v 0.023212047 2.030899 0.03429772
v -0.032977313 -2.5103622E-5 0.034297723
v -0.03297696 2.030899 0.034297723
v 0.023211692 -2.5113446E-5 0.03429772
v 0.023212045 2.030899 -0.03857018
v 0.023211692 -2.5113446E-5 0.03429772
v 0.023212047 2.030899 0.03429772
v 0.02321169 -2.5113446E-5 -0.03857018
v -0.032976963 2.030899 -0.038570177
v 0.02321169 -2.5113446E-5 -0.03857018
v 0.023212045 2.030899 -0.03857018
v -0.03297732 -2.5103622E-5 -0.038570177
vn -0.0 0.0 1.0
vn -0.0 0.0 1.0
vn -0.0 0.0 1.0
vn -0.0 0.0 1.0
vn -0.0 0.0 -1.0
vn -0.0 0.0 -1.0
vn -0.0 0.0 -1.0
vn -0.0 0.0 -1.0
vn -0.0 -1.0 0.0
vn -0.0 -1.0 0.0
vn -0.0 -1.0 0.0
vn -0.0 -1.0 0.0
vn -1.0 0.0 0.0
vn -1.0 0.0 0.0
vn -1.0 0.0 0.0
vn -1.0 0.0 0.0
vn -0.0 1.0 0.0
vn -0.0 1.0 0.0
vn -0.0 1.0 0.0
vn -0.0 1.0 0.0
vn 1.0 0.0 0.0
vn 1.0 0.0 0.0
vn 1.0 0.0 0.0
vn 1.0 0.0 0.0
vn -0.70710653 0.0 0.70710695
vn -0.70710665 0.0 -0.7071069
vn -0.707106 0.0 -0.70710754
vn -0.70710593 0.0 0.70710754
vn 0.70710593 0.0 0.70710754
vn -0.70710593 0.0 0.70710754
vn -0.70710653 0.0 0.70710695
vn 0.7071066 0.0 0.7071069
vn 0.7071066 0.0 -0.70710695
vn 0.7071066 0.0 0.7071069
vn 0.70710593 0.0 0.70710754
vn 0.70710593 0.0 -0.70710754
vn -0.707106 0.0 -0.70710754
vn 0.70710593 0.0 -0.70710754
vn 0.7071066 0.0 -0.70710695
vn -0.70710665 0.0 -0.7071069
vt 0.7650347 0.6551095
vt 0.6887388 0.5788137
vt 0.7650347 0.5788137
vt 0.6887388 0.6551095
vt 0.6887388 0.6551095
vt 0.7650347 0.5788137
vt 0.7650347 0.6551095
vt 0.6887388 0.5788137
vt 0.7215988 0.628516
vt 0.72693956 0.62317526
vt 0.72693956 0.628516
vt 0.7215988 0.62317526
vt 0.7215988 0.628516
vt 0.72693956 0.62317526
vt 0.72693956 0.628516
vt 0.7215988 0.62317526
vt 0.7215988 0.628516
vt 0.72693956 0.62317526
vt 0.72693956 0.628516
vt 0.7215988 0.62317526
vt 0.7215988 0.628516
vt 0.72693956 0.62317526
vt 0.72693956 0.628516
vt 0.7215988 0.62317526
vt 0.4982726 0.5016766
vt 0.49515945 0.6741779
vt 0.49515948 0.5016766
vt 0.4982726 0.6741779
vt 0.48893327 0.5016766
vt 0.4858201 0.6741779
vt 0.48582014 0.5016766
vt 0.48893324 0.67417794
vt 0.49204636 0.5016766
vt 0.48893324 0.67417794
vt 0.48893327 0.5016766
vt 0.49204636 0.67417794
vt 0.49515948 0.5016766
vt 0.49204636 0.67417794
vt 0.49204636 0.5016766
vt 0.49515945 0.6741779

g Bus_Stop_Sign
s 1
usemtl Bus_Stop_Sign
f 3/3/3 2/2/2 1/1/1 
f 4/4/4 1/1/1 2/2/2 
f 7/7/7 6/6/6 5/5/5 
f 8/8/8 5/5/5 6/6/6 
f 11/11/11 10/10/10 9/9/9 
f 12/12/12 9/9/9 10/10/10 
f 15/15/15 14/14/14 13/13/13 
f 16/16/16 13/13/13 14/14/14 
f 19/19/19 18/18/18 17/17/17 
f 20/20/20 17/17/17 18/18/18 
f 23/23/23 22/22/22 21/21/21 
f 24/24/24 21/21/21 22/22/22 
f 27/27/27 26/26/26 25/25/25 
f 28/28/28 25/25/25 26/26/26 
f 31/31/31 30/30/30 29/29/29 
f 32/32/32 29/29/29 30/30/30 
f 35/35/35 34/34/34 33/33/33 
f 36/36/36 33/33/33 34/34/34 
f 39/39/39 38/38/38 37/37/37 
f 40/40/40 37/37/37 38/38/38 

