# Created by DisUnity v0.3.4
v 1.6923958 -5.2449974E-5 -0.67599916
v 1.6072867 2.1706774 -0.6759992
v 1.607286 -5.243509E-5 -0.6759992
v 1.6923966 2.170677 -0.675999
v 1.6072856 0.23169556 -0.6129145
v 1.607286 2.1063502 0.54792446
v 1.6072856 0.23169556 0.5479242
v 1.6072867 2.1063502 -0.61291474
v 1.6923954 -5.2449974E-5 0.67599833
v 1.607286 2.1706774 0.6759983
v 1.6923958 2.170677 0.6759982
v 1.6072856 -5.2431365E-5 0.6759983
v 1.6923958 0.39410678 0.58041906
v 1.6923962 2.098914 -0.5804199
v 1.6923956 0.39410675 -0.5804199
v 1.6923962 2.098914 0.5804192
v 1.607286 -5.243509E-5 -0.6759992
v 1.6072856 0.23169556 0.5479242
v 1.6072856 -5.2431365E-5 0.6759983
v 1.6072856 0.23169556 -0.6129145
v 1.6072856 -5.2431365E-5 0.6759983
v 1.607286 2.1063502 0.54792446
v 1.607286 2.1706774 0.6759983
v 1.6072856 0.23169556 0.5479242
v 1.607286 2.1706774 0.6759983
v 1.6072867 2.1063502 -0.61291474
v 1.6072867 2.1706774 -0.6759992
v 1.607286 2.1063502 0.54792446
v 1.6072867 2.1706774 -0.6759992
v 1.6072856 0.23169556 -0.6129145
v 1.607286 -5.243509E-5 -0.6759992
v 1.6072867 2.1063502 -0.61291474
v 1.6923954 -5.2449974E-5 0.67599833
v 1.6923956 0.39410675 -0.5804199
v 1.6923958 -5.2449974E-5 -0.67599916
v 1.6923958 0.39410678 0.58041906
v 1.6923958 -5.2449974E-5 -0.67599916
v 1.6923962 2.098914 -0.5804199
v 1.6923966 2.170677 -0.675999
v 1.6923956 0.39410675 -0.5804199
v 1.6923962 2.2557871 0.6759982
v 1.6923966 2.170677 -0.675999
v 1.6923958 2.170677 0.6759982
v 1.6923966 2.2557871 -0.67599905
v -1.6919153 2.2557876 -0.6759996
v -1.691915 2.170678 0.67599756
v -1.6919153 2.170678 -0.6759996
v -1.691915 2.255788 0.67599756
v -1.691915 2.3867314 0.51340693
v -1.6919152 2.386731 -0.5134089
v -1.691915 2.5507195 -1.0179969E-6
v 1.6923966 2.2557871 -0.67599905
v -1.6919153 2.170678 -0.6759996
v 1.6072867 2.1706774 -0.6759992
v -1.6919153 2.2557876 -0.6759996
v 1.6923966 2.170677 -0.675999
v 1.607286 2.1706774 0.6759983
v -1.691915 2.255788 0.67599756
v 1.6923962 2.2557871 0.6759982
v -1.691915 2.170678 0.67599756
v 1.6923958 2.170677 0.6759982
v -1.691915 2.170678 0.67599756
v 1.6072867 2.1706774 -0.6759992
v -1.6919153 2.170678 -0.6759996
v 1.607286 2.1706774 0.6759983
v 0.5141716 -5.224024E-5 -0.6759993
v 0.3595176 2.1706772 -0.67599934
v 0.35951746 -5.2216925E-5 -0.67599934
v 0.51417196 2.1706772 -0.6759993
v 0.35951746 -5.2216925E-5 -0.67599934
v 0.35951835 2.1706772 -0.52134585
v 0.35951796 -5.2216925E-5 -0.52134585
v 0.3595176 2.1706772 -0.67599934
v 0.35951796 -5.2216925E-5 -0.52134585
v 0.5141725 2.1706772 -0.5213459
v 0.5141716 -5.2243966E-5 -0.5213459
v 0.35951835 2.1706772 -0.52134585
v 0.5141716 -5.2243966E-5 -0.5213459
v 0.51417196 2.1706772 -0.6759993
v 0.5141716 -5.224024E-5 -0.6759993
v 0.5141725 2.1706772 -0.5213459
v -1.5372623 -5.188528E-5 0.521344
v -1.691915 2.1706774 0.5213438
v -1.6919154 -5.1858242E-5 0.52134395
v -1.537262 2.1706774 0.521344
v -1.6919154 -5.1858242E-5 0.52134395
v -1.691915 2.1706774 0.67599744
v -1.6919154 -5.1858242E-5 0.67599756
v -1.691915 2.1706774 0.5213438
v -1.6919154 -5.1858242E-5 0.67599756
v -1.537262 2.170678 0.6759975
v -1.5372623 -5.188528E-5 0.6759976
v -1.691915 2.1706774 0.67599744
v -1.5372623 -5.188528E-5 0.6759976
v -1.537262 2.1706774 0.521344
v -1.5372623 -5.188528E-5 0.521344
v -1.537262 2.170678 0.6759975
v -1.5372626 -5.1881554E-5 -0.5213453
v -1.5372622 2.170678 -0.6759988
v -1.5372626 -5.188528E-5 -0.675999
v -1.5372622 2.1706774 -0.5213453
v -1.5372626 -5.188528E-5 -0.675999
v -1.6919148 2.1706774 -0.6759989
v -1.6919156 -5.1858242E-5 -0.67599905
v -1.5372622 2.170678 -0.6759988
v -1.6919156 -5.1858242E-5 -0.67599905
v -1.6919153 2.1706774 -0.5213454
v -1.6919156 -5.1858242E-5 -0.5213454
v -1.6919148 2.1706774 -0.6759989
v -1.6919156 -5.1858242E-5 -0.5213454
v -1.5372622 2.1706774 -0.5213453
v -1.5372626 -5.1881554E-5 -0.5213453
v -1.6919153 2.1706774 -0.5213454
v 0.035012096 -5.2160187E-5 0.52134424
v -0.119640835 2.1706772 0.52134424
v -0.119641215 -5.2133146E-5 0.52134424
v 0.035012476 2.1706772 0.52134424
v -0.119641215 -5.2133146E-5 0.52134424
v -0.11964128 2.1706772 0.67599756
v -0.11964166 -5.2133146E-5 0.67599756
v -0.119640835 2.1706772 0.52134424
v -0.11964166 -5.2133146E-5 0.67599756
v 0.035012506 2.1706772 0.6759978
v 0.035012126 -5.2160187E-5 0.6759978
v -0.11964128 2.1706772 0.67599756
v 0.035012126 -5.2160187E-5 0.6759978
v 0.035012476 2.1706772 0.52134424
v 0.035012096 -5.2160187E-5 0.52134424
v 0.035012506 2.1706772 0.6759978
v 1.6923962 2.2557871 0.6759982
v 1.6923963 2.3867304 -0.51340836
v 1.6923966 2.2557871 -0.67599905
v 1.6923963 2.3867304 0.51340747
v 1.6923964 2.550719 -5.196407E-7
v 1.6923966 2.2557871 -0.67599905
v -1.6919152 2.386731 -0.5134089
v -1.6919153 2.2557876 -0.6759996
v 1.6923963 2.3867304 -0.51340836
v -1.691915 2.5507195 -1.0179969E-6
v 1.6923964 2.550719 -5.196407E-7
v -1.691915 2.3867314 0.51340693
v 1.6923963 2.3867304 0.51340747
v -1.691915 2.255788 0.67599756
v 1.6923963 2.3867304 0.51340747
v 1.6923962 2.2557871 0.6759982
v -1.691915 2.3867314 0.51340693
v 1.6923962 2.098914 0.5804192
v 1.6923966 2.170677 -0.675999
v 1.6923962 2.098914 -0.5804199
v 1.6923958 2.170677 0.6759982
v 1.6923958 2.170677 0.6759982
v 1.6923958 0.39410678 0.58041906
v 1.6923954 -5.2449974E-5 0.67599833
v 1.6923962 2.098914 0.5804192
v -0.1196412 -5.2133146E-5 0.58051175
v -1.537261 2.1706774 0.58051145
v -1.5372614 -5.188528E-5 0.58051157
v -0.11964082 2.1706772 0.58051175
v -1.5372614 -5.188528E-5 0.61683005
v -0.11964082 2.1706772 0.61683017
v -0.1196412 -5.2133146E-5 0.61683017
v -1.537261 2.1706774 0.61683017
v -1.6348985 -5.186821E-5 -0.52134496
v -1.634898 2.1706774 0.52134407
v -1.6348983 -5.186821E-5 0.52134395
v -1.6348982 2.1706774 -0.521345
v -1.5942768 -5.187531E-5 0.521344
v -1.5942771 2.1706774 -0.52134496
v -1.5942775 -5.187531E-5 -0.5213449
v -1.5942769 2.1706774 0.521344
v 1.6072856 -5.2431365E-5 0.580512
v 0.035012487 2.1706772 0.58051175
v 0.035012107 -5.2160187E-5 0.58051175
v 1.607286 2.170677 0.580512
v 0.035012115 -5.2160187E-5 0.61683017
v 1.6072863 2.170677 0.61683047
v 1.6072856 -5.243509E-5 0.61683047
v 0.035012495 2.1706772 0.6168303
v 0.35951805 -5.22132E-5 -0.60689723
v -1.5372612 2.1706774 -0.60689753
v -1.5372616 -5.188528E-5 -0.6068975
v 0.35951844 2.1706772 -0.6068972
v -1.5372616 -5.187783E-5 -0.5767982
v 0.35951844 2.1706772 -0.5767979
v 0.35951808 -5.2216925E-5 -0.5767979
v -1.5372612 2.1706774 -0.5767982
vn -0.0 0.0 -1.0
vn -0.0 0.0 -1.0
vn -0.0 0.0 -1.0
vn -0.0 0.0 -1.0
vn -1.0 0.0 0.0
vn -1.0 0.0 0.0
vn -1.0 0.0 0.0
vn -1.0 0.0 0.0
vn -0.0 0.0 1.0
vn -0.0 0.0 1.0
vn -0.0 0.0 1.0
vn -0.0 0.0 1.0
vn 1.0 0.0 0.0
vn 1.0 0.0 0.0
vn 1.0 0.0 0.0
vn 1.0 0.0 0.0
vn -1.0 0.0 0.0
vn -1.0 0.0 0.0
vn -1.0 0.0 0.0
vn -1.0 0.0 0.0
vn -1.0 0.0 0.0
vn -1.0 0.0 0.0
vn -0.70710737 -0.7071061 0.0
vn -1.0 0.0 0.0
vn -0.70710737 -0.7071061 0.0
vn -1.0 0.0 0.0
vn -0.70710707 -0.7071064 0.0
vn -1.0 0.0 0.0
vn -0.70710707 -0.7071064 0.0
vn -1.0 0.0 0.0
vn -1.0 0.0 0.0
vn -1.0 0.0 0.0
vn 1.0 0.0 0.0
vn 1.0 0.0 0.0
vn 1.0 0.0 0.0
vn 1.0 0.0 0.0
vn 1.0 0.0 0.0
vn 1.0 0.0 0.0
vn 1.0 0.0 0.0
vn 1.0 0.0 0.0
vn 1.0 0.0 0.0
vn 1.0 0.0 0.0
vn 1.0 0.0 0.0
vn 1.0 0.0 0.0
vn -1.0 0.0 0.0
vn -1.0 0.0 0.0
vn -1.0 0.0 0.0
vn -1.0 0.0 0.0
vn -1.0 0.0 0.0
vn -1.0 0.0 0.0
vn -1.0 0.0 0.0
vn -0.0 0.0 -1.0
vn -0.0 0.0 -1.0
vn -0.0 0.0 -1.0
vn -0.0 0.0 -1.0
vn -0.0 0.0 -1.0
vn -0.0 0.0 1.0
vn -0.0 0.0 1.0
vn -0.0 0.0 1.0
vn -0.0 0.0 1.0
vn -0.0 0.0 1.0
vn -0.0 -1.0 0.0
vn -0.70710707 -0.7071064 0.0
vn -0.0 -1.0 0.0
vn -0.70710737 -0.7071061 0.0
vn -0.0 0.0 -1.0
vn -0.0 0.0 -1.0
vn -0.0 0.0 -1.0
vn -0.0 0.0 -1.0
vn -1.0 0.0 0.0
vn -1.0 0.0 0.0
vn -1.0 0.0 0.0
vn -1.0 0.0 0.0
vn -0.0 0.0 1.0
vn -0.0 0.0 1.0
vn -0.0 0.0 1.0
vn -0.0 0.0 1.0
vn 1.0 0.0 0.0
vn 1.0 0.0 0.0
vn 1.0 0.0 0.0
vn 1.0 0.0 0.0
vn -0.0 0.0 -1.0
vn -0.0 0.0 -1.0
vn -0.0 0.0 -1.0
vn -0.0 0.0 -1.0
vn -1.0 0.0 0.0
vn -1.0 0.0 0.0
vn -1.0 0.0 0.0
vn -1.0 0.0 0.0
vn -0.0 0.0 1.0
vn -0.0 0.0 1.0
vn -0.0 0.0 1.0
vn -0.0 0.0 1.0
vn 1.0 0.0 0.0
vn 1.0 0.0 0.0
vn 1.0 0.0 0.0
vn 1.0 0.0 0.0
vn 1.0 0.0 0.0
vn 1.0 0.0 0.0
vn 1.0 0.0 0.0
vn 1.0 0.0 0.0
vn -0.0 0.0 -1.0
vn -0.0 0.0 -1.0
vn -0.0 0.0 -1.0
vn -0.0 0.0 -1.0
vn -1.0 0.0 0.0
vn -1.0 0.0 0.0
vn -1.0 0.0 0.0
vn -1.0 0.0 0.0
vn -0.0 0.0 1.0
vn -0.0 0.0 1.0
vn -0.0 0.0 1.0
vn -0.0 0.0 1.0
vn -0.0 0.0 -1.0
vn -0.0 0.0 -1.0
vn -0.0 0.0 -1.0
vn -0.0 0.0 -1.0
vn -1.0 0.0 0.0
vn -1.0 0.0 0.0
vn -1.0 0.0 0.0
vn -1.0 0.0 0.0
vn -0.0 0.0 1.0
vn -0.0 0.0 1.0
vn -0.0 0.0 1.0
vn -0.0 0.0 1.0
vn 1.0 0.0 0.0
vn 1.0 0.0 0.0
vn 1.0 0.0 0.0
vn 1.0 0.0 0.0
vn 1.0 0.0 0.0
vn 1.0 0.0 0.0
vn 1.0 0.0 0.0
vn 1.0 0.0 0.0
vn 1.0 0.0 0.0
vn -0.0 0.77883 -0.62723505
vn -0.0 0.88064057 -0.47378486
vn -0.0 0.77883 -0.627235
vn -0.0 0.88064057 -0.47378504
vn -0.0 1.0 0.0
vn -0.0 1.0 0.0
vn -0.0 0.8806408 0.4737846
vn -0.0 0.8806407 0.47378477
vn -0.0 0.77882993 0.6272352
vn -0.0 0.8806407 0.47378477
vn -0.0 0.7788301 0.6272349
vn -0.0 0.8806408 0.4737846
vn 1.0 0.0 0.0
vn 1.0 0.0 0.0
vn 1.0 0.0 0.0
vn 1.0 0.0 0.0
vn 1.0 0.0 0.0
vn 1.0 0.0 0.0
vn 1.0 0.0 0.0
vn 1.0 0.0 0.0
vn -0.0 0.0 -1.0
vn -0.0 0.0 -1.0
vn -0.0 0.0 -1.0
vn -0.0 0.0 -1.0
vn -0.0 0.0 1.0
vn -0.0 0.0 1.0
vn -0.0 0.0 1.0
vn -0.0 0.0 1.0
vn -1.0 0.0 0.0
vn -1.0 0.0 0.0
vn -1.0 0.0 0.0
vn -1.0 0.0 0.0
vn 1.0 0.0 0.0
vn 1.0 0.0 0.0
vn 1.0 0.0 0.0
vn 1.0 0.0 0.0
vn -0.0 0.0 -1.0
vn -0.0 0.0 -1.0
vn -0.0 0.0 -1.0
vn -0.0 0.0 -1.0
vn -0.0 0.0 1.0
vn -0.0 0.0 1.0
vn -0.0 0.0 1.0
vn -0.0 0.0 1.0
vn -0.0 0.0 -1.0
vn -0.0 0.0 -1.0
vn -0.0 0.0 -1.0
vn -0.0 0.0 -1.0
vn -0.0 0.0 1.0
vn -0.0 0.0 1.0
vn -0.0 0.0 1.0
vn -0.0 0.0 1.0
vt 0.023743633 0.24776852
vt 0.028596032 0.10616207
vt 0.028596032 0.24776852
vt 0.023743633 0.10616207
vt 0.6724298 0.57746375
vt 0.7180886 0.5005324
vt 0.7180886 0.57746375
vt 0.6724298 0.50053245
vt 0.023743544 0.24776852
vt 0.028596032 0.10616207
vt 0.023743544 0.10616207
vt 0.028596032 0.24776852
vt 0.7194141 0.57770693
vt 0.76509976 0.500533
vt 0.76509976 0.57770693
vt 0.7194141 0.50053304
vt 0.028553903 0.21181011
vt 0.0029956736 0.12988591
vt 0.028553922 0.12353957
vt 0.002995655 0.20545113
vt 0.023743633 0.24776852
vt 0.017390966 0.111014724
vt 0.023743633 0.10616207
vt 0.017390966 0.22221029
vt 0.022413474 0.2149669
vt 0.017560717 0.13305521
vt 0.022413474 0.12669623
vt 0.017560717 0.20862043
vt 0.023743544 0.10616207
vt 0.017390877 0.22221029
vt 0.023743544 0.24776852
vt 0.017390877 0.111014724
vt 0.02855394 0.21181011
vt 0.00298048 0.12988591
vt 0.028553959 0.12353957
vt 0.0029804623 0.20545113
vt 0.023743633 0.24776852
vt 0.017390966 0.11089265
vt 0.023743633 0.10616207
vt 0.017390966 0.22219503
vt 0.6166589 0.081879854
vt 0.56994087 0.07893884
vt 0.6166589 0.07893884
vt 0.56994087 0.081879854
vt 0.5703499 0.05092144
vt 0.6168824 0.053831458
vt 0.57032555 0.053831458
vt 0.6169051 0.05092013
vt 0.6113078 0.04641223
vt 0.5759488 0.04641223
vt 0.5936282 0.040765285
vt 0.020367851 0.09479964
vt 0.017927265 0.24833775
vt 0.017927302 0.09866083
vt 0.020367818 0.24833775
vt 0.017927302 0.09479964
vt 0.017927265 0.24447656
vt 0.020367851 0.09479964
vt 0.020367818 0.24833775
vt 0.017927302 0.09479964
vt 0.017927265 0.24833775
vt 0.68788826 0.12483144
vt 0.7496841 1.2916327E-4
vt 0.7496841 0.12483144
vt 0.68788826 1.2916327E-4
vt 0.015514538 0.1513803
vt 0.005419342 0.24833041
vt 0.005419342 0.1513803
vt 0.015514538 0.24833041
vt 0.005419342 0.1513803
vt 0.0022289727 0.24833041
vt 0.0022289727 0.1513803
vt 0.005419342 0.24833041
vt 0.028765384 0.1513803
vt 0.018704925 0.24833041
vt 0.018704925 0.1513803
vt 0.028765384 0.24833041
vt 0.018704925 0.1513803
vt 0.015514538 0.24833041
vt 0.015514538 0.1513803
vt 0.018704925 0.24833041
vt 0.015514538 0.1513803
vt 0.005419342 0.24833053
vt 0.005419342 0.1513803
vt 0.015514538 0.24833053
vt 0.005419342 0.1513803
vt 0.0022289727 0.24833053
vt 0.0022289727 0.1513803
vt 0.005419342 0.24833053
vt 0.028801337 0.1513803
vt 0.018704925 0.24833053
vt 0.018704925 0.1513803
vt 0.028801337 0.24833053
vt 0.018704925 0.1513803
vt 0.015514538 0.24833053
vt 0.015514538 0.1513803
vt 0.018704925 0.24833053
vt 0.015514538 0.24833053
vt 0.018704925 0.1513803
vt 0.018704925 0.24833053
vt 0.015514538 0.1513803
vt 0.018704925 0.24833053
vt 0.028834764 0.1513803
vt 0.028834764 0.24833053
vt 0.018704925 0.1513803
vt 0.0022289727 0.24833053
vt 0.005419342 0.1513803
vt 0.005419342 0.24833053
vt 0.0022289727 0.1513803
vt 0.005419342 0.24833053
vt 0.015514538 0.1513803
vt 0.015514538 0.24833053
vt 0.005419342 0.1513803
vt 0.015514538 0.1513803
vt 0.005419342 0.24833053
vt 0.005419342 0.1513803
vt 0.015514538 0.24833053
vt 0.005419342 0.1513803
vt 0.0022289727 0.24833053
vt 0.0022289727 0.1513803
vt 0.005419342 0.24833053
vt 0.028814655 0.1513803
vt 0.018704925 0.24833053
vt 0.018704925 0.1513803
vt 0.028814655 0.24833053
vt 0.018704925 0.1513803
vt 0.015514538 0.24833053
vt 0.015514538 0.1513803
vt 0.018704925 0.24833053
vt 0.5703499 0.05092144
vt 0.6113078 0.04641223
vt 0.6169084 0.05092287
vt 0.5759488 0.04641223
vt 0.5936282 0.040765285
vt 0.5772569 9.987354E-4
vt 0.5807151 0.124818444
vt 0.5772569 0.124818385
vt 0.5807151 9.987354E-4
vt 0.5942739 0.124818444
vt 0.5942739 9.987354E-4
vt 0.6078325 0.124818444
vt 0.6078325 9.987354E-4
vt 0.6112907 0.124818385
vt 0.6078325 9.987354E-4
vt 0.61129063 9.987354E-4
vt 0.6078325 0.124818444
vt 0.017682906 0.13305521
vt 0.02241344 0.2149669
vt 0.017682906 0.20862043
vt 0.02241344 0.12669623
vt 0.023743544 0.10616207
vt 0.017390877 0.22219503
vt 0.023743544 0.24776852
vt 0.017390877 0.11089265
vt 0.6251878 0.5779581
vt 0.67178583 0.5000956
vt 0.67178583 0.577958
vt 0.6251878 0.5000956
vt 0.6251878 0.577958
vt 0.67178583 0.5000956
vt 0.67178583 0.577958
vt 0.6251878 0.5000956
vt 0.6250708 0.5777973
vt 0.67180896 0.5002035
vt 0.67180896 0.5777973
vt 0.6250708 0.5002035
vt 0.6250708 0.5777973
vt 0.67180884 0.5002035
vt 0.67180896 0.5777973
vt 0.6250708 0.5002035
vt 0.6251878 0.577958
vt 0.67178583 0.5000956
vt 0.67178583 0.577958
vt 0.6251878 0.5000956
vt 0.6251878 0.5779581
vt 0.67178583 0.5000956
vt 0.67178583 0.577958
vt 0.6251878 0.5000956
vt 0.6251878 0.577958
vt 0.67178583 0.5000956
vt 0.67178583 0.577958
vt 0.6251878 0.5000956
vt 0.6251878 0.577958
vt 0.67178583 0.5000956
vt 0.67178583 0.577958
vt 0.6251878 0.5000957

g Bus_Stop_Shelter
s 1
usemtl Bus_Stop_Shelter
f 3/3/3 2/2/2 1/1/1 
f 4/4/4 1/1/1 2/2/2 
f 7/7/7 6/6/6 5/5/5 
f 8/8/8 5/5/5 6/6/6 
f 11/11/11 10/10/10 9/9/9 
f 12/12/12 9/9/9 10/10/10 
f 15/15/15 14/14/14 13/13/13 
f 16/16/16 13/13/13 14/14/14 
f 19/19/19 18/18/18 17/17/17 
f 20/20/20 17/17/17 18/18/18 
f 23/23/23 22/22/22 21/21/21 
f 24/24/24 21/21/21 22/22/22 
f 27/27/27 26/26/26 25/25/25 
f 28/28/28 25/25/25 26/26/26 
f 31/31/31 30/30/30 29/29/29 
f 32/32/32 29/29/29 30/30/30 
f 35/35/35 34/34/34 33/33/33 
f 36/36/36 33/33/33 34/34/34 
f 39/39/39 38/38/38 37/37/37 
f 40/40/40 37/37/37 38/38/38 
f 43/43/43 42/42/42 41/41/41 
f 44/44/44 41/41/41 42/42/42 
f 47/47/47 46/46/46 45/45/45 
f 48/48/48 45/45/45 46/46/46 
f 48/48/48 49/49/49 45/45/45 
f 50/50/50 45/45/45 49/49/49 
f 49/49/49 51/51/51 50/50/50 
f 54/54/54 53/53/53 52/52/52 
f 55/55/55 52/52/52 53/53/53 
f 52/52/52 56/56/56 54/54/54 
f 59/59/59 58/58/58 57/57/57 
f 60/60/60 57/57/57 58/58/58 
f 59/59/59 57/57/57 61/61/61 
f 64/64/64 63/63/63 62/62/62 
f 65/65/65 62/62/62 63/63/63 
f 68/68/68 67/67/67 66/66/66 
f 69/69/69 66/66/66 67/67/67 
f 72/72/72 71/71/71 70/70/70 
f 73/73/73 70/70/70 71/71/71 
f 76/76/76 75/75/75 74/74/74 
f 77/77/77 74/74/74 75/75/75 
f 80/80/80 79/79/79 78/78/78 
f 81/81/81 78/78/78 79/79/79 
f 84/84/84 83/83/83 82/82/82 
f 85/85/85 82/82/82 83/83/83 
f 88/88/88 87/87/87 86/86/86 
f 89/89/89 86/86/86 87/87/87 
f 92/92/92 91/91/91 90/90/90 
f 93/93/93 90/90/90 91/91/91 
f 96/96/96 95/95/95 94/94/94 
f 97/97/97 94/94/94 95/95/95 
f 100/100/100 99/99/99 98/98/98 
f 101/101/101 98/98/98 99/99/99 
f 104/104/104 103/103/103 102/102/102 
f 105/105/105 102/102/102 103/103/103 
f 108/108/108 107/107/107 106/106/106 
f 109/109/109 106/106/106 107/107/107 
f 112/112/112 111/111/111 110/110/110 
f 113/113/113 110/110/110 111/111/111 
f 116/116/116 115/115/115 114/114/114 
f 117/117/117 114/114/114 115/115/115 
f 120/120/120 119/119/119 118/118/118 
f 121/121/121 118/118/118 119/119/119 
f 124/124/124 123/123/123 122/122/122 
f 125/125/125 122/122/122 123/123/123 
f 128/128/128 127/127/127 126/126/126 
f 129/129/129 126/126/126 127/127/127 
f 132/132/132 131/131/131 130/130/130 
f 133/133/133 130/130/130 131/131/131 
f 131/131/131 134/134/134 133/133/133 
f 137/137/137 136/136/136 135/135/135 
f 138/138/138 135/135/135 136/136/136 
f 136/136/136 139/139/139 138/138/138 
f 140/140/140 138/138/138 139/139/139 
f 139/139/139 141/141/141 140/140/140 
f 142/142/142 140/140/140 141/141/141 
f 145/145/145 144/144/144 143/143/143 
f 146/146/146 143/143/143 144/144/144 
f 149/149/149 148/148/148 147/147/147 
f 150/150/150 147/147/147 148/148/148 
f 153/153/153 152/152/152 151/151/151 
f 154/154/154 151/151/151 152/152/152 
f 157/157/157 156/156/156 155/155/155 
f 158/158/158 155/155/155 156/156/156 
f 161/161/161 160/160/160 159/159/159 
f 162/162/162 159/159/159 160/160/160 
f 165/165/165 164/164/164 163/163/163 
f 166/166/166 163/163/163 164/164/164 
f 169/169/169 168/168/168 167/167/167 
f 170/170/170 167/167/167 168/168/168 
f 173/173/173 172/172/172 171/171/171 
f 174/174/174 171/171/171 172/172/172 
f 177/177/177 176/176/176 175/175/175 
f 178/178/178 175/175/175 176/176/176 
f 181/181/181 180/180/180 179/179/179 
f 182/182/182 179/179/179 180/180/180 
f 185/185/185 184/184/184 183/183/183 
f 186/186/186 183/183/183 184/184/184 

