# Created by DisUnity v0.3.4
v -4.0 -3.524141E-23 5.755359E-7
v -2.3841858E-7 2.0 -1.1587008E-7
v -4.0 2.0 4.8811313E-7
v -2.3841858E-7 1.741894E-24 -2.8447289E-8
v -4.0 2.0 0.015885685
v -2.3841858E-7 -9.726859E-19 0.015885167
v -4.0 -9.72723E-19 0.015885772
v -2.3841858E-7 2.0 0.01588508
v -3.973618 1.9553813 0.047389615
v -0.026382446 1.9423963 0.039891608
v -3.973618 1.9423964 0.03989285
v -0.026382446 1.9553812 0.047388375
v -0.026382446 1.9423963 0.024898075
v -3.973618 1.9423964 0.024899313
v -3.973618 1.9423964 0.024899313
v -0.026382446 1.9553812 0.017401312
v -3.973618 1.9553813 0.01740255
v -0.026382446 1.9423963 0.024898075
v -0.026382446 1.9683659 0.024898075
v -3.973618 1.968366 0.024899315
v -0.026382446 1.9683659 0.039891608
v -3.973618 1.968366 0.03989285
v -0.026382446 1.9553812 0.047388375
v -3.973618 1.9553813 0.047389615
v -3.973618 1.9423964 0.03989285
v -3.973618 1.9553813 0.01740255
v -3.973618 1.9553813 0.047389615
v -3.973618 1.9423964 0.024899313
v -3.973618 1.968366 0.03989285
v -3.973618 1.968366 0.024899315
v -0.026382446 1.9423963 0.039891608
v -0.026382446 1.9553812 0.017401312
v -0.026382446 1.9423963 0.024898075
v -0.026382446 1.9553812 0.047388375
v -0.026382446 1.9683659 0.039891608
v -0.026382446 1.9683659 0.024898075
v -0.026382446 -7.0627033E-19 0.01153427
v -0.0444479 2.0 0.021964336
v -0.0444479 -1.3449276E-18 0.021964336
v -0.026382446 2.0 0.01153427
v -0.008316994 -1.3449273E-18 0.02196433
v -0.008316994 2.0 0.02196433
v -0.0444479 -1.3449276E-18 0.021964336
v -0.0444479 2.0 0.04282445
v -0.0444479 -2.6222413E-18 0.04282445
v -0.0444479 2.0 0.021964336
v -0.0444479 -2.6222413E-18 0.04282445
v -0.026382446 2.0 0.053254507
v -0.026382446 -3.2608982E-18 0.053254507
v -0.0444479 2.0 0.04282445
v -0.008316994 2.0 0.042824447
v -0.008316994 -2.622241E-18 0.042824443
v -0.008316994 2.0 0.02196433
v -0.008316994 -1.3449273E-18 0.02196433
v -0.0444479 -1.3449276E-18 0.021964336
v -0.026382446 -3.2608982E-18 0.053254507
v -0.026382446 -7.0627033E-19 0.01153427
v -0.0444479 -2.6222413E-18 0.04282445
v -0.008316994 -1.3449273E-18 0.02196433
v -0.008316994 -2.622241E-18 0.042824443
v -0.026382446 2.0 0.01153427
v -0.0444479 2.0 0.04282445
v -0.0444479 2.0 0.021964336
v -0.026382446 2.0 0.053254507
v -0.008316994 2.0 0.042824447
v -0.008316994 2.0 0.02196433
v -4.010477 -1.9711098E-18 0.032190666
v -4.000047 2.0 0.05025603
v -4.000047 -3.0772996E-18 0.05025612
v -4.010477 2.0 0.03219058
v -3.9791873 2.0 0.050256025
v -3.979187 -3.0772994E-18 0.050256114
v -4.0000477 -8.6491975E-19 0.014125211
v -4.0000477 2.0 0.014125124
v -3.979187 -3.0772994E-18 0.050256114
v -3.9687572 2.0 0.032190572
v -3.9687572 -1.9711096E-18 0.032190662
v -3.9791873 2.0 0.050256025
v -3.979187 2.0 0.014125121
v -3.979187 -8.6491954E-19 0.014125208
v -4.0000477 2.0 0.014125124
v -4.0000477 -8.6491975E-19 0.014125211
v -4.000047 -3.0772996E-18 0.05025612
v -3.9687572 -1.9711096E-18 0.032190662
v -4.010477 -1.9711098E-18 0.032190666
v -3.979187 -3.0772994E-18 0.050256114
v -4.0000477 -8.6491975E-19 0.014125211
v -3.979187 -8.6491954E-19 0.014125208
v -4.010477 2.0 0.03219058
v -3.9791873 2.0 0.050256025
v -4.000047 2.0 0.05025603
v -3.9687572 2.0 0.032190572
v -3.979187 2.0 0.014125121
v -4.0000477 2.0 0.014125124
v -6.8284264 4.7683716E-7 2.8284297
v -4.0 2.0 1.2033688E-6
v -6.8284264 2.0000005 2.8284297
v -4.0 -1.1553552E-22 1.8868382E-6
v -6.817194 2.0000005 2.839662
v -3.9887676 -6.879074E-19 0.01123438
v -6.817193 4.7683716E-7 2.8396626
v -3.9887671 2.0 0.0112341745
v -6.772114 5.364418E-7 2.8474321
v -6.766715 2.0000005 2.8272824
v -6.766715 5.364418E-7 2.8272824
v -6.772114 2.0000005 2.8474317
v -6.7814655 2.0000005 2.8125322
v -6.7814655 5.364418E-7 2.812532
v -6.7814655 5.364418E-7 2.812532
v -6.8016148 2.0000005 2.8179307
v -6.8016148 5.364418E-7 2.8179312
v -6.7814655 2.0000005 2.8125322
v -6.8016148 5.364418E-7 2.8179312
v -6.8070135 2.0000005 2.8380804
v -6.8070135 5.364418E-7 2.8380806
v -6.8016148 2.0000005 2.8179307
v -6.792263 2.0000005 2.852831
v -6.792264 5.364418E-7 2.852831
v -6.772114 2.0000005 2.8474317
v -6.772114 5.364418E-7 2.8474321
v -6.766715 5.364418E-7 2.8272824
v -6.8016148 5.364418E-7 2.8179312
v -6.772114 5.364418E-7 2.8474321
v -6.7814655 5.364418E-7 2.812532
v -6.792264 5.364418E-7 2.852831
v -6.8070135 5.364418E-7 2.8380806
v -6.766715 2.0000005 2.8272824
v -6.8016148 2.0000005 2.8179307
v -6.7814655 2.0000005 2.8125322
v -6.772114 2.0000005 2.8474317
v -6.792263 2.0000005 2.852831
v -6.8070135 2.0000005 2.8380804
v -6.7762623 1.9553816 2.8432837
v -3.990448 1.9423964 0.046864524
v -6.781563 1.9423969 2.8379827
v -3.9851465 1.9553813 0.05216528
v -6.781563 1.9683664 2.8379827
v -3.990448 1.968366 0.04686452
v -6.792165 1.9683664 2.8273807
v -4.00105 1.968366 0.03626205
v -6.781563 1.9423969 2.8379827
v -4.00105 1.9423964 0.03626205
v -6.792165 1.9423969 2.8273807
v -3.990448 1.9423964 0.046864524
v -6.792165 1.9423969 2.8273807
v -4.0063505 1.9553813 0.030961288
v -6.7974663 1.9553816 2.8220797
v -4.00105 1.9423964 0.03626205
v -4.00105 1.968366 0.03626205
v -6.792165 1.9683664 2.8273807
v -6.781563 1.9423969 2.8379827
v -6.7974663 1.9553816 2.8220797
v -6.7762623 1.9553816 2.8432837
v -6.792165 1.9423969 2.8273807
v -6.781563 1.9683664 2.8379827
v -6.792165 1.9683664 2.8273807
v -3.990448 1.9423964 0.046864524
v -4.0063505 1.9553813 0.030961288
v -4.00105 1.9423964 0.03626205
v -3.9851465 1.9553813 0.05216528
v -3.990448 1.968366 0.04686452
v -4.00105 1.968366 0.03626205
vn -0.0 0.0 -1.0
vn -0.0 0.0 -1.0
vn -0.0 0.0 -1.0
vn -0.0 0.0 -1.0
vn -0.0 0.0 1.0
vn -0.0 0.0 1.0
vn -0.0 0.0 1.0
vn -0.0 0.0 1.0
vn -0.0 0.0 1.0
vn -0.0 -0.86602473 0.50000113
vn -0.0 -0.86602455 0.5000015
vn -0.0 0.0 1.0
vn -0.0 -0.86602455 -0.5000016
vn -0.0 -0.8660246 -0.50000125
vn -0.0 -0.8660246 -0.50000125
vn -0.0 0.0 -1.0
vn -0.0 0.0 -1.0
vn -0.0 -0.86602455 -0.5000016
vn -0.0 0.8660256 -0.49999964
vn -0.0 0.8660256 -0.49999964
vn -0.0 0.8660256 0.4999996
vn -0.0 0.8660256 0.4999996
vn -0.0 0.0 1.0
vn -0.0 0.0 1.0
vn -1.0 0.0 0.0
vn -1.0 0.0 0.0
vn -1.0 0.0 0.0
vn -1.0 0.0 0.0
vn -1.0 0.0 0.0
vn -1.0 0.0 0.0
vn 1.0 0.0 0.0
vn 1.0 0.0 0.0
vn 1.0 0.0 0.0
vn 1.0 0.0 0.0
vn 1.0 0.0 0.0
vn 1.0 0.0 0.0
vn -0.0 0.0 -1.0
vn -0.86602545 0.0 -0.50000006
vn -0.8660249 0.0 -0.50000095
vn -0.0 0.0 -1.0
vn 0.8660253 0.0 -0.5000001
vn 0.8660248 0.0 -0.5000011
vn -0.8660249 0.0 -0.50000095
vn -0.8660248 0.0 0.50000113
vn -0.86602527 0.0 0.5000003
vn -0.86602545 0.0 -0.50000006
vn -0.86602527 0.0 0.5000003
vn -0.0 0.0 1.0
vn -0.0 0.0 1.0
vn -0.8660248 0.0 0.50000113
vn 0.8660253 0.0 0.5000001
vn 0.8660249 0.0 0.50000095
vn 0.8660248 0.0 -0.5000011
vn 0.8660253 0.0 -0.5000001
vn -0.0 -1.0 0.0
vn -0.0 -1.0 0.0
vn -0.0 -1.0 0.0
vn -0.0 -1.0 0.0
vn -0.0 -1.0 0.0
vn -0.0 -1.0 0.0
vn -0.0 1.0 0.0
vn -0.0 1.0 0.0
vn -0.0 1.0 0.0
vn -0.0 1.0 0.0
vn -0.0 1.0 0.0
vn -0.0 1.0 0.0
vn -1.0 0.0 0.0
vn -0.5000037 0.0 0.8660233
vn -0.50000453 0.0 0.86602277
vn -1.0 0.0 1.0449931E-5
vn 0.5000004 0.0 0.86602515
vn 0.5000038 0.0 0.8660232
vn -0.5000125 0.0 -0.8660183
vn -0.5000134 0.0 -0.86601776
vn 0.5000038 0.0 0.8660232
vn 1.0 0.0 0.0
vn 1.0 0.0 0.0
vn 0.5000004 0.0 0.86602515
vn 0.5000037 0.0 -0.8660233
vn 0.5000046 0.0 -0.86602277
vn -0.5000134 0.0 -0.86601776
vn -0.5000125 0.0 -0.8660183
vn -0.0 -1.0 0.0
vn -0.0 -1.0 0.0
vn -0.0 -1.0 0.0
vn -0.0 -1.0 0.0
vn -0.0 -1.0 0.0
vn -0.0 -1.0 0.0
vn -0.0 1.0 0.0
vn -0.0 1.0 0.0
vn -0.0 1.0 0.0
vn -0.0 1.0 0.0
vn -0.0 1.0 0.0
vn -0.0 1.0 0.0
vn -0.707107 0.0 -0.70710653
vn -0.70710695 0.0 -0.7071066
vn -0.707107 0.0 -0.7071065
vn -0.70710695 0.0 -0.70710653
vn 0.70710707 0.0 0.7071064
vn 0.70710695 0.0 0.70710653
vn 0.70710707 0.0 0.7071064
vn 0.70710695 0.0 0.7071066
vn 0.7071042 0.0 0.70710933
vn 0.96592337 0.0 -0.25882837
vn 0.96592396 0.0 -0.25882635
vn 0.70711493 0.0 0.7070986
vn 0.25882497 0.0 -0.96592426
vn 0.25881383 0.0 -0.9659272
vn 0.25881383 0.0 -0.9659272
vn -0.70710534 0.0 -0.70710814
vn -0.7071153 0.0 -0.7070982
vn 0.25882497 0.0 -0.96592426
vn -0.7071153 0.0 -0.7070982
vn -0.9659236 0.0 0.25882724
vn -0.96592736 0.0 0.25881326
vn -0.70710534 0.0 -0.70710814
vn -0.2588128 0.0 0.9659275
vn -0.2588419 0.0 0.96591973
vn 0.70711493 0.0 0.7070986
vn 0.7071042 0.0 0.70710933
vn -0.0 -1.0 0.0
vn -0.0 -1.0 0.0
vn -0.0 -1.0 0.0
vn -0.0 -1.0 0.0
vn -0.0 -1.0 0.0
vn -0.0 -1.0 0.0
vn -0.0 1.0 0.0
vn -0.0 1.0 0.0
vn -0.0 1.0 0.0
vn -0.0 1.0 0.0
vn -0.0 1.0 0.0
vn -0.0 1.0 0.0
vn 0.7071071 0.0 0.70710635
vn 0.35355127 -0.86602724 0.35355112
vn 0.35356408 -0.86601686 0.35356382
vn 0.7071071 0.0 0.70710635
vn 0.35356048 0.8660198 0.35355997
vn 0.35355207 0.86602676 0.35355145
vn -0.35355198 0.8660267 -0.3535516
vn -0.3535681 0.86601347 -0.3535679
vn 0.35356408 -0.86601686 0.35356382
vn -0.35356972 -0.8660124 -0.3535691
vn -0.35354844 -0.8660296 -0.35354793
vn 0.35355127 -0.86602724 0.35355112
vn -0.35354844 -0.8660296 -0.35354793
vn -0.7071072 0.0 -0.7071063
vn -0.7071072 0.0 -0.7071063
vn -0.35356972 -0.8660124 -0.3535691
vn -0.3535681 0.86601347 -0.3535679
vn -0.35355198 0.8660267 -0.3535516
vn -0.70710677 -2.5959967E-5 0.70710677
vn -0.70710677 0.0 0.70710677
vn -0.70710677 0.0 0.70710677
vn -0.70710677 -2.5973985E-5 0.70710677
vn -0.70710677 2.5959967E-5 0.70710677
vn -0.70710677 2.5973985E-5 0.70710677
vn 0.70711076 -2.937451E-5 -0.7071028
vn 0.70711464 0.0 -0.70709884
vn 0.7071227 0.0 -0.70709085
vn 0.70710677 0.0 -0.70710677
vn 0.7071107 2.9244073E-5 -0.70710284
vn 0.70712256 0.0 -0.707091
vt 0.7636159 0.40869343
vt 0.00838897 0.010317564
vt 0.7636518 0.01036036
vt 0.008353116 0.40865064
vt 0.7636518 0.01036036
vt 0.008353116 0.40865064
vt 0.7636159 0.40869343
vt 0.00838897 0.010317564
vt 0.015628552 0.45737576
vt 0.62411886 0.46193773
vt 0.015628552 0.46193767
vt 0.62411886 0.45737594
vt 0.62411886 0.46649945
vt 0.015628552 0.46649945
vt 0.015628552 0.43912852
vt 0.62411875 0.44369036
vt 0.015628552 0.44369018
vt 0.62411875 0.43912858
vt 0.62411875 0.44825214
vt 0.015628552 0.44825208
vt 0.62411886 0.45281404
vt 0.015628552 0.45281398
vt 0.62411886 0.45737594
vt 0.015628552 0.45737576
vt 0.038384654 0.42576498
vt 0.029202199 0.4416694
vt 0.029202199 0.4204635
vt 0.038384654 0.43636805
vt 0.020019865 0.42576498
vt 0.020019865 0.43636805
vt 0.060299255 0.46111482
vt 0.05111704 0.4452104
vt 0.060299374 0.45051175
vt 0.05111704 0.46641618
vt 0.041934468 0.4611146
vt 0.041934587 0.45051175
vt 0.50348216 0.4359269
vt 0.018789386 0.42943406
vt 0.50348216 0.42943406
vt 0.018789386 0.4359269
vt 0.50348216 0.44242
vt 0.018789386 0.44242
vt 0.50348216 0.42943406
vt 0.018789386 0.4229412
vt 0.50348216 0.4229412
vt 0.018789386 0.42943406
vt 0.50348216 0.46189857
vt 0.018789386 0.45540583
vt 0.50348216 0.45540583
vt 0.018789386 0.46189857
vt 0.018789386 0.44891298
vt 0.50348216 0.44891298
vt 0.018789386 0.44242
vt 0.50348216 0.44242
vt 0.03833697 0.4525866
vt 0.030352449 0.46641618
vt 0.030352449 0.44797665
vt 0.03833697 0.46180612
vt 0.02236781 0.4525866
vt 0.02236781 0.46180624
vt 0.052314855 0.42317337
vt 0.044330336 0.43700296
vt 0.044330336 0.42778307
vt 0.052314855 0.44161266
vt 0.060299374 0.43700296
vt 0.060299374 0.42778307
vt 0.50348216 0.4359269
vt 0.018789386 0.42943406
vt 0.50348216 0.42943406
vt 0.018789386 0.4359269
vt 0.018789386 0.4229412
vt 0.50348216 0.4229412
vt 0.50348216 0.44242
vt 0.018789386 0.44242
vt 0.50348216 0.46189857
vt 0.018789386 0.45540583
vt 0.50348216 0.45540583
vt 0.018789386 0.46189857
vt 0.018789386 0.44891298
vt 0.50348216 0.44891298
vt 0.018789386 0.44242
vt 0.50348216 0.44242
vt 0.03833697 0.4525866
vt 0.030352449 0.46641618
vt 0.030352449 0.44797665
vt 0.03833697 0.46180612
vt 0.02236781 0.4525866
vt 0.02236781 0.46180624
vt 0.052314855 0.42317337
vt 0.044330336 0.43700296
vt 0.044330336 0.42778307
vt 0.052314855 0.44161266
vt 0.060299374 0.43700296
vt 0.060299374 0.42778307
vt 0.7636159 0.40869343
vt 0.00838897 0.010317564
vt 0.7636518 0.01036036
vt 0.008353116 0.40865064
vt 0.7636518 0.01036036
vt 0.008353116 0.40865064
vt 0.7636159 0.40869343
vt 0.00838897 0.010317564
vt 0.50348216 0.4359269
vt 0.018789386 0.42943406
vt 0.50348216 0.42943406
vt 0.018789386 0.4359269
vt 0.018789386 0.4229412
vt 0.50348216 0.4229412
vt 0.50348216 0.46189857
vt 0.018789386 0.45540583
vt 0.50348216 0.45540583
vt 0.018789386 0.46189857
vt 0.50348216 0.45540583
vt 0.018789386 0.44891298
vt 0.50348216 0.44891298
vt 0.018789386 0.45540583
vt 0.018789386 0.44242
vt 0.50348216 0.44242
vt 0.018789386 0.4359269
vt 0.50348216 0.4359269
vt 0.03833697 0.4525866
vt 0.030352449 0.46641618
vt 0.030352449 0.44797665
vt 0.03833697 0.46180612
vt 0.02236781 0.4525866
vt 0.02236781 0.46180624
vt 0.044330336 0.42778307
vt 0.052314855 0.44161266
vt 0.044330336 0.43700296
vt 0.052314855 0.42317337
vt 0.060299374 0.42778307
vt 0.060299374 0.43700296
vt 0.015628552 0.45737576
vt 0.62411886 0.46193773
vt 0.015628552 0.46193767
vt 0.62411886 0.45737594
vt 0.015628552 0.45281398
vt 0.62411886 0.45281404
vt 0.015628552 0.44825208
vt 0.62411875 0.44825214
vt 0.015628552 0.46193767
vt 0.62411886 0.46649945
vt 0.015628552 0.46649945
vt 0.62411886 0.46193773
vt 0.015628552 0.43912852
vt 0.62411875 0.44369036
vt 0.015628552 0.44369018
vt 0.62411875 0.43912858
vt 0.62411875 0.44825214
vt 0.015628552 0.44825208
vt 0.038384654 0.42576498
vt 0.029202199 0.4416694
vt 0.029202199 0.4204635
vt 0.038384654 0.43636805
vt 0.020019865 0.42576498
vt 0.020019865 0.43636805
vt 0.060299255 0.46111482
vt 0.05111704 0.4452104
vt 0.060299374 0.45051175
vt 0.05111704 0.46641618
vt 0.041934468 0.4611146
vt 0.041934587 0.45051175

g Chain_Link_Fence_Long_45_Corner
s 1
usemtl Chain_Link_Fence_Long_45_Corner
f 3/3/3 2/2/2 1/1/1 
f 4/4/4 1/1/1 2/2/2 
f 7/7/7 6/6/6 5/5/5 
f 8/8/8 5/5/5 6/6/6 
f 11/11/11 10/10/10 9/9/9 
f 12/12/12 9/9/9 10/10/10 
f 10/10/10 11/11/11 13/13/13 
f 14/14/14 13/13/13 11/11/11 
f 17/17/17 16/16/16 15/15/15 
f 18/18/18 15/15/15 16/16/16 
f 16/16/16 17/17/17 19/19/19 
f 20/20/20 19/19/19 17/17/17 
f 19/19/19 20/20/20 21/21/21 
f 22/22/22 21/21/21 20/20/20 
f 21/21/21 22/22/22 23/23/23 
f 24/24/24 23/23/23 22/22/22 
f 27/27/27 26/26/26 25/25/25 
f 28/28/28 25/25/25 26/26/26 
f 27/27/27 29/29/29 26/26/26 
f 30/30/30 26/26/26 29/29/29 
f 33/33/33 32/32/32 31/31/31 
f 34/34/34 31/31/31 32/32/32 
f 34/34/34 32/32/32 35/35/35 
f 36/36/36 35/35/35 32/32/32 
f 39/39/39 38/38/38 37/37/37 
f 40/40/40 37/37/37 38/38/38 
f 37/37/37 40/40/40 41/41/41 
f 42/42/42 41/41/41 40/40/40 
f 45/45/45 44/44/44 43/43/43 
f 46/46/46 43/43/43 44/44/44 
f 49/49/49 48/48/48 47/47/47 
f 50/50/50 47/47/47 48/48/48 
f 48/48/48 49/49/49 51/51/51 
f 52/52/52 51/51/51 49/49/49 
f 51/51/51 52/52/52 53/53/53 
f 54/54/54 53/53/53 52/52/52 
f 57/57/57 56/56/56 55/55/55 
f 58/58/58 55/55/55 56/56/56 
f 57/57/57 59/59/59 56/56/56 
f 60/60/60 56/56/56 59/59/59 
f 63/63/63 62/62/62 61/61/61 
f 64/64/64 61/61/61 62/62/62 
f 64/64/64 65/65/65 61/61/61 
f 66/66/66 61/61/61 65/65/65 
f 69/69/69 68/68/68 67/67/67 
f 70/70/70 67/67/67 68/68/68 
f 68/68/68 69/69/69 71/71/71 
f 72/72/72 71/71/71 69/69/69 
f 67/67/67 70/70/70 73/73/73 
f 74/74/74 73/73/73 70/70/70 
f 77/77/77 76/76/76 75/75/75 
f 78/78/78 75/75/75 76/76/76 
f 76/76/76 77/77/77 79/79/79 
f 80/80/80 79/79/79 77/77/77 
f 79/79/79 80/80/80 81/81/81 
f 82/82/82 81/81/81 80/80/80 
f 85/85/85 84/84/84 83/83/83 
f 86/86/86 83/83/83 84/84/84 
f 85/85/85 87/87/87 84/84/84 
f 88/88/88 84/84/84 87/87/87 
f 91/91/91 90/90/90 89/89/89 
f 92/92/92 89/89/89 90/90/90 
f 92/92/92 93/93/93 89/89/89 
f 94/94/94 89/89/89 93/93/93 
f 97/97/97 96/96/96 95/95/95 
f 98/98/98 95/95/95 96/96/96 
f 101/101/101 100/100/100 99/99/99 
f 102/102/102 99/99/99 100/100/100 
f 105/105/105 104/104/104 103/103/103 
f 106/106/106 103/103/103 104/104/104 
f 104/104/104 105/105/105 107/107/107 
f 108/108/108 107/107/107 105/105/105 
f 111/111/111 110/110/110 109/109/109 
f 112/112/112 109/109/109 110/110/110 
f 115/115/115 114/114/114 113/113/113 
f 116/116/116 113/113/113 114/114/114 
f 114/114/114 115/115/115 117/117/117 
f 118/118/118 117/117/117 115/115/115 
f 117/117/117 118/118/118 119/119/119 
f 120/120/120 119/119/119 118/118/118 
f 123/123/123 122/122/122 121/121/121 
f 124/124/124 121/121/121 122/122/122 
f 123/123/123 125/125/125 122/122/122 
f 126/126/126 122/122/122 125/125/125 
f 129/129/129 128/128/128 127/127/127 
f 130/130/130 127/127/127 128/128/128 
f 130/130/130 128/128/128 131/131/131 
f 132/132/132 131/131/131 128/128/128 
f 135/135/135 134/134/134 133/133/133 
f 136/136/136 133/133/133 134/134/134 
f 133/133/133 136/136/136 137/137/137 
f 138/138/138 137/137/137 136/136/136 
f 137/137/137 138/138/138 139/139/139 
f 140/140/140 139/139/139 138/138/138 
f 143/143/143 142/142/142 141/141/141 
f 144/144/144 141/141/141 142/142/142 
f 147/147/147 146/146/146 145/145/145 
f 148/148/148 145/145/145 146/146/146 
f 146/146/146 147/147/147 149/149/149 
f 150/150/150 149/149/149 147/147/147 
f 153/153/153 152/152/152 151/151/151 
f 154/154/154 151/151/151 152/152/152 
f 153/153/153 155/155/155 152/152/152 
f 156/156/156 152/152/152 155/155/155 
f 159/159/159 158/158/158 157/157/157 
f 160/160/160 157/157/157 158/158/158 
f 160/160/160 158/158/158 161/161/161 
f 162/162/162 161/161/161 158/158/158 

