# Created by DisUnity v0.3.4
v -2.8284268 -1.7319123E-16 2.8284273
v -1.1920929E-7 2.0 1.1920929E-7
v -2.8284273 2.0 2.8284273
v 1.1920929E-7 -2.189839E-23 3.5762787E-7
v -2.8171945 2.0 2.8396597
v 0.011232734 -6.8782115E-19 0.011232972
v -2.8171945 -1.7387904E-16 2.8396602
v 0.011232495 2.0 0.011232734
v -2.7721148 -1.7435477E-16 2.8474295
v -2.766716 2.0 2.82728
v -2.7667158 -1.7312099E-16 2.8272803
v -2.772115 2.0 2.8474293
v -2.7814665 2.0 2.8125296
v -2.781466 -1.722178E-16 2.81253
v -2.792264 -1.7468536E-16 2.8528285
v -2.7922645 2.0 2.8528285
v -2.781466 -1.722178E-16 2.81253
v -2.8016157 2.0 2.8179288
v -2.8016152 -1.7254838E-16 2.8179288
v -2.7814665 2.0 2.8125296
v -2.8016152 -1.7254838E-16 2.8179288
v -2.8070147 2.0 2.838078
v -2.8070145 -1.7378218E-16 2.8380783
v -2.8016157 2.0 2.8179288
v -2.7922645 2.0 2.8528285
v -2.792264 -1.7468536E-16 2.8528285
v -2.7667158 -1.7312099E-16 2.8272803
v -2.8016152 -1.7254838E-16 2.8179288
v -2.7721148 -1.7435477E-16 2.8474295
v -2.781466 -1.722178E-16 2.81253
v -2.792264 -1.7468536E-16 2.8528285
v -2.8070145 -1.7378218E-16 2.8380783
v -2.766716 2.0 2.82728
v -2.8016157 2.0 2.8179288
v -2.7814665 2.0 2.8125296
v -2.772115 2.0 2.8474293
v -2.7922645 2.0 2.8528285
v -2.8070147 2.0 2.838078
v -2.7762628 1.9553813 2.8432813
v 0.009552598 1.9423963 0.04686296
v -2.7815638 1.9423964 2.8379803
v 0.014853597 1.9553812 0.05216396
v -0.0010495186 1.9423963 0.036260843
v -2.792166 1.9423964 2.8273783
v -2.792166 1.9423964 2.8273783
v -0.0063505173 1.9553812 0.030959845
v -2.797467 1.9553813 2.8220773
v -0.0010495186 1.9423963 0.036260843
v -0.0010495186 1.9683659 0.036260843
v -2.792166 1.968366 2.8273783
v 0.009552598 1.9683659 0.04686296
v -2.7815638 1.968366 2.8379803
v 0.014853597 1.9553812 0.05216396
v -2.7762628 1.9553813 2.8432813
v -2.7815638 1.9423964 2.8379803
v -2.797467 1.9553813 2.8220773
v -2.7762628 1.9553813 2.8432813
v -2.792166 1.9423964 2.8273783
v -2.7815638 1.968366 2.8379803
v -2.792166 1.968366 2.8273783
v 0.009552598 1.9423963 0.04686296
v -0.0063505173 1.9553812 0.030959845
v -0.0010495186 1.9423963 0.036260843
v 0.014853597 1.9553812 0.05216396
v 0.009552598 1.9683659 0.04686296
v -0.0010495186 1.9683659 0.036260843
v -0.010498881 -1.6417297E-18 0.02681148
v -0.015898108 2.0 0.04696071
v -0.01589799 -2.8755216E-18 0.04696083
v -0.01049912 2.0 0.026811242
v -0.0011478662 2.0 0.061710954
v -0.0011476278 -3.7787207E-18 0.061711192
v 0.009650469 -1.3111297E-18 0.021412373
v 0.00965035 2.0 0.021412253
v 0.02440083 -2.2143288E-18 0.036162734
v 0.024400592 2.0 0.036162496
v -0.0011476278 -3.7787207E-18 0.061711192
v 0.019001603 2.0 0.056311965
v 0.019001722 -3.4481206E-18 0.056312084
v -0.0011478662 2.0 0.061710954
v 0.024400592 2.0 0.036162496
v 0.02440083 -2.2143288E-18 0.036162734
v -0.01589799 -2.8755216E-18 0.04696083
v 0.019001722 -3.4481206E-18 0.056312084
v -0.010498881 -1.6417297E-18 0.02681148
v -0.0011476278 -3.7787207E-18 0.061711192
v 0.009650469 -1.3111297E-18 0.021412373
v 0.02440083 -2.2143288E-18 0.036162734
v -0.01049912 2.0 0.026811242
v -0.0011478662 2.0 0.061710954
v -0.015898108 2.0 0.04696071
v 0.019001603 2.0 0.056311965
v 0.024400592 2.0 0.036162496
v 0.00965035 2.0 0.021412253
vn -0.70710677 0.0 -0.70710677
vn -0.70710677 0.0 -0.70710677
vn -0.70710677 0.0 -0.70710677
vn -0.70710677 0.0 -0.70710677
vn 0.70710677 0.0 0.70710677
vn 0.70710677 0.0 0.70710677
vn 0.70710677 0.0 0.70710677
vn 0.70710677 0.0 0.70710677
vn 0.7071064 0.0 0.7071071
vn 0.9659257 0.0 -0.25881916
vn 0.96592605 0.0 -0.25881806
vn 0.7071099 0.0 0.70710355
vn 0.25881273 0.0 -0.9659275
vn 0.25882447 0.0 -0.9659244
vn -0.25881514 0.0 0.9659268
vn -0.25881812 0.0 0.96592605
vn 0.25882447 0.0 -0.9659244
vn -0.70711094 0.0 -0.70710254
vn -0.7070996 0.0 -0.70711386
vn 0.25881273 0.0 -0.9659275
vn -0.7070996 0.0 -0.70711386
vn -0.9659268 0.0 0.25881514
vn -0.96592605 0.0 0.2588181
vn -0.70711094 0.0 -0.70710254
vn -0.25881812 0.0 0.96592605
vn -0.25881514 0.0 0.9659268
vn -0.0 -1.0 0.0
vn -0.0 -1.0 0.0
vn -0.0 -1.0 0.0
vn -0.0 -1.0 0.0
vn -0.0 -1.0 0.0
vn -0.0 -1.0 0.0
vn -0.0 1.0 0.0
vn -0.0 1.0 0.0
vn -0.0 1.0 0.0
vn -0.0 1.0 0.0
vn -0.0 1.0 0.0
vn -0.0 1.0 0.0
vn 0.7071069 0.0 0.70710665
vn 0.35355467 -0.8660244 0.3535546
vn 0.35355535 -0.86602384 0.35355532
vn 0.7071069 0.0 0.70710665
vn -0.35356018 -0.8660199 -0.35356003
vn -0.3535542 -0.8660248 -0.35355407
vn -0.3535542 -0.8660248 -0.35355407
vn -0.7071068 0.0 -0.70710665
vn -0.7071069 0.0 -0.70710665
vn -0.35356018 -0.8660199 -0.35356003
vn -0.35355178 0.86602676 -0.35355172
vn -0.35355666 0.8660228 -0.35355657
vn 0.3535519 0.8660267 0.35355172
vn 0.35355055 0.86602783 0.35355037
vn 0.7071069 0.0 0.70710665
vn 0.7071069 0.0 0.70710665
vn -0.70710176 0.0 0.7071118
vn -0.7071008 0.0 0.70711267
vn -0.7071028 0.0 0.70711076
vn -0.7070988 0.0 0.7071147
vn -0.70710176 0.0 0.7071118
vn -0.70709884 0.0 0.7071147
vn 0.70710677 0.0 -0.70710677
vn 0.70710677 0.0 -0.70710677
vn 0.70710677 0.0 -0.70710677
vn 0.70710677 0.0 -0.70710677
vn 0.70710677 0.0 -0.70710677
vn 0.70710677 0.0 -0.70710677
vn -0.7071064 0.0 -0.7071071
vn -0.9659255 0.0 0.25882053
vn -0.9659266 0.0 0.25881618
vn -0.7071072 0.0 -0.70710635
vn -0.2588196 0.0 0.96592563
vn -0.2588172 0.0 0.9659263
vn 0.25881723 0.0 -0.9659263
vn 0.25881955 0.0 -0.96592563
vn 0.9659266 0.0 -0.25881615
vn 0.9659254 0.0 -0.25882056
vn -0.2588172 0.0 0.9659263
vn 0.7071071 0.0 0.7071064
vn 0.7071064 0.0 0.70710707
vn -0.2588196 0.0 0.96592563
vn 0.9659254 0.0 -0.25882056
vn 0.9659266 0.0 -0.25881615
vn -0.0 -1.0 0.0
vn -0.0 -1.0 0.0
vn -0.0 -1.0 0.0
vn -0.0 -1.0 0.0
vn -0.0 -1.0 0.0
vn -0.0 -1.0 0.0
vn -0.0 1.0 0.0
vn -0.0 1.0 0.0
vn -0.0 1.0 0.0
vn -0.0 1.0 0.0
vn -0.0 1.0 0.0
vn -0.0 1.0 0.0
vt 0.7636159 0.40869343
vt 0.00838897 0.010317564
vt 0.7636518 0.01036036
vt 0.008353116 0.40865064
vt 0.7636518 0.01036036
vt 0.008353116 0.40865064
vt 0.7636159 0.40869343
vt 0.00838897 0.010317564
vt 0.50348216 0.4359269
vt 0.018789386 0.42943406
vt 0.50348216 0.42943406
vt 0.018789386 0.4359269
vt 0.018789386 0.4229412
vt 0.50348216 0.4229412
vt 0.50348216 0.44242
vt 0.018789386 0.44242
vt 0.50348216 0.46189857
vt 0.018789386 0.45540583
vt 0.50348216 0.45540583
vt 0.018789386 0.46189857
vt 0.50348216 0.45540583
vt 0.018789386 0.44891298
vt 0.50348216 0.44891298
vt 0.018789386 0.45540583
vt 0.018789386 0.44242
vt 0.50348216 0.44242
vt 0.03833697 0.4525866
vt 0.030352449 0.46641618
vt 0.030352449 0.44797665
vt 0.03833697 0.46180612
vt 0.02236781 0.4525866
vt 0.02236781 0.46180624
vt 0.044330336 0.42778307
vt 0.052314855 0.44161266
vt 0.044330336 0.43700296
vt 0.052314855 0.42317337
vt 0.060299374 0.42778307
vt 0.060299374 0.43700296
vt 0.015628552 0.45737576
vt 0.62411886 0.46193773
vt 0.015628552 0.46193767
vt 0.62411886 0.45737594
vt 0.62411886 0.46649945
vt 0.015628552 0.46649945
vt 0.015628552 0.43912852
vt 0.62411875 0.44369036
vt 0.015628552 0.44369018
vt 0.62411875 0.43912858
vt 0.62411875 0.44825214
vt 0.015628552 0.44825208
vt 0.62411886 0.45281404
vt 0.015628552 0.45281398
vt 0.62411886 0.45737594
vt 0.015628552 0.45737576
vt 0.038384654 0.42576498
vt 0.029202199 0.4416694
vt 0.029202199 0.4204635
vt 0.038384654 0.43636805
vt 0.020019865 0.42576498
vt 0.020019865 0.43636805
vt 0.060299255 0.46111482
vt 0.05111704 0.4452104
vt 0.060299374 0.45051175
vt 0.05111704 0.46641618
vt 0.041934468 0.4611146
vt 0.041934587 0.45051175
vt 0.50348216 0.4359269
vt 0.018789386 0.42943406
vt 0.50348216 0.42943406
vt 0.018789386 0.4359269
vt 0.018789386 0.4229412
vt 0.50348216 0.4229412
vt 0.50348216 0.44242
vt 0.018789386 0.44242
vt 0.50348216 0.44891298
vt 0.018789386 0.44891298
vt 0.50348216 0.46189857
vt 0.018789386 0.45540583
vt 0.50348216 0.45540583
vt 0.018789386 0.46189857
vt 0.018789386 0.44891298
vt 0.50348216 0.44891298
vt 0.03833697 0.4525866
vt 0.030352449 0.46641618
vt 0.030352449 0.44797665
vt 0.03833697 0.46180612
vt 0.02236781 0.4525866
vt 0.02236781 0.46180624
vt 0.052314855 0.42317337
vt 0.044330336 0.43700296
vt 0.044330336 0.42778307
vt 0.052314855 0.44161266
vt 0.060299374 0.43700296
vt 0.060299374 0.42778307

g Chain_Link_Fence_Long_45
s 1
usemtl Chain_Link_Fence_Long_45
f 3/3/3 2/2/2 1/1/1 
f 4/4/4 1/1/1 2/2/2 
f 7/7/7 6/6/6 5/5/5 
f 8/8/8 5/5/5 6/6/6 
f 11/11/11 10/10/10 9/9/9 
f 12/12/12 9/9/9 10/10/10 
f 10/10/10 11/11/11 13/13/13 
f 14/14/14 13/13/13 11/11/11 
f 9/9/9 12/12/12 15/15/15 
f 16/16/16 15/15/15 12/12/12 
f 19/19/19 18/18/18 17/17/17 
f 20/20/20 17/17/17 18/18/18 
f 23/23/23 22/22/22 21/21/21 
f 24/24/24 21/21/21 22/22/22 
f 22/22/22 23/23/23 25/25/25 
f 26/26/26 25/25/25 23/23/23 
f 29/29/29 28/28/28 27/27/27 
f 30/30/30 27/27/27 28/28/28 
f 29/29/29 31/31/31 28/28/28 
f 32/32/32 28/28/28 31/31/31 
f 35/35/35 34/34/34 33/33/33 
f 36/36/36 33/33/33 34/34/34 
f 36/36/36 34/34/34 37/37/37 
f 38/38/38 37/37/37 34/34/34 
f 41/41/41 40/40/40 39/39/39 
f 42/42/42 39/39/39 40/40/40 
f 40/40/40 41/41/41 43/43/43 
f 44/44/44 43/43/43 41/41/41 
f 47/47/47 46/46/46 45/45/45 
f 48/48/48 45/45/45 46/46/46 
f 46/46/46 47/47/47 49/49/49 
f 50/50/50 49/49/49 47/47/47 
f 49/49/49 50/50/50 51/51/51 
f 52/52/52 51/51/51 50/50/50 
f 51/51/51 52/52/52 53/53/53 
f 54/54/54 53/53/53 52/52/52 
f 57/57/57 56/56/56 55/55/55 
f 58/58/58 55/55/55 56/56/56 
f 57/57/57 59/59/59 56/56/56 
f 60/60/60 56/56/56 59/59/59 
f 63/63/63 62/62/62 61/61/61 
f 64/64/64 61/61/61 62/62/62 
f 64/64/64 62/62/62 65/65/65 
f 66/66/66 65/65/65 62/62/62 
f 69/69/69 68/68/68 67/67/67 
f 70/70/70 67/67/67 68/68/68 
f 68/68/68 69/69/69 71/71/71 
f 72/72/72 71/71/71 69/69/69 
f 67/67/67 70/70/70 73/73/73 
f 74/74/74 73/73/73 70/70/70 
f 73/73/73 74/74/74 75/75/75 
f 76/76/76 75/75/75 74/74/74 
f 79/79/79 78/78/78 77/77/77 
f 80/80/80 77/77/77 78/78/78 
f 78/78/78 79/79/79 81/81/81 
f 82/82/82 81/81/81 79/79/79 
f 85/85/85 84/84/84 83/83/83 
f 86/86/86 83/83/83 84/84/84 
f 85/85/85 87/87/87 84/84/84 
f 88/88/88 84/84/84 87/87/87 
f 91/91/91 90/90/90 89/89/89 
f 92/92/92 89/89/89 90/90/90 
f 92/92/92 93/93/93 89/89/89 
f 94/94/94 89/89/89 93/93/93 

