# Created by DisUnity v0.3.4
v -2.1025677 2.195759 -0.06524563
v -1.449585E-4 1.423212 -0.06523323
v -1.449585E-4 2.195759 -0.06523323
v -2.1025543 1.423212 -0.06523323
v -2.1025543 2.195759 0.06525612
v -1.449585E-4 2.9683063 0.06525612
v -1.449585E-4 2.195759 0.06525612
v -2.1025429 2.9683063 0.06526852
v -2.1025543 2.9683063 -0.06523323
v -1.449585E-4 2.195759 -0.06523323
v -1.449585E-4 2.9683063 -0.06523323
v -2.1025677 2.195759 -0.06524563
v -1.449585E-4 0.65066385 -0.06523323
v -2.1025543 1.423212 -0.06523323
v -2.1025543 0.65066385 -0.06523323
v -1.449585E-4 1.423212 -0.06523323
v -2.1025429 0.65066385 0.06526852
v -1.449585E-4 1.423212 0.06525612
v -1.449585E-4 0.65066385 0.06525612
v -2.1025429 1.423212 0.06526852
v -2.1025429 1.423212 0.06526852
v -1.449585E-4 2.195759 0.06525612
v -1.449585E-4 1.423212 0.06525612
v -2.1025543 2.195759 0.06525612
v -1.449585E-4 2.195759 -0.06523323
v 2.1022778 1.423212 -0.06523323
v 2.1022663 2.195759 -0.06524563
v -1.449585E-4 1.423212 -0.06523323
v -1.449585E-4 2.195759 0.06525612
v 2.1022778 2.9683063 0.06525612
v 2.1022778 2.195759 0.06525612
v -1.449585E-4 2.9683063 0.06525612
v -1.449585E-4 2.9683063 -0.06523323
v 2.1022663 2.195759 -0.06524563
v 2.1022778 2.9683063 -0.06523323
v -1.449585E-4 2.195759 -0.06523323
v 2.1022778 0.65066385 -0.06523323
v -1.449585E-4 1.423212 -0.06523323
v -1.449585E-4 0.65066385 -0.06523323
v 2.1022778 1.423212 -0.06523323
v -1.449585E-4 0.65066385 0.06525612
v 2.1022778 1.423212 0.06525612
v 2.1022778 0.65066385 0.06525612
v -1.449585E-4 1.423212 0.06525612
v -1.449585E-4 1.423212 0.06525612
v 2.1022778 2.195759 0.06525612
v 2.1022778 1.423212 0.06525612
v -1.449585E-4 2.195759 0.06525612
v -2.1025543 2.195759 -0.13185215
v -2.2094345 1.423212 -0.13183975
v -2.1025429 1.423212 -0.13183975
v -2.2094345 2.195759 -0.13183975
v -2.1025429 2.9683063 -0.13183975
v -2.209423 3.3900402 -0.13182735
v -1.449585E-4 2.9683063 -0.13185215
v -1.449585E-4 3.3900394 -0.13185215
v -2.2094593 4.7683716E-7 -0.13185215
v -2.1025429 0.6506643 -0.13183975
v -1.5599861 0.32279873 -0.13183975
v 2.1022892 2.9683063 -0.13183975
v 2.2091808 3.3900402 -0.13183975
v 2.1022778 2.195759 -0.13185215
v 2.2091694 2.195759 -0.13185215
v 2.1022892 1.423212 -0.13183975
v 2.2091808 1.423212 -0.13183975
v 2.1022892 0.65066385 -0.13183975
v 2.2091808 4.7683716E-7 -0.13183975
v -1.449585E-4 0.32279873 -0.13183975
v -1.449585E-4 0.65066385 -0.13185215
v 1.5597458 0.32279873 -0.13183975
v -1.5599861 6.198883E-6 -0.13183975
v 1.5597458 6.198883E-6 -0.13183975
v -2.1025677 2.195759 0.13186264
v -2.2094593 3.3900402 0.13186264
v -2.1025543 2.9683063 0.13187504
v -2.2094593 2.1957595 0.13187504
v -1.335144E-4 3.3900394 0.13187504
v -1.335144E-4 2.9683063 0.13187504
v -2.1025543 1.423212 0.13187504
v -2.2094593 1.423212 0.13187504
v -2.1025543 0.65066385 0.13187504
v -2.2094593 4.7683716E-7 0.13187504
v 2.2091694 3.3900402 0.13187504
v 2.1022778 2.9683063 0.13187504
v 2.2091694 2.195759 0.13187504
v 2.1022778 2.195759 0.13187504
v 2.2091694 1.423212 0.13187504
v 2.1022778 1.423212 0.13187504
v 2.2091694 4.7683716E-7 0.13187504
v 2.1022778 0.65066385 0.13187504
v 1.5597324 0.32279873 0.13187504
v -1.5599976 0.32279873 0.13187504
v -1.335144E-4 0.65066385 0.13187504
v -1.335144E-4 0.32279873 0.13187504
v -1.5599976 6.198883E-6 0.13187504
v 1.5597324 6.198883E-6 0.13187504
v -2.2094345 1.423212 -0.13183975
v -2.2094593 4.7683716E-7 0.13187504
v -2.2094593 4.7683716E-7 -0.13185215
v -2.2094593 1.423212 0.13187504
v -2.2094345 2.195759 -0.13183975
v -2.2094593 2.1957595 0.13187504
v -2.209423 3.3900402 -0.13182735
v -2.2094593 3.3900402 0.13186264
v -1.5599861 0.32279873 -0.13183975
v -1.335144E-4 0.32279873 0.13187504
v -1.449585E-4 0.32279873 -0.13183975
v -1.5599976 0.32279873 0.13187504
v 1.5597324 0.32279873 0.13187504
v 1.5597458 0.32279873 -0.13183975
v 2.2091808 4.7683716E-7 -0.13183975
v 2.2091694 1.423212 0.13187504
v 2.2091808 1.423212 -0.13183975
v 2.2091694 4.7683716E-7 0.13187504
v 2.2091694 2.195759 0.13187504
v 2.2091694 2.195759 -0.13185215
v 2.2091694 3.3900402 0.13187504
v 2.2091808 3.3900402 -0.13183975
v 2.2091808 3.3900402 -0.13183975
v -1.335144E-4 3.3900394 0.13187504
v -1.449585E-4 3.3900394 -0.13185215
v 2.2091694 3.3900402 0.13187504
v -2.2094593 3.3900402 0.13186264
v -2.209423 3.3900402 -0.13182735
v -1.5599861 0.32279873 -0.13183975
v -1.5599976 6.198883E-6 0.13187504
v -1.5599976 0.32279873 0.13187504
v -1.5599861 6.198883E-6 -0.13183975
v 1.5597324 0.32279873 0.13187504
v 1.5597458 6.198883E-6 -0.13183975
v 1.5597458 0.32279873 -0.13183975
v 1.5597324 6.198883E-6 0.13187504
v -2.1025429 1.423212 -0.13183975
v -2.1025677 2.195759 -0.06524563
v -2.1025543 2.195759 -0.13185215
v -2.1025543 1.423212 -0.06523323
v -2.1025543 2.9683063 -0.06523323
v -2.1025429 2.9683063 -0.13183975
v -2.1025429 0.6506643 -0.13183975
v -2.1025543 0.65066385 -0.06523323
v -2.1025429 2.9683063 -0.13183975
v -1.449585E-4 2.9683063 -0.06523323
v -1.449585E-4 2.9683063 -0.13185215
v -2.1025543 2.9683063 -0.06523323
v -1.449585E-4 2.9683063 -0.13185215
v 2.1022778 2.9683063 -0.06523323
v 2.1022892 2.9683063 -0.13183975
v -1.449585E-4 2.9683063 -0.06523323
v 2.1022892 2.9683063 -0.13183975
v 2.1022663 2.195759 -0.06524563
v 2.1022778 2.195759 -0.13185215
v 2.1022778 2.9683063 -0.06523323
v 2.1022778 1.423212 -0.06523323
v 2.1022892 1.423212 -0.13183975
v 2.1022778 0.65066385 -0.06523323
v 2.1022892 0.65066385 -0.13183975
v 2.1022892 0.65066385 -0.13183975
v -1.449585E-4 0.65066385 -0.06523323
v -1.449585E-4 0.65066385 -0.13185215
v 2.1022778 0.65066385 -0.06523323
v -1.449585E-4 0.65066385 -0.13185215
v -2.1025543 0.65066385 -0.06523323
v -2.1025429 0.6506643 -0.13183975
v -1.449585E-4 0.65066385 -0.06523323
v -2.1025543 2.9683063 0.13187504
v -2.1025543 2.195759 0.06525612
v -2.1025677 2.195759 0.13186264
v -2.1025429 2.9683063 0.06526852
v -2.1025429 1.423212 0.06526852
v -2.1025543 1.423212 0.13187504
v -2.1025429 0.65066385 0.06526852
v -2.1025543 0.65066385 0.13187504
v -2.1025543 0.65066385 0.13187504
v -1.449585E-4 0.65066385 0.06525612
v -1.335144E-4 0.65066385 0.13187504
v -2.1025429 0.65066385 0.06526852
v -1.335144E-4 0.65066385 0.13187504
v 2.1022778 0.65066385 0.06525612
v 2.1022778 0.65066385 0.13187504
v -1.449585E-4 0.65066385 0.06525612
v 2.1022778 0.65066385 0.13187504
v 2.1022778 1.423212 0.06525612
v 2.1022778 1.423212 0.13187504
v 2.1022778 0.65066385 0.06525612
v 2.1022778 2.195759 0.06525612
v 2.1022778 2.195759 0.13187504
v 2.1022778 2.9683063 0.06525612
v 2.1022778 2.9683063 0.13187504
v 2.1022778 2.9683063 0.13187504
v -1.449585E-4 2.9683063 0.06525612
v -1.335144E-4 2.9683063 0.13187504
v 2.1022778 2.9683063 0.06525612
v -1.335144E-4 2.9683063 0.13187504
v -2.1025429 2.9683063 0.06526852
v -2.1025543 2.9683063 0.13187504
v -1.449585E-4 2.9683063 0.06525612
vn -0.0 0.0 -1.0
vn -0.0 0.0 -1.0
vn -0.0 0.0 -1.0
vn -0.0 0.0 -1.0
vn -0.0 0.0 1.0
vn -0.0 0.0 1.0
vn -0.0 0.0 1.0
vn -0.0 -1.6047994E-5 1.0
vn -0.0 1.2450237E-5 -1.0
vn -0.0 0.0 -1.0
vn -0.0 0.0 -1.0
vn -0.0 0.0 -1.0
vn -0.0 0.0 -1.0
vn -0.0 0.0 -1.0
vn -0.0 0.0 -1.0
vn -0.0 0.0 -1.0
vn -0.0 0.0 1.0
vn -0.0 0.0 1.0
vn -0.0 0.0 1.0
vn -0.0 0.0 1.0
vn -0.0 0.0 1.0
vn -0.0 0.0 1.0
vn -0.0 0.0 1.0
vn -0.0 0.0 1.0
vn -0.0 0.0 -1.0
vn -0.0 0.0 -1.0
vn -0.0 0.0 -1.0
vn -0.0 0.0 -1.0
vn -0.0 0.0 1.0
vn -0.0 0.0 1.0
vn -0.0 0.0 1.0
vn -0.0 0.0 1.0
vn -0.0 0.0 -1.0
vn -0.0 0.0 -1.0
vn -0.0 1.6047909E-5 -1.0
vn -0.0 0.0 -1.0
vn -0.0 0.0 -1.0
vn -0.0 0.0 -1.0
vn -0.0 0.0 -1.0
vn -0.0 0.0 -1.0
vn -0.0 0.0 1.0
vn -0.0 0.0 1.0
vn -0.0 0.0 1.0
vn -0.0 0.0 1.0
vn -0.0 0.0 1.0
vn -0.0 0.0 1.0
vn -0.0 0.0 1.0
vn -0.0 0.0 1.0
vn -0.0 -1.6047914E-5 -1.0
vn -0.0 -1.6047914E-5 -1.0
vn -0.0 -1.6047912E-5 -1.0
vn -1.1599685E-4 0.0 -1.0
vn -1.1599685E-4 1.6049626E-5 -1.0
vn -7.503231E-5 1.0381665E-5 -1.0
vn -0.0 2.790266E-5 -1.0
vn -1.1223363E-5 0.0 -1.0
vn 1.0474232E-5 1.733291E-5 -1.0
vn 1.0474232E-5 1.7332912E-5 -1.0
vn 1.0474232E-5 1.7332912E-5 -1.0
vn -0.0 0.0 -1.0
vn -0.0 0.0 -1.0
vn -0.0 -1.6047912E-5 -1.0
vn -0.0 -1.6047914E-5 -1.0
vn -0.0 -1.6047914E-5 -1.0
vn -0.0 -1.6047912E-5 -1.0
vn -0.0 0.0 -1.0
vn -0.0 0.0 -1.0
vn -0.0 -3.7813617E-5 -1.0
vn -0.0 0.0 -1.0
vn -0.0 0.0 -1.0
vn 1.9088957E-5 0.0 -1.0
vn -0.0 0.0 -1.0
vn -1.7926577E-4 -1.6044809E-5 1.0
vn -1.7926577E-4 -1.6044809E-5 1.0
vn -1.7926577E-4 -1.6044809E-5 1.0
vn 1.1598448E-4 1.0380949E-5 1.0
vn -0.0 0.0 1.0
vn -0.0 0.0 1.0
vn -0.0 0.0 1.0
vn -0.0 0.0 1.0
vn -0.0 0.0 1.0
vn -0.0 0.0 1.0
vn -0.0 0.0 1.0
vn -0.0 0.0 1.0
vn -0.0 0.0 1.0
vn -0.0 0.0 1.0
vn -0.0 0.0 1.0
vn -0.0 0.0 1.0
vn -0.0 0.0 1.0
vn -0.0 0.0 1.0
vn -0.0 0.0 1.0
vn -0.0 0.0 1.0
vn -0.0 0.0 1.0
vn -0.0 0.0 1.0
vn -0.0 0.0 1.0
vn -0.0 0.0 1.0
vn -1.0 0.0 -8.854032E-5
vn -1.0 1.5390111E-5 -1.09669645E-5
vn -1.0 1.7422239E-5 0.0
vn -1.0 0.0 -9.4024035E-5
vn -1.0 0.0 -9.402405E-5
vn -1.0 0.0 -9.7026685E-5
vn -1.0 0.0 -1.3142692E-4
vn -1.0 0.0 -1.3743268E-4
vn -0.0 -1.0 0.0
vn -0.0 -1.0 0.0
vn -0.0 -1.0 0.0
vn -0.0 -1.0 0.0
vn -0.0 -1.0 0.0
vn -0.0 -1.0 0.0
vn 1.0 0.0 4.3395718E-5
vn 1.0 0.0 4.339571E-5
vn 1.0 0.0 3.885157E-5
vn 1.0 0.0 4.339571E-5
vn 1.0 0.0 0.0
vn 1.0 0.0 0.0
vn 1.0 0.0 3.739143E-5
vn 1.0 0.0 4.3395714E-5
vn -0.0 1.0 0.0
vn -0.0 1.0 0.0
vn -0.0 1.0 0.0
vn -0.0 1.0 0.0
vn -0.0 1.0 0.0
vn -0.0 1.0 0.0
vn 1.0 0.0 4.3395718E-5
vn 1.0 0.0 4.3395718E-5
vn 1.0 0.0 4.3395718E-5
vn 1.0 0.0 4.3395718E-5
vn -1.0 0.0 -5.062834E-5
vn -1.0 0.0 -5.062834E-5
vn -1.0 0.0 -5.0628336E-5
vn -1.0 0.0 -5.0628336E-5
vn 1.0 1.4816675E-5 2.0045247E-4
vn 1.0 1.4816675E-5 2.0045249E-4
vn 1.0 1.48166755E-5 2.0045249E-4
vn 1.0 1.7285127E-5 1.7181641E-4
vn 1.0 -1.4816209E-5 1.7181637E-4
vn 1.0 -1.4816211E-5 1.7181638E-4
vn 1.0 0.0 1.7181638E-4
vn 1.0 0.0 1.7181638E-4
vn -0.0 -1.0 0.0
vn -0.0 -1.0 0.0
vn -0.0 -1.0 0.0
vn -0.0 -1.0 0.0
vn -0.0 -1.0 0.0
vn -0.0 -1.0 0.0
vn -0.0 -1.0 0.0
vn -0.0 -1.0 0.0
vn -1.0 1.4816211E-5 -1.7181638E-4
vn -1.0 1.4816211E-5 -1.7181638E-4
vn -1.0 1.4816211E-5 -1.7181638E-4
vn -1.0 1.4816211E-5 -1.7181638E-4
vn -1.0 -1.4816215E-5 -1.7181638E-4
vn -1.0 -1.4816216E-5 -1.718164E-4
vn -1.0 0.0 -1.718164E-4
vn -1.0 0.0 -1.7181638E-4
vn -0.0 1.0 0.0
vn -0.0 1.0 0.0
vn -0.0 1.0 0.0
vn -0.0 1.0 0.0
vn -0.0 1.0 0.0
vn -0.0 1.0 0.0
vn -0.0 1.0 0.0
vn -0.0 1.0 0.0
vn 1.0 -1.7285578E-5 2.0045244E-4
vn 1.0 -1.7285578E-5 2.0045244E-4
vn 1.0 -1.7285578E-5 2.0045246E-4
vn 1.0 -1.4816211E-5 1.7181638E-4
vn 1.0 1.7285125E-5 1.718164E-4
vn 1.0 1.7285127E-5 1.7181641E-4
vn 1.0 0.0 1.718164E-4
vn 1.0 0.0 1.7181638E-4
vn -0.0 1.0 0.0
vn -0.0 1.0 0.0
vn -0.0 1.0 0.0
vn -0.0 1.0 0.0
vn -0.0 1.0 0.0
vn -0.0 1.0 0.0
vn -0.0 1.0 0.0
vn -0.0 1.0 0.0
vn -1.0 0.0 0.0
vn -1.0 0.0 0.0
vn -1.0 0.0 0.0
vn -1.0 0.0 0.0
vn -1.0 0.0 0.0
vn -1.0 0.0 0.0
vn -1.0 0.0 0.0
vn -1.0 0.0 0.0
vn -0.0 -1.0 0.0
vn -0.0 -1.0 0.0
vn -0.0 -1.0 0.0
vn -0.0 -1.0 0.0
vn -0.0 -1.0 0.0
vn -0.0 -1.0 0.0
vn -0.0 -1.0 0.0
vn -0.0 -1.0 0.0
vt 0.93939024 0.06358898
vt 0.9982826 0.24835223
vt 0.93939024 0.24835223
vt 0.9982826 0.06358898
vt 0.81582606 0.7481823
vt 0.99721026 0.68899447
vt 0.99721026 0.74818224
vt 0.81582606 0.6889945
vt 0.9972104 0.6890141
vt 0.81592375 0.74820197
vt 0.8159237 0.6890142
vt 0.9972104 0.7482019
vt 0.7524295 0.15444231
vt 0.9344686 0.09554738
vt 0.9344686 0.15444231
vt 0.7524295 0.09554738
vt 0.75242966 0.15444243
vt 0.93446875 0.09554744
vt 0.93446875 0.15444243
vt 0.75242966 0.0955475
vt 0.99815184 0.24835223
vt 0.93939024 0.063589096
vt 0.99815184 0.063589096
vt 0.93939024 0.24835223
vt 0.9398677 0.31514025
vt 0.99790514 0.4972214
vt 0.9398677 0.4972214
vt 0.99790514 0.31514025
vt 0.7528243 0.0923571
vt 0.9342086 0.03316933
vt 0.9342086 0.0923571
vt 0.7528243 0.03316933
vt 0.9342087 0.033189
vt 0.752922 0.09237677
vt 0.752922 0.033189
vt 0.9342087 0.09237677
vt 0.53376335 0.6860949
vt 0.71624845 0.6318592
vt 0.71624845 0.6860948
vt 0.53376335 0.6318592
vt 0.53376347 0.6860949
vt 0.7162486 0.6318593
vt 0.7162486 0.6860949
vt 0.53376347 0.6318593
vt 0.99777627 0.4972214
vt 0.9398677 0.31514037
vt 0.99777627 0.31514037
vt 0.9398677 0.4972214
vt 0.23573583 0.112042546
vt 0.24140686 0.15302646
vt 0.23573583 0.15302646
vt 0.24140686 0.112042546
vt 0.23573583 0.07105881
vt 0.24140675 0.04868573
vt 0.1242023 0.07105881
vt 0.1242023 0.04868579
vt 0.24140686 0.22852808
vt 0.23573583 0.1940102
vt 0.2069537 0.21140355
vt 0.012668778 0.07105881
vt 0.00699784 0.04868579
vt 0.012668778 0.112042606
vt 0.00699784 0.112042606
vt 0.012668778 0.15302646
vt 0.00699784 0.15302646
vt 0.012668778 0.19401032
vt 0.006997846 0.22852814
vt 0.1242023 0.21140355
vt 0.1242023 0.19401032
vt 0.041451123 0.21140355
vt 0.2069537 0.22852778
vt 0.041451123 0.22852784
vt 0.013038232 0.11212152
vt 0.007367178 0.048764706
vt 0.013038232 0.07113773
vt 0.007367178 0.11212152
vt 0.12457186 0.048764706
vt 0.12457186 0.07113773
vt 0.013038232 0.15310532
vt 0.007367178 0.15310532
vt 0.013038232 0.19408917
vt 0.007367176 0.228607
vt 0.24177632 0.048764706
vt 0.23610537 0.07113773
vt 0.24177632 0.11212152
vt 0.23610537 0.11212152
vt 0.24177632 0.15310532
vt 0.23610537 0.15310532
vt 0.24177632 0.228607
vt 0.23610537 0.19408917
vt 0.20732304 0.21148252
vt 0.041820463 0.21148252
vt 0.12457186 0.19408917
vt 0.12457186 0.21148252
vt 0.041820463 0.2286067
vt 0.20732304 0.2286067
vt 0.08505844 0.055876136
vt 0.012576873 0.06536883
vt 0.012576873 0.055876136
vt 0.08505844 0.06536883
vt 0.12440294 0.055876136
vt 0.12440294 0.06536883
vt 0.18522555 0.055876136
vt 0.18522555 0.06536883
vt 0.1701723 0.055876136
vt 0.09231996 0.06536877
vt 0.09231996 0.055876136
vt 0.1701723 0.06536877
vt 0.014467503 0.06536877
vt 0.014467503 0.055876136
vt 0.20108047 0.055876136
vt 0.1285989 0.06536883
vt 0.1285989 0.055876136
vt 0.20108047 0.06536883
vt 0.0892544 0.06536883
vt 0.0892544 0.055876136
vt 0.028431816 0.06536883
vt 0.028431816 0.055876136
vt 0.23499988 0.055876017
vt 0.12473375 0.06536871
vt 0.12473375 0.055876017
vt 0.23499988 0.06536871
vt 0.014467503 0.06536871
vt 0.014467503 0.055876017
vt 0.20691155 0.055876136
vt 0.22335072 0.06536883
vt 0.20691155 0.06536883
vt 0.22335072 0.055876136
vt 0.05938609 0.06536877
vt 0.04294667 0.055876136
vt 0.05938609 0.055876136
vt 0.04294667 0.06536877
vt 0.14580967 0.5706682
vt 0.07363806 0.5854772
vt 0.07363806 0.5706682
vt 0.14580967 0.5854772
vt 0.0014664738 0.5854772
vt 0.0014664738 0.5706682
vt 0.21798123 0.5706682
vt 0.21798123 0.5854772
vt 0.19899298 0.5706682
vt 0.0025848344 0.5854772
vt 0.0025848344 0.5706682
vt 0.19899298 0.5854772
vt 0.19787471 0.5706682
vt 0.0014664738 0.5854772
vt 0.0014664738 0.5706682
vt 0.19787471 0.5854772
vt 0.2179812 0.5706682
vt 0.1458097 0.5854772
vt 0.1458097 0.5706682
vt 0.2179812 0.5854772
vt 0.0736381 0.5854772
vt 0.0736381 0.5706682
vt 0.0014664738 0.5854772
vt 0.0014664738 0.5706682
vt 0.19899298 0.57066816
vt 0.00258488 0.585477
vt 0.00258488 0.57066816
vt 0.19899298 0.585477
vt 0.19787474 0.57066816
vt 0.0014664738 0.585477
vt 0.0014664738 0.57066816
vt 0.19787474 0.585477
vt 0.0014664738 0.5854771
vt 0.07363806 0.57066816
vt 0.07363806 0.5854771
vt 0.0014664738 0.57066816
vt 0.14580964 0.57066816
vt 0.14580964 0.5854771
vt 0.2179812 0.57066816
vt 0.2179812 0.5854771
vt 0.0014664738 0.5854771
vt 0.19787465 0.57066816
vt 0.19787465 0.5854771
vt 0.0014664738 0.57066816
vt 0.0025848083 0.5854771
vt 0.19899298 0.57066816
vt 0.19899298 0.5854771
vt 0.0025848083 0.57066816
vt 0.0014664738 0.585477
vt 0.0736381 0.57066816
vt 0.0736381 0.585477
vt 0.0014664738 0.57066816
vt 0.1458097 0.57066816
vt 0.1458097 0.585477
vt 0.21798123 0.57066816
vt 0.21798123 0.585477
vt 0.0014664738 0.585477
vt 0.19787462 0.57066816
vt 0.19787462 0.585477
vt 0.0014664738 0.57066816
vt 0.0025847617 0.585477
vt 0.19899298 0.57066816
vt 0.19899298 0.585477
vt 0.0025847617 0.57066816

g Commercial_Signs_01
s 1
usemtl Commercial_Signs_01
f 3/3/3 2/2/2 1/1/1 
f 4/4/4 1/1/1 2/2/2 
f 7/7/7 6/6/6 5/5/5 
f 8/8/8 5/5/5 6/6/6 
f 11/11/11 10/10/10 9/9/9 
f 12/12/12 9/9/9 10/10/10 
f 15/15/15 14/14/14 13/13/13 
f 16/16/16 13/13/13 14/14/14 
f 19/19/19 18/18/18 17/17/17 
f 20/20/20 17/17/17 18/18/18 
f 23/23/23 22/22/22 21/21/21 
f 24/24/24 21/21/21 22/22/22 
f 27/27/27 26/26/26 25/25/25 
f 28/28/28 25/25/25 26/26/26 
f 31/31/31 30/30/30 29/29/29 
f 32/32/32 29/29/29 30/30/30 
f 35/35/35 34/34/34 33/33/33 
f 36/36/36 33/33/33 34/34/34 
f 39/39/39 38/38/38 37/37/37 
f 40/40/40 37/37/37 38/38/38 
f 43/43/43 42/42/42 41/41/41 
f 44/44/44 41/41/41 42/42/42 
f 47/47/47 46/46/46 45/45/45 
f 48/48/48 45/45/45 46/46/46 
f 51/51/51 50/50/50 49/49/49 
f 52/52/52 49/49/49 50/50/50 
f 49/49/49 52/52/52 53/53/53 
f 54/54/54 53/53/53 52/52/52 
f 53/53/53 54/54/54 55/55/55 
f 56/56/56 55/55/55 54/54/54 
f 50/50/50 51/51/51 57/57/57 
f 58/58/58 57/57/57 51/51/51 
f 59/59/59 57/57/57 58/58/58 
f 55/55/55 56/56/56 60/60/60 
f 61/61/61 60/60/60 56/56/56 
f 60/60/60 61/61/61 62/62/62 
f 63/63/63 62/62/62 61/61/61 
f 62/62/62 63/63/63 64/64/64 
f 65/65/65 64/64/64 63/63/63 
f 64/64/64 65/65/65 66/66/66 
f 67/67/67 66/66/66 65/65/65 
f 59/59/59 58/58/58 68/68/68 
f 69/69/69 68/68/68 58/58/58 
f 66/66/66 70/70/70 69/69/69 
f 68/68/68 69/69/69 70/70/70 
f 67/67/67 70/70/70 66/66/66 
f 59/59/59 71/71/71 57/57/57 
f 67/67/67 72/72/72 70/70/70 
f 75/75/75 74/74/74 73/73/73 
f 76/76/76 73/73/73 74/74/74 
f 74/74/74 75/75/75 77/77/77 
f 78/78/78 77/77/77 75/75/75 
f 73/73/73 76/76/76 79/79/79 
f 80/80/80 79/79/79 76/76/76 
f 79/79/79 80/80/80 81/81/81 
f 82/82/82 81/81/81 80/80/80 
f 77/77/77 78/78/78 83/83/83 
f 84/84/84 83/83/83 78/78/78 
f 83/83/83 84/84/84 85/85/85 
f 86/86/86 85/85/85 84/84/84 
f 85/85/85 86/86/86 87/87/87 
f 88/88/88 87/87/87 86/86/86 
f 87/87/87 88/88/88 89/89/89 
f 90/90/90 89/89/89 88/88/88 
f 91/91/91 89/89/89 90/90/90 
f 82/82/82 92/92/92 81/81/81 
f 81/81/81 92/92/92 93/93/93 
f 94/94/94 93/93/93 92/92/92 
f 93/93/93 94/94/94 90/90/90 
f 91/91/91 90/90/90 94/94/94 
f 82/82/82 95/95/95 92/92/92 
f 91/91/91 96/96/96 89/89/89 
f 99/99/99 98/98/98 97/97/97 
f 100/100/100 97/97/97 98/98/98 
f 97/97/97 100/100/100 101/101/101 
f 102/102/102 101/101/101 100/100/100 
f 101/101/101 102/102/102 103/103/103 
f 104/104/104 103/103/103 102/102/102 
f 107/107/107 106/106/106 105/105/105 
f 108/108/108 105/105/105 106/106/106 
f 106/106/106 107/107/107 109/109/109 
f 110/110/110 109/109/109 107/107/107 
f 113/113/113 112/112/112 111/111/111 
f 114/114/114 111/111/111 112/112/112 
f 112/112/112 113/113/113 115/115/115 
f 116/116/116 115/115/115 113/113/113 
f 115/115/115 116/116/116 117/117/117 
f 118/118/118 117/117/117 116/116/116 
f 121/121/121 120/120/120 119/119/119 
f 122/122/122 119/119/119 120/120/120 
f 120/120/120 121/121/121 123/123/123 
f 124/124/124 123/123/123 121/121/121 
f 127/127/127 126/126/126 125/125/125 
f 128/128/128 125/125/125 126/126/126 
f 131/131/131 130/130/130 129/129/129 
f 132/132/132 129/129/129 130/130/130 
f 135/135/135 134/134/134 133/133/133 
f 136/136/136 133/133/133 134/134/134 
f 134/134/134 135/135/135 137/137/137 
f 138/138/138 137/137/137 135/135/135 
f 133/133/133 136/136/136 139/139/139 
f 140/140/140 139/139/139 136/136/136 
f 143/143/143 142/142/142 141/141/141 
f 144/144/144 141/141/141 142/142/142 
f 147/147/147 146/146/146 145/145/145 
f 148/148/148 145/145/145 146/146/146 
f 151/151/151 150/150/150 149/149/149 
f 152/152/152 149/149/149 150/150/150 
f 150/150/150 151/151/151 153/153/153 
f 154/154/154 153/153/153 151/151/151 
f 153/153/153 154/154/154 155/155/155 
f 156/156/156 155/155/155 154/154/154 
f 159/159/159 158/158/158 157/157/157 
f 160/160/160 157/157/157 158/158/158 
f 163/163/163 162/162/162 161/161/161 
f 164/164/164 161/161/161 162/162/162 
f 167/167/167 166/166/166 165/165/165 
f 168/168/168 165/165/165 166/166/166 
f 166/166/166 167/167/167 169/169/169 
f 170/170/170 169/169/169 167/167/167 
f 169/169/169 170/170/170 171/171/171 
f 172/172/172 171/171/171 170/170/170 
f 175/175/175 174/174/174 173/173/173 
f 176/176/176 173/173/173 174/174/174 
f 179/179/179 178/178/178 177/177/177 
f 180/180/180 177/177/177 178/178/178 
f 183/183/183 182/182/182 181/181/181 
f 184/184/184 181/181/181 182/182/182 
f 182/182/182 183/183/183 185/185/185 
f 186/186/186 185/185/185 183/183/183 
f 185/185/185 186/186/186 187/187/187 
f 188/188/188 187/187/187 186/186/186 
f 191/191/191 190/190/190 189/189/189 
f 192/192/192 189/189/189 190/190/190 
f 195/195/195 194/194/194 193/193/193 
f 196/196/196 193/193/193 194/194/194 

