# Created by DisUnity v0.3.4
v -1.3868809 6.3922977 -0.1241703
v 1.3868093 5.373095 -0.1241703
v 1.3867979 6.392297 -0.1241703
v -1.3868809 5.3730955 -0.1241703
v -1.3868809 6.392297 0.12422466
v 1.3867731 7.411499 0.124212265
v 1.3867731 6.3922977 0.124212265
v -1.3868809 7.411499 0.12422466
v -1.6662188 8.651167 -0.1241703
v 1.6661234 8.651167 0.124212265
v -1.6661949 8.651166 0.12422466
v 1.6661234 8.651167 -0.1241703
v 1.3867979 4.1334276 -0.124157906
v -1.3868809 4.1334286 0.12422466
v 1.3867731 4.1334286 0.12422466
v -1.3868809 4.1334286 -0.1241703
v -1.6662188 6.392297 -0.1241703
v -1.3868809 5.3730955 -0.1241703
v -1.3868809 6.3922977 -0.1241703
v -1.3868809 7.411499 -0.1241703
v -1.6662188 8.651167 -0.1241703
v -1.3868809 8.430702 -0.1241703
v -1.3868809 4.3538938 -0.1241703
v -1.6662188 4.243661 -0.1241703
v 1.6661234 6.3922977 -0.1241703
v 1.3867979 7.411499 -0.1241703
v 1.3867979 6.392297 -0.1241703
v 1.3868093 5.373095 -0.1241703
v 1.6661234 4.243661 -0.1241703
v 1.3867979 4.3538938 -0.124157906
v 1.3867731 8.430701 -0.1241703
v 1.6661234 8.651167 -0.1241703
v -1.6661949 6.392297 0.12422466
v -1.3868809 7.411499 0.12422466
v -1.3868809 6.392297 0.12422466
v -1.3868685 5.373095 0.12422466
v -1.6661949 4.243661 0.12422466
v -1.3868809 4.3538933 0.12422466
v -1.3868685 8.430701 0.12422466
v -1.6661949 8.651166 0.12422466
v 1.6661234 6.3922977 0.124212265
v 1.3867731 5.3730955 0.124212265
v 1.3867731 6.3922977 0.124212265
v 1.3867731 7.411499 0.124212265
v 1.6661234 8.651167 0.124212265
v 1.3867731 8.430702 0.124212265
v 1.3867731 4.3538938 0.124212265
v 1.6661234 4.243661 0.12422466
v -1.6662188 8.651167 -0.1241703
v 1.3867731 8.430701 -0.1241703
v 1.6661234 8.651167 -0.1241703
v 1.3867731 8.430701 -0.1241703
v -1.6662188 8.651167 -0.1241703
v -1.3868809 8.430702 -0.1241703
v 1.3867979 4.1334276 -0.124157906
v -1.3868809 4.3538938 -0.1241703
v -1.3868809 4.1334286 -0.1241703
v 1.3867979 4.3538938 -0.124157906
v -1.6662188 4.243661 -0.1241703
v 1.6661234 4.243661 -0.1241703
v -1.3868809 4.1334286 0.12422466
v 1.3867731 4.3538938 0.124212265
v 1.3867731 4.1334286 0.12422466
v -1.3868809 4.3538933 0.12422466
v -1.6661949 4.243661 0.12422466
v 1.6661234 4.243661 0.12422466
v 1.6661234 8.651167 0.124212265
v -1.3868685 8.430701 0.12422466
v -1.6661949 8.651166 0.12422466
v -1.3868685 8.430701 0.12422466
v 1.6661234 8.651167 0.124212265
v 1.3867731 8.430702 0.124212265
v -1.3868809 8.430702 -0.1241703
v 1.3867979 7.411499 -0.1241703
v 1.3867731 8.430701 -0.1241703
v -1.3868809 7.411499 -0.1241703
v -1.3868809 7.411499 -0.1241703
v 1.3867979 6.392297 -0.1241703
v 1.3867979 7.411499 -0.1241703
v -1.3868809 6.3922977 -0.1241703
v 1.3867979 4.3538938 -0.124157906
v -1.3868809 5.3730955 -0.1241703
v -1.3868809 4.3538938 -0.1241703
v 1.3868093 5.373095 -0.1241703
v -1.3868809 4.3538933 0.12422466
v 1.3867731 5.3730955 0.124212265
v 1.3867731 4.3538938 0.124212265
v -1.3868685 5.373095 0.12422466
v -1.3868685 5.373095 0.12422466
v 1.3867731 6.3922977 0.124212265
v 1.3867731 5.3730955 0.124212265
v -1.3868809 6.392297 0.12422466
v 1.3867731 8.430702 0.124212265
v -1.3868809 7.411499 0.12422466
v -1.3868685 8.430701 0.12422466
v 1.3867731 7.411499 0.124212265
v -1.6662188 4.243661 -0.1241703
v -1.6661949 6.392297 0.12422466
v -1.6661949 4.243661 0.12422466
v -1.6662188 6.392297 -0.1241703
v -1.6661949 8.651166 0.12422466
v -1.6662188 8.651167 -0.1241703
v 1.6661234 8.651167 -0.1241703
v 1.6661234 6.3922977 0.124212265
v 1.6661234 8.651167 0.124212265
v 1.6661234 6.3922977 -0.1241703
v 1.6661234 4.243661 0.12422466
v 1.6661234 4.243661 -0.1241703
v 1.3867979 4.1334276 -0.124157906
v 1.66611 0.6052375 -0.1241703
v 1.6661234 4.243661 -0.1241703
v 1.3867979 0.6052375 -0.124157906
v 1.6661234 4.243661 -0.1241703
v 1.66611 0.6052375 0.124212265
v 1.6661234 4.243661 0.12422466
v 1.66611 0.6052375 -0.1241703
v 1.6661234 4.243661 0.12422466
v 1.3867731 0.6052375 0.124212265
v 1.3867731 4.1334286 0.12422466
v 1.66611 0.6052375 0.124212265
v 1.3867731 4.1334286 0.12422466
v 1.3867979 0.6052375 -0.124157906
v 1.3867979 4.1334276 -0.124157906
v 1.3867731 0.6052375 0.124212265
v -1.3868809 4.1334286 0.12422466
v -1.6662188 0.6052375 0.12422466
v -1.6661949 4.243661 0.12422466
v -1.3868685 0.6052375 0.12422466
v -1.6661949 4.243661 0.12422466
v -1.6662312 0.6052375 -0.1241703
v -1.6662188 4.243661 -0.1241703
v -1.6662188 0.6052375 0.12422466
v -1.6662188 4.243661 -0.1241703
v -1.3868809 0.6052375 -0.1241703
v -1.3868809 4.1334286 -0.1241703
v -1.6662312 0.6052375 -0.1241703
v -1.3868809 4.1334286 -0.1241703
v -1.3868685 0.6052375 0.12422466
v -1.3868809 4.1334286 0.12422466
v -1.3868809 0.6052375 -0.1241703
v 1.412137 0.60523844 -0.30206108
v 1.6407576 7.104874E-5 -0.30206108
v 1.6407576 0.60523844 -0.30206108
v 1.412137 7.104874E-5 -0.30206108
v 1.8150187 7.200241E-5 -0.14900208
v 1.8150187 0.60523844 -0.14900208
v 1.8150187 0.60523844 -0.14900208
v 1.815032 7.104874E-5 0.14904499
v 1.815032 0.6052389 0.14904499
v 1.8150187 7.200241E-5 -0.14900208
v 1.6407709 0.6052389 0.302104
v 1.412137 7.104874E-5 0.30211544
v 1.4121504 0.6052389 0.30211544
v 1.6407709 7.104874E-5 0.30211544
v 1.815032 0.6052389 0.14904499
v 1.815032 7.104874E-5 0.14904499
v 1.2378893 7.200241E-5 0.14904499
v 1.2378893 0.6052389 0.14904499
v 1.2378893 0.6052389 0.14904499
v 1.2378759 7.200241E-5 -0.14900208
v 1.2378759 0.60523844 -0.14900208
v 1.2378893 7.200241E-5 0.14904499
v -1.4122334 0.6052389 0.3020916
v -1.6408539 7.200241E-5 0.302104
v -1.6408539 0.6052389 0.302104
v -1.4122334 7.200241E-5 0.302104
v -1.2379608 0.6052389 0.14904499
v -1.2379608 7.104874E-5 0.14904499
v -1.8151035 7.104874E-5 0.14904499
v -1.8151035 0.6052389 0.14904499
v -1.8151035 0.6052389 0.14904499
v -1.8151035 7.104874E-5 -0.14898968
v -1.8151035 0.60523844 -0.14898968
v -1.8151035 7.104874E-5 0.14904499
v -1.6408539 0.60523844 -0.30206108
v -1.4122334 7.104874E-5 -0.30206108
v -1.4122334 0.60523844 -0.30206108
v -1.6408539 7.104874E-5 -0.30206108
v -1.8151035 0.60523844 -0.14898968
v -1.8151035 7.104874E-5 -0.14898968
v -1.2379723 0.60523844 -0.14898968
v -1.2379608 7.104874E-5 0.14904499
v -1.2379608 0.6052389 0.14904499
v -1.2379723 7.200241E-5 -0.14898968
v 1.3867979 0.6052375 -0.124157906
v 1.2378759 0.60523844 -0.14900208
v 1.412137 0.60523844 -0.30206108
v 1.6407576 0.60523844 -0.30206108
v 1.66611 0.6052375 -0.1241703
v 1.8150187 0.60523844 -0.14900208
v 1.815032 0.6052389 0.14904499
v 1.66611 0.6052375 0.124212265
v 1.6407709 0.6052389 0.302104
v 1.4121504 0.6052389 0.30211544
v 1.3867731 0.6052375 0.124212265
v 1.2378893 0.6052389 0.14904499
v -1.3868685 0.6052375 0.12422466
v -1.2379608 0.6052389 0.14904499
v -1.4122334 0.6052389 0.3020916
v -1.3868809 0.6052375 -0.1241703
v -1.2379723 0.60523844 -0.14898968
v -1.4122334 0.60523844 -0.30206108
v -1.6408539 0.6052389 0.302104
v -1.6662188 0.6052375 0.12422466
v -1.8151035 0.6052389 0.14904499
v -1.8151035 0.60523844 -0.14898968
v -1.6662312 0.6052375 -0.1241703
v -1.6408539 0.60523844 -0.30206108
v 1.2378759 0.60523844 -0.14900208
v 1.412137 7.104874E-5 -0.30206108
v 1.412137 0.60523844 -0.30206108
v 1.2378759 7.200241E-5 -0.14900208
v -1.4122334 0.60523844 -0.30206108
v -1.2379723 7.200241E-5 -0.14898968
v -1.2379723 0.60523844 -0.14898968
v -1.4122334 7.104874E-5 -0.30206108
vn -0.0 0.0 -1.0
vn -0.0 0.0 -1.0
vn -0.0 0.0 -1.0
vn -0.0 0.0 -1.0
vn -0.0 0.0 1.0
vn -0.0 0.0 1.0
vn -0.0 0.0 1.0
vn -0.0 0.0 1.0
vn -0.0 1.0 0.0
vn -0.0 1.0 0.0
vn -0.0 1.0 0.0
vn -0.0 1.0 0.0
vn -0.0 -1.0 0.0
vn -0.0 -1.0 0.0
vn -0.0 -1.0 0.0
vn -0.0 -1.0 0.0
vn -0.0 0.0 -1.0
vn -0.0 0.0 -1.0
vn -0.0 0.0 -1.0
vn -0.0 0.0 -1.0
vn -0.0 0.0 -1.0
vn -0.0 0.0 -1.0
vn -0.0 0.0 -1.0
vn -0.0 0.0 -1.0
vn -0.0 0.0 -1.0
vn -0.0 0.0 -1.0
vn -0.0 0.0 -1.0
vn -0.0 0.0 -1.0
vn -4.2414827E-5 0.0 -1.0
vn -2.2311513E-5 0.0 -1.0
vn -0.0 0.0 -1.0
vn -0.0 0.0 -1.0
vn -0.0 0.0 1.0
vn -0.0 0.0 1.0
vn -0.0 0.0 1.0
vn -0.0 0.0 1.0
vn -0.0 0.0 1.0
vn -0.0 0.0 1.0
vn -0.0 0.0 1.0
vn -0.0 0.0 1.0
vn -0.0 0.0 1.0
vn -0.0 0.0 1.0
vn -0.0 0.0 1.0
vn -0.0 0.0 1.0
vn -0.0 0.0 1.0
vn -0.0 0.0 1.0
vn -1.5178187E-5 2.5706157E-5 1.0
vn -2.0830726E-5 1.4316067E-5 1.0
vn -0.0 0.0 -1.0
vn -0.0 0.0 -1.0
vn -0.0 0.0 -1.0
vn -0.0 0.0 -1.0
vn -0.0 0.0 -1.0
vn -0.0 0.0 -1.0
vn -2.8099905E-5 0.0 -1.0
vn -0.0 0.0 -1.0
vn -0.0 0.0 -1.0
vn -2.2311513E-5 0.0 -1.0
vn -0.0 0.0 -1.0
vn -4.2414827E-5 0.0 -1.0
vn -0.0 0.0 1.0
vn -1.5178187E-5 2.5706157E-5 1.0
vn -0.0 3.1553067E-5 1.0
vn -0.0 0.0 1.0
vn -0.0 0.0 1.0
vn -2.0830726E-5 1.4316067E-5 1.0
vn -0.0 0.0 1.0
vn -0.0 0.0 1.0
vn -0.0 0.0 1.0
vn -0.0 0.0 1.0
vn -0.0 0.0 1.0
vn -0.0 0.0 1.0
vn -0.0 0.0 -1.0
vn -0.0 0.0 -1.0
vn -0.0 0.0 -1.0
vn -0.0 0.0 -1.0
vn -0.0 0.0 -1.0
vn -0.0 0.0 -1.0
vn -0.0 0.0 -1.0
vn -0.0 0.0 -1.0
vn -2.2311513E-5 0.0 -1.0
vn -0.0 0.0 -1.0
vn -0.0 0.0 -1.0
vn -0.0 0.0 -1.0
vn -0.0 0.0 1.0
vn -0.0 0.0 1.0
vn -1.5178187E-5 2.5706157E-5 1.0
vn -0.0 0.0 1.0
vn -0.0 0.0 1.0
vn -0.0 0.0 1.0
vn -0.0 0.0 1.0
vn -0.0 0.0 1.0
vn -0.0 0.0 1.0
vn -0.0 0.0 1.0
vn -0.0 0.0 1.0
vn -0.0 0.0 1.0
vn -1.0 0.0 9.5983654E-5
vn -1.0 0.0 9.598366E-5
vn -1.0 0.0 9.4984E-5
vn -1.0 0.0 9.598366E-5
vn -1.0 0.0 9.598367E-5
vn -1.0 0.0 9.598367E-5
vn 1.0 0.0 0.0
vn 1.0 0.0 0.0
vn 1.0 0.0 0.0
vn 1.0 0.0 0.0
vn 1.0 0.0 0.0
vn 1.0 0.0 0.0
vn -2.8099905E-5 0.0 -1.0
vn -1.8338931E-5 0.9486848 -0.3162231
vn -4.2414827E-5 0.0 -1.0
vn -1.0122549E-5 0.9486814 -0.31623337
vn 1.0 0.0 0.0
vn 1.0 0.0 0.0
vn 1.0 0.0 0.0
vn 1.0 0.0 0.0
vn -2.0830726E-5 1.4316067E-5 1.0
vn -0.0 0.94868684 0.3162171
vn -0.0 3.1553067E-5 1.0
vn -0.0 0.9486845 0.3162241
vn -1.0 0.0 -9.982821E-5
vn -1.0 0.0 -9.983276E-5
vn -1.0 0.0 -9.982799E-5
vn -1.0 0.0 -9.983298E-5
vn -0.0 0.0 1.0
vn -0.0 0.9486844 0.3162244
vn -0.0 0.0 1.0
vn -0.0 0.9486861 0.3162195
vn -1.0 0.0 9.4984E-5
vn -1.0 0.0 5.19108E-5
vn -1.0 0.0 9.5983654E-5
vn -1.0 0.0 4.9911498E-5
vn -0.0 0.0 -1.0
vn -0.0 0.9486831 -0.3162282
vn -0.0 0.0 -1.0
vn -0.0 0.9486856 -0.31622106
vn 1.0 0.0 0.0
vn 1.0 0.0 -4.7678135E-5
vn 1.0 0.0 0.0
vn 1.0 0.0 -4.99115E-5
vn -0.2721952 0.6356868 -0.7223656
vn 0.35260776 0.0 -0.9357712
vn 0.2721952 0.63568676 -0.7223656
vn -0.35260773 0.0 -0.9357712
vn 0.65992117 0.0 -0.75133497
vn 0.37311012 0.8248241 -0.42479885
vn 1.0 0.0 -4.4796416E-5
vn 1.0 0.0 -4.4796416E-5
vn 1.0 0.0 -4.4796416E-5
vn 1.0 0.0 -4.4796416E-5
vn 0.2722077 0.6356958 0.7223529
vn -0.35264182 1.5560945E-5 0.9357584
vn -0.27219218 0.6356811 0.72237176
vn 0.35262007 1.187324E-5 0.9357665
vn 0.3731206 0.82481706 0.42480338
vn 0.65994895 0.0 0.75131047
vn -0.6599709 1.1167983E-5 0.7512913
vn -0.37312028 0.8248299 0.42477858
vn -1.0 0.0 4.4796416E-5
vn -1.0 0.0 4.4796416E-5
vn -1.0 0.0 4.4796416E-5
vn -1.0 0.0 4.4796416E-5
vn 0.2721807 0.6357027 0.7223571
vn -0.35261804 0.0 0.93576735
vn -0.27218935 0.6356804 0.72237355
vn 0.35258755 1.2862641E-5 0.93577886
vn 0.37309715 0.8248097 0.42483836
vn 0.6598967 0.0 0.7513564
vn -0.6599455 0.0 0.7513134
vn -0.37312382 0.8248243 0.4247865
vn -1.0 0.0 0.0
vn -1.0 0.0 0.0
vn -1.0 0.0 0.0
vn -1.0 0.0 0.0
vn -0.27222323 0.63568056 -0.72236043
vn 0.35262656 0.0 -0.93576413
vn 0.27221066 0.63568336 -0.72236276
vn -0.3526422 0.0 -0.9357583
vn -0.37313762 0.8248276 -0.42476782
vn -0.6599757 0.0 -0.751287
vn 1.0 0.0 -3.8398528E-5
vn 1.0 0.0 -3.8398528E-5
vn 1.0 0.0 -3.839853E-5
vn 1.0 0.0 -3.8398528E-5
vn -1.0122549E-5 0.9486814 -0.31623337
vn -0.3731199 0.8248141 -0.42480987
vn -0.2721952 0.6356868 -0.7223656
vn 0.2721952 0.63568676 -0.7223656
vn -1.8338931E-5 0.9486848 -0.3162231
vn 0.37311012 0.8248241 -0.42479885
vn 0.3731206 0.82481706 0.42480338
vn -0.0 0.9486845 0.3162241
vn 0.2722077 0.6356958 0.7223529
vn -0.27219218 0.6356811 0.72237176
vn -0.0 0.94868684 0.3162171
vn -0.37312028 0.8248299 0.42477858
vn -0.0 0.9486861 0.3162195
vn 0.37309715 0.8248097 0.42483836
vn 0.2721807 0.6357027 0.7223571
vn -0.0 0.9486831 -0.3162282
vn 0.37312344 0.824828 -0.42477962
vn 0.27221066 0.63568336 -0.72236276
vn -0.27218935 0.6356804 0.72237355
vn -0.0 0.9486844 0.3162244
vn -0.37312382 0.8248243 0.4247865
vn -0.37313762 0.8248276 -0.42476782
vn -0.0 0.9486856 -0.31622106
vn -0.27222323 0.63568056 -0.72236043
vn -0.3731199 0.8248141 -0.42480987
vn -0.35260773 0.0 -0.9357712
vn -0.2721952 0.6356868 -0.7223656
vn -0.65992117 0.0 -0.75133497
vn 0.27221066 0.63568336 -0.72236276
vn 0.65995127 0.0 -0.75130844
vn 0.37312344 0.824828 -0.42477962
vn 0.35262656 0.0 -0.93576413
vt 0.93939024 0.06358898
vt 0.9982826 0.24835223
vt 0.93939024 0.24835223
vt 0.9982826 0.06358898
vt 0.99912226 0.68670076
vt 0.93841684 0.50066566
vt 0.99912226 0.50066566
vt 0.93841684 0.68670076
vt 0.033695593 0.56550354
vt 0.18920368 0.5908047
vt 0.04673113 0.5842719
vt 0.1761682 0.57203794
vt 0.046665587 0.57203794
vt 0.17610261 0.5842719
vt 0.046665587 0.5842719
vt 0.17610261 0.57203794
vt 0.10835941 0.5720379
vt 0.06626651 0.5655036
vt 0.108359426 0.5655036
vt 0.15045229 0.5655036
vt 0.19254522 0.57203794
vt 0.19254522 0.5655036
vt 0.024173588 0.5655036
vt 0.019621035 0.57203794
vt 0.10835938 0.5720379
vt 0.06626648 0.5655036
vt 0.1083594 0.5655036
vt 0.15045226 0.5655036
vt 0.19709782 0.57203794
vt 0.19254519 0.5655036
vt 0.024173558 0.5655036
vt 0.015068451 0.57203794
vt 0.10835941 0.5842718
vt 0.15045229 0.5908047
vt 0.108359426 0.5908047
vt 0.06626651 0.5908047
vt 0.019621035 0.5842718
vt 0.024173588 0.5908047
vt 0.19254522 0.5908047
vt 0.20165047 0.5842718
vt 0.10835938 0.5842718
vt 0.15045226 0.5908047
vt 0.1083594 0.5908047
vt 0.06626648 0.5908047
vt 0.024173558 0.5842718
vt 0.024173558 0.5908047
vt 0.19254519 0.5908047
vt 0.19709782 0.5842718
vt 0.033695593 0.56550354
vt 0.1761682 0.56550354
vt 0.1761682 0.57203794
vt 0.1761682 0.56550354
vt 0.033695593 0.56550354
vt 0.04673113 0.56550354
vt 0.046665587 0.57203794
vt 0.17610261 0.56550354
vt 0.17610261 0.57203794
vt 0.046665587 0.56550354
vt 0.18913814 0.5687707
vt 0.03363008 0.5687707
vt 0.17610261 0.5842719
vt 0.046665587 0.5908047
vt 0.046665587 0.5842719
vt 0.17610261 0.5908047
vt 0.18913814 0.58753824
vt 0.033630118 0.58753824
vt 0.18920368 0.5908047
vt 0.04673113 0.5908047
vt 0.04673113 0.5842719
vt 0.04673113 0.5908047
vt 0.18920368 0.5908047
vt 0.1761682 0.5908047
vt 0.7183304 0.56316173
vt 0.5315511 0.6243773
vt 0.5315511 0.56316185
vt 0.7183304 0.62437725
vt 0.938437 0.50066555
vt 0.9991424 0.68660057
vt 0.938437 0.68660057
vt 0.9991424 0.50066555
vt 0.6258105 0.74959046
vt 0.81201977 0.6879204
vt 0.81201977 0.7495904
vt 0.6258105 0.68792033
vt 0.6258106 0.7495905
vt 0.8120199 0.68792045
vt 0.8120199 0.7495905
vt 0.6258106 0.6879205
vt 0.99815184 0.24835223
vt 0.93939024 0.063589096
vt 0.99815184 0.063589096
vt 0.93939024 0.24835223
vt 0.71833044 0.5632105
vt 0.5315512 0.6244259
vt 0.5315512 0.5632105
vt 0.71833044 0.62442577
vt 0.019621035 0.57203794
vt 0.10835941 0.5842718
vt 0.019621035 0.5842718
vt 0.10835941 0.5720379
vt 0.20165047 0.5842718
vt 0.19254522 0.57203794
vt 0.015068451 0.57203794
vt 0.10835938 0.5842718
vt 0.024173558 0.5842718
vt 0.10835938 0.5720379
vt 0.19709782 0.5842718
vt 0.19709782 0.57203794
vt 0.016934156 0.5758341
vt 0.20334056 0.5898514
vt 0.016934156 0.5898514
vt 0.20334056 0.5758341
vt 0.016934156 0.5660075
vt 0.20334056 0.5893143
vt 0.016934156 0.5893143
vt 0.20334056 0.5660075
vt 0.016934156 0.5695698
vt 0.20334056 0.58358705
vt 0.016934156 0.58358705
vt 0.20334053 0.5695698
vt 0.016934156 0.56633157
vt 0.20334056 0.5896385
vt 0.016934156 0.5896385
vt 0.20334056 0.56633157
vt 0.016934156 0.5696944
vt 0.2033405 0.5837116
vt 0.016934156 0.5837116
vt 0.20334053 0.5696944
vt 0.016934156 0.5664563
vt 0.2033405 0.58976305
vt 0.016934115 0.58976305
vt 0.2033405 0.5664563
vt 0.016934115 0.5759587
vt 0.2033405 0.58997595
vt 0.016934115 0.58997595
vt 0.2033405 0.5759587
vt 0.016934115 0.56613207
vt 0.2033405 0.5894389
vt 0.016934115 0.5894389
vt 0.2033405 0.56613207
vt 0.15635936 0.5668149
vt 0.13876915 0.5889176
vt 0.13876915 0.566574
vt 0.15635936 0.5886767
vt 0.12647331 0.5891586
vt 0.12647331 0.56633306
vt 0.12647331 0.56633306
vt 0.102532715 0.5891586
vt 0.102532715 0.56633306
vt 0.12647331 0.5891586
vt 0.09023687 0.5664937
vt 0.07238813 0.5891586
vt 0.07238813 0.56633306
vt 0.09023687 0.58899796
vt 0.102532715 0.56633306
vt 0.102532715 0.5891586
vt 0.05974616 0.58947986
vt 0.05974616 0.5660118
vt 0.05974616 0.5660118
vt 0.035131715 0.58947986
vt 0.035131715 0.5660118
vt 0.05974616 0.58947986
vt 0.072023705 0.58904207
vt 0.0898724 0.56637704
vt 0.0898724 0.5888814
vt 0.072023705 0.56621647
vt 0.059381764 0.5893633
vt 0.059381764 0.5658952
vt 0.102168255 0.56621647
vt 0.102168255 0.58904207
vt 0.102168255 0.58904207
vt 0.12610883 0.56621647
vt 0.12610883 0.58904207
vt 0.102168255 0.56621647
vt 0.13840464 0.588801
vt 0.1559949 0.5666984
vt 0.1559949 0.5885602
vt 0.13840464 0.5664574
vt 0.12610883 0.58904207
vt 0.12610883 0.56621647
vt 0.0347673 0.5893633
vt 0.059381764 0.5658952
vt 0.059381764 0.5893633
vt 0.0347673 0.5658952
vt 0.1152377 0.46211815
vt 0.1377396 0.46334082
vt 0.11924812 0.48065466
vt 0.09390938 0.48044193
vt 0.097453475 0.46211815
vt 0.0748411 0.46392906
vt 0.074951656 0.43046796
vt 0.09745356 0.4316908
vt 0.093443155 0.41315418
vt 0.11878189 0.41336697
vt 0.115237795 0.4316908
vt 0.1378501 0.42987984
vt 0.097559586 0.4316908
vt 0.07505774 0.43046796
vt 0.093549125 0.41315407
vt 0.09755953 0.46211803
vt 0.07494716 0.46392906
vt 0.094015464 0.4804418
vt 0.11888781 0.41336685
vt 0.11534379 0.4316907
vt 0.1379562 0.42987967
vt 0.1378456 0.46334076
vt 0.11534374 0.46211797
vt 0.1193542 0.48065454
vt 0.035131715 0.5660118
vt 0.022489786 0.58947986
vt 0.022489786 0.5660118
vt 0.035131715 0.58947986
vt 0.02212537 0.5893633
vt 0.0347673 0.5658952
vt 0.0347673 0.5893633
vt 0.02212537 0.5658952

g Commercial_Signs_03
s 1
usemtl Commercial_Signs_03
f 3/3/3 2/2/2 1/1/1 
f 4/4/4 1/1/1 2/2/2 
f 7/7/7 6/6/6 5/5/5 
f 8/8/8 5/5/5 6/6/6 
f 11/11/11 10/10/10 9/9/9 
f 12/12/12 9/9/9 10/10/10 
f 15/15/15 14/14/14 13/13/13 
f 16/16/16 13/13/13 14/14/14 
f 19/19/19 18/18/18 17/17/17 
f 20/20/20 19/19/19 17/17/17 
f 17/17/17 21/21/21 20/20/20 
f 22/22/22 20/20/20 21/21/21 
f 18/18/18 23/23/23 17/17/17 
f 24/24/24 17/17/17 23/23/23 
f 27/27/27 26/26/26 25/25/25 
f 28/28/28 27/27/27 25/25/25 
f 25/25/25 29/29/29 28/28/28 
f 30/30/30 28/28/28 29/29/29 
f 26/26/26 31/31/31 25/25/25 
f 32/32/32 25/25/25 31/31/31 
f 35/35/35 34/34/34 33/33/33 
f 36/36/36 35/35/35 33/33/33 
f 33/33/33 37/37/37 36/36/36 
f 38/38/38 36/36/36 37/37/37 
f 34/34/34 39/39/39 33/33/33 
f 40/40/40 33/33/33 39/39/39 
f 43/43/43 42/42/42 41/41/41 
f 44/44/44 43/43/43 41/41/41 
f 41/41/41 45/45/45 44/44/44 
f 46/46/46 44/44/44 45/45/45 
f 42/42/42 47/47/47 41/41/41 
f 48/48/48 41/41/41 47/47/47 
f 51/51/51 50/50/50 49/49/49 
f 54/54/54 53/53/53 52/52/52 
f 57/57/57 56/56/56 55/55/55 
f 58/58/58 55/55/55 56/56/56 
f 57/57/57 59/59/59 56/56/56 
f 55/55/55 58/58/58 60/60/60 
f 63/63/63 62/62/62 61/61/61 
f 64/64/64 61/61/61 62/62/62 
f 61/61/61 64/64/64 65/65/65 
f 63/63/63 66/66/66 62/62/62 
f 69/69/69 68/68/68 67/67/67 
f 72/72/72 71/71/71 70/70/70 
f 75/75/75 74/74/74 73/73/73 
f 76/76/76 73/73/73 74/74/74 
f 79/79/79 78/78/78 77/77/77 
f 80/80/80 77/77/77 78/78/78 
f 83/83/83 82/82/82 81/81/81 
f 84/84/84 81/81/81 82/82/82 
f 87/87/87 86/86/86 85/85/85 
f 88/88/88 85/85/85 86/86/86 
f 91/91/91 90/90/90 89/89/89 
f 92/92/92 89/89/89 90/90/90 
f 95/95/95 94/94/94 93/93/93 
f 96/96/96 93/93/93 94/94/94 
f 99/99/99 98/98/98 97/97/97 
f 100/100/100 97/97/97 98/98/98 
f 98/98/98 101/101/101 100/100/100 
f 102/102/102 100/100/100 101/101/101 
f 105/105/105 104/104/104 103/103/103 
f 106/106/106 103/103/103 104/104/104 
f 104/104/104 107/107/107 106/106/106 
f 108/108/108 106/106/106 107/107/107 
f 111/111/111 110/110/110 109/109/109 
f 112/112/112 109/109/109 110/110/110 
f 115/115/115 114/114/114 113/113/113 
f 116/116/116 113/113/113 114/114/114 
f 119/119/119 118/118/118 117/117/117 
f 120/120/120 117/117/117 118/118/118 
f 123/123/123 122/122/122 121/121/121 
f 124/124/124 121/121/121 122/122/122 
f 127/127/127 126/126/126 125/125/125 
f 128/128/128 125/125/125 126/126/126 
f 131/131/131 130/130/130 129/129/129 
f 132/132/132 129/129/129 130/130/130 
f 135/135/135 134/134/134 133/133/133 
f 136/136/136 133/133/133 134/134/134 
f 139/139/139 138/138/138 137/137/137 
f 140/140/140 137/137/137 138/138/138 
f 143/143/143 142/142/142 141/141/141 
f 144/144/144 141/141/141 142/142/142 
f 142/142/142 143/143/143 145/145/145 
f 146/146/146 145/145/145 143/143/143 
f 149/149/149 148/148/148 147/147/147 
f 150/150/150 147/147/147 148/148/148 
f 153/153/153 152/152/152 151/151/151 
f 154/154/154 151/151/151 152/152/152 
f 151/151/151 154/154/154 155/155/155 
f 156/156/156 155/155/155 154/154/154 
f 152/152/152 153/153/153 157/157/157 
f 158/158/158 157/157/157 153/153/153 
f 161/161/161 160/160/160 159/159/159 
f 162/162/162 159/159/159 160/160/160 
f 165/165/165 164/164/164 163/163/163 
f 166/166/166 163/163/163 164/164/164 
f 163/163/163 166/166/166 167/167/167 
f 168/168/168 167/167/167 166/166/166 
f 164/164/164 165/165/165 169/169/169 
f 170/170/170 169/169/169 165/165/165 
f 173/173/173 172/172/172 171/171/171 
f 174/174/174 171/171/171 172/172/172 
f 177/177/177 176/176/176 175/175/175 
f 178/178/178 175/175/175 176/176/176 
f 175/175/175 178/178/178 179/179/179 
f 180/180/180 179/179/179 178/178/178 
f 183/183/183 182/182/182 181/181/181 
f 184/184/184 181/181/181 182/182/182 
f 187/187/187 186/186/186 185/185/185 
f 187/187/187 185/185/185 188/188/188 
f 189/189/189 188/188/188 185/185/185 
f 190/190/190 188/188/188 189/189/189 
f 190/190/190 189/189/189 191/191/191 
f 192/192/192 191/191/191 189/189/189 
f 193/193/193 191/191/191 192/192/192 
f 193/193/193 192/192/192 194/194/194 
f 195/195/195 194/194/194 192/192/192 
f 185/185/185 186/186/186 195/195/195 
f 196/196/196 194/194/194 195/195/195 
f 196/196/196 195/195/195 186/186/186 
f 199/199/199 198/198/198 197/197/197 
f 197/197/197 198/198/198 200/200/200 
f 201/201/201 200/200/200 198/198/198 
f 201/201/201 202/202/202 200/200/200 
f 199/199/199 197/197/197 203/203/203 
f 204/204/204 203/203/203 197/197/197 
f 205/205/205 203/203/203 204/204/204 
f 205/205/205 204/204/204 206/206/206 
f 207/207/207 206/206/206 204/204/204 
f 200/200/200 202/202/202 207/207/207 
f 208/208/208 206/206/206 207/207/207 
f 208/208/208 207/207/207 202/202/202 
f 211/211/211 210/210/210 209/209/209 
f 212/212/212 209/209/209 210/210/210 
f 215/215/215 214/214/214 213/213/213 
f 216/216/216 213/213/213 214/214/214 

