# Created by DisUnity v0.3.4
v -1.3437195 3.3475838 5.5123444
v 1.343689 3.3475838 -5.5124664
v 1.3472443 3.3475838 5.5460434
v -1.3470306 3.3475838 -5.546417
v -1.3437347 -6.0653687E-4 5.5123444
v 1.3472443 3.3475838 5.5460434
v 1.347229 -6.0653687E-4 5.546036
v -1.3437195 3.3475838 5.5123444
v 1.347229 -6.0653687E-4 5.546036
v 1.343689 3.3475838 -5.5124664
v 1.3436737 -6.0653687E-4 -5.5124664
v 1.3472443 3.3475838 5.5460434
v 1.3436737 -6.0653687E-4 -5.5124664
v -1.3470306 3.3475838 -5.546417
v -1.3470459 -6.0653687E-4 -5.546425
v 1.343689 3.3475838 -5.5124664
v -1.3470459 -6.0653687E-4 -5.546425
v -1.3437195 3.3475838 5.5123444
v -1.3437347 -6.0653687E-4 5.5123444
v -1.3470306 3.3475838 -5.546417
v -1.3437347 -6.0653687E-4 5.5123444
v 1.3436737 -6.0653687E-4 -5.5124664
v -1.3470459 -6.0653687E-4 -5.546425
v 1.347229 -6.0653687E-4 5.546036
vn -0.0 1.0 0.0
vn -0.0 1.0 0.0
vn -0.0 1.0 0.0
vn -0.0 1.0 0.0
vn -0.012520638 0.0 0.9999217
vn -0.012520638 0.0 0.9999217
vn -0.012520637 0.0 0.9999217
vn -0.012520637 0.0 0.9999217
vn 1.0 0.0 -3.2149896E-4
vn 1.0 0.0 -3.2149893E-4
vn 1.0 0.0 -3.2149893E-4
vn 1.0 0.0 -3.2149898E-4
vn 0.012618156 0.0 -0.99992037
vn 0.012618156 0.0 -0.99992037
vn 0.012618155 0.0 -0.99992037
vn 0.012618155 0.0 -0.99992037
vn -1.0 0.0 2.9941477E-4
vn -1.0 0.0 2.9941474E-4
vn -1.0 0.0 2.9941474E-4
vn -1.0 0.0 2.9941474E-4
vn -0.0 -1.0 0.0
vn -0.0 -1.0 0.0
vn -0.0 -1.0 0.0
vn -0.0 -1.0 0.0
vt 0.99704194 0.3652442
vt 0.76052225 0.3141299
vt 0.9962605 0.3078735
vt 0.7613034 0.37150073
vt 0.8078053 0.36660647
vt 0.85857266 0.30342722
vt 0.85857266 0.36660647
vt 0.8078053 0.30342722
vt 0.7588791 0.37241584
vt 0.9947005 0.30101216
vt 0.99470043 0.3724159
vt 0.7588791 0.3010121
vt 0.8079304 0.3683182
vt 0.85869795 0.30513895
vt 0.85869795 0.3683182
vt 0.8079304 0.30513895
vt 0.76052225 0.37241584
vt 0.99634373 0.30101216
vt 0.9963437 0.3724159
vt 0.76052225 0.3010121
vt 0.99704194 0.3652442
vt 0.76052225 0.3141299
vt 0.7613034 0.37150073
vt 0.9962605 0.3078735

g Container_5
s 1
usemtl Container_5
f 3/3/3 2/2/2 1/1/1 
f 2/2/2 4/4/4 1/1/1 
f 7/7/7 6/6/6 5/5/5 
f 6/6/6 8/8/8 5/5/5 
f 11/11/11 10/10/10 9/9/9 
f 10/10/10 12/12/12 9/9/9 
f 15/15/15 14/14/14 13/13/13 
f 14/14/14 16/16/16 13/13/13 
f 19/19/19 18/18/18 17/17/17 
f 18/18/18 20/20/20 17/17/17 
f 23/23/23 22/22/22 21/21/21 
f 22/22/22 24/24/24 21/21/21 

