# Created by DisUnity v0.3.4
v 1.3189697 3.3475819 -5.5195923
v -1.318367 3.3475819 5.5183716
v -1.3719864 3.3475819 -5.5400696
v 1.3719254 3.3475819 5.540283
v 1.3189697 -6.0653687E-4 -5.5195923
v -1.3719864 3.3475819 -5.5400696
v -1.3719864 -6.0653687E-4 -5.5400696
v 1.3189697 3.3475819 -5.5195923
v -1.3719864 -6.0653687E-4 -5.5400696
v -1.318367 3.3475819 5.5183716
v -1.318367 -6.0653687E-4 5.5183716
v -1.3719864 3.3475819 -5.5400696
v -1.318367 -6.0653687E-4 5.5183716
v 1.3719254 3.3475819 5.540283
v 1.3719254 -6.0653687E-4 5.540283
v -1.318367 3.3475819 5.5183716
v 1.3719254 -6.0653687E-4 5.540283
v 1.3189697 3.3475819 -5.5195923
v 1.3189697 -6.0653687E-4 -5.5195923
v 1.3719254 3.3475819 5.540283
v 1.3189697 -6.0653687E-4 -5.5195923
v -1.318367 -6.0653687E-4 5.5183716
v 1.3719254 -6.0653687E-4 5.540283
v -1.3719864 -6.0653687E-4 -5.5400696
vn -0.0 1.0 0.0
vn -0.0 1.0 0.0
vn -0.0 1.0 0.0
vn -0.0 1.0 0.0
vn 0.0076094526 0.0 -0.99997103
vn 0.0076094526 0.0 -0.99997103
vn 0.0076094526 0.0 -0.99997103
vn 0.0076094526 0.0 -0.99997103
vn -0.9999883 0.0 0.0048486725
vn -0.9999883 0.0 0.0048486725
vn -0.9999883 0.0 0.0048486725
vn -0.9999883 0.0 0.0048486725
vn -0.008144429 0.0 0.99996686
vn -0.008144429 0.0 0.99996686
vn -0.008144429 0.0 0.99996686
vn -0.008144429 0.0 0.99996686
vn 0.99998856 0.0 -0.0047880304
vn 0.99998856 0.0 -0.0047880304
vn 0.99998856 0.0 -0.0047880304
vn 0.99998856 0.0 -0.0047880304
vn -0.0 -1.0 0.0
vn -0.0 -1.0 0.0
vn -0.0 -1.0 0.0
vn -0.0 -1.0 0.0
vt 0.74110603 0.36524415
vt 0.50458634 0.3141299
vt 0.7403246 0.30787343
vt 0.5053675 0.37150073
vt 0.5518694 0.3666064
vt 0.60263675 0.30342716
vt 0.60263675 0.3666064
vt 0.5518694 0.30342716
vt 0.5029432 0.37241584
vt 0.7387645 0.3010121
vt 0.7387645 0.37241584
vt 0.5029432 0.3010121
vt 0.5519945 0.36831814
vt 0.60276204 0.3051389
vt 0.60276204 0.36831814
vt 0.5519945 0.3051389
vt 0.50458634 0.37241584
vt 0.7404078 0.3010121
vt 0.7404078 0.37241584
vt 0.50458634 0.3010121
vt 0.74110603 0.36524415
vt 0.50458634 0.3141299
vt 0.5053675 0.37150073
vt 0.7403246 0.30787343

g Container_1
s 1
usemtl Container_1
f 3/3/3 2/2/2 1/1/1 
f 2/2/2 4/4/4 1/1/1 
f 7/7/7 6/6/6 5/5/5 
f 6/6/6 8/8/8 5/5/5 
f 11/11/11 10/10/10 9/9/9 
f 10/10/10 12/12/12 9/9/9 
f 15/15/15 14/14/14 13/13/13 
f 14/14/14 16/16/16 13/13/13 
f 19/19/19 18/18/18 17/17/17 
f 18/18/18 20/20/20 17/17/17 
f 23/23/23 22/22/22 21/21/21 
f 22/22/22 24/24/24 21/21/21 

