# Created by DisUnity v0.3.4
v -1.3437195 3.3475838 5.5123444
v 1.343689 3.3475838 -5.5124664
v 1.3472443 3.3475838 5.5460434
v -1.3470306 3.3475838 -5.546417
v -1.34375 -6.0653687E-4 5.5123444
v 1.3472443 3.3475838 5.5460434
v 1.347229 -6.0653687E-4 5.546036
v -1.3437195 3.3475838 5.5123444
v 1.347229 -6.0653687E-4 5.546036
v 1.343689 3.3475838 -5.5124664
v 1.3436737 -6.0653687E-4 -5.512474
v 1.3472443 3.3475838 5.5460434
v 1.3436737 -6.0653687E-4 -5.512474
v -1.3470306 3.3475838 -5.546417
v -1.3470459 -6.0653687E-4 -5.546425
v 1.343689 3.3475838 -5.5124664
v -1.3470459 -6.0653687E-4 -5.546425
v -1.3437195 3.3475838 5.5123444
v -1.34375 -6.0653687E-4 5.5123444
v -1.3470306 3.3475838 -5.546417
v -1.34375 -6.0653687E-4 5.5123444
v 1.3436737 -6.0653687E-4 -5.512474
v -1.3470459 -6.0653687E-4 -5.546425
v 1.347229 -6.0653687E-4 5.546036
vn -0.0 1.0 0.0
vn -0.0 1.0 0.0
vn -0.0 1.0 0.0
vn -0.0 1.0 0.0
vn -0.012520603 0.0 0.9999217
vn -0.012520604 0.0 0.9999217
vn -0.012520604 0.0 0.9999217
vn -0.012520604 0.0 0.9999217
vn 1.0 0.0 -3.2149887E-4
vn 1.0 0.0 -3.2149887E-4
vn 1.0 0.0 -3.2149887E-4
vn 1.0 0.0 -3.2149887E-4
vn 0.012616738 0.0 -0.99992037
vn 0.012616738 0.0 -0.99992037
vn 0.012616738 0.0 -0.99992037
vn 0.012616738 0.0 -0.99992037
vn -1.0 0.0 2.9872483E-4
vn -1.0 0.0 2.9872483E-4
vn -1.0 0.0 2.9872483E-4
vn -1.0 0.0 2.9872483E-4
vn -0.0 -1.0 0.0
vn -0.0 -1.0 0.0
vn -0.0 -1.0 0.0
vn -0.0 -1.0 0.0
vt 0.24136609 0.43915105
vt 0.002518009 0.38803673
vt 0.24058467 0.38178033
vt 0.0032991872 0.44540757
vt 0.05212945 0.4405133
vt 0.10289681 0.37733406
vt 0.10289681 0.4405133
vt 0.05212945 0.37733406
vt 8.748877E-4 0.44632268
vt 0.23902464 0.374919
vt 0.23902458 0.44632274
vt 8.748877E-4 0.37491894
vt 0.05225456 0.44222504
vt 0.1030221 0.37904578
vt 0.1030221 0.44222504
vt 0.05225456 0.37904578
vt 0.002518009 0.44632268
vt 0.24066788 0.374919
vt 0.24066782 0.44632274
vt 0.002518009 0.37491894
vt 0.24136609 0.43915105
vt 0.002518009 0.38803673
vt 0.0032991872 0.44540757
vt 0.24058467 0.38178033

g Container_8
s 1
usemtl Container_8
f 3/3/3 2/2/2 1/1/1 
f 2/2/2 4/4/4 1/1/1 
f 7/7/7 6/6/6 5/5/5 
f 6/6/6 8/8/8 5/5/5 
f 11/11/11 10/10/10 9/9/9 
f 10/10/10 12/12/12 9/9/9 
f 15/15/15 14/14/14 13/13/13 
f 14/14/14 16/16/16 13/13/13 
f 19/19/19 18/18/18 17/17/17 
f 18/18/18 20/20/20 17/17/17 
f 23/23/23 22/22/22 21/21/21 
f 22/22/22 24/24/24 21/21/21 

