# Created by DisUnity v0.3.4
v -1.3437195 3.3475838 5.5123444
v 1.343689 3.3475838 -5.5124664
v 1.3472443 3.3475838 5.5460434
v -1.3470306 3.3475838 -5.546417
v -1.3437347 -6.0653687E-4 5.5123367
v 1.3472443 3.3475838 5.5460434
v 1.3472443 -6.0653687E-4 5.5460434
v -1.3437195 3.3475838 5.5123444
v 1.3472443 -6.0653687E-4 5.5460434
v 1.343689 3.3475838 -5.5124664
v 1.343689 -6.0653687E-4 -5.5124664
v 1.3472443 3.3475838 5.5460434
v 1.343689 -6.0653687E-4 -5.5124664
v -1.3470306 3.3475838 -5.546417
v -1.3470306 -6.0653687E-4 -5.546417
v 1.343689 3.3475838 -5.5124664
v -1.3470306 -6.0653687E-4 -5.546417
v -1.3437195 3.3475838 5.5123444
v -1.3437347 -6.0653687E-4 5.5123367
v -1.3470306 3.3475838 -5.546417
v -1.3437347 -6.0653687E-4 5.5123367
v 1.343689 -6.0653687E-4 -5.5124664
v -1.3470306 -6.0653687E-4 -5.546417
v 1.3472443 -6.0653687E-4 5.5460434
vn -0.0 1.0 0.0
vn -0.0 1.0 0.0
vn -0.0 1.0 0.0
vn -0.0 1.0 0.0
vn -0.012523437 0.0 0.99992156
vn -0.012523437 0.0 0.99992156
vn -0.012523437 0.0 0.99992156
vn -0.012523437 0.0 0.99992156
vn 1.0 0.0 -3.2149878E-4
vn 1.0 0.0 -3.2149878E-4
vn 1.0 0.0 -3.2149878E-4
vn 1.0 0.0 -3.2149878E-4
vn 0.012616738 0.0 -0.99992037
vn 0.012616738 0.0 -0.99992037
vn 0.012616738 0.0 -0.99992037
vn 0.012616738 0.0 -0.99992037
vn -1.0 0.0 2.9872503E-4
vn -1.0 0.0 2.9872506E-4
vn -1.0 0.0 2.9872503E-4
vn -1.0 0.0 2.9872503E-4
vn -0.0 -1.0 0.0
vn -0.0 -1.0 0.0
vn -0.0 -1.0 0.0
vn -0.0 -1.0 0.0
vt 0.99704194 0.4400087
vt 0.75199646 0.38889438
vt 0.9962605 0.38263798
vt 0.75277764 0.44626522
vt 0.8078053 0.44137096
vt 0.85857266 0.3781917
vt 0.85857266 0.44137096
vt 0.8078053 0.3781917
vt 0.75035334 0.44718033
vt 0.9947005 0.37577665
vt 0.99470043 0.4471804
vt 0.75035334 0.3757766
vt 0.8079304 0.4430827
vt 0.85869795 0.37990344
vt 0.85869795 0.4430827
vt 0.8079304 0.37990344
vt 0.75199646 0.44718033
vt 0.99634373 0.37577665
vt 0.9963437 0.4471804
vt 0.75199646 0.3757766
vt 0.99704194 0.4400087
vt 0.75199646 0.38889438
vt 0.75277764 0.44626522
vt 0.9962605 0.38263798

g Container_7
s 1
usemtl Container_7
f 3/3/3 2/2/2 1/1/1 
f 2/2/2 4/4/4 1/1/1 
f 7/7/7 6/6/6 5/5/5 
f 6/6/6 8/8/8 5/5/5 
f 11/11/11 10/10/10 9/9/9 
f 10/10/10 12/12/12 9/9/9 
f 15/15/15 14/14/14 13/13/13 
f 14/14/14 16/16/16 13/13/13 
f 19/19/19 18/18/18 17/17/17 
f 18/18/18 20/20/20 17/17/17 
f 23/23/23 22/22/22 21/21/21 
f 22/22/22 24/24/24 21/21/21 

