# Created by DisUnity v0.3.4
v 0.06603979 2.462854 -0.22022897
v 0.066039965 2.389176 0.34820113
v 0.06603992 2.462854 0.22022882
v 0.066039756 2.389176 -0.34820125
v 0.066039965 0.6998179 0.3482012
v 0.066039756 0.6998179 -0.3482012
v 0.0660398 0.62613964 -0.22022888
v 0.06603993 0.62613964 0.22022891
v -0.06601719 2.389176 0.34820116
v -0.06601736 2.462854 -0.22022893
v -0.06601724 2.462854 0.22022887
v -0.06601741 2.389176 -0.34820122
v -0.06601719 0.6998179 0.34820122
v -0.06601741 0.6998179 -0.34820116
v -0.06601736 0.62613964 -0.22022884
v -0.06601724 0.62613964 0.22022896
v -0.06601741 2.389176 -0.34820122
v 0.06603979 2.462854 -0.22022897
v -0.06601736 2.462854 -0.22022893
v 0.066039756 2.389176 -0.34820125
v -0.06601736 2.462854 -0.22022893
v 0.06603992 2.462854 0.22022882
v -0.06601724 2.462854 0.22022887
v 0.06603979 2.462854 -0.22022897
v -0.06601724 2.462854 0.22022887
v 0.066039965 2.389176 0.34820113
v -0.06601719 2.389176 0.34820116
v 0.06603992 2.462854 0.22022882
v -0.06601719 2.389176 0.34820116
v 0.066039965 0.6998179 0.3482012
v -0.06601719 0.6998179 0.34820122
v 0.066039965 2.389176 0.34820113
v -0.06601741 0.6998179 -0.34820116
v 0.066039756 2.389176 -0.34820125
v -0.06601741 2.389176 -0.34820122
v 0.066039756 0.6998179 -0.3482012
v -0.06601719 0.6998179 0.34820122
v 0.06603993 0.62613964 0.22022891
v -0.06601724 0.62613964 0.22022896
v 0.066039965 0.6998179 0.3482012
v -0.06601736 0.62613964 -0.22022884
v 0.066039756 0.6998179 -0.3482012
v -0.06601741 0.6998179 -0.34820116
v 0.0660398 0.62613964 -0.22022888
v 0.0660398 0.62613964 -0.22022888
v 0.066039935 -1.9741058E-4 0.22022894
v 0.06603993 0.62613964 0.22022891
v 0.06603981 -1.9741058E-4 -0.22022885
v 0.06603993 0.62613964 0.22022891
v -0.066017225 -1.9741058E-4 0.22022898
v -0.06601724 0.62613964 0.22022896
v 0.066039935 -1.9741058E-4 0.22022894
v -0.06601724 0.62613964 0.22022896
v -0.066017345 -1.9741058E-4 -0.2202288
v -0.06601736 0.62613964 -0.22022884
v -0.066017225 -1.9741058E-4 0.22022898
v -0.06601736 0.62613964 -0.22022884
v 0.06603981 -1.9741058E-4 -0.22022885
v 0.0660398 0.62613964 -0.22022888
v -0.066017345 -1.9741058E-4 -0.2202288
vn 1.0 0.0 0.0
vn 1.0 0.0 0.0
vn 1.0 0.0 0.0
vn 1.0 0.0 0.0
vn 1.0 0.0 0.0
vn 1.0 0.0 0.0
vn 1.0 0.0 0.0
vn 1.0 0.0 0.0
vn -1.0 0.0 0.0
vn -1.0 0.0 0.0
vn -1.0 0.0 0.0
vn -1.0 0.0 0.0
vn -1.0 0.0 0.0
vn -1.0 0.0 0.0
vn -1.0 0.0 0.0
vn -1.0 0.0 0.0
vn -0.0 0.8666312 -0.49894923
vn -0.0 0.9660826 -0.25823322
vn -0.0 0.9660826 -0.25823316
vn -0.0 0.8666312 -0.49894923
vn -0.0 0.9660826 -0.25823316
vn -0.0 0.9660826 0.25823313
vn -0.0 0.9660826 0.25823316
vn -0.0 0.9660826 -0.25823322
vn -0.0 0.9660826 0.25823316
vn -0.0 0.8666312 0.49894923
vn -0.0 0.8666312 0.49894923
vn -0.0 0.9660826 0.25823313
vn -0.0 0.0 1.0
vn -0.0 0.0 1.0
vn -0.0 0.0 1.0
vn -0.0 0.0 1.0
vn -0.0 0.0 -1.0
vn -0.0 0.0 -1.0
vn -0.0 0.0 -1.0
vn -0.0 0.0 -1.0
vn -0.0 -0.8666305 0.4989505
vn -0.0 -0.8666305 0.49895045
vn -0.0 -0.8666305 0.49895045
vn -0.0 -0.8666305 0.49895045
vn -0.0 -0.8666306 -0.4989504
vn -0.0 -0.8666306 -0.4989504
vn -0.0 -0.8666306 -0.4989504
vn -0.0 -0.8666306 -0.49895042
vn 1.0 0.0 0.0
vn 1.0 0.0 0.0
vn 1.0 0.0 0.0
vn 1.0 0.0 0.0
vn -0.0 0.0 1.0
vn -0.0 0.0 1.0
vn -0.0 0.0 1.0
vn -0.0 0.0 1.0
vn -1.0 0.0 0.0
vn -1.0 0.0 0.0
vn -1.0 0.0 0.0
vn -1.0 0.0 0.0
vn -0.0 0.0 -1.0
vn -0.0 0.0 -1.0
vn -0.0 0.0 -1.0
vn -0.0 0.0 -1.0
vt 0.7178453 0.9630797
vt 0.7143581 0.938196
vt 0.7178453 0.9432461
vt 0.7143581 0.9681298
vt 0.6317277 0.938196
vt 0.6317277 0.9681298
vt 0.62546897 0.9624713
vt 0.62546897 0.9438545
vt 1.7143581 0.938196
vt 1.7178453 0.9630797
vt 1.7178453 0.9432461
vt 1.7143581 0.9681298
vt 1.6317277 0.938196
vt 1.6317277 0.9681298
vt 1.625469 0.9624713
vt 1.625469 0.9438545
vt 0.6653922 0.959938
vt 0.66547406 0.96652126
vt 0.6621415 0.96318865
vt 0.6687248 0.96327055
vt 0.67980945 0.9455219
vt 0.6720361 0.9599583
vt 0.6687046 0.9566268
vt 0.683141 0.9488534
vt 0.6856524 0.93967783
vt 0.685684 0.9463113
vt 0.68235147 0.94297874
vt 0.6889849 0.94301045
vt 0.6856524 0.93967783
vt 0.66547406 0.96652126
vt 0.6621415 0.96318865
vt 0.6889849 0.94301045
vt 0.6856524 0.9396778
vt 0.66547406 0.96652126
vt 0.6621415 0.96318865
vt 0.688985 0.9430104
vt 0.66540015 0.95993
vt 0.66547406 0.96652126
vt 0.6621415 0.96318865
vt 0.66873276 0.96326256
vt 0.6856524 0.9396778
vt 0.685684 0.9463113
vt 0.68235147 0.94297874
vt 0.688985 0.9430104
vt 0.5835688 0.99917597
vt 0.53585243 0.9386251
vt 0.5835688 0.9386251
vt 0.53585243 0.99917597
vt 0.5835688 0.95672053
vt 0.53585243 0.9386251
vt 0.5835688 0.9386251
vt 0.53585243 0.95672053
vt 0.5835688 0.99917597
vt 0.5358533 0.9386251
vt 0.5835688 0.9386251
vt 0.5358533 0.99917597
vt 0.5835688 0.95672053
vt 0.5358533 0.9386251
vt 0.5835688 0.9386251
vt 0.5358533 0.95672053

g Dangersign_Road
s 1
usemtl Dangersign_Road
f 3/3/3 2/2/2 1/1/1 
f 4/4/4 1/1/1 2/2/2 
f 2/2/2 5/5/5 4/4/4 
f 6/6/6 4/4/4 5/5/5 
f 6/6/6 5/5/5 7/7/7 
f 8/8/8 7/7/7 5/5/5 
f 11/11/11 10/10/10 9/9/9 
f 12/12/12 9/9/9 10/10/10 
f 9/9/9 12/12/12 13/13/13 
f 14/14/14 13/13/13 12/12/12 
f 14/14/14 15/15/15 13/13/13 
f 16/16/16 13/13/13 15/15/15 
f 19/19/19 18/18/18 17/17/17 
f 20/20/20 17/17/17 18/18/18 
f 23/23/23 22/22/22 21/21/21 
f 24/24/24 21/21/21 22/22/22 
f 27/27/27 26/26/26 25/25/25 
f 28/28/28 25/25/25 26/26/26 
f 31/31/31 30/30/30 29/29/29 
f 32/32/32 29/29/29 30/30/30 
f 35/35/35 34/34/34 33/33/33 
f 36/36/36 33/33/33 34/34/34 
f 39/39/39 38/38/38 37/37/37 
f 40/40/40 37/37/37 38/38/38 
f 43/43/43 42/42/42 41/41/41 
f 44/44/44 41/41/41 42/42/42 
f 47/47/47 46/46/46 45/45/45 
f 48/48/48 45/45/45 46/46/46 
f 51/51/51 50/50/50 49/49/49 
f 52/52/52 49/49/49 50/50/50 
f 55/55/55 54/54/54 53/53/53 
f 56/56/56 53/53/53 54/54/54 
f 59/59/59 58/58/58 57/57/57 
f 60/60/60 57/57/57 58/58/58 

