# Created by DisUnity v0.3.4
v 5.906605 0.24982308 -39.754818
v 1.2936687 0.24982306 -26.951426
v 5.6715546 0.24982308 -39.849888
v 1.5389175 0.24982306 -26.887875
v 11.916281 0.24982314 -51.94164
v 11.695465 0.24982312 -52.06665
v 19.465134 0.24982323 -63.239853
v 19.262352 0.24982321 -63.39272
v 28.424019 0.24982338 -73.45617
v 28.242767 0.24982335 -73.634315
v -1.3633051 0.24982306 -13.591932
v -1.1120586 0.24982306 -13.560938
v -2.2539158 0.24982308 4.005432E-5
v -2.0009708 0.24982308 -0.001999855
v -5.416834 0.24982287 -44.437733
v -13.634236 0.24982287 -30.948582
v -8.606803 0.24982281 -45.7611
v -10.29884 0.2498229 -30.052847
v 1.3008804 0.24982285 -58.062393
v 4.54208 0.24982293 -56.193855
v -1.9594812 0.24982293 -43.008213
v -1.6891003 0.2498228 -59.790752
v 9.739376 0.24982288 -70.69373
v 7.0005283 0.2498228 -72.79752
v 19.754288 0.24982296 -82.11567
v 17.313423 0.24982287 -84.5589
v -16.68539 0.24982296 -15.60661
v -13.261622 0.24982297 -15.153817
v -17.708069 0.24982306 0.002351284
v -14.25449 0.24982305 0.0044488907
v -9.552097 0.249823 -14.667778
v -10.51326 0.24982306 0.0021743774
v -6.6844845 0.24982296 -29.086803
v 22.401474 0.2498231 -79.471954
v 12.708973 0.24982299 -68.418144
v -8.606803 0.24982281 -45.7611
v -13.873502 0.24982285 -31.012686
v -8.835658 0.24982278 -45.855877
v -13.634236 0.24982287 -30.948582
v -1.6891003 0.2498228 -59.790752
v -1.9036283 0.24982277 -59.914585
v 7.0005283 0.2498228 -72.79752
v 6.803997 0.24982278 -72.948296
v 17.313423 0.24982287 -84.5589
v 17.138248 0.24982284 -84.73403
v -16.930975 0.24982294 -15.638937
v -16.68539 0.24982296 -15.60661
v -17.955772 0.24982305 0.0023579597
v -17.708069 0.24982306 0.002351284
v 7.7544556 0.24982312 -38.98722
v 1.5389175 0.24982306 -26.887875
v 5.906605 0.24982308 -39.754818
v 3.4711685 0.2498231 -26.368036
v 13.648117 0.2498232 -50.939423
v 11.916281 0.24982314 -51.94164
v 21.051323 0.24982329 -62.020164
v 19.465134 0.24982323 -63.239853
v 29.837421 0.24982344 -72.03989
v 28.424019 0.24982338 -73.45617
v -1.1120586 0.24982306 -13.560938
v 0.8715296 0.24982308 -13.297755
v -2.0009708 0.24982308 -0.001999855
v 1.5258789E-5 0.24982308 2.002716E-5
v 1.7407417 0.249823 -41.476845
v -6.6844845 0.24982296 -29.086803
v -1.9594812 0.24982293 -43.008213
v -2.8159552 0.249823 -28.051453
v 8.010704 0.24982303 -54.192688
v 4.54208 0.24982293 -56.193855
v 15.886665 0.2498231 -65.98144
v 12.708973 0.24982299 -68.418144
v 25.23389 0.24982321 -76.64141
v 22.401474 0.2498231 -79.471954
v -9.552097 0.249823 -14.667778
v -5.581438 0.24982303 -14.14618
v -10.51326 0.24982306 0.0021743774
v -6.508397 0.24982306 0.0010693073
v -10.67935 0.24982275 -46.61712
v -1.9036283 0.24982277 -59.914585
v -8.835658 0.24982278 -45.855877
v -3.6321774 0.24982272 -60.909977
v -15.800789 0.24982284 -31.52674
v -13.873502 0.24982285 -31.012686
v -18.908875 0.24982293 -15.897016
v -16.930975 0.24982294 -15.638937
v -19.950436 0.24982305 0.004673481
v -17.955772 0.24982305 0.0023579597
v 6.803997 0.24982278 -72.948296
v 5.220173 0.24982272 -74.16081
v 17.138248 0.24982284 -84.73403
v 15.72625 0.24982278 -86.142914
v 7.7544556 0.24982312 -38.98722
v 13.648117 1.4156103E-6 -50.939423
v 7.7544556 1.5199184E-6 -38.98722
v 13.648117 0.2498232 -50.939423
v 5.6715546 0.24982308 -39.849888
v -2.8159552 0.249823 -28.051453
v 1.7407417 0.249823 -41.476845
v 1.2936687 0.24982306 -26.951426
v 11.695465 0.24982312 -52.06665
v 8.010704 0.24982303 -54.192688
v 19.262352 0.24982321 -63.39272
v 15.886665 0.2498231 -65.98144
v 28.242767 0.24982335 -73.634315
v 25.23389 0.24982321 -76.64141
v -5.581438 0.24982303 -14.14618
v -1.3633051 0.24982306 -13.591932
v -6.508397 0.24982306 0.0010693073
v -2.2539158 0.24982308 4.005432E-5
v -10.67935 1.1026859E-6 -46.61712
v -3.6321774 0.24982272 -60.909977
v -10.67935 0.24982275 -46.61712
v -3.6321774 8.940697E-7 -60.909977
v -15.800789 1.3709068E-6 -31.52674
v -15.800789 0.24982284 -31.52674
v -18.908875 1.6391277E-6 -15.897016
v -18.908875 0.24982293 -15.897016
v -19.950436 1.937151E-6 0.004673481
v -19.950436 0.24982305 0.004673481
v 5.220173 0.24982272 -74.16081
v 5.220173 7.1525574E-7 -74.16081
v 15.72625 0.24982278 -86.142914
v 15.72625 5.9604645E-7 -86.142914
v 1.5258789E-5 0.24982308 2.002716E-5
v 0.8715296 1.847744E-6 -13.297755
v 1.5258789E-5 2.026558E-6 2.002716E-5
v 0.8715296 0.24982308 -13.297755
v 0.8715296 0.24982308 -13.297755
v 3.4711685 1.66893E-6 -26.368036
v 0.8715296 1.847744E-6 -13.297755
v 3.4711685 0.2498231 -26.368036
v 3.4711685 0.2498231 -26.368036
v 7.7544556 1.5199184E-6 -38.98722
v 3.4711685 1.66893E-6 -26.368036
v 7.7544556 0.24982312 -38.98722
v 29.837421 1.2814999E-6 -72.03989
v 21.051323 0.24982329 -62.020164
v 29.837421 0.24982344 -72.03989
v 21.051323 1.3113022E-6 -62.020164
v 21.051323 1.3113022E-6 -62.020164
v 13.648117 0.2498232 -50.939423
v 21.051323 0.24982329 -62.020164
v 13.648117 1.4156103E-6 -50.939423
vn -0.0 1.0 0.0
vn -0.0 1.0 0.0
vn -0.0 1.0 0.0
vn -0.0 1.0 0.0
vn -0.0 1.0 0.0
vn -0.0 1.0 0.0
vn -0.0 1.0 0.0
vn -0.0 1.0 0.0
vn -0.0 1.0 0.0
vn -0.0 1.0 0.0
vn -0.0 1.0 0.0
vn -0.0 1.0 0.0
vn -0.0 1.0 0.0
vn -0.0 1.0 0.0
vn -0.0 1.0 0.0
vn -0.0 1.0 0.0
vn -0.0 1.0 0.0
vn -0.0 1.0 0.0
vn -0.0 1.0 0.0
vn -0.0 1.0 0.0
vn -0.0 1.0 0.0
vn -0.0 1.0 0.0
vn -0.0 1.0 0.0
vn -0.0 1.0 0.0
vn -0.0 1.0 0.0
vn -0.0 1.0 0.0
vn -0.0 1.0 0.0
vn -0.0 1.0 0.0
vn -0.0 1.0 0.0
vn -0.0 1.0 0.0
vn -0.0 1.0 0.0
vn -0.0 1.0 0.0
vn -0.0 1.0 0.0
vn -0.0 1.0 0.0
vn -0.0 1.0 0.0
vn -0.0 1.0 0.0
vn -0.0 1.0 0.0
vn -0.0 1.0 0.0
vn -0.0 1.0 0.0
vn -0.0 1.0 0.0
vn -0.0 1.0 0.0
vn -0.0 1.0 0.0
vn -0.0 1.0 0.0
vn -0.0 1.0 0.0
vn -0.0 1.0 0.0
vn -0.0 1.0 0.0
vn -0.0 1.0 0.0
vn -0.0 1.0 0.0
vn -0.0 1.0 0.0
vn -0.0 1.0 0.0
vn -0.0 1.0 0.0
vn -0.0 1.0 0.0
vn -0.0 1.0 0.0
vn -0.0 1.0 0.0
vn -0.0 1.0 0.0
vn -0.0 1.0 0.0
vn -0.0 1.0 0.0
vn -0.0 1.0 0.0
vn -0.0 1.0 0.0
vn -0.0 1.0 0.0
vn -0.0 1.0 0.0
vn -0.0 1.0 0.0
vn -0.0 1.0 0.0
vn -0.0 1.0 0.0
vn -0.0 1.0 0.0
vn -0.0 1.0 0.0
vn -0.0 1.0 0.0
vn -0.0 1.0 0.0
vn -0.0 1.0 0.0
vn -0.0 1.0 0.0
vn -0.0 1.0 0.0
vn -0.0 1.0 0.0
vn -0.0 1.0 0.0
vn -0.0 1.0 0.0
vn -0.0 1.0 0.0
vn -0.0 1.0 0.0
vn -0.0 1.0 0.0
vn -0.0 1.0 0.0
vn -0.0 1.0 0.0
vn -0.0 1.0 0.0
vn -0.0 1.0 0.0
vn -0.0 1.0 0.0
vn -0.0 1.0 0.0
vn -0.0 1.0 0.0
vn -0.0 1.0 0.0
vn -0.0 1.0 0.0
vn -0.0 1.0 0.0
vn -0.0 1.0 0.0
vn -0.0 1.0 0.0
vn -0.0 1.0 0.0
vn -0.0 1.0 0.0
vn 0.896888 0.0 0.44225776
vn 0.896888 0.0 0.4422578
vn 0.896888 0.0 0.4422578
vn 0.896888 0.0 0.4422578
vn -0.0 1.0 0.0
vn -0.0 1.0 0.0
vn -0.0 1.0 0.0
vn -0.0 1.0 0.0
vn -0.0 1.0 0.0
vn -0.0 1.0 0.0
vn -0.0 1.0 0.0
vn -0.0 1.0 0.0
vn -0.0 1.0 0.0
vn -0.0 1.0 0.0
vn -0.0 1.0 0.0
vn -0.0 1.0 0.0
vn -0.0 1.0 0.0
vn -0.0 1.0 0.0
vn -0.9239054 0.0 -0.38262105
vn -0.86606395 0.0 -0.4999332
vn -0.9239054 0.0 -0.38262102
vn -0.86606395 0.0 -0.4999331
vn -0.9659407 0.0 -0.25876328
vn -0.9659407 0.0 -0.25876325
vn -0.9914512 0.0 -0.13047849
vn -0.9914512 0.0 -0.13047846
vn -0.9978618 0.0 -0.06535998
vn -0.9978618 0.0 -0.06535997
vn -0.79340625 0.0 -0.60869247
vn -0.7934063 0.0 -0.60869247
vn -0.7519003 0.0 -0.65927684
vn -0.7519004 0.0 -0.65927684
vn 0.9978593 0.0 0.06539806
vn 0.9978593 0.0 0.06539806
vn 0.9978593 0.0 0.06539807
vn 0.9978593 0.0 0.06539806
vn 0.98078823 0.0 0.19507578
vn 0.98078823 0.0 0.19507578
vn 0.98078823 0.0 0.19507577
vn 0.98078823 0.0 0.19507577
vn 0.94693804 0.0 0.32141602
vn 0.94693804 0.0 0.321416
vn 0.94693804 0.0 0.321416
vn 0.94693804 0.0 0.32141596
vn 0.7518756 0.0 0.6593051
vn 0.7518756 0.0 0.6593051
vn 0.7518756 0.0 0.65930504
vn 0.7518756 0.0 0.65930504
vn 0.83149415 0.0 0.5555334
vn 0.83149415 0.0 0.5555334
vn 0.83149415 0.0 0.5555334
vn 0.83149415 0.0 0.5555334
vt -15.929272 0.31514
vt -16.032074 0.31030267
vt -15.926432 0.3103028
vt -16.03497 0.3151402
vt -15.823576 0.3151399
vt -15.820789 0.3103029
vt -15.71788 0.31513977
vt -15.715147 0.31030303
vt -15.612184 0.31513965
vt -15.609505 0.31030315
vt -16.137716 0.31030256
vt -16.140665 0.3151403
vt -16.243359 0.31030244
vt -16.24636 0.31514043
vt -1.0604235 0.06182617
vt -1.2146974 0.005864918
vt -1.0604235 0.005851865
vt -1.2146974 0.061839223
vt -0.9061496 0.061813116
vt -0.9061496 0.11754233
vt -1.0604235 0.11755538
vt -0.9061496 0.005838871
vt -0.7518758 0.061800122
vt -0.7518758 0.005825877
vt -0.59760195 0.06178707
vt -0.59760195 0.005812824
vt -1.3689711 0.0058779716
vt -1.3689711 0.061852217
vt -1.523245 0.0058909655
vt -1.523245 0.06186527
vt -1.3689711 0.11758137
vt -1.523245 0.11759442
vt -1.2146974 0.11756837
vt -0.59760195 0.11751628
vt -0.7518758 0.11752933
vt -36.924007 0.44190347
vt -37.278828 0.43341017
vt -36.924007 0.43341017
vt -37.278828 0.44190347
vt -36.569187 0.44190347
vt -36.569187 0.43341017
vt -36.214363 0.44190347
vt -36.214363 0.43341017
vt -35.859543 0.44190347
vt -35.859543 0.43341017
vt -37.63365 0.43341017
vt -37.63365 0.44190347
vt -37.988472 0.43341017
vt -37.988472 0.44190347
vt -22.635439 0.87454087
vt -22.404343 0.9350322
vt -22.637344 0.93502647
vt -22.402506 0.8745445
vt -22.868372 0.8745373
vt -22.870344 0.93502074
vt -23.101305 0.87453365
vt -23.103346 0.935015
vt -23.334238 0.8745301
vt -23.336348 0.9350093
vt -22.17134 0.9350379
vt -22.169573 0.8745481
vt -21.93834 0.93504363
vt -21.93664 0.8745517
vt -0.93282 0.11949563
vt -1.0869914 0.059834838
vt -0.93282 0.05984795
vt -1.0869914 0.11948526
vt -0.77864873 0.11950606
vt -0.77864873 0.059861124
vt -0.62447745 0.11951649
vt -0.62447745 0.059874237
vt -0.47030613 0.11952692
vt -0.47030613 0.05988735
vt -1.2411627 0.059821725
vt -1.2411627 0.11947483
vt -1.395334 0.059808612
vt -1.395334 0.1194644
vt 29.463558 0.87573206
vt 29.789623 0.93717575
vt 29.46783 0.93717474
vt 29.785423 0.87573105
vt 29.141693 0.8757331
vt 29.146038 0.9371737
vt 28.819824 0.8757341
vt 28.82425 0.9371727
vt 28.49796 0.8757351
vt 28.502457 0.9371717
vt 30.111412 0.93717676
vt 30.107292 0.87573004
vt 30.433205 0.9371778
vt 30.429157 0.87572896
vt 13.295921 1.8906565
vt 12.971588 1.8828268
vt 13.295921 1.8828268
vt 12.971588 1.8906565
vt -0.93282 0.11949563
vt -1.0869914 0.059834838
vt -0.93282 0.05984795
vt -1.0869913 0.11948526
vt -0.7786487 0.11950606
vt -0.77864873 0.059861124
vt -0.62447745 0.11951649
vt -0.62447745 0.059874237
vt -0.47030613 0.11952692
vt -0.47030613 0.05988735
vt -1.2411627 0.059821725
vt -1.2411627 0.11947483
vt -1.395334 0.059808612
vt -1.395334 0.1194644
vt 0.5 0.89781475
vt 0.66333336 0.9008745
vt 0.5 0.9008745
vt 0.66333336 0.89781475
vt 0.3366667 0.89781475
vt 0.3366667 0.9008745
vt 0.17333329 0.89781475
vt 0.17333329 0.9008745
vt 0.01 0.89781475
vt 0.01 0.9008745
vt 0.8266667 0.9008745
vt 0.8266667 0.89781475
vt 0.99 0.9008745
vt 0.99 0.89781475
vt 14.268921 1.8906565
vt 13.944588 1.8828268
vt 14.268921 1.8828268
vt 13.944588 1.8906565
vt 13.944588 1.8906565
vt 13.6202545 1.8828268
vt 13.944588 1.8828268
vt 13.6202545 1.8906565
vt 13.6202545 1.8906565
vt 13.295921 1.8828268
vt 13.6202545 1.8828268
vt 13.295921 1.8906565
vt 12.322922 1.8828268
vt 12.647255 1.8906565
vt 12.322922 1.8906565
vt 12.647255 1.8828268
vt 12.647255 1.8828268
vt 12.971588 1.8906565
vt 12.647255 1.8906565
vt 12.971588 1.8828268

g Four_Lane_45Degree_R_80m
s 1
usemtl Four_Lane_45Degree_R_80m
f 3/3/3 2/2/2 1/1/1 
f 4/4/4 1/1/1 2/2/2 
f 1/1/1 5/5/5 3/3/3 
f 6/6/6 3/3/3 5/5/5 
f 5/5/5 7/7/7 6/6/6 
f 8/8/8 6/6/6 7/7/7 
f 7/7/7 9/9/9 8/8/8 
f 10/10/10 8/8/8 9/9/9 
f 2/2/2 11/11/11 4/4/4 
f 12/12/12 4/4/4 11/11/11 
f 11/11/11 13/13/13 12/12/12 
f 14/14/14 12/12/12 13/13/13 
f 17/17/17 16/16/16 15/15/15 
f 18/18/18 15/15/15 16/16/16 
f 15/15/15 19/19/19 17/17/17 
f 19/19/19 15/15/15 20/20/20 
f 21/21/21 20/20/20 15/15/15 
f 15/15/15 18/18/18 21/21/21 
f 22/22/22 17/17/17 19/19/19 
f 19/19/19 23/23/23 22/22/22 
f 24/24/24 22/22/22 23/23/23 
f 23/23/23 25/25/25 24/24/24 
f 26/26/26 24/24/24 25/25/25 
f 16/16/16 27/27/27 18/18/18 
f 28/28/28 18/18/18 27/27/27 
f 27/27/27 29/29/29 28/28/28 
f 30/30/30 28/28/28 29/29/29 
f 28/28/28 30/30/30 31/31/31 
f 32/32/32 31/31/31 30/30/30 
f 31/31/31 33/33/33 28/28/28 
f 18/18/18 28/28/28 33/33/33 
f 33/33/33 21/21/21 18/18/18 
f 25/25/25 23/23/23 34/34/34 
f 35/35/35 34/34/34 23/23/23 
f 23/23/23 19/19/19 35/35/35 
f 20/20/20 35/35/35 19/19/19 
f 38/38/38 37/37/37 36/36/36 
f 39/39/39 36/36/36 37/37/37 
f 36/36/36 40/40/40 38/38/38 
f 41/41/41 38/38/38 40/40/40 
f 40/40/40 42/42/42 41/41/41 
f 43/43/43 41/41/41 42/42/42 
f 42/42/42 44/44/44 43/43/43 
f 45/45/45 43/43/43 44/44/44 
f 37/37/37 46/46/46 39/39/39 
f 47/47/47 39/39/39 46/46/46 
f 46/46/46 48/48/48 47/47/47 
f 49/49/49 47/47/47 48/48/48 
f 52/52/52 51/51/51 50/50/50 
f 53/53/53 50/50/50 51/51/51 
f 50/50/50 54/54/54 52/52/52 
f 55/55/55 52/52/52 54/54/54 
f 54/54/54 56/56/56 55/55/55 
f 57/57/57 55/55/55 56/56/56 
f 56/56/56 58/58/58 57/57/57 
f 59/59/59 57/57/57 58/58/58 
f 51/51/51 60/60/60 53/53/53 
f 61/61/61 53/53/53 60/60/60 
f 60/60/60 62/62/62 61/61/61 
f 63/63/63 61/61/61 62/62/62 
f 66/66/66 65/65/65 64/64/64 
f 67/67/67 64/64/64 65/65/65 
f 64/64/64 68/68/68 66/66/66 
f 69/69/69 66/66/66 68/68/68 
f 68/68/68 70/70/70 69/69/69 
f 71/71/71 69/69/69 70/70/70 
f 70/70/70 72/72/72 71/71/71 
f 73/73/73 71/71/71 72/72/72 
f 65/65/65 74/74/74 67/67/67 
f 75/75/75 67/67/67 74/74/74 
f 74/74/74 76/76/76 75/75/75 
f 77/77/77 75/75/75 76/76/76 
f 80/80/80 79/79/79 78/78/78 
f 81/81/81 78/78/78 79/79/79 
f 78/78/78 82/82/82 80/80/80 
f 83/83/83 80/80/80 82/82/82 
f 82/82/82 84/84/84 83/83/83 
f 85/85/85 83/83/83 84/84/84 
f 84/84/84 86/86/86 85/85/85 
f 87/87/87 85/85/85 86/86/86 
f 79/79/79 88/88/88 81/81/81 
f 89/89/89 81/81/81 88/88/88 
f 88/88/88 90/90/90 89/89/89 
f 91/91/91 89/89/89 90/90/90 
f 94/94/94 93/93/93 92/92/92 
f 95/95/95 92/92/92 93/93/93 
f 98/98/98 97/97/97 96/96/96 
f 99/99/99 96/96/96 97/97/97 
f 96/96/96 100/100/100 98/98/98 
f 101/101/101 98/98/98 100/100/100 
f 100/100/100 102/102/102 101/101/101 
f 103/103/103 101/101/101 102/102/102 
f 102/102/102 104/104/104 103/103/103 
f 105/105/105 103/103/103 104/104/104 
f 97/97/97 106/106/106 99/99/99 
f 107/107/107 99/99/99 106/106/106 
f 106/106/106 108/108/108 107/107/107 
f 109/109/109 107/107/107 108/108/108 
f 112/112/112 111/111/111 110/110/110 
f 113/113/113 110/110/110 111/111/111 
f 110/110/110 114/114/114 112/112/112 
f 115/115/115 112/112/112 114/114/114 
f 114/114/114 116/116/116 115/115/115 
f 117/117/117 115/115/115 116/116/116 
f 116/116/116 118/118/118 117/117/117 
f 119/119/119 117/117/117 118/118/118 
f 111/111/111 120/120/120 113/113/113 
f 121/121/121 113/113/113 120/120/120 
f 120/120/120 122/122/122 121/121/121 
f 123/123/123 121/121/121 122/122/122 
f 126/126/126 125/125/125 124/124/124 
f 127/127/127 124/124/124 125/125/125 
f 130/130/130 129/129/129 128/128/128 
f 131/131/131 128/128/128 129/129/129 
f 134/134/134 133/133/133 132/132/132 
f 135/135/135 132/132/132 133/133/133 
f 138/138/138 137/137/137 136/136/136 
f 139/139/139 136/136/136 137/137/137 
f 142/142/142 141/141/141 140/140/140 
f 143/143/143 140/140/140 141/141/141 

