# Created by DisUnity v0.3.4
v -2.0008726 0.24982308 -8.038392
v -2.2539158 0.24982306 3.9100647E-5
v -2.2550077 0.24982306 -8.036257
v -2.0009708 0.24982306 -0.0019612312
v -14.25449 0.24982305 -8.032454
v -17.708069 0.24982306 0.002003193
v -17.708069 0.24982306 -8.034162
v -14.25449 0.24982305 0.0039029121
v -10.51326 0.24982306 -8.034355
v -10.51326 0.24982306 0.0019710064
v -17.708069 0.24982306 -8.034162
v -17.955772 0.24982305 0.0020046234
v -17.955772 0.24982305 -8.034161
v -17.708069 0.24982306 0.002003193
v 1.5258789E-5 0.24982308 -8.036278
v -2.0009708 0.24982306 -0.0019612312
v -2.0008726 0.24982308 -8.038392
v 1.5258789E-5 0.24982308 2.002716E-5
v -6.5089436 0.24982306 -8.035307
v -10.51326 0.24982306 0.0019710064
v -10.51326 0.24982306 -8.034355
v -6.508397 0.24982306 0.0010051727
v -19.950436 0.24982305 0.0039081573
v -17.955772 0.24982305 -8.034161
v -17.955772 0.24982305 0.0020046234
v -19.950436 0.24982305 -8.032449
v 1.5258789E-5 0.24982308 2.002716E-5
v 1.5258789E-5 9.23872E-7 -8.036278
v 1.5258789E-5 2.026558E-6 2.002716E-5
v 1.5258789E-5 0.24982308 -8.036278
v -24.18724 0.24982306 -8.034162
v -23.939537 0.24982305 0.0020046234
v -24.18724 0.24982306 0.002003193
v -23.939537 0.24982305 -8.034161
v -21.944874 0.24982305 0.0039081573
v -23.939537 0.24982305 -8.034161
v -21.944874 0.24982305 -8.032449
v -23.939537 0.24982305 0.0020046234
v -19.950436 0.24982305 -8.032449
v -20.947655 0.24982305 0.0039081573
v -20.947655 0.24982305 -8.032449
v -19.950436 0.24982305 0.0039081573
v -2.2550077 0.24982306 -8.036257
v -6.508397 0.24982306 0.0010051727
v -6.5089436 0.24982306 -8.035307
v -2.2539158 0.24982306 3.9100647E-5
v -39.999065 0.24982308 0.006228447
v -39.746025 0.24982306 -8.032203
v -39.74493 0.24982306 0.004093647
v -39.99897 0.24982306 -8.030203
v -27.944866 0.24982305 2.8800964E-4
v -24.18724 0.24982306 -8.034162
v -24.18724 0.24982306 0.002003193
v -27.944866 0.24982305 -8.036068
v -31.686096 0.24982306 0.00219059
v -31.686096 0.24982306 -8.034136
v -41.999954 0.24982308 0.004114628
v -39.99897 0.24982306 -8.030203
v -39.999065 0.24982308 0.006228447
v -41.999954 0.24982308 -8.032183
v -35.690414 0.24982306 0.0031423569
v -31.686096 0.24982306 -8.034136
v -31.686096 0.24982306 0.00219059
v -35.69096 0.24982306 -8.03317
v -41.999954 0.24982308 -8.032183
v -41.999954 9.23872E-7 0.004114628
v -41.999954 2.026558E-6 -8.032183
v -41.999954 0.24982308 0.004114628
v -39.74493 0.24982306 0.004093647
v -35.69096 0.24982306 -8.03317
v -35.690414 0.24982306 0.0031423569
v -39.746025 0.24982306 -8.032203
v -21.944874 0.24982305 -8.032449
v -20.947655 0.24982305 0.0039081573
v -21.944874 0.24982305 0.0039081573
v -20.947655 0.24982305 -8.032449
v -20.357094 0.3286608 -7.977661
v -21.244205 0.62215275 -7.9776535
v -21.54036 0.32866085 -7.977661
v -20.65324 0.6221527 -7.977661
v -21.17144 1.5530764 -7.977646
v -20.948725 1.5530766 -7.977646
v -20.357094 0.25005418 -7.977661
v -21.54036 0.2500543 -7.977661
v -20.72601 1.5530764 -7.977646
v -21.540348 0.2500335 0.0039596558
v -20.357082 0.32863992 0.0039596558
v -20.357082 0.25003338 0.0039596558
v -21.540348 0.32863998 0.0039596558
v -21.244194 0.6221319 0.0039596558
v -20.653229 0.6221318 0.0039596558
v -21.171432 1.5530559 0.0039596558
v -20.948713 1.5530559 0.0039596558
v -20.725998 1.5530559 0.0039596558
v -21.244194 0.622134 -7.977646
v -21.540348 0.32863998 0.0039596558
v -21.540348 0.32864207 -7.977646
v -21.244194 0.6221319 0.0039596558
v -21.171432 1.553058 -7.977646
v -21.171432 1.5530559 0.0039596558
v -21.540348 0.2500335 0.0039596558
v -21.540348 0.25003558 -7.977646
v -20.357082 0.328642 -7.977646
v -20.653229 0.6221318 0.0039596558
v -20.653229 0.6221339 -7.977646
v -20.357082 0.32863992 0.0039596558
v -20.725998 1.5530559 0.0039596558
v -20.725998 1.553058 -7.977646
v -20.357082 0.25003546 -7.977646
v -20.357082 0.25003338 0.0039596558
v -21.171432 1.5530559 0.0039596558
v -20.948713 1.553058 -7.977646
v -20.948713 1.5530559 0.0039596558
v -21.171432 1.553058 -7.977646
v -20.725998 1.553058 -7.977646
v -20.725998 1.5530559 0.0039596558
vn -0.0 1.0 0.0
vn -0.0 1.0 0.0
vn -0.0 1.0 0.0
vn -0.0 1.0 0.0
vn -0.0 1.0 0.0
vn -0.0 1.0 0.0
vn -0.0 1.0 0.0
vn -0.0 1.0 0.0
vn -0.0 1.0 0.0
vn -0.0 1.0 0.0
vn -0.0 1.0 0.0
vn -0.0 1.0 0.0
vn -0.0 1.0 0.0
vn -0.0 1.0 0.0
vn -0.0 1.0 0.0
vn -0.0 1.0 0.0
vn -0.0 1.0 0.0
vn -0.0 1.0 0.0
vn -0.0 1.0 0.0
vn -0.0 1.0 0.0
vn -0.0 1.0 0.0
vn -0.0 1.0 0.0
vn -0.0 1.0 0.0
vn -0.0 1.0 0.0
vn -0.0 1.0 0.0
vn -0.0 1.0 0.0
vn 1.0 0.0 0.0
vn 1.0 0.0 0.0
vn 1.0 0.0 0.0
vn 1.0 0.0 0.0
vn -0.0 1.0 0.0
vn -0.0 1.0 0.0
vn -0.0 1.0 0.0
vn -0.0 1.0 0.0
vn -0.0 1.0 0.0
vn -0.0 1.0 0.0
vn -0.0 1.0 0.0
vn -0.0 1.0 0.0
vn -0.0 1.0 0.0
vn -0.0 1.0 0.0
vn -0.0 1.0 0.0
vn -0.0 1.0 0.0
vn -0.0 1.0 0.0
vn -0.0 1.0 0.0
vn -0.0 1.0 0.0
vn -0.0 1.0 0.0
vn -0.0 1.0 0.0
vn -0.0 1.0 0.0
vn -0.0 1.0 0.0
vn -0.0 1.0 0.0
vn -0.0 1.0 0.0
vn -0.0 1.0 0.0
vn -0.0 1.0 0.0
vn -0.0 1.0 0.0
vn -0.0 1.0 0.0
vn -0.0 1.0 0.0
vn -0.0 1.0 0.0
vn -0.0 1.0 0.0
vn -0.0 1.0 0.0
vn -0.0 1.0 0.0
vn -0.0 1.0 0.0
vn -0.0 1.0 0.0
vn -0.0 1.0 0.0
vn -0.0 1.0 0.0
vn -1.0 0.0 0.0
vn -1.0 0.0 0.0
vn -1.0 0.0 0.0
vn -1.0 0.0 0.0
vn -0.0 1.0 0.0
vn -0.0 1.0 0.0
vn -0.0 1.0 0.0
vn -0.0 1.0 0.0
vn -0.0 1.0 0.0
vn -0.0 1.0 0.0
vn -0.0 1.0 0.0
vn -0.0 1.0 0.0
vn -0.0 0.0 -1.0
vn -0.0 1.625537E-5 -1.0
vn -0.0 0.0 -1.0
vn -1.1469708E-5 0.0 -1.0
vn -0.0 1.3837157E-5 -1.0
vn -0.0 1.6391015E-5 -1.0
vn -0.0 0.0 -1.0
vn -0.0 0.0 -1.0
vn -0.0 1.6391024E-5 -1.0
vn -0.0 0.0 1.0
vn -0.0 0.0 1.0
vn -0.0 0.0 1.0
vn -0.0 0.0 1.0
vn -0.0 0.0 1.0
vn -0.0 0.0 1.0
vn -0.0 0.0 1.0
vn -0.0 0.0 1.0
vn -0.0 0.0 1.0
vn -0.9073088 0.42046493 0.0
vn -0.9230132 0.38476825 0.0
vn -0.9230134 0.38476774 0.0
vn -0.9073088 0.42046472 0.0
vn -0.6789982 0.73414 0.0
vn -0.67899776 0.7341404 0.0
vn -1.0 0.0 0.0
vn -1.0 0.0 0.0
vn 0.9230158 0.3847623 0.0
vn 0.9073098 0.42046273 0.0
vn 0.90731 0.42046237 0.0
vn 0.92301595 0.38476166 0.0
vn 0.67899555 0.73414236 0.0
vn 0.67899454 0.73414326 0.0
vn 1.0 0.0 0.0
vn 1.0 0.0 0.0
vn -0.67899776 0.7341404 0.0
vn -0.0 1.0 0.0
vn -0.0 1.0 0.0
vn -0.6789982 0.73414 0.0
vn 0.67899454 0.73414326 0.0
vn 0.67899555 0.73414236 0.0
vt -1.2334899 0.31513965
vt -1.3136752 0.31030244
vt -1.2331494 0.31030315
vt -1.3140562 0.31514043
vt -0.2531088 0.06178707
vt -0.37070403 0.0058909655
vt -0.2531088 0.005812824
vt -0.37070403 0.06186527
vt -0.2531088 0.11751628
vt -0.37070403 0.11759442
vt -3.8057444 0.44190347
vt -4.076207 0.43341017
vt -3.8057444 0.43341017
vt -4.076207 0.44190347
vt -2.2145097 0.8745301
vt -2.0371733 0.93504363
vt -2.2147777 0.9350093
vt -2.036957 0.8745517
vt -0.25463223 0.11952692
vt -0.37214902 0.059808612
vt -0.25463223 0.05988735
vt -0.37214902 0.1194644
vt 6.037633 0.8757351
vt 6.283489 0.93776864
vt 6.038205 0.9377626
vt 6.2829747 0.87572896
vt 2.5626483 1.8906565
vt 2.3154259 1.8828268
vt 2.5626483 1.8828268
vt 2.3154259 1.8906565
vt -3.8057444 0.44190347
vt -4.076207 0.43341017
vt -4.076207 0.44190347
vt -3.8057444 0.43341017
vt 6.037633 0.8757351
vt 6.283489 0.93776864
vt 6.2829747 0.87572896
vt 6.038205 0.9377626
vt 0.46203196 0.8759472
vt 0.628273 0.89657587
vt 0.46203196 0.8965758
vt 0.628273 0.87594724
vt -0.25463223 0.11952692
vt -0.37214902 0.059808612
vt -0.25463223 0.05988735
vt -0.37214902 0.1194644
vt -1.2334899 0.31513965
vt -1.3136752 0.31030244
vt -1.2331494 0.31030315
vt -1.3140562 0.31514043
vt -0.2531088 0.06178707
vt -0.37070403 0.0058909655
vt -0.2531088 0.005812824
vt -0.37070403 0.06186527
vt -0.2531088 0.11751628
vt -0.37070403 0.11759442
vt -2.2145097 0.8745301
vt -2.0371733 0.93504363
vt -2.2147777 0.9350093
vt -2.036957 0.8745517
vt -0.25463223 0.11952692
vt -0.37214902 0.059808612
vt -0.25463223 0.05988735
vt -0.37214902 0.1194644
vt 2.5626483 1.8906565
vt 2.3154259 1.8828268
vt 2.5626483 1.8828268
vt 2.3154259 1.8906565
vt -0.25463223 0.11952692
vt -0.37214902 0.059808612
vt -0.25463223 0.05988735
vt -0.37214902 0.1194644
vt 0.6282731 0.876188
vt 0.46203208 0.8968166
vt 0.46203208 0.876188
vt 0.6282731 0.8968166
vt 0.68161345 0.8709777
vt 0.65231603 0.8590957
vt 0.6424019 0.8709059
vt 0.6720035 0.859066
vt 0.6575331 0.820617
vt 0.66211134 0.82136905
vt 0.68160117 0.8740444
vt 0.6424066 0.87414736
vt 0.6697488 0.8214009
vt 0.560914 0.87414736
vt 0.52167445 0.87096894
vt 0.52167445 0.87414736
vt 0.5609281 0.870986
vt 0.551196 0.85909903
vt 0.5315316 0.8590925
vt 0.5489161 0.8214599
vt 0.54133785 0.8214856
vt 0.5337267 0.8214876
vt 0.13839273 0.85597765
vt 0.313055 0.87003183
vt 0.13839273 0.87003183
vt 0.313055 0.85597765
vt 0.13839273 0.81139934
vt 0.313055 0.81139934
vt 0.313055 0.873796
vt 0.13839273 0.873796
vt -1.2628057 0.87047756
vt -1.437468 0.85642326
vt -1.2628057 0.8564233
vt -1.437468 0.87047756
vt -1.437468 0.81184506
vt -1.2628057 0.81184506
vt -1.2628057 0.87424165
vt -1.437468 0.87424165
vt -1.437468 0.8297745
vt -1.2628057 0.82103264
vt -1.437468 0.8210326
vt -1.2628057 0.8297745
vt -1.2628057 0.81184506
vt -1.437468 0.81229085

g Four_Lane_8m
s 1
usemtl Four_Lane_8m
f 3/3/3 2/2/2 1/1/1 
f 4/4/4 1/1/1 2/2/2 
f 7/7/7 6/6/6 5/5/5 
f 8/8/8 5/5/5 6/6/6 
f 5/5/5 8/8/8 9/9/9 
f 10/10/10 9/9/9 8/8/8 
f 13/13/13 12/12/12 11/11/11 
f 14/14/14 11/11/11 12/12/12 
f 17/17/17 16/16/16 15/15/15 
f 18/18/18 15/15/15 16/16/16 
f 21/21/21 20/20/20 19/19/19 
f 22/22/22 19/19/19 20/20/20 
f 25/25/25 24/24/24 23/23/23 
f 26/26/26 23/23/23 24/24/24 
f 29/29/29 28/28/28 27/27/27 
f 30/30/30 27/27/27 28/28/28 
f 33/33/33 32/32/32 31/31/31 
f 34/34/34 31/31/31 32/32/32 
f 37/37/37 36/36/36 35/35/35 
f 38/38/38 35/35/35 36/36/36 
f 41/41/41 40/40/40 39/39/39 
f 42/42/42 39/39/39 40/40/40 
f 45/45/45 44/44/44 43/43/43 
f 46/46/46 43/43/43 44/44/44 
f 49/49/49 48/48/48 47/47/47 
f 50/50/50 47/47/47 48/48/48 
f 53/53/53 52/52/52 51/51/51 
f 54/54/54 51/51/51 52/52/52 
f 51/51/51 54/54/54 55/55/55 
f 56/56/56 55/55/55 54/54/54 
f 59/59/59 58/58/58 57/57/57 
f 60/60/60 57/57/57 58/58/58 
f 63/63/63 62/62/62 61/61/61 
f 64/64/64 61/61/61 62/62/62 
f 67/67/67 66/66/66 65/65/65 
f 68/68/68 65/65/65 66/66/66 
f 71/71/71 70/70/70 69/69/69 
f 72/72/72 69/69/69 70/70/70 
f 75/75/75 74/74/74 73/73/73 
f 76/76/76 73/73/73 74/74/74 
f 79/79/79 78/78/78 77/77/77 
f 80/80/80 77/77/77 78/78/78 
f 78/78/78 81/81/81 80/80/80 
f 82/82/82 80/80/80 81/81/81 
f 77/77/77 83/83/83 79/79/79 
f 84/84/84 79/79/79 83/83/83 
f 80/80/80 82/82/82 85/85/85 
f 88/88/88 87/87/87 86/86/86 
f 89/89/89 86/86/86 87/87/87 
f 89/89/89 87/87/87 90/90/90 
f 91/91/91 90/90/90 87/87/87 
f 90/90/90 91/91/91 92/92/92 
f 93/93/93 92/92/92 91/91/91 
f 91/91/91 94/94/94 93/93/93 
f 97/97/97 96/96/96 95/95/95 
f 98/98/98 95/95/95 96/96/96 
f 95/95/95 98/98/98 99/99/99 
f 100/100/100 99/99/99 98/98/98 
f 96/96/96 97/97/97 101/101/101 
f 102/102/102 101/101/101 97/97/97 
f 105/105/105 104/104/104 103/103/103 
f 106/106/106 103/103/103 104/104/104 
f 104/104/104 105/105/105 107/107/107 
f 108/108/108 107/107/107 105/105/105 
f 103/103/103 106/106/106 109/109/109 
f 110/110/110 109/109/109 106/106/106 
f 113/113/113 112/112/112 111/111/111 
f 114/114/114 111/111/111 112/112/112 
f 112/112/112 113/113/113 115/115/115 
f 116/116/116 115/115/115 113/113/113 

