# Created by DisUnity v0.3.4
v -4.7163143 1.5445023 -0.22622915
v 4.716339 1.9202414 -0.5190056
v -4.7163143 1.9202423 -0.51900417
v 4.716339 1.5445023 -0.22623058
v 4.716339 1.1687632 -0.5190055
v -4.7163143 1.1687632 -0.51900405
v -4.7163143 0.79302406 -0.22622903
v 4.716339 0.79302406 -0.22623046
v 4.716339 2.2959805 -0.2262307
v -4.7163143 2.2959805 -0.22622928
v 4.716339 1.5445023 -0.10599407
v -4.7163143 1.9202423 -0.39876768
v 4.716339 1.9202414 -0.3987691
v -4.7163143 1.5445023 -0.10599265
v -4.7163143 2.2220783 -0.13138558
v 4.716339 2.2220783 -0.131387
v 4.716339 0.86692524 -0.13138679
v -4.7163143 1.1687632 -0.39876756
v 4.716339 1.1687632 -0.398769
v -4.7163143 0.86692524 -0.1313854
v 4.716339 1.5445023 -0.10599407
v -4.7163143 1.5445023 -0.10599265
v -4.7163143 1.5445023 -0.10599265
v -4.7163143 1.9202423 -0.51900417
v -4.7163143 1.9202423 -0.39876768
v -4.7163143 1.5445023 -0.22622915
v -4.7163143 1.1687632 -0.39876756
v -4.7163143 1.1687632 -0.51900405
v -4.7163143 0.86692524 -0.1313854
v -4.7163143 0.79302406 -0.22622903
v -4.7163143 2.2959805 -0.22622928
v -4.7163143 2.2220783 -0.13138558
v 4.716339 0.86692524 -0.13138679
v -4.7163143 0.79302406 -0.22622903
v -4.7163143 0.86692524 -0.1313854
v 4.716339 0.79302406 -0.22623046
v -4.7163143 2.2220783 -0.13138558
v 4.716339 2.2959805 -0.2262307
v 4.716339 2.2220783 -0.131387
v -4.7163143 2.2959805 -0.22622928
v 4.716339 1.5445023 -0.10599407
v 4.716339 1.9202414 -0.5190056
v 4.716339 1.5445023 -0.22623058
v 4.716339 1.9202414 -0.3987691
v 4.716339 1.1687632 -0.398769
v 4.716339 1.1687632 -0.5190055
v 4.716339 0.86692524 -0.13138679
v 4.716339 0.79302406 -0.22623046
v 4.716339 2.2959805 -0.2262307
v 4.716339 2.2220783 -0.131387
v 0.3055229 2.4554548 -0.13138877
v -0.30548516 2.4554548 0.5190423
v -0.30548528 2.4554548 -0.13138868
v 0.305523 2.4554548 0.5190422
v 0.3055229 -1.9741058E-4 -0.13138819
v -0.30548528 2.4554548 -0.13138868
v -0.30548528 -1.9741058E-4 -0.1313881
v 0.3055229 2.4554548 -0.13138877
v -0.30548528 -1.9741058E-4 -0.1313881
v -0.30548516 2.4554548 0.5190423
v -0.30548516 -1.9741058E-4 0.5190429
v -0.30548528 2.4554548 -0.13138868
v -0.30548516 -1.9741058E-4 0.5190429
v 0.305523 2.4554548 0.5190422
v 0.305523 -1.9741058E-4 0.5190428
v -0.30548516 2.4554548 0.5190423
v 0.305523 -1.9741058E-4 0.5190428
v 0.3055229 2.4554548 -0.13138877
v 0.3055229 -1.9741058E-4 -0.13138819
v 0.305523 2.4554548 0.5190422
vn -0.0 0.0 -1.0
vn -0.0 0.0 -1.0
vn -0.0 0.0 -1.0
vn -0.0 0.0 -1.0
vn -0.0 0.0 -1.0
vn -0.0 0.0 -1.0
vn -0.0 -0.6146382 -0.7888091
vn -0.0 -0.61463827 -0.7888091
vn -0.0 0.9923872 -0.123157226
vn -0.0 0.9923873 -0.12315643
vn -0.0 0.0 1.0
vn -0.0 -0.031503193 0.9995036
vn -0.0 -0.031502426 0.99950373
vn -0.0 0.0 1.0
vn -0.0 0.09183258 0.99577445
vn -0.0 0.09183357 0.99577445
vn -0.0 0.6630908 0.74853885
vn -0.0 0.03150145 0.99950373
vn -0.0 0.031501483 0.99950373
vn -0.0 0.6630909 0.748539
vn -0.0 0.0 1.0
vn -0.0 0.0 1.0
vn -1.0 0.0 0.0
vn -1.0 0.0 0.0
vn -1.0 0.0 0.0
vn -1.0 0.0 0.0
vn -1.0 0.0 0.0
vn -1.0 0.0 0.0
vn -1.0 0.0 0.0
vn -1.0 0.0 0.0
vn -1.0 0.0 0.0
vn -1.0 0.0 0.0
vn -0.0 -0.7888122 0.61463416
vn -0.0 -0.78881216 0.61463434
vn -0.0 -0.78881216 0.6146343
vn -0.0 -0.78881234 0.6146342
vn -0.0 0.09183258 0.99577445
vn -0.0 0.9923872 -0.123157226
vn -0.0 0.09183357 0.99577445
vn -0.0 0.9923873 -0.12315643
vn 1.0 0.0 0.0
vn 1.0 0.0 0.0
vn 1.0 0.0 0.0
vn 1.0 0.0 0.0
vn 1.0 0.0 0.0
vn 1.0 0.0 0.0
vn 1.0 0.0 0.0
vn 1.0 0.0 0.0
vn 1.0 0.0 0.0
vn 1.0 0.0 0.0
vn -0.0 1.0 0.0
vn -0.0 1.0 0.0
vn -0.0 1.0 0.0
vn -0.0 1.0 0.0
vn -0.0 0.0 -1.0
vn -0.0 0.0 -1.0
vn -0.0 0.0 -1.0
vn -0.0 0.0 -1.0
vn -1.0 0.0 0.0
vn -1.0 0.0 0.0
vn -1.0 0.0 0.0
vn -1.0 0.0 0.0
vn -0.0 0.0 1.0
vn -0.0 0.0 1.0
vn -0.0 0.0 1.0
vn -0.0 0.0 1.0
vn 1.0 0.0 0.0
vn 1.0 0.0 0.0
vn 1.0 0.0 0.0
vn 1.0 0.0 0.0
vt 0.3328412 0.9682945
vt 8.8256417E-4 0.9536883
vt 0.3328412 0.9536883
vt 8.8251755E-4 0.9682945
vt 8.8251755E-4 0.98291266
vt 0.3328412 0.98291266
vt 0.3328412 0.99447817
vt 8.8251755E-4 0.99447817
vt 8.8256417E-4 0.9421108
vt 0.3328412 0.9421108
vt 0.49882057 0.98505074
vt 0.16686194 0.97042054
vt 0.49882057 0.97042054
vt 0.16686194 0.98505074
vt 0.16686194 0.958867
vt 0.49882057 0.958867
vt 0.49882057 0.9818319
vt 0.16686194 0.97026634
vt 0.49882057 0.97026634
vt 0.16686194 0.9818319
vt 0.49882057 0.9556482
vt 0.16686194 0.9556482
vt 0.4935881 0.96829355
vt 0.49082357 0.9536883
vt 0.4935881 0.9539232
vt 0.49082357 0.9682945
vt 0.4935881 0.98267585
vt 0.49082357 0.98291266
vt 0.4935881 0.99447817
vt 0.49082357 0.99447817
vt 0.49082357 0.9421108
vt 0.4935881 0.9421108
vt 8.8251755E-4 0.9983134
vt 0.3328412 0.99447817
vt 0.3328412 0.99831337
vt 8.8251755E-4 0.99447817
vt 0.33284122 0.938503
vt 8.8256417E-4 0.9421108
vt 8.8256417E-4 0.938503
vt 0.3328412 0.9421108
vt 0.4935881 0.96829355
vt 0.49082357 0.9536883
vt 0.49082357 0.9682945
vt 0.4935881 0.9539232
vt 0.4935881 0.98267585
vt 0.49082357 0.98291266
vt 0.4935881 0.99447817
vt 0.49082357 0.99447817
vt 0.49082357 0.9421108
vt 0.4935881 0.9421108
vt 0.5924763 0.9393974
vt 0.62342715 0.96847236
vt 0.5924763 0.96847236
vt 0.62342715 0.9393974
vt 0.5010857 0.9698892
vt 0.6246608 0.9992955
vt 0.5010857 0.9992955
vt 0.6246608 0.9698892
vt 0.5010857 0.9385856
vt 0.6246608 0.9698892
vt 0.5010857 0.9698892
vt 0.6246608 0.9385856
vt 0.5010857 0.9698892
vt 0.6246608 0.9992955
vt 0.5010857 0.9992955
vt 0.6246608 0.9698892
vt 0.5010857 0.93858564
vt 0.6246608 0.9698892
vt 0.5010857 0.9698892
vt 0.6246608 0.93858564

g Guard_Rail_Segment
s 1
usemtl Guard_Rail_Segment
f 3/3/3 2/2/2 1/1/1 
f 4/4/4 1/1/1 2/2/2 
f 4/4/4 5/5/5 1/1/1 
f 6/6/6 1/1/1 5/5/5 
f 6/6/6 5/5/5 7/7/7 
f 8/8/8 7/7/7 5/5/5 
f 2/2/2 3/3/3 9/9/9 
f 10/10/10 9/9/9 3/3/3 
f 13/13/13 12/12/12 11/11/11 
f 14/14/14 11/11/11 12/12/12 
f 12/12/12 13/13/13 15/15/15 
f 16/16/16 15/15/15 13/13/13 
f 19/19/19 18/18/18 17/17/17 
f 20/20/20 17/17/17 18/18/18 
f 19/19/19 21/21/21 18/18/18 
f 22/22/22 18/18/18 21/21/21 
f 25/25/25 24/24/24 23/23/23 
f 26/26/26 23/23/23 24/24/24 
f 23/23/23 26/26/26 27/27/27 
f 28/28/28 27/27/27 26/26/26 
f 27/27/27 28/28/28 29/29/29 
f 30/30/30 29/29/29 28/28/28 
f 24/24/24 25/25/25 31/31/31 
f 32/32/32 31/31/31 25/25/25 
f 35/35/35 34/34/34 33/33/33 
f 36/36/36 33/33/33 34/34/34 
f 39/39/39 38/38/38 37/37/37 
f 40/40/40 37/37/37 38/38/38 
f 43/43/43 42/42/42 41/41/41 
f 44/44/44 41/41/41 42/42/42 
f 41/41/41 45/45/45 43/43/43 
f 46/46/46 43/43/43 45/45/45 
f 45/45/45 47/47/47 46/46/46 
f 48/48/48 46/46/46 47/47/47 
f 42/42/42 49/49/49 44/44/44 
f 50/50/50 44/44/44 49/49/49 
f 53/53/53 52/52/52 51/51/51 
f 54/54/54 51/51/51 52/52/52 
f 57/57/57 56/56/56 55/55/55 
f 58/58/58 55/55/55 56/56/56 
f 61/61/61 60/60/60 59/59/59 
f 62/62/62 59/59/59 60/60/60 
f 65/65/65 64/64/64 63/63/63 
f 66/66/66 63/63/63 64/64/64 
f 69/69/69 68/68/68 67/67/67 
f 70/70/70 67/67/67 68/68/68 

