# Created by DisUnity v0.3.4
v -4.4108663 1.5445015 -0.22622809
v 5.0217896 1.9202422 -0.51900345
v -4.4108667 1.9202406 -0.51900315
v 5.02179 1.5445031 -0.22622845
v 5.02179 1.168764 -0.51900333
v -4.4108663 1.1687624 -0.51900303
v -4.4108663 0.7930233 -0.22622795
v 5.02179 0.79302496 -0.22622833
v 5.0217896 2.2959814 -0.22622858
v -4.4108667 2.2959797 -0.2262282
v 5.0217896 1.5445031 -0.10599194
v -4.4108667 1.9202406 -0.39876664
v 5.0217896 1.9202422 -0.39876702
v -4.4108667 1.5445015 -0.10599158
v -4.4108667 2.2220767 -0.1313845
v 5.0217896 2.2220793 -0.1313849
v 5.02179 0.86692613 -0.13138467
v -4.4108663 1.1687624 -0.39876652
v 5.02179 1.168764 -0.39876688
v -4.4108663 0.8669235 -0.13138431
v 5.0217896 1.5445031 -0.10599194
v -4.4108667 1.5445015 -0.10599158
v 5.02179 0.86692613 -0.13138467
v -4.4108663 0.7930233 -0.22622795
v -4.4108663 0.8669235 -0.13138431
v 5.02179 0.79302496 -0.22622833
v -4.4108667 2.2220767 -0.1313845
v 5.0217896 2.2959814 -0.22622858
v 5.0217896 2.2220793 -0.1313849
v -4.4108667 2.2959797 -0.2262282
v 0.6109734 2.4554548 -0.13138714
v -3.491196E-5 2.4554548 0.5190439
v -3.4738627E-5 2.4554548 -0.13138711
v 0.6109733 2.4554548 0.5190439
v 0.61097383 -1.9730376E-4 -0.13138656
v -3.4738627E-5 2.4554548 -0.13138711
v -3.430927E-5 -1.9741058E-4 -0.13138655
v 0.6109734 2.4554548 -0.13138714
v -3.430927E-5 -1.9741058E-4 -0.13138655
v -3.491196E-5 2.4554548 0.5190439
v -3.4482597E-5 -1.9741058E-4 0.5190445
v -3.4738627E-5 2.4554548 -0.13138711
v -3.4482597E-5 -1.9741058E-4 0.5190445
v 0.6109733 2.4554548 0.5190439
v 0.6109737 -1.9730376E-4 0.51904446
v -3.491196E-5 2.4554548 0.5190439
v 0.6109737 -1.9730376E-4 0.51904446
v 0.6109734 2.4554548 -0.13138714
v 0.61097383 -1.9730376E-4 -0.13138656
v 0.6109733 2.4554548 0.5190439
v -4.4108667 2.2959797 -0.2262282
v -4.9753156 2.355709 -0.16807704
v -4.4108667 1.9202406 -0.51900315
v -5.027072 1.9501039 -0.43941405
v -5.4872327 2.387515 0.10556706
v -5.7506986 2.0396996 0.07323039
v -5.081248 1.5444995 -0.3287038
v -5.865126 1.5444993 0.12902385
v -5.750698 1.0493002 0.07323051
v -4.4108663 1.5445015 -0.22622809
v -5.0270715 1.1388961 -0.4394139
v -5.487232 0.70148563 0.10556733
v -4.975315 0.73329073 -0.16807678
v -4.4108663 1.1687624 -0.51900303
v -4.4108663 0.7930233 -0.22622795
v -4.4108667 1.5445015 -0.10599158
v -5.3967714 1.5444994 -0.0782917
v -5.005816 1.9501039 -0.32798156
v -5.6585927 2.0396996 0.15051705
v -5.41458 2.3046112 0.16653144
v -5.7730193 1.5444994 0.20631072
v -4.4108667 1.9202406 -0.39876664
v -4.958549 2.2759333 -0.08017807
v -4.4108667 2.2220767 -0.1313845
v -4.4108663 0.8669235 -0.13138431
v -4.9585485 0.81306654 -0.08017789
v -5.0058155 1.1388961 -0.32798144
v -5.4145794 0.78438854 0.16653165
v -5.658592 1.0493002 0.1505172
v -5.3967714 1.5444994 -0.0782917
v -5.7730193 1.5444994 0.20631072
v -4.4108667 1.5445015 -0.10599158
v -4.4108663 1.1687624 -0.39876652
v -5.7506986 2.0396996 0.07323039
v -5.7730193 1.5444994 0.20631072
v -5.865126 1.5444993 0.12902385
v -5.6585927 2.0396996 0.15051705
v -5.750698 1.0493002 0.07323051
v -5.658592 1.0493002 0.1505172
v -5.487232 0.70148563 0.10556733
v -5.4145794 0.78438854 0.16653165
v -5.4872327 2.387515 0.10556706
v -5.41458 2.3046112 0.16653144
v -4.4108663 0.8669235 -0.13138431
v -4.975315 0.73329073 -0.16807678
v -4.9585485 0.81306654 -0.08017789
v -4.4108663 0.7930233 -0.22622795
v -5.4145794 0.78438854 0.16653165
v -5.487232 0.70148563 0.10556733
v -5.41458 2.3046112 0.16653144
v -4.9753156 2.355709 -0.16807704
v -4.958549 2.2759333 -0.08017807
v -5.4872327 2.387515 0.10556706
v -4.4108667 2.2959797 -0.2262282
v -4.4108667 2.2220767 -0.1313845
vn -0.01526082 0.0 -0.99988353
vn -0.0 0.0 -1.0
vn -0.05465044 -0.015075486 -0.9983917
vn -0.0 0.0 -1.0
vn -0.0 0.0 -1.0
vn -0.05465055 0.015076187 -0.9983917
vn -0.008469493 -0.6146163 -0.7887808
vn -0.0 -0.6146382 -0.7888091
vn -0.0 0.9923874 -0.12315574
vn 0.040428452 0.9880773 -0.14855592
vn -0.0 0.0 1.0
vn 0.057540417 -0.021565052 0.9981103
vn -0.0 -0.031501718 0.99950373
vn 0.051180452 0.0 0.9986895
vn 0.06324495 0.076921135 0.9950293
vn -0.0 0.091833666 0.99577445
vn -0.0 0.6630909 0.74853885
vn 0.05754046 0.021561882 0.9981103
vn -0.0 0.031501435 0.99950373
vn 0.020916054 0.6520808 0.757861
vn -0.0 0.0 1.0
vn 0.051180452 0.0 0.9986895
vn -0.0 -0.7888122 0.61463416
vn 0.072439566 -0.7867437 0.61301464
vn 0.07241573 -0.7845132 0.6158694
vn -0.0 -0.7888122 0.61463416
vn 0.06324495 0.076921135 0.9950293
vn -0.0 0.9923874 -0.12315574
vn -0.0 0.091833666 0.99577445
vn 0.040428452 0.9880773 -0.14855592
vn -0.0 1.0 0.0
vn -0.0 1.0 0.0
vn -0.0 1.0 0.0
vn -0.0 1.0 0.0
vn -0.0 0.0 -1.0
vn -0.0 0.0 -1.0
vn -0.0 0.0 -1.0
vn -0.0 0.0 -1.0
vn -1.0 0.0 0.0
vn -1.0 0.0 0.0
vn -1.0 0.0 0.0
vn -1.0 0.0 0.0
vn -0.0 0.0 1.0
vn -0.0 0.0 1.0
vn -0.0 0.0 1.0
vn -0.0 0.0 1.0
vn 1.0 0.0 0.0
vn 1.0 0.0 0.0
vn 1.0 0.0 0.0
vn 1.0 0.0 0.0
vn 0.040428452 0.9880773 -0.14855592
vn -0.0065739416 0.9782401 -0.20737205
vn -0.05465044 -0.015075486 -0.9983917
vn -0.2719201 0.11875702 -0.954964
vn -0.22577602 0.89175177 -0.3921786
vn -0.52385867 0.16937964 -0.83479494
vn -0.26713485 0.0 -0.96365917
vn -0.50425357 0.0 -0.86355567
vn -0.5238584 -0.16938049 -0.83479494
vn -0.01526082 0.0 -0.99988353
vn -0.27192014 -0.11875799 -0.95496386
vn -0.4500182 -0.47149277 -0.758405
vn -0.22505365 -0.5725641 -0.7883661
vn -0.05465055 0.015076187 -0.9983917
vn -0.008469493 -0.6146163 -0.7887808
vn 0.051180452 0.0 0.9986895
vn 0.4744444 0.0 0.88028544
vn 0.23559527 -0.100903705 0.96659887
vn 0.5596715 -0.23073977 0.79594404
vn 0.51680136 0.0919726 0.85115063
vn 0.6032732 0.0 0.79753464
vn 0.057540417 -0.021565052 0.9981103
vn 0.31211767 0.108404055 0.9438385
vn 0.06324495 0.076921135 0.9950293
vn 0.020916054 0.6520808 0.757861
vn 0.19874196 0.6113788 0.76597494
vn 0.23559561 0.100904524 0.96659863
vn 0.44240394 0.51451916 0.7345399
vn 0.5596714 0.23074032 0.795944
vn 0.4744444 0.0 0.88028544
vn 0.6032732 0.0 0.79753464
vn 0.051180452 0.0 0.9986895
vn 0.05754046 0.021561882 0.9981103
vn -0.6153731 0.28894398 0.7333672
vn -0.64278847 0.0 0.76604384
vn -0.642788 0.0 0.7660441
vn -0.5913465 0.3156211 0.7420867
vn -0.61537296 -0.28894454 0.733367
vn -0.5913466 -0.31562185 0.7420863
vn -0.42705727 -0.31971043 0.84581757
vn -0.38584518 -0.30272308 0.87148273
vn -0.4270564 0.31970933 0.8458184
vn -0.385844 0.30272195 0.8714837
vn 0.07241573 -0.7845132 0.6158694
vn 0.24848287 -0.7437746 0.6205285
vn 0.25234768 -0.739998 0.62347716
vn 0.072439566 -0.7867437 0.61301464
vn 0.3554348 -0.7340148 0.5786955
vn 0.3544394 -0.7353621 0.57759446
vn 0.51680136 0.0919726 0.85115063
vn -0.0065739416 0.9782401 -0.20737205
vn 0.31211767 0.108404055 0.9438385
vn -0.22577602 0.89175177 -0.3921786
vn 0.040428452 0.9880773 -0.14855592
vn 0.06324495 0.076921135 0.9950293
vt 0.3328412 0.9682945
vt 8.8256417E-4 0.9536883
vt 0.3328412 0.9536883
vt 8.8251755E-4 0.9682945
vt 8.8251755E-4 0.98291266
vt 0.3328412 0.98291266
vt 0.3328412 0.99447817
vt 8.8251755E-4 0.99447817
vt 8.8256417E-4 0.9421108
vt 0.3328412 0.9421108
vt 0.49882057 0.98505074
vt 0.16686194 0.97042054
vt 0.49882057 0.97042054
vt 0.16686194 0.98505074
vt 0.16686194 0.958867
vt 0.49882057 0.958867
vt 0.49882057 0.9818319
vt 0.16686194 0.97026634
vt 0.49882057 0.97026634
vt 0.16686194 0.9818319
vt 0.49882057 0.9556482
vt 0.16686194 0.9556482
vt 8.8251755E-4 0.9983134
vt 0.3328412 0.99447817
vt 0.3328412 0.99831337
vt 8.8251755E-4 0.99447817
vt 0.33284122 0.938503
vt 8.8256417E-4 0.9421108
vt 8.8256417E-4 0.938503
vt 0.3328412 0.9421108
vt 0.5924763 0.9393974
vt 0.62342715 0.96847236
vt 0.5924763 0.96847236
vt 0.62342715 0.9393974
vt 0.5010857 0.9698892
vt 0.6246608 0.9992955
vt 0.5010857 0.9992955
vt 0.6246608 0.9698892
vt 0.5010857 0.9385856
vt 0.6246608 0.9698892
vt 0.5010857 0.9698892
vt 0.6246608 0.9385856
vt 0.5010857 0.9698892
vt 0.6246608 0.9992955
vt 0.5010857 0.9992955
vt 0.6246608 0.9698892
vt 0.5010857 0.93858564
vt 0.6246608 0.9698892
vt 0.5010857 0.9698892
vt 0.6246608 0.93858564
vt 8.8256417E-4 0.9421108
vt 0.019970194 0.9421108
vt 8.8256417E-4 0.9536883
vt 0.019970194 0.9536883
vt 0.03905782 0.9421108
vt 0.03905782 0.9536883
vt 0.019970141 0.9682945
vt 0.039057765 0.9682945
vt 0.03905776 0.98291266
vt 8.8251755E-4 0.9682945
vt 0.01997014 0.98291266
vt 0.039057765 0.99447817
vt 0.019970141 0.99447817
vt 8.8251755E-4 0.98291266
vt 8.8251755E-4 0.99447817
vt 0.49882057 0.98505074
vt 0.47973293 0.98505074
vt 0.47973293 0.97042054
vt 0.46064532 0.97042054
vt 0.46064532 0.958867
vt 0.46064532 0.98505074
vt 0.49882057 0.97042054
vt 0.47973293 0.958867
vt 0.49882057 0.958867
vt 0.49882057 0.9818319
vt 0.47973293 0.9818319
vt 0.47973293 0.97026634
vt 0.46064532 0.9818319
vt 0.46064532 0.97026634
vt 0.47973293 0.9556482
vt 0.46064532 0.9556482
vt 0.49882057 0.9556482
vt 0.49882057 0.97026634
vt 0.49082357 0.9536883
vt 0.4935881 0.96829355
vt 0.49082357 0.9682945
vt 0.4935881 0.9539232
vt 0.49082357 0.98291266
vt 0.4935881 0.98267585
vt 0.49082357 0.99447817
vt 0.4935881 0.99447817
vt 0.49082357 0.9421108
vt 0.4935881 0.9421108
vt 8.8251755E-4 0.9983134
vt 0.019970141 0.99447817
vt 0.01997014 0.9983134
vt 8.8251755E-4 0.99447817
vt 0.03905776 0.9983134
vt 0.039057765 0.99447817
vt 0.03905781 0.938503
vt 0.019970194 0.9421108
vt 0.019970186 0.938503
vt 0.03905782 0.9421108
vt 8.8256417E-4 0.9421108
vt 8.8256417E-4 0.938503

g GuardRail_End
s 1
usemtl GuardRail_End
f 3/3/3 2/2/2 1/1/1 
f 4/4/4 1/1/1 2/2/2 
f 4/4/4 5/5/5 1/1/1 
f 6/6/6 1/1/1 5/5/5 
f 6/6/6 5/5/5 7/7/7 
f 8/8/8 7/7/7 5/5/5 
f 2/2/2 3/3/3 9/9/9 
f 10/10/10 9/9/9 3/3/3 
f 13/13/13 12/12/12 11/11/11 
f 14/14/14 11/11/11 12/12/12 
f 12/12/12 13/13/13 15/15/15 
f 16/16/16 15/15/15 13/13/13 
f 19/19/19 18/18/18 17/17/17 
f 20/20/20 17/17/17 18/18/18 
f 19/19/19 21/21/21 18/18/18 
f 22/22/22 18/18/18 21/21/21 
f 25/25/25 24/24/24 23/23/23 
f 26/26/26 23/23/23 24/24/24 
f 29/29/29 28/28/28 27/27/27 
f 30/30/30 27/27/27 28/28/28 
f 33/33/33 32/32/32 31/31/31 
f 34/34/34 31/31/31 32/32/32 
f 37/37/37 36/36/36 35/35/35 
f 38/38/38 35/35/35 36/36/36 
f 41/41/41 40/40/40 39/39/39 
f 42/42/42 39/39/39 40/40/40 
f 45/45/45 44/44/44 43/43/43 
f 46/46/46 43/43/43 44/44/44 
f 49/49/49 48/48/48 47/47/47 
f 50/50/50 47/47/47 48/48/48 
f 53/53/53 52/52/52 51/51/51 
f 54/54/54 52/52/52 53/53/53 
f 55/55/55 52/52/52 54/54/54 
f 56/56/56 55/55/55 54/54/54 
f 54/54/54 57/57/57 56/56/56 
f 57/57/57 58/58/58 56/56/56 
f 57/57/57 59/59/59 58/58/58 
f 60/60/60 57/57/57 54/54/54 
f 53/53/53 60/60/60 54/54/54 
f 60/60/60 61/61/61 57/57/57 
f 61/61/61 59/59/59 57/57/57 
f 61/61/61 62/62/62 59/59/59 
f 63/63/63 62/62/62 61/61/61 
f 64/64/64 63/63/63 61/61/61 
f 64/64/64 61/61/61 60/60/60 
f 65/65/65 63/63/63 64/64/64 
f 68/68/68 67/67/67 66/66/66 
f 69/69/69 67/67/67 68/68/68 
f 68/68/68 70/70/70 69/69/69 
f 71/71/71 67/67/67 69/69/69 
f 72/72/72 68/68/68 66/66/66 
f 73/73/73 70/70/70 68/68/68 
f 74/74/74 73/73/73 68/68/68 
f 72/72/72 74/74/74 68/68/68 
f 77/77/77 76/76/76 75/75/75 
f 78/78/78 76/76/76 77/77/77 
f 79/79/79 78/78/78 77/77/77 
f 79/79/79 77/77/77 80/80/80 
f 81/81/81 79/79/79 80/80/80 
f 80/80/80 77/77/77 82/82/82 
f 82/82/82 77/77/77 83/83/83 
f 83/83/83 77/77/77 75/75/75 
f 86/86/86 85/85/85 84/84/84 
f 87/87/87 84/84/84 85/85/85 
f 86/86/86 88/88/88 85/85/85 
f 89/89/89 85/85/85 88/88/88 
f 88/88/88 90/90/90 89/89/89 
f 91/91/91 89/89/89 90/90/90 
f 84/84/84 87/87/87 92/92/92 
f 93/93/93 92/92/92 87/87/87 
f 96/96/96 95/95/95 94/94/94 
f 97/97/97 94/94/94 95/95/95 
f 96/96/96 98/98/98 95/95/95 
f 99/99/99 95/95/95 98/98/98 
f 102/102/102 101/101/101 100/100/100 
f 103/103/103 100/100/100 101/101/101 
f 101/101/101 102/102/102 104/104/104 
f 105/105/105 104/104/104 102/102/102 

