# Created by DisUnity v0.3.4
v -0.0 1.0 0.0
v -0.077607 0.96795 -0.238853
v 0.203181 0.96795 -0.147618
v -0.251147 0.967949 0.0
v -0.077607 0.96795 0.238853
v 0.203181 0.96795 0.147618
v 0.138199 0.894429 -0.425321
v -0.162456 0.850654 -0.499995
v 0.05279 0.723612 -0.688185
v -0.232822 0.657519 -0.716563
v -0.029639 0.502302 -0.864184
v -0.276388 0.44722 -0.850649
v -0.155215 0.251151 -0.955422
v -0.436007 0.251152 -0.864188
v 0.262869 0.525738 -0.809012
v 0.361805 0.723611 -0.587779
v 0.531941 0.502302 -0.681712
v 0.425323 0.850654 -0.309011
v 0.609547 0.657519 -0.442856
v 0.723607 0.447219 -0.525725
v 0.812729 0.502301 -0.295238
v 0.860698 0.251151 -0.442858
v 0.687159 0.251152 -0.681715
v 0.670818 0.72361 -0.162458
v 0.850648 0.525736 0.0
v 0.670817 0.723611 0.162457
v 0.812729 0.502301 0.295238
v 0.609547 0.657519 0.442856
v 0.723607 0.44722 0.525725
v 0.425323 0.850654 0.309011
v 0.447211 0.894428 -1.0E-6
v 0.531941 0.502302 0.681712
v 0.687159 0.251152 0.681715
v 0.860698 0.251151 0.442858
v 0.361803 0.723612 0.587779
v 0.138197 0.894429 0.425321
v 0.262869 0.525738 0.809012
v 0.052789 0.723611 0.688186
v -0.029639 0.502302 0.864184
v -0.162456 0.850654 0.499995
v -0.361801 0.894429 0.262862
v -0.447211 0.723612 0.525727
v -0.232822 0.657519 0.716563
v -0.483971 0.502302 0.716564
v -0.276388 0.44722 0.850649
v -0.436007 0.251152 0.864188
v -0.155215 0.251152 0.955422
v -0.688189 0.525736 0.499997
v -0.638195 0.723609 0.262863
v -0.831051 0.502299 0.238853
v -0.52573 0.850652 0.0
v -0.361801 0.894428 -0.262864
v -0.638195 0.723609 -0.262864
v -0.753442 0.657515 0.0
v -0.831051 0.502299 -0.238853
v -0.894426 0.447216 0.0
v -0.956626 0.251149 -0.147618
v -0.956626 0.251149 0.147618
v -0.688189 0.525736 -0.499997
v -0.447211 0.72361 -0.525729
v -0.483971 0.502302 -0.716565
v -0.861803 0.276396 -0.425324
v -0.951058 0.0 -0.309013
v -0.809018 0.0 -0.587783
v -0.670819 0.276397 -0.688191
v -0.587786 0.0 -0.809017
v -0.309017 0.0 -0.951056
v -0.0 0.0 -1.0
v 0.138199 0.276397 -0.951055
v 0.309017 0.0 -0.951056
v 0.447216 0.276398 -0.850648
v 0.587786 0.0 -0.809017
v 0.809019 0.0 -0.587783
v 0.951058 0.0 -0.309013
v 0.947213 0.276396 -0.162458
v 1.0 0.0 0.0
v 0.947213 0.276396 0.162458
v 0.951058 0.0 0.309013
v 0.809019 0.0 0.587782
v 0.587786 0.0 0.809017
v 0.447216 0.276398 0.850648
v 0.309017 0.0 0.951056
v 0.138199 0.276398 0.951055
v -0.0 0.0 1.0
v -0.309016 0.0 0.951057
v -0.587786 0.0 0.809017
v -0.670819 0.276397 0.688191
v -0.809018 0.0 0.587783
v -0.861803 0.276396 0.425324
v -0.951058 0.0 0.309013
v -1.0 0.0 0.0
vn -0.0 1.0 0.0
vn -0.08057053 0.9654119 -0.247968
vn 0.21094722 0.965407 -0.15326634
vn -0.26075375 0.96540534 0.0
vn -0.08057053 0.9654119 0.247968
vn 0.21094722 0.965407 0.15326634
vn 0.1406323 0.8904271 -0.43285328
vn -0.16245268 0.85065633 -0.4999929
vn 0.05920685 0.7275423 -0.6835034
vn -0.23078665 0.6649841 -0.7103053
vn -0.019837735 0.50381744 -0.8635824
vn -0.27637836 0.44722268 -0.85065085
vn -0.15021664 0.24305676 -0.9583101
vn -0.44173193 0.24305329 -0.863596
vn 0.2628661 0.5257322 -0.80901605
vn 0.3538396 0.72754717 -0.58776927
vn 0.5236525 0.5038148 -0.6869925
vn 0.42531475 0.85066 -0.30900627
vn 0.6042211 0.664985 -0.43898964
vn 0.7236064 0.44722602 -0.52572095
vn 0.8151942 0.5038084 -0.2857193
vn 0.8649965 0.24305233 -0.4389835
vn 0.68481827 0.24305417 -0.68698514
vn 0.6683425 0.7275499 -0.15488552
vn 0.8506571 0.5257209 0.0
vn 0.6683425 0.7275499 0.15488552
vn 0.8151942 0.5038084 0.2857193
vn 0.6042211 0.664985 0.43898964
vn 0.7236064 0.44722602 0.52572095
vn 0.42531475 0.85066 0.30900627
vn 0.45513093 0.8904245 0.0
vn 0.5236525 0.5038148 0.6869925
vn 0.68481827 0.24305417 0.68698514
vn 0.8649965 0.24305233 0.4389835
vn 0.3538396 0.72754717 0.58776927
vn 0.1406323 0.8904271 0.43285328
vn 0.2628661 0.5257322 0.80901605
vn 0.05920685 0.7275423 0.6835034
vn -0.019837735 0.50381744 0.8635824
vn -0.16245268 0.85065633 0.4999929
vn -0.368214 0.8904279 0.2675007
vn -0.44964275 0.72755265 0.51815885
vn -0.23078665 0.6649841 0.7103053
vn -0.49154934 0.5038183 0.7103142
vn -0.27637836 0.44722268 0.85065085
vn -0.44173193 0.24305329 0.863596
vn -0.15021664 0.24305676 0.9583101
vn -0.68818784 0.5257317 0.50000364
vn -0.6317517 0.7275522 0.2675026
vn -0.82746065 0.503807 0.24796657
vn -0.5257209 0.8506571 0.0
vn -0.368214 0.8904279 -0.2675007
vn -0.6317517 0.7275522 -0.2675026
vn -0.7468618 0.6649792 0.0
vn -0.82746065 0.503807 -0.24796657
vn -0.89443326 0.44720137 0.0
vn -0.9578289 0.24305081 -0.15326484
vn -0.9578289 0.24305081 0.15326484
vn -0.68818784 0.5257317 -0.50000364
vn -0.44964275 0.72755265 -0.51815885
vn -0.49154934 0.5038183 -0.7103142
vn -0.8593212 0.27241185 -0.43284982
vn -0.9432221 0.116857484 -0.31092817
vn -0.8023454 0.12827149 -0.5829135
vn -0.6772139 0.2724115 -0.68350077
vn -0.5871864 0.11685742 -0.8009722
vn -0.30711493 0.11044907 -0.9452414
vn 0.0042421008 0.116856135 -0.9931398
vn 0.14612739 0.2724171 -0.9510183
vn 0.30644643 0.1282735 -0.9432055
vn 0.4407661 0.27241924 -0.8552853
vn 0.58032626 0.116858765 -0.8059562
vn 0.8040598 0.11044911 -0.58419925
vn 0.9458494 0.11685782 -0.3028415
vn 0.9496324 0.27241352 -0.15488444
vn 0.9917393 0.12827057 0.0
vn 0.9496324 0.27241352 0.15488444
vn 0.9458494 0.11685782 0.3028415
vn 0.8040598 0.11044911 0.58419925
vn 0.58032626 0.116858765 0.8059562
vn 0.4407661 0.27241924 0.8552853
vn 0.30644643 0.1282735 0.9432055
vn 0.14612739 0.2724171 0.9510183
vn 0.0042421008 0.116856135 0.9931398
vn -0.30711493 0.11044907 0.9452414
vn -0.5871864 0.11685742 0.8009722
vn -0.6772139 0.2724115 0.68350077
vn -0.8023454 0.12827149 0.5829135
vn -0.8593212 0.27241185 0.43284982
vn -0.9432221 0.116857484 0.31092817
vn -0.9938818 0.11044826 0.0
vt 0.0 1.0
vt 0.0 1.0
vt 0.0 1.0
vt 0.0 1.0
vt 0.0 1.0
vt 0.0 1.0
vt 0.0 1.0
vt 0.0 1.0
vt 0.0 1.0
vt 0.0 1.0
vt 0.0 1.0
vt 0.0 1.0
vt 0.0 1.0
vt 0.0 1.0
vt 0.0 1.0
vt 0.0 1.0
vt 0.0 1.0
vt 0.0 1.0
vt 0.0 1.0
vt 0.0 1.0
vt 0.0 1.0
vt 0.0 1.0
vt 0.0 1.0
vt 0.0 1.0
vt 0.0 1.0
vt 0.0 1.0
vt 0.0 1.0
vt 0.0 1.0
vt 0.0 1.0
vt 0.0 1.0
vt 0.0 1.0
vt 0.0 1.0
vt 0.0 1.0
vt 0.0 1.0
vt 0.0 1.0
vt 0.0 1.0
vt 0.0 1.0
vt 0.0 1.0
vt 0.0 1.0
vt 0.0 1.0
vt 0.0 1.0
vt 0.0 1.0
vt 0.0 1.0
vt 0.0 1.0
vt 0.0 1.0
vt 0.0 1.0
vt 0.0 1.0
vt 0.0 1.0
vt 0.0 1.0
vt 0.0 1.0
vt 0.0 1.0
vt 0.0 1.0
vt 0.0 1.0
vt 0.0 1.0
vt 0.0 1.0
vt 0.0 1.0
vt 0.0 1.0
vt 0.0 1.0
vt 0.0 1.0
vt 0.0 1.0
vt 0.0 1.0
vt 0.0 1.0
vt 0.0 1.0
vt 0.0 1.0
vt 0.0 1.0
vt 0.0 1.0
vt 0.0 1.0
vt 0.0 1.0
vt 0.0 1.0
vt 0.0 1.0
vt 0.0 1.0
vt 0.0 1.0
vt 0.0 1.0
vt 0.0 1.0
vt 0.0 1.0
vt 0.0 1.0
vt 0.0 1.0
vt 0.0 1.0
vt 0.0 1.0
vt 0.0 1.0
vt 0.0 1.0
vt 0.0 1.0
vt 0.0 1.0
vt 0.0 1.0
vt 0.0 1.0
vt 0.0 1.0
vt 0.0 1.0
vt 0.0 1.0
vt 0.0 1.0
vt 0.0 1.0
vt 0.0 1.0

g Half_Icosphere
s 1
usemtl Half_Icosphere
f 3/3/3 2/2/2 1/1/1 
f 2/2/2 4/4/4 1/1/1 
f 4/4/4 5/5/5 1/1/1 
f 5/5/5 6/6/6 1/1/1 
f 1/1/1 6/6/6 3/3/3 
f 3/3/3 7/7/7 2/2/2 
f 7/7/7 8/8/8 2/2/2 
f 7/7/7 9/9/9 8/8/8 
f 9/9/9 10/10/10 8/8/8 
f 9/9/9 11/11/11 10/10/10 
f 11/11/11 12/12/12 10/10/10 
f 11/11/11 13/13/13 12/12/12 
f 13/13/13 14/14/14 12/12/12 
f 15/15/15 11/11/11 9/9/9 
f 16/16/16 9/9/9 7/7/7 
f 16/16/16 15/15/15 9/9/9 
f 17/17/17 15/15/15 16/16/16 
f 18/18/18 7/7/7 3/3/3 
f 18/18/18 16/16/16 7/7/7 
f 19/19/19 16/16/16 18/18/18 
f 19/19/19 17/17/17 16/16/16 
f 20/20/20 17/17/17 19/19/19 
f 19/19/19 21/21/21 20/20/20 
f 21/21/21 22/22/22 20/20/20 
f 22/22/22 23/23/23 20/20/20 
f 20/20/20 23/23/23 17/17/17 
f 19/19/19 24/24/24 21/21/21 
f 18/18/18 24/24/24 19/19/19 
f 24/24/24 25/25/25 21/21/21 
f 24/24/24 26/26/26 25/25/25 
f 26/26/26 27/27/27 25/25/25 
f 26/26/26 28/28/28 27/27/27 
f 28/28/28 29/29/29 27/27/27 
f 30/30/30 28/28/28 26/26/26 
f 31/31/31 26/26/26 24/24/24 
f 31/31/31 30/30/30 26/26/26 
f 18/18/18 31/31/31 24/24/24 
f 6/6/6 30/30/30 31/31/31 
f 3/3/3 31/31/31 18/18/18 
f 3/3/3 6/6/6 31/31/31 
f 32/32/32 29/29/29 28/28/28 
f 32/32/32 33/33/33 29/29/29 
f 33/33/33 34/34/34 29/29/29 
f 29/29/29 34/34/34 27/27/27 
f 35/35/35 28/28/28 30/30/30 
f 35/35/35 32/32/32 28/28/28 
f 36/36/36 30/30/30 6/6/6 
f 36/36/36 35/35/35 30/30/30 
f 37/37/37 32/32/32 35/35/35 
f 38/38/38 35/35/35 36/36/36 
f 38/38/38 37/37/37 35/35/35 
f 39/39/39 37/37/37 38/38/38 
f 5/5/5 36/36/36 6/6/6 
f 40/40/40 36/36/36 5/5/5 
f 40/40/40 38/38/38 36/36/36 
f 41/41/41 40/40/40 5/5/5 
f 41/41/41 42/42/42 40/40/40 
f 42/42/42 43/43/43 40/40/40 
f 43/43/43 38/38/38 40/40/40 
f 43/43/43 39/39/39 38/38/38 
f 42/42/42 44/44/44 43/43/43 
f 44/44/44 45/45/45 43/43/43 
f 45/45/45 39/39/39 43/43/43 
f 44/44/44 46/46/46 45/45/45 
f 46/46/46 47/47/47 45/45/45 
f 45/45/45 47/47/47 39/39/39 
f 48/48/48 44/44/44 42/42/42 
f 49/49/49 42/42/42 41/41/41 
f 49/49/49 48/48/48 42/42/42 
f 50/50/50 48/48/48 49/49/49 
f 4/4/4 41/41/41 5/5/5 
f 51/51/51 41/41/41 4/4/4 
f 51/51/51 49/49/49 41/41/41 
f 52/52/52 51/51/51 4/4/4 
f 52/52/52 53/53/53 51/51/51 
f 53/53/53 54/54/54 51/51/51 
f 54/54/54 49/49/49 51/51/51 
f 54/54/54 50/50/50 49/49/49 
f 53/53/53 55/55/55 54/54/54 
f 55/55/55 56/56/56 54/54/54 
f 56/56/56 50/50/50 54/54/54 
f 55/55/55 57/57/57 56/56/56 
f 57/57/57 58/58/58 56/56/56 
f 56/56/56 58/58/58 50/50/50 
f 59/59/59 55/55/55 53/53/53 
f 60/60/60 53/53/53 52/52/52 
f 60/60/60 59/59/59 53/53/53 
f 61/61/61 59/59/59 60/60/60 
f 2/2/2 52/52/52 4/4/4 
f 8/8/8 52/52/52 2/2/2 
f 8/8/8 60/60/60 52/52/52 
f 10/10/10 60/60/60 8/8/8 
f 10/10/10 61/61/61 60/60/60 
f 12/12/12 61/61/61 10/10/10 
f 55/55/55 62/62/62 57/57/57 
f 59/59/59 62/62/62 55/55/55 
f 62/62/62 63/63/63 57/57/57 
f 62/62/62 64/64/64 63/63/63 
f 65/65/65 64/64/64 62/62/62 
f 59/59/59 65/65/65 62/62/62 
f 61/61/61 65/65/65 59/59/59 
f 65/65/65 66/66/66 64/64/64 
f 14/14/14 66/66/66 65/65/65 
f 61/61/61 14/14/14 65/65/65 
f 12/12/12 14/14/14 61/61/61 
f 67/67/67 66/66/66 14/14/14 
f 13/13/13 67/67/67 14/14/14 
f 68/68/68 67/67/67 13/13/13 
f 69/69/69 68/68/68 13/13/13 
f 69/69/69 70/70/70 68/68/68 
f 71/71/71 70/70/70 69/69/69 
f 71/71/71 72/72/72 70/70/70 
f 23/23/23 72/72/72 71/71/71 
f 11/11/11 69/69/69 13/13/13 
f 15/15/15 69/69/69 11/11/11 
f 15/15/15 71/71/71 69/69/69 
f 17/17/17 71/71/71 15/15/15 
f 17/17/17 23/23/23 71/71/71 
f 73/73/73 72/72/72 23/23/23 
f 22/22/22 73/73/73 23/23/23 
f 74/74/74 73/73/73 22/22/22 
f 75/75/75 74/74/74 22/22/22 
f 75/75/75 76/76/76 74/74/74 
f 77/77/77 76/76/76 75/75/75 
f 77/77/77 78/78/78 76/76/76 
f 34/34/34 78/78/78 77/77/77 
f 21/21/21 75/75/75 22/22/22 
f 25/25/25 75/75/75 21/21/21 
f 25/25/25 77/77/77 75/75/75 
f 27/27/27 77/77/77 25/25/25 
f 27/27/27 34/34/34 77/77/77 
f 79/79/79 78/78/78 34/34/34 
f 33/33/33 79/79/79 34/34/34 
f 80/80/80 79/79/79 33/33/33 
f 81/81/81 80/80/80 33/33/33 
f 81/81/81 82/82/82 80/80/80 
f 83/83/83 82/82/82 81/81/81 
f 83/83/83 84/84/84 82/82/82 
f 47/47/47 84/84/84 83/83/83 
f 32/32/32 81/81/81 33/33/33 
f 37/37/37 81/81/81 32/32/32 
f 37/37/37 83/83/83 81/81/81 
f 39/39/39 83/83/83 37/37/37 
f 39/39/39 47/47/47 83/83/83 
f 85/85/85 84/84/84 47/47/47 
f 46/46/46 85/85/85 47/47/47 
f 86/86/86 85/85/85 46/46/46 
f 87/87/87 86/86/86 46/46/46 
f 87/87/87 88/88/88 86/86/86 
f 89/89/89 88/88/88 87/87/87 
f 89/89/89 90/90/90 88/88/88 
f 58/58/58 90/90/90 89/89/89 
f 44/44/44 87/87/87 46/46/46 
f 48/48/48 87/87/87 44/44/44 
f 48/48/48 89/89/89 87/87/87 
f 50/50/50 89/89/89 48/48/48 
f 50/50/50 58/58/58 89/89/89 
f 91/91/91 90/90/90 58/58/58 
f 57/57/57 91/91/91 58/58/58 
f 63/63/63 91/91/91 57/57/57 

