# Created by DisUnity v0.3.4
v 0.9522724 0.008519411 -9.177402
v 3.9572067 2.692803 -9.177401
v 0.9522724 4.3517556 -9.177402
v 3.9572067 0.008519411 -9.177401
v -2.4131184 0.0085196495 -9.148058
v -2.4131184 2.692803 -9.148058
v -2.4131184 0.0085196495 -4.0044904
v -2.4131184 2.692803 -9.148058
v -2.4131184 2.6928031 -6.4986753
v -2.4131184 0.0085196495 -9.148058
v -2.4131184 6.2677298 -4.004492
v -2.4131184 6.2677293 -6.498676
v 0.9522724 4.3517556 -6.528019
v -2.4131184 2.692803 -9.148058
v 0.9522724 4.3517556 -9.177402
v -2.4131184 2.6928031 -6.4986753
v 3.9572067 2.6928031 -6.5280185
v 3.9572067 0.008519411 -9.177401
v 3.9572058 0.0085196495 -4.0338335
v 3.9572067 2.692803 -9.177401
v 3.9572067 6.269968 -6.5280194
v 3.9572058 6.2699685 -4.0338345
v 3.9572058 6.269969 1.6540427
v 3.9572058 0.008520126 1.6540437
v 3.9572048 6.269969 4.7882924
v 3.9572048 0.008520126 4.7882934
v 3.9572039 6.2321987 9.1774025
v 3.9572039 0.008520126 9.1774025
v 0.93387985 8.522431 -6.5280194
v 3.9572058 6.2699685 -4.0338345
v 0.93387985 8.522431 -4.0338354
v 3.9572067 6.269968 -6.5280194
v 3.9572058 6.269969 1.6540427
v 0.93387794 8.522432 0.51622343
v 3.9572048 6.269969 4.7882924
v 0.93387794 8.522432 5.704867
v 3.9572039 6.2321987 9.1774025
v 0.0023727417 9.135612 4.7882924
v 0.9522724 4.3517556 -6.528019
v 3.9572067 6.269968 -6.5280194
v 0.93387985 8.522431 -6.5280194
v 3.9572067 2.6928031 -6.5280185
v -2.4131184 2.6928031 -6.4986753
v -2.4131184 6.2677293 -6.498676
v 0.9522705 0.008520126 9.1774025
v 0.005056381 6.2355585 9.177401
v 0.93387794 6.2348385 9.177401
v -2.4131203 6.233576 9.177401
v -2.4131203 0.008520126 9.177401
v -3.9572067 6.2321987 9.177401
v -3.9572067 0.008520126 9.177401
v 3.9572039 6.2321987 9.1774025
v 3.9572039 0.008520126 9.1774025
v -3.9572048 6.2699685 -4.033836
v -3.9572067 0.008520126 1.6540418
v -3.9572048 0.0085196495 -4.0338345
v -3.9572067 6.269969 1.6540418
v -2.4131203 0.008520126 1.6540427
v -3.9572067 6.269969 1.6540418
v -2.4131203 7.4453716 1.6540418
v -3.9572067 0.008520126 1.6540418
v -2.4131184 7.3667154 -1.8451257
v -3.9572048 6.2699685 -4.033836
v -2.4131184 6.2677298 -4.004492
v 4.5776367E-4 9.134641 1.6540427
v 0.93387794 8.522432 0.51622343
v -2.4131184 6.2677298 -4.004492
v -3.9572048 0.0085196495 -4.0338345
v -2.4131184 0.0085196495 -4.0044904
v -3.9572048 6.2699685 -4.033836
v -2.4131203 7.4453716 1.6540418
v -2.4131203 0.008520126 4.7882924
v -2.4131203 0.008520126 1.6540427
v -2.4131203 7.4453707 4.7882915
v -3.9572067 6.269969 4.7882915
v -3.9572067 0.008520126 9.177401
v -3.9572067 0.008520126 4.7882915
v -3.9572067 6.2321987 9.177401
v -2.4131203 7.4453707 4.7882915
v -3.9572067 0.008520126 4.7882915
v -2.4131203 0.008520126 4.7882924
v -3.9572067 6.269969 4.7882915
v -2.4131203 7.33584 7.524709
v -3.9572067 6.269969 4.7882915
v -2.4131203 7.4453707 4.7882915
v -3.9572067 6.2321987 9.177401
v 0.0023727417 9.135612 4.7882924
v 4.5776367E-4 9.134641 1.6540427
v -2.4131203 7.4453716 1.6540418
v -2.4131184 7.3667154 -1.8451257
v -3.9572048 6.2699685 -4.033836
v -3.9572067 6.269969 1.6540418
v 3.9572067 2.6928031 -6.5280185
v 0.9522724 4.3517556 -9.177402
v 3.9572067 2.692803 -9.177401
v 0.9522724 4.3517556 -6.528019
v -2.4131184 6.2677293 -6.498676
v 0.93387985 8.522431 -4.0338354
v -2.4131184 6.2677298 -4.004492
v 0.93387985 8.522431 -6.5280194
v 0.93387794 8.522432 0.51622343
v 0.93387794 8.522432 0.51622343
v 0.0023727417 9.135612 4.7882924
v 4.5776367E-4 9.134641 1.6540427
v 0.93387794 8.522432 5.704867
v 0.005056381 6.2355585 9.177401
v 0.0023727417 9.135612 4.7882924
v 0.93387794 6.2348385 9.177401
v -2.4131203 6.233576 9.177401
v -2.4131203 7.33584 7.524709
v -3.9572067 6.2321987 9.177401
v 3.9572039 6.2321987 9.1774025
vn -0.004359331 0.0 -0.9999906
vn -0.0 0.0 -1.0
vn -0.004452284 0.0 -0.9999901
vn -0.0 0.0 -1.0
vn -0.008718896 0.0 -0.999962
vn -0.008718896 0.0 -0.999962
vn -1.0 0.0 0.0
vn -1.0 0.0 0.0
vn -1.0 0.0 0.0
vn -1.0 0.0 0.0
vn -1.0 0.0 0.0
vn -1.0 0.0 0.0
vn -0.44214416 0.89694405 0.0
vn -0.4421441 0.89694405 0.0
vn -0.44214413 0.89694405 0.0
vn -0.44214407 0.89694405 0.0
vn 1.0 0.0 0.0
vn 1.0 0.0 0.0
vn 1.0 0.0 0.0
vn 1.0 0.0 0.0
vn 1.0 0.0 0.0
vn 1.0 0.0 0.0
vn 1.0 0.0 0.0
vn 1.0 0.0 0.0
vn 1.0 0.0 0.0
vn 1.0 0.0 0.0
vn 1.0 0.0 0.0
vn 1.0 0.0 0.0
vn 0.5974453 0.8019097 0.0
vn 0.59744525 0.8019097 0.0
vn 0.59744525 0.8019097 0.0
vn 0.59744525 0.80190974 0.0
vn 0.5974451 0.80190986 0.0
vn 0.5879293 0.8089123 -7.886547E-5
vn 0.5980135 0.80148065 0.002929417
vn 0.5849021 0.8111011 0.0021144352
vn 0.5987738 0.80088854 0.00689213
vn 0.5496185 0.8354158 -6.721836E-5
vn -0.0042914273 -1.9079209E-5 -0.9999908
vn -0.0 0.0 -1.0
vn -0.00449442 -1.0685611E-5 -0.99999
vn -0.0 0.0 -1.0
vn -0.008731208 -2.0520412E-5 -0.99996185
vn -0.008766715 0.0 -0.9999616
vn -0.0 0.0 1.0
vn -0.0 0.0 1.0
vn -0.0 0.0 1.0
vn -0.0 0.0 1.0
vn -0.0 0.0 1.0
vn -0.0 0.0 1.0
vn -0.0 0.0 1.0
vn -0.0 0.0 1.0
vn -0.0 0.0 1.0
vn -1.0 0.0 0.0
vn -1.0 0.0 0.0
vn -1.0 0.0 0.0
vn -1.0 0.0 0.0
vn -0.0 0.0 1.0
vn -0.0 0.0 1.0
vn -0.0 0.0 1.0
vn -0.0 0.0 1.0
vn 0.0056938534 0.8912034 -0.4535682
vn 0.009911505 0.8911741 -0.45355323
vn 0.010322593 0.8908605 -0.45415965
vn 0.01955119 0.8884836 -0.45849183
vn 0.022361701 0.8879401 -0.4594152
vn 0.019000739 0.0 -0.99981946
vn 0.019000739 0.0 -0.99981946
vn 0.019000739 0.0 -0.99981946
vn 0.019000739 0.0 -0.99981946
vn -1.0 0.0 0.0
vn -1.0 0.0 0.0
vn -1.0 0.0 0.0
vn -1.0 0.0 0.0
vn -1.0 0.0 0.0
vn -1.0 0.0 0.0
vn -1.0 0.0 0.0
vn -1.0 0.0 0.0
vn -0.0 0.0 -1.0
vn -0.0 0.0 -1.0
vn -0.0 0.0 -1.0
vn -0.0 0.0 -1.0
vn -0.5814823 0.81334454 0.018680317
vn -0.59441787 0.8038469 0.022304801
vn -0.58393306 0.81151533 0.021561682
vn -0.57648385 0.81707823 0.0070313276
vn -0.5732929 0.81928265 0.010546614
vn -0.5733706 0.81927043 -0.00650049
vn -0.58120203 0.8137253 -0.0074358946
vn -0.5639868 0.82557523 -0.018558037
vn -0.58200926 0.81312025 -0.010034074
vn -0.6057027 0.795691 0.0
vn 0.48331365 0.87544733 0.0
vn 0.4833136 0.87544733 0.0
vn 0.48331365 0.87544733 0.0
vn 0.48331356 0.87544733 0.0
vn -0.5587029 0.82936794 0.0
vn -0.5587028 0.82936794 0.0
vn -0.55870277 0.82936794 0.0
vn -0.55870295 0.8293679 0.0
vn -0.55870277 0.829368 0.0
vn 0.5879293 0.8089123 -7.886547E-5
vn 0.5496185 0.8354158 -6.721836E-5
vn 0.5479317 0.8365229 -5.9389253E-4
vn 0.0051000165 0.8345257 0.55094534
vn 4.1162508E-4 0.8346513 0.5507785
vn 0.0046691713 0.83395296 0.55181575
vn 6.880861E-4 0.835082 0.5501251
vn 5.7366403E-4 0.832808 0.5535617
vn 0.006737094 0.8319222 0.55485153
vn -7.4197305E-4 0.83194077 0.5548639
vn 7.287919E-4 0.8350819 0.5501252
vt 0.5682003 0.71586275
vt 0.61698973 0.7594465
vt 0.5682003 0.78638226
vt 0.61698973 0.71586275
vt 0.513556 0.71586275
vt 0.513556 0.7594465
vt 0.38116542 0.688295
vt 0.4670587 0.7318207
vt 0.4228162 0.73182076
vt 0.4670587 0.688295
vt 0.38116542 0.79421794
vt 0.4228162 0.79421794
vt 0.06511666 0.953344
vt 0.12204935 0.9913901
vt 0.06511666 0.99144083
vt 0.12204935 0.953344
vt 0.48163405 0.9452833
vt 0.52623564 0.9873843
vt 0.44556257 0.9873843
vt 0.52623564 0.9452833
vt 0.48163405 0.88457966
vt 0.44556263 0.88463783
vt 0.35635248 0.88463783
vt 0.35635248 0.9873843
vt 0.30719414 0.88463783
vt 0.30719414 0.9873843
vt 0.23777214 0.8852302
vt 0.23777214 0.9873843
vt 0.06397726 0.9497526
vt 0.014919657 0.9252755
vt 0.06393905 0.92764753
vt 0.014957864 0.9497526
vt 0.014832515 0.8280837
vt 0.06386931 0.8498982
vt 0.014784474 0.7745271
vt 0.0637898 0.76123714
vt 0.014760841 0.69949126
vt 0.0732369 0.7732291
vt 0.5689931 0.79065514
vt 0.6181167 0.82201356
vt 0.5686925 0.85883653
vt 0.6181167 0.7635348
vt 0.5139749 0.7635351
vt 0.5139749 0.82197726
vt 0.63646233 0.9906398
vt 0.6201127 0.8831564
vt 0.6361449 0.8831688
vt 0.5783731 0.8831906
vt 0.5783731 0.9906398
vt 0.551721 0.88321435
vt 0.551721 0.9906398
vt 0.68941045 0.88321435
vt 0.68941045 0.9906398
vt 0.373735 0.79421794
vt 0.28735074 0.688295
vt 0.3737349 0.688295
vt 0.28735077 0.79421794
vt 0.28799707 0.68827283
vt 0.31261715 0.79421794
vt 0.28799716 0.79421794
vt 0.31261706 0.68827283
vt 0.12238605 0.8731395
vt 0.15004933 0.90582234
vt 0.12368794 0.90522176
vt 0.06661321 0.8097716
vt 0.06386931 0.8498982
vt 0.51352674 0.8198861
vt 0.48801014 0.71647
vt 0.51352674 0.71647
vt 0.48801014 0.8199231
vt 0.28264165 0.8082433
vt 0.24179703 0.68866336
vt 0.28264165 0.688295
vt 0.24179706 0.8086117
vt 0.23635115 0.79421794
vt 0.15931416 0.688295
vt 0.23635112 0.688295
vt 0.15931419 0.79421794
vt 0.31178275 0.79421794
vt 0.28716266 0.6882728
vt 0.31178266 0.6882728
vt 0.28716275 0.79421794
vt 0.12227811 0.72920114
vt 0.14991415 0.7750242
vt 0.12219359 0.7760658
vt 0.14989054 0.69998837
vt 0.0732369 0.7732291
vt 0.06661321 0.8097716
vt 0.12224163 0.8160452
vt 0.12238605 0.8731395
vt 0.15004933 0.90582234
vt 0.14996219 0.81500345
vt 0.014281888 0.953344
vt 0.06511666 0.99144083
vt 0.014281888 0.9918249
vt 0.06511666 0.953344
vt 0.123726144 0.9497526
vt 0.06393905 0.92764753
vt 0.12368794 0.90522176
vt 0.06397726 0.9497526
vt 0.06386931 0.8498982
vt 0.06386931 0.8498982
vt 0.0732369 0.7732291
vt 0.06661321 0.8097716
vt 0.0637898 0.76123714
vt 0.08223544 0.6997428
vt 0.0732369 0.7732291
vt 0.066377684 0.6996838
vt 0.123525366 0.69989276
vt 0.12227811 0.72920114
vt 0.14989054 0.69998837
vt 0.014760841 0.69949126

g House_08
s 1
usemtl House_08
f 3/3/3 2/2/2 1/1/1 
f 4/4/4 1/1/1 2/2/2 
f 1/1/1 5/5/5 3/3/3 
f 6/6/6 3/3/3 5/5/5 
f 9/9/9 8/8/8 7/7/7 
f 10/10/10 7/7/7 8/8/8 
f 7/7/7 11/11/11 9/9/9 
f 12/12/12 9/9/9 11/11/11 
f 15/15/15 14/14/14 13/13/13 
f 16/16/16 13/13/13 14/14/14 
f 19/19/19 18/18/18 17/17/17 
f 20/20/20 17/17/17 18/18/18 
f 17/17/17 21/21/21 19/19/19 
f 22/22/22 19/19/19 21/21/21 
f 22/22/22 23/23/23 19/19/19 
f 24/24/24 19/19/19 23/23/23 
f 23/23/23 25/25/25 24/24/24 
f 26/26/26 24/24/24 25/25/25 
f 25/25/25 27/27/27 26/26/26 
f 28/28/28 26/26/26 27/27/27 
f 31/31/31 30/30/30 29/29/29 
f 32/32/32 29/29/29 30/30/30 
f 30/30/30 31/31/31 33/33/33 
f 34/34/34 33/33/33 31/31/31 
f 33/33/33 34/34/34 35/35/35 
f 36/36/36 35/35/35 34/34/34 
f 36/36/36 37/37/37 35/35/35 
f 36/36/36 34/34/34 38/38/38 
f 41/41/41 40/40/40 39/39/39 
f 42/42/42 39/39/39 40/40/40 
f 39/39/39 43/43/43 41/41/41 
f 44/44/44 41/41/41 43/43/43 
f 47/47/47 46/46/46 45/45/45 
f 46/46/46 48/48/48 45/45/45 
f 45/45/45 48/48/48 49/49/49 
f 48/48/48 50/50/50 49/49/49 
f 51/51/51 49/49/49 50/50/50 
f 47/47/47 45/45/45 52/52/52 
f 53/53/53 52/52/52 45/45/45 
f 56/56/56 55/55/55 54/54/54 
f 57/57/57 54/54/54 55/55/55 
f 60/60/60 59/59/59 58/58/58 
f 61/61/61 58/58/58 59/59/59 
f 64/64/64 63/63/63 62/62/62 
f 62/62/62 65/65/65 64/64/64 
f 65/65/65 66/66/66 64/64/64 
f 69/69/69 68/68/68 67/67/67 
f 70/70/70 67/67/67 68/68/68 
f 73/73/73 72/72/72 71/71/71 
f 74/74/74 71/71/71 72/72/72 
f 77/77/77 76/76/76 75/75/75 
f 78/78/78 75/75/75 76/76/76 
f 81/81/81 80/80/80 79/79/79 
f 82/82/82 79/79/79 80/80/80 
f 85/85/85 84/84/84 83/83/83 
f 86/86/86 83/83/83 84/84/84 
f 85/85/85 83/83/83 87/87/87 
f 87/87/87 88/88/88 85/85/85 
f 89/89/89 85/85/85 88/88/88 
f 89/89/89 88/88/88 90/90/90 
f 90/90/90 91/91/91 89/89/89 
f 92/92/92 89/89/89 91/91/91 
f 95/95/95 94/94/94 93/93/93 
f 96/96/96 93/93/93 94/94/94 
f 99/99/99 98/98/98 97/97/97 
f 100/100/100 97/97/97 98/98/98 
f 99/99/99 101/101/101 98/98/98 
f 104/104/104 103/103/103 102/102/102 
f 107/107/107 106/106/106 105/105/105 
f 108/108/108 105/105/105 106/106/106 
f 106/106/106 107/107/107 109/109/109 
f 110/110/110 109/109/109 107/107/107 
f 109/109/109 110/110/110 111/111/111 
f 108/108/108 112/112/112 105/105/105 

