# Created by DisUnity v0.3.4
v -3.3022456 3.7148012E-16 -6.0667305
v -1.0004655 6.5715585 -6.06673
v -3.3022456 6.5715585 -6.0667305
v 3.3022475 3.7148004E-16 -6.0667295
v 1.1602011 8.503512 -6.06673
v 3.3022475 6.5715585 -6.0667295
v -3.3022456 3.7148012E-16 -6.0667305
v -3.3022475 6.5715585 6.066729
v -3.3022475 -3.7148E-16 6.066729
v -3.3022456 6.5715585 -6.0667305
v -3.3022475 -3.7148E-16 6.066729
v 3.3022456 6.5715585 6.06673
v 3.3022456 -3.7148006E-16 6.06673
v -3.3022475 6.5715585 6.066729
v 3.3022456 -3.7148006E-16 6.06673
v 3.3022475 6.5715585 -6.0667295
v 3.3022475 3.7148004E-16 -6.0667295
v 3.3022456 6.5715585 6.06673
v 1.2307576 8.42721 -3.3049498
v -3.3022456 6.5715585 -6.0667305
v -1.0004655 6.5715585 -6.06673
v 3.1003432E-7 9.529728 -2.0532646
v -3.3022456 6.5715585 -6.0667305
v -4.0848929E-7 9.529728 2.7053022
v -3.3022475 6.5715585 6.066729
v 3.1003432E-7 9.529728 -2.0532646
v -3.3022475 6.5715585 6.066729
v -4.0848929E-7 9.529728 2.7053022
v 3.3022456 6.5715585 6.06673
v 3.3022456 6.5715585 6.06673
v 1.2307576 8.42721 -3.3049498
v 3.3022475 6.5715585 -6.0667295
v 3.1003432E-7 9.529728 -2.0532646
v -4.0848929E-7 9.529728 2.7053022
v 1.1602011 8.503512 -6.06673
v 1.2307576 8.42721 -3.3049498
v -1.0004655 6.5715585 -6.06673
v 1.1602011 8.503512 -6.06673
vn -0.0 0.0 -1.0
vn -0.0 0.0 -1.0
vn -0.0 0.0 -1.0
vn -0.0 0.0 -1.0
vn -0.0 0.0 -1.0
vn -0.0 0.0 -1.0
vn -1.0 0.0 0.0
vn -1.0 0.0 0.0
vn -1.0 0.0 0.0
vn -1.0 0.0 0.0
vn -0.0 0.0 1.0
vn -0.0 0.0 1.0
vn -0.0 0.0 1.0
vn -0.0 0.0 1.0
vn 1.0 0.0 0.0
vn 1.0 0.0 0.0
vn 1.0 0.0 0.0
vn 1.0 0.0 0.0
vn 0.05075627 0.78841454 -0.6130467
vn 0.022245815 0.81254923 -0.5824678
vn -0.0 0.8300384 -0.55770624
vn 0.06196151 0.7783968 -0.6247073
vn -0.66723675 0.74484575 0.0
vn -0.6672367 0.74484575 0.0
vn -0.66723675 0.74484575 0.0
vn -0.6672366 0.74484575 0.0
vn -0.0 0.75070095 0.66064215
vn -0.0 0.75070095 0.6606422
vn -0.0 0.7507009 0.6606422
vn 0.6672368 0.7448456 0.0
vn 0.66723675 0.7448456 0.0
vn 0.6672368 0.7448456 0.0
vn 0.66723657 0.74484575 0.0
vn 0.66723657 0.74484575 0.0
vn 0.66974807 0.74258053 0.0034056222
vn -0.66607946 0.7449326 0.037597667
vn -0.6660794 0.7449326 0.037597667
vn -0.6660794 0.7449326 0.037597664
vt 0.5430046 0.24700522
vt 0.64157647 0.21053928
vt 0.64157647 0.24700522
vt 0.5430046 0.1423738
vt 0.6705554 0.17499739
vt 0.64387184 0.1423738
vt 0.81630856 0.2040602
vt 0.7180077 0.017652988
vt 0.81630844 0.017653108
vt 0.7180078 0.2040602
vt 0.63435566 0.1261059
vt 0.52867043 0.01603204
vt 0.63435566 0.0160321
vt 0.5286703 0.12610584
vt 0.81630856 0.017652988
vt 0.7180077 0.2040602
vt 0.81630844 0.20406008
vt 0.7180078 0.017652988
vt 0.86514914 0.1301257
vt 0.9296209 0.16519731
vt 0.89688337 0.16519731
vt 0.8826541 0.11423069
vt 0.9296209 0.16519731
vt 0.8826541 0.053802192
vt 0.9296209 0.011115849
vt 0.8826541 0.11423069
vt 0.9296209 0.011115849
vt 0.8826541 0.053802192
vt 0.835687 0.011115849
vt 0.835687 0.011115849
vt 0.86514914 0.1301257
vt 0.8356871 0.16519731
vt 0.8826541 0.11423069
vt 0.8826541 0.053802192
vt 0.86615264 0.16519731
vt 0.86514914 0.1301257
vt 0.89688337 0.16519731
vt 0.86615264 0.16519731

g House_011
s 1
usemtl House_011
f 3/3/3 2/2/2 1/1/1 
f 1/1/1 2/2/2 4/4/4 
f 5/5/5 4/4/4 2/2/2 
f 6/6/6 4/4/4 5/5/5 
f 9/9/9 8/8/8 7/7/7 
f 10/10/10 7/7/7 8/8/8 
f 13/13/13 12/12/12 11/11/11 
f 14/14/14 11/11/11 12/12/12 
f 17/17/17 16/16/16 15/15/15 
f 18/18/18 15/15/15 16/16/16 
f 21/21/21 20/20/20 19/19/19 
f 22/22/22 19/19/19 20/20/20 
f 25/25/25 24/24/24 23/23/23 
f 26/26/26 23/23/23 24/24/24 
f 29/29/29 28/28/28 27/27/27 
f 32/32/32 31/31/31 30/30/30 
f 31/31/31 33/33/33 30/30/30 
f 33/33/33 34/34/34 30/30/30 
f 32/32/32 35/35/35 31/31/31 
f 38/38/38 37/37/37 36/36/36 

