# Created by DisUnity v0.3.4
v 0.55883026 3.4489603 -5.8994794
v -1.6739807 4.261594 -3.50775
v -1.6739807 4.29393 -5.89948
v 9.536743E-7 0.008167505 -5.8994794
v 0.55883026 3.4489603 -5.8994794
v -1.6739807 4.29393 -5.89948
v -3.3008852 0.008167505 -5.89948
v -3.3008852 3.4489598 -5.89948
v 3.300888 3.4489605 -5.899479
v 3.300888 0.008167505 -5.899479
v -3.3008852 0.008167505 -5.89948
v -3.3008852 4.2615943 -3.50775
v -3.3008852 0.008167505 -3.50775
v -3.3008852 3.4489598 -5.89948
v -3.300887 0.008167505 5.175404
v -3.300887 6.29595 5.175404
v -3.3008852 6.2959495 -3.5077496
v -1.1934757 0.008167267 5.899524
v 3.3008862 3.5633512 5.899525
v 3.3008862 0.008167267 5.899525
v -1.1935415 3.5633516 5.899524
v -1.1935139 6.2049384 5.899524
v 3.3008862 6.2959485 5.899525
v 1.3223133 7.2689586 5.899526
v -1.738821 3.563343 5.899524
v -1.7387552 0.008158922 5.899524
v 3.3008876 0.008167505 -3.507749
v 3.300888 3.4489605 -5.899479
v 3.300888 0.008167505 -5.899479
v 3.3008876 4.261594 -3.507749
v 3.3008862 3.5633512 5.899525
v 3.3008862 0.008167267 5.899525
v 3.3008876 6.295949 -3.507749
v 3.3008866 6.295949 5.175405
v 3.3008862 6.2959485 5.899525
v 9.536743E-7 7.919238 -3.5077498
v 1.3223133 7.268959 5.175405
v -9.536743E-7 7.9192386 5.175404
v 3.3008866 6.295949 5.175405
v 3.3008876 6.295949 -3.507749
v -1.6739807 4.261594 -3.50775
v 3.3008876 6.295949 -3.507749
v 9.536743E-7 7.919238 -3.5077498
v 3.3008876 4.261594 -3.507749
v -3.3008852 4.2615943 -3.50775
v -3.3008852 6.2959495 -3.5077496
v -3.3008852 3.4489598 -5.89948
v -1.6739807 4.261594 -3.50775
v -3.3008852 4.2615943 -3.50775
v 0.55883026 3.4489603 -5.8994794
v 3.3008876 4.261594 -3.507749
v 3.300888 3.4489605 -5.899479
v -3.3008852 6.2959495 -3.5077496
v -9.536743E-7 7.9192386 5.175404
v -3.300887 6.29595 5.175404
v 9.536743E-7 7.919238 -3.5077498
v -1.6739807 4.261594 -3.50775
v -3.3008852 3.4489598 -5.89948
v -1.6739807 4.29393 -5.89948
v -1.1935139 6.204939 5.175404
v -9.536743E-7 7.9192386 5.175404
v 1.3223133 7.268959 5.175405
v -3.300887 6.29595 5.175404
v -1.1935415 4.2615943 5.175404
v -1.738821 4.2615857 5.175404
v -1.7387552 0.008159161 5.175404
v -3.300887 0.008167505 5.175404
v 3.3008866 6.295949 5.175405
v 1.3223133 7.2689586 5.899526
v 1.3223133 7.268959 5.175405
v 3.3008862 6.2959485 5.899525
v 1.3223133 7.268959 5.175405
v -1.1935139 6.2049384 5.899524
v -1.1935139 6.204939 5.175404
v 1.3223133 7.2689586 5.899526
v -1.1935139 6.204939 5.175404
v -1.1935415 3.5633516 5.899524
v -1.1935415 4.2615943 5.175404
v -1.1935139 6.2049384 5.899524
v -1.738821 4.2615857 5.175404
v -1.7387552 0.008158922 5.899524
v -1.7387552 0.008159161 5.175404
v -1.738821 3.563343 5.899524
v -1.1935415 3.5633516 5.899524
v -1.738821 4.2615857 5.175404
v -1.1935415 4.2615943 5.175404
v -1.738821 3.563343 5.899524
vn 0.35390863 0.93519455 0.01264385
vn 0.35390866 0.93519455 0.01264385
vn 0.35390866 0.93519455 0.0126438495
vn -0.0 0.0 -1.0
vn -0.0 0.0 -1.0
vn -0.0 0.0 -1.0
vn -0.0 0.0 -1.0
vn -0.0 0.0 -1.0
vn -0.0 0.0 -1.0
vn -0.0 0.0 -1.0
vn -1.0 0.0 0.0
vn -1.0 0.0 0.0
vn -1.0 0.0 0.0
vn -1.0 0.0 0.0
vn -1.0 0.0 0.0
vn -1.0 0.0 0.0
vn -1.0 0.0 0.0
vn -0.0 0.0 1.0
vn -0.0 0.0 1.0
vn -0.0 0.0 1.0
vn -0.0 0.0 1.0
vn -0.0 0.0 1.0
vn -0.0 0.0 1.0
vn -0.0 0.0 1.0
vn -0.0 0.0 1.0
vn -0.0 0.0 1.0
vn 1.0 0.0 0.0
vn 1.0 0.0 0.0
vn 1.0 0.0 0.0
vn 1.0 0.0 0.0
vn 1.0 0.0 0.0
vn 1.0 0.0 0.0
vn 1.0 0.0 0.0
vn 1.0 0.0 0.0
vn 1.0 0.0 0.0
vn 0.44129825 0.89736056 0.0
vn 0.44129828 0.89736056 0.0
vn 0.44129834 0.89736044 0.0
vn 0.4412982 0.89736056 0.0
vn 0.4412983 0.89736056 0.0
vn -0.0 0.0 -1.0
vn -0.0 0.0 -1.0
vn -0.0 0.0 -1.0
vn -0.0 0.0 -1.0
vn -0.0 0.0 -1.0
vn -0.0 0.0 -1.0
vn -0.0 0.9468395 -0.32170627
vn -0.0 0.94683963 -0.32170612
vn -0.0 0.9468395 -0.32170627
vn -0.0 0.94683963 -0.3217059
vn -0.0 0.94683975 -0.32170588
vn -0.0 0.94683975 -0.32170588
vn -0.44129828 0.89736056 0.0
vn -0.44129822 0.89736056 0.0
vn -0.44129825 0.89736056 0.0
vn -0.44129825 0.89736056 0.0
vn -0.4608815 0.88738054 0.011997402
vn -0.4608815 0.88738054 0.011997402
vn -0.4608815 0.88738054 0.011997403
vn -0.0 0.0 1.0
vn -0.0 0.0 1.0
vn -0.0 0.0 1.0
vn -0.0 0.0 1.0
vn -0.0 0.0 1.0
vn -0.0 0.0 1.0
vn -0.0 0.0 1.0
vn -0.0 0.0 1.0
vn 0.44129816 0.89736056 0.0
vn 0.44129816 0.89736056 0.0
vn 0.44129822 0.89736056 0.0
vn 0.44129828 0.89736056 0.0
vn -0.38952565 0.9210157 0.0
vn -0.38952565 0.9210157 0.0
vn -0.38952565 0.9210157 0.0
vn -0.38952562 0.92101556 0.0
vn -1.0 1.4231423E-5 1.3722842E-5
vn -1.0 1.4231423E-5 1.3722842E-5
vn -1.0 1.4231422E-5 1.3722842E-5
vn -1.0 1.0469676E-5 0.0
vn -1.0 -1.547071E-5 0.0
vn -1.0 -1.547071E-5 0.0
vn -1.0 -1.5470712E-5 0.0
vn -1.0 -1.8509178E-5 -1.7847726E-5
vn -1.1330962E-5 0.7198522 0.69412726
vn -1.1330962E-5 0.7198522 0.69412726
vn -1.1330962E-5 0.7198522 0.69412726
vn -1.1330962E-5 0.7198522 0.69412726
vt 0.038574934 0.06896269
vt 0.06605256 0.11272848
vt 0.038574934 0.11272848
vt 0.55116343 0.15276712
vt 0.54170924 0.09455556
vt 0.579484 0.080260396
vt 0.60700804 0.15276712
vt 0.60700804 0.09455562
vt 0.49531886 0.09455556
vt 0.49531886 0.15276712
vt 0.7656289 0.15020305
vt 0.8053677 0.07953179
vt 0.8053677 0.15020305
vt 0.7656289 0.09303385
vt 0.9496392 0.15020305
vt 0.94963944 0.04573089
vt 0.8053677 0.04573071
vt 0.68621135 0.15454137
vt 0.754114 0.09186828
vt 0.754114 0.15454137
vt 0.6863724 0.09186828
vt 0.68621093 0.03935224
vt 0.7541139 0.039355516
vt 0.7202684 0.025311053
vt 0.67970455 0.0918684
vt 0.6798672 0.15454137
vt 0.43790025 0.1448431
vt 0.47194812 0.089636564
vt 0.47194812 0.1448431
vt 0.43790025 0.07659781
vt 0.28696263 0.08780092
vt 0.28696263 0.1448428
vt 0.4379002 0.043957114
vt 0.29858088 0.043956995
vt 0.28696263 0.043956995
vt 0.06646079 0.07939392
vt 0.23029311 0.05319357
vt 0.23029311 0.07939392
vt 0.23029311 0.00886023
vt 0.06646073 0.00886023
vt 0.579484 0.08080751
vt 0.49531886 0.046390295
vt 0.55116343 0.018927336
vt 0.49531886 0.08080751
vt 0.60700804 0.08080751
vt 0.60700804 0.046390295
vt 0.038574934 0.14461803
vt 0.06605256 0.11272848
vt 0.06605256 0.14461803
vt 0.038574934 0.06896269
vt 0.06605256 0.015214682
vt 0.038574934 0.015214682
vt 0.06646079 0.14479804
vt 0.23029311 0.07939392
vt 0.23029311 0.14479804
vt 0.06646079 0.07939392
vt 0.06605256 0.11272848
vt 0.038574934 0.14461803
vt 0.038574934 0.11272848
vt 0.676129 0.04332739
vt 0.69578356 0.013417244
vt 0.7198762 0.025161088
vt 0.63764274 0.040608644
vt 0.6761022 0.077477515
vt 0.6661842 0.077512145
vt 0.66645545 0.15487736
vt 0.63804203 0.15497637
vt 0.23239781 0.00971514
vt 0.24104035 0.04891914
vt 0.23239781 0.04891914
vt 0.24104035 0.00971514
vt 0.23239781 0.04891914
vt 0.24104035 0.09876788
vt 0.23239781 0.09876788
vt 0.24104035 0.04891914
vt 0.94827753 0.04581237
vt 0.95986575 0.08240497
vt 0.9484138 0.07678658
vt 0.9603088 0.045812488
vt 0.94827753 0.07678676
vt 0.9710092 0.15020323
vt 0.9482773 0.15020323
vt 0.9710092 0.087825894
vt 0.6863724 0.09186828
vt 0.67951196 0.08085537
vt 0.6863322 0.08085537
vt 0.67970455 0.0918684

g House_02
s 1
usemtl House_02
f 3/3/3 2/2/2 1/1/1 
f 6/6/6 5/5/5 4/4/4 
f 4/4/4 7/7/7 6/6/6 
f 8/8/8 6/6/6 7/7/7 
f 5/5/5 9/9/9 4/4/4 
f 10/10/10 4/4/4 9/9/9 
f 13/13/13 12/12/12 11/11/11 
f 14/14/14 11/11/11 12/12/12 
f 13/13/13 15/15/15 12/12/12 
f 16/16/16 12/12/12 15/15/15 
f 16/16/16 17/17/17 12/12/12 
f 20/20/20 19/19/19 18/18/18 
f 21/21/21 18/18/18 19/19/19 
f 21/21/21 19/19/19 22/22/22 
f 23/23/23 22/22/22 19/19/19 
f 24/24/24 22/22/22 23/23/23 
f 21/21/21 25/25/25 18/18/18 
f 26/26/26 18/18/18 25/25/25 
f 29/29/29 28/28/28 27/27/27 
f 30/30/30 27/27/27 28/28/28 
f 30/30/30 31/31/31 27/27/27 
f 32/32/32 27/27/27 31/31/31 
f 30/30/30 33/33/33 31/31/31 
f 34/34/34 31/31/31 33/33/33 
f 34/34/34 35/35/35 31/31/31 
f 38/38/38 37/37/37 36/36/36 
f 37/37/37 39/39/39 36/36/36 
f 36/36/36 39/39/39 40/40/40 
f 43/43/43 42/42/42 41/41/41 
f 44/44/44 41/41/41 42/42/42 
f 41/41/41 45/45/45 43/43/43 
f 46/46/46 43/43/43 45/45/45 
f 49/49/49 48/48/48 47/47/47 
f 48/48/48 51/51/51 50/50/50 
f 52/52/52 50/50/50 51/51/51 
f 55/55/55 54/54/54 53/53/53 
f 56/56/56 53/53/53 54/54/54 
f 59/59/59 58/58/58 57/57/57 
f 62/62/62 61/61/61 60/60/60 
f 63/63/63 60/60/60 61/61/61 
f 60/60/60 63/63/63 64/64/64 
f 65/65/65 64/64/64 63/63/63 
f 65/65/65 63/63/63 66/66/66 
f 67/67/67 66/66/66 63/63/63 
f 70/70/70 69/69/69 68/68/68 
f 71/71/71 68/68/68 69/69/69 
f 74/74/74 73/73/73 72/72/72 
f 75/75/75 72/72/72 73/73/73 
f 78/78/78 77/77/77 76/76/76 
f 79/79/79 76/76/76 77/77/77 
f 82/82/82 81/81/81 80/80/80 
f 83/83/83 80/80/80 81/81/81 
f 86/86/86 85/85/85 84/84/84 
f 87/87/87 84/84/84 85/85/85 

