# Created by DisUnity v0.3.4
v 3.937107 2.8850288 -8.518129
v 0.9367542 3.7609406 -7.2159305
v 0.9367542 3.8142624 -8.51813
v 3.937107 2.8761482 -7.21593
v 0.9367542 4.196167E-5 -8.51813
v 3.937107 2.8850288 -8.518129
v 0.9367542 3.8142624 -8.51813
v 3.937107 4.196167E-5 -8.518129
v -2.0635986 4.196167E-5 -8.518131
v -2.0635986 2.8850288 -8.518131
v -2.0635986 4.196167E-5 -7.8670306
v -2.0635986 2.8850288 -8.518131
v -2.0635986 2.8761482 -7.215931
v -2.0635986 4.196167E-5 -8.518131
v -2.0635986 4.196167E-5 -7.2159305
v -2.0635986 4.196167E-5 -3.4817715
v -2.0635986 6.4309635 -7.215931
v -2.0635986 6.4326878 -3.4817715
v 0.9367523 4.196167E-5 8.518131
v -2.0636005 6.5508146 8.518129
v 0.9367523 6.5508146 8.518131
v -2.0636005 4.196167E-5 8.518129
v -3.937109 6.5508146 8.518129
v -3.937109 4.196167E-5 8.518129
v 3.9371052 4.196167E-5 8.518131
v 3.9371052 6.5508146 8.518131
v 3.937107 4.196167E-5 -3.4817705
v 3.937107 2.8761482 -7.21593
v 3.937107 4.196167E-5 -7.21593
v 3.937107 4.196167E-5 -7.8670297
v 3.937107 2.8850288 -8.518129
v 3.937107 4.196167E-5 -8.518129
v 3.937107 6.4326878 -3.4817705
v 3.937107 6.4309635 -7.21593
v 3.937107 4.196167E-5 -3.4817705
v 3.937107 6.4326878 -1.0711551
v 3.937107 6.4326878 -3.4817705
v 3.937107 4.196167E-5 -1.0711551
v 0.9367542 8.631503 -3.481771
v 3.937107 6.4326878 -1.0711551
v 0.9367542 8.631503 -1.0711555
v 3.937107 6.4326878 -3.4817705
v 0.9367542 8.631503 -7.2159305
v 3.937107 6.4309635 -7.21593
v 0.9367523 8.653892 2.7328362
v 3.9371052 6.4917507 3.7234883
v 0.9367523 8.651597 3.7234883
v 3.9371052 6.5508146 8.518131
v -3.937107 6.4326878 -3.4817717
v -3.937107 4.196167E-5 -1.071156
v -3.937107 4.196167E-5 -3.4817717
v -3.937107 6.4326878 -1.071156
v -3.937109 4.196167E-5 3.7234874
v -3.937109 6.4917517 3.7234874
v -3.937109 4.196167E-5 8.518129
v -3.937109 6.5508146 8.518129
v 3.937107 6.4326878 -1.0711551
v 3.9371052 4.196167E-5 3.7234883
v 3.9371052 6.4917507 3.7234883
v 3.937107 4.196167E-5 -1.0711551
v 3.9371052 6.5508146 8.518131
v 3.9371052 4.196167E-5 8.518131
v -2.0635986 6.4326878 -3.4817715
v -3.937107 4.196167E-5 -3.4817717
v -2.0635986 4.196167E-5 -3.4817715
v -3.937107 6.4326878 -3.4817717
v -2.0636005 7.2936096 3.7234874
v -3.937109 6.5508146 8.518129
v -3.937109 6.4917517 3.7234874
v -2.0636005 7.3439236 6.6666713
v 0.9367523 8.651597 3.7234883
v -2.0635986 7.318843 -1.071156
v -3.937107 6.4326878 -1.071156
v -3.937107 6.4326878 -3.4817717
v 0.9367523 8.653892 2.7328362
v -2.0635986 6.4326878 -3.4817715
v 0.9367542 8.631503 -7.2159305
v 0.9367542 8.631503 -3.481771
v -2.0635986 6.4309635 -7.215931
v 0.9367542 8.631503 -1.0711555
v -0.7036133 7.3733816 -1.0711555
v 0.9367523 8.653892 2.7328362
v -2.0635986 6.4309635 -7.215931
v 0.9367542 6.4309635 -7.2159305
v 0.9367542 8.631503 -7.2159305
v 3.937107 6.4309635 -7.21593
v 0.9367542 3.7609406 -7.2159305
v -2.0635986 2.8850288 -8.518131
v 0.9367542 3.8142624 -8.51813
v -2.0635986 2.8761482 -7.215931
v -2.0635986 7.318843 -1.071156
v -3.937107 6.4326878 -3.4817717
v -2.0635986 6.4326878 -3.4817715
v -0.7036133 7.3733816 -1.0711555
v 0.9367523 8.653892 2.7328362
v -3.937109 6.5508146 8.518129
v -2.0636005 7.3439236 6.6666713
v -2.0636005 6.5508146 8.518129
v 0.9367523 8.651597 3.7234883
v 0.9367523 6.5508146 8.518131
v 3.9371052 6.5508146 8.518131
v 3.937107 6.4309635 -7.21593
v 0.9367542 3.7609406 -7.2159305
v 3.937107 2.8761482 -7.21593
v 0.9367542 6.4309635 -7.2159305
v -2.0635986 6.4309635 -7.215931
v -2.0635986 2.8761482 -7.215931
vn 0.29561836 0.9545063 0.039084658
vn 0.29561839 0.9545063 0.039084658
vn 0.29561836 0.9545063 0.039084658
vn 0.2828474 0.9591427 0.0065410696
vn -0.0 0.0 -1.0
vn -0.0 0.0 -1.0
vn -0.0 0.0 -1.0
vn -0.0 0.0 -1.0
vn -0.0 0.0 -1.0
vn -0.0 0.0 -1.0
vn -1.0 0.0 0.0
vn -1.0 0.0 0.0
vn -1.0 0.0 0.0
vn -1.0 0.0 0.0
vn -1.0 0.0 0.0
vn -1.0 0.0 0.0
vn -1.0 0.0 0.0
vn -1.0 0.0 0.0
vn -0.0 0.0 1.0
vn -0.0 0.0 1.0
vn -0.0 0.0 1.0
vn -0.0 0.0 1.0
vn -0.0 0.0 1.0
vn -0.0 0.0 1.0
vn -0.0 0.0 1.0
vn -0.0 0.0 1.0
vn 1.0 0.0 0.0
vn 1.0 0.0 0.0
vn 1.0 0.0 0.0
vn 1.0 0.0 0.0
vn 1.0 0.0 0.0
vn 1.0 0.0 0.0
vn 1.0 0.0 0.0
vn 1.0 0.0 0.0
vn 1.0 0.0 0.0
vn 1.0 0.0 0.0
vn 1.0 0.0 0.0
vn 1.0 0.0 0.0
vn 0.5911113 0.80659 0.0
vn 0.590053 0.8073561 -0.0036499298
vn 0.59110963 0.80658776 -0.0023760565
vn 0.5911865 0.8065349 -9.28809E-5
vn 0.59126234 0.8064792 -1.8662655E-4
vn 0.5914127 0.80636895 -3.7233977E-4
vn 0.58679247 0.8097287 -0.0037449948
vn 0.58528763 0.81077576 -0.008998044
vn 0.5842303 0.8115841 -0.0025002887
vn 0.5842028 0.8115461 -0.009997216
vn -1.0 0.0 0.0
vn -1.0 0.0 0.0
vn -1.0 0.0 0.0
vn -1.0 0.0 0.0
vn -1.0 0.0 0.0
vn -1.0 0.0 0.0
vn -1.0 0.0 0.0
vn -1.0 0.0 0.0
vn 1.0 0.0 0.0
vn 1.0 0.0 0.0
vn 1.0 0.0 0.0
vn 1.0 0.0 0.0
vn 1.0 0.0 0.0
vn 1.0 0.0 0.0
vn -0.0 0.0 -1.0
vn -0.0 0.0 -1.0
vn -0.0 0.0 -1.0
vn -0.0 0.0 -1.0
vn -0.39344868 0.91927683 -0.011324143
vn -0.39344865 0.91927683 -0.011324142
vn -0.39344868 0.91927683 -0.011324143
vn -0.40285957 0.91512805 -0.015644183
vn -0.4122905 0.91091937 -0.015572234
vn -0.4275755 0.9039797 0.0
vn -0.42757547 0.9039797 0.0
vn -0.42757547 0.9039797 0.0
vn -0.41233963 0.9110278 0.0021101595
vn -0.5939299 0.8045004 0.0051213345
vn -0.59126234 0.8064792 -1.8662658E-4
vn -0.59111124 0.80659 0.0
vn -0.59141266 0.80636895 -3.7233977E-4
vn -0.60308 0.7976716 0.0038238654
vn -0.6084513 0.79331267 0.021021985
vn -0.6085791 0.7934794 -0.004670342
vn -0.0 0.0 -1.0
vn -0.0 0.0 -1.0
vn -0.0 0.0 -1.0
vn -0.0 0.0 -1.0
vn -0.29561836 0.9545063 0.039084658
vn -0.29561836 0.9545063 0.039084658
vn -0.29561836 0.9545063 0.039084658
vn -0.2828474 0.95914257 0.006541064
vn -0.030220853 0.9424504 -0.33297724
vn -0.0 0.9385912 -0.34503114
vn -0.008864394 0.93855435 -0.3450176
vn -0.03798439 0.94718677 -0.31842476
vn -0.038174003 0.95191497 -0.30397472
vn -0.0 0.91921204 0.3937628
vn -0.01094059 0.9191571 0.39373925
vn -0.0023806423 0.9181218 0.39629132
vn -0.002596527 0.916531 0.39995515
vn -0.0 0.9159379 0.40132
vn -0.0 0.9159379 0.40132
vn -0.0 0.0 -1.0
vn -0.0 0.0 -1.0
vn -0.0 0.0 -1.0
vn -0.0 0.0 -1.0
vn -0.0 0.0 -1.0
vn -0.0 0.0 -1.0
vt 0.14997877 0.52902985
vt 0.20153476 0.5136713
vt 0.20153476 0.52902985
vt 0.14997877 0.51279557
vt 0.5215515 0.67115736
vt 0.47287568 0.62598395
vt 0.5215515 0.6107621
vt 0.47287568 0.6711575
vt 0.5702274 0.67115736
vt 0.5702274 0.62598395
vt 0.17975695 0.66704154
vt 0.17098725 0.62354827
vt 0.19512321 0.62367845
vt 0.17098725 0.66704154
vt 0.19512321 0.66704154
vt 0.2471083 0.66704154
vt 0.19512321 0.5723177
vt 0.2471083 0.5723177
vt 0.10358077 0.6571488
vt 0.053908676 0.55006886
vt 0.10358068 0.55006886
vt 0.053908765 0.65714884
vt 0.020325273 0.55006886
vt 0.020325273 0.65714884
vt 0.1532529 0.6571488
vt 0.15325281 0.55006886
vt 0.24789865 0.66704154
vt 0.19566289 0.62346387
vt 0.19571218 0.66704154
vt 0.18128508 0.66704154
vt 0.17098725 0.62333965
vt 0.17098725 0.6674642
vt 0.24779625 0.5721508
vt 0.19560698 0.5721508
vt 0.30605143 0.66704154
vt 0.3433705 0.5623964
vt 0.30594903 0.5623964
vt 0.3433705 0.66733396
vt 0.19978525 0.44492543
vt 0.15012039 0.40728128
vt 0.19978525 0.40728128
vt 0.15012039 0.44492543
vt 0.19978525 0.51118565
vt 0.15012039 0.51118565
vt 0.19978525 0.34787816
vt 0.15012039 0.33240807
vt 0.19978525 0.33240807
vt 0.15012039 0.25753492
vt 0.2589812 0.5623964
vt 0.29111975 0.66704154
vt 0.2589812 0.66704154
vt 0.29111975 0.5623964
vt 0.3696348 0.66704154
vt 0.36963475 0.5623964
vt 0.44681728 0.66704154
vt 0.44681728 0.5623964
vt 0.3005669 0.5623964
vt 0.36737293 0.66704154
vt 0.36737293 0.5623964
vt 0.3005669 0.66704154
vt 0.44828463 0.5623964
vt 0.44828463 0.66704154
vt 0.57024574 0.56746185
vt 0.5991851 0.6712986
vt 0.57024574 0.6712986
vt 0.5991851 0.56746185
vt 0.24944998 0.33240807
vt 0.2804621 0.25753492
vt 0.2804621 0.33240807
vt 0.24944998 0.28644735
vt 0.19978525 0.33240807
vt 0.24944998 0.40728128
vt 0.2804621 0.40728128
vt 0.2804621 0.44492543
vt 0.19978525 0.34787816
vt 0.24944998 0.44492543
vt 0.19978525 0.51118565
vt 0.19978525 0.44492543
vt 0.24944998 0.51118565
vt 0.19978525 0.40728128
vt 0.2269382 0.40728128
vt 0.19978525 0.34787816
vt 0.5650883 0.5749382
vt 0.5232433 0.5749382
vt 0.52313226 0.54976845
vt 0.4811764 0.5749382
vt 0.20153476 0.5136713
vt 0.25309074 0.52902985
vt 0.20153476 0.52902985
vt 0.25309074 0.51279557
vt 0.24944998 0.40728128
vt 0.2804621 0.44492543
vt 0.24944998 0.44492543
vt 0.2269382 0.40728128
vt 0.19978525 0.34787816
vt 0.2804621 0.25753492
vt 0.24944998 0.28644735
vt 0.24944998 0.25753492
vt 0.19978525 0.33240807
vt 0.19978525 0.25753492
vt 0.15012039 0.25753492
vt 0.48374906 0.57348907
vt 0.52336293 0.61277175
vt 0.48374906 0.62534237
vt 0.5232365 0.57348907
vt 0.56251556 0.5734891
vt 0.56251556 0.6253423

g House_07
s 1
usemtl House_07
f 3/3/3 2/2/2 1/1/1 
f 4/4/4 1/1/1 2/2/2 
f 7/7/7 6/6/6 5/5/5 
f 8/8/8 5/5/5 6/6/6 
f 5/5/5 9/9/9 7/7/7 
f 10/10/10 7/7/7 9/9/9 
f 13/13/13 12/12/12 11/11/11 
f 14/14/14 11/11/11 12/12/12 
f 11/11/11 15/15/15 13/13/13 
f 15/15/15 16/16/16 13/13/13 
f 13/13/13 16/16/16 17/17/17 
f 18/18/18 17/17/17 16/16/16 
f 21/21/21 20/20/20 19/19/19 
f 22/22/22 19/19/19 20/20/20 
f 20/20/20 23/23/23 22/22/22 
f 24/24/24 22/22/22 23/23/23 
f 19/19/19 25/25/25 21/21/21 
f 26/26/26 21/21/21 25/25/25 
f 29/29/29 28/28/28 27/27/27 
f 30/30/30 28/28/28 29/29/29 
f 28/28/28 30/30/30 31/31/31 
f 32/32/32 31/31/31 30/30/30 
f 27/27/27 28/28/28 33/33/33 
f 34/34/34 33/33/33 28/28/28 
f 37/37/37 36/36/36 35/35/35 
f 38/38/38 35/35/35 36/36/36 
f 41/41/41 40/40/40 39/39/39 
f 42/42/42 39/39/39 40/40/40 
f 39/39/39 42/42/42 43/43/43 
f 44/44/44 43/43/43 42/42/42 
f 41/41/41 45/45/45 40/40/40 
f 40/40/40 45/45/45 46/46/46 
f 47/47/47 46/46/46 45/45/45 
f 46/46/46 47/47/47 48/48/48 
f 51/51/51 50/50/50 49/49/49 
f 52/52/52 49/49/49 50/50/50 
f 50/50/50 53/53/53 52/52/52 
f 54/54/54 52/52/52 53/53/53 
f 53/53/53 55/55/55 54/54/54 
f 56/56/56 54/54/54 55/55/55 
f 59/59/59 58/58/58 57/57/57 
f 60/60/60 57/57/57 58/58/58 
f 59/59/59 61/61/61 58/58/58 
f 62/62/62 58/58/58 61/61/61 
f 65/65/65 64/64/64 63/63/63 
f 66/66/66 63/63/63 64/64/64 
f 69/69/69 68/68/68 67/67/67 
f 70/70/70 67/67/67 68/68/68 
f 70/70/70 71/71/71 67/67/67 
f 67/67/67 72/72/72 69/69/69 
f 73/73/73 69/69/69 72/72/72 
f 74/74/74 73/73/73 72/72/72 
f 67/67/67 71/71/71 75/75/75 
f 67/67/67 75/75/75 72/72/72 
f 78/78/78 77/77/77 76/76/76 
f 79/79/79 76/76/76 77/77/77 
f 78/78/78 76/76/76 80/80/80 
f 81/81/81 80/80/80 76/76/76 
f 80/80/80 81/81/81 82/82/82 
f 85/85/85 84/84/84 83/83/83 
f 86/86/86 84/84/84 85/85/85 
f 89/89/89 88/88/88 87/87/87 
f 90/90/90 87/87/87 88/88/88 
f 93/93/93 92/92/92 91/91/91 
f 91/91/91 94/94/94 93/93/93 
f 91/91/91 95/95/95 94/94/94 
f 98/98/98 97/97/97 96/96/96 
f 97/97/97 98/98/98 99/99/99 
f 100/100/100 99/99/99 98/98/98 
f 100/100/100 101/101/101 99/99/99 
f 104/104/104 103/103/103 102/102/102 
f 105/105/105 102/102/102 103/103/103 
f 105/105/105 103/103/103 106/106/106 
f 107/107/107 106/106/106 103/103/103 

