# Created by DisUnity v0.3.4
v 0.55882645 3.590524 -5.9262524
v -1.6739826 4.4031577 -3.4682817
v -1.6739826 4.4354935 -4.774135
v -3.3008862 3.5905237 -5.926253
v 0.55882645 3.590524 -5.9262524
v -1.6739826 4.4354935 -4.774135
v -3.3008862 -3.4332275E-5 -5.9262524
v -3.3008862 4.403158 -3.4682817
v -3.3008862 -3.4332275E-5 -3.4682817
v -3.3008862 3.5905237 -5.926253
v -3.3008862 -3.4332275E-5 5.2148724
v -3.3008862 3.9906974 5.2148724
v -3.3008862 6.2599173 5.2148724
v -3.3008862 6.2599173 -3.4682813
v -1.1140156 -3.4093857E-5 5.2148724
v -3.3008862 3.9906974 5.2148724
v -1.1140156 3.990697 5.2148724
v -3.3008862 -3.4332275E-5 5.2148724
v -3.3008862 6.2599173 5.2148724
v -1.1140156 6.258877 5.2148724
v 3.3008862 -3.4332275E-5 -3.4682808
v 3.3008862 3.5905244 -5.926252
v 3.3008862 -3.4332275E-5 -5.9262514
v 3.3008862 4.403157 -3.4682808
v 3.3008842 4.2533917 5.2148733
v 3.3008842 -3.4332275E-5 5.2148733
v 3.3008862 6.2599173 -3.4682808
v 3.3008842 6.2599173 5.2148733
v 3.3008842 3.9906964 5.9262514
v 3.3008842 -3.4332275E-5 5.9262514
v 3.3008842 6.259917 5.9262524
v -0.0 7.9110355 -0.14454794
v 3.3008842 6.2599173 5.2148733
v -1.9073486E-6 7.9110365 1.0455728
v 3.3008862 6.2599173 -3.4682808
v -1.9073486E-6 7.9110365 1.7569528
v 3.3008842 6.259917 5.9262524
v -1.6739826 4.4031577 -3.4682817
v 3.3008862 6.2599173 -3.4682808
v -0.77464485 6.2599173 -3.4682815
v 3.3008862 4.403157 -3.4682808
v -3.3008862 6.2599173 -3.4682813
v -3.3008862 4.403158 -3.4682817
v -1.1140156 6.258877 5.2148724
v -3.3008862 6.2599173 5.2148724
v -1.9073486E-6 7.9110365 1.0455728
v -3.3008862 3.5905237 -5.926253
v -1.6739826 4.4031577 -3.4682817
v -3.3008862 4.403158 -3.4682817
v 0.55882645 3.590524 -5.9262524
v 3.3008862 4.403157 -3.4682808
v 3.3008862 3.5905244 -5.926252
v 3.3008842 -3.4332275E-5 5.9262514
v -1.1140156 3.990697 5.9262514
v 3.3008842 3.9906964 5.9262514
v -1.1140156 -3.4093857E-5 5.9262505
v -1.1140156 6.2579403 5.9262514
v 3.3008842 6.259917 5.9262524
v -3.3008862 6.2599173 -3.4682813
v -1.9073486E-6 7.9110365 1.0455728
v -3.3008862 6.2599173 5.2148724
v -0.0 7.9110355 -0.14454794
v 3.3008842 6.259917 5.9262524
v -1.1140156 6.2579403 5.9262514
v -1.9073486E-6 7.9110365 1.7569528
v -0.0 -3.4332275E-5 -5.926252
v 3.3008862 3.5905244 -5.926252
v 0.55882645 3.590524 -5.9262524
v 3.3008862 -3.4332275E-5 -5.9262514
v -3.3008862 3.5905237 -5.926253
v -3.3008862 -3.4332275E-5 -5.9262524
v -1.6739826 4.4031577 -3.4682817
v -3.3008862 3.5905237 -5.926253
v -1.6739826 4.4354935 -4.774135
v -1.1140156 6.258877 5.2148724
v -1.9073486E-6 7.9110365 1.7569528
v -1.1140156 6.2579403 5.9262514
v -1.9073486E-6 7.9110365 1.0455728
v -1.1140156 3.990697 5.2148724
v -1.1140156 -3.4093857E-5 5.9262505
v -1.1140156 -3.4093857E-5 5.2148724
v -1.1140156 3.990697 5.9262514
v -1.1140156 6.2579403 5.9262514
v -1.1140156 6.258877 5.2148724
v -3.3008862 6.2599173 -3.4682813
v -0.77464485 6.2599173 -3.4682815
v -0.0 7.9110355 -0.14454794
v 3.3008862 6.2599173 -3.4682808
vn 0.36422676 0.9310249 0.023054196
vn 0.36422676 0.9310249 0.023054194
vn 0.36422676 0.9310249 0.023054192
vn -0.0 0.8063772 -0.5914017
vn -0.0 0.8063772 -0.5914017
vn -0.0 0.8063772 -0.59140164
vn -1.0 0.0 0.0
vn -1.0 0.0 0.0
vn -1.0 0.0 0.0
vn -1.0 0.0 0.0
vn -1.0 0.0 0.0
vn -1.0 0.0 0.0
vn -1.0 0.0 0.0
vn -1.0 0.0 0.0
vn -0.0 0.0 1.0
vn -0.0 0.0 1.0
vn -0.0 0.0 1.0
vn -0.0 0.0 1.0
vn -0.0 0.0 1.0
vn -0.0 0.0 1.0
vn 1.0 0.0 0.0
vn 1.0 0.0 0.0
vn 1.0 0.0 0.0
vn 1.0 0.0 0.0
vn 1.0 0.0 0.0
vn 1.0 0.0 0.0
vn 1.0 0.0 0.0
vn 1.0 0.0 0.0
vn 1.0 0.0 0.0
vn 1.0 0.0 0.0
vn 1.0 0.0 0.0
vn 0.44736 0.8943539 0.0
vn 0.44735968 0.8943541 0.0
vn 0.44736013 0.8943539 0.0
vn 0.44735998 0.89435405 0.0
vn 0.44736013 0.8943539 0.0
vn 0.44735965 0.8943542 0.0
vn -0.0 0.0 -1.0
vn -0.0 0.0 -1.0
vn -0.0 0.0 -1.0
vn -0.0 0.0 -1.0
vn -0.0 0.0 -1.0
vn -0.0 0.0 -1.0
vn 4.4227368E-4 0.9296277 0.36849982
vn 4.422737E-4 0.9296277 0.36849982
vn 4.4227368E-4 0.9296277 0.36849985
vn -0.0 0.9494557 -0.31390134
vn -0.0 0.9494557 -0.3139012
vn -0.0 0.9494557 -0.31390134
vn -0.0 0.9494558 -0.31390092
vn -0.0 0.9494558 -0.3139009
vn -0.0 0.9494558 -0.31390074
vn -0.0 0.0 1.0
vn -0.0 0.0 1.0
vn -0.0 0.0 1.0
vn -0.0 0.0 1.0
vn -0.0 0.0 1.0
vn -0.0 0.0 1.0
vn -0.44736007 0.8943539 0.0
vn -0.44735998 0.89435405 0.0
vn -0.44736037 0.89435387 0.0
vn -0.44735882 0.8943546 0.0
vn -4.162631E-4 0.9296347 0.36848205
vn -4.1626306E-4 0.9296347 0.36848205
vn -4.1626312E-4 0.9296347 0.36848205
vn -0.0 0.0 -1.0
vn -0.0 0.0 -1.0
vn -0.0 0.0 -1.0
vn -0.0 0.0 -1.0
vn -0.0 0.0 -1.0
vn -0.0 0.0 -1.0
vn -0.47292635 0.8808319 0.021811308
vn -0.47292635 0.8808319 0.021811306
vn -0.47292635 0.880832 0.021811312
vn -0.92939824 0.3690781 4.7204376E-4
vn -0.8291061 0.5590913 2.1005102E-5
vn -0.9918562 0.12736243 1.6766862E-4
vn -0.82912654 0.5590611 0.0
vn -1.0 0.0 0.0
vn -1.0 0.0 0.0
vn -1.0 0.0 0.0
vn -1.0 0.0 0.0
vn -0.9918562 0.12736243 1.6766862E-4
vn -0.92939824 0.3690781 4.7204376E-4
vn -0.0 0.89558274 -0.44489512
vn -0.0 0.89558274 -0.44489512
vn -0.0 0.89558274 -0.44489512
vn -0.0 0.89558274 -0.44489518
vt 0.93241274 0.62348515
vt 0.8908403 0.66924965
vt 0.89084053 0.6449362
vt 0.8605495 0.62348497
vt 0.93241274 0.62348515
vt 0.89084053 0.6449362
vt 0.7854927 0.9829907
vt 0.81973344 0.9177509
vt 0.81973344 0.9829906
vt 0.7854926 0.92718416
vt 0.9607603 0.9829906
vt 0.96076035 0.9200786
vt 0.9607603 0.88288516
vt 0.81973344 0.8828852
vt 0.6584841 0.9927231
vt 0.62179625 0.9211651
vt 0.6584841 0.9211651
vt 0.62179625 0.9927231
vt 0.62179625 0.88041294
vt 0.6584841 0.8804321
vt 0.74959815 0.82955664
vt 0.80812913 0.8642102
vt 0.74959815 0.8642102
vt 0.81583434 0.82955664
vt 0.81374973 0.6895344
vt 0.7495981 0.6895344
vt 0.85076076 0.82955664
vt 0.85076064 0.6895344
vt 0.81374973 0.67995965
vt 0.7495981 0.67995965
vt 0.85076064 0.67995965
vt 0.92500037 0.77689815
vt 0.858399 0.67793226
vt 0.9250965 0.75459224
vt 0.858399 0.83827347
vt 0.92451453 0.7417991
vt 0.858399 0.6592395
vt 0.70114434 0.7633586
vt 0.6151796 0.7266023
vt 0.685604 0.7266022
vt 0.6151797 0.7633587
vt 0.72925675 0.7266022
vt 0.72925675 0.7633586
vt 0.93498546 0.67826164
vt 0.99160147 0.67793226
vt 0.9250965 0.75459224
vt 0.8582961 0.6737038
vt 0.89429814 0.72312963
vt 0.85829586 0.72312963
vt 0.9391964 0.67370397
vt 0.9920331 0.72312963
vt 0.9920331 0.67370397
vt 0.7293116 0.9927231
vt 0.6589626 0.9211651
vt 0.7293116 0.9211651
vt 0.65896267 0.9927231
vt 0.6589626 0.8804495
vt 0.7293116 0.880413
vt 0.99160147 0.83827347
vt 0.9250965 0.75459224
vt 0.99160147 0.67793226
vt 0.92500037 0.77689815
vt 0.858399 0.6592395
vt 0.935694 0.65991104
vt 0.92451453 0.7417991
vt 0.6734568 0.83512163
vt 0.6164182 0.7737981
vt 0.66380036 0.77379805
vt 0.6164182 0.83512163
vt 0.73049533 0.7737981
vt 0.73049533 0.83512163
vt 0.8908403 0.66924965
vt 0.8605495 0.62348497
vt 0.89084053 0.6449362
vt 0.93498546 0.67826164
vt 0.92451453 0.7417991
vt 0.935694 0.65991104
vt 0.9250965 0.75459224
vt 0.96115845 0.9208795
vt 0.97047627 0.9842654
vt 0.96115845 0.9842654
vt 0.97047627 0.9208795
vt 0.9704763 0.8828437
vt 0.96115845 0.8828285
vt 0.99160147 0.83827347
vt 0.9406301 0.83827347
vt 0.92500037 0.77689815
vt 0.858399 0.83827347

g House_03
s 1
usemtl House_03
f 3/3/3 2/2/2 1/1/1 
f 6/6/6 5/5/5 4/4/4 
f 9/9/9 8/8/8 7/7/7 
f 10/10/10 7/7/7 8/8/8 
f 9/9/9 11/11/11 8/8/8 
f 12/12/12 8/8/8 11/11/11 
f 12/12/12 13/13/13 8/8/8 
f 14/14/14 8/8/8 13/13/13 
f 17/17/17 16/16/16 15/15/15 
f 18/18/18 15/15/15 16/16/16 
f 16/16/16 17/17/17 19/19/19 
f 20/20/20 19/19/19 17/17/17 
f 23/23/23 22/22/22 21/21/21 
f 24/24/24 21/21/21 22/22/22 
f 24/24/24 25/25/25 21/21/21 
f 26/26/26 21/21/21 25/25/25 
f 24/24/24 27/27/27 25/25/25 
f 28/28/28 25/25/25 27/27/27 
f 25/25/25 29/29/29 26/26/26 
f 30/30/30 26/26/26 29/29/29 
f 28/28/28 31/31/31 25/25/25 
f 29/29/29 25/25/25 31/31/31 
f 34/34/34 33/33/33 32/32/32 
f 35/35/35 32/32/32 33/33/33 
f 34/34/34 36/36/36 33/33/33 
f 37/37/37 33/33/33 36/36/36 
f 40/40/40 39/39/39 38/38/38 
f 41/41/41 38/38/38 39/39/39 
f 40/40/40 38/38/38 42/42/42 
f 43/43/43 42/42/42 38/38/38 
f 46/46/46 45/45/45 44/44/44 
f 49/49/49 48/48/48 47/47/47 
f 48/48/48 51/51/51 50/50/50 
f 52/52/52 50/50/50 51/51/51 
f 55/55/55 54/54/54 53/53/53 
f 56/56/56 53/53/53 54/54/54 
f 54/54/54 55/55/55 57/57/57 
f 58/58/58 57/57/57 55/55/55 
f 61/61/61 60/60/60 59/59/59 
f 62/62/62 59/59/59 60/60/60 
f 65/65/65 64/64/64 63/63/63 
f 68/68/68 67/67/67 66/66/66 
f 69/69/69 66/66/66 67/67/67 
f 68/68/68 66/66/66 70/70/70 
f 71/71/71 70/70/70 66/66/66 
f 74/74/74 73/73/73 72/72/72 
f 77/77/77 76/76/76 75/75/75 
f 78/78/78 75/75/75 76/76/76 
f 81/81/81 80/80/80 79/79/79 
f 82/82/82 79/79/79 80/80/80 
f 82/82/82 83/83/83 79/79/79 
f 84/84/84 79/79/79 83/83/83 
f 87/87/87 86/86/86 85/85/85 
f 87/87/87 88/88/88 86/86/86 

