# Created by DisUnity v0.3.4
v 0.5120373 3.4805155 -6.0507975
v 2.2014217 5.2104454 -4.07975
v 0.51369286 3.4780877 -4.07975
v 2.2611065 5.2279787 -6.0507975
v 0.5120373 3.4805155 -6.0507975
v 4.075039 0.008267794 -6.0507965
v 4.075039 3.4805155 -6.0507965
v 0.5120373 0.008267794 -6.0507975
v 4.075037 0.008267794 -4.07975
v 4.075039 3.4805155 -6.0507965
v 4.075039 0.008267794 -6.0507965
v 4.075037 3.4780877 -4.07975
v -0.0 10.416702 -4.1737566
v 3.3975182 6.982878 6.144802
v -0.0 10.416702 6.144802
v 3.3975182 6.982879 -4.1737566
v -3.3975182 0.008267713 -4.1737566
v -3.3975182 6.982878 6.144801
v -3.3975182 0.008267713 6.144802
v -3.3975182 6.982879 -4.1737566
v 3.3975182 0.008267713 6.144803
v -3.3975182 6.982878 6.144801
v 3.3975182 6.982878 6.144802
v -3.3975182 0.008267713 6.144802
v -0.0 10.416702 6.144802
v 3.3975182 0.008267713 6.144803
v 3.3975182 6.982879 -4.1737566
v 3.3975182 0.008267713 -4.1737566
v 3.3975182 6.982878 6.144802
v -3.3975182 6.982879 -4.1737566
v -0.0 10.416702 6.144802
v -3.3975182 6.982878 6.144801
v -0.0 10.416702 -4.1737566
v 0.51534843 0.008267794 -4.079751
v 0.5120373 3.4805155 -6.0507975
v 0.51369286 3.4780877 -4.07975
v 0.5120373 0.008267794 -6.0507975
v 4.075037 3.4780877 -4.07975
v 2.2611065 5.2279787 -6.0507975
v 4.075039 3.4805155 -6.0507965
v 2.2014217 5.2104454 -4.07975
v 0.5120373 3.4805155 -6.0507975
v 4.075039 3.4805155 -6.0507965
v 2.2611065 5.2279787 -6.0507975
v -3.3975182 6.982879 -4.1737566
v 3.3975182 6.982879 -4.1737566
v -0.0 10.416702 -4.1737566
v -3.3975182 6.982879 -4.1737566
v 3.3975182 0.008267713 -4.1737566
v 3.3975182 6.982879 -4.1737566
v -3.3975182 0.008267713 -4.1737566
v 0.51534843 0.008267794 -4.079751
v 4.075037 3.4780877 -4.07975
v 4.075037 0.008267794 -4.07975
v 0.51369286 3.4780877 -4.07975
v 2.2014217 5.2104454 -4.07975
v 4.075037 3.4780877 -4.07975
v 0.51369286 3.4780877 -4.07975
vn -0.7162721 0.6978196 0.0014611635
vn -0.7162721 0.6978196 0.0014611635
vn -0.7162721 0.69781953 0.0014611634
vn -0.7067013 0.7073508 -0.015107248
vn -0.0 0.0 -1.0
vn -0.0 0.0 -1.0
vn -0.0 0.0 -1.0
vn -0.0 0.0 -1.0
vn 1.0 0.0 0.0
vn 1.0 0.0 0.0
vn 1.0 0.0 0.0
vn 1.0 0.0 0.0
vn 0.7108547 0.70333886 0.0
vn 0.7108547 0.70333886 0.0
vn 0.7108547 0.70333886 0.0
vn 0.71085465 0.703339 0.0
vn -1.0 0.0 0.0
vn -1.0 0.0 0.0
vn -1.0 0.0 0.0
vn -1.0 0.0 0.0
vn -0.0 0.0 1.0
vn -0.0 0.0 1.0
vn -0.0 0.0 1.0
vn -0.0 0.0 1.0
vn -0.0 0.0 1.0
vn 1.0 0.0 0.0
vn 1.0 0.0 0.0
vn 1.0 0.0 0.0
vn 1.0 0.0 0.0
vn -0.71085465 0.7033389 0.0
vn -0.7108547 0.70333886 0.0
vn -0.7108547 0.70333886 0.0
vn -0.71085465 0.703339 0.0
vn -0.99999905 -1.5682826E-4 0.001403624
vn -0.9999994 -3.2018553E-4 0.0011158497
vn -0.9999995 -4.771368E-4 8.3936047E-4
vn -0.99999857 0.0 0.0016798958
vn 0.6874745 0.7261099 0.011964275
vn 0.68506706 0.7283015 0.016125577
vn 0.6937884 0.72017837 8.877438E-4
vn 0.6786375 0.7339741 0.027078647
vn -0.0 0.0 -1.0
vn -0.0 0.0 -1.0
vn -0.0 0.0 -1.0
vn -0.0 0.0 -1.0
vn -0.0 0.0 -1.0
vn -0.0 0.0 -1.0
vn -0.0 0.0 -1.0
vn -0.0 0.0 -1.0
vn -0.0 0.0 -1.0
vn -0.0 0.0 -1.0
vn -0.0 0.0 1.0
vn -0.0 0.0 1.0
vn -0.0 0.0 1.0
vn -0.0 0.0 1.0
vn -0.0 0.0 1.0
vn -0.0 0.0 1.0
vn -0.0 0.0 1.0
vt 0.7431243 0.24632555
vt 0.7182402 0.2726891
vt 0.7182402 0.24628866
vt 0.7431243 0.27295625
vt 0.41334513 0.16190821
vt 0.3632113 0.12613022
vt 0.41334558 0.1261304
vt 0.363211 0.16190761
vt 0.6855619 0.369644
vt 0.66084176 0.32430518
vt 0.66084176 0.369644
vt 0.6855619 0.3242998
vt 0.6855619 0.22038287
vt 0.8348838 0.26962507
vt 0.8348838 0.22038287
vt 0.6855619 0.2696252
vt 0.6865381 0.37007004
vt 0.83481175 0.26957178
vt 0.83481175 0.37007004
vt 0.6865381 0.26957178
vt 0.31844625 0.11450267
vt 0.43287596 0.009233475
vt 0.43287602 0.11450267
vt 0.31844625 0.009233475
vt 0.48570302 0.061965346
vt 0.8348838 0.36964387
vt 0.6855619 0.2696252
vt 0.6855619 0.369644
vt 0.8348838 0.26962507
vt 0.6865381 0.26957178
vt 0.83481175 0.22009313
vt 0.83481175 0.26957178
vt 0.6865381 0.22009313
vt 0.68629843 0.36984563
vt 0.6610236 0.32237208
vt 0.68629843 0.3224154
vt 0.66102356 0.36984563
vt 0.6897617 0.27373558
vt 0.7146459 0.24706799
vt 0.7146458 0.27369863
vt 0.6897618 0.24733514
vt 0.41492593 0.16823822
vt 0.41492638 0.11980027
vt 0.4406974 0.1443451
vt 0.47114626 0.2297774
vt 0.47114626 0.12656212
vt 0.52371025 0.17857045
vt 0.4660208 0.23033094
vt 0.36375165 0.12689096
vt 0.4660208 0.12689096
vt 0.36375165 0.23033094
vt 0.7073377 0.36987478
vt 0.6709794 0.3244154
vt 0.6709793 0.36987472
vt 0.70735455 0.32441556
vt 0.44047984 0.14472252
vt 0.4148684 0.17003512
vt 0.41486827 0.120418906

g House_09
s 1
usemtl House_09
f 3/3/3 2/2/2 1/1/1 
f 4/4/4 1/1/1 2/2/2 
f 7/7/7 6/6/6 5/5/5 
f 8/8/8 5/5/5 6/6/6 
f 11/11/11 10/10/10 9/9/9 
f 12/12/12 9/9/9 10/10/10 
f 15/15/15 14/14/14 13/13/13 
f 16/16/16 13/13/13 14/14/14 
f 19/19/19 18/18/18 17/17/17 
f 20/20/20 17/17/17 18/18/18 
f 23/23/23 22/22/22 21/21/21 
f 24/24/24 21/21/21 22/22/22 
f 25/25/25 22/22/22 23/23/23 
f 28/28/28 27/27/27 26/26/26 
f 29/29/29 26/26/26 27/27/27 
f 32/32/32 31/31/31 30/30/30 
f 33/33/33 30/30/30 31/31/31 
f 36/36/36 35/35/35 34/34/34 
f 37/37/37 34/34/34 35/35/35 
f 40/40/40 39/39/39 38/38/38 
f 41/41/41 38/38/38 39/39/39 
f 44/44/44 43/43/43 42/42/42 
f 47/47/47 46/46/46 45/45/45 
f 50/50/50 49/49/49 48/48/48 
f 51/51/51 48/48/48 49/49/49 
f 54/54/54 53/53/53 52/52/52 
f 55/55/55 52/52/52 53/53/53 
f 58/58/58 57/57/57 56/56/56 

