# Created by DisUnity v0.3.4
v 0.9367557 2.8935566 -8.518131
v 3.937109 3.7694683 -7.2159305
v 0.93675554 3.7694683 -7.215931
v 3.9371092 2.8935566 -8.51813
v -2.0635974 2.8935566 -8.518131
v -2.0635977 3.7694683 -7.2159314
v 0.9367557 0.008569717 -8.518131
v 3.9371092 2.8935566 -8.51813
v 0.9367557 2.8935566 -8.518131
v 3.9371092 0.008569717 -8.51813
v -2.0635974 0.008569717 -8.518131
v -2.0635974 2.8935566 -8.518131
v -2.0635977 0.008569717 -7.215931
v -2.0635974 2.8935566 -8.518131
v -2.0635977 3.7694683 -7.2159314
v -2.0635974 0.008569717 -8.518131
v -2.0635984 0.008569717 -3.481772
v -2.0635984 6.4412155 -3.481772
v -2.0635977 6.4412136 -7.2159314
v 0.93675315 0.008569717 8.518129
v -2.0636 6.5593424 8.518129
v 0.93675315 6.5593424 8.518129
v -2.0636 0.008569717 8.518129
v -3.9371092 6.5593424 8.518129
v -3.9371092 0.008569717 8.518129
v 3.9371066 0.008569717 8.518129
v 3.9371066 6.5593424 8.518129
v 3.9371083 0.008569717 -3.481771
v 3.937109 3.7694683 -7.2159305
v 3.937109 0.008569717 -7.2159305
v 3.9371083 6.4412155 -3.481771
v 3.937108 6.4412155 -1.0711555
v 3.937108 0.008569717 -1.0711555
v 3.9371092 0.008569717 -8.51813
v 3.9371092 2.8935566 -8.51813
v 3.937109 6.4412136 -7.21593
v 0.936755 8.640031 -3.4817715
v 3.937108 6.4412155 -1.0711555
v 0.93675464 8.640031 -1.071156
v 3.9371083 6.4412155 -3.481771
v 0.93675554 8.640031 -7.215931
v 3.937109 6.4412136 -7.21593
v 0.93675405 8.662419 2.7328353
v -3.9371073 6.4412155 -3.4817722
v -3.9371078 0.008569717 -1.071157
v -3.9371073 0.008569717 -3.4817722
v -3.9371078 6.4412155 -1.071157
v 3.937108 6.4412155 -1.0711555
v 3.9371073 0.008569717 3.7234874
v 3.9371073 9.005437 3.7234874
v 3.937108 0.008569717 -1.0711555
v 3.9371066 6.5593424 8.518129
v 3.9371066 0.008569717 8.518129
v 0.93675405 8.662419 2.7328353
v 3.9371073 9.005437 3.7234874
v 0.93675387 9.005437 3.7234874
v 3.937108 6.4412155 -1.0711555
v 0.93675405 8.662419 2.7328353
v -2.0635993 9.005437 3.7234874
v -2.0635986 6.4412155 -1.0711565
v -3.9371083 9.005437 3.7234864
v -3.9371078 6.4412155 -1.071157
v -3.9371078 0.008569717 -1.071157
v -3.9371083 9.005437 3.7234864
v -3.9371083 0.008569717 3.7234864
v -3.9371078 6.4412155 -1.071157
v -3.9371092 0.008569717 8.518129
v -3.9371092 6.5593424 8.518129
v -2.0635984 6.4412155 -3.481772
v -3.9371073 0.008569717 -3.4817722
v -2.0635984 0.008569717 -3.481772
v -3.9371073 6.4412155 -3.4817722
v -2.0635993 9.005437 3.7234874
v -3.9371092 6.5593424 8.518129
v -3.9371083 9.005437 3.7234864
v -2.0636 6.5593424 8.518129
v 0.93675387 9.005437 3.7234874
v 0.93675315 6.5593424 8.518129
v 3.9371066 6.5593424 8.518129
v 3.9371073 9.005437 3.7234874
v -2.0635986 6.4412155 -1.0711565
v -3.9371073 6.4412155 -3.4817722
v -2.0635984 6.4412155 -3.481772
v -3.9371078 6.4412155 -1.071157
v -2.0635984 6.4412155 -3.481772
v 0.93675554 8.640031 -7.215931
v 0.936755 8.640031 -3.4817715
v -2.0635977 6.4412136 -7.2159314
v 0.93675464 8.640031 -1.071156
v -2.0635986 6.4412155 -1.0711565
v 0.93675405 8.662419 2.7328353
v -2.0635977 6.4412136 -7.2159314
v 0.93675554 6.4412136 -7.215931
v 0.93675554 8.640031 -7.215931
v 3.937109 6.4412136 -7.21593
v 3.937109 6.4412136 -7.21593
v 0.93675554 3.7694683 -7.215931
v 3.937109 3.7694683 -7.2159305
v 0.93675554 6.4412136 -7.215931
v -2.0635977 6.4412136 -7.2159314
v -2.0635977 3.7694683 -7.2159314
vn -0.0 0.8297557 -0.55812675
vn -0.0 0.8297557 -0.5581268
vn -0.0 0.8297557 -0.5581267
vn -0.0 0.82975566 -0.5581269
vn -0.0 0.8297557 -0.5581268
vn -0.0 0.82975566 -0.5581269
vn -0.0 0.0 -1.0
vn -0.0 0.0 -1.0
vn -0.0 0.0 -1.0
vn -0.0 0.0 -1.0
vn -0.0 0.0 -1.0
vn -0.0 0.0 -1.0
vn -1.0 0.0 0.0
vn -1.0 0.0 0.0
vn -1.0 0.0 0.0
vn -1.0 0.0 0.0
vn -1.0 0.0 0.0
vn -1.0 0.0 0.0
vn -1.0 0.0 0.0
vn -0.0 0.0 1.0
vn -0.0 0.0 1.0
vn -0.0 0.0 1.0
vn -0.0 0.0 1.0
vn -0.0 0.0 1.0
vn -0.0 0.0 1.0
vn -0.0 0.0 1.0
vn -0.0 0.0 1.0
vn 1.0 0.0 0.0
vn 1.0 0.0 0.0
vn 1.0 0.0 0.0
vn 1.0 0.0 0.0
vn 1.0 0.0 0.0
vn 1.0 0.0 0.0
vn 1.0 0.0 0.0
vn 1.0 0.0 0.0
vn 1.0 0.0 0.0
vn 0.59111124 0.8065901 0.0
vn 0.59111047 0.80658907 -0.0015949112
vn 0.5911096 0.80658776 -0.0023761154
vn 0.59111136 0.80659 0.0
vn 0.59111136 0.80658996 0.0
vn 0.59111154 0.8065898 0.0
vn 0.5911046 0.80658096 -0.004747054
vn -1.0 0.0 0.0
vn -1.0 0.0 0.0
vn -1.0 0.0 0.0
vn -1.0 0.0 0.0
vn 1.0 0.0 0.0
vn 1.0 0.0 0.0
vn 1.0 0.0 0.0
vn 1.0 0.0 0.0
vn 1.0 0.0 0.0
vn 1.0 0.0 0.0
vn 0.028251477 0.9150292 -0.402397
vn 0.043218955 0.89633936 -0.44125703
vn -0.0 0.94495666 -0.32719535
vn 0.054816365 0.88048595 -0.47089237
vn -0.028251454 0.9150292 -0.402397
vn -0.021621957 0.88941073 -0.4565973
vn -0.015136643 0.8817108 -0.4715474
vn -0.0 0.8818118 -0.4716014
vn -0.0 0.8818118 -0.47160146
vn -1.0 0.0 0.0
vn -1.0 0.0 0.0
vn -1.0 0.0 0.0
vn -1.0 0.0 0.0
vn -1.0 0.0 0.0
vn -1.0 0.0 0.0
vn -0.0 0.0 -1.0
vn -0.0 0.0 -1.0
vn -0.0 0.0 -1.0
vn -0.0 0.0 -1.0
vn -0.0 0.8907733 0.45444798
vn -0.0 0.8907732 0.454448
vn -0.0 0.8907733 0.45444798
vn -0.0 0.8907732 0.454448
vn -0.0 0.8907733 0.454448
vn -0.0 0.8907733 0.454448
vn -0.0 0.8907733 0.454448
vn -0.0 0.8907733 0.454448
vn -0.0 1.0 0.0
vn -0.0 1.0 0.0
vn -0.0 1.0 0.0
vn -0.0 1.0 0.0
vn -0.5911113 0.80659 0.0
vn -0.5911114 0.80658996 0.0
vn -0.5911112 0.8065901 0.0
vn -0.59111154 0.8065898 0.0
vn -0.5911096 0.80658776 -0.0023762905
vn -0.59111047 0.80658907 -0.0015950582
vn -0.59110457 0.80658096 -0.004747239
vn -0.0 0.0 -1.0
vn -0.0 0.0 -1.0
vn -0.0 0.0 -1.0
vn -0.0 0.0 -1.0
vn -0.0 0.0 -1.0
vn -0.0 0.0 -1.0
vn -0.0 0.0 -1.0
vn -0.0 0.0 -1.0
vn -0.0 0.0 -1.0
vn -0.0 0.0 -1.0
vt 0.20067275 0.5284604
vt 0.14911675 0.5122262
vt 0.20067275 0.5122262
vt 0.14911675 0.5284604
vt 0.25222874 0.5284604
vt 0.25222874 0.5122262
vt 0.7602704 0.5306505
vt 0.71187264 0.48411387
vt 0.7602704 0.48411387
vt 0.71187264 0.5306505
vt 0.8086684 0.5306505
vt 0.8086684 0.48411387
vt 0.7397928 0.68265116
vt 0.718298 0.6318687
vt 0.7397928 0.6195431
vt 0.718298 0.68265116
vt 0.8017861 0.68265116
vt 0.8017861 0.5723318
vt 0.7397928 0.5723318
vt 0.93863004 0.5301266
vt 0.88895816 0.42167592
vt 0.93863004 0.42167592
vt 0.88895816 0.5301266
vt 0.8579413 0.42167592
vt 0.8579413 0.5301266
vt 0.9883022 0.5301266
vt 0.9883022 0.42167586
vt 0.95139205 0.68265116
vt 0.88950324 0.6201277
vt 0.88950324 0.68265116
vt 0.95139205 0.5758469
vt 0.99134487 0.5758469
vt 0.99134487 0.68265116
vt 0.8679209 0.68265116
vt 0.8679209 0.63464475
vt 0.88950324 0.5758469
vt 0.19892323 0.44435608
vt 0.14925843 0.40671194
vt 0.19892323 0.40671194
vt 0.14925843 0.44435608
vt 0.19892323 0.5106162
vt 0.14925843 0.5106162
vt 0.19892323 0.3473088
vt 0.8019064 0.5722303
vt 0.8318485 0.68265116
vt 0.8019064 0.68265116
vt 0.8318485 0.5722303
vt 0.99164176 0.5752701
vt 0.9129174 0.68265116
vt 0.9129164 0.533167
vt 0.99164176 0.68265116
vt 0.83419204 0.57333106
vt 0.83419204 0.68265116
vt 0.19892323 0.3473088
vt 0.14925843 0.33183873
vt 0.19892323 0.33183873
vt 0.14925843 0.40671194
vt 0.19892323 0.3473088
vt 0.24858797 0.33183873
vt 0.24858797 0.40671194
vt 0.27960008 0.33183873
vt 0.27960008 0.40671194
vt 0.8338479 0.68265116
vt 0.91283214 0.53366005
vt 0.91283226 0.68265116
vt 0.8338479 0.57214916
vt 0.9913473 0.68265116
vt 0.99128157 0.57239455
vt 0.8098491 0.4238444
vt 0.83886784 0.5317988
vt 0.80984914 0.5317988
vt 0.8388678 0.4238444
vt 0.24858797 0.33183873
vt 0.27960008 0.25696558
vt 0.27960008 0.33183873
vt 0.24858797 0.25696558
vt 0.19892323 0.33183873
vt 0.19892323 0.25696558
vt 0.14925843 0.25696558
vt 0.14925843 0.33183873
vt 0.24858797 0.40671194
vt 0.27960008 0.44435608
vt 0.24858797 0.44435608
vt 0.27960008 0.40671194
vt 0.24858797 0.44435608
vt 0.19892323 0.5106162
vt 0.19892323 0.44435608
vt 0.24858797 0.5106162
vt 0.19892323 0.40671194
vt 0.24858797 0.40671194
vt 0.19892323 0.3473088
vt 0.8075512 0.44131744
vt 0.75960326 0.44131744
vt 0.7601913 0.39285642
vt 0.71118057 0.44131744
vt 0.7215709 0.43803668
vt 0.76102024 0.4698859
vt 0.7215709 0.4698859
vt 0.76102024 0.43803668
vt 0.7996793 0.43803668
vt 0.7996793 0.4698859

g House_04
s 1
usemtl House_04
f 3/3/3 2/2/2 1/1/1 
f 4/4/4 1/1/1 2/2/2 
f 1/1/1 5/5/5 3/3/3 
f 6/6/6 3/3/3 5/5/5 
f 9/9/9 8/8/8 7/7/7 
f 10/10/10 7/7/7 8/8/8 
f 7/7/7 11/11/11 9/9/9 
f 12/12/12 9/9/9 11/11/11 
f 15/15/15 14/14/14 13/13/13 
f 16/16/16 13/13/13 14/14/14 
f 13/13/13 17/17/17 15/15/15 
f 18/18/18 15/15/15 17/17/17 
f 19/19/19 15/15/15 18/18/18 
f 22/22/22 21/21/21 20/20/20 
f 23/23/23 20/20/20 21/21/21 
f 21/21/21 24/24/24 23/23/23 
f 25/25/25 23/23/23 24/24/24 
f 20/20/20 26/26/26 22/22/22 
f 27/27/27 22/22/22 26/26/26 
f 30/30/30 29/29/29 28/28/28 
f 31/31/31 28/28/28 29/29/29 
f 31/31/31 32/32/32 28/28/28 
f 33/33/33 28/28/28 32/32/32 
f 30/30/30 34/34/34 29/29/29 
f 35/35/35 29/29/29 34/34/34 
f 36/36/36 31/31/31 29/29/29 
f 39/39/39 38/38/38 37/37/37 
f 40/40/40 37/37/37 38/38/38 
f 37/37/37 40/40/40 41/41/41 
f 42/42/42 41/41/41 40/40/40 
f 39/39/39 43/43/43 38/38/38 
f 46/46/46 45/45/45 44/44/44 
f 47/47/47 44/44/44 45/45/45 
f 50/50/50 49/49/49 48/48/48 
f 51/51/51 48/48/48 49/49/49 
f 50/50/50 52/52/52 49/49/49 
f 53/53/53 49/49/49 52/52/52 
f 56/56/56 55/55/55 54/54/54 
f 57/57/57 54/54/54 55/55/55 
f 59/59/59 56/56/56 58/58/58 
f 59/59/59 58/58/58 60/60/60 
f 59/59/59 60/60/60 61/61/61 
f 62/62/62 61/61/61 60/60/60 
f 65/65/65 64/64/64 63/63/63 
f 66/66/66 63/63/63 64/64/64 
f 65/65/65 67/67/67 64/64/64 
f 68/68/68 64/64/64 67/67/67 
f 71/71/71 70/70/70 69/69/69 
f 72/72/72 69/69/69 70/70/70 
f 75/75/75 74/74/74 73/73/73 
f 76/76/76 73/73/73 74/74/74 
f 73/73/73 76/76/76 77/77/77 
f 78/78/78 77/77/77 76/76/76 
f 78/78/78 79/79/79 77/77/77 
f 80/80/80 77/77/77 79/79/79 
f 83/83/83 82/82/82 81/81/81 
f 84/84/84 81/81/81 82/82/82 
f 87/87/87 86/86/86 85/85/85 
f 88/88/88 85/85/85 86/86/86 
f 87/87/87 85/85/85 89/89/89 
f 90/90/90 89/89/89 85/85/85 
f 89/89/89 90/90/90 91/91/91 
f 94/94/94 93/93/93 92/92/92 
f 95/95/95 93/93/93 94/94/94 
f 98/98/98 97/97/97 96/96/96 
f 99/99/99 96/96/96 97/97/97 
f 99/99/99 97/97/97 100/100/100 
f 101/101/101 100/100/100 97/97/97 

