# Created by DisUnity v0.3.4
v -0.0 1.0 0.0
v -0.077607 0.96795 -0.238853
v 0.203181 0.96795 -0.147618
v -0.251147 0.967949 0.0
v -0.077607 0.96795 0.238853
v 0.203181 0.96795 0.147618
v 0.138199 0.894429 -0.425321
v -0.162456 0.850654 -0.499995
v 0.05279 0.723612 -0.688185
v -0.232822 0.657519 -0.716563
v -0.029639 0.502302 -0.864184
v -0.276388 0.44722 -0.850649
v -0.155215 0.251151 -0.955422
v -0.436007 0.251152 -0.864188
v 0.262869 0.525738 -0.809012
v 0.361805 0.723611 -0.587779
v 0.531941 0.502302 -0.681712
v 0.425323 0.850654 -0.309011
v 0.609547 0.657519 -0.442856
v 0.723607 0.447219 -0.525725
v 0.812729 0.502301 -0.295238
v 0.860698 0.251151 -0.442858
v 0.687159 0.251152 -0.681715
v 0.670818 0.72361 -0.162458
v 0.850648 0.525736 0.0
v 0.670817 0.723611 0.162457
v 0.812729 0.502301 0.295238
v 0.609547 0.657519 0.442856
v 0.723607 0.44722 0.525725
v 0.425323 0.850654 0.309011
v 0.447211 0.894428 -1.0E-6
v 0.531941 0.502302 0.681712
v 0.687159 0.251152 0.681715
v 0.860698 0.251151 0.442858
v 0.361803 0.723612 0.587779
v 0.138197 0.894429 0.425321
v 0.262869 0.525738 0.809012
v 0.052789 0.723611 0.688186
v -0.029639 0.502302 0.864184
v -0.162456 0.850654 0.499995
v -0.361801 0.894429 0.262862
v -0.447211 0.723612 0.525727
v -0.232822 0.657519 0.716563
v -0.483971 0.502302 0.716564
v -0.276388 0.44722 0.850649
v -0.436007 0.251152 0.864188
v -0.155215 0.251152 0.955422
v -0.688189 0.525736 0.499997
v -0.638195 0.723609 0.262863
v -0.831051 0.502299 0.238853
v -0.52573 0.850652 0.0
v -0.361801 0.894428 -0.262864
v -0.638195 0.723609 -0.262864
v -0.753442 0.657515 0.0
v -0.831051 0.502299 -0.238853
v -0.894426 0.447216 0.0
v -0.956626 0.251149 -0.147618
v -0.956626 0.251149 0.147618
v -0.688189 0.525736 -0.499997
v -0.447211 0.72361 -0.525729
v -0.483971 0.502302 -0.716565
v -0.861803 0.276396 -0.425324
v -0.951058 0.0 -0.309013
v -0.809018 0.0 -0.587783
v -0.860698 -0.251151 -0.442858
v -0.687159 -0.251152 -0.681715
v -0.723607 -0.44722 -0.525725
v -0.587786 0.0 -0.809017
v -0.670819 0.276397 -0.688191
v -0.531941 -0.502302 -0.681712
v -0.609547 -0.657519 -0.442856
v -0.447216 -0.276397 -0.850648
v -0.309017 0.0 -0.951056
v -0.262869 -0.525738 -0.809012
v -0.138199 -0.276397 -0.951055
v 0.029639 -0.502302 -0.864184
v -0.0 0.0 -1.0
v 0.138199 0.276397 -0.951055
v 0.309017 0.0 -0.951056
v 0.155215 -0.251152 -0.955422
v 0.436007 -0.251152 -0.864188
v 0.276388 -0.44722 -0.850649
v 0.587786 0.0 -0.809017
v 0.447216 0.276398 -0.850648
v 0.483971 -0.502302 -0.716564
v 0.232822 -0.657519 -0.716563
v 0.67082 -0.276396 -0.68819
v 0.809019 0.0 -0.587783
v 0.688189 -0.525736 -0.499997
v 0.861804 -0.276394 -0.425323
v 0.831051 -0.502299 -0.238853
v 0.951058 0.0 -0.309013
v 0.947213 0.276396 -0.162458
v 1.0 0.0 0.0
v 0.956626 -0.251149 -0.147618
v 0.956626 -0.251149 0.147618
v 0.894426 -0.447216 0.0
v 0.951058 0.0 0.309013
v 0.947213 0.276396 0.162458
v 0.831051 -0.502299 0.238853
v 0.753442 -0.657515 0.0
v 0.861804 -0.276396 0.425322
v 0.809019 0.0 0.587782
v 0.688189 -0.525736 0.499997
v 0.670821 -0.276397 0.688189
v 0.483971 -0.502302 0.716565
v 0.587786 0.0 0.809017
v 0.447216 0.276398 0.850648
v 0.309017 0.0 0.951056
v 0.436007 -0.251152 0.864188
v 0.155215 -0.251151 0.955422
v 0.276388 -0.44722 0.850649
v -0.0 0.0 1.0
v 0.138199 0.276398 0.951055
v 0.029639 -0.502302 0.864184
v 0.232822 -0.657519 0.716563
v -0.138199 -0.276397 0.951055
v -0.309016 0.0 0.951057
v -0.262869 -0.525738 0.809012
v -0.447215 -0.276397 0.850649
v -0.531941 -0.502302 0.681712
v -0.587786 0.0 0.809017
v -0.670819 0.276397 0.688191
v -0.809018 0.0 0.587783
v -0.687159 -0.251152 0.681715
v -0.860698 -0.251151 0.442858
v -0.723607 -0.447219 0.525725
v -0.951058 0.0 0.309013
v -0.861803 0.276396 0.425324
v -0.812729 -0.502301 0.295238
v -0.609547 -0.657519 0.442856
v -0.947213 -0.276396 0.162458
v -1.0 0.0 0.0
v -0.850648 -0.525736 0.0
v -0.947213 -0.276397 -0.162458
v -0.812729 -0.502301 -0.295238
v -0.670817 -0.723611 0.162457
v -0.425323 -0.850654 0.309011
v -0.44721 -0.894429 0.0
v -0.203181 -0.96795 0.147618
v -0.203181 -0.96795 -0.147618
v -0.0 -1.0 0.0
v 0.077607 -0.96795 -0.238853
v 0.251147 -0.967949 0.0
v 0.3618 -0.894429 -0.262863
v 0.162456 -0.850654 -0.499995
v 0.52573 -0.850652 0.0
v 0.447209 -0.723612 -0.525728
v 0.638194 -0.72361 -0.262864
v -0.138197 -0.89443 -0.425319
v -0.425323 -0.850654 -0.309011
v -0.361804 -0.723612 -0.587778
v -0.05279 -0.723612 -0.688185
v -0.670817 -0.723611 -0.162457
v 0.077607 -0.96795 0.238853
v -0.138197 -0.89443 0.42532
v 0.162456 -0.850654 0.499995
v -0.05279 -0.723612 0.688185
v -0.361804 -0.723612 0.587779
v 0.3618 -0.894429 0.262863
v 0.638194 -0.72361 0.262864
v 0.447209 -0.723612 0.525728
vn -0.0 1.0 0.0
vn -0.08057053 0.9654119 -0.247968
vn 0.21094722 0.965407 -0.15326634
vn -0.26075375 0.96540534 0.0
vn -0.08057053 0.9654119 0.247968
vn 0.21094722 0.965407 0.15326634
vn 0.1406323 0.8904271 -0.43285328
vn -0.16245268 0.85065633 -0.4999929
vn 0.05920685 0.7275423 -0.6835034
vn -0.23078665 0.6649841 -0.7103053
vn -0.019837735 0.50381744 -0.8635824
vn -0.27637836 0.44722268 -0.85065085
vn -0.15021664 0.24305676 -0.9583101
vn -0.44173193 0.24305329 -0.863596
vn 0.2628661 0.5257322 -0.80901605
vn 0.3538396 0.72754717 -0.58776927
vn 0.5236525 0.5038148 -0.6869925
vn 0.42531475 0.85066 -0.30900627
vn 0.6042211 0.664985 -0.43898964
vn 0.7236064 0.44722602 -0.52572095
vn 0.8151942 0.5038084 -0.2857193
vn 0.8649965 0.24305233 -0.4389835
vn 0.68481827 0.24305417 -0.68698514
vn 0.6683425 0.7275499 -0.15488552
vn 0.8506571 0.5257209 0.0
vn 0.6683425 0.7275499 0.15488552
vn 0.8151942 0.5038084 0.2857193
vn 0.6042211 0.664985 0.43898964
vn 0.7236064 0.44722602 0.52572095
vn 0.42531475 0.85066 0.30900627
vn 0.45513093 0.8904245 0.0
vn 0.5236525 0.5038148 0.6869925
vn 0.68481827 0.24305417 0.68698514
vn 0.8649965 0.24305233 0.4389835
vn 0.3538396 0.72754717 0.58776927
vn 0.1406323 0.8904271 0.43285328
vn 0.2628661 0.5257322 0.80901605
vn 0.05920685 0.7275423 0.6835034
vn -0.019837735 0.50381744 0.8635824
vn -0.16245268 0.85065633 0.4999929
vn -0.368214 0.8904279 0.2675007
vn -0.44964275 0.72755265 0.51815885
vn -0.23078665 0.6649841 0.7103053
vn -0.49154934 0.5038183 0.7103142
vn -0.27637836 0.44722268 0.85065085
vn -0.44173193 0.24305329 0.863596
vn -0.15021664 0.24305676 0.9583101
vn -0.68818784 0.5257317 0.50000364
vn -0.6317517 0.7275522 0.2675026
vn -0.82746065 0.503807 0.24796657
vn -0.5257209 0.8506571 0.0
vn -0.368214 0.8904279 -0.2675007
vn -0.6317517 0.7275522 -0.2675026
vn -0.7468618 0.6649792 0.0
vn -0.82746065 0.503807 -0.24796657
vn -0.89443326 0.44720137 0.0
vn -0.9578289 0.24305081 -0.15326484
vn -0.9578289 0.24305081 0.15326484
vn -0.68818784 0.5257317 -0.50000364
vn -0.44964275 0.72755265 -0.51815885
vn -0.49154934 0.5038183 -0.7103142
vn -0.8593212 0.27241185 -0.43284982
vn -0.9510608 0.0 -0.30900395
vn -0.8089881 0.008850405 -0.5877585
vn -0.8649965 -0.24305233 -0.4389835
vn -0.68481827 -0.24305417 -0.68698514
vn -0.7236064 -0.44722602 -0.52572095
vn -0.58776695 0.0 -0.80903023
vn -0.6772139 0.2724115 -0.68350077
vn -0.5236525 -0.5038148 -0.6869925
vn -0.6042211 -0.664985 -0.43898964
vn -0.4407661 -0.27241924 -0.8552853
vn -0.30900082 -0.008850395 -0.95102066
vn -0.2628661 -0.5257322 -0.80901605
vn -0.14612739 -0.2724171 -0.9510183
vn 0.019837735 -0.50381744 -0.8635824
vn -0.0 0.0 -1.0
vn 0.14612739 0.2724171 -0.9510183
vn 0.30900082 0.008850395 -0.95102066
vn 0.15021664 -0.24305676 -0.9583101
vn 0.44173193 -0.24305329 -0.863596
vn 0.27637836 -0.44722268 -0.85065085
vn 0.58776695 0.0 -0.80903023
vn 0.4407661 0.27241924 -0.8552853
vn 0.49154934 -0.5038183 -0.7103142
vn 0.23078665 -0.6649841 -0.7103053
vn 0.6772139 -0.2724115 -0.68350077
vn 0.8089881 -0.008850405 -0.5877585
vn 0.68818784 -0.5257317 -0.50000364
vn 0.8593212 -0.27241185 -0.43284982
vn 0.82746065 -0.503807 -0.24796657
vn 0.9510608 0.0 -0.30900395
vn 0.9496324 0.27241352 -0.15488444
vn 0.9999609 0.008850561 0.0
vn 0.9578289 -0.24305081 -0.15326484
vn 0.9578289 -0.24305081 0.15326484
vn 0.89443326 -0.44720137 0.0
vn 0.9510608 0.0 0.30900395
vn 0.9496324 0.27241352 0.15488444
vn 0.82746065 -0.503807 0.24796657
vn 0.7468618 -0.6649792 0.0
vn 0.8593212 -0.27241185 0.43284982
vn 0.8089881 -0.008850405 0.5877585
vn 0.68818784 -0.5257317 0.50000364
vn 0.6772139 -0.2724115 0.68350077
vn 0.49154934 -0.5038183 0.7103142
vn 0.58776695 0.0 0.80903023
vn 0.4407661 0.27241924 0.8552853
vn 0.30900082 0.008850395 0.95102066
vn 0.44173193 -0.24305329 0.863596
vn 0.15021664 -0.24305676 0.9583101
vn 0.27637836 -0.44722268 0.85065085
vn -0.0 0.0 1.0
vn 0.14612739 0.2724171 0.9510183
vn 0.019837735 -0.50381744 0.8635824
vn 0.23078665 -0.6649841 0.7103053
vn -0.14612739 -0.2724171 0.9510183
vn -0.30900082 -0.008850395 0.95102066
vn -0.2628661 -0.5257322 0.80901605
vn -0.4407661 -0.27241924 0.8552853
vn -0.5236525 -0.5038148 0.6869925
vn -0.58776695 0.0 0.80903023
vn -0.6772139 0.2724115 0.68350077
vn -0.8089881 0.008850405 0.5877585
vn -0.68481827 -0.24305417 0.68698514
vn -0.8649965 -0.24305233 0.4389835
vn -0.7236064 -0.44722602 0.52572095
vn -0.9510608 0.0 0.30900395
vn -0.8593212 0.27241185 0.43284982
vn -0.8151942 -0.5038084 0.2857193
vn -0.6042211 -0.664985 0.43898964
vn -0.9496324 -0.27241352 0.15488444
vn -0.9999609 -0.008850561 0.0
vn -0.8506571 -0.5257209 0.0
vn -0.9496324 -0.27241352 -0.15488444
vn -0.8151942 -0.5038084 -0.2857193
vn -0.6683425 -0.7275499 0.15488552
vn -0.42531475 -0.85066 0.30900627
vn -0.45513093 -0.8904245 0.0
vn -0.21094722 -0.965407 0.15326634
vn -0.2109482 -0.9654115 -0.15323652
vn -0.0 -1.0 0.0
vn 0.08057053 -0.9654119 -0.247968
vn 0.26075375 -0.96540534 0.0
vn 0.368214 -0.8904279 -0.2675007
vn 0.16245268 -0.85065633 -0.4999929
vn 0.5257209 -0.8506571 0.0
vn 0.44964275 -0.72755265 -0.51815885
vn 0.6317517 -0.7275522 -0.2675026
vn -0.1406323 -0.8904271 -0.43285328
vn -0.42531475 -0.85066 -0.30900627
vn -0.35384592 -0.72756016 -0.58774924
vn -0.05920685 -0.7275423 -0.6835034
vn -0.6683425 -0.7275499 -0.15488552
vn 0.08057053 -0.9654119 0.247968
vn -0.1406323 -0.8904271 0.43285328
vn 0.16245268 -0.85065633 0.4999929
vn -0.05920685 -0.7275423 0.6835034
vn -0.35384592 -0.72756016 0.58774924
vn 0.368214 -0.8904279 0.2675007
vn 0.6317517 -0.7275522 0.2675026
vn 0.44964275 -0.72755265 0.51815885
vt 0.0 1.0
vt 0.0 1.0
vt 0.0 1.0
vt 0.0 1.0
vt 0.0 1.0
vt 0.0 1.0
vt 0.0 1.0
vt 0.0 1.0
vt 0.0 1.0
vt 0.0 1.0
vt 0.0 1.0
vt 0.0 1.0
vt 0.0 1.0
vt 0.0 1.0
vt 0.0 1.0
vt 0.0 1.0
vt 0.0 1.0
vt 0.0 1.0
vt 0.0 1.0
vt 0.0 1.0
vt 0.0 1.0
vt 0.0 1.0
vt 0.0 1.0
vt 0.0 1.0
vt 0.0 1.0
vt 0.0 1.0
vt 0.0 1.0
vt 0.0 1.0
vt 0.0 1.0
vt 0.0 1.0
vt 0.0 1.0
vt 0.0 1.0
vt 0.0 1.0
vt 0.0 1.0
vt 0.0 1.0
vt 0.0 1.0
vt 0.0 1.0
vt 0.0 1.0
vt 0.0 1.0
vt 0.0 1.0
vt 0.0 1.0
vt 0.0 1.0
vt 0.0 1.0
vt 0.0 1.0
vt 0.0 1.0
vt 0.0 1.0
vt 0.0 1.0
vt 0.0 1.0
vt 0.0 1.0
vt 0.0 1.0
vt 0.0 1.0
vt 0.0 1.0
vt 0.0 1.0
vt 0.0 1.0
vt 0.0 1.0
vt 0.0 1.0
vt 0.0 1.0
vt 0.0 1.0
vt 0.0 1.0
vt 0.0 1.0
vt 0.0 1.0
vt 0.0 1.0
vt 0.0 1.0
vt 0.0 1.0
vt 0.0 1.0
vt 0.0 1.0
vt 0.0 1.0
vt 0.0 1.0
vt 0.0 1.0
vt 0.0 1.0
vt 0.0 1.0
vt 0.0 1.0
vt 0.0 1.0
vt 0.0 1.0
vt 0.0 1.0
vt 0.0 1.0
vt 0.0 1.0
vt 0.0 1.0
vt 0.0 1.0
vt 0.0 1.0
vt 0.0 1.0
vt 0.0 1.0
vt 0.0 1.0
vt 0.0 1.0
vt 0.0 1.0
vt 0.0 1.0
vt 0.0 1.0
vt 0.0 1.0
vt 0.0 1.0
vt 0.0 1.0
vt 0.0 1.0
vt 0.0 1.0
vt 0.0 1.0
vt 0.0 1.0
vt 0.0 1.0
vt 0.0 1.0
vt 0.0 1.0
vt 0.0 1.0
vt 0.0 1.0
vt 0.0 1.0
vt 0.0 1.0
vt 0.0 1.0
vt 0.0 1.0
vt 0.0 1.0
vt 0.0 1.0
vt 0.0 1.0
vt 0.0 1.0
vt 0.0 1.0
vt 0.0 1.0
vt 0.0 1.0
vt 0.0 1.0
vt 0.0 1.0
vt 0.0 1.0
vt 0.0 1.0
vt 0.0 1.0
vt 0.0 1.0
vt 0.0 1.0
vt 0.0 1.0
vt 0.0 1.0
vt 0.0 1.0
vt 0.0 1.0
vt 0.0 1.0
vt 0.0 1.0
vt 0.0 1.0
vt 0.0 1.0
vt 0.0 1.0
vt 0.0 1.0
vt 0.0 1.0
vt 0.0 1.0
vt 0.0 1.0
vt 0.0 1.0
vt 0.0 1.0
vt 0.0 1.0
vt 0.0 1.0
vt 0.0 1.0
vt 0.0 1.0
vt 0.0 1.0
vt 0.0 1.0
vt 0.0 1.0
vt 0.0 1.0
vt 0.0 1.0
vt 0.0 1.0
vt 0.0 1.0
vt 0.0 1.0
vt 0.0 1.0
vt 0.0 1.0
vt 0.0 1.0
vt 0.0 1.0
vt 0.0 1.0
vt 0.0 1.0
vt 0.0 1.0
vt 0.0 1.0
vt 0.0 1.0
vt 0.0 1.0
vt 0.0 1.0
vt 0.0 1.0
vt 0.0 1.0
vt 0.0 1.0
vt 0.0 1.0
vt 0.0 1.0
vt 0.0 1.0
vt 0.0 1.0

g Icosphere
s 1
usemtl Icosphere
f 3/3/3 2/2/2 1/1/1 
f 2/2/2 4/4/4 1/1/1 
f 4/4/4 5/5/5 1/1/1 
f 5/5/5 6/6/6 1/1/1 
f 1/1/1 6/6/6 3/3/3 
f 3/3/3 7/7/7 2/2/2 
f 7/7/7 8/8/8 2/2/2 
f 7/7/7 9/9/9 8/8/8 
f 9/9/9 10/10/10 8/8/8 
f 9/9/9 11/11/11 10/10/10 
f 11/11/11 12/12/12 10/10/10 
f 11/11/11 13/13/13 12/12/12 
f 13/13/13 14/14/14 12/12/12 
f 15/15/15 11/11/11 9/9/9 
f 16/16/16 9/9/9 7/7/7 
f 16/16/16 15/15/15 9/9/9 
f 17/17/17 15/15/15 16/16/16 
f 18/18/18 7/7/7 3/3/3 
f 18/18/18 16/16/16 7/7/7 
f 19/19/19 16/16/16 18/18/18 
f 19/19/19 17/17/17 16/16/16 
f 20/20/20 17/17/17 19/19/19 
f 19/19/19 21/21/21 20/20/20 
f 21/21/21 22/22/22 20/20/20 
f 22/22/22 23/23/23 20/20/20 
f 20/20/20 23/23/23 17/17/17 
f 19/19/19 24/24/24 21/21/21 
f 18/18/18 24/24/24 19/19/19 
f 24/24/24 25/25/25 21/21/21 
f 24/24/24 26/26/26 25/25/25 
f 26/26/26 27/27/27 25/25/25 
f 26/26/26 28/28/28 27/27/27 
f 28/28/28 29/29/29 27/27/27 
f 30/30/30 28/28/28 26/26/26 
f 31/31/31 26/26/26 24/24/24 
f 31/31/31 30/30/30 26/26/26 
f 18/18/18 31/31/31 24/24/24 
f 6/6/6 30/30/30 31/31/31 
f 3/3/3 31/31/31 18/18/18 
f 3/3/3 6/6/6 31/31/31 
f 32/32/32 29/29/29 28/28/28 
f 32/32/32 33/33/33 29/29/29 
f 33/33/33 34/34/34 29/29/29 
f 29/29/29 34/34/34 27/27/27 
f 35/35/35 28/28/28 30/30/30 
f 35/35/35 32/32/32 28/28/28 
f 36/36/36 30/30/30 6/6/6 
f 36/36/36 35/35/35 30/30/30 
f 37/37/37 32/32/32 35/35/35 
f 38/38/38 35/35/35 36/36/36 
f 38/38/38 37/37/37 35/35/35 
f 39/39/39 37/37/37 38/38/38 
f 5/5/5 36/36/36 6/6/6 
f 40/40/40 36/36/36 5/5/5 
f 40/40/40 38/38/38 36/36/36 
f 41/41/41 40/40/40 5/5/5 
f 41/41/41 42/42/42 40/40/40 
f 42/42/42 43/43/43 40/40/40 
f 43/43/43 38/38/38 40/40/40 
f 43/43/43 39/39/39 38/38/38 
f 42/42/42 44/44/44 43/43/43 
f 44/44/44 45/45/45 43/43/43 
f 45/45/45 39/39/39 43/43/43 
f 44/44/44 46/46/46 45/45/45 
f 46/46/46 47/47/47 45/45/45 
f 45/45/45 47/47/47 39/39/39 
f 48/48/48 44/44/44 42/42/42 
f 49/49/49 42/42/42 41/41/41 
f 49/49/49 48/48/48 42/42/42 
f 50/50/50 48/48/48 49/49/49 
f 4/4/4 41/41/41 5/5/5 
f 51/51/51 41/41/41 4/4/4 
f 51/51/51 49/49/49 41/41/41 
f 52/52/52 51/51/51 4/4/4 
f 52/52/52 53/53/53 51/51/51 
f 53/53/53 54/54/54 51/51/51 
f 54/54/54 49/49/49 51/51/51 
f 54/54/54 50/50/50 49/49/49 
f 53/53/53 55/55/55 54/54/54 
f 55/55/55 56/56/56 54/54/54 
f 56/56/56 50/50/50 54/54/54 
f 55/55/55 57/57/57 56/56/56 
f 57/57/57 58/58/58 56/56/56 
f 56/56/56 58/58/58 50/50/50 
f 59/59/59 55/55/55 53/53/53 
f 60/60/60 53/53/53 52/52/52 
f 60/60/60 59/59/59 53/53/53 
f 61/61/61 59/59/59 60/60/60 
f 2/2/2 52/52/52 4/4/4 
f 8/8/8 52/52/52 2/2/2 
f 8/8/8 60/60/60 52/52/52 
f 10/10/10 60/60/60 8/8/8 
f 10/10/10 61/61/61 60/60/60 
f 12/12/12 61/61/61 10/10/10 
f 55/55/55 62/62/62 57/57/57 
f 59/59/59 62/62/62 55/55/55 
f 62/62/62 63/63/63 57/57/57 
f 62/62/62 64/64/64 63/63/63 
f 64/64/64 65/65/65 63/63/63 
f 64/64/64 66/66/66 65/65/65 
f 66/66/66 67/67/67 65/65/65 
f 68/68/68 66/66/66 64/64/64 
f 69/69/69 64/64/64 62/62/62 
f 69/69/69 68/68/68 64/64/64 
f 59/59/59 69/69/69 62/62/62 
f 61/61/61 69/69/69 59/59/59 
f 14/14/14 68/68/68 69/69/69 
f 61/61/61 14/14/14 69/69/69 
f 12/12/12 14/14/14 61/61/61 
f 70/70/70 67/67/67 66/66/66 
f 70/70/70 71/71/71 67/67/67 
f 72/72/72 66/66/66 68/68/68 
f 72/72/72 70/70/70 66/66/66 
f 73/73/73 68/68/68 14/14/14 
f 73/73/73 72/72/72 68/68/68 
f 74/74/74 70/70/70 72/72/72 
f 75/75/75 72/72/72 73/73/73 
f 75/75/75 74/74/74 72/72/72 
f 76/76/76 74/74/74 75/75/75 
f 13/13/13 73/73/73 14/14/14 
f 77/77/77 73/73/73 13/13/13 
f 77/77/77 75/75/75 73/73/73 
f 78/78/78 77/77/77 13/13/13 
f 78/78/78 79/79/79 77/77/77 
f 79/79/79 80/80/80 77/77/77 
f 80/80/80 75/75/75 77/77/77 
f 80/80/80 76/76/76 75/75/75 
f 79/79/79 81/81/81 80/80/80 
f 81/81/81 82/82/82 80/80/80 
f 82/82/82 76/76/76 80/80/80 
f 83/83/83 81/81/81 79/79/79 
f 84/84/84 79/79/79 78/78/78 
f 84/84/84 83/83/83 79/79/79 
f 23/23/23 83/83/83 84/84/84 
f 11/11/11 78/78/78 13/13/13 
f 15/15/15 78/78/78 11/11/11 
f 15/15/15 84/84/84 78/78/78 
f 17/17/17 84/84/84 15/15/15 
f 17/17/17 23/23/23 84/84/84 
f 85/85/85 82/82/82 81/81/81 
f 85/85/85 86/86/86 82/82/82 
f 82/82/82 86/86/86 76/76/76 
f 87/87/87 81/81/81 83/83/83 
f 87/87/87 85/85/85 81/81/81 
f 88/88/88 83/83/83 23/23/23 
f 88/88/88 87/87/87 83/83/83 
f 89/89/89 85/85/85 87/87/87 
f 90/90/90 87/87/87 88/88/88 
f 90/90/90 89/89/89 87/87/87 
f 91/91/91 89/89/89 90/90/90 
f 22/22/22 88/88/88 23/23/23 
f 92/92/92 88/88/88 22/22/22 
f 92/92/92 90/90/90 88/88/88 
f 93/93/93 92/92/92 22/22/22 
f 93/93/93 94/94/94 92/92/92 
f 94/94/94 95/95/95 92/92/92 
f 95/95/95 90/90/90 92/92/92 
f 95/95/95 91/91/91 90/90/90 
f 94/94/94 96/96/96 95/95/95 
f 96/96/96 97/97/97 95/95/95 
f 97/97/97 91/91/91 95/95/95 
f 98/98/98 96/96/96 94/94/94 
f 99/99/99 94/94/94 93/93/93 
f 99/99/99 98/98/98 94/94/94 
f 34/34/34 98/98/98 99/99/99 
f 21/21/21 93/93/93 22/22/22 
f 25/25/25 93/93/93 21/21/21 
f 25/25/25 99/99/99 93/93/93 
f 27/27/27 99/99/99 25/25/25 
f 27/27/27 34/34/34 99/99/99 
f 100/100/100 97/97/97 96/96/96 
f 100/100/100 101/101/101 97/97/97 
f 97/97/97 101/101/101 91/91/91 
f 102/102/102 96/96/96 98/98/98 
f 102/102/102 100/100/100 96/96/96 
f 103/103/103 98/98/98 34/34/34 
f 103/103/103 102/102/102 98/98/98 
f 104/104/104 100/100/100 102/102/102 
f 105/105/105 102/102/102 103/103/103 
f 105/105/105 104/104/104 102/102/102 
f 106/106/106 104/104/104 105/105/105 
f 33/33/33 103/103/103 34/34/34 
f 107/107/107 103/103/103 33/33/33 
f 107/107/107 105/105/105 103/103/103 
f 108/108/108 107/107/107 33/33/33 
f 108/108/108 109/109/109 107/107/107 
f 109/109/109 110/110/110 107/107/107 
f 110/110/110 105/105/105 107/107/107 
f 110/110/110 106/106/106 105/105/105 
f 109/109/109 111/111/111 110/110/110 
f 111/111/111 112/112/112 110/110/110 
f 112/112/112 106/106/106 110/110/110 
f 113/113/113 111/111/111 109/109/109 
f 114/114/114 109/109/109 108/108/108 
f 114/114/114 113/113/113 109/109/109 
f 47/47/47 113/113/113 114/114/114 
f 32/32/32 108/108/108 33/33/33 
f 37/37/37 108/108/108 32/32/32 
f 37/37/37 114/114/114 108/108/108 
f 39/39/39 114/114/114 37/37/37 
f 39/39/39 47/47/47 114/114/114 
f 115/115/115 112/112/112 111/111/111 
f 115/115/115 116/116/116 112/112/112 
f 112/112/112 116/116/116 106/106/106 
f 117/117/117 111/111/111 113/113/113 
f 117/117/117 115/115/115 111/111/111 
f 118/118/118 113/113/113 47/47/47 
f 118/118/118 117/117/117 113/113/113 
f 119/119/119 115/115/115 117/117/117 
f 120/120/120 117/117/117 118/118/118 
f 120/120/120 119/119/119 117/117/117 
f 121/121/121 119/119/119 120/120/120 
f 46/46/46 118/118/118 47/47/47 
f 122/122/122 118/118/118 46/46/46 
f 122/122/122 120/120/120 118/118/118 
f 123/123/123 122/122/122 46/46/46 
f 123/123/123 124/124/124 122/122/122 
f 124/124/124 125/125/125 122/122/122 
f 125/125/125 120/120/120 122/122/122 
f 125/125/125 121/121/121 120/120/120 
f 124/124/124 126/126/126 125/125/125 
f 126/126/126 127/127/127 125/125/125 
f 127/127/127 121/121/121 125/125/125 
f 128/128/128 126/126/126 124/124/124 
f 129/129/129 124/124/124 123/123/123 
f 129/129/129 128/128/128 124/124/124 
f 58/58/58 128/128/128 129/129/129 
f 44/44/44 123/123/123 46/46/46 
f 48/48/48 123/123/123 44/44/44 
f 48/48/48 129/129/129 123/123/123 
f 50/50/50 129/129/129 48/48/48 
f 50/50/50 58/58/58 129/129/129 
f 130/130/130 127/127/127 126/126/126 
f 130/130/130 131/131/131 127/127/127 
f 127/127/127 131/131/131 121/121/121 
f 132/132/132 126/126/126 128/128/128 
f 132/132/132 130/130/130 126/126/126 
f 133/133/133 128/128/128 58/58/58 
f 133/133/133 132/132/132 128/128/128 
f 134/134/134 130/130/130 132/132/132 
f 135/135/135 132/132/132 133/133/133 
f 135/135/135 134/134/134 132/132/132 
f 136/136/136 134/134/134 135/135/135 
f 57/57/57 133/133/133 58/58/58 
f 63/63/63 133/133/133 57/57/57 
f 63/63/63 135/135/135 133/133/133 
f 65/65/65 135/135/135 63/63/63 
f 65/65/65 136/136/136 135/135/135 
f 67/67/67 136/136/136 65/65/65 
f 130/130/130 137/137/137 131/131/131 
f 134/134/134 137/137/137 130/130/130 
f 137/137/137 138/138/138 131/131/131 
f 137/137/137 139/139/139 138/138/138 
f 139/139/139 140/140/140 138/138/138 
f 139/139/139 141/141/141 140/140/140 
f 141/141/141 142/142/142 140/140/140 
f 143/143/143 142/142/142 141/141/141 
f 144/144/144 142/142/142 143/143/143 
f 145/145/145 144/144/144 143/143/143 
f 145/145/145 143/143/143 146/146/146 
f 147/147/147 144/144/144 145/145/145 
f 148/148/148 145/145/145 146/146/146 
f 148/148/148 146/146/146 86/86/86 
f 149/149/149 145/145/145 148/148/148 
f 149/149/149 147/147/147 145/145/145 
f 101/101/101 147/147/147 149/149/149 
f 85/85/85 148/148/148 86/86/86 
f 89/89/89 148/148/148 85/85/85 
f 89/89/89 149/149/149 148/148/148 
f 91/91/91 149/149/149 89/89/89 
f 91/91/91 101/101/101 149/149/149 
f 150/150/150 143/143/143 141/141/141 
f 146/146/146 143/143/143 150/150/150 
f 150/150/150 141/141/141 151/151/151 
f 152/152/152 150/150/150 151/151/151 
f 152/152/152 151/151/151 71/71/71 
f 153/153/153 150/150/150 152/152/152 
f 153/153/153 146/146/146 150/150/150 
f 86/86/86 146/146/146 153/153/153 
f 70/70/70 152/152/152 71/71/71 
f 74/74/74 152/152/152 70/70/70 
f 74/74/74 153/153/153 152/152/152 
f 76/76/76 153/153/153 74/74/74 
f 76/76/76 86/86/86 153/153/153 
f 71/71/71 151/151/151 154/154/154 
f 154/154/154 151/151/151 139/139/139 
f 151/151/151 141/141/141 139/139/139 
f 154/154/154 139/139/139 137/137/137 
f 134/134/134 154/154/154 137/137/137 
f 136/136/136 154/154/154 134/134/134 
f 136/136/136 71/71/71 154/154/154 
f 67/67/67 71/71/71 136/136/136 
f 140/140/140 142/142/142 155/155/155 
f 156/156/156 140/140/140 155/155/155 
f 156/156/156 155/155/155 157/157/157 
f 138/138/138 140/140/140 156/156/156 
f 158/158/158 156/156/156 157/157/157 
f 158/158/158 157/157/157 116/116/116 
f 159/159/159 156/156/156 158/158/158 
f 159/159/159 138/138/138 156/156/156 
f 131/131/131 138/138/138 159/159/159 
f 115/115/115 158/158/158 116/116/116 
f 119/119/119 158/158/158 115/115/115 
f 119/119/119 159/159/159 158/158/158 
f 121/121/121 159/159/159 119/119/119 
f 121/121/121 131/131/131 159/159/159 
f 155/155/155 142/142/142 144/144/144 
f 160/160/160 155/155/155 144/144/144 
f 157/157/157 155/155/155 160/160/160 
f 160/160/160 144/144/144 147/147/147 
f 161/161/161 160/160/160 147/147/147 
f 161/161/161 147/147/147 101/101/101 
f 162/162/162 160/160/160 161/161/161 
f 162/162/162 157/157/157 160/160/160 
f 116/116/116 157/157/157 162/162/162 
f 100/100/100 161/161/161 101/101/101 
f 104/104/104 161/161/161 100/100/100 
f 104/104/104 162/162/162 161/161/161 
f 106/106/106 162/162/162 104/104/104 
f 106/106/106 116/116/116 162/162/162 

