# Created by DisUnity v0.3.4
v -0.5462361 -0.015905868 -0.5462265
v 0.54631233 -0.01590586 0.54632187
v 0.54631233 -0.015905868 -0.5462265
v -0.546236 -0.01590586 0.54632187
v -0.5462361 2.169191 -0.5462284
v 0.5463085 2.1691906 0.54631996
v -0.5462379 2.169191 0.5463238
v 0.54631233 2.1691911 -0.5462265
v -0.5462361 -0.015905868 -0.5462265
v -0.5462379 2.169191 0.5463238
v -0.546236 -0.01590586 0.54632187
v -0.5462361 2.169191 -0.5462284
v -0.546236 -0.01590586 0.54632187
v 0.5463085 2.1691906 0.54631996
v 0.54631233 -0.01590586 0.54632187
v -0.5462379 2.169191 0.5463238
v 0.54631233 -0.01590586 0.54632187
v 0.54631233 2.1691911 -0.5462265
v 0.54631233 -0.015905868 -0.5462265
v 0.5463085 2.1691906 0.54631996
v 0.54631233 -0.015905868 -0.5462265
v -0.5462361 2.169191 -0.5462284
v -0.5462361 -0.015905868 -0.5462265
v 0.54631233 2.1691911 -0.5462265
vn -0.0 -1.0 0.0
vn -0.0 -1.0 0.0
vn -0.0 -1.0 0.0
vn -0.0 -1.0 0.0
vn -0.0 1.0 0.0
vn -0.0 1.0 0.0
vn -0.0 1.0 0.0
vn -0.0 1.0 0.0
vn -1.0 0.0 0.0
vn -1.0 0.0 0.0
vn -1.0 0.0 0.0
vn -1.0 0.0 0.0
vn -0.0 0.0 1.0
vn -0.0 0.0 1.0
vn -0.0 0.0 1.0
vn -0.0 0.0 1.0
vn 1.0 0.0 0.0
vn 1.0 0.0 0.0
vn 1.0 0.0 0.0
vn 1.0 0.0 0.0
vn -0.0 0.0 -1.0
vn -0.0 0.0 -1.0
vn -0.0 0.0 -1.0
vn -0.0 0.0 -1.0
vt 6.670228E-4 0.74550444
vt 0.062130105 0.6883172
vt 0.062130105 0.74550444
vt 6.670228E-4 0.6883172
vt 1.8267334E-4 0.68800944
vt 0.062336385 0.74556977
vt 1.8267334E-4 0.74556977
vt 0.062336385 0.6880094
vt 0.06264704 0.68706816
vt 0.124936044 0.59411263
vt 0.124936044 0.68706816
vt 0.06264704 0.59411263
vt 0.0015108618 0.6872444
vt 0.06121972 0.59404683
vt 0.06121972 0.6872444
vt 0.0015108618 0.59404683
vt 0.06265494 0.6871068
vt 0.12494396 0.59415126
vt 0.12494396 0.6871068
vt 0.06265494 0.59415126
vt 0.0015108618 0.6872444
vt 0.06121972 0.59404683
vt 0.06121972 0.6872444
vt 0.0015108618 0.59404683

g Industrial_Pallet_Stack_03
s 1
usemtl Industrial_Pallet_Stack_03
f 3/3/3 2/2/2 1/1/1 
f 2/2/2 4/4/4 1/1/1 
f 7/7/7 6/6/6 5/5/5 
f 6/6/6 8/8/8 5/5/5 
f 11/11/11 10/10/10 9/9/9 
f 10/10/10 12/12/12 9/9/9 
f 15/15/15 14/14/14 13/13/13 
f 14/14/14 16/16/16 13/13/13 
f 19/19/19 18/18/18 17/17/17 
f 18/18/18 20/20/20 17/17/17 
f 23/23/23 22/22/22 21/21/21 
f 22/22/22 24/24/24 21/21/21 

