# Created by DisUnity v0.3.4
v -0.5461807 -0.015906036 -0.5463333
v 0.54636574 -0.015906036 0.54621315
v 0.54636574 -0.015906036 -0.5463333
v -0.54618263 -0.015906036 0.54621696
v -0.54618263 0.1281029 -0.5463333
v 0.54636765 0.1281029 0.54621506
v -0.5461807 0.1281029 0.54621696
v 0.54636765 0.1281029 -0.5463333
v -0.5461807 -0.015906036 -0.5463333
v -0.5461807 0.1281029 0.54621696
v -0.54618263 -0.015906036 0.54621696
v -0.54618263 0.1281029 -0.5463333
v -0.54618263 -0.015906036 0.54621696
v 0.54636765 0.1281029 0.54621506
v 0.54636574 -0.015906036 0.54621315
v -0.5461807 0.1281029 0.54621696
v 0.54636574 -0.015906036 0.54621315
v 0.54636765 0.1281029 -0.5463333
v 0.54636574 -0.015906036 -0.5463333
v 0.54636765 0.1281029 0.54621506
v 0.54636574 -0.015906036 -0.5463333
v -0.54618263 0.1281029 -0.5463333
v -0.5461807 -0.015906036 -0.5463333
v 0.54636765 0.1281029 -0.5463333
v 0.49669838 0.1281029 0.53349495
v -0.48897743 0.84376836 0.53349495
v 0.49669838 0.8437685 0.53349686
v -0.48897743 0.1281029 0.53349495
v 0.53858376 0.1281029 -0.49407005
v 0.53858757 0.84376836 0.49160194
v 0.53858757 0.8437685 -0.49406815
v 0.53858757 0.12810278 0.49160385
v 0.49669838 0.8437685 0.53349686
v 0.49669838 0.1281029 0.53349495
v -0.48897743 0.12810278 -0.53595924
v 0.49669838 0.84376836 -0.53595734
v -0.48897743 0.84376836 -0.53595734
v 0.49669456 0.12810278 -0.53595734
v 0.53858757 0.8437685 -0.49406815
v 0.53858376 0.1281029 -0.49407005
v -0.5308647 0.1281029 0.49160385
v -0.53086853 0.8437685 -0.49407005
v -0.5308647 0.8437685 0.49160385
v -0.5308647 0.1281029 -0.49407005
v -0.48897743 0.84376836 -0.53595734
v -0.48897743 0.84376836 -0.53595734
v -0.5308647 0.1281029 -0.49407005
v -0.48897743 0.12810278 -0.53595924
v -0.5308647 0.1281029 0.49160385
v -0.48897743 0.84376836 0.53349495
v -0.48897743 0.1281029 0.53349495
v -0.5308647 0.8437685 0.49160385
v -0.47162437 0.8865626 0.49160385
v -0.48897743 0.8865628 -0.476717
v -0.47162628 0.88656247 -0.49407005
v -0.48897362 0.88656247 0.4742527
v 0.47934532 0.8865626 0.49160194
v 0.4793434 0.8865626 -0.49407005
v 0.49669456 0.8865626 0.4742527
v 0.49669838 0.88656235 -0.4767189
v -0.47162437 0.8865626 0.49160385
v 0.49669838 0.8437685 0.53349686
v -0.48897743 0.84376836 0.53349495
v 0.47934532 0.8865626 0.49160194
v 0.49669456 0.8865626 0.4742527
v 0.53858757 0.8437685 -0.49406815
v 0.53858757 0.84376836 0.49160194
v 0.49669838 0.88656235 -0.4767189
v 0.47934532 0.8865626 0.49160194
v 0.49669838 0.8437685 0.53349686
v 0.4793434 0.8865626 -0.49407005
v -0.48897743 0.84376836 -0.53595734
v 0.49669838 0.84376836 -0.53595734
v -0.47162628 0.88656247 -0.49407005
v 0.49669838 0.88656235 -0.4767189
v 0.53858757 0.8437685 -0.49406815
v -0.48897743 0.8865628 -0.476717
v -0.5308647 0.8437685 0.49160385
v -0.53086853 0.8437685 -0.49407005
v -0.48897362 0.88656247 0.4742527
v -0.47162628 0.88656247 -0.49407005
v -0.48897743 0.84376836 -0.53595734
v -0.48897743 0.84376836 0.53349495
v -0.48897362 0.88656247 0.4742527
v -0.47162437 0.8865626 0.49160385
v -0.48897362 0.88656247 0.4742527
v -0.48897743 0.84376836 0.53349495
v -0.5308647 0.8437685 0.49160385
v 0.53858757 0.84376836 0.49160194
v 0.47934532 0.8865626 0.49160194
v 0.49669456 0.8865626 0.4742527
v -0.53086853 0.8437685 -0.49407005
v -0.47162628 0.88656247 -0.49407005
v -0.48897743 0.8865628 -0.476717
v 0.49669838 0.84376836 -0.53595734
v 0.49669838 0.88656235 -0.4767189
v 0.4793434 0.8865626 -0.49407005
vn -0.0 -1.0 0.0
vn -0.0 -1.0 0.0
vn -0.0 -1.0 0.0
vn -0.0 -1.0 0.0
vn -0.0 1.0 0.0
vn -0.0 1.0 0.0
vn -0.0 1.0 0.0
vn -0.0 1.0 0.0
vn -1.0 -1.10346E-5 0.0
vn -1.0 1.10346E-5 0.0
vn -1.0 1.3244656E-5 0.0
vn -1.0 -1.3244656E-5 0.0
vn -0.0 0.0 1.0
vn -0.0 -1.2139662E-5 1.0
vn -0.0 -1.3244701E-5 1.0
vn -0.0 0.0 1.0
vn 1.0 -1.3244658E-5 0.0
vn 1.0 -1.3244654E-5 0.0
vn 1.0 -1.3244654E-5 0.0
vn 1.0 -1.3244656E-5 0.0
vn -0.0 0.0 -1.0
vn -0.0 0.0 -1.0
vn -0.0 0.0 -1.0
vn -0.0 0.0 -1.0
vn 0.38269392 0.0 0.92387515
vn -0.3563541 0.36464918 0.86025727
vn 0.3563583 0.3646635 0.8602495
vn -0.38270438 0.0 0.92387074
vn 0.9238743 0.0 -0.38269588
vn 0.86027557 0.36465684 0.35630256
vn 0.86027133 0.36463633 -0.35633355
vn 0.9238849 0.0 0.38267043
vn 0.3563583 0.3646635 0.8602495
vn 0.38269392 0.0 0.92387515
vn -0.38269317 0.0 -0.9238756
vn 0.35633814 0.3646332 -0.8602707
vn -0.35631928 0.36463356 -0.8602785
vn 0.38267308 0.0 -0.9238838
vn 0.86027133 0.36463633 -0.35633355
vn 0.9238743 0.0 -0.38269588
vn -0.9238878 0.0 0.38266346
vn -0.86026144 0.3646429 -0.35635078
vn -0.8602725 0.36465013 0.3563163
vn -0.9238829 0.0 -0.38267532
vn -0.35631928 0.36463356 -0.8602785
vn -0.35631928 0.36463356 -0.8602785
vn -0.9238829 0.0 -0.38267532
vn -0.38269317 0.0 -0.9238756
vn -0.9238878 0.0 0.38266346
vn -0.3563541 0.36464918 0.86025727
vn -0.38270438 0.0 0.92387074
vn -0.8602725 0.36465013 0.3563163
vn -0.1696186 0.8964234 0.4094565
vn -0.40945265 0.89643115 -0.16958734
vn -0.16960569 0.8964157 -0.40947866
vn -0.40946424 0.89642483 0.16959265
vn 0.16960843 0.8964329 0.40944007
vn 0.16957162 0.8964225 -0.40947795
vn 0.40945336 0.8964266 0.1696092
vn 0.4094729 0.89641476 -0.16962479
vn -0.1696186 0.8964234 0.4094565
vn 0.3563583 0.3646635 0.8602495
vn -0.3563541 0.36464918 0.86025727
vn 0.16960843 0.8964329 0.40944007
vn 0.40945336 0.8964266 0.1696092
vn 0.86027133 0.36463633 -0.35633355
vn 0.86027557 0.36465684 0.35630256
vn 0.4094729 0.89641476 -0.16962479
vn 0.16960843 0.8964329 0.40944007
vn 0.3563583 0.3646635 0.8602495
vn 0.16957162 0.8964225 -0.40947795
vn -0.35631928 0.36463356 -0.8602785
vn 0.35633814 0.3646332 -0.8602707
vn -0.16960569 0.8964157 -0.40947866
vn 0.4094729 0.89641476 -0.16962479
vn 0.86027133 0.36463633 -0.35633355
vn -0.40945265 0.89643115 -0.16958734
vn -0.8602725 0.36465013 0.3563163
vn -0.86026144 0.3646429 -0.35635078
vn -0.40946424 0.89642483 0.16959265
vn -0.16960569 0.8964157 -0.40947866
vn -0.35631928 0.36463356 -0.8602785
vn -0.3563541 0.36464918 0.86025727
vn -0.40946424 0.89642483 0.16959265
vn -0.1696186 0.8964234 0.4094565
vn -0.40946424 0.89642483 0.16959265
vn -0.3563541 0.36464918 0.86025727
vn -0.8602725 0.36465013 0.3563163
vn 0.86027557 0.36465684 0.35630256
vn 0.16960843 0.8964329 0.40944007
vn 0.40945336 0.8964266 0.1696092
vn -0.86026144 0.3646429 -0.35635078
vn -0.16960569 0.8964157 -0.40947866
vn -0.40945265 0.89643115 -0.16958734
vn 0.35633814 0.3646332 -0.8602707
vn 0.4094729 0.89641476 -0.16962479
vn 0.16957162 0.8964225 -0.40947795
vt 6.670228E-4 0.74550444
vt 0.062130105 0.6883172
vt 0.062130105 0.74550444
vt 6.670228E-4 0.6883172
vt 1.8267334E-4 0.68800944
vt 0.062336385 0.74556977
vt 1.8267334E-4 0.74556977
vt 0.062336385 0.6880094
vt 0.06264704 0.64646274
vt 0.12493602 0.6403365
vt 0.12493603 0.64646274
vt 0.06264704 0.6403365
vt 0.0015108618 0.64662135
vt 0.06121972 0.64047915
vt 0.06121972 0.64662135
vt 0.0015108618 0.64047915
vt 0.06265494 0.64650136
vt 0.12494396 0.64037514
vt 0.12494396 0.64650136
vt 0.06265494 0.64037514
vt 0.0015108618 0.64662135
vt 0.061219674 0.64047915
vt 0.061219696 0.64662135
vt 0.0015108618 0.64047915
vt 0.18524478 0.6870875
vt 0.12757437 0.64255095
vt 0.18549211 0.64304155
vt 0.12757437 0.6870875
vt 0.1851958 0.68682265
vt 0.1275063 0.6433727
vt 0.1853507 0.64360934
vt 0.12758505 0.68682265
vt 0.12572658 0.6437039
vt 0.12572658 0.68682265
vt 0.18524478 0.6870875
vt 0.1276317 0.6425595
vt 0.18549211 0.64304155
vt 0.12757437 0.6870875
vt 0.12569582 0.64258516
vt 0.12569582 0.6870875
vt 0.1851958 0.68682265
vt 0.12750629 0.64337265
vt 0.18527324 0.6434717
vt 0.12758505 0.68682265
vt 0.12572657 0.64370394
vt 0.12572657 0.64370394
vt 0.12758505 0.68682265
vt 0.12572658 0.68682265
vt 0.1851958 0.68682265
vt 0.18755367 0.6433193
vt 0.18748003 0.68682265
vt 0.18527324 0.6434717
vt 0.1258164 0.68898904
vt 0.1860753 0.6879593
vt 0.18715508 0.68898904
vt 0.12689617 0.6879593
vt 0.1258164 0.74824536
vt 0.18715508 0.74824536
vt 0.12689619 0.7492752
vt 0.1860753 0.7492752
vt 0.12781048 0.6081648
vt 0.18563429 0.6177238
vt 0.12757437 0.6169512
vt 0.1842296 0.60661954
vt 0.12811132 0.6098084
vt 0.18543974 0.6187702
vt 0.12746103 0.6183976
vt 0.18418169 0.60867554
vt 0.13060793 0.61041707
vt 0.12572658 0.6189191
vt 0.12781045 0.6081648
vt 0.18563427 0.6177238
vt 0.12766466 0.6169647
vt 0.1842296 0.60661954
vt 0.13117847 0.6075916
vt 0.12569582 0.6170051
vt 0.12811129 0.6098082
vt 0.18531777 0.6185534
vt 0.127461 0.6183975
vt 0.18418169 0.6086756
vt 0.13060796 0.6104171
vt 0.12572657 0.61891913
vt 0.187596 0.61831343
vt 0.19160368 0.6101859
vt 0.18677142 0.6088983
vt 0.19160368 0.6101859
vt 0.187596 0.61831343
vt 0.18531777 0.6185534
vt 0.12746103 0.6183976
vt 0.13060793 0.61041707
vt 0.12710086 0.6098756
vt 0.127461 0.6183975
vt 0.13060796 0.6104171
vt 0.12710081 0.6098757
vt 0.12766466 0.6169647
vt 0.13117847 0.6075916
vt 0.12696335 0.60670996

g Industrial_Bag_Stack_01
s 1
usemtl Industrial_Bag_Stack_01
f 3/3/3 2/2/2 1/1/1 
f 4/4/4 1/1/1 2/2/2 
f 7/7/7 6/6/6 5/5/5 
f 8/8/8 5/5/5 6/6/6 
f 11/11/11 10/10/10 9/9/9 
f 12/12/12 9/9/9 10/10/10 
f 15/15/15 14/14/14 13/13/13 
f 16/16/16 13/13/13 14/14/14 
f 19/19/19 18/18/18 17/17/17 
f 20/20/20 17/17/17 18/18/18 
f 23/23/23 22/22/22 21/21/21 
f 24/24/24 21/21/21 22/22/22 
f 27/27/27 26/26/26 25/25/25 
f 28/28/28 25/25/25 26/26/26 
f 31/31/31 30/30/30 29/29/29 
f 32/32/32 29/29/29 30/30/30 
f 30/30/30 33/33/33 32/32/32 
f 34/34/34 32/32/32 33/33/33 
f 37/37/37 36/36/36 35/35/35 
f 38/38/38 35/35/35 36/36/36 
f 36/36/36 39/39/39 38/38/38 
f 40/40/40 38/38/38 39/39/39 
f 43/43/43 42/42/42 41/41/41 
f 44/44/44 41/41/41 42/42/42 
f 42/42/42 45/45/45 44/44/44 
f 48/48/48 47/47/47 46/46/46 
f 51/51/51 50/50/50 49/49/49 
f 52/52/52 49/49/49 50/50/50 
f 55/55/55 54/54/54 53/53/53 
f 56/56/56 53/53/53 54/54/54 
f 57/57/57 55/55/55 53/53/53 
f 58/58/58 55/55/55 57/57/57 
f 57/57/57 59/59/59 58/58/58 
f 60/60/60 58/58/58 59/59/59 
f 63/63/63 62/62/62 61/61/61 
f 64/64/64 61/61/61 62/62/62 
f 67/67/67 66/66/66 65/65/65 
f 68/68/68 65/65/65 66/66/66 
f 70/70/70 67/67/67 69/69/69 
f 73/73/73 72/72/72 71/71/71 
f 74/74/74 71/71/71 72/72/72 
f 76/76/76 73/73/73 75/75/75 
f 79/79/79 78/78/78 77/77/77 
f 80/80/80 77/77/77 78/78/78 
f 82/82/82 79/79/79 81/81/81 
f 85/85/85 84/84/84 83/83/83 
f 88/88/88 87/87/87 86/86/86 
f 91/91/91 90/90/90 89/89/89 
f 94/94/94 93/93/93 92/92/92 
f 97/97/97 96/96/96 95/95/95 

