# Created by DisUnity v0.3.4
v 1.3570194 0.89393806 -0.6796036
v 1.3570194 1.0441456 -0.67960167
v 1.2922192 0.89393806 -0.67960167
v -1.3087673 1.0441456 -0.67960167
v 1.2922192 0.6760731 -0.67960167
v -0.6806545 -0.015907288 -0.6796036
v 1.1585522 -0.015907288 -0.67960167
v -1.1751385 0.19190025 -0.67960167
v -1.3045712 0.3374653 -0.67960167
v -1.3570347 0.20521355 -0.67960167
v -1.2185421 0.15038681 -0.67960167
v 1.3570213 0.89393806 0.6795368
v 1.2922211 0.89393806 0.6795387
v 1.3570175 1.0441437 0.6795368
v -1.3087654 1.0441437 0.6795368
v 1.2922211 0.6760731 0.6795368
v -0.6806526 -0.015907288 0.6795387
v -1.1751404 0.19190025 0.6795368
v -1.3045654 0.3374653 0.6795387
v -1.3570328 0.20521355 0.6795368
v -1.218544 0.15038681 0.6795368
v 1.1585503 -0.015907288 0.6795368
v 1.3570194 0.89393806 -0.6796036
v 1.3570175 1.0441437 0.6795368
v 1.3570194 1.0441456 -0.67960167
v 1.3570213 0.89393806 0.6795368
v 1.1728191 0.2481308 -0.5207157
v -1.1245651 0.24812889 0.52065086
v -1.124567 0.2481308 -0.5207138
v 1.1728172 0.24812889 0.52064896
v -1.3087673 1.0441456 -0.67960167
v -1.3045654 0.3374653 0.6795387
v -1.3045712 0.3374653 -0.67960167
v -1.3087654 1.0441437 0.6795368
v -1.3045712 0.3374653 -0.67960167
v -1.3570328 0.20521355 0.6795368
v -1.3570347 0.20521355 -0.67960167
v -1.3045654 0.3374653 0.6795387
v -1.3570347 0.20521355 -0.67960167
v -1.218544 0.15038681 0.6795368
v -1.2185421 0.15038681 -0.67960167
v -1.3570328 0.20521355 0.6795368
v -1.2185421 0.15038681 -0.67960167
v -1.1751404 0.19190025 0.6795368
v -1.1751385 0.19190025 -0.67960167
v -1.218544 0.15038681 0.6795368
v -1.1751385 0.19190025 -0.67960167
v -0.6806526 -0.015907288 0.6795387
v -0.6806545 -0.015907288 -0.6796036
v -1.1751404 0.19190025 0.6795368
v 1.1585503 -0.015907288 0.6795368
v 1.1585522 -0.015907288 -0.67960167
v 1.1585522 -0.015907288 -0.67960167
v 1.2922211 0.6760731 0.6795368
v 1.2922192 0.6760731 -0.67960167
v 1.1585503 -0.015907288 0.6795368
v 1.2922211 0.89393806 0.6795387
v 1.2922192 0.89393806 -0.67960167
v 1.2922192 0.89393806 -0.67960167
v 1.3570213 0.89393806 0.6795368
v 1.3570194 0.89393806 -0.6796036
v 1.2922211 0.89393806 0.6795387
v 1.3570194 1.0441456 -0.67960167
v -1.2059956 1.0441456 -0.5768261
v -1.3087673 1.0441456 -0.67960167
v 1.2542439 1.0441456 -0.576828
v -1.3087673 1.0441456 -0.67960167
v -1.2059898 1.0441437 0.57676506
v -1.3087654 1.0441437 0.6795368
v -1.2059956 1.0441456 -0.5768261
v -1.3087654 1.0441437 0.6795368
v 1.2542458 1.0441437 0.57676315
v 1.3570175 1.0441437 0.6795368
v -1.2059898 1.0441437 0.57676506
v 1.3570175 1.0441437 0.6795368
v 1.2542439 1.0441456 -0.576828
v 1.3570194 1.0441456 -0.67960167
v 1.2542458 1.0441437 0.57676315
v 1.2542439 1.0441456 -0.576828
v -1.124567 0.2481308 -0.5207138
v -1.2059956 1.0441456 -0.5768261
v 1.1728191 0.2481308 -0.5207157
v -1.2059956 1.0441456 -0.5768261
v -1.1245651 0.24812889 0.52065086
v -1.2059898 1.0441437 0.57676506
v -1.124567 0.2481308 -0.5207138
v -1.2059898 1.0441437 0.57676506
v 1.1728172 0.24812889 0.52064896
v 1.2542458 1.0441437 0.57676315
v -1.1245651 0.24812889 0.52065086
v 1.2542458 1.0441437 0.57676315
v 1.1728191 0.2481308 -0.5207157
v 1.2542439 1.0441456 -0.576828
v 1.1728172 0.24812889 0.52064896
vn -2.9434274E-5 1.2698089E-5 -1.0
vn -0.0 0.0 -1.0
vn -0.0 0.0 -1.0
vn -0.0 0.0 -1.0
vn -0.0 0.0 -1.0
vn -0.0 0.0 -1.0
vn -0.0 0.0 -1.0
vn -0.0 0.0 -1.0
vn -0.0 0.0 -1.0
vn -0.0 0.0 -1.0
vn -0.0 0.0 -1.0
vn 2.9434274E-5 0.0 1.0
vn -0.0 0.0 1.0
vn -0.0 0.0 1.0
vn -0.0 0.0 1.0
vn -0.0 0.0 1.0
vn -0.0 0.0 1.0
vn -0.0 0.0 1.0
vn 1.1965255E-5 0.0 1.0
vn -0.0 -1.1302432E-5 1.0
vn -0.0 0.0 1.0
vn -0.0 0.0 1.0
vn 1.0 0.0 0.0
vn 1.0 2.36169E-5 0.0
vn 1.0 0.0 0.0
vn 1.0 2.5396504E-5 0.0
vn -0.0 1.0 0.0
vn -0.0 1.0 0.0
vn -0.0 1.0 0.0
vn -0.0 1.0 0.0
vn -0.99998236 -0.005939405 0.0
vn -0.9827763 0.18479933 0.0
vn -0.9827779 0.18479066 0.0
vn -0.99998236 -0.0059431666 0.0
vn -0.9827779 0.18479066 0.0
vn -0.9295239 0.368762 0.0
vn -0.9295324 0.36874035 0.0
vn -0.9827763 0.18479933 0.0
vn -0.36808822 -0.9297908 0.0
vn -0.36809587 -0.92978793 0.0
vn -0.36808765 -0.9297911 0.0
vn -0.36809644 -0.92978764 0.0
vn 0.691196 -0.72266734 0.0
vn 0.691196 -0.72266734 0.0
vn 0.69119596 -0.7226674 0.0
vn 0.69119596 -0.7226674 0.0
vn -0.38742882 -0.9218996 0.0
vn -0.19761017 -0.9802807 0.0
vn -0.19761153 -0.98028034 0.0
vn -0.3874269 -0.92190045 0.0
vn -0.0 -1.0 0.0
vn -0.0 -1.0 0.0
vn 0.9818495 -0.18966146 0.0
vn 0.995452 -0.09526475 0.0
vn 0.9954522 -0.09526319 0.0
vn 0.98184884 -0.18966508 0.0
vn 1.0 0.0 0.0
vn 1.0 0.0 0.0
vn -0.0 -1.0 0.0
vn -0.0 -1.0 0.0
vn -0.0 -1.0 0.0
vn -0.0 -1.0 0.0
vn -0.0 1.0 0.0
vn -0.0 1.0 0.0
vn -0.0 1.0 0.0
vn -0.0 1.0 0.0
vn -0.0 1.0 0.0
vn -0.0 1.0 0.0
vn -0.0 1.0 0.0
vn -0.0 1.0 0.0
vn -0.0 1.0 0.0
vn -0.0 1.0 0.0
vn -0.0 1.0 0.0
vn -0.0 1.0 0.0
vn -0.0 1.0 0.0
vn -0.0 1.0 0.0
vn -0.0 1.0 0.0
vn -0.0 1.0 0.0
vn -0.0 0.070317104 0.9975247
vn -0.0 0.0703171 0.9975247
vn -0.0 0.0703171 0.9975247
vn -0.0 0.07031695 0.9975247
vn 0.99480903 0.10175981 0.0
vn 0.99480903 0.1017598 0.0
vn 0.99480903 0.1017598 0.0
vn 0.9948086 0.10176407 0.0
vn -0.0 0.07031949 -0.99752456
vn -0.0 0.07031949 -0.99752456
vn -0.0 0.07031949 -0.99752456
vn -0.0 0.07031933 -0.99752456
vn -0.99480903 0.10175958 0.0
vn -0.99480903 0.1017596 0.0
vn -0.99480903 0.10175958 0.0
vn -0.9948086 0.1017643 0.0
vt 0.34360173 0.69643545
vt 0.34360173 0.68781245
vt 0.3398817 0.69643545
vt 0.19056512 0.68781245
vt 0.33988178 0.70894253
vt 0.22661486 0.7486297
vt 0.33220825 0.7486676
vt 0.19822799 0.73669446
vt 0.19080593 0.7283809
vt 0.18779436 0.73597383
vt 0.19574487 0.7391882
vt 0.34360167 0.69643545
vt 0.3398817 0.69643545
vt 0.34360173 0.68781245
vt 0.19056512 0.68781245
vt 0.33988178 0.70894253
vt 0.22661486 0.7486297
vt 0.19822799 0.73669446
vt 0.19080593 0.7283809
vt 0.18779436 0.73597383
vt 0.19574487 0.7391882
vt 0.33220825 0.7486676
vt 0.24618006 0.6907305
vt 0.3043701 0.6953485
vt 0.24618006 0.6953485
vt 0.3043701 0.6907305
vt 0.20274873 0.74293983
vt 0.19882353 0.74641067
vt 0.19882353 0.74293983
vt 0.20274873 0.74641067
vt 0.22966066 0.6879625
vt 0.2883048 0.7321596
vt 0.22966066 0.7321596
vt 0.2883048 0.6879625
vt 0.3119341 0.69526434
vt 0.21601383 0.6885495
vt 0.3119341 0.6885495
vt 0.21601383 0.69526434
vt 0.3119341 0.695276
vt 0.21601383 0.6882446
vt 0.3119341 0.6882446
vt 0.21601383 0.695276
vt 0.3119341 0.69065595
vt 0.21601383 0.68845224
vt 0.3119341 0.68845224
vt 0.21601383 0.69065595
vt 0.27089727 0.7433206
vt 0.2468592 0.734575
vt 0.27089727 0.734575
vt 0.2468592 0.7433206
vt 0.2468592 0.7020463
vt 0.27089727 0.7020463
vt 0.3013658 0.73329914
vt 0.2461074 0.70516527
vt 0.3013658 0.70516527
vt 0.2461074 0.73329914
vt 0.2461074 0.6963076
vt 0.3013658 0.6963076
vt 0.24618006 0.6887382
vt 0.3043701 0.6907305
vt 0.24618006 0.6907305
vt 0.3043701 0.6887382
vt 0.3339827 0.6890836
vt 0.2016207 0.6941257
vt 0.19631311 0.6890836
vt 0.32867518 0.6941257
vt 0.30024305 0.6891339
vt 0.23536038 0.6941761
vt 0.23005286 0.6891339
vt 0.29493546 0.6941761
vt 0.19631311 0.6941365
vt 0.32867518 0.6890943
vt 0.3339827 0.6941365
vt 0.2016207 0.6890943
vt 0.23005286 0.69422495
vt 0.2949355 0.68918276
vt 0.30024305 0.69422495
vt 0.23536038 0.68918276
vt 0.20500642 0.740265
vt 0.19783485 0.74206567
vt 0.19654912 0.740265
vt 0.20373741 0.74206567
vt 0.19654912 0.740265
vt 0.19783485 0.7472849
vt 0.19654912 0.7490856
vt 0.19783485 0.74206567
vt 0.19654912 0.7490856
vt 0.20373741 0.7472849
vt 0.20500642 0.7490856
vt 0.19783485 0.7472849
vt 0.20500642 0.7490856
vt 0.20373741 0.74206567
vt 0.20500642 0.740265
vt 0.20373741 0.7472849

g Industrial_Dumpster
s 1
usemtl Industrial_Dumpster
f 3/3/3 2/2/2 1/1/1 
f 2/2/2 3/3/3 4/4/4 
f 5/5/5 4/4/4 3/3/3 
f 4/4/4 5/5/5 6/6/6 
f 5/5/5 7/7/7 6/6/6 
f 8/8/8 4/4/4 6/6/6 
f 9/9/9 4/4/4 8/8/8 
f 8/8/8 10/10/10 9/9/9 
f 8/8/8 11/11/11 10/10/10 
f 14/14/14 13/13/13 12/12/12 
f 14/14/14 15/15/15 13/13/13 
f 16/16/16 13/13/13 15/15/15 
f 16/16/16 15/15/15 17/17/17 
f 15/15/15 18/18/18 17/17/17 
f 19/19/19 18/18/18 15/15/15 
f 20/20/20 18/18/18 19/19/19 
f 21/21/21 18/18/18 20/20/20 
f 22/22/22 16/16/16 17/17/17 
f 25/25/25 24/24/24 23/23/23 
f 26/26/26 23/23/23 24/24/24 
f 29/29/29 28/28/28 27/27/27 
f 30/30/30 27/27/27 28/28/28 
f 33/33/33 32/32/32 31/31/31 
f 34/34/34 31/31/31 32/32/32 
f 37/37/37 36/36/36 35/35/35 
f 38/38/38 35/35/35 36/36/36 
f 41/41/41 40/40/40 39/39/39 
f 42/42/42 39/39/39 40/40/40 
f 45/45/45 44/44/44 43/43/43 
f 46/46/46 43/43/43 44/44/44 
f 49/49/49 48/48/48 47/47/47 
f 50/50/50 47/47/47 48/48/48 
f 48/48/48 49/49/49 51/51/51 
f 52/52/52 51/51/51 49/49/49 
f 55/55/55 54/54/54 53/53/53 
f 56/56/56 53/53/53 54/54/54 
f 54/54/54 55/55/55 57/57/57 
f 58/58/58 57/57/57 55/55/55 
f 61/61/61 60/60/60 59/59/59 
f 62/62/62 59/59/59 60/60/60 
f 65/65/65 64/64/64 63/63/63 
f 66/66/66 63/63/63 64/64/64 
f 69/69/69 68/68/68 67/67/67 
f 70/70/70 67/67/67 68/68/68 
f 73/73/73 72/72/72 71/71/71 
f 74/74/74 71/71/71 72/72/72 
f 77/77/77 76/76/76 75/75/75 
f 78/78/78 75/75/75 76/76/76 
f 81/81/81 80/80/80 79/79/79 
f 82/82/82 79/79/79 80/80/80 
f 85/85/85 84/84/84 83/83/83 
f 86/86/86 83/83/83 84/84/84 
f 89/89/89 88/88/88 87/87/87 
f 90/90/90 87/87/87 88/88/88 
f 93/93/93 92/92/92 91/91/91 
f 94/94/94 91/91/91 92/92/92 

