# Created by DisUnity v0.3.4
v -0.546257 -0.015906189 -0.5463047
v 0.54629135 -0.015906189 0.54624176
v 0.54628754 -0.015906189 -0.5463066
v -0.54626083 -0.015906189 0.54624176
v -0.54626083 0.93078417 -0.5463028
v 0.54628754 0.93078405 0.54624367
v -0.546257 0.93078405 0.54624176
v 0.54629135 0.93078417 -0.5463047
v -0.546257 -0.015906189 -0.5463047
v -0.546257 0.93078405 0.54624176
v -0.54626083 -0.015906189 0.54624176
v -0.54626083 0.93078417 -0.5463028
v -0.54626083 -0.015906189 0.54624176
v 0.54628754 0.93078405 0.54624367
v 0.54629135 -0.015906189 0.54624176
v -0.546257 0.93078405 0.54624176
v 0.54629135 -0.015906189 0.54624176
v 0.54629135 0.93078417 -0.5463047
v 0.54628754 -0.015906189 -0.5463066
v 0.54628754 0.93078405 0.54624367
v 0.54628754 -0.015906189 -0.5463066
v -0.54626083 0.93078417 -0.5463028
v -0.546257 -0.015906189 -0.5463047
v 0.54629135 0.93078417 -0.5463047
vn -0.0 -1.0 0.0
vn -0.0 -1.0 0.0
vn -0.0 -1.0 0.0
vn -0.0 -1.0 0.0
vn -0.0 1.0 0.0
vn -0.0 1.0 0.0
vn -0.0 1.0 0.0
vn -0.0 1.0 0.0
vn -1.0 0.0 0.0
vn -1.0 0.0 0.0
vn -1.0 0.0 0.0
vn -1.0 0.0 0.0
vn -0.0 0.0 1.0
vn -0.0 0.0 1.0
vn -0.0 0.0 1.0
vn -0.0 0.0 1.0
vn 1.0 0.0 0.0
vn 1.0 0.0 0.0
vn 1.0 0.0 0.0
vn 1.0 0.0 0.0
vn -0.0 0.0 -1.0
vn -0.0 0.0 -1.0
vn -0.0 0.0 -1.0
vn -0.0 0.0 -1.0
vt 6.670228E-4 0.74550444
vt 0.062130105 0.6883172
vt 0.062130105 0.74550444
vt 6.670228E-4 0.6883172
vt 1.8267334E-4 0.68800944
vt 0.062336385 0.74556977
vt 1.8267334E-4 0.74556977
vt 0.062336385 0.6880094
vt 0.06264704 0.6532395
vt 0.12493602 0.6129666
vt 0.124936044 0.6532395
vt 0.06264704 0.6129666
vt 0.0015108618 0.65341574
vt 0.06121972 0.613038
vt 0.06121972 0.65341574
vt 0.0015108618 0.613038
vt 0.06265494 0.6532781
vt 0.12494396 0.61300516
vt 0.12494396 0.6532781
vt 0.06265494 0.61300516
vt 0.0015108618 0.65341574
vt 0.061219692 0.613038
vt 0.06121972 0.65341574
vt 0.0015108618 0.61303794

g Industrial_Pallet_Stack_01
s 1
usemtl Industrial_Pallet_Stack_01
f 3/3/3 2/2/2 1/1/1 
f 2/2/2 4/4/4 1/1/1 
f 7/7/7 6/6/6 5/5/5 
f 6/6/6 8/8/8 5/5/5 
f 11/11/11 10/10/10 9/9/9 
f 10/10/10 12/12/12 9/9/9 
f 15/15/15 14/14/14 13/13/13 
f 14/14/14 16/16/16 13/13/13 
f 19/19/19 18/18/18 17/17/17 
f 18/18/18 20/20/20 17/17/17 
f 23/23/23 22/22/22 21/21/21 
f 22/22/22 24/24/24 21/21/21 

