# Created by DisUnity v0.3.4
v 108.524956 726.98694 0.0
v -108.52505 726.9869 0.0
v -3.2126303E-5 734.9641 0.0
v 703.8167 212.13354 0.0
v 616.46436 400.03375 0.0
v 666.5953 309.68378 0.0
v 726.9869 108.52502 0.0
v 616.46436 400.03375 0.0
v 703.8167 212.13354 0.0
v 734.9641 0.0 0.0
v 726.98694 -108.524994 0.0
v 703.81665 -212.13345 0.0
v 666.5952 -309.68372 0.0
v 616.4643 -400.03375 0.0
v 554.56586 482.04175 0.0
v 554.5659 -482.04178 0.0
v 482.04175 -554.56586 0.0
v 400.03375 -616.46436 0.0
v 309.68378 -666.5953 0.0
v 212.13354 -703.8167 0.0
v 108.525024 -726.9869 0.0
v 8.764359E-6 -734.9641 0.0
v -108.52497 -726.98694 0.0
v -212.13345 -703.81665 0.0
v -309.68372 -666.5953 0.0
v -400.03375 -616.46436 0.0
v -482.04178 -554.5659 0.0
v -554.56586 -482.0418 0.0
v -616.46436 -400.0338 0.0
v -666.5953 -309.68384 0.0
v -703.81665 -212.13359 0.0
v -726.9869 -108.52508 0.0
v -734.9641 -6.425261E-5 0.0
v -726.98694 108.52493 0.0
v -703.81665 212.1334 0.0
v -666.5953 309.68365 0.0
v -616.46436 400.03372 0.0
v -554.5659 482.04172 0.0
v -482.0418 554.56586 0.0
v 482.04178 554.5659 0.0
v 400.03375 616.4643 0.0
v -400.0338 616.46436 0.0
v -309.6838 666.5952 0.0
v 309.68372 666.5952 0.0
v -212.13359 703.8167 0.0
v -108.52505 726.9869 0.0
v 212.13344 703.81665 0.0
v 108.524956 726.98694 0.0
vn -0.0 0.0 1.0
vn -0.0 0.0 1.0
vn -0.0 0.0 1.0
vn -0.0 0.0 1.0
vn -0.0 0.0 1.0
vn -0.0 0.0 1.0
vn -0.0 0.0 1.0
vn -0.0 0.0 1.0
vn -0.0 0.0 1.0
vn -0.0 0.0 1.0
vn -0.0 0.0 1.0
vn -0.0 0.0 1.0
vn -0.0 0.0 1.0
vn -0.0 0.0 1.0
vn -0.0 0.0 1.0
vn -0.0 0.0 1.0
vn -0.0 0.0 1.0
vn -0.0 0.0 1.0
vn -0.0 0.0 1.0
vn -0.0 0.0 1.0
vn -0.0 0.0 1.0
vn -0.0 0.0 1.0
vn -0.0 0.0 1.0
vn -0.0 0.0 1.0
vn -0.0 0.0 1.0
vn -0.0 0.0 1.0
vn -0.0 0.0 1.0
vn -0.0 0.0 1.0
vn -0.0 0.0 1.0
vn -0.0 0.0 1.0
vn -0.0 0.0 1.0
vn -0.0 0.0 1.0
vn -0.0 0.0 1.0
vn -0.0 0.0 1.0
vn -0.0 0.0 1.0
vn -0.0 0.0 1.0
vn -0.0 0.0 1.0
vn -0.0 0.0 1.0
vn -0.0 0.0 1.0
vn -0.0 0.0 1.0
vn -0.0 0.0 1.0
vn -0.0 0.0 1.0
vn -0.0 0.0 1.0
vn -0.0 0.0 1.0
vn -0.0 0.0 1.0
vn -0.0 0.0 1.0
vn -0.0 0.0 1.0
vn -0.0 0.0 1.0
vt 0.1729835 0.99533653
vt 0.17254378 0.99533653
vt 0.17276365 0.9953204
vt 0.17418952 0.9963796
vt 0.17401256 0.9959989
vt 0.17411412 0.99618196
vt 0.17423646 0.99658954
vt 0.17401256 0.9959989
vt 0.17418952 0.9963796
vt 0.17425263 0.99680936
vt 0.17423646 0.99702924
vt 0.17418952 0.9972392
vt 0.17411412 0.99743676
vt 0.17401256 0.9976198
vt 0.17388715 0.9958328
vt 0.17388715 0.997786
vt 0.17374022 0.9979329
vt 0.17357409 0.9980583
vt 0.17339104 0.9981598
vt 0.17319341 0.9982353
vt 0.1729835 0.9982822
vt 0.17276365 0.99829835
vt 0.17254378 0.9982822
vt 0.17233388 0.9982353
vt 0.17213625 0.9981598
vt 0.1719532 0.99805826
vt 0.17178705 0.9979329
vt 0.17164014 0.997786
vt 0.17151473 0.9976198
vt 0.17141317 0.99743676
vt 0.17133777 0.9972392
vt 0.17129081 0.99702924
vt 0.17127466 0.99680936
vt 0.17129081 0.99658954
vt 0.17133777 0.9963796
vt 0.17141317 0.99618196
vt 0.17151473 0.9959989
vt 0.17164014 0.9958328
vt 0.17178705 0.9956859
vt 0.17374022 0.9956859
vt 0.17357409 0.99556047
vt 0.1719532 0.99556047
vt 0.17213625 0.9954589
vt 0.17339104 0.9954589
vt 0.17233388 0.9953835
vt 0.17254378 0.99533653
vt 0.17319341 0.9953835
vt 0.1729835 0.99533653

g InnerRing
s 1
usemtl InnerRing
f 3/3/3 2/2/2 1/1/1 
f 6/6/6 5/5/5 4/4/4 
f 9/9/9 8/8/8 7/7/7 
f 7/7/7 8/8/8 10/10/10 
f 10/10/10 8/8/8 11/11/11 
f 11/11/11 8/8/8 12/12/12 
f 12/12/12 8/8/8 13/13/13 
f 13/13/13 8/8/8 14/14/14 
f 8/8/8 15/15/15 14/14/14 
f 14/14/14 15/15/15 16/16/16 
f 16/16/16 15/15/15 17/17/17 
f 17/17/17 15/15/15 18/18/18 
f 18/18/18 15/15/15 19/19/19 
f 19/19/19 15/15/15 20/20/20 
f 20/20/20 15/15/15 21/21/21 
f 21/21/21 15/15/15 22/22/22 
f 22/22/22 15/15/15 23/23/23 
f 23/23/23 15/15/15 24/24/24 
f 24/24/24 15/15/15 25/25/25 
f 25/25/25 15/15/15 26/26/26 
f 26/26/26 15/15/15 27/27/27 
f 27/27/27 15/15/15 28/28/28 
f 28/28/28 15/15/15 29/29/29 
f 29/29/29 15/15/15 30/30/30 
f 30/30/30 15/15/15 31/31/31 
f 31/31/31 15/15/15 32/32/32 
f 32/32/32 15/15/15 33/33/33 
f 33/33/33 15/15/15 34/34/34 
f 34/34/34 15/15/15 35/35/35 
f 35/35/35 15/15/15 36/36/36 
f 36/36/36 15/15/15 37/37/37 
f 37/37/37 15/15/15 38/38/38 
f 38/38/38 15/15/15 39/39/39 
f 15/15/15 40/40/40 39/39/39 
f 40/40/40 41/41/41 39/39/39 
f 39/39/39 41/41/41 42/42/42 
f 42/42/42 41/41/41 43/43/43 
f 41/41/41 44/44/44 43/43/43 
f 43/43/43 44/44/44 45/45/45 
f 45/45/45 44/44/44 46/46/46 
f 44/44/44 47/47/47 46/46/46 
f 46/46/46 47/47/47 48/48/48 

