# Created by DisUnity v0.3.4
v 7.1525574E-7 -1.5308289E-18 0.025000334
v 0.025000751 -1.784947E-23 2.9150397E-7
v 7.1525574E-7 -1.824866E-23 2.9802322E-7
v 0.025000751 -1.5308285E-18 0.025000326
v 7.1525574E-7 1.0824066 0.025000334
v 0.025000751 1.0824066 2.8964132E-7
v 0.025000751 1.0824066 0.025000326
v 7.1525574E-7 1.0824066 2.970919E-7
v 7.1525574E-7 -1.5308289E-18 0.025000334
v 0.025000751 1.0824066 0.025000326
v 0.025000751 -1.5308285E-18 0.025000326
v 7.1525574E-7 1.0824066 0.025000334
v 0.025000751 -1.5308285E-18 0.025000326
v 0.025000751 1.0824066 2.8964132E-7
v 0.025000751 -1.784947E-23 2.9150397E-7
v 0.025000751 1.0824066 0.025000326
v 0.025000751 -1.784947E-23 2.9150397E-7
v 7.1525574E-7 1.0824066 2.970919E-7
v 7.1525574E-7 -1.824866E-23 2.9802322E-7
v 0.025000751 1.0824066 2.8964132E-7
v 7.1525574E-7 -1.824866E-23 2.9802322E-7
v 7.1525574E-7 1.0824066 0.025000334
v 7.1525574E-7 -1.5308289E-18 0.025000334
v 7.1525574E-7 1.0824066 2.970919E-7
v 1.9750013 5.8737873E-24 -9.5926225E-8
v 2.0000014 -1.5308022E-18 0.024999896
v 2.0000014 6.387031E-24 -1.0430813E-7
v 1.9750013 -1.5308027E-18 0.024999905
v 1.9750013 1.0824066 -9.5926225E-8
v 2.0000014 1.0824066 0.024999896
v 1.9750013 1.0824066 0.024999905
v 2.0000014 1.0824066 -1.0430813E-7
v 1.9750013 5.8737873E-24 -9.5926225E-8
v 1.9750013 1.0824066 0.024999905
v 1.9750013 -1.5308027E-18 0.024999905
v 1.9750013 1.0824066 -9.5926225E-8
v 1.9750013 -1.5308027E-18 0.024999905
v 2.0000014 1.0824066 0.024999896
v 2.0000014 -1.5308022E-18 0.024999896
v 1.9750013 1.0824066 0.024999905
v 2.0000014 -1.5308022E-18 0.024999896
v 2.0000014 1.0824066 -1.0430813E-7
v 2.0000014 6.387031E-24 -1.0430813E-7
v 2.0000014 1.0824066 0.024999896
v 2.0000014 6.387031E-24 -1.0430813E-7
v 1.9750013 1.0824066 -9.5926225E-8
v 1.9750013 5.8737873E-24 -9.5926225E-8
v 2.0000014 1.0824066 -1.0430813E-7
v 2.000002 0.056150794 0.004352955
v 1.9073486E-6 1.0561508 0.004353095
v 1.9073486E-6 0.056150794 0.0043532588
v 2.000002 1.0561508 0.0043527912
v 2.000002 0.056150794 0.020647146
v 1.9073486E-6 1.0561508 0.020647286
v 2.000002 1.0561508 0.020646984
v 1.9073486E-6 0.056150794 0.020647448
v 2.0000033 -1.2093375E-16 1.974998
v 1.9750035 -1.2246457E-16 1.9999981
v 2.0000033 -1.2246457E-16 1.9999981
v 1.9750034 -1.2093375E-16 1.974998
v 2.0000033 1.0824066 1.9749979
v 1.9750035 1.0824066 1.9999981
v 1.9750035 1.0824066 1.9749979
v 2.0000033 1.0824066 1.9999981
v 2.0000033 -1.2093375E-16 1.974998
v 1.9750035 1.0824066 1.9749979
v 1.9750034 -1.2093375E-16 1.974998
v 2.0000033 1.0824066 1.9749979
v 1.9750034 -1.2093375E-16 1.974998
v 1.9750035 1.0824066 1.9999981
v 1.9750035 -1.2246457E-16 1.9999981
v 1.9750035 1.0824066 1.9749979
v 1.9750035 -1.2246457E-16 1.9999981
v 2.0000033 1.0824066 1.9999981
v 2.0000033 -1.2246457E-16 1.9999981
v 1.9750035 1.0824066 1.9999981
v 2.0000033 -1.2246457E-16 1.9999981
v 2.0000033 1.0824066 1.9749979
v 2.0000033 -1.2093375E-16 1.974998
v 2.0000033 1.0824066 1.9999981
v 1.9956503 0.056150824 1.9999986
v 1.9956505 1.0561508 0.02500039
v 1.9956505 0.056150824 0.02500039
v 1.9956505 1.0561508 1.9999986
v 1.979356 0.056150824 1.9999986
v 1.9793565 1.0561508 0.02500039
v 1.9793564 1.0561508 1.9999986
v 1.9793563 0.056150824 0.02500039
vn -0.0 -1.0 0.0
vn -0.0 -1.0 0.0
vn -0.0 -1.0 0.0
vn -0.0 -1.0 0.0
vn -0.0 1.0 0.0
vn -0.0 1.0 0.0
vn -0.0 1.0 0.0
vn -0.0 1.0 0.0
vn -0.0 0.0 1.0
vn -0.0 0.0 1.0
vn -0.0 0.0 1.0
vn -0.0 0.0 1.0
vn 1.0 0.0 0.0
vn 1.0 0.0 0.0
vn 1.0 0.0 0.0
vn 1.0 0.0 0.0
vn -0.0 0.0 -1.0
vn -0.0 0.0 -1.0
vn -0.0 0.0 -1.0
vn -0.0 0.0 -1.0
vn -1.0 0.0 0.0
vn -1.0 0.0 0.0
vn -1.0 0.0 0.0
vn -1.0 0.0 0.0
vn -0.0 -1.0 0.0
vn -0.0 -1.0 0.0
vn -0.0 -1.0 0.0
vn -0.0 -1.0 0.0
vn -0.0 1.0 0.0
vn -0.0 1.0 0.0
vn -0.0 1.0 0.0
vn -0.0 1.0 0.0
vn -1.0 0.0 0.0
vn -1.0 0.0 0.0
vn -1.0 0.0 0.0
vn -1.0 0.0 0.0
vn -0.0 0.0 1.0
vn -0.0 0.0 1.0
vn -0.0 0.0 1.0
vn -0.0 0.0 1.0
vn 1.0 0.0 0.0
vn 1.0 0.0 0.0
vn 1.0 0.0 0.0
vn 1.0 0.0 0.0
vn -0.0 0.0 -1.0
vn -0.0 0.0 -1.0
vn -0.0 0.0 -1.0
vn -0.0 0.0 -1.0
vn -0.0 0.0 -1.0
vn -0.0 0.0 -1.0
vn -0.0 0.0 -1.0
vn -0.0 0.0 -1.0
vn -0.0 0.0 1.0
vn -0.0 0.0 1.0
vn -0.0 0.0 1.0
vn -0.0 0.0 1.0
vn -0.0 -1.0 0.0
vn -0.0 -1.0 0.0
vn -0.0 -1.0 0.0
vn -0.0 -1.0 0.0
vn -0.0 1.0 0.0
vn -0.0 1.0 0.0
vn -0.0 1.0 0.0
vn -0.0 1.0 0.0
vn -0.0 0.0 -1.0
vn -0.0 0.0 -1.0
vn -0.0 0.0 -1.0
vn -0.0 0.0 -1.0
vn -1.0 0.0 0.0
vn -1.0 0.0 0.0
vn -1.0 0.0 0.0
vn -1.0 0.0 0.0
vn -0.0 0.0 1.0
vn -0.0 0.0 1.0
vn -0.0 0.0 1.0
vn -0.0 0.0 1.0
vn 1.0 0.0 0.0
vn 1.0 0.0 0.0
vn 1.0 0.0 0.0
vn 1.0 0.0 0.0
vn 1.0 0.0 0.0
vn 1.0 0.0 0.0
vn 1.0 0.0 0.0
vn 1.0 0.0 0.0
vn -1.0 0.0 0.0
vn -1.0 0.0 0.0
vn -1.0 0.0 0.0
vn -1.0 0.0 0.0
vt 0.39587024 0.73300934
vt 0.39991024 0.73704934
vt 0.39587024 0.73704934
vt 0.39991024 0.73300934
vt 0.39587024 0.737046
vt 0.39991024 0.733006
vt 0.39991024 0.737046
vt 0.39587024 0.733006
vt 0.39587024 0.82248735
vt 0.39991024 0.647568
vt 0.39991024 0.82248735
vt 0.39587024 0.647568
vt 0.3958719 0.82248735
vt 0.39991197 0.647568
vt 0.39991197 0.82248735
vt 0.3958719 0.647568
vt 0.39587024 0.82248735
vt 0.39991024 0.647568
vt 0.39991024 0.82248735
vt 0.39587024 0.647568
vt 0.39586854 0.82248735
vt 0.39990863 0.647568
vt 0.39990863 0.82248735
vt 0.39586854 0.647568
vt 0.39587024 0.73300934
vt 0.39991024 0.73704934
vt 0.39587024 0.73704934
vt 0.39991024 0.73300934
vt 0.39587024 0.737046
vt 0.39991024 0.733006
vt 0.39991024 0.737046
vt 0.39587024 0.733006
vt 0.39587024 0.82248735
vt 0.39991024 0.647568
vt 0.39991024 0.82248735
vt 0.39587024 0.647568
vt 0.3958719 0.82248735
vt 0.39991197 0.647568
vt 0.39991197 0.82248735
vt 0.3958719 0.647568
vt 0.39587024 0.82248735
vt 0.39991024 0.647568
vt 0.39991024 0.82248735
vt 0.39587024 0.647568
vt 0.39586854 0.82248735
vt 0.39990863 0.647568
vt 0.39990863 0.82248735
vt 0.39586854 0.647568
vt 0.004486238 0.82229924
vt 0.39525077 0.6479906
vt 0.39525077 0.82229924
vt 0.004486238 0.6479906
vt 0.004486238 0.82229924
vt 0.39525077 0.6479906
vt 0.004486238 0.6479906
vt 0.39525077 0.82229924
vt 0.39587024 0.73300934
vt 0.39991024 0.73704934
vt 0.39587024 0.73704934
vt 0.39991024 0.73300934
vt 0.39587024 0.737046
vt 0.39991024 0.733006
vt 0.39991024 0.737046
vt 0.39587024 0.733006
vt 0.39587024 0.82248735
vt 0.39991024 0.647568
vt 0.39991024 0.82248735
vt 0.39587024 0.647568
vt 0.3958719 0.82248735
vt 0.39991197 0.647568
vt 0.39991197 0.82248735
vt 0.3958719 0.647568
vt 0.39587024 0.82248735
vt 0.39991024 0.647568
vt 0.39991024 0.82248735
vt 0.39587024 0.647568
vt 0.39586854 0.82248735
vt 0.39990863 0.647568
vt 0.39990863 0.82248735
vt 0.39586854 0.647568
vt 0.004486238 0.82229924
vt 0.39525077 0.6479906
vt 0.39525077 0.82229924
vt 0.004486238 0.6479906
vt 0.004486238 0.82229924
vt 0.39525077 0.6479906
vt 0.004486238 0.6479906
vt 0.39525077 0.82229924

g Iron_Fence_Grey_Corner
s 1
usemtl Iron_Fence_Grey_Corner
f 3/3/3 2/2/2 1/1/1 
f 4/4/4 1/1/1 2/2/2 
f 7/7/7 6/6/6 5/5/5 
f 8/8/8 5/5/5 6/6/6 
f 11/11/11 10/10/10 9/9/9 
f 12/12/12 9/9/9 10/10/10 
f 15/15/15 14/14/14 13/13/13 
f 16/16/16 13/13/13 14/14/14 
f 19/19/19 18/18/18 17/17/17 
f 20/20/20 17/17/17 18/18/18 
f 23/23/23 22/22/22 21/21/21 
f 24/24/24 21/21/21 22/22/22 
f 27/27/27 26/26/26 25/25/25 
f 28/28/28 25/25/25 26/26/26 
f 31/31/31 30/30/30 29/29/29 
f 32/32/32 29/29/29 30/30/30 
f 35/35/35 34/34/34 33/33/33 
f 36/36/36 33/33/33 34/34/34 
f 39/39/39 38/38/38 37/37/37 
f 40/40/40 37/37/37 38/38/38 
f 43/43/43 42/42/42 41/41/41 
f 44/44/44 41/41/41 42/42/42 
f 47/47/47 46/46/46 45/45/45 
f 48/48/48 45/45/45 46/46/46 
f 51/51/51 50/50/50 49/49/49 
f 52/52/52 49/49/49 50/50/50 
f 55/55/55 54/54/54 53/53/53 
f 56/56/56 53/53/53 54/54/54 
f 59/59/59 58/58/58 57/57/57 
f 60/60/60 57/57/57 58/58/58 
f 63/63/63 62/62/62 61/61/61 
f 64/64/64 61/61/61 62/62/62 
f 67/67/67 66/66/66 65/65/65 
f 68/68/68 65/65/65 66/66/66 
f 71/71/71 70/70/70 69/69/69 
f 72/72/72 69/69/69 70/70/70 
f 75/75/75 74/74/74 73/73/73 
f 76/76/76 73/73/73 74/74/74 
f 79/79/79 78/78/78 77/77/77 
f 80/80/80 77/77/77 78/78/78 
f 83/83/83 82/82/82 81/81/81 
f 84/84/84 81/81/81 82/82/82 
f 87/87/87 86/86/86 85/85/85 
f 88/88/88 85/85/85 86/86/86 

