# Created by DisUnity v0.3.4
v 1.9749956 3.5762787E-7 2.6263297E-7
v 1.9999957 3.5762787E-7 0.025000256
v 1.9999957 3.5762787E-7 2.5425106E-7
v 1.9749956 3.5762787E-7 0.025000263
v 1.9749956 1.082407 2.6263297E-7
v 1.9999957 1.082407 0.025000256
v 1.9749956 1.082407 0.025000263
v 1.9999957 1.082407 2.5425106E-7
v 1.9749956 3.5762787E-7 2.6263297E-7
v 1.9749956 1.082407 0.025000263
v 1.9749956 3.5762787E-7 0.025000263
v 1.9749956 1.082407 2.6263297E-7
v 1.9749956 3.5762787E-7 0.025000263
v 1.9999957 1.082407 0.025000256
v 1.9999957 3.5762787E-7 0.025000256
v 1.9749956 1.082407 0.025000263
v 1.9999957 3.5762787E-7 0.025000256
v 1.9999957 1.082407 2.5425106E-7
v 1.9999957 3.5762787E-7 2.5425106E-7
v 1.9999957 1.082407 0.025000256
v 1.9999957 3.5762787E-7 2.5425106E-7
v 1.9749956 1.082407 2.6263297E-7
v 1.9749956 3.5762787E-7 2.6263297E-7
v 1.9999957 1.082407 2.5425106E-7
v -1.1324883E-6 3.5762787E-7 0.02500093
v 0.024998844 3.5762787E-7 8.2794577E-7
v -1.1324883E-6 3.5762787E-7 8.34465E-7
v 0.024998844 3.5762787E-7 0.025000922
v -1.1324883E-6 1.082407 0.02500093
v 0.024998844 1.082407 8.260831E-7
v 0.024998844 1.082407 0.025000922
v -1.1324883E-6 1.082407 8.335337E-7
v -1.1324883E-6 3.5762787E-7 0.02500093
v 0.024998844 1.082407 0.025000922
v 0.024998844 3.5762787E-7 0.025000922
v -1.1324883E-6 1.082407 0.02500093
v 0.024998844 3.5762787E-7 0.025000922
v 0.024998844 1.082407 8.260831E-7
v 0.024998844 3.5762787E-7 8.2794577E-7
v 0.024998844 1.082407 0.025000922
v 0.024998844 3.5762787E-7 8.2794577E-7
v -1.1324883E-6 1.082407 8.335337E-7
v -1.1324883E-6 3.5762787E-7 8.34465E-7
v 0.024998844 1.082407 8.260831E-7
v -1.1324883E-6 3.5762787E-7 8.34465E-7
v -1.1324883E-6 1.082407 0.02500093
v -1.1324883E-6 3.5762787E-7 0.02500093
v -1.1324883E-6 1.082407 8.335337E-7
v 1.9999981 0.05615115 0.005420705
v -1.9073486E-6 1.0561512 0.0054208436
v -1.9073486E-6 0.05615115 0.0054210066
v 1.9999981 1.0561512 0.005420542
v 1.9999981 0.05615115 0.019580113
v -1.9073486E-6 1.0561512 0.01958025
v 1.9999981 1.0561512 0.019579949
v -1.9073486E-6 0.05615115 0.019580415
v 2.0000005 2.9802322E-7 2.0000007
v 1.9750004 2.9802322E-7 1.9750005
v 1.9750004 2.9802322E-7 2.0000007
v 2.0000005 2.9802322E-7 1.9750005
v 2.0000005 1.082407 2.0000007
v 1.9750004 1.082407 1.9750004
v 2.0000005 1.082407 1.9750004
v 1.9750004 1.082407 2.0000007
v 2.0000005 2.9802322E-7 2.0000007
v 2.0000005 1.082407 1.9750004
v 2.0000005 2.9802322E-7 1.9750005
v 2.0000005 1.082407 2.0000007
v 2.0000005 2.9802322E-7 1.9750005
v 1.9750004 1.082407 1.9750004
v 1.9750004 2.9802322E-7 1.9750005
v 2.0000005 1.082407 1.9750004
v 1.9750004 2.9802322E-7 1.9750005
v 1.9750004 1.082407 2.0000007
v 1.9750004 2.9802322E-7 2.0000007
v 1.9750004 1.082407 1.9750004
v 1.9750004 2.9802322E-7 2.0000007
v 2.0000005 1.082407 2.0000007
v 2.0000005 2.9802322E-7 2.0000007
v 1.9750004 1.082407 2.0000007
v 1.9804182 0.05615115 0.025000013
v 1.9804204 1.0561512 2.0000014
v 1.9804205 0.056151092 2.0000014
v 1.9804181 1.0561512 0.024999969
v 1.9945776 0.05615115 0.02500001
v 1.9945798 1.0561512 2.0000014
v 1.9945775 1.0561512 0.024999967
v 1.9945799 0.056151092 2.0000014
vn -0.0 -1.0 0.0
vn -0.0 -1.0 0.0
vn -0.0 -1.0 0.0
vn -0.0 -1.0 0.0
vn -0.0 1.0 0.0
vn -0.0 1.0 0.0
vn -0.0 1.0 0.0
vn -0.0 1.0 0.0
vn -1.0 0.0 0.0
vn -1.0 0.0 0.0
vn -1.0 0.0 0.0
vn -1.0 0.0 0.0
vn -0.0 0.0 1.0
vn -0.0 0.0 1.0
vn -0.0 0.0 1.0
vn -0.0 0.0 1.0
vn 1.0 0.0 0.0
vn 1.0 0.0 0.0
vn 1.0 0.0 0.0
vn 1.0 0.0 0.0
vn -0.0 0.0 -1.0
vn -0.0 0.0 -1.0
vn -0.0 0.0 -1.0
vn -0.0 0.0 -1.0
vn -0.0 -1.0 0.0
vn -0.0 -1.0 0.0
vn -0.0 -1.0 0.0
vn -0.0 -1.0 0.0
vn -0.0 1.0 0.0
vn -0.0 1.0 0.0
vn -0.0 1.0 0.0
vn -0.0 1.0 0.0
vn -0.0 0.0 1.0
vn -0.0 0.0 1.0
vn -0.0 0.0 1.0
vn -0.0 0.0 1.0
vn 1.0 0.0 0.0
vn 1.0 0.0 0.0
vn 1.0 0.0 0.0
vn 1.0 0.0 0.0
vn -0.0 0.0 -1.0
vn -0.0 0.0 -1.0
vn -0.0 0.0 -1.0
vn -0.0 0.0 -1.0
vn -1.0 0.0 0.0
vn -1.0 0.0 0.0
vn -1.0 0.0 0.0
vn -1.0 0.0 0.0
vn -0.0 0.0 -1.0
vn -0.0 0.0 -1.0
vn -0.0 0.0 -1.0
vn -0.0 0.0 -1.0
vn -0.0 0.0 1.0
vn -0.0 0.0 1.0
vn -0.0 0.0 1.0
vn -0.0 0.0 1.0
vn -0.0 -1.0 0.0
vn -0.0 -1.0 0.0
vn -0.0 -1.0 0.0
vn -0.0 -1.0 0.0
vn -0.0 1.0 0.0
vn -0.0 1.0 0.0
vn -0.0 1.0 0.0
vn -0.0 1.0 0.0
vn 1.0 0.0 0.0
vn 1.0 0.0 0.0
vn 1.0 0.0 0.0
vn 1.0 0.0 0.0
vn -0.0 0.0 -1.0
vn -0.0 0.0 -1.0
vn -0.0 0.0 -1.0
vn -0.0 0.0 -1.0
vn -1.0 0.0 0.0
vn -1.0 0.0 0.0
vn -1.0 0.0 0.0
vn -1.0 0.0 0.0
vn -0.0 0.0 1.0
vn -0.0 0.0 1.0
vn -0.0 0.0 1.0
vn -0.0 0.0 1.0
vn -1.0 0.0 0.0
vn -1.0 0.0 0.0
vn -1.0 0.0 0.0
vn -1.0 0.0 0.0
vn 1.0 0.0 0.0
vn 1.0 0.0 0.0
vn 1.0 0.0 0.0
vn 1.0 0.0 0.0
vt 0.3960761 0.9095643
vt 0.40011612 0.9136044
vt 0.3960761 0.9136044
vt 0.40011612 0.9095643
vt 0.3960761 0.91360104
vt 0.40011612 0.909561
vt 0.40011612 0.91360104
vt 0.3960761 0.909561
vt 0.3960761 0.9990424
vt 0.40011612 0.824123
vt 0.40011612 0.9990424
vt 0.3960761 0.824123
vt 0.39607778 0.9990424
vt 0.40011784 0.824123
vt 0.40011784 0.9990424
vt 0.39607778 0.824123
vt 0.3960761 0.9990424
vt 0.40011612 0.824123
vt 0.40011612 0.9990424
vt 0.3960761 0.824123
vt 0.3960744 0.9990424
vt 0.4001145 0.824123
vt 0.4001145 0.9990424
vt 0.3960744 0.824123
vt 0.3960761 0.9095643
vt 0.40011612 0.9136044
vt 0.3960761 0.9136044
vt 0.40011612 0.9095643
vt 0.3960761 0.91360104
vt 0.40011612 0.909561
vt 0.40011612 0.91360104
vt 0.3960761 0.909561
vt 0.3960761 0.9990424
vt 0.40011612 0.824123
vt 0.40011612 0.9990424
vt 0.3960761 0.824123
vt 0.39607778 0.9990424
vt 0.40011784 0.824123
vt 0.40011784 0.9990424
vt 0.39607778 0.824123
vt 0.3960761 0.9990424
vt 0.40011612 0.824123
vt 0.40011612 0.9990424
vt 0.3960761 0.824123
vt 0.3960744 0.9990424
vt 0.4001145 0.824123
vt 0.4001145 0.9990424
vt 0.3960744 0.824123
vt 0.0042390125 0.998465
vt 0.39500353 0.82415634
vt 0.39500353 0.998465
vt 0.0042390125 0.82415634
vt 0.0042390125 0.998465
vt 0.39500353 0.82415634
vt 0.0042390125 0.82415634
vt 0.39500353 0.998465
vt 0.3960761 0.9095643
vt 0.40011612 0.9136044
vt 0.3960761 0.9136044
vt 0.40011612 0.9095643
vt 0.3960761 0.91360104
vt 0.40011612 0.909561
vt 0.40011612 0.91360104
vt 0.3960761 0.909561
vt 0.3960761 0.9990424
vt 0.40011612 0.824123
vt 0.40011612 0.9990424
vt 0.3960761 0.824123
vt 0.39607778 0.9990424
vt 0.40011784 0.824123
vt 0.40011784 0.9990424
vt 0.39607778 0.824123
vt 0.3960761 0.9990424
vt 0.40011612 0.824123
vt 0.40011612 0.9990424
vt 0.3960761 0.824123
vt 0.3960744 0.9990424
vt 0.4001145 0.824123
vt 0.4001145 0.9990424
vt 0.3960744 0.824123
vt 0.0042390125 0.998465
vt 0.39500353 0.82415634
vt 0.39500353 0.998465
vt 0.0042390125 0.82415634
vt 0.0042390125 0.998465
vt 0.39500353 0.82415634
vt 0.0042390125 0.82415634
vt 0.39500353 0.998465

g Iron_Fence_Black_Corner
s 1
usemtl Iron_Fence_Black_Corner
f 3/3/3 2/2/2 1/1/1 
f 4/4/4 1/1/1 2/2/2 
f 7/7/7 6/6/6 5/5/5 
f 8/8/8 5/5/5 6/6/6 
f 11/11/11 10/10/10 9/9/9 
f 12/12/12 9/9/9 10/10/10 
f 15/15/15 14/14/14 13/13/13 
f 16/16/16 13/13/13 14/14/14 
f 19/19/19 18/18/18 17/17/17 
f 20/20/20 17/17/17 18/18/18 
f 23/23/23 22/22/22 21/21/21 
f 24/24/24 21/21/21 22/22/22 
f 27/27/27 26/26/26 25/25/25 
f 28/28/28 25/25/25 26/26/26 
f 31/31/31 30/30/30 29/29/29 
f 32/32/32 29/29/29 30/30/30 
f 35/35/35 34/34/34 33/33/33 
f 36/36/36 33/33/33 34/34/34 
f 39/39/39 38/38/38 37/37/37 
f 40/40/40 37/37/37 38/38/38 
f 43/43/43 42/42/42 41/41/41 
f 44/44/44 41/41/41 42/42/42 
f 47/47/47 46/46/46 45/45/45 
f 48/48/48 45/45/45 46/46/46 
f 51/51/51 50/50/50 49/49/49 
f 52/52/52 49/49/49 50/50/50 
f 55/55/55 54/54/54 53/53/53 
f 56/56/56 53/53/53 54/54/54 
f 59/59/59 58/58/58 57/57/57 
f 60/60/60 57/57/57 58/58/58 
f 63/63/63 62/62/62 61/61/61 
f 64/64/64 61/61/61 62/62/62 
f 67/67/67 66/66/66 65/65/65 
f 68/68/68 65/65/65 66/66/66 
f 71/71/71 70/70/70 69/69/69 
f 72/72/72 69/69/69 70/70/70 
f 75/75/75 74/74/74 73/73/73 
f 76/76/76 73/73/73 74/74/74 
f 79/79/79 78/78/78 77/77/77 
f 80/80/80 77/77/77 78/78/78 
f 83/83/83 82/82/82 81/81/81 
f 84/84/84 81/81/81 82/82/82 
f 87/87/87 86/86/86 85/85/85 
f 88/88/88 85/85/85 86/86/86 

