# Created by DisUnity v0.3.4
v -11.358917 0.25351334 -1.3115768
v -9.128845 0.25351334 0.9184685
v -9.128845 0.2535286 -1.3115768
v -11.358917 0.25351334 0.9184685
v -11.358917 0.25351334 0.9184685
v -11.358917 43.529324 -1.3115768
v -11.358917 43.529324 0.9184704
v -11.358917 0.25351334 -1.3115768
v -9.128845 0.25351334 0.9184685
v -11.358917 43.529324 0.9184704
v -9.128845 43.529324 0.9184704
v -11.358917 0.25351334 0.9184685
v -9.128845 0.2535286 -1.3115768
v -9.128845 43.529324 0.9184704
v -9.128845 43.529316 -1.3115768
v -9.128845 0.25351334 0.9184685
v -11.358917 0.25351334 -1.3115768
v -9.128845 43.529316 -1.3115768
v -11.358917 43.529324 -1.3115768
v -9.128845 0.2535286 -1.3115768
v 8.343689 0.2535591 -1.3115768
v 10.57373 0.2535591 0.9184704
v 10.57373 0.2535591 -1.3115788
v 8.343689 0.2535591 0.9184704
v 8.343689 0.2535591 0.9184704
v 8.343689 43.52934 -1.3115768
v 8.343689 43.52934 0.9184704
v 8.343689 0.2535591 -1.3115768
v 10.57373 0.2535591 0.9184704
v 8.343689 43.52934 0.9184704
v 10.57373 43.529346 0.9184704
v 8.343689 0.2535591 0.9184704
v 10.57373 0.2535591 -1.3115788
v 10.57373 43.529346 0.9184704
v 10.57373 43.529346 -1.3115768
v 10.57373 0.2535591 0.9184704
v 8.343689 0.2535591 -1.3115768
v 10.57373 43.529346 -1.3115768
v 8.343689 43.52934 -1.3115768
v 10.57373 0.2535591 -1.3115788
v 17.539185 42.82885 -1.1905384
v 17.558258 40.834446 1.2857952
v 17.539185 42.82885 1.2667046
v 17.558258 40.834446 -1.2096272
v 17.558258 40.834446 -1.2096272
v 0.0034179688 40.882446 1.2667027
v 17.558258 40.834446 1.2857952
v 0.0034179688 40.882446 -1.1905384
v 17.558258 40.834446 1.2857952
v 0.0034179688 42.828835 1.2236195
v 17.539185 42.82885 1.2667046
v 0.0034179688 40.882446 1.2667027
v 17.539185 42.82885 -1.1905384
v 0.0034179688 40.882446 -1.1905384
v 17.558258 40.834446 -1.2096272
v 0.0034179688 42.828835 -1.1474533
v -17.532349 42.828842 -1.1905384
v -17.551453 40.834423 1.2857933
v -17.551453 40.834423 -1.2096272
v -17.532349 42.828842 1.2667046
v -17.551453 40.834423 -1.2096272
v 0.0034179688 40.882446 1.2667027
v 0.0034179688 40.882446 -1.1905384
v -17.551453 40.834423 1.2857933
v -17.551453 40.834423 1.2857933
v 0.0034179688 42.828835 1.2236195
v 0.0034179688 40.882446 1.2667027
v -17.532349 42.828842 1.2667046
v -17.532349 42.828842 -1.1905384
v 0.0034179688 40.882446 -1.1905384
v 0.0034179688 42.828835 -1.1474533
v -17.551453 40.834423 -1.2096272
v -9.128845 43.529324 0.9184704
v -11.358917 43.529324 -1.3115768
v -9.128845 43.529316 -1.3115768
v -11.358917 43.529324 0.9184704
v 10.57373 43.529346 0.9184704
v 8.343689 43.52934 -1.3115768
v 10.57373 43.529346 -1.3115768
v 8.343689 43.52934 0.9184704
v 6.1035156E-5 41.17231 -1.2141647
v 8.799133 41.17231 1.3116722
v 6.1035156E-5 41.17231 1.3116722
v 8.799133 41.17231 -1.2141647
v -17.598206 41.17231 -1.2141647
v -8.799072 41.17231 1.3116722
v -17.598206 41.17231 1.3116722
v -8.799072 41.17231 -1.2141647
v -8.799072 41.17231 -1.2141647
v 6.1035156E-5 41.17231 1.3116722
v -8.799072 41.17231 1.3116722
v 6.1035156E-5 41.17231 -1.2141647
v 17.598297 41.17231 1.3116722
v 8.799133 41.17231 -1.2141647
v 17.598297 41.17231 -1.2141647
v 8.799133 41.17231 1.3116722
vn -0.0 -1.0 0.0
vn -0.0 -1.0 0.0
vn -0.0 -1.0 0.0
vn -0.0 -1.0 0.0
vn -1.0 0.0 0.0
vn -1.0 0.0 0.0
vn -1.0 0.0 0.0
vn -1.0 0.0 0.0
vn -0.0 0.0 1.0
vn -0.0 0.0 1.0
vn -0.0 0.0 1.0
vn -0.0 0.0 1.0
vn 1.0 0.0 0.0
vn 1.0 0.0 0.0
vn 1.0 0.0 0.0
vn 1.0 0.0 0.0
vn -0.0 0.0 -1.0
vn -0.0 0.0 -1.0
vn -0.0 0.0 -1.0
vn -0.0 0.0 -1.0
vn -0.0 -1.0 0.0
vn -0.0 -1.0 0.0
vn -0.0 -1.0 0.0
vn -0.0 -1.0 0.0
vn -1.0 0.0 0.0
vn -1.0 0.0 0.0
vn -1.0 0.0 0.0
vn -1.0 0.0 0.0
vn -0.0 0.0 1.0
vn -0.0 0.0 1.0
vn -0.0 0.0 1.0
vn -0.0 0.0 1.0
vn 1.0 0.0 0.0
vn 1.0 0.0 0.0
vn 1.0 0.0 0.0
vn 1.0 0.0 0.0
vn -0.0 0.0 -1.0
vn -0.0 0.0 -1.0
vn -0.0 0.0 -1.0
vn -0.0 0.0 -1.0
vn 0.99995434 0.009563066 0.0
vn 0.99995434 0.009563065 0.0
vn 0.99995434 0.009563065 0.0
vn 0.99995434 0.009563065 0.0
vn -0.0027342977 -0.9999963 0.0
vn -0.0 -1.0 0.0
vn -0.0027342977 -0.9999963 0.0
vn -0.0 -1.0 0.0
vn -0.002355569 0.010439572 0.9999428
vn -0.0 0.021223452 0.99977475
vn -0.0024568734 0.00954815 0.9999515
vn -0.0 0.02212952 0.9997551
vn -0.0011588064 0.010440054 -0.9999448
vn -0.0 0.021225674 -0.99977475
vn -0.0010611861 0.009560562 -0.99995375
vn -0.0 0.022130504 -0.9997551
vn -0.9999541 0.009578289 0.0
vn -0.9999541 0.00957829 0.0
vn -0.9999541 0.00957829 0.0
vn -0.9999541 0.009578292 0.0
vn 0.0027355966 -0.9999963 0.0
vn -0.0 -1.0 0.0
vn -0.0 -1.0 0.0
vn 0.0027355966 -0.9999963 0.0
vn 0.0023555546 0.010438585 0.9999428
vn -0.0 0.021223452 0.99977475
vn -0.0 0.02212952 0.9997551
vn 0.0024568692 0.009547083 0.9999515
vn 0.0011587921 0.010439967 -0.9999448
vn -0.0 0.021225674 -0.99977475
vn -0.0 0.022130504 -0.9997551
vn 0.0010611721 0.009560474 -0.99995375
vn -0.0 1.0 0.0
vn -0.0 1.0 0.0
vn -0.0 1.0 0.0
vn -0.0 1.0 0.0
vn -0.0 1.0 0.0
vn -0.0 1.0 0.0
vn -0.0 1.0 0.0
vn -0.0 1.0 0.0
vn -0.0 1.0 0.0
vn -0.0 1.0 0.0
vn -0.0 1.0 0.0
vn -0.0 1.0 0.0
vn -0.0 1.0 0.0
vn -0.0 1.0 0.0
vn -0.0 1.0 0.0
vn -0.0 1.0 0.0
vn -0.0 1.0 0.0
vn -0.0 1.0 0.0
vn -0.0 1.0 0.0
vn -0.0 1.0 0.0
vn -0.0 1.0 0.0
vn -0.0 1.0 0.0
vn -0.0 1.0 0.0
vn -0.0 1.0 0.0
vt -0.009258866 0.9976753
vt 0.1107564 0.876061
vt 0.1107564 0.9976753
vt -0.009258866 0.876061
vt 0.11771028 0.99944925
vt -4.2186226E-4 -1.7138784
vt 0.11771028 -1.7138784
vt -4.2186226E-4 0.99944925
vt 0.11816434 0.99944925
vt 3.2200274E-5 -1.7138784
vt 0.11816434 -1.7138784
vt 3.2200274E-5 0.99944925
vt 0.11816434 0.99944925
vt 3.2200274E-5 -1.7138784
vt 0.11816434 -1.7138782
vt 3.2200274E-5 0.99944925
vt 0.11816434 0.99944925
vt 3.2200274E-5 -1.7138784
vt 0.11816433 -1.7138782
vt 3.2200274E-5 0.99944925
vt -0.009258866 0.9976753
vt 0.1107564 0.876061
vt 0.1107564 0.9976753
vt -0.009258866 0.876061
vt 0.11816434 0.99944925
vt 3.2200274E-5 -1.7138784
vt 0.11816434 -1.7138784
vt 3.2200274E-5 0.99944925
vt 0.11816434 0.99944925
vt 3.2200274E-5 -1.7138784
vt 0.11816434 -1.7138784
vt 3.2200274E-5 0.99944925
vt 0.11816434 0.99944925
vt 3.2200274E-5 -1.7138784
vt 0.11816434 -1.7138782
vt 3.2200274E-5 0.99944925
vt 0.11816434 0.99944925
vt 3.2200274E-5 -1.7138784
vt 0.11816433 -1.7138782
vt 3.2200274E-5 0.99944925
vt 0.20089057 0.28509867
vt 0.12168338 0.35071683
vt 0.12168338 0.28509867
vt 0.20089057 0.35071683
vt 0.11920565 0.020906925
vt 0.0018491745 0.88238853
vt 0.0018491745 0.020906925
vt 0.11920555 0.8823885
vt 0.12160575 0.99944925
vt 0.20029324 0.3713038
vt 0.20029311 0.99944925
vt 0.12160586 0.3713038
vt 0.19968925 0.28594947
vt 0.12100183 0.9140949
vt 0.12100196 0.28594947
vt 0.19968915 0.9140949
vt 0.20089057 0.28509867
vt 0.12168338 0.35071683
vt 0.20089057 0.35071683
vt 0.12168338 0.28509867
vt 0.11920565 0.020906925
vt 0.0018491745 0.88238853
vt 0.11920555 0.8823885
vt 0.0018491745 0.020906925
vt 0.12160575 0.99944925
vt 0.20029324 0.3713038
vt 0.12160586 0.3713038
vt 0.20029311 0.99944925
vt 0.19968925 0.28594947
vt 0.12100183 0.9140949
vt 0.19968915 0.9140949
vt 0.12100196 0.28594947
vt 0.11799392 0.50887
vt 0.0015768176 0.60476226
vt 0.0015768893 0.50887
vt 0.11799392 0.60476226
vt 0.0039441204 0.50841594
vt 0.117575906 0.60430795
vt 0.0039441204 0.60430795
vt 0.117575906 0.50841594
vt 0.27861214 0.21273232
vt 0.35295087 0.0030398965
vt 0.35295087 0.21273232
vt 0.27861214 0.0030398965
vt 0.27898052 0.21330601
vt 0.35331926 0.0036136508
vt 0.35331926 0.21330601
vt 0.27898052 0.0036136508
vt 0.27898052 0.21252638
vt 0.35331926 0.0028339624
vt 0.35331926 0.21252638
vt 0.27898052 0.0028339624
vt 0.35331926 0.005095005
vt 0.27898052 0.2147873
vt 0.27898052 0.005095005
vt 0.35331926 0.2147873

g LiftSystem
s 1
usemtl LiftSystem
f 3/3/3 2/2/2 1/1/1 
f 4/4/4 1/1/1 2/2/2 
f 7/7/7 6/6/6 5/5/5 
f 8/8/8 5/5/5 6/6/6 
f 11/11/11 10/10/10 9/9/9 
f 12/12/12 9/9/9 10/10/10 
f 15/15/15 14/14/14 13/13/13 
f 16/16/16 13/13/13 14/14/14 
f 19/19/19 18/18/18 17/17/17 
f 20/20/20 17/17/17 18/18/18 
f 23/23/23 22/22/22 21/21/21 
f 24/24/24 21/21/21 22/22/22 
f 27/27/27 26/26/26 25/25/25 
f 28/28/28 25/25/25 26/26/26 
f 31/31/31 30/30/30 29/29/29 
f 32/32/32 29/29/29 30/30/30 
f 35/35/35 34/34/34 33/33/33 
f 36/36/36 33/33/33 34/34/34 
f 39/39/39 38/38/38 37/37/37 
f 40/40/40 37/37/37 38/38/38 
f 43/43/43 42/42/42 41/41/41 
f 44/44/44 41/41/41 42/42/42 
f 47/47/47 46/46/46 45/45/45 
f 48/48/48 45/45/45 46/46/46 
f 51/51/51 50/50/50 49/49/49 
f 52/52/52 49/49/49 50/50/50 
f 55/55/55 54/54/54 53/53/53 
f 56/56/56 53/53/53 54/54/54 
f 59/59/59 58/58/58 57/57/57 
f 60/60/60 57/57/57 58/58/58 
f 63/63/63 62/62/62 61/61/61 
f 64/64/64 61/61/61 62/62/62 
f 67/67/67 66/66/66 65/65/65 
f 68/68/68 65/65/65 66/66/66 
f 71/71/71 70/70/70 69/69/69 
f 72/72/72 69/69/69 70/70/70 
f 75/75/75 74/74/74 73/73/73 
f 76/76/76 73/73/73 74/74/74 
f 79/79/79 78/78/78 77/77/77 
f 80/80/80 77/77/77 78/78/78 
f 83/83/83 82/82/82 81/81/81 
f 84/84/84 81/81/81 82/82/82 
f 87/87/87 86/86/86 85/85/85 
f 88/88/88 85/85/85 86/86/86 
f 91/91/91 90/90/90 89/89/89 
f 92/92/92 89/89/89 90/90/90 
f 95/95/95 94/94/94 93/93/93 
f 96/96/96 93/93/93 94/94/94 

