# Created by DisUnity v0.3.4
v -5.722046E-5 0.080840826 -4.499565
v -4.196167E-5 -1.2457371E-4 -1.373291E-4
v -4.196167E-5 0.08084071 -1.373291E-4
v -5.722046E-5 -1.2433529E-4 -4.499565
v -0.2963066 0.3831385 -1.373291E-4
v -0.29632187 0.38313866 -4.4995575
v -0.36912155 1.3028734 -1.373291E-4
v -0.36912918 1.3029525 -4.4995613
v -0.60993576 1.3029525 -4.603882
v -0.36912155 1.3028734 -1.373291E-4
v -0.6099129 1.3028734 -1.373291E-4
v -0.36912918 1.3029525 -4.4995613
v -0.6099434 0.080840826 -4.7872467
v -0.29632187 0.38313866 -4.4995575
v -0.6561775 0.38313866 -4.6720505
v -5.722046E-5 0.080840826 -4.499565
v -0.6099434 -1.2433529E-4 -4.7872467
v -5.722046E-5 -1.2433529E-4 -4.499565
v -0.60993576 1.3029525 -4.603882
v -0.36912918 1.3029525 -4.4995613
v -0.6099434 0.080840826 -4.7872467
v -1.1834297 -1.2433529E-4 -4.4995575
v -0.6099434 -1.2433529E-4 -4.7872467
v -1.1834297 0.080840826 -4.4995575
v -0.8872566 0.38313866 -4.499565
v -0.6561775 0.38313866 -4.6720505
v -0.60993576 1.3029525 -4.603882
v -0.8145561 1.3029525 -4.499565
v -1.1833992 -1.2457371E-4 -1.373291E-4
v -1.1834297 0.080840826 -4.4995575
v -1.1833992 0.08084071 -1.373291E-4
v -1.1834297 -1.2433529E-4 -4.4995575
v -0.8872566 0.38313866 -4.499565
v -0.8872185 0.38313845 -1.373291E-4
v -0.8145561 1.3029525 -4.499565
v -0.8145256 1.3028734 -1.373291E-4
v -0.60993576 1.3029525 -4.603882
v -0.6099129 1.3028734 -1.373291E-4
v -1.1833992 -1.2457371E-4 -1.373291E-4
v -4.196167E-5 0.08084071 -1.373291E-4
v -4.196167E-5 -1.2457371E-4 -1.373291E-4
v -1.1833992 0.08084071 -1.373291E-4
v -0.8872185 0.38313845 -1.373291E-4
v -0.2963066 0.3831385 -1.373291E-4
v -0.6099129 1.3028734 -1.373291E-4
v -0.36912155 1.3028734 -1.373291E-4
v -0.8145256 1.3028734 -1.373291E-4
vn 0.9257972 0.37802044 0.0
vn 1.0 0.0 0.0
vn 0.9257964 0.37802237 0.0
vn 1.0 0.0 0.0
vn 0.91014516 0.41428956 0.0
vn 0.91014737 0.41428453 0.0
vn 0.6786349 0.73447585 0.0
vn 0.597116 0.8021549 1.3099214E-5
vn -0.0 1.0 1.7575174E-5
vn 0.6786349 0.73447585 0.0
vn -0.0 1.0 1.7193608E-5
vn 0.597116 0.8021549 1.3099214E-5
vn -0.009769429 0.19061242 -0.98161674
vn 0.4136491 0.25117826 -0.8751023
vn -0.13605352 0.21587487 -0.96689576
vn 0.42231938 0.14159946 -0.89531887
vn -0.012107976 0.0 -0.9999267
vn 0.42661798 0.0 -0.90443194
vn -0.029364912 0.045167077 -0.99854773
vn 0.39731786 0.03144565 -0.9171422
vn -0.009769429 0.19061242 -0.98161674
vn -0.4483928 0.0 -0.89383656
vn -0.012107976 0.0 -0.9999267
vn -0.44339326 0.14891449 -0.8838704
vn -0.516059 0.23995319 -0.8222565
vn -0.13605352 0.21587487 -0.96689576
vn -0.029364912 0.045167077 -0.99854773
vn -0.45389667 0.035875205 -0.89033186
vn -1.0 0.0 0.0
vn -0.92582494 0.37795255 0.0
vn -0.9258231 0.3779573 0.0
vn -1.0 0.0 0.0
vn -0.91020465 0.4141588 0.0
vn -0.91020215 0.4141643 0.0
vn -0.5858673 0.810407 1.8388184E-5
vn -0.67868036 0.73443377 1.7259805E-5
vn -0.0 1.0 1.7575174E-5
vn -0.0 1.0 1.7193608E-5
vn -0.0 0.0 1.0
vn -0.0 0.0 1.0
vn -0.0 0.0 1.0
vn -0.0 0.0 1.0
vn -0.0 0.0 1.0
vn -0.0 0.0 1.0
vn -0.0 0.0 1.0
vn -0.0 0.0 1.0
vn -0.0 0.0 1.0
vt 0.8038937 0.87095517
vt 0.6899996 0.8742205
vt 0.6899996 0.870962
vt 0.8038937 0.87429345
vt 0.6899995 0.8591012
vt 0.8038936 0.8591008
vt 0.68999946 0.8214754
vt 0.8038936 0.8214912
vt 0.8038933 0.8140781
vt 0.68999946 0.8214754
vt 0.68999934 0.8140781
vt 0.8038936 0.8214912
vt 0.5884675 0.8709574
vt 0.5786531 0.8590874
vt 0.58845985 0.85908735
vt 0.5688701 0.8709573
vt 0.5884721 0.87414736
vt 0.5688748 0.87414736
vt 0.5884509 0.8214499
vt 0.58108157 0.8214545
vt 0.5884675 0.8709574
vt 0.60806954 0.87414736
vt 0.5884721 0.87414736
vt 0.6080649 0.8709574
vt 0.59826666 0.8590873
vt 0.58845985 0.85908735
vt 0.5884509 0.8214499
vt 0.59586495 0.8214452
vt 0.68999946 0.87414736
vt 0.8038937 0.8708957
vt 0.6899996 0.8709322
vt 0.80389357 0.87414736
vt 0.8038937 0.8591014
vt 0.6899996 0.85910153
vt 0.80389374 0.8214519
vt 0.6899996 0.8214557
vt 0.8038933 0.81401515
vt 0.68999934 0.8140466
vt 0.6402981 0.87488747
vt 0.68831766 0.871602
vt 0.68831766 0.87488747
vt 0.6402981 0.87160194
vt 0.65231675 0.859335
vt 0.67629546 0.859335
vt 0.6635696 0.822013
vt 0.67334074 0.822013
vt 0.6552667 0.822013

g Median_End_For_Intersections
s 1
usemtl Median_End_For_Intersections
f 3/3/3 2/2/2 1/1/1 
f 4/4/4 1/1/1 2/2/2 
f 3/3/3 1/1/1 5/5/5 
f 6/6/6 5/5/5 1/1/1 
f 5/5/5 6/6/6 7/7/7 
f 8/8/8 7/7/7 6/6/6 
f 11/11/11 10/10/10 9/9/9 
f 12/12/12 9/9/9 10/10/10 
f 15/15/15 14/14/14 13/13/13 
f 16/16/16 13/13/13 14/14/14 
f 13/13/13 16/16/16 17/17/17 
f 18/18/18 17/17/17 16/16/16 
f 15/15/15 19/19/19 14/14/14 
f 20/20/20 14/14/14 19/19/19 
f 23/23/23 22/22/22 21/21/21 
f 24/24/24 21/21/21 22/22/22 
f 24/24/24 25/25/25 21/21/21 
f 26/26/26 21/21/21 25/25/25 
f 26/26/26 25/25/25 27/27/27 
f 28/28/28 27/27/27 25/25/25 
f 31/31/31 30/30/30 29/29/29 
f 32/32/32 29/29/29 30/30/30 
f 30/30/30 31/31/31 33/33/33 
f 34/34/34 33/33/33 31/31/31 
f 33/33/33 34/34/34 35/35/35 
f 36/36/36 35/35/35 34/34/34 
f 35/35/35 36/36/36 37/37/37 
f 38/38/38 37/37/37 36/36/36 
f 41/41/41 40/40/40 39/39/39 
f 42/42/42 39/39/39 40/40/40 
f 42/42/42 40/40/40 43/43/43 
f 44/44/44 43/43/43 40/40/40 
f 43/43/43 44/44/44 45/45/45 
f 46/46/46 45/45/45 44/44/44 
f 47/47/47 43/43/43 45/45/45 

