# Created by DisUnity v0.3.4
v 1.04904175E-5 0.48566663 -4.0000343
v -1.9999237 0.48566663 -1.5258789E-5
v -1.9999237 0.48566663 -4.000034
v 1.04904175E-5 0.48566663 -1.5735626E-5
v -1.9999237 0.48566663 -4.000034
v -1.999689 0.24984145 1.0704994E-4
v -1.9996884 0.24984145 -3.9999115
v -1.9999237 0.48566663 -1.5258789E-5
v 1.04904175E-5 4.6908855E-5 -4.0000343
v 1.04904175E-5 0.48566663 -1.5735626E-5
v 1.04904175E-5 0.48566663 -4.0000343
v 1.04904175E-5 4.6908855E-5 -1.5735626E-5
v -5.9994726 0.48564893 -3.9997902
v -7.999407 0.48564893 2.2935867E-4
v -7.999407 0.48564893 -3.9997888
v -5.9994726 0.48564893 2.28405E-4
v -7.999407 0.48564893 -3.9997888
v -7.999407 2.9206276E-5 2.2935867E-4
v -7.999407 2.9206276E-5 -3.9997888
v -7.999407 0.48564893 2.2935867E-4
v -5.999472 0.24983257 -3.9997902
v -5.9994726 0.48564893 2.28405E-4
v -5.9994726 0.48564893 -3.9997902
v -5.9994726 0.24983257 2.28405E-4
v -5.999472 0.24983257 -3.9997902
v -1.999689 0.24984145 1.0681152E-4
v -5.9994726 0.24983257 2.2888184E-4
v -1.9996884 0.24984145 -3.9999123
vn -0.0 1.0 0.0
vn -0.0 1.0 0.0
vn -0.0 1.0 0.0
vn -0.0 1.0 0.0
vn -0.9999995 -9.977589E-4 0.0
vn -0.9999995 -9.954211E-4 0.0
vn -0.9999995 -9.978537E-4 0.0
vn -0.9999995 -9.953262E-4 0.0
vn 1.0 0.0 0.0
vn 1.0 0.0 0.0
vn 1.0 0.0 0.0
vn 1.0 0.0 0.0
vn -0.0 1.0 0.0
vn -0.0 1.0 0.0
vn -0.0 1.0 0.0
vn -0.0 1.0 0.0
vn -1.0 0.0 0.0
vn -1.0 0.0 0.0
vn -1.0 0.0 0.0
vn -1.0 0.0 0.0
vn 1.0 0.0 0.0
vn 1.0 0.0 0.0
vn 1.0 0.0 0.0
vn 1.0 0.0 0.0
vn -0.0 1.0 0.0
vn -0.0 1.0 0.0
vn -0.0 1.0 0.0
vn -0.0 1.0 0.0
vt 0.6791228 0.751142
vt 0.5752852 0.7779535
vt 0.6791228 0.7779535
vt 0.5752852 0.751142
vt 0.6791228 0.7779535
vt 0.5752852 0.78130496
vt 0.6791228 0.78130496
vt 0.5752852 0.7779535
vt 0.67912287 0.80811644
vt 0.5752852 0.8114679
vt 0.67912287 0.8114679
vt 0.5752852 0.80811644
vt 0.6791228 0.751142
vt 0.5752852 0.7779535
vt 0.6791228 0.7779535
vt 0.5752852 0.751142
vt 0.6791228 0.7779535
vt 0.5752852 0.78130496
vt 0.6791228 0.78130496
vt 0.5752852 0.7779535
vt 0.67912287 0.80811644
vt 0.5752852 0.8114679
vt 0.67912287 0.8114679
vt 0.5752852 0.80811644
vt 0.49965498 0.37121952
vt 0.4386021 0.43208802
vt 0.4386021 0.37121952
vt 0.49965498 0.43208802

g One_Lane_18
s 1
usemtl One_Lane_18
f 3/3/3 2/2/2 1/1/1 
f 4/4/4 1/1/1 2/2/2 
f 7/7/7 6/6/6 5/5/5 
f 8/8/8 5/5/5 6/6/6 
f 11/11/11 10/10/10 9/9/9 
f 12/12/12 9/9/9 10/10/10 
f 15/15/15 14/14/14 13/13/13 
f 16/16/16 13/13/13 14/14/14 
f 19/19/19 18/18/18 17/17/17 
f 20/20/20 17/17/17 18/18/18 
f 23/23/23 22/22/22 21/21/21 
f 24/24/24 21/21/21 22/22/22 
f 27/27/27 26/26/26 25/25/25 
f 28/28/28 25/25/25 26/26/26 

