# Created by DisUnity v0.3.4
v -1.9999568 0.24537155 -9.9999275
v -9.999878 0.24537015 -17.999847
v -1.9999526 0.24537155 -18.000093
v -9.999881 0.24537015 -9.999683
v -19.999926 0.24536856 -18.000093
v -11.999973 0.24536987 -9.999564
v -19.999933 0.24536856 -9.999932
v -11.999972 0.24536987 -17.999733
v -9.999881 0.24537015 -9.999683
v -11.999972 0.24536987 -17.999733
v -9.999878 0.24537015 -17.999847
v -11.999973 0.24536987 -9.999564
v -1.9999532 0.24537171 -28.00002
v -9.999879 0.24537022 -19.999952
v -9.999877 0.24537031 -27.999777
v -1.9999536 0.24537162 -20.000196
v -9.999878 0.24537015 -17.999847
v -1.9999536 0.24537162 -20.000196
v -1.9999526 0.24537155 -18.000093
v -9.999879 0.24537022 -19.999952
v 8.000092 0.24537346 -9.999928
v 1.428176E-4 0.24537197 -17.99998
v 8.000098 0.24537346 -18.000093
v 1.414188E-4 0.24537197 -9.99981
v -1.9999526 0.24537155 -18.000093
v 1.414188E-4 0.24537197 -9.99981
v -1.9999568 0.24537155 -9.9999275
v 1.428176E-4 0.24537197 -17.99998
v -9.999884 0.2453703 2.3953116E-4
v -1.9999539 0.24537162 -8.000078
v -1.9999566 0.2453717 1.5576651E-6
v -9.999878 0.24537021 -7.999836
v -1.9999568 0.24537155 -9.9999275
v -9.999878 0.24537021 -7.999836
v -9.999881 0.24537015 -9.999683
v -1.9999539 0.24537162 -8.000078
v -1.9999573 0.47694317 -10.000046
v -1.7079107E-4 0.47694367 -1.1444095E-4
v -1.9999615 0.4769433 -1.15744275E-4
v -1.6605447E-4 0.47694358 -8.000013
v -1.9999568 0.24537155 -9.9999275
v -1.9999615 0.4769433 -1.15744275E-4
v -1.9999566 0.2453717 1.5576651E-6
v -1.9999573 0.47694317 -10.000046
v -1.6605447E-4 0.47694358 -8.000013
v -1.6975401E-4 6.508824E-5 -1.1444095E-4
v -1.7079107E-4 0.47694367 -1.1444095E-4
v -1.6501741E-4 6.4969034E-5 -8.000014
v 8.00009 0.47694507 -10.000044
v -1.6605447E-4 0.47694358 -8.000013
v -1.9999573 0.47694317 -10.000046
v 8.000091 0.47694507 -8.0000105
v 8.000092 0.24537346 -9.999928
v -1.9999573 0.47694317 -10.000046
v -1.9999568 0.24537155 -9.9999275
v 8.00009 0.47694507 -10.000044
v 8.000091 0.47694507 -8.0000105
v -1.6501741E-4 6.4969034E-5 -8.000014
v -1.6605447E-4 0.47694358 -8.000013
v 8.000091 6.648705E-5 -8.0000105
v -9.999883 0.47694176 -9.999803
v -19.999939 0.47694018 -8.000021
v -19.999937 0.47694018 -10.000055
v -11.999916 0.47694147 -7.999769
v -9.999881 0.24537015 -9.999683
v -19.999937 0.47694018 -10.000055
v -19.999933 0.24536856 -9.999932
v -9.999883 0.47694176 -9.999803
v -11.999916 0.47694147 -7.999769
v -19.999937 6.1472165E-5 -8.000021
v -19.999939 0.47694018 -8.000021
v -11.999915 6.281133E-5 -7.9997687
v -9.99989 0.4769419 1.231829E-4
v -11.999916 0.47694147 -7.999769
v -9.999883 0.47694176 -9.999803
v -11.999924 0.47694156 1.1806483E-4
v -9.999884 0.2453703 2.3953116E-4
v -9.999883 0.47694176 -9.999803
v -9.999881 0.24537015 -9.999683
v -9.99989 0.4769419 1.231829E-4
v -11.999924 0.47694156 1.1806483E-4
v -11.999915 6.281133E-5 -7.9997687
v -11.999916 0.47694147 -7.999769
v -11.999922 6.287093E-5 1.2187953E-4
v -9.999878 0.47694176 -17.99996
v -11.999909 0.47694156 -27.999891
v -9.999874 0.4769419 -27.999891
v -11.999912 0.47694147 -19.99975
v -9.999878 0.24537015 -17.999847
v -9.999874 0.4769419 -27.999891
v -9.999877 0.24537031 -27.999777
v -9.999878 0.47694176 -17.99996
v -11.999912 0.47694147 -19.99975
v -11.999909 6.287093E-5 -27.999891
v -11.999909 0.47694156 -27.999891
v -11.999913 6.275172E-5 -19.99975
v -19.999924 0.47694018 -18.000208
v -11.999912 0.47694147 -19.99975
v -9.999878 0.47694176 -17.99996
v -19.999926 0.47694018 -19.999998
v -19.999926 0.24536856 -18.000093
v -9.999878 0.47694176 -17.99996
v -9.999878 0.24537015 -17.999847
v -19.999924 0.47694018 -18.000208
v -19.999926 0.47694018 -19.999998
v -11.999913 6.275172E-5 -19.99975
v -11.999912 0.47694147 -19.99975
v -19.999926 6.1472165E-5 -19.999996
v -1.9999526 0.47694317 -18.00021
v 8.000101 0.47694507 -19.999996
v 8.0001 0.47694507 -18.000206
v -1.6252582E-4 0.47694358 -20.0
v -1.9999526 0.24537155 -18.000093
v 8.0001 0.47694507 -18.000206
v 8.000098 0.24537346 -18.000093
v -1.9999526 0.47694317 -18.00021
v -1.6252582E-4 0.47694358 -20.0
v 8.000099 6.6367844E-5 -19.999998
v 8.000101 0.47694507 -19.999996
v -1.6339611E-4 6.490943E-5 -20.000002
v -1.9999509 0.4769433 -28.000134
v -1.6252582E-4 0.47694358 -20.0
v -1.9999526 0.47694317 -18.00021
v -1.6017335E-4 0.47694367 -28.000134
v -1.9999532 0.24537171 -28.00002
v -1.9999526 0.47694317 -18.00021
v -1.9999526 0.24537155 -18.000093
v -1.9999509 0.4769433 -28.000134
v -1.6017335E-4 0.47694367 -28.000134
v -1.6339611E-4 6.490943E-5 -20.000002
v -1.6252582E-4 0.47694358 -20.0
v -1.6104364E-4 6.4969034E-5 -28.000134
vn -0.0 1.0 0.0
vn -0.0 1.0 0.0
vn -0.0 1.0 0.0
vn -0.0 1.0 0.0
vn -0.0 1.0 0.0
vn -0.0 1.0 0.0
vn -0.0 1.0 0.0
vn -0.0 1.0 0.0
vn -0.0 1.0 0.0
vn -0.0 1.0 0.0
vn -0.0 1.0 0.0
vn -0.0 1.0 0.0
vn -0.0 1.0 0.0
vn -0.0 1.0 0.0
vn -0.0 1.0 0.0
vn -0.0 1.0 0.0
vn -0.0 1.0 0.0
vn -0.0 1.0 0.0
vn -0.0 1.0 0.0
vn -0.0 1.0 0.0
vn -0.0 1.0 0.0
vn -0.0 1.0 0.0
vn -0.0 1.0 0.0
vn -0.0 1.0 0.0
vn -0.0 1.0 0.0
vn -0.0 1.0 0.0
vn -0.0 1.0 0.0
vn -0.0 1.0 0.0
vn -0.0 1.0 0.0
vn -0.0 1.0 0.0
vn -0.0 1.0 0.0
vn -0.0 1.0 0.0
vn -0.0 1.0 0.0
vn -0.0 1.0 0.0
vn -0.0 1.0 0.0
vn -0.0 1.0 0.0
vn -0.0 1.0 0.0
vn -0.0 1.0 0.0
vn -0.0 1.0 0.0
vn -0.0 1.0 0.0
vn -0.7072206 -3.6280975E-4 -0.7069928
vn -1.0 -2.0493046E-5 0.0
vn -1.0 -2.0766094E-5 0.0
vn -0.70699185 -3.6260413E-4 -0.7072216
vn 0.70710707 0.0 0.7071064
vn 1.0 0.0 0.0
vn 1.0 0.0 0.0
vn 0.70710564 0.0 0.7071079
vn -0.0 1.0 0.0
vn -0.0 1.0 0.0
vn -0.0 1.0 0.0
vn -0.0 1.0 0.0
vn -0.0 -4.984926E-4 -0.9999999
vn -0.70699185 -3.6260413E-4 -0.7072216
vn -0.7072206 -3.6280975E-4 -0.7069928
vn -0.0 -4.9831055E-4 -0.9999999
vn -0.0 0.0 1.0
vn 0.70710564 0.0 0.7071079
vn 0.70710707 0.0 0.7071064
vn -0.0 0.0 1.0
vn -0.0 1.0 0.0
vn -0.0 1.0 0.0
vn -0.0 1.0 0.0
vn -0.0 1.0 0.0
vn 0.70723265 -3.581651E-4 -0.70698076
vn 2.4880583E-5 -5.310135E-4 -0.9999999
vn 2.487496E-5 -5.312563E-4 -0.9999999
vn 0.7069983 -3.5790142E-4 -0.7072152
vn -0.7071174 0.0 0.70709616
vn -3.1409847E-5 0.0 1.0
vn -3.1407588E-5 0.0 1.0
vn -0.70711887 0.0 0.70709467
vn -0.0 1.0 0.0
vn -0.0 1.0 0.0
vn -0.0 1.0 0.0
vn -0.0 1.0 0.0
vn 1.0 2.8699365E-5 0.0
vn 0.7069983 -3.5790142E-4 -0.7072152
vn 0.70723265 -3.581651E-4 -0.70698076
vn 1.0 2.9003018E-5 0.0
vn -1.0 0.0 0.0
vn -0.70711887 0.0 0.70709467
vn -0.7071174 0.0 0.70709616
vn -1.0 0.0 0.0
vn -0.0 1.0 0.0
vn -0.0 1.0 0.0
vn -0.0 1.0 0.0
vn -0.0 1.0 0.0
vn 0.7069883 3.43675E-4 0.70722526
vn 1.0 -1.19978595E-5 0.0
vn 1.0 -1.2180011E-5 0.0
vn 0.7072071 3.4378332E-4 0.70700645
vn -0.70709646 0.0 -0.7071171
vn -1.0 0.0 0.0
vn -1.0 0.0 0.0
vn -0.707095 0.0 -0.7071185
vn -0.0 1.0 0.0
vn -0.0 1.0 0.0
vn -0.0 1.0 0.0
vn -0.0 1.0 0.0
vn -2.477679E-5 4.940711E-4 0.9999999
vn 0.7072071 3.4378332E-4 0.70700645
vn 0.7069883 3.43675E-4 0.70722526
vn -2.4779603E-5 4.941925E-4 0.9999999
vn 3.0701412E-5 0.0 -1.0
vn -0.707095 0.0 -0.7071185
vn -0.70709646 0.0 -0.7071171
vn 3.0692376E-5 0.0 -1.0
vn -0.0 1.0 0.0
vn -0.0 1.0 0.0
vn -0.0 1.0 0.0
vn -0.0 1.0 0.0
vn -0.7069941 3.5503219E-4 0.70721936
vn -0.0 4.861985E-4 0.9999999
vn -0.0 4.859557E-4 0.9999999
vn -0.70721954 3.5519787E-4 0.706994
vn 0.70710576 0.0 -0.7071078
vn -0.0 0.0 -1.0
vn -0.0 0.0 -1.0
vn 0.7071085 0.0 -0.707105
vn -0.0 1.0 0.0
vn -0.0 1.0 0.0
vn -0.0 1.0 0.0
vn -0.0 1.0 0.0
vn -1.0 0.0 0.0
vn -0.70721954 3.5519787E-4 0.706994
vn -0.7069941 3.5503219E-4 0.70721936
vn -1.0 1.0120829E-5 0.0
vn 1.0 0.0 0.0
vn 0.7071085 0.0 -0.707105
vn 0.70710576 0.0 -0.7071078
vn 1.0 0.0 0.0
vt 0.49267203 0.46139956
vt 0.6947555 0.66409516
vt 0.49267203 0.66409516
vt 0.6947555 0.46139956
vt 0.2785282 0.50128114
vt 0.44521785 0.74869883
vt 0.2785282 0.74869883
vt 0.44521785 0.50128114
vt 0.25039104 0.6260443
vt 0.001457759 0.74922323
vt 0.0014577298 0.6260443
vt 0.25039104 0.74922323
vt 0.2781599 0.5020441
vt 0.44526994 0.7494619
vt 0.2781599 0.7494619
vt 0.44526994 0.5020441
vt 0.25039104 0.6260443
vt 0.001457759 0.74922323
vt 0.0014577298 0.6260443
vt 0.25039104 0.74922323
vt 0.2781599 0.5020441
vt 0.44526994 0.7494619
vt 0.2781599 0.7494619
vt 0.44526994 0.5020441
vt 0.25039104 0.6260443
vt 0.001457759 0.74922323
vt 0.0014577298 0.6260443
vt 0.25039104 0.74922323
vt 0.2785282 0.50128114
vt 0.44521785 0.74869883
vt 0.2785282 0.74869883
vt 0.44521785 0.50128114
vt 0.25039104 0.6260443
vt 0.001457759 0.74922323
vt 0.0014577298 0.6260443
vt 0.25039104 0.74922323
vt 0.623796 0.7564854
vt 0.31996065 0.80529976
vt 0.31996065 0.7564854
vt 0.5630273 0.80529976
vt 0.623796 0.7503836
vt 0.31996065 0.7564854
vt 0.31996065 0.7503836
vt 0.623796 0.7564854
vt 0.5630273 0.80529976
vt 0.31996065 0.8114015
vt 0.31996065 0.80529976
vt 0.5630273 0.8114015
vt 0.31996065 0.7564854
vt 0.5630439 0.80529976
vt 0.62381256 0.7564854
vt 0.31996065 0.80529976
vt 0.31996065 0.7503836
vt 0.62381256 0.7564854
vt 0.62381256 0.7503836
vt 0.31996065 0.7564854
vt 0.31996065 0.80529976
vt 0.5630439 0.8114015
vt 0.5630439 0.80529976
vt 0.31996065 0.8114015
vt 0.623796 0.7564854
vt 0.31996065 0.80529976
vt 0.31996065 0.7564854
vt 0.5630273 0.80529976
vt 0.623796 0.7503836
vt 0.31996065 0.7564854
vt 0.31996065 0.7503836
vt 0.623796 0.7564854
vt 0.5630273 0.80529976
vt 0.31996065 0.8114015
vt 0.31996065 0.80529976
vt 0.5630273 0.8114015
vt 0.31996065 0.7564854
vt 0.5630439 0.80529976
vt 0.62381256 0.7564854
vt 0.31996065 0.80529976
vt 0.31996065 0.7503836
vt 0.62381256 0.7564854
vt 0.62381256 0.7503836
vt 0.31996065 0.7564854
vt 0.31996065 0.80529976
vt 0.5630439 0.8114015
vt 0.5630439 0.80529976
vt 0.31996065 0.8114015
vt 0.623796 0.7564854
vt 0.31996065 0.80529976
vt 0.31996065 0.7564854
vt 0.5630273 0.80529976
vt 0.623796 0.7503836
vt 0.31996065 0.7564854
vt 0.31996065 0.7503836
vt 0.623796 0.7564854
vt 0.5630273 0.80529976
vt 0.31996065 0.8114015
vt 0.31996065 0.80529976
vt 0.5630273 0.8114015
vt 0.31996065 0.7564854
vt 0.5630439 0.80529976
vt 0.62381256 0.7564854
vt 0.31996065 0.80529976
vt 0.31996065 0.7503836
vt 0.62381256 0.7564854
vt 0.62381256 0.7503836
vt 0.31996065 0.7564854
vt 0.31996065 0.80529976
vt 0.5630439 0.8114015
vt 0.5630439 0.80529976
vt 0.31996065 0.8114015
vt 0.623796 0.7564854
vt 0.31996065 0.80529976
vt 0.31996065 0.7564854
vt 0.5630273 0.80529976
vt 0.623796 0.7503836
vt 0.31996065 0.7564854
vt 0.31996065 0.7503836
vt 0.623796 0.7564854
vt 0.5630273 0.80529976
vt 0.31996065 0.8114015
vt 0.31996065 0.80529976
vt 0.5630273 0.8114015
vt 0.31996065 0.7564854
vt 0.5630439 0.80529976
vt 0.62381256 0.7564854
vt 0.31996065 0.80529976
vt 0.31996065 0.7503836
vt 0.62381256 0.7564854
vt 0.62381256 0.7503836
vt 0.31996065 0.7564854
vt 0.31996065 0.80529976
vt 0.5630439 0.8114015
vt 0.5630439 0.80529976
vt 0.31996065 0.8114015

g One_Lane_01
s 1
usemtl One_Lane_01
f 3/3/3 2/2/2 1/1/1 
f 4/4/4 1/1/1 2/2/2 
f 7/7/7 6/6/6 5/5/5 
f 8/8/8 5/5/5 6/6/6 
f 11/11/11 10/10/10 9/9/9 
f 12/12/12 9/9/9 10/10/10 
f 15/15/15 14/14/14 13/13/13 
f 16/16/16 13/13/13 14/14/14 
f 19/19/19 18/18/18 17/17/17 
f 20/20/20 17/17/17 18/18/18 
f 23/23/23 22/22/22 21/21/21 
f 24/24/24 21/21/21 22/22/22 
f 27/27/27 26/26/26 25/25/25 
f 28/28/28 25/25/25 26/26/26 
f 31/31/31 30/30/30 29/29/29 
f 32/32/32 29/29/29 30/30/30 
f 35/35/35 34/34/34 33/33/33 
f 36/36/36 33/33/33 34/34/34 
f 39/39/39 38/38/38 37/37/37 
f 40/40/40 37/37/37 38/38/38 
f 43/43/43 42/42/42 41/41/41 
f 44/44/44 41/41/41 42/42/42 
f 47/47/47 46/46/46 45/45/45 
f 48/48/48 45/45/45 46/46/46 
f 51/51/51 50/50/50 49/49/49 
f 52/52/52 49/49/49 50/50/50 
f 55/55/55 54/54/54 53/53/53 
f 56/56/56 53/53/53 54/54/54 
f 59/59/59 58/58/58 57/57/57 
f 60/60/60 57/57/57 58/58/58 
f 63/63/63 62/62/62 61/61/61 
f 64/64/64 61/61/61 62/62/62 
f 67/67/67 66/66/66 65/65/65 
f 68/68/68 65/65/65 66/66/66 
f 71/71/71 70/70/70 69/69/69 
f 72/72/72 69/69/69 70/70/70 
f 75/75/75 74/74/74 73/73/73 
f 76/76/76 73/73/73 74/74/74 
f 79/79/79 78/78/78 77/77/77 
f 80/80/80 77/77/77 78/78/78 
f 83/83/83 82/82/82 81/81/81 
f 84/84/84 81/81/81 82/82/82 
f 87/87/87 86/86/86 85/85/85 
f 88/88/88 85/85/85 86/86/86 
f 91/91/91 90/90/90 89/89/89 
f 92/92/92 89/89/89 90/90/90 
f 95/95/95 94/94/94 93/93/93 
f 96/96/96 93/93/93 94/94/94 
f 99/99/99 98/98/98 97/97/97 
f 100/100/100 97/97/97 98/98/98 
f 103/103/103 102/102/102 101/101/101 
f 104/104/104 101/101/101 102/102/102 
f 107/107/107 106/106/106 105/105/105 
f 108/108/108 105/105/105 106/106/106 
f 111/111/111 110/110/110 109/109/109 
f 112/112/112 109/109/109 110/110/110 
f 115/115/115 114/114/114 113/113/113 
f 116/116/116 113/113/113 114/114/114 
f 119/119/119 118/118/118 117/117/117 
f 120/120/120 117/117/117 118/118/118 
f 123/123/123 122/122/122 121/121/121 
f 124/124/124 121/121/121 122/122/122 
f 127/127/127 126/126/126 125/125/125 
f 128/128/128 125/125/125 126/126/126 
f 131/131/131 130/130/130 129/129/129 
f 132/132/132 129/129/129 130/130/130 

