# Created by DisUnity v0.3.4
v -3.528595E-5 0.48564893 -2.0000002
v -1.9999695 0.48564893 3.33786E-6
v -1.9999695 0.48564893 -1.9999998
v -3.528595E-5 0.48564893 2.861023E-6
v -3.528595E-5 0.48564893 -4.0
v -1.9999695 0.48564893 -3.9999995
v -3.528595E-5 0.48564893 -5.9997563
v -1.9999695 0.48564893 -5.999756
v -3.528595E-5 0.48564893 -8.000034
v -1.9999695 0.48564893 -8.000034
v -1.9999695 0.48564893 -1.9999998
v -1.99997 0.24983257 3.8146973E-6
v -1.9999695 0.24983257 -1.9999993
v -1.9999695 0.48564893 3.33786E-6
v -1.9999695 0.48564893 -3.9999995
v -1.9999695 0.24983257 -3.999999
v -1.9999695 0.48564893 -5.999756
v -1.9999695 0.24983257 -5.9997554
v -1.9999695 0.48564893 -8.000034
v -1.999969 0.24983257 -8.000033
v -3.528595E-5 2.9206276E-5 -2.0000002
v -3.528595E-5 0.48564893 2.861023E-6
v -3.528595E-5 0.48564893 -2.0000002
v -3.528595E-5 2.9206276E-5 2.861023E-6
v -3.528595E-5 2.9206276E-5 -4.0
v -3.528595E-5 0.48564893 -4.0
v -3.528595E-5 2.9206276E-5 -5.9997563
v -3.528595E-5 0.48564893 -5.9997563
v -3.528595E-5 2.9206276E-5 -8.000034
v -3.528595E-5 0.48564893 -8.000034
v -10.000008 0.48564893 -2.0
v -11.999941 0.48564893 3.8146973E-6
v -11.999941 0.48564893 -1.999999
v -10.000008 0.48564893 3.33786E-6
v -10.000007 0.48564893 -4.0
v -11.999941 0.48564893 -3.999999
v -10.000007 0.48564893 -5.9997563
v -11.999941 0.48564893 -5.999755
v -10.000007 0.48564893 -8.000034
v -11.999941 0.48564893 -8.000032
v -11.999941 0.48564893 -1.999999
v -11.999941 2.9206276E-5 3.8146973E-6
v -11.999941 2.9206276E-5 -1.999999
v -11.999941 0.48564893 3.8146973E-6
v -11.999941 0.48564893 -3.999999
v -11.999941 2.9206276E-5 -3.999999
v -11.999941 0.48564893 -5.999755
v -11.999941 2.9206276E-5 -5.999755
v -11.999941 0.48564893 -8.000032
v -11.999941 2.9206276E-5 -8.000032
v -10.000008 0.24983257 -2.0000002
v -10.000008 0.48564893 3.33786E-6
v -10.000008 0.48564893 -2.0
v -10.000008 0.24983257 2.861023E-6
v -10.000007 0.24983257 -4.0
v -10.000007 0.48564893 -4.0
v -10.000007 0.24983257 -5.9997563
v -10.000007 0.48564893 -5.9997563
v -10.000006 0.24983257 -8.000034
v -10.000007 0.48564893 -8.000034
v -1.99997 0.24983257 3.8146973E-6
v -10.000008 0.24983257 -2.0000002
v -1.9999695 0.24983257 -1.9999993
v -10.000008 0.24983257 2.861023E-6
v -1.9999695 0.24983257 -5.9997554
v -10.000007 0.24983257 -4.0
v -10.000007 0.24983257 -5.9997563
v -1.9999695 0.24983257 -3.999999
v -1.9999695 0.24983257 -3.999999
v -10.000008 0.24983257 -2.0000002
v -10.000007 0.24983257 -4.0
v -1.9999695 0.24983257 -1.9999993
v -1.999969 0.24983257 -8.000033
v -10.000007 0.24983257 -5.9997563
v -10.000006 0.24983257 -8.000034
v -1.9999695 0.24983257 -5.9997554
vn -0.0 1.0 0.0
vn -0.0 1.0 0.0
vn -0.0 1.0 0.0
vn -0.0 1.0 0.0
vn -0.0 1.0 0.0
vn -0.0 1.0 0.0
vn -0.0 1.0 0.0
vn -0.0 1.0 0.0
vn -0.0 1.0 0.0
vn -0.0 1.0 0.0
vn -1.0 0.0 0.0
vn -1.0 0.0 0.0
vn -1.0 0.0 0.0
vn -1.0 0.0 0.0
vn -1.0 0.0 0.0
vn -1.0 0.0 0.0
vn -1.0 0.0 0.0
vn -1.0 0.0 0.0
vn -1.0 0.0 0.0
vn -1.0 0.0 0.0
vn 1.0 0.0 0.0
vn 1.0 0.0 0.0
vn 1.0 0.0 0.0
vn 1.0 0.0 0.0
vn 1.0 0.0 0.0
vn 1.0 0.0 0.0
vn 1.0 0.0 0.0
vn 1.0 0.0 0.0
vn 1.0 0.0 0.0
vn 1.0 0.0 0.0
vn -0.0 1.0 0.0
vn -0.0 1.0 0.0
vn -0.0 1.0 0.0
vn -0.0 1.0 0.0
vn -0.0 1.0 0.0
vn -0.0 1.0 0.0
vn -0.0 1.0 0.0
vn -0.0 1.0 0.0
vn -0.0 1.0 0.0
vn -0.0 1.0 0.0
vn -1.0 0.0 0.0
vn -1.0 0.0 0.0
vn -1.0 0.0 0.0
vn -1.0 0.0 0.0
vn -1.0 0.0 0.0
vn -1.0 0.0 0.0
vn -1.0 0.0 0.0
vn -1.0 0.0 0.0
vn -1.0 0.0 0.0
vn -1.0 0.0 0.0
vn 1.0 0.0 0.0
vn 1.0 0.0 0.0
vn 1.0 0.0 0.0
vn 1.0 0.0 0.0
vn 1.0 0.0 0.0
vn 1.0 0.0 0.0
vn 1.0 0.0 0.0
vn 1.0 0.0 0.0
vn 1.0 0.0 0.0
vn 1.0 0.0 0.0
vn -0.0 1.0 0.0
vn -0.0 1.0 0.0
vn -0.0 1.0 0.0
vn -0.0 1.0 0.0
vn -0.0 1.0 0.0
vn -0.0 1.0 0.0
vn -0.0 1.0 0.0
vn -0.0 1.0 0.0
vn -0.0 1.0 0.0
vn -0.0 1.0 0.0
vn -0.0 1.0 0.0
vn -0.0 1.0 0.0
vn -0.0 1.0 0.0
vn -0.0 1.0 0.0
vn -0.0 1.0 0.0
vn -0.0 1.0 0.0
vt 0.46348646 0.751142
vt 0.37474623 0.7779535
vt 0.46348646 0.7779535
vt 0.37474623 0.751142
vt 0.5434935 0.751142
vt 0.5434935 0.7779535
vt 0.6123366 0.751142
vt 0.6123366 0.7779535
vt 0.68681425 0.751142
vt 0.68681425 0.7779535
vt 0.46348646 0.7779535
vt 0.37474623 0.78130496
vt 0.46348646 0.78130496
vt 0.37474623 0.7779535
vt 0.5434935 0.7779535
vt 0.5434935 0.78130496
vt 0.6123366 0.7779535
vt 0.6123366 0.78130496
vt 0.68681425 0.7779535
vt 0.68681425 0.78130496
vt 0.4634865 0.80811644
vt 0.37474626 0.8114679
vt 0.4634865 0.8114679
vt 0.37474626 0.80811644
vt 0.54349357 0.80811644
vt 0.54349357 0.8114679
vt 0.61233664 0.80811644
vt 0.61233664 0.8114679
vt 0.6868143 0.80811644
vt 0.6868143 0.8114679
vt 0.46348646 0.751142
vt 0.37474623 0.7779535
vt 0.46348646 0.7779535
vt 0.37474623 0.751142
vt 0.5434935 0.751142
vt 0.5434935 0.7779535
vt 0.6123366 0.751142
vt 0.6123366 0.7779535
vt 0.68681425 0.751142
vt 0.68681425 0.7779535
vt 0.46348646 0.7779535
vt 0.37474623 0.78130496
vt 0.46348646 0.78130496
vt 0.37474623 0.7779535
vt 0.5434935 0.7779535
vt 0.5434935 0.78130496
vt 0.6123366 0.7779535
vt 0.6123366 0.78130496
vt 0.68681425 0.7779535
vt 0.68681425 0.78130496
vt 0.4634865 0.80811644
vt 0.37474626 0.8114679
vt 0.4634865 0.8114679
vt 0.37474626 0.80811644
vt 0.54349357 0.80811644
vt 0.54349357 0.8114679
vt 0.61233664 0.80811644
vt 0.61233664 0.8114679
vt 0.6868143 0.80811644
vt 0.6868143 0.8114679
vt 0.32748994 0.6135415
vt 0.37540656 0.44554424
vt 0.37540656 0.6135415
vt 0.32748994 0.44554424
vt 0.24924348 0.62679386
vt 0.0038990846 0.74833244
vt 0.0038990846 0.6267938
vt 0.24924348 0.7483325
vt 0.45969296 0.748536
vt 0.41649187 0.5009868
vt 0.45969296 0.5009868
vt 0.41649187 0.748536
vt 0.49599594 0.6135415
vt 0.45578057 0.44554424
vt 0.49599594 0.44554424
vt 0.45578057 0.6135415

g One_Lane_Crosswalk_01
s 1
usemtl One_Lane_Crosswalk_01
f 3/3/3 2/2/2 1/1/1 
f 4/4/4 1/1/1 2/2/2 
f 1/1/1 5/5/5 3/3/3 
f 6/6/6 3/3/3 5/5/5 
f 5/5/5 7/7/7 6/6/6 
f 8/8/8 6/6/6 7/7/7 
f 7/7/7 9/9/9 8/8/8 
f 10/10/10 8/8/8 9/9/9 
f 13/13/13 12/12/12 11/11/11 
f 14/14/14 11/11/11 12/12/12 
f 11/11/11 15/15/15 13/13/13 
f 16/16/16 13/13/13 15/15/15 
f 15/15/15 17/17/17 16/16/16 
f 18/18/18 16/16/16 17/17/17 
f 17/17/17 19/19/19 18/18/18 
f 20/20/20 18/18/18 19/19/19 
f 23/23/23 22/22/22 21/21/21 
f 24/24/24 21/21/21 22/22/22 
f 21/21/21 25/25/25 23/23/23 
f 26/26/26 23/23/23 25/25/25 
f 25/25/25 27/27/27 26/26/26 
f 28/28/28 26/26/26 27/27/27 
f 27/27/27 29/29/29 28/28/28 
f 30/30/30 28/28/28 29/29/29 
f 33/33/33 32/32/32 31/31/31 
f 34/34/34 31/31/31 32/32/32 
f 31/31/31 35/35/35 33/33/33 
f 36/36/36 33/33/33 35/35/35 
f 35/35/35 37/37/37 36/36/36 
f 38/38/38 36/36/36 37/37/37 
f 37/37/37 39/39/39 38/38/38 
f 40/40/40 38/38/38 39/39/39 
f 43/43/43 42/42/42 41/41/41 
f 44/44/44 41/41/41 42/42/42 
f 41/41/41 45/45/45 43/43/43 
f 46/46/46 43/43/43 45/45/45 
f 45/45/45 47/47/47 46/46/46 
f 48/48/48 46/46/46 47/47/47 
f 47/47/47 49/49/49 48/48/48 
f 50/50/50 48/48/48 49/49/49 
f 53/53/53 52/52/52 51/51/51 
f 54/54/54 51/51/51 52/52/52 
f 51/51/51 55/55/55 53/53/53 
f 56/56/56 53/53/53 55/55/55 
f 55/55/55 57/57/57 56/56/56 
f 58/58/58 56/56/56 57/57/57 
f 57/57/57 59/59/59 58/58/58 
f 60/60/60 58/58/58 59/59/59 
f 63/63/63 62/62/62 61/61/61 
f 64/64/64 61/61/61 62/62/62 
f 67/67/67 66/66/66 65/65/65 
f 68/68/68 65/65/65 66/66/66 
f 71/71/71 70/70/70 69/69/69 
f 72/72/72 69/69/69 70/70/70 
f 75/75/75 74/74/74 73/73/73 
f 76/76/76 73/73/73 74/74/74 

