# Created by DisUnity v0.3.4
v -1.9999237 0.4856667 -8.000034
v 1.04904175E-5 0.4856667 2.861023E-6
v -1.9999237 0.4856667 3.33786E-6
v 1.04904175E-5 0.4856667 -8.000034
v -1.9999232 0.24985033 -8.000033
v -1.9999237 0.4856667 3.33786E-6
v -1.9999242 0.24985033 3.8146973E-6
v -1.9999237 0.4856667 -8.000034
v 1.04904175E-5 0.4856667 -8.000034
v 1.04904175E-5 4.696846E-5 2.861023E-6
v 1.04904175E-5 0.4856667 2.861023E-6
v 1.04904175E-5 4.696846E-5 -8.000034
v -7.999895 0.48564893 -8.000032
v -5.9999614 0.48564893 3.33786E-6
v -7.9998956 0.48564893 3.8146973E-6
v -5.999961 0.48564893 -8.000034
v -7.999895 2.9206276E-5 -8.000032
v -7.9998956 0.48564893 3.8146973E-6
v -7.9998956 2.9206276E-5 3.8146973E-6
v -7.999895 0.48564893 -8.000032
v -5.999961 0.48564893 -8.000034
v -5.999962 0.24983257 2.861023E-6
v -5.9999614 0.48564893 3.33786E-6
v -5.9999604 0.24983257 -8.000034
v -1.9999428 0.24983257 3.8146973E-6
v -5.9999604 0.24983257 -8.000034
v -1.9999418 0.24983257 -8.000034
v -5.999962 0.24983257 3.8146973E-6
vn -0.0 1.0 0.0
vn -0.0 1.0 0.0
vn -0.0 1.0 0.0
vn -0.0 1.0 0.0
vn -1.0 0.0 0.0
vn -1.0 0.0 0.0
vn -1.0 0.0 0.0
vn -1.0 0.0 0.0
vn 1.0 0.0 0.0
vn 1.0 0.0 0.0
vn 1.0 0.0 0.0
vn 1.0 0.0 0.0
vn -0.0 1.0 0.0
vn -0.0 1.0 0.0
vn -0.0 1.0 0.0
vn -0.0 1.0 0.0
vn -1.0 0.0 0.0
vn -1.0 0.0 0.0
vn -1.0 0.0 0.0
vn -1.0 0.0 0.0
vn 1.0 0.0 0.0
vn 1.0 0.0 0.0
vn 1.0 0.0 0.0
vn 1.0 0.0 0.0
vn -0.0 1.0 0.0
vn -0.0 1.0 0.0
vn -0.0 1.0 0.0
vn -0.0 1.0 0.0
vt 0.68681425 0.7779535
vt 0.37474623 0.751142
vt 0.37474623 0.7779535
vt 0.68681425 0.751142
vt 0.68681425 0.78130496
vt 0.37474623 0.7779535
vt 0.37474623 0.78130496
vt 0.68681425 0.7779535
vt 0.6868143 0.8114679
vt 0.37474626 0.80811644
vt 0.37474626 0.8114679
vt 0.6868143 0.80811644
vt 0.68681425 0.7779535
vt 0.37474623 0.751142
vt 0.37474623 0.7779535
vt 0.68681425 0.751142
vt 0.68681425 0.78130496
vt 0.37474623 0.7779535
vt 0.37474623 0.78130496
vt 0.68681425 0.7779535
vt 0.6868143 0.8114679
vt 0.37474626 0.80811644
vt 0.37474626 0.8114679
vt 0.6868143 0.80811644
vt 0.3775492 0.43208802
vt 0.49965498 0.37121952
vt 0.49965498 0.43208802
vt 0.3775492 0.37121952

g One_Lane_17
s 1
usemtl One_Lane_17
f 3/3/3 2/2/2 1/1/1 
f 4/4/4 1/1/1 2/2/2 
f 7/7/7 6/6/6 5/5/5 
f 8/8/8 5/5/5 6/6/6 
f 11/11/11 10/10/10 9/9/9 
f 12/12/12 9/9/9 10/10/10 
f 15/15/15 14/14/14 13/13/13 
f 16/16/16 13/13/13 14/14/14 
f 19/19/19 18/18/18 17/17/17 
f 20/20/20 17/17/17 18/18/18 
f 23/23/23 22/22/22 21/21/21 
f 24/24/24 21/21/21 22/22/22 
f 27/27/27 26/26/26 25/25/25 
f 28/28/28 25/25/25 26/26/26 

