# Created by DisUnity v0.3.4
v -2.0000603 0.2542513 -9.999956
v -10.000013 0.2542499 -17.999916
v -2.0000608 0.2542513 -17.999912
v -10.000015 0.2542499 -9.999959
v -14.000049 0.2542493 -17.99991
v -12.000001 0.25424963 -9.999958
v -14.000048 0.2542493 -9.999958
v -12.000002 0.25424963 -17.999908
v -10.000015 0.2542499 -9.999959
v -12.000002 0.25424963 -17.999908
v -10.000013 0.2542499 -17.999916
v -12.000001 0.25424963 -9.999958
v -10.000014 0.25425 -5.9999847
v -2.0000615 0.25425136 -7.99997
v -2.000061 0.2542514 -5.9999843
v -10.000014 0.25424993 -7.9999723
v -2.0000603 0.2542513 -9.999956
v -10.000014 0.25424993 -7.9999723
v -10.000015 0.2542499 -9.999959
v -2.0000615 0.25425136 -7.99997
v 1.999973 0.2542521 -9.999959
v -7.414487E-5 0.25425172 -17.999914
v 1.9999716 0.2542521 -17.999914
v -7.4113115E-5 0.25425172 -9.999958
v -2.0000608 0.2542513 -17.999912
v -7.4113115E-5 0.25425172 -9.999958
v -2.0000603 0.2542513 -9.999956
v -7.414487E-5 0.25425172 -17.999914
v -2.0000637 0.49422815 -9.999967
v -5.3015337E-5 0.49422866 -8.583078E-6
v -2.0000687 0.4942283 -8.932772E-6
v -4.82787E-5 0.49422857 -8.000074
v -2.0000637 0.2542513 -9.999967
v -2.0000687 0.4942283 -8.932772E-6
v -2.0000687 0.25425148 -8.932772E-6
v -2.0000637 0.49422815 -9.999967
v -4.82787E-5 0.49422857 -8.000074
v -5.2928932E-5 4.094838E-5 -8.583078E-6
v -5.3015337E-5 0.49422866 -8.583078E-6
v -4.8192294E-5 4.088878E-5 -8.000074
v 8.0000105 0.49423006 -9.999965
v -4.82787E-5 0.49422857 -8.000074
v -2.0000637 0.49422815 -9.999967
v 8.00001 0.4942301 -8.000072
v 8.0000105 0.25425324 -9.999965
v -2.0000637 0.49422815 -9.999967
v -2.0000637 0.2542513 -9.999967
v 8.0000105 0.49423006 -9.999965
v 8.00001 0.4942301 -8.000072
v -4.8192294E-5 4.088878E-5 -8.000074
v -4.82787E-5 0.49422857 -8.000074
v 8.000009 4.2347157E-5 -8.000072
v -10.000018 0.49422675 -9.999968
v -20.000097 0.4942252 -8.000082
v -20.000101 0.49422517 -9.999976
v -12.000033 0.4942265 -8.000073
v -10.000018 0.2542499 -9.999968
v -20.000101 0.49422517 -9.999976
v -20.000101 0.25424835 -9.999976
v -10.000018 0.49422675 -9.999968
v -12.000033 0.4942265 -8.000073
v -20.000101 3.745146E-5 -8.000082
v -20.000097 0.4942252 -8.000082
v -12.000033 3.8790633E-5 -8.000073
v -10.000025 0.4942269 -1.7960923E-5
v -12.000033 0.4942265 -8.000073
v -10.000018 0.49422675 -9.999968
v -12.00004 0.4942266 -1.7356942E-5
v -10.000025 0.25425008 -1.7960923E-5
v -10.000018 0.49422675 -9.999968
v -10.000018 0.2542499 -9.999968
v -10.000025 0.4942269 -1.7960923E-5
v -12.00004 0.4942266 -1.7356942E-5
v -12.000033 3.8790633E-5 -8.000073
v -12.000033 0.4942265 -8.000073
v -12.00004 3.8850238E-5 -1.7356942E-5
v 8.000015 0.49423006 -20.000038
v -20.000084 0.49422517 -17.999912
v -20.000088 0.49422517 -20.00005
v 8.000016 0.49423006 -17.999905
v -20.000084 0.49422517 -17.999912
v 8.000016 0.25425324 -17.999905
v -20.000084 0.25424835 -17.999912
v 8.000016 0.49423006 -17.999905
v 8.000015 4.2287553E-5 -20.000038
v -20.000088 0.49422517 -20.00005
v -20.000088 3.739186E-5 -20.00005
v 8.000015 0.49423006 -20.000038
v -10.000012 0.25425008 1.112565E-6
v -2.000061 0.2542514 -5.9999843
v -2.00006 0.25425148 6.0397264E-7
v -10.000014 0.25425 -5.9999847
v 8.00002 0.25425324 -9.99996
v 1.9999716 0.2542521 -17.999914
v 8.000018 0.25425324 -17.999912
v 1.999973 0.2542521 -9.999959
v -20.000092 0.25424835 -17.999912
v -14.000048 0.2542493 -9.999958
v -20.000093 0.25424835 -9.999958
v -14.000049 0.2542493 -17.99991
vn -0.0 1.0 0.0
vn -0.0 1.0 0.0
vn -0.0 1.0 0.0
vn -0.0 1.0 0.0
vn -0.0 1.0 0.0
vn -0.0 1.0 0.0
vn -0.0 1.0 0.0
vn -0.0 1.0 0.0
vn -0.0 1.0 0.0
vn -0.0 1.0 0.0
vn -0.0 1.0 0.0
vn -0.0 1.0 0.0
vn -0.0 1.0 0.0
vn -0.0 1.0 0.0
vn -0.0 1.0 0.0
vn -0.0 1.0 0.0
vn -0.0 1.0 0.0
vn -0.0 1.0 0.0
vn -0.0 1.0 0.0
vn -0.0 1.0 0.0
vn -0.0 1.0 0.0
vn -0.0 1.0 0.0
vn -0.0 1.0 0.0
vn -0.0 1.0 0.0
vn -0.0 1.0 0.0
vn -0.0 1.0 0.0
vn -0.0 1.0 0.0
vn -0.0 1.0 0.0
vn -0.0 1.0 0.0
vn -0.0 1.0 0.0
vn -0.0 1.0 0.0
vn -0.0 1.0 0.0
vn -0.7071066 0.0 -0.70710695
vn -1.0 0.0 0.0
vn -1.0 0.0 0.0
vn -0.70710635 0.0 -0.7071071
vn 0.7071065 0.0 0.707107
vn 1.0 0.0 0.0
vn 1.0 0.0 0.0
vn 0.7071064 0.0 0.70710707
vn -0.0 1.0 0.0
vn -0.0 1.0 0.0
vn -0.0 1.0 0.0
vn -0.0 1.0 0.0
vn -0.0 0.0 -1.0
vn -0.70710635 0.0 -0.7071071
vn -0.7071066 0.0 -0.70710695
vn -0.0 0.0 -1.0
vn -0.0 0.0 1.0
vn 0.7071064 0.0 0.70710707
vn 0.7071065 0.0 0.707107
vn -0.0 0.0 1.0
vn -0.0 1.0 0.0
vn -0.0 1.0 0.0
vn -0.0 1.0 0.0
vn -0.0 1.0 0.0
vn 0.70710653 0.0 -0.70710695
vn -0.0 0.0 -1.0
vn -0.0 0.0 -1.0
vn 0.7071079 0.0 -0.70710564
vn -0.70710737 0.0 0.7071061
vn -0.0 0.0 1.0
vn -0.0 0.0 1.0
vn -0.7071074 0.0 0.7071061
vn -0.0 1.0 0.0
vn -0.0 1.0 0.0
vn -0.0 1.0 0.0
vn -0.0 1.0 0.0
vn 1.0 0.0 0.0
vn 0.7071079 0.0 -0.70710564
vn 0.70710653 0.0 -0.70710695
vn 1.0 0.0 0.0
vn -1.0 0.0 0.0
vn -0.7071074 0.0 0.7071061
vn -0.70710737 0.0 0.7071061
vn -1.0 0.0 0.0
vn -0.0 1.0 0.0
vn -0.0 1.0 0.0
vn -0.0 1.0 0.0
vn -0.0 1.0 0.0
vn -0.0 0.0 1.0
vn -0.0 0.0 1.0
vn -0.0 0.0 1.0
vn -0.0 0.0 1.0
vn -0.0 0.0 -1.0
vn -0.0 0.0 -1.0
vn -0.0 0.0 -1.0
vn -0.0 0.0 -1.0
vn -0.0 1.0 0.0
vn -0.0 1.0 0.0
vn -0.0 1.0 0.0
vn -0.0 1.0 0.0
vn -0.0 1.0 0.0
vn -0.0 1.0 0.0
vn -0.0 1.0 0.0
vn -0.0 1.0 0.0
vn -0.0 1.0 0.0
vn -0.0 1.0 0.0
vn -0.0 1.0 0.0
vn -0.0 1.0 0.0
vt 0.37776935 0.6236158
vt 0.49987513 0.50187874
vt 0.49987513 0.6236158
vt 0.37776935 0.50187874
vt 0.40370718 0.5020428
vt 0.4454234 0.7486167
vt 0.40370718 0.7486167
vt 0.4454234 0.5020428
vt 0.25039104 0.6260443
vt 0.001457759 0.74922323
vt 0.0014577298 0.6260443
vt 0.25039104 0.74922323
vt 0.4036783 0.50177693
vt 0.44539395 0.74869883
vt 0.4036783 0.74869883
vt 0.44539395 0.50177693
vt 0.25039104 0.6260443
vt 0.001457759 0.74922323
vt 0.0014577298 0.6260443
vt 0.25039104 0.74922323
vt 0.40367767 0.50177693
vt 0.44539395 0.74869883
vt 0.4036777 0.74869883
vt 0.44539395 0.50177693
vt 0.25039104 0.6260443
vt 0.001457759 0.74922323
vt 0.0014577298 0.6260443
vt 0.25039104 0.74922323
vt 0.623796 0.7564854
vt 0.31996065 0.80529976
vt 0.31996065 0.7564854
vt 0.5630273 0.80529976
vt 0.623796 0.7503836
vt 0.31996065 0.7564854
vt 0.31996065 0.7503836
vt 0.623796 0.7564854
vt 0.5630273 0.80529976
vt 0.31996065 0.8114015
vt 0.31996065 0.80529976
vt 0.5630273 0.8114015
vt 0.31996065 0.7564854
vt 0.5630439 0.80529976
vt 0.62381256 0.7564854
vt 0.31996065 0.80529976
vt 0.31996065 0.7503836
vt 0.62381256 0.7564854
vt 0.62381256 0.7503836
vt 0.31996065 0.7564854
vt 0.31996065 0.80529976
vt 0.5630439 0.8114015
vt 0.5630439 0.80529976
vt 0.31996065 0.8114015
vt 0.623796 0.7564854
vt 0.31996065 0.80529976
vt 0.31996065 0.7564854
vt 0.5630273 0.80529976
vt 0.623796 0.7503836
vt 0.31996065 0.7564854
vt 0.31996065 0.7503836
vt 0.623796 0.7564854
vt 0.5630273 0.80529976
vt 0.31996065 0.8114015
vt 0.31996065 0.80529976
vt 0.5630273 0.8114015
vt 0.31996065 0.7564854
vt 0.5630439 0.80529976
vt 0.62381256 0.7564854
vt 0.31996065 0.80529976
vt 0.31996065 0.7503836
vt 0.62381256 0.7564854
vt 0.62381256 0.7503836
vt 0.31996065 0.7564854
vt 0.31996065 0.80529976
vt 0.5630439 0.8114015
vt 0.5630439 0.80529976
vt 0.31996065 0.8114015
vt 0.12550873 0.75027037
vt 0.936739 0.7776922
vt 0.936739 0.75027037
vt 0.12550876 0.7776922
vt 0.936739 0.7776922
vt 0.12550876 0.7811199
vt 0.936739 0.7811199
vt 0.12550876 0.7776922
vt 0.12550879 0.8085418
vt 0.9367391 0.8119695
vt 0.9367391 0.8085418
vt 0.12550879 0.8119695
vt 0.5489646 0.3684721
vt 0.6741121 0.5055138
vt 0.5489646 0.5055138
vt 0.6741121 0.3684721
vt 0.5489646 0.3684721
vt 0.6741115 0.5055138
vt 0.5489646 0.5055138
vt 0.6741115 0.3684721
vt 0.5489646 0.3684721
vt 0.6741115 0.5055138
vt 0.5489646 0.5055138
vt 0.6741115 0.3684721

g One_Lane_07
s 1
usemtl One_Lane_07
f 3/3/3 2/2/2 1/1/1 
f 4/4/4 1/1/1 2/2/2 
f 7/7/7 6/6/6 5/5/5 
f 8/8/8 5/5/5 6/6/6 
f 11/11/11 10/10/10 9/9/9 
f 12/12/12 9/9/9 10/10/10 
f 15/15/15 14/14/14 13/13/13 
f 16/16/16 13/13/13 14/14/14 
f 19/19/19 18/18/18 17/17/17 
f 20/20/20 17/17/17 18/18/18 
f 23/23/23 22/22/22 21/21/21 
f 24/24/24 21/21/21 22/22/22 
f 27/27/27 26/26/26 25/25/25 
f 28/28/28 25/25/25 26/26/26 
f 31/31/31 30/30/30 29/29/29 
f 32/32/32 29/29/29 30/30/30 
f 35/35/35 34/34/34 33/33/33 
f 36/36/36 33/33/33 34/34/34 
f 39/39/39 38/38/38 37/37/37 
f 40/40/40 37/37/37 38/38/38 
f 43/43/43 42/42/42 41/41/41 
f 44/44/44 41/41/41 42/42/42 
f 47/47/47 46/46/46 45/45/45 
f 48/48/48 45/45/45 46/46/46 
f 51/51/51 50/50/50 49/49/49 
f 52/52/52 49/49/49 50/50/50 
f 55/55/55 54/54/54 53/53/53 
f 56/56/56 53/53/53 54/54/54 
f 59/59/59 58/58/58 57/57/57 
f 60/60/60 57/57/57 58/58/58 
f 63/63/63 62/62/62 61/61/61 
f 64/64/64 61/61/61 62/62/62 
f 67/67/67 66/66/66 65/65/65 
f 68/68/68 65/65/65 66/66/66 
f 71/71/71 70/70/70 69/69/69 
f 72/72/72 69/69/69 70/70/70 
f 75/75/75 74/74/74 73/73/73 
f 76/76/76 73/73/73 74/74/74 
f 79/79/79 78/78/78 77/77/77 
f 80/80/80 77/77/77 78/78/78 
f 83/83/83 82/82/82 81/81/81 
f 84/84/84 81/81/81 82/82/82 
f 87/87/87 86/86/86 85/85/85 
f 88/88/88 85/85/85 86/86/86 
f 91/91/91 90/90/90 89/89/89 
f 92/92/92 89/89/89 90/90/90 
f 95/95/95 94/94/94 93/93/93 
f 96/96/96 93/93/93 94/94/94 
f 99/99/99 98/98/98 97/97/97 
f 100/100/100 97/97/97 98/98/98 

