# Created by DisUnity v0.3.4
v -0.32126287 1.9771879 0.121359654
v 0.3212636 1.9771879 -0.20807704
v 0.32126358 1.9771879 0.121359654
v -0.32126287 1.9771879 -0.20807698
v -0.1766984 -1.3532887E-5 0.20812431
v 0.17669843 0.0889976 0.20812434
v 0.17669842 -1.3594677E-5 0.20812434
v -0.17669839 0.08899766 0.20812431
v 0.17669842 -1.3594677E-5 0.20812434
v 0.17669846 0.0889976 -0.03563139
v 0.17669845 -1.3594677E-5 -0.03563139
v 0.17669843 0.0889976 0.20812434
v 0.17669845 -1.3594677E-5 -0.03563139
v -0.17669836 0.08899766 -0.03563142
v -0.17669837 -1.3532887E-5 -0.03563142
v 0.17669846 0.0889976 -0.03563139
v -0.17669837 -1.3532887E-5 -0.03563142
v -0.17669839 0.08899766 0.20812431
v -0.1766984 -1.3532887E-5 0.20812431
v -0.17669836 0.08899766 -0.03563142
v 0.17669843 0.0889976 0.20812434
v 0.10358817 0.08899762 0.051133264
v 0.17669846 0.0889976 -0.03563139
v 0.10358818 0.08899762 0.15800038
v 0.17669846 0.0889976 -0.03563139
v -0.10358811 0.08899765 0.051133264
v -0.17669836 0.08899766 -0.03563142
v 0.10358817 0.08899762 0.051133264
v -0.17669836 0.08899766 -0.03563142
v -0.103588104 0.08899765 0.15800038
v -0.17669839 0.08899766 0.20812431
v -0.10358811 0.08899765 0.051133264
v 0.10358818 0.08899762 0.15800038
v -0.10358797 0.88040125 0.15800038
v 0.10358831 0.88040125 0.15800038
v -0.103588104 0.08899765 0.15800038
v 0.10358842 1.4808414 0.15800038
v -0.103587866 1.4808414 0.15800038
v 0.10358817 0.08899762 0.051133264
v 0.10358832 0.88040125 0.12135966
v 0.10358831 0.88040125 0.051133264
v 0.10358831 0.88040125 0.15800038
v 0.10358818 0.08899762 0.15800038
v -0.10358811 0.08899765 0.051133264
v 0.10358831 0.88040125 0.051133264
v -0.10358797 0.88040125 0.051133264
v 0.10358817 0.08899762 0.051133264
v -0.10358811 0.08899765 0.051133264
v -0.10358797 0.88040125 0.051133264
v -0.10358796 0.88040125 0.12135966
v -0.103588104 0.08899765 0.15800038
v -0.10358797 0.88040125 0.15800038
v 0.3212634 0.8804012 0.121359654
v 0.3212636 1.9771879 -0.20807704
v 0.32126343 0.8804012 -0.20807704
v 0.32126358 1.9771879 0.121359654
v 0.10358831 0.88040125 0.051133264
v -0.32126305 0.8804013 -0.20807698
v -0.10358797 0.88040125 0.051133264
v 0.32126343 0.8804012 -0.20807704
v 0.3212634 0.8804012 0.121359654
v 0.10358832 0.88040125 0.12135966
v -0.32126305 0.8804013 0.121359654
v -0.10358796 0.88040125 0.12135966
v 0.32126358 1.9771879 0.121359654
v 0.3212634 0.8804012 0.121359654
v 0.10358843 1.5325758 0.121359654
v -0.10358785 1.5325758 0.12135965
v -0.32126287 1.9771879 0.121359654
v 0.10358832 0.88040125 0.12135966
v -0.32126305 0.8804013 0.121359654
v -0.10358796 0.88040125 0.12135966
v 0.16548075 1.9375312 -0.11287537
v -0.16548023 0.9200578 -0.11287537
v 0.16548057 0.9200578 -0.11287537
v -0.16548005 1.9375312 -0.11287537
v -0.32126305 0.8804013 0.121359654
v -0.32126287 1.9771879 -0.20807698
v -0.32126287 1.9771879 0.121359654
v -0.32126305 0.8804013 -0.20807698
v 0.10358832 0.88040125 0.12135966
v 0.10358842 1.4808414 0.15800038
v 0.10358843 1.5325758 0.121359654
v 0.10358831 0.88040125 0.15800038
v 0.10358843 1.5325758 0.121359654
v -0.103587866 1.4808414 0.15800038
v -0.10358785 1.5325758 0.12135965
v 0.10358842 1.4808414 0.15800038
v -0.10358785 1.5325758 0.12135965
v -0.10358797 0.88040125 0.15800038
v -0.10358796 0.88040125 0.12135966
v -0.103587866 1.4808414 0.15800038
v 0.10358818 0.08899762 0.15800038
v -0.17669839 0.08899766 0.20812431
v -0.103588104 0.08899765 0.15800038
v 0.17669843 0.0889976 0.20812434
v -0.32126287 1.9771879 -0.20807698
v 0.28633726 1.9375312 -0.20807697
v 0.3212636 1.9771879 -0.20807704
v -0.28633654 1.9375312 -0.20807706
v 0.3212636 1.9771879 -0.20807704
v 0.28633708 0.9200577 -0.20807697
v 0.32126343 0.8804012 -0.20807704
v 0.28633726 1.9375312 -0.20807697
v 0.32126343 0.8804012 -0.20807704
v -0.28633672 0.92005783 -0.20807706
v -0.32126305 0.8804013 -0.20807698
v 0.28633708 0.9200577 -0.20807697
v -0.32126305 0.8804013 -0.20807698
v -0.28633654 1.9375312 -0.20807706
v -0.32126287 1.9771879 -0.20807698
v -0.28633672 0.92005783 -0.20807706
v 0.28633726 1.9375312 -0.20807697
v 0.28633708 0.9200577 0.07819905
v 0.28633708 0.9200577 -0.20807697
v 0.28633726 1.9375312 0.07819905
v -0.28633672 0.92005783 -0.20807706
v -0.28633654 1.9375312 0.07819905
v -0.28633654 1.9375312 -0.20807706
v -0.28633672 0.92005783 0.07819905
v 0.28633726 1.9375312 0.07819905
v 0.19239958 0.9200577 0.07819904
v 0.28633708 0.9200577 0.07819905
v 0.19239976 1.9375312 0.07819904
v -0.28633672 0.92005783 0.07819905
v -0.19239904 1.9375312 0.07819905
v -0.28633654 1.9375312 0.07819905
v -0.19239922 0.92005783 0.07819905
v 0.19239976 1.9375312 0.07819904
v 0.16548057 0.9200578 -0.11287537
v 0.19239958 0.9200577 0.07819904
v 0.16548075 1.9375312 -0.11287537
v -0.19239922 0.92005783 0.07819905
v -0.16548005 1.9375312 -0.11287537
v -0.19239904 1.9375312 0.07819905
v -0.16548023 0.9200578 -0.11287537
v 0.16548057 0.9200578 -0.11287537
v 0.28633708 0.9200577 0.07819905
v 0.19239958 0.9200577 0.07819904
v 0.28633708 0.9200577 -0.20807697
v -0.28633672 0.92005783 -0.20807706
v -0.16548023 0.9200578 -0.11287537
v -0.28633672 0.92005783 0.07819905
v -0.19239922 0.92005783 0.07819905
v 0.16548075 1.9375312 -0.11287537
v 0.28633726 1.9375312 0.07819905
v 0.28633726 1.9375312 -0.20807697
v 0.19239976 1.9375312 0.07819904
v -0.16548005 1.9375312 -0.11287537
v -0.28633654 1.9375312 -0.20807706
v -0.28633654 1.9375312 0.07819905
v -0.19239904 1.9375312 0.07819905
vn -0.0 1.0 0.0
vn -0.0 1.0 0.0
vn -0.0 1.0 0.0
vn -0.0 1.0 0.0
vn -0.0 0.0 1.0
vn -0.0 0.0 1.0
vn -0.0 0.0 1.0
vn -0.0 0.0 1.0
vn 1.0 0.0 0.0
vn 1.0 0.0 0.0
vn 1.0 0.0 0.0
vn 1.0 0.0 0.0
vn -0.0 0.0 -1.0
vn -0.0 0.0 -1.0
vn -0.0 0.0 -1.0
vn -0.0 0.0 -1.0
vn -1.0 0.0 0.0
vn -1.0 0.0 0.0
vn -1.0 0.0 0.0
vn -1.0 0.0 0.0
vn -0.0 1.0 0.0
vn -0.0 1.0 0.0
vn -0.0 1.0 0.0
vn -0.0 1.0 0.0
vn -0.0 1.0 0.0
vn -0.0 1.0 0.0
vn -0.0 1.0 0.0
vn -0.0 1.0 0.0
vn -0.0 1.0 0.0
vn -0.0 1.0 0.0
vn -0.0 1.0 0.0
vn -0.0 1.0 0.0
vn -0.0 0.0 1.0
vn -0.0 0.0 1.0
vn -0.0 0.0 1.0
vn -0.0 0.0 1.0
vn -0.0 0.0 1.0
vn -0.0 0.0 1.0
vn 1.0 0.0 0.0
vn 1.0 0.0 0.0
vn 1.0 0.0 0.0
vn 1.0 0.0 0.0
vn 1.0 0.0 0.0
vn -0.0 0.0 -1.0
vn -0.0 0.0 -1.0
vn -0.0 0.0 -1.0
vn -0.0 0.0 -1.0
vn -1.0 0.0 0.0
vn -1.0 0.0 0.0
vn -1.0 0.0 0.0
vn -1.0 0.0 0.0
vn -1.0 0.0 0.0
vn 1.0 0.0 0.0
vn 1.0 0.0 0.0
vn 1.0 0.0 0.0
vn 1.0 0.0 0.0
vn -0.0 -1.0 0.0
vn -0.0 -1.0 0.0
vn -0.0 -1.0 0.0
vn -0.0 -1.0 0.0
vn -0.0 -1.0 0.0
vn -0.0 -1.0 0.0
vn -0.0 -1.0 0.0
vn -0.0 -1.0 0.0
vn -0.0 0.0 1.0
vn -0.0 0.0 1.0
vn -0.0 0.0 1.0
vn -0.0 0.0 1.0
vn -0.0 0.0 1.0
vn -0.0 0.0 1.0
vn -0.0 0.0 1.0
vn -0.0 0.0 1.0
vn -0.0 0.0 -1.0
vn -0.0 0.0 -1.0
vn -0.0 0.0 -1.0
vn -0.0 0.0 -1.0
vn -1.0 0.0 0.0
vn -1.0 0.0 0.0
vn -1.0 0.0 0.0
vn -1.0 0.0 0.0
vn 1.0 0.0 0.0
vn 1.0 0.0 0.0
vn 1.0 0.0 0.0
vn 1.0 0.0 0.0
vn -0.0 0.57797 0.81605804
vn -0.0 0.57797 0.8160579
vn -0.0 0.57797 0.8160579
vn -0.0 0.57797 0.81605804
vn -1.0 0.0 0.0
vn -1.0 0.0 0.0
vn -1.0 0.0 0.0
vn -1.0 0.0 0.0
vn -0.0 1.0 0.0
vn -0.0 1.0 0.0
vn -0.0 1.0 0.0
vn -0.0 1.0 0.0
vn -0.0 0.0 -1.0
vn -0.0 0.0 -1.0
vn -0.0 0.0 -1.0
vn -0.0 0.0 -1.0
vn -0.0 0.0 -1.0
vn -0.0 0.0 -1.0
vn -0.0 0.0 -1.0
vn -0.0 0.0 -1.0
vn -0.0 0.0 -1.0
vn -0.0 0.0 -1.0
vn -0.0 0.0 -1.0
vn -0.0 0.0 -1.0
vn -0.0 0.0 -1.0
vn -0.0 0.0 -1.0
vn -0.0 0.0 -1.0
vn -0.0 0.0 -1.0
vn -1.0 0.0 0.0
vn -1.0 0.0 0.0
vn -1.0 0.0 0.0
vn -1.0 0.0 0.0
vn 1.0 0.0 0.0
vn 1.0 0.0 0.0
vn 1.0 0.0 0.0
vn 1.0 0.0 0.0
vn -0.0 0.0 -1.0
vn -0.0 0.0 -1.0
vn -0.0 0.0 -1.0
vn -0.0 0.0 -1.0
vn -0.0 0.0 -1.0
vn -0.0 0.0 -1.0
vn -0.0 0.0 -1.0
vn -0.0 0.0 -1.0
vn 0.9902214 0.0 -0.13950466
vn 0.9902214 0.0 -0.13950464
vn 0.9902214 0.0 -0.13950464
vn 0.9902214 0.0 -0.13950464
vn -0.9902214 0.0 -0.13950467
vn -0.9902214 0.0 -0.13950467
vn -0.9902214 0.0 -0.13950467
vn -0.9902214 0.0 -0.13950467
vn -0.0 1.0 0.0
vn -0.0 1.0 0.0
vn -0.0 1.0 0.0
vn -0.0 1.0 0.0
vn -0.0 1.0 0.0
vn -0.0 1.0 0.0
vn -0.0 1.0 0.0
vn -0.0 1.0 0.0
vn -0.0 -1.0 0.0
vn -0.0 -1.0 0.0
vn -0.0 -1.0 0.0
vn -0.0 -1.0 0.0
vn -0.0 -1.0 0.0
vn -0.0 -1.0 0.0
vn -0.0 -1.0 0.0
vn -0.0 -1.0 0.0
vt 0.22031711 0.5879161
vt 0.19186826 0.6047708
vt 0.19186826 0.5879161
vt 0.22031711 0.6047708
vt 0.7255021 0.7274604
vt 0.68847257 0.73420167
vt 0.68847257 0.7274604
vt 0.7255021 0.73420167
vt 0.76314616 0.72747576
vt 0.7261404 0.73432523
vt 0.7261404 0.72747576
vt 0.76314616 0.73432523
vt 0.7255021 0.7274604
vt 0.68847257 0.73420167
vt 0.68847257 0.7274604
vt 0.7255021 0.73420167
vt 0.76314616 0.72747564
vt 0.7261404 0.73432523
vt 0.7261404 0.72747564
vt 0.76314616 0.73432523
vt 0.72821414 0.73435575
vt 0.7526285 0.7275764
vt 0.76199365 0.7343557
vt 0.73757935 0.7275764
vt 0.72821414 0.7343557
vt 0.7526285 0.7275764
vt 0.76199365 0.7343557
vt 0.7375793 0.7275764
vt 0.72821414 0.7343557
vt 0.7526285 0.7275764
vt 0.76199365 0.7343557
vt 0.73757935 0.7275764
vt 0.76139045 0.7162394
vt 0.7230551 0.72371644
vt 0.7230551 0.7162394
vt 0.76139045 0.72371644
vt 0.69146395 0.7162394
vt 0.69146395 0.72371644
vt 0.72953683 0.7176845
vt 0.6912015 0.7210097
vt 0.6912015 0.7176845
vt 0.6912015 0.7227447
vt 0.72953683 0.7227447
vt 0.7296402 0.71615094
vt 0.6913049 0.7236279
vt 0.6913049 0.71615094
vt 0.7296402 0.7236279
vt 0.72953683 0.72259676
vt 0.6912015 0.72259676
vt 0.6912015 0.7192714
vt 0.72953683 0.71753645
vt 0.6912015 0.71753645
vt 0.74073577 0.71306473
vt 0.76050186 0.6578101
vt 0.76044947 0.71306473
vt 0.74073577 0.6578101
vt 0.59033537 0.11651051
vt 0.60869306 0.103180766
vt 0.5984558 0.11651051
vt 0.5800981 0.103180766
vt 0.5800981 0.120121956
vt 0.59033537 0.120121956
vt 0.60869306 0.120121956
vt 0.5984558 0.120121956
vt 0.15256101 0.66884214
vt 0.12199831 0.6688863
vt 0.14023714 0.6615819
vt 0.14023714 0.65578794
vt 0.15258254 0.6485816
vt 0.12199831 0.6615819
vt 0.12199831 0.64848363
vt 0.12199831 0.65578794
vt 0.7027449 0.675573
vt 0.7237038 0.70797336
vt 0.7027449 0.70797336
vt 0.7237038 0.67557305
vt 0.76044947 0.71306473
vt 0.7406834 0.6578101
vt 0.76044947 0.6578101
vt 0.74073577 0.71306473
vt 0.7230551 0.7145044
vt 0.69146395 0.7162394
vt 0.69146395 0.7145044
vt 0.7230551 0.7162394
vt 0.75311077 0.71623564
vt 0.75544125 0.72371876
vt 0.75311077 0.72371876
vt 0.75544125 0.71623564
vt 0.69146395 0.72545135
vt 0.7230551 0.72371644
vt 0.7230551 0.72545135
vt 0.69146395 0.72371644
vt 0.7526285 0.7275764
vt 0.72821414 0.7343557
vt 0.7375793 0.7275764
vt 0.76199365 0.7343557
vt 0.72907454 0.66401744
vt 0.6997493 0.665527
vt 0.69805384 0.66401744
vt 0.727336 0.665527
vt 0.7371455 0.66401744
vt 0.69163555 0.66552687
vt 0.6899398 0.66401744
vt 0.7354068 0.665527
vt 0.72933686 0.66401744
vt 0.699444 0.665527
vt 0.6977484 0.66401744
vt 0.7275983 0.665527
vt 0.7371669 0.66401744
vt 0.69165707 0.665527
vt 0.6899613 0.66401744
vt 0.73542833 0.665527
vt 0.7407923 0.66415465
vt 0.76047856 0.7127096
vt 0.7407923 0.7127096
vt 0.76047856 0.66415465
vt 0.76047856 0.7127096
vt 0.7407923 0.66415465
vt 0.76047856 0.66415465
vt 0.7407923 0.7127096
vt 0.6921954 0.675573
vt 0.7027449 0.70797336
vt 0.6921954 0.70797336
vt 0.7027449 0.675573
vt 0.7342533 0.7079734
vt 0.7237038 0.67557305
vt 0.7342533 0.67557305
vt 0.7237038 0.70797336
vt 0.0014940649 0.097171724
vt 0.029438632 0.24640828
vt 0.0014940649 0.24640828
vt 0.029438632 0.097171724
vt 0.029438723 0.24640828
vt 0.0014941692 0.097171724
vt 0.029438723 0.097171724
vt 0.0014941692 0.24640828
vt 0.7219588 0.7100059
vt 0.7198614 0.7083665
vt 0.721233 0.7083665
vt 0.7198614 0.71148074
vt 0.7282228 0.71148074
vt 0.72612554 0.7100059
vt 0.7282228 0.7083665
vt 0.7268513 0.7083665
vt 0.60493183 0.0436607
vt 0.6120688 0.032377124
vt 0.6120688 0.04928261
vt 0.6065214 0.032377124
vt 0.5853876 0.0436607
vt 0.57825065 0.04928261
vt 0.57825065 0.032377124
vt 0.58379793 0.032377124

g Phone_Booth
s 1
usemtl Phone_Booth
f 3/3/3 2/2/2 1/1/1 
f 4/4/4 1/1/1 2/2/2 
f 7/7/7 6/6/6 5/5/5 
f 8/8/8 5/5/5 6/6/6 
f 11/11/11 10/10/10 9/9/9 
f 12/12/12 9/9/9 10/10/10 
f 15/15/15 14/14/14 13/13/13 
f 16/16/16 13/13/13 14/14/14 
f 19/19/19 18/18/18 17/17/17 
f 20/20/20 17/17/17 18/18/18 
f 23/23/23 22/22/22 21/21/21 
f 24/24/24 21/21/21 22/22/22 
f 27/27/27 26/26/26 25/25/25 
f 28/28/28 25/25/25 26/26/26 
f 31/31/31 30/30/30 29/29/29 
f 32/32/32 29/29/29 30/30/30 
f 35/35/35 34/34/34 33/33/33 
f 36/36/36 33/33/33 34/34/34 
f 35/35/35 37/37/37 34/34/34 
f 38/38/38 34/34/34 37/37/37 
f 41/41/41 40/40/40 39/39/39 
f 40/40/40 42/42/42 39/39/39 
f 43/43/43 39/39/39 42/42/42 
f 46/46/46 45/45/45 44/44/44 
f 47/47/47 44/44/44 45/45/45 
f 50/50/50 49/49/49 48/48/48 
f 48/48/48 51/51/51 50/50/50 
f 52/52/52 50/50/50 51/51/51 
f 55/55/55 54/54/54 53/53/53 
f 56/56/56 53/53/53 54/54/54 
f 59/59/59 58/58/58 57/57/57 
f 60/60/60 57/57/57 58/58/58 
f 60/60/60 61/61/61 57/57/57 
f 57/57/57 61/61/61 62/62/62 
f 59/59/59 63/63/63 58/58/58 
f 64/64/64 63/63/63 59/59/59 
f 67/67/67 66/66/66 65/65/65 
f 67/67/67 65/65/65 68/68/68 
f 69/69/69 68/68/68 65/65/65 
f 70/70/70 66/66/66 67/67/67 
f 69/69/69 71/71/71 68/68/68 
f 68/68/68 71/71/71 72/72/72 
f 75/75/75 74/74/74 73/73/73 
f 76/76/76 73/73/73 74/74/74 
f 79/79/79 78/78/78 77/77/77 
f 78/78/78 80/80/80 77/77/77 
f 83/83/83 82/82/82 81/81/81 
f 84/84/84 81/81/81 82/82/82 
f 87/87/87 86/86/86 85/85/85 
f 88/88/88 85/85/85 86/86/86 
f 91/91/91 90/90/90 89/89/89 
f 92/92/92 89/89/89 90/90/90 
f 95/95/95 94/94/94 93/93/93 
f 96/96/96 93/93/93 94/94/94 
f 99/99/99 98/98/98 97/97/97 
f 100/100/100 97/97/97 98/98/98 
f 103/103/103 102/102/102 101/101/101 
f 104/104/104 101/101/101 102/102/102 
f 107/107/107 106/106/106 105/105/105 
f 108/108/108 105/105/105 106/106/106 
f 111/111/111 110/110/110 109/109/109 
f 112/112/112 109/109/109 110/110/110 
f 115/115/115 114/114/114 113/113/113 
f 116/116/116 113/113/113 114/114/114 
f 119/119/119 118/118/118 117/117/117 
f 120/120/120 117/117/117 118/118/118 
f 123/123/123 122/122/122 121/121/121 
f 124/124/124 121/121/121 122/122/122 
f 127/127/127 126/126/126 125/125/125 
f 128/128/128 125/125/125 126/126/126 
f 131/131/131 130/130/130 129/129/129 
f 132/132/132 129/129/129 130/130/130 
f 135/135/135 134/134/134 133/133/133 
f 136/136/136 133/133/133 134/134/134 
f 139/139/139 138/138/138 137/137/137 
f 140/140/140 137/137/137 138/138/138 
f 140/140/140 141/141/141 137/137/137 
f 142/142/142 137/137/137 141/141/141 
f 141/141/141 143/143/143 142/142/142 
f 144/144/144 142/142/142 143/143/143 
f 147/147/147 146/146/146 145/145/145 
f 148/148/148 145/145/145 146/146/146 
f 145/145/145 149/149/149 147/147/147 
f 150/150/150 147/147/147 149/149/149 
f 150/150/150 149/149/149 151/151/151 
f 152/152/152 151/151/151 149/149/149 

