# Created by DisUnity v0.3.4
v -1.473887 2.0391285 -3.4229774
v 1.473877 -5.8959475 -3.4229736
v 1.4738891 2.0391276 -3.4229774
v -1.473877 -5.8959465 -3.4229736
v 1.4738891 2.0391285 3.4230232
v -1.473877 -5.8959465 3.4230194
v -1.473887 2.0391285 3.4230232
v 1.473877 -5.8959465 3.4230194
v 1.473877 -5.8959465 3.4230194
v 1.4738891 2.0391276 -3.4229774
v 1.473877 -5.8959475 -3.4229736
v 1.4738891 2.0391285 3.4230232
v -1.473877 -5.8959465 -3.4229736
v -1.473887 2.0391285 3.4230232
v -1.473877 -5.8959465 3.4230194
v -1.473887 2.0391285 -3.4229774
v -1.473887 2.0391285 3.4230232
v 1.4738891 2.0391276 -3.4229774
v 1.4738891 2.0391285 3.4230232
v -1.473887 2.0391285 -3.4229774
vn -0.0 0.0 -1.0
vn -0.0 0.0 -1.0
vn -0.0 0.0 -1.0
vn -0.0 0.0 -1.0
vn -0.0 0.0 1.0
vn -0.0 0.0 1.0
vn -0.0 0.0 1.0
vn -0.0 0.0 1.0
vn 1.0 0.0 0.0
vn 1.0 0.0 0.0
vn 1.0 0.0 0.0
vn 1.0 0.0 0.0
vn -1.0 0.0 0.0
vn -1.0 0.0 0.0
vn -1.0 0.0 0.0
vn -1.0 0.0 0.0
vn -0.0 1.0 0.0
vn -0.0 1.0 0.0
vn -0.0 1.0 0.0
vn -0.0 1.0 0.0
vt 0.9992692 0.68794066
vt 0.97062486 0.7503877
vt 0.97062486 0.68794066
vt 0.9992692 0.7503877
vt 0.936778 0.68794066
vt 0.9081337 0.7503877
vt 0.9081337 0.68794066
vt 0.936778 0.7503877
vt 0.8324781 0.75034535
vt 0.89900243 0.68789834
vt 0.89900243 0.7503454
vt 0.8324781 0.68789834
vt 0.7622364 0.75102377
vt 0.82876074 0.6885768
vt 0.82876074 0.7510238
vt 0.7622364 0.68857676
vt 0.78765184 0.70728403
vt 0.8454457 0.73216915
vt 0.78765184 0.73216915
vt 0.8454457 0.70728403

g Pillar_04
s 1
usemtl Pillar_04
f 3/3/3 2/2/2 1/1/1 
f 4/4/4 1/1/1 2/2/2 
f 7/7/7 6/6/6 5/5/5 
f 8/8/8 5/5/5 6/6/6 
f 11/11/11 10/10/10 9/9/9 
f 12/12/12 9/9/9 10/10/10 
f 15/15/15 14/14/14 13/13/13 
f 16/16/16 13/13/13 14/14/14 
f 19/19/19 18/18/18 17/17/17 
f 20/20/20 17/17/17 18/18/18 

