# Created by DisUnity v0.3.4
v -1.4738871 2.0391333 -3.4229774
v 1.473877 -5.8959427 -3.4229736
v 1.4738891 2.0391324 -3.4229774
v -1.473877 -5.8959417 -3.4229736
v 1.4738891 2.0391333 3.4230232
v -1.473877 -5.8959417 3.4230194
v -1.4738871 2.0391333 3.4230232
v 1.473877 -5.8959417 3.4230194
v 1.473877 -5.8959417 3.4230194
v 1.4738891 2.0391324 -3.4229774
v 1.473877 -5.8959427 -3.4229736
v 1.4738891 2.0391333 3.4230232
v -1.473877 -5.8959417 -3.4229736
v -1.4738871 2.0391333 3.4230232
v -1.473877 -5.8959417 3.4230194
v -1.4738871 2.0391333 -3.4229774
v -1.4738871 2.0391333 17.677887
v 1.473877 -5.8959427 17.677887
v 1.4738891 2.0391324 17.677887
v -1.473877 -5.8959417 17.677887
v 1.4738891 2.0391333 22.166138
v -1.473877 -5.8959417 22.166138
v -1.4738871 2.0391333 22.166138
v 1.473877 -5.8959417 22.166138
v 1.473877 -5.8959417 22.166138
v 1.4738891 2.0391324 17.677887
v 1.473877 -5.8959427 17.677887
v 1.4738891 2.0391333 22.166138
v -1.473877 -5.8959417 17.677887
v -1.4738871 2.0391333 22.166138
v -1.473877 -5.8959417 22.166138
v -1.4738871 2.0391333 17.677887
v -1.4738871 2.0391333 -17.714752
v 1.473877 -5.8959427 -17.714752
v -1.473877 -5.8959417 -17.714752
v 1.4738891 2.0391324 -17.714752
v 1.4738891 2.0391333 -22.203003
v -1.473877 -5.8959417 -22.203003
v 1.473877 -5.8959417 -22.203003
v -1.4738871 2.0391333 -22.203003
v 1.473877 -5.8959417 -22.203003
v 1.4738891 2.0391324 -17.714752
v 1.4738891 2.0391333 -22.203003
v 1.473877 -5.8959427 -17.714752
v -1.473877 -5.8959417 -17.714752
v -1.4738871 2.0391333 -22.203003
v -1.4738871 2.0391333 -17.714752
v -1.473877 -5.8959417 -22.203003
v -1.4738871 2.0391333 -3.4229774
v 1.4738891 2.0391333 3.4230232
v -1.4738871 2.0391333 3.4230232
v 1.4738891 2.0391324 -3.4229774
v -1.4738871 2.0391333 17.677887
v 1.4738891 2.0391333 22.166138
v -1.4738871 2.0391333 22.166138
v 1.4738891 2.0391324 17.677887
v -1.4738871 2.0391333 -22.203003
v 1.4738891 2.0391324 -17.714752
v -1.4738871 2.0391333 -17.714752
v 1.4738891 2.0391333 -22.203003
vn -0.0 0.0 -1.0
vn -0.0 0.0 -1.0
vn -0.0 0.0 -1.0
vn -0.0 0.0 -1.0
vn -0.0 0.0 1.0
vn -0.0 0.0 1.0
vn -0.0 0.0 1.0
vn -0.0 0.0 1.0
vn 1.0 0.0 0.0
vn 1.0 0.0 0.0
vn 1.0 0.0 0.0
vn 1.0 0.0 0.0
vn -1.0 0.0 0.0
vn -1.0 0.0 0.0
vn -1.0 0.0 0.0
vn -1.0 0.0 0.0
vn -0.0 0.0 -1.0
vn -0.0 0.0 -1.0
vn -0.0 0.0 -1.0
vn -0.0 0.0 -1.0
vn -0.0 0.0 1.0
vn -0.0 0.0 1.0
vn -0.0 0.0 1.0
vn -0.0 0.0 1.0
vn 1.0 0.0 0.0
vn 1.0 0.0 0.0
vn 1.0 0.0 0.0
vn 1.0 0.0 0.0
vn -1.0 0.0 0.0
vn -1.0 0.0 0.0
vn -1.0 0.0 0.0
vn -1.0 0.0 0.0
vn -0.0 0.0 1.0
vn -0.0 0.0 1.0
vn -0.0 0.0 1.0
vn -0.0 0.0 1.0
vn -0.0 0.0 -1.0
vn -0.0 0.0 -1.0
vn -0.0 0.0 -1.0
vn -0.0 0.0 -1.0
vn 1.0 0.0 0.0
vn 1.0 0.0 0.0
vn 1.0 0.0 0.0
vn 1.0 0.0 0.0
vn -1.0 0.0 0.0
vn -1.0 0.0 0.0
vn -1.0 0.0 0.0
vn -1.0 0.0 0.0
vn -0.0 1.0 0.0
vn -0.0 1.0 0.0
vn -0.0 1.0 0.0
vn -0.0 1.0 0.0
vn -0.0 1.0 0.0
vn -0.0 1.0 0.0
vn -0.0 1.0 0.0
vn -0.0 1.0 0.0
vn -0.0 1.0 0.0
vn -0.0 1.0 0.0
vn -0.0 1.0 0.0
vn -0.0 1.0 0.0
vt 0.9992692 0.68794066
vt 0.97062486 0.7503877
vt 0.97062486 0.68794066
vt 0.9992692 0.7503877
vt 0.936778 0.68794066
vt 0.9081337 0.7503877
vt 0.9081337 0.68794066
vt 0.936778 0.7503877
vt 0.8324781 0.75034535
vt 0.89900243 0.68789834
vt 0.89900243 0.7503454
vt 0.8324781 0.68789834
vt 0.7622364 0.75102377
vt 0.82876074 0.6885768
vt 0.82876074 0.7510238
vt 0.7622364 0.68857676
vt 0.9992692 0.68794066
vt 0.97062486 0.7503877
vt 0.97062486 0.68794066
vt 0.9992692 0.7503877
vt 0.7811656 0.68794066
vt 0.7525213 0.7503877
vt 0.7525213 0.68794066
vt 0.7811656 0.7503877
vt 0.8707274 0.75034535
vt 0.9138547 0.68789834
vt 0.9138547 0.7503454
vt 0.8707274 0.68789834
vt 0.8079 0.75102377
vt 0.85102725 0.6885768
vt 0.85102725 0.7510238
vt 0.8079 0.68857676
vt 0.9992692 0.68794066
vt 0.97062486 0.7503877
vt 0.9992692 0.7503877
vt 0.97062486 0.68794066
vt 0.7811656 0.68794066
vt 0.7525213 0.7503877
vt 0.7811656 0.7503877
vt 0.7525213 0.68794066
vt 0.8707274 0.75034535
vt 0.9138547 0.68789834
vt 0.8707274 0.68789834
vt 0.9138547 0.7503454
vt 0.8079 0.75102377
vt 0.85102725 0.6885768
vt 0.8079 0.68857676
vt 0.85102725 0.7510238
vt 0.8454457 0.7072301
vt 0.78765184 0.73211527
vt 0.78765184 0.7072301
vt 0.8454457 0.73211527
vt 0.83475 0.72904444
vt 0.87078655 0.70154405
vt 0.87254506 0.726367
vt 0.8329914 0.7042215
vt 0.8512318 0.7309755
vt 0.88988674 0.7072964
vt 0.8891028 0.73216915
vt 0.8520158 0.7061027

g Pillars_ThreeAcross_02
s 1
usemtl Pillars_ThreeAcross_02
f 3/3/3 2/2/2 1/1/1 
f 4/4/4 1/1/1 2/2/2 
f 7/7/7 6/6/6 5/5/5 
f 8/8/8 5/5/5 6/6/6 
f 11/11/11 10/10/10 9/9/9 
f 12/12/12 9/9/9 10/10/10 
f 15/15/15 14/14/14 13/13/13 
f 16/16/16 13/13/13 14/14/14 
f 19/19/19 18/18/18 17/17/17 
f 20/20/20 17/17/17 18/18/18 
f 23/23/23 22/22/22 21/21/21 
f 24/24/24 21/21/21 22/22/22 
f 27/27/27 26/26/26 25/25/25 
f 28/28/28 25/25/25 26/26/26 
f 31/31/31 30/30/30 29/29/29 
f 32/32/32 29/29/29 30/30/30 
f 35/35/35 34/34/34 33/33/33 
f 36/36/36 33/33/33 34/34/34 
f 39/39/39 38/38/38 37/37/37 
f 40/40/40 37/37/37 38/38/38 
f 43/43/43 42/42/42 41/41/41 
f 44/44/44 41/41/41 42/42/42 
f 47/47/47 46/46/46 45/45/45 
f 48/48/48 45/45/45 46/46/46 
f 51/51/51 50/50/50 49/49/49 
f 52/52/52 49/49/49 50/50/50 
f 55/55/55 54/54/54 53/53/53 
f 56/56/56 53/53/53 54/54/54 
f 59/59/59 58/58/58 57/57/57 
f 60/60/60 57/57/57 58/58/58 

