# Created by DisUnity v0.3.4
v 1.4738891 -5.1893997 10.746124
v 0.89971787 -3.7277682 7.1320934
v 1.4738891 -5.1894007 6.2578735
v 0.89971787 -3.7277772 9.871892
v 1.4738891 -5.829919 10.746124
v 1.4738891 -5.82992 6.2578735
v -1.4738871 -5.1893997 6.2578735
v -0.8997166 -3.7277772 9.871892
v -1.4738871 -5.1893997 10.746124
v -0.8997166 -3.7277682 7.1320934
v -1.473887 -5.829919 6.2578735
v -1.473887 -5.829919 10.746124
v -1.4738871 -5.1893997 6.2578735
v 1.4738891 -5.82992 6.2578735
v 1.4738891 -5.1894007 6.2578735
v -1.473887 -5.829919 6.2578735
v -0.8997166 -3.7277682 7.1320934
v 0.89971787 -3.7277682 7.1320934
v 1.4738891 -5.1893997 10.746124
v -1.473887 -5.829919 10.746124
v -1.4738871 -5.1893997 10.746124
v 1.4738891 -5.829919 10.746124
v 0.89971787 -3.7277772 9.871892
v -0.8997166 -3.7277772 9.871892
v 0.89971787 -3.7277772 9.871892
v 0.89971787 0.3342154 7.1320963
v 0.89971787 -3.7277682 7.1320934
v 0.89971787 0.33420444 9.871895
v 0.89971787 -3.7277682 7.1320934
v -0.8997166 0.3342135 7.1320963
v -0.8997166 -3.7277682 7.1320934
v 0.89971787 0.3342154 7.1320963
v -0.8997166 -3.7277682 7.1320934
v -0.8997166 0.33420444 9.871895
v -0.8997166 -3.7277772 9.871892
v -0.8997166 0.3342135 7.1320963
v -0.8997166 -3.7277772 9.871892
v 0.89971787 0.33420444 9.871895
v 0.89971787 -3.7277772 9.871892
v -0.8997166 0.33420444 9.871895
v 1.4738891 -5.1893997 -10.746185
v 0.89971787 -3.7277682 -7.1321545
v 0.89971787 -3.7277772 -9.871952
v 1.4738891 -5.1894007 -6.2579346
v 1.4738891 -5.829919 -10.746185
v 1.4738891 -5.82992 -6.2579346
v -1.4738871 -5.1893997 -6.2579346
v -0.8997166 -3.7277772 -9.871952
v -0.8997166 -3.7277682 -7.1321545
v -1.4738871 -5.1893997 -10.746185
v -1.473887 -5.829919 -6.2579346
v -1.473887 -5.829919 -10.746185
v -1.4738871 -5.1893997 -6.2579346
v 1.4738891 -5.82992 -6.2579346
v -1.473887 -5.829919 -6.2579346
v 1.4738891 -5.1894007 -6.2579346
v -0.8997166 -3.7277682 -7.1321545
v 0.89971787 -3.7277682 -7.1321545
v 1.4738891 -5.1893997 -10.746185
v -1.473887 -5.829919 -10.746185
v 1.4738891 -5.829919 -10.746185
v -1.4738871 -5.1893997 -10.746185
v 0.89971787 -3.7277772 -9.871952
v -0.8997166 -3.7277772 -9.871952
v 0.89971787 -3.7277772 -9.871952
v 0.89971787 0.3342154 -7.1321564
v 0.89971787 0.33420444 -9.871956
v 0.89971787 -3.7277682 -7.1321545
v 0.89971787 -3.7277682 -7.1321545
v -0.8997166 0.3342135 -7.1321564
v 0.89971787 0.3342154 -7.1321564
v -0.8997166 -3.7277682 -7.1321545
v -0.8997166 -3.7277682 -7.1321545
v -0.8997166 0.33420444 -9.871956
v -0.8997166 0.3342135 -7.1321564
v -0.8997166 -3.7277772 -9.871952
v -0.8997166 -3.7277772 -9.871952
v 0.89971787 0.33420444 -9.871956
v -0.8997166 0.33420444 -9.871956
v 0.89971787 -3.7277772 -9.871952
v -0.8997166 0.3342135 7.1320963
v 0.89971787 0.33420444 9.871895
v -0.8997166 0.33420444 9.871895
v 0.89971787 0.3342154 7.1320963
v -0.8997166 0.33420444 -9.871956
v 0.89971787 0.3342154 -7.1321564
v -0.8997166 0.3342135 -7.1321564
v 0.89971787 0.33420444 -9.871956
vn 0.98867446 0.15007587 0.0
vn 0.93076026 0.36563003 0.0
vn 0.98867446 0.15007584 0.0
vn 0.93075943 0.36563233 0.0
vn 1.0 0.0 0.0
vn 1.0 0.0 0.0
vn -0.98867446 0.15007573 0.0
vn -0.93076 0.36563072 0.0
vn -0.98867446 0.15007573 0.0
vn -0.93076086 0.36562866 0.0
vn -1.0 0.0 0.0
vn -1.0 0.0 0.0
vn -0.0 0.23540387 -0.97189766
vn -0.0 0.0 -1.0
vn -0.0 0.23540366 -0.97189766
vn -0.0 0.0 -1.0
vn -0.0 0.513304 -0.85820687
vn -0.0 0.5133038 -0.8582069
vn -0.0 0.23540755 0.97189677
vn -0.0 0.0 1.0
vn -0.0 0.2354076 0.97189677
vn -0.0 0.0 1.0
vn -0.0 0.5133118 0.85820216
vn -0.0 0.5133118 0.85820216
vn 1.0 0.0 0.0
vn 1.0 0.0 0.0
vn 1.0 0.0 0.0
vn 1.0 0.0 0.0
vn -0.0 0.0 -1.0
vn -0.0 0.0 -1.0
vn -0.0 0.0 -1.0
vn -0.0 0.0 -1.0
vn -1.0 0.0 0.0
vn -1.0 0.0 0.0
vn -1.0 0.0 0.0
vn -1.0 0.0 0.0
vn -0.0 0.0 1.0
vn -0.0 0.0 1.0
vn -0.0 0.0 1.0
vn -0.0 0.0 1.0
vn 0.98867446 0.15007582 0.0
vn 0.93076026 0.36563003 0.0
vn 0.93075943 0.3656323 0.0
vn 0.98867446 0.15007581 0.0
vn 1.0 0.0 0.0
vn 1.0 0.0 0.0
vn -0.98867446 0.15007575 0.0
vn -0.93076 0.36563066 0.0
vn -0.93076086 0.36562857 0.0
vn -0.98867446 0.15007569 0.0
vn -1.0 0.0 0.0
vn -1.0 0.0 0.0
vn -0.0 0.23540387 0.97189766
vn -0.0 0.0 1.0
vn -0.0 0.0 1.0
vn -0.0 0.23540366 0.97189766
vn -0.0 0.513304 0.85820687
vn -0.0 0.5133038 0.8582069
vn -0.0 0.23540774 -0.97189665
vn -0.0 0.0 -1.0
vn -0.0 0.0 -1.0
vn -0.0 0.23540787 -0.97189665
vn -0.0 0.51331216 -0.8582019
vn -0.0 0.5133122 -0.8582019
vn 1.0 0.0 0.0
vn 1.0 0.0 0.0
vn 1.0 0.0 0.0
vn 1.0 0.0 0.0
vn -0.0 0.0 1.0
vn -0.0 0.0 1.0
vn -0.0 0.0 1.0
vn -0.0 0.0 1.0
vn -1.0 0.0 0.0
vn -1.0 0.0 0.0
vn -1.0 0.0 0.0
vn -1.0 0.0 0.0
vn -0.0 0.0 -1.0
vn -0.0 0.0 -1.0
vn -0.0 0.0 -1.0
vn -0.0 0.0 -1.0
vn -0.0 1.0 0.0
vn -0.0 1.0 0.0
vn -0.0 1.0 0.0
vn -0.0 1.0 0.0
vn -0.0 1.0 0.0
vn -0.0 1.0 0.0
vn -0.0 1.0 0.0
vn -0.0 1.0 0.0
vt 0.8707274 0.74481213
vt 0.9054544 0.73060906
vt 0.9138547 0.74481213
vt 0.87912786 0.7306092
vt 0.8707274 0.75034535
vt 0.9138547 0.7503454
vt 0.8079 0.74549055
vt 0.8426268 0.7312876
vt 0.85102725 0.74549055
vt 0.8163004 0.7312875
vt 0.8079 0.75102377
vt 0.85102725 0.7510238
vt 0.9992692 0.74485445
vt 0.97062486 0.7503877
vt 0.97062486 0.74485445
vt 0.9992692 0.7503877
vt 0.99368984 0.7306514
vt 0.9762042 0.7306514
vt 0.7811656 0.74485445
vt 0.7525213 0.7503877
vt 0.7525213 0.74485445
vt 0.7811656 0.7503877
vt 0.77558625 0.7306515
vt 0.75810075 0.7306515
vt 0.87912786 0.7306092
vt 0.9054544 0.6911378
vt 0.9054544 0.73060906
vt 0.87912786 0.6911379
vt 0.9762042 0.7306514
vt 0.99368984 0.6911801
vt 0.99368984 0.7306514
vt 0.9762042 0.6911801
vt 0.8163004 0.7312875
vt 0.84262687 0.69181633
vt 0.8426268 0.7312876
vt 0.8163004 0.6918162
vt 0.75810075 0.7306515
vt 0.77558625 0.6911802
vt 0.77558625 0.7306515
vt 0.75810075 0.6911802
vt 0.8707274 0.74481213
vt 0.9054544 0.73060906
vt 0.87912786 0.7306092
vt 0.9138547 0.74481213
vt 0.8707274 0.75034535
vt 0.9138547 0.7503454
vt 0.8079 0.74549055
vt 0.8426268 0.7312876
vt 0.8163004 0.7312875
vt 0.85102725 0.74549055
vt 0.8079 0.75102377
vt 0.85102725 0.7510238
vt 0.9992692 0.74485445
vt 0.97062486 0.7503877
vt 0.9992692 0.7503877
vt 0.97062486 0.74485445
vt 0.99368984 0.7306514
vt 0.9762042 0.7306514
vt 0.7811656 0.74485445
vt 0.7525213 0.7503877
vt 0.7811656 0.7503877
vt 0.7525213 0.74485445
vt 0.77558625 0.7306515
vt 0.75810075 0.7306515
vt 0.87912786 0.7306092
vt 0.9054544 0.6911378
vt 0.87912786 0.6911379
vt 0.9054544 0.73060906
vt 0.9762042 0.7306514
vt 0.99368984 0.6911801
vt 0.9762042 0.6911801
vt 0.99368984 0.7306514
vt 0.8163004 0.7312875
vt 0.84262687 0.69181633
vt 0.8163004 0.6918162
vt 0.8426268 0.7312876
vt 0.75810075 0.7306515
vt 0.77558625 0.6911802
vt 0.75810075 0.6911802
vt 0.77558625 0.7306515
vt 0.9014605 0.7008156
vt 0.87833107 0.71600646
vt 0.87833107 0.7008156
vt 0.9014605 0.71600646
vt 0.96142745 0.7169844
vt 0.9378788 0.7315167
vt 0.93830734 0.71633196
vt 0.960999 0.73216915

g Pillars_TwoAcross_03
s 1
usemtl Pillars_TwoAcross_03
f 3/3/3 2/2/2 1/1/1 
f 4/4/4 1/1/1 2/2/2 
f 1/1/1 5/5/5 3/3/3 
f 6/6/6 3/3/3 5/5/5 
f 9/9/9 8/8/8 7/7/7 
f 10/10/10 7/7/7 8/8/8 
f 7/7/7 11/11/11 9/9/9 
f 12/12/12 9/9/9 11/11/11 
f 15/15/15 14/14/14 13/13/13 
f 16/16/16 13/13/13 14/14/14 
f 13/13/13 17/17/17 15/15/15 
f 18/18/18 15/15/15 17/17/17 
f 21/21/21 20/20/20 19/19/19 
f 22/22/22 19/19/19 20/20/20 
f 19/19/19 23/23/23 21/21/21 
f 24/24/24 21/21/21 23/23/23 
f 27/27/27 26/26/26 25/25/25 
f 28/28/28 25/25/25 26/26/26 
f 31/31/31 30/30/30 29/29/29 
f 32/32/32 29/29/29 30/30/30 
f 35/35/35 34/34/34 33/33/33 
f 36/36/36 33/33/33 34/34/34 
f 39/39/39 38/38/38 37/37/37 
f 40/40/40 37/37/37 38/38/38 
f 43/43/43 42/42/42 41/41/41 
f 44/44/44 41/41/41 42/42/42 
f 41/41/41 44/44/44 45/45/45 
f 46/46/46 45/45/45 44/44/44 
f 49/49/49 48/48/48 47/47/47 
f 50/50/50 47/47/47 48/48/48 
f 47/47/47 50/50/50 51/51/51 
f 52/52/52 51/51/51 50/50/50 
f 55/55/55 54/54/54 53/53/53 
f 56/56/56 53/53/53 54/54/54 
f 53/53/53 56/56/56 57/57/57 
f 58/58/58 57/57/57 56/56/56 
f 61/61/61 60/60/60 59/59/59 
f 62/62/62 59/59/59 60/60/60 
f 59/59/59 62/62/62 63/63/63 
f 64/64/64 63/63/63 62/62/62 
f 67/67/67 66/66/66 65/65/65 
f 68/68/68 65/65/65 66/66/66 
f 71/71/71 70/70/70 69/69/69 
f 72/72/72 69/69/69 70/70/70 
f 75/75/75 74/74/74 73/73/73 
f 76/76/76 73/73/73 74/74/74 
f 79/79/79 78/78/78 77/77/77 
f 80/80/80 77/77/77 78/78/78 
f 83/83/83 82/82/82 81/81/81 
f 84/84/84 81/81/81 82/82/82 
f 87/87/87 86/86/86 85/85/85 
f 88/88/88 85/85/85 86/86/86 

