# Created by DisUnity v0.3.4
v 1.4738894 -5.189371 3.6740055
v 0.89971733 -3.7277396 -2.2427225
v 1.4738894 -5.189372 -3.673956
v 0.89971733 -3.7277486 2.2427516
v 1.473877 -5.8298903 3.6740112
v 1.473877 -5.829891 -3.6739502
v -1.4738865 -5.189371 -3.673956
v -0.89971733 -3.7277486 2.2427516
v -1.4738865 -5.189371 3.6740055
v -0.89971733 -3.7277396 -2.2427225
v -1.473877 -5.8298903 -3.6739502
v -1.473877 -5.8298903 3.6740112
v -1.4738865 -5.189371 -3.673956
v 1.473877 -5.829891 -3.6739502
v 1.4738894 -5.189372 -3.673956
v -1.473877 -5.8298903 -3.6739502
v -0.89971733 -3.7277396 -2.2427225
v 0.89971733 -3.7277396 -2.2427225
v 1.4738894 -5.189371 3.6740055
v -1.473877 -5.8298903 3.6740112
v -1.4738865 -5.189371 3.6740055
v 1.473877 -5.8298903 3.6740112
v 0.89971733 -3.7277486 2.2427516
v -0.89971733 -3.7277486 2.2427516
v 0.89971733 -3.7277486 2.2427516
v 0.89971733 0.334244 -2.2427177
v 0.89971733 -3.7277396 -2.2427225
v 0.89971733 0.33423305 2.2427564
v 0.89971733 -3.7277396 -2.2427225
v -0.89971733 0.3342421 -2.2427177
v -0.89971733 -3.7277396 -2.2427225
v 0.89971733 0.334244 -2.2427177
v -0.89971733 -3.7277396 -2.2427225
v -0.89971733 0.33423305 2.2427564
v -0.89971733 -3.7277486 2.2427516
v -0.89971733 0.3342421 -2.2427177
v -0.89971733 -3.7277486 2.2427516
v 0.89971733 0.33423305 2.2427564
v 0.89971733 -3.7277486 2.2427516
v -0.89971733 0.33423305 2.2427564
v -0.89971733 0.3342421 -2.2427177
v 0.89971733 0.33423305 2.2427564
v -0.89971733 0.33423305 2.2427564
v 0.89971733 0.334244 -2.2427177
vn 0.9916972 0.12859422 0.0
vn 0.93076026 0.36563027 0.0
vn 0.9916972 0.1285955 0.0
vn 0.9307592 0.3656327 0.0
vn 1.0 -1.9355808E-5 0.0
vn 1.0 -1.9355808E-5 0.0
vn -0.99169683 0.12859784 0.0
vn -0.93076026 0.3656302 0.0
vn -0.99169695 0.12859659 0.0
vn -0.9307611 0.3656279 0.0
vn -1.0 -1.4889083E-5 0.0
vn -1.0 -1.4889084E-5 0.0
vn -0.0 0.3415142 -0.93987656
vn -0.0 0.0 -1.0
vn -0.0 0.34151447 -0.93987656
vn -0.0 0.0 -1.0
vn -0.0 0.6996378 -0.7144977
vn -0.0 0.6996377 -0.7144978
vn -0.0 0.34152833 0.9398715
vn -0.0 0.0 1.0
vn -0.0 0.34152797 0.9398716
vn -0.0 0.0 1.0
vn -0.0 0.6996453 0.7144905
vn -0.0 0.6996453 0.7144904
vn 1.0 0.0 0.0
vn 1.0 0.0 0.0
vn 1.0 0.0 0.0
vn 1.0 0.0 0.0
vn -0.0 0.0 -1.0
vn -0.0 0.0 -1.0
vn -0.0 0.0 -1.0
vn -0.0 0.0 -1.0
vn -1.0 0.0 0.0
vn -1.0 0.0 0.0
vn -1.0 0.0 0.0
vn -1.0 0.0 0.0
vn -0.0 0.0 1.0
vn -0.0 0.0 1.0
vn -0.0 0.0 1.0
vn -0.0 0.0 1.0
vn -0.0 1.0 0.0
vn -0.0 1.0 0.0
vn -0.0 1.0 0.0
vn -0.0 1.0 0.0
vt 0.87418365 0.7442224
vt 0.92500347 0.7303723
vt 0.93729645 0.7442224
vt 0.886477 0.7303724
vt 0.87418365 0.7496181
vt 0.93729645 0.7496182
vt 0.7822416 0.74488395
vt 0.83306104 0.7310339
vt 0.84535426 0.744884
vt 0.7945348 0.73103386
vt 0.7822416 0.75027966
vt 0.84535426 0.7502797
vt 0.9992692 0.74485445
vt 0.97062486 0.7503877
vt 0.97062486 0.74485445
vt 0.9992692 0.7503877
vt 0.99368984 0.7306514
vt 0.9762042 0.7306514
vt 0.7811656 0.74485445
vt 0.7525213 0.7503877
vt 0.7525213 0.74485445
vt 0.7811656 0.7503877
vt 0.77558625 0.7306515
vt 0.75810075 0.7306515
vt 0.886477 0.7303724
vt 0.92500347 0.69188184
vt 0.92500347 0.7303723
vt 0.886477 0.69188195
vt 0.9762042 0.7306514
vt 0.99368984 0.6911801
vt 0.99368984 0.7306514
vt 0.9762042 0.6911801
vt 0.7945348 0.73103386
vt 0.83306116 0.6925435
vt 0.83306104 0.7310339
vt 0.7945348 0.6925434
vt 0.75810075 0.7306515
vt 0.77558625 0.6911802
vt 0.77558625 0.7306515
vt 0.75810075 0.6911802
vt 0.9320927 0.7169783
vt 0.8942263 0.73216915
vt 0.8942263 0.7169783
vt 0.9320927 0.73216915

g Pillar_02
s 1
usemtl Pillar_02
f 3/3/3 2/2/2 1/1/1 
f 4/4/4 1/1/1 2/2/2 
f 1/1/1 5/5/5 3/3/3 
f 6/6/6 3/3/3 5/5/5 
f 9/9/9 8/8/8 7/7/7 
f 10/10/10 7/7/7 8/8/8 
f 7/7/7 11/11/11 9/9/9 
f 12/12/12 9/9/9 11/11/11 
f 15/15/15 14/14/14 13/13/13 
f 16/16/16 13/13/13 14/14/14 
f 13/13/13 17/17/17 15/15/15 
f 18/18/18 15/15/15 17/17/17 
f 21/21/21 20/20/20 19/19/19 
f 22/22/22 19/19/19 20/20/20 
f 19/19/19 23/23/23 21/21/21 
f 24/24/24 21/21/21 23/23/23 
f 27/27/27 26/26/26 25/25/25 
f 28/28/28 25/25/25 26/26/26 
f 31/31/31 30/30/30 29/29/29 
f 32/32/32 29/29/29 30/30/30 
f 35/35/35 34/34/34 33/33/33 
f 36/36/36 33/33/33 34/34/34 
f 39/39/39 38/38/38 37/37/37 
f 40/40/40 37/37/37 38/38/38 
f 43/43/43 42/42/42 41/41/41 
f 44/44/44 41/41/41 42/42/42 

