# Created by DisUnity v0.3.4
v -1.4738871 1.8551798 -2.24411
v 1.4738891 -6.079896 -2.24411
v 1.4738891 1.8551788 -2.24411
v -1.4738871 -6.079895 -2.24411
v 1.4738891 1.8551798 2.2441406
v -1.4738871 -6.079895 2.2441406
v -1.4738871 1.8551798 2.2441406
v 1.4738891 -6.079895 2.2441406
v 1.4738891 -6.079895 2.2441406
v 1.4738891 1.8551788 -2.24411
v 1.4738891 -6.079896 -2.24411
v 1.4738891 1.8551798 2.2441406
v -1.4738871 -6.079895 -2.24411
v -1.4738871 1.8551798 2.2441406
v -1.4738871 -6.079895 2.2441406
v -1.4738871 1.8551798 -2.24411
v -1.4738871 1.8551798 -2.24411
v 1.4738891 1.8551798 2.2441406
v -1.4738871 1.8551798 2.2441406
v 1.4738891 1.8551788 -2.24411
vn -0.0 0.0 -1.0
vn -0.0 0.0 -1.0
vn -0.0 0.0 -1.0
vn -0.0 0.0 -1.0
vn -0.0 0.0 1.0
vn -0.0 0.0 1.0
vn -0.0 0.0 1.0
vn -0.0 0.0 1.0
vn 1.0 0.0 0.0
vn 1.0 0.0 0.0
vn 1.0 0.0 0.0
vn 1.0 0.0 0.0
vn -1.0 0.0 0.0
vn -1.0 0.0 0.0
vn -1.0 0.0 0.0
vn -1.0 0.0 0.0
vn -0.0 1.0 0.0
vn -0.0 1.0 0.0
vn -0.0 1.0 0.0
vn -0.0 1.0 0.0
vt 0.9992692 0.68794066
vt 0.97062486 0.7503877
vt 0.97062486 0.68794066
vt 0.9992692 0.7503877
vt 0.7811656 0.68794066
vt 0.7525213 0.7503877
vt 0.7525213 0.68794066
vt 0.7811656 0.7503877
vt 0.8707274 0.75034535
vt 0.9138547 0.68789834
vt 0.9138547 0.7503454
vt 0.8707274 0.68789834
vt 0.8079 0.75102377
vt 0.85102725 0.6885768
vt 0.85102725 0.7510238
vt 0.8079 0.68857676
vt 0.8891216 0.70026255
vt 0.8512319 0.7251477
vt 0.8512319 0.70026255
vt 0.8891216 0.7251477

g Pillar_03
s 1
usemtl Pillar_03
f 3/3/3 2/2/2 1/1/1 
f 4/4/4 1/1/1 2/2/2 
f 7/7/7 6/6/6 5/5/5 
f 8/8/8 5/5/5 6/6/6 
f 11/11/11 10/10/10 9/9/9 
f 12/12/12 9/9/9 10/10/10 
f 15/15/15 14/14/14 13/13/13 
f 16/16/16 13/13/13 14/14/14 
f 19/19/19 18/18/18 17/17/17 
f 20/20/20 17/17/17 18/18/18 

