# Created by DisUnity v0.3.4
v -13.698715 19.556526 13.324783
v 13.698761 29.302284 13.324783
v 13.698761 19.556534 13.324783
v -13.698715 29.302284 13.324783
v 13.698761 19.556534 13.324783
v 13.698761 29.302284 -13.324844
v 13.698761 19.556534 -13.324842
v 13.698761 29.302284 13.324783
v 13.698761 19.556534 -13.324842
v -13.698715 29.302284 -13.324844
v -13.698715 19.556526 -13.324844
v 13.698761 29.302284 -13.324844
v -13.698715 19.556526 13.324783
v -13.698715 29.302284 -13.324844
v -13.698715 29.302284 13.324783
v -13.698715 19.556526 -13.324844
v -13.698715 0.06499481 13.324783
v 13.698761 9.810768 13.324783
v 13.698761 0.06502533 13.324783
v -13.698715 9.810768 13.324783
v -13.698715 9.810768 13.324783
v 13.698761 19.556534 13.324783
v 13.698761 9.810768 13.324783
v -13.698715 19.556526 13.324783
v 13.698761 0.06502533 13.324783
v 13.698761 9.810768 -13.324842
v 13.698761 0.06502533 -13.324844
v 13.698761 9.810768 13.324783
v 13.698761 9.810768 13.324783
v 13.698761 19.556534 -13.324842
v 13.698761 9.810768 -13.324842
v 13.698761 19.556534 13.324783
v 13.698761 0.06502533 -13.324844
v -13.698715 9.810768 -13.324842
v -13.698715 0.06499481 -13.324844
v 13.698761 9.810768 -13.324842
v 13.698761 9.810768 -13.324842
v -13.698715 19.556526 -13.324844
v -13.698715 9.810768 -13.324842
v 13.698761 19.556534 -13.324842
v -13.698715 9.810768 -13.324842
v -13.698715 0.06499481 13.324783
v -13.698715 0.06499481 -13.324844
v -13.698715 9.810768 13.324783
v -13.698715 19.556526 -13.324844
v -13.698715 9.810768 13.324783
v -13.698715 9.810768 -13.324842
v -13.698715 19.556526 13.324783
vn -0.0 0.0 1.0
vn -0.0 0.0 1.0
vn -0.0 0.0 1.0
vn -0.0 0.0 1.0
vn 1.0 0.0 0.0
vn 1.0 0.0 0.0
vn 1.0 0.0 0.0
vn 1.0 0.0 0.0
vn -0.0 0.0 -1.0
vn -0.0 0.0 -1.0
vn -0.0 0.0 -1.0
vn -0.0 0.0 -1.0
vn -1.0 0.0 0.0
vn -1.0 0.0 0.0
vn -1.0 0.0 0.0
vn -1.0 0.0 0.0
vn -0.0 0.0 1.0
vn -0.0 0.0 1.0
vn -0.0 0.0 1.0
vn -0.0 0.0 1.0
vn -0.0 0.0 1.0
vn -0.0 0.0 1.0
vn -0.0 0.0 1.0
vn -0.0 0.0 1.0
vn 1.0 0.0 0.0
vn 1.0 0.0 0.0
vn 1.0 0.0 0.0
vn 1.0 0.0 0.0
vn 1.0 0.0 0.0
vn 1.0 0.0 0.0
vn 1.0 0.0 0.0
vn 1.0 0.0 0.0
vn -0.0 0.0 -1.0
vn -0.0 0.0 -1.0
vn -0.0 0.0 -1.0
vn -0.0 0.0 -1.0
vn -0.0 0.0 -1.0
vn -0.0 0.0 -1.0
vn -0.0 0.0 -1.0
vn -0.0 0.0 -1.0
vn -1.0 0.0 0.0
vn -1.0 0.0 0.0
vn -1.0 0.0 0.0
vn -1.0 0.0 0.0
vn -1.0 0.0 0.0
vn -1.0 0.0 0.0
vn -1.0 0.0 0.0
vn -1.0 0.0 0.0
vt 1.0000529 0.33075643
vt 0.49667048 0.50337136
vt 0.49667048 0.33075643
vt 1.0000529 0.5033715
vt 1.0000529 0.3289709
vt 0.49667048 0.50158596
vt 0.49667048 0.3289709
vt 1.0000529 0.50158596
vt 1.0000529 0.3289709
vt 0.49667048 0.50158596
vt 0.49667048 0.3289709
vt 1.0000529 0.50158596
vt 0.49667048 0.3289709
vt 1.0000529 0.50158596
vt 0.49667048 0.5015861
vt 1.0000529 0.3289709
vt 1.0000529 0.330912
vt 0.49667048 0.50352657
vt 0.49667048 0.330912
vt 1.0000529 0.50352657
vt 1.0000529 0.32994127
vt 0.49667048 0.5025562
vt 0.49667048 0.32994127
vt 1.0000529 0.5025562
vt 1.0000529 0.330912
vt 0.49667048 0.50352657
vt 0.49667048 0.330912
vt 1.0000529 0.50352657
vt 1.0000529 0.32994127
vt 0.49667048 0.5025562
vt 0.49667048 0.32994127
vt 1.0000529 0.5025562
vt 1.0020368 0.330912
vt 0.49865437 0.50352657
vt 0.49865437 0.330912
vt 1.0020368 0.50352657
vt 1.0000529 0.32994127
vt 0.49667048 0.5025562
vt 0.49667048 0.32994127
vt 1.0000529 0.5025562
vt 1.0000529 0.50352657
vt 0.49667048 0.330912
vt 1.0000529 0.330912
vt 0.49667048 0.50352657
vt 1.0000529 0.5025562
vt 0.49667048 0.32994127
vt 1.0000529 0.32994127
vt 0.49667048 0.5025562

g Scafold
s 1
usemtl Scafold
f 3/3/3 2/2/2 1/1/1 
f 4/4/4 1/1/1 2/2/2 
f 7/7/7 6/6/6 5/5/5 
f 8/8/8 5/5/5 6/6/6 
f 11/11/11 10/10/10 9/9/9 
f 12/12/12 9/9/9 10/10/10 
f 15/15/15 14/14/14 13/13/13 
f 16/16/16 13/13/13 14/14/14 
f 19/19/19 18/18/18 17/17/17 
f 20/20/20 17/17/17 18/18/18 
f 23/23/23 22/22/22 21/21/21 
f 24/24/24 21/21/21 22/22/22 
f 27/27/27 26/26/26 25/25/25 
f 28/28/28 25/25/25 26/26/26 
f 31/31/31 30/30/30 29/29/29 
f 32/32/32 29/29/29 30/30/30 
f 35/35/35 34/34/34 33/33/33 
f 36/36/36 33/33/33 34/34/34 
f 39/39/39 38/38/38 37/37/37 
f 40/40/40 37/37/37 38/38/38 
f 43/43/43 42/42/42 41/41/41 
f 44/44/44 41/41/41 42/42/42 
f 47/47/47 46/46/46 45/45/45 
f 48/48/48 45/45/45 46/46/46 

