# Created by DisUnity v0.3.4
v 1.6774202E-8 -3.2719646E-18 0.053435236
v 0.046276264 2.4384 -0.026717637
v 0.046276264 1.6359834E-18 -0.026717637
v 1.6774202E-8 2.4384 0.053435236
v 0.046276264 1.6359834E-18 -0.026717637
v -0.046276283 2.4384 -0.026717598
v -0.046276283 1.6359811E-18 -0.026717598
v 0.046276264 2.4384 -0.026717637
v -0.046276283 1.6359811E-18 -0.026717598
v 1.6774202E-8 2.4384 0.053435236
v 1.6774202E-8 -3.2719646E-18 0.053435236
v -0.046276283 2.4384 -0.026717598
v -0.046276283 2.4384 -0.026717598
v 0.046276264 2.4384 -0.026717637
v 1.6774202E-8 2.4384 0.053435236
v -0.57808596 1.9235492 -0.05620688
v 0.5603477 2.42734 -0.056207117
v -0.5780858 2.42734 -0.056206923
v 0.5603476 1.9235492 -0.056207098
v -0.57808596 1.9235493 -0.032897707
v -0.5780858 2.42734 -0.056206923
v -0.5780859 2.42734 -0.032897722
v -0.57808596 1.9235492 -0.05620688
v -0.5780859 2.42734 -0.032897722
v 0.5603477 2.42734 -0.056207117
v 0.56034756 2.42734 -0.032897945
v -0.5780858 2.42734 -0.056206923
v 0.56034756 2.42734 -0.032897945
v 0.5603476 1.9235492 -0.056207098
v 0.5603476 1.9235492 -0.032897934
v 0.5603477 2.42734 -0.056207117
v 0.5603476 1.9235492 -0.032897934
v -0.57808596 1.9235492 -0.05620688
v -0.57808596 1.9235493 -0.032897707
v 0.5603476 1.9235492 -0.056207098
v 0.5603476 1.9235492 -0.032897934
v -0.5780859 2.42734 -0.032897722
v 0.56034756 2.42734 -0.032897945
v -0.57808596 1.9235493 -0.032897707
vn 0.8660256 0.0 0.4999997
vn 0.8660255 0.0 0.4999997
vn 0.8660256 0.0 0.4999997
vn 0.8660256 0.0 0.4999997
vn -0.0 0.0 -1.0
vn -0.0 0.0 -1.0
vn -0.0 0.0 -1.0
vn -0.0 0.0 -1.0
vn -0.86602527 0.0 0.5000003
vn -0.86602527 0.0 0.50000036
vn -0.86602527 0.0 0.50000036
vn -0.86602527 0.0 0.50000036
vn -0.0 1.0 0.0
vn -0.0 1.0 0.0
vn -0.0 1.0 0.0
vn -0.0 0.0 -1.0
vn -0.0 0.0 -1.0
vn -0.0 0.0 -1.0
vn -0.0 0.0 -1.0
vn -1.0 0.0 0.0
vn -1.0 0.0 0.0
vn -1.0 0.0 0.0
vn -1.0 0.0 0.0
vn -0.0 1.0 0.0
vn -0.0 1.0 0.0
vn -0.0 1.0 0.0
vn -0.0 1.0 0.0
vn 1.0 0.0 0.0
vn 1.0 0.0 0.0
vn 1.0 0.0 0.0
vn 1.0 0.0 0.0
vn -0.0 -1.0 0.0
vn -0.0 -1.0 0.0
vn -0.0 -1.0 0.0
vn -0.0 -1.0 0.0
vn -0.0 0.0 1.0
vn -0.0 0.0 1.0
vn -0.0 0.0 1.0
vn -0.0 0.0 1.0
vt 0.9377397 0.46612555
vt 0.95303875 0.026908457
vt 0.9521796 0.46612555
vt 0.9377397 0.026877522
vt 0.9369194 0.46612555
vt 0.95272964 0.027444363
vt 0.9535889 0.46672314
vt 0.93777853 0.026908457
vt 0.9388055 0.46672314
vt 0.95324534 0.027475238
vt 0.9532454 0.46672314
vt 0.93794626 0.027444363
vt 0.971328 0.027444363
vt 0.9563769 0.026908457
vt 0.96426314 0.015718937
vt 0.40632465 0.5013617
vt 0.18785569 0.40468264
vt 0.40632465 0.40468264
vt 0.18785569 0.5013617
vt 0.68047196 0.43491256
vt 0.629321 0.4389586
vt 0.629321 0.43491256
vt 0.68047196 0.4389586
vt 0.74490863 0.4452086
vt 0.629321 0.4492547
vt 0.629321 0.4452086
vt 0.74490863 0.44925475
vt 0.68047196 0.4297645
vt 0.629321 0.43381053
vt 0.629321 0.4297645
vt 0.68047196 0.43381053
vt 0.74490863 0.44006056
vt 0.629321 0.44410664
vt 0.629321 0.44006056
vt 0.74490863 0.44410664
vt 0.6281594 0.42807263
vt 0.74803317 0.37502474
vt 0.6281594 0.37502474
vt 0.74803317 0.42807263

g Sign_OneWay
s 1
usemtl Sign_OneWay
f 3/3/3 2/2/2 1/1/1 
f 4/4/4 1/1/1 2/2/2 
f 7/7/7 6/6/6 5/5/5 
f 8/8/8 5/5/5 6/6/6 
f 11/11/11 10/10/10 9/9/9 
f 12/12/12 9/9/9 10/10/10 
f 15/15/15 14/14/14 13/13/13 
f 18/18/18 17/17/17 16/16/16 
f 19/19/19 16/16/16 17/17/17 
f 22/22/22 21/21/21 20/20/20 
f 23/23/23 20/20/20 21/21/21 
f 26/26/26 25/25/25 24/24/24 
f 27/27/27 24/24/24 25/25/25 
f 30/30/30 29/29/29 28/28/28 
f 31/31/31 28/28/28 29/29/29 
f 34/34/34 33/33/33 32/32/32 
f 35/35/35 32/32/32 33/33/33 
f 38/38/38 37/37/37 36/36/36 
f 39/39/39 36/36/36 37/37/37 

