# Created by DisUnity v0.3.4
v -0.7211113 3.0267754 -0.04414643
v 0.7211094 1.5545158 -0.044146646
v 0.7211094 3.0267754 -0.044146646
v -0.7211113 1.5545158 -0.04414643
v 0.6352005 0.012973785 0.065142535
v 0.5352001 2.9344292 0.06514255
v 0.6352005 2.9344292 0.065142535
v 0.5352001 0.012973785 0.06514255
v 0.6352005 0.012973785 -0.034859754
v 0.5352001 2.9344292 -0.03485974
v 0.5352001 0.012973785 -0.03485974
v 0.6352005 2.9344292 -0.034859754
v 0.5352001 0.012973785 0.06514255
v 0.5352001 2.9344292 -0.03485974
v 0.5352001 2.9344292 0.06514255
v 0.5352001 0.012973785 -0.03485974
v 0.5352001 2.9344292 0.06514255
v 0.6352005 2.9344292 -0.034859754
v 0.6352005 2.9344292 0.065142535
v 0.5352001 2.9344292 -0.03485974
v 0.6352005 2.9344292 0.065142535
v 0.6352005 0.012973785 -0.034859754
v 0.6352005 0.012973785 0.065142535
v 0.6352005 2.9344292 -0.034859754
v -0.49167252 0.012973785 0.065142706
v -0.5916672 2.9344292 0.06514272
v -0.49167252 2.9344292 0.065142706
v -0.5916672 0.012973785 0.06514272
v -0.49167252 0.012973785 -0.034859583
v -0.5916672 2.9344292 -0.034859568
v -0.5916672 0.012973785 -0.034859568
v -0.49167252 2.9344292 -0.034859583
v -0.5916672 0.012973785 0.06514272
v -0.5916672 2.9344292 -0.034859568
v -0.5916672 2.9344292 0.06514272
v -0.5916672 0.012973785 -0.034859568
v -0.5916672 2.9344292 0.06514272
v -0.49167252 2.9344292 -0.034859583
v -0.49167252 2.9344292 0.065142706
v -0.5916672 2.9344292 -0.034859568
v -0.49167252 2.9344292 0.065142706
v -0.49167252 0.012973785 -0.034859583
v -0.49167252 0.012973785 0.065142706
v -0.49167252 2.9344292 -0.034859583
v -0.7211113 3.0267754 -0.03735627
v 0.7211094 1.5545158 -0.037356485
v -0.7211113 1.5545158 -0.03735627
v 0.7211094 3.0267754 -0.037356485
v -0.7211113 3.0267754 -0.03735627
v -0.7211113 1.5545158 -0.04414643
v -0.7211113 3.0267754 -0.04414643
v -0.7211113 1.5545158 -0.03735627
v 0.7211094 1.5545158 -0.037356485
v 0.7211094 3.0267754 -0.044146646
v 0.7211094 1.5545158 -0.044146646
v 0.7211094 3.0267754 -0.037356485
v -0.7211113 3.0267754 -0.03735627
v 0.7211094 3.0267754 -0.044146646
v 0.7211094 3.0267754 -0.037356485
v -0.7211113 3.0267754 -0.04414643
v 0.7211094 1.5545158 -0.037356485
v -0.7211113 1.5545158 -0.04414643
v -0.7211113 1.5545158 -0.03735627
v 0.7211094 1.5545158 -0.044146646
vn -0.0 0.0 -1.0
vn -0.0 0.0 -1.0
vn -0.0 0.0 -1.0
vn -0.0 0.0 -1.0
vn -0.0 0.0 1.0
vn -0.0 0.0 1.0
vn -0.0 0.0 1.0
vn -0.0 0.0 1.0
vn -0.0 0.0 -1.0
vn -0.0 0.0 -1.0
vn -0.0 0.0 -1.0
vn -0.0 0.0 -1.0
vn -1.0 0.0 0.0
vn -1.0 0.0 0.0
vn -1.0 0.0 0.0
vn -1.0 0.0 0.0
vn -0.0 1.0 0.0
vn -0.0 1.0 0.0
vn -0.0 1.0 0.0
vn -0.0 1.0 0.0
vn 1.0 0.0 0.0
vn 1.0 0.0 0.0
vn 1.0 0.0 0.0
vn 1.0 0.0 0.0
vn -0.0 0.0 1.0
vn -0.0 0.0 1.0
vn -0.0 0.0 1.0
vn -0.0 0.0 1.0
vn -0.0 0.0 -1.0
vn -0.0 0.0 -1.0
vn -0.0 0.0 -1.0
vn -0.0 0.0 -1.0
vn -1.0 0.0 0.0
vn -1.0 0.0 0.0
vn -1.0 0.0 0.0
vn -1.0 0.0 0.0
vn -0.0 1.0 0.0
vn -0.0 1.0 0.0
vn -0.0 1.0 0.0
vn -0.0 1.0 0.0
vn 1.0 0.0 0.0
vn 1.0 0.0 0.0
vn 1.0 0.0 0.0
vn 1.0 0.0 0.0
vn -0.0 0.0 1.0
vn -0.0 0.0 1.0
vn -0.0 0.0 1.0
vn -0.0 0.0 1.0
vn -1.0 0.0 0.0
vn -1.0 0.0 0.0
vn -1.0 0.0 0.0
vn -1.0 0.0 0.0
vn 1.0 0.0 0.0
vn 1.0 0.0 0.0
vn 1.0 0.0 0.0
vn 1.0 0.0 0.0
vn -0.0 1.0 0.0
vn -0.0 1.0 0.0
vn -0.0 1.0 0.0
vn -0.0 1.0 0.0
vn -0.0 -1.0 0.0
vn -0.0 -1.0 0.0
vn -0.0 -1.0 0.0
vn -0.0 -1.0 0.0
vt 0.48298502 0.6278956
vt 0.4111662 0.70121086
vt 0.4111662 0.6278956
vt 0.48298502 0.70121086
vt 0.393886 0.5600302
vt 0.39184597 0.50043267
vt 0.393886 0.50043267
vt 0.39184597 0.5600302
vt 0.39612487 0.50043267
vt 0.39408487 0.5600302
vt 0.39408487 0.50043267
vt 0.39612487 0.5600302
vt 0.47878724 0.56095123
vt 0.4767472 0.5013536
vt 0.47878724 0.5013536
vt 0.4767472 0.56095123
vt 0.39963007 0.5178162
vt 0.3975901 0.5198562
vt 0.3975901 0.5178162
vt 0.39963007 0.5198562
vt 0.47665566 0.56095123
vt 0.47461566 0.5013537
vt 0.47665566 0.5013536
vt 0.47461566 0.56095123
vt 0.393886 0.5600302
vt 0.39184597 0.50043267
vt 0.393886 0.50043267
vt 0.39184597 0.5600302
vt 0.39612487 0.50043267
vt 0.39408487 0.5600302
vt 0.39408487 0.50043267
vt 0.39612487 0.5600302
vt 0.47878724 0.56095123
vt 0.4767472 0.5013536
vt 0.47878724 0.5013536
vt 0.4767472 0.56095123
vt 0.39963007 0.5178162
vt 0.3975901 0.5198562
vt 0.3975901 0.5178162
vt 0.39963007 0.5198562
vt 0.47665566 0.56095123
vt 0.47461566 0.5013537
vt 0.47665566 0.5013536
vt 0.47461566 0.56095123
vt 0.30600867 0.6418282
vt 0.2741352 0.6743657
vt 0.30600867 0.6743657
vt 0.2741352 0.6418282
vt 0.3051804 0.63833845
vt 0.30509692 0.65643704
vt 0.30509692 0.63833845
vt 0.3051804 0.65643704
vt 0.30008003 0.6294636
vt 0.29999655 0.64756227
vt 0.29999655 0.6294636
vt 0.30008003 0.64756227
vt 0.3012411 0.64725375
vt 0.30115762 0.6296488
vt 0.3012411 0.6296488
vt 0.30115762 0.64725375
vt 0.3051804 0.67416644
vt 0.30509692 0.65643704
vt 0.3051804 0.65643704
vt 0.30509692 0.67416644

g Sign_Safety
s 1
usemtl Sign_Safety
f 3/3/3 2/2/2 1/1/1 
f 4/4/4 1/1/1 2/2/2 
f 7/7/7 6/6/6 5/5/5 
f 8/8/8 5/5/5 6/6/6 
f 11/11/11 10/10/10 9/9/9 
f 12/12/12 9/9/9 10/10/10 
f 15/15/15 14/14/14 13/13/13 
f 16/16/16 13/13/13 14/14/14 
f 19/19/19 18/18/18 17/17/17 
f 20/20/20 17/17/17 18/18/18 
f 23/23/23 22/22/22 21/21/21 
f 24/24/24 21/21/21 22/22/22 
f 27/27/27 26/26/26 25/25/25 
f 28/28/28 25/25/25 26/26/26 
f 31/31/31 30/30/30 29/29/29 
f 32/32/32 29/29/29 30/30/30 
f 35/35/35 34/34/34 33/33/33 
f 36/36/36 33/33/33 34/34/34 
f 39/39/39 38/38/38 37/37/37 
f 40/40/40 37/37/37 38/38/38 
f 43/43/43 42/42/42 41/41/41 
f 44/44/44 41/41/41 42/42/42 
f 47/47/47 46/46/46 45/45/45 
f 48/48/48 45/45/45 46/46/46 
f 51/51/51 50/50/50 49/49/49 
f 52/52/52 49/49/49 50/50/50 
f 55/55/55 54/54/54 53/53/53 
f 56/56/56 53/53/53 54/54/54 
f 59/59/59 58/58/58 57/57/57 
f 60/60/60 57/57/57 58/58/58 
f 63/63/63 62/62/62 61/61/61 
f 64/64/64 61/61/61 62/62/62 

