# Created by DisUnity v0.3.4
v 1.7657351 1.1358236 -0.030000525
v -1.7656298 -0.5365423 -0.029999595
v 1.7657342 -0.5365422 -0.030000364
v -1.7656298 1.135824 -0.029999755
v -1.7656298 1.1358238 2.749137E-7
v 1.7657351 1.1358236 -0.030000525
v 1.7657351 1.1358236 -4.94382E-7
v -1.7656298 1.135824 -0.029999755
v -1.7656298 -0.5365423 -0.029999595
v -1.7656298 1.1358238 2.749137E-7
v -1.7656298 -0.5365423 4.3554883E-7
v -1.7656298 1.135824 -0.029999755
v 1.7657351 1.1358236 -4.94382E-7
v -1.7656298 -0.5365423 4.3554883E-7
v -1.7656298 1.1358238 2.749137E-7
v 1.7657342 -0.5365422 -3.3374658E-7
v 1.7657351 1.1358236 -0.030000525
v 1.7657342 -0.5365422 -3.3374658E-7
v 1.7657351 1.1358236 -4.94382E-7
v 1.7657342 -0.5365422 -0.030000364
v 1.7657342 -0.5365422 -3.3374658E-7
v -1.7656298 -0.5365423 -0.029999595
v -1.7656298 -0.5365423 4.3554883E-7
v 1.7657342 -0.5365422 -0.030000364
v -0.038755894 -0.47348142 -0.0052696303
v -7.367134E-4 0.8761051 0.06057945
v -7.367134E-4 -0.47348142 0.06057967
v -0.038755894 0.8761051 -0.0052698525
v 0.037279606 -0.47348142 -0.005269644
v -0.038755894 0.8761051 -0.0052698525
v -0.038755894 -0.47348142 -0.0052696303
v 0.0372777 0.8761051 -0.00526891
v -7.367134E-4 -0.47348142 0.06057967
v 0.0372777 0.8761051 -0.00526891
v 0.037279606 -0.47348142 -0.005269644
v -7.367134E-4 0.8761051 0.06057945
v -7.367134E-4 0.8761051 0.06057945
v -0.038755894 0.8761051 -0.0052698525
v 0.0372777 0.8761051 -0.00526891
v -0.038755894 -0.47348142 -0.0052696303
v -7.367134E-4 -0.47348142 0.06057967
v 0.037279606 -0.47348142 -0.005269644
vn -0.0 0.0 -1.0
vn -0.0 0.0 -1.0
vn -0.0 0.0 -1.0
vn -0.0 0.0 -1.0
vn -0.0 1.0 0.0
vn -0.0 1.0 0.0
vn -0.0 1.0 0.0
vn -0.0 1.0 0.0
vn -1.0 0.0 0.0
vn -1.0 0.0 0.0
vn -1.0 0.0 0.0
vn -1.0 0.0 0.0
vn -0.0 0.0 1.0
vn -0.0 0.0 1.0
vn -0.0 0.0 1.0
vn -0.0 0.0 1.0
vn 1.0 0.0 0.0
vn 1.0 0.0 0.0
vn 1.0 0.0 0.0
vn 1.0 0.0 0.0
vn -0.0 -1.0 0.0
vn -0.0 -1.0 0.0
vn -0.0 -1.0 0.0
vn -0.0 -1.0 0.0
vn -0.8660283 0.0 -0.49999496
vn 2.4361512E-5 0.0 1.0
vn 1.7040027E-5 0.0 1.0
vn -0.8660253 0.0 -0.5000001
vn 0.86602026 0.0 -0.50000894
vn -0.8660253 0.0 -0.5000001
vn -0.8660283 0.0 -0.49999496
vn 0.8660198 0.0 -0.5000097
vn 1.7040027E-5 0.0 1.0
vn 0.8660198 0.0 -0.5000097
vn 0.86602026 0.0 -0.50000894
vn 2.4361512E-5 0.0 1.0
vn -0.0 1.0 0.0
vn -0.0 1.0 0.0
vn -0.0 1.0 0.0
vn -0.0 -1.0 0.0
vn -0.0 -1.0 0.0
vn -0.0 -1.0 0.0
vt 0.3675852 0.72202396
vt 0.6104479 0.8370377
vt 0.36758524 0.8370377
vt 0.6104479 0.72202396
vt 0.9870303 0.030350745
vt 0.99513906 0.4595768
vt 0.9870303 0.4595768
vt 0.99513906 0.030350745
vt 0.97250444 0.25630605
vt 0.96439564 0.4595768
vt 0.96439564 0.25630593
vt 0.9725044 0.4595768
vt 0.6304591 0.36592543
vt 0.74773693 0.42146528
vt 0.74773693 0.36592543
vt 0.6304591 0.42146528
vt 0.96118706 0.1834653
vt 0.9530784 0.38673604
vt 0.9530784 0.1834653
vt 0.961187 0.38673604
vt 0.98308444 0.45928103
vt 0.9749894 0.030784667
vt 0.98308444 0.030784667
vt 0.9749894 0.45928103
vt 0.96734524 0.3346876
vt 0.9775264 0.20474994
vt 0.976792 0.334741
vt 0.96808624 0.20469666
vt 0.960258 0.33464706
vt 0.96808624 0.20469666
vt 0.96734524 0.3346876
vt 0.96100414 0.204656
vt 0.976792 0.334741
vt 0.9869685 0.20480311
vt 0.986233 0.33479422
vt 0.9775264 0.20474994
vt 0.9775264 0.20474994
vt 0.96808624 0.20469666
vt 0.9869685 0.20480311
vt 0.96734524 0.3346876
vt 0.976792 0.334741
vt 0.960258 0.33464706

g Sign_Hwy_02
s 1
usemtl Sign_Hwy_02
f 3/3/3 2/2/2 1/1/1 
f 4/4/4 1/1/1 2/2/2 
f 7/7/7 6/6/6 5/5/5 
f 8/8/8 5/5/5 6/6/6 
f 11/11/11 10/10/10 9/9/9 
f 12/12/12 9/9/9 10/10/10 
f 15/15/15 14/14/14 13/13/13 
f 16/16/16 13/13/13 14/14/14 
f 19/19/19 18/18/18 17/17/17 
f 20/20/20 17/17/17 18/18/18 
f 23/23/23 22/22/22 21/21/21 
f 24/24/24 21/21/21 22/22/22 
f 27/27/27 26/26/26 25/25/25 
f 28/28/28 25/25/25 26/26/26 
f 31/31/31 30/30/30 29/29/29 
f 32/32/32 29/29/29 30/30/30 
f 35/35/35 34/34/34 33/33/33 
f 36/36/36 33/33/33 34/34/34 
f 39/39/39 38/38/38 37/37/37 
f 42/42/42 41/41/41 40/40/40 

