# Created by DisUnity v0.3.4
v 0.013569819 3.3210716 -0.08145332
v -0.007675184 1.2602196 -0.08145332
v 1.0333681 2.3012657 -0.08145347
v -1.0274734 2.2800255 -0.08145316
v 0.05482865 0.012973785 0.0329628
v -0.045173638 2.9344292 0.032962814
v 0.05482865 2.9344292 0.0329628
v -0.045173638 0.012973785 0.032962814
v 0.054828636 0.012973785 -0.06703949
v -0.045173652 2.9344292 -0.067039475
v -0.045173652 0.012973785 -0.067039475
v 0.054828636 2.9344292 -0.06703949
v -0.045173638 0.012973785 0.032962814
v -0.045173652 2.9344292 -0.067039475
v -0.045173638 2.9344292 0.032962814
v -0.045173652 0.012973785 -0.067039475
v -0.045173638 2.9344292 0.032962814
v 0.054828636 2.9344292 -0.06703949
v 0.05482865 2.9344292 0.0329628
v -0.045173652 2.9344292 -0.067039475
v 0.05482865 2.9344292 0.0329628
v 0.054828636 0.012973785 -0.06703949
v 0.05482865 0.012973785 0.0329628
v 0.054828636 2.9344292 -0.06703949
v 0.013569821 3.3210716 -0.07466316
v -0.007675182 1.2602196 -0.07466316
v -1.0274734 2.2800255 -0.074663
v 1.0333681 2.3012657 -0.07466331
v 0.013569821 3.3210716 -0.07466316
v -1.0274734 2.2800255 -0.08145316
v 0.013569819 3.3210716 -0.08145332
v -1.0274734 2.2800255 -0.074663
v -0.007675182 1.2602196 -0.07466316
v 1.0333681 2.3012657 -0.08145347
v -0.007675184 1.2602196 -0.08145332
v 1.0333681 2.3012657 -0.07466331
v 0.013569821 3.3210716 -0.07466316
v 1.0333681 2.3012657 -0.08145347
v 1.0333681 2.3012657 -0.07466331
v 0.013569819 3.3210716 -0.08145332
v -0.007675182 1.2602196 -0.07466316
v -1.0274734 2.2800255 -0.08145316
v -1.0274734 2.2800255 -0.074663
v -0.007675184 1.2602196 -0.08145332
vn -0.0 0.0 -1.0
vn -0.0 0.0 -1.0
vn -0.0 0.0 -1.0
vn -0.0 0.0 -1.0
vn -0.0 0.0 1.0
vn -0.0 0.0 1.0
vn -0.0 0.0 1.0
vn -0.0 0.0 1.0
vn -0.0 0.0 -1.0
vn -0.0 0.0 -1.0
vn -0.0 0.0 -1.0
vn -0.0 0.0 -1.0
vn -1.0 0.0 0.0
vn -1.0 0.0 0.0
vn -1.0 0.0 0.0
vn -1.0 0.0 0.0
vn -0.0 1.0 0.0
vn -0.0 1.0 0.0
vn -0.0 1.0 0.0
vn -0.0 1.0 0.0
vn 1.0 0.0 0.0
vn 1.0 0.0 0.0
vn 1.0 0.0 0.0
vn 1.0 0.0 0.0
vn -0.0 0.0 1.0
vn -0.0 0.0 1.0
vn -0.0 0.0 1.0
vn -0.0 0.0 1.0
vn -0.7071078 0.70710576 0.0
vn -0.7071077 0.70710576 0.0
vn -0.7071077 0.70710576 0.0
vn -0.7071077 0.70710576 0.0
vn 0.7071077 -0.70710576 0.0
vn 0.7071078 -0.70710576 0.0
vn 0.7071077 -0.70710576 0.0
vn 0.7071077 -0.70710576 0.0
vn 0.7071094 0.70710415 0.0
vn 0.7071094 0.70710415 0.0
vn 0.70710933 0.70710415 0.0
vn 0.7071094 0.70710415 0.0
vn -0.7071094 -0.70710415 0.0
vn -0.7071094 -0.70710415 0.0
vn -0.7071094 -0.70710415 0.0
vn -0.7071094 -0.70710415 0.0
vt 0.27731317 0.11065918
vt 0.2292156 0.15858662
vt 0.2292156 0.1106593
vt 0.27731317 0.15858662
vt 0.393886 0.5600302
vt 0.39184597 0.50043267
vt 0.393886 0.50043267
vt 0.39184597 0.5600302
vt 0.39612487 0.50043267
vt 0.39408487 0.5600302
vt 0.39408487 0.50043267
vt 0.39612487 0.5600302
vt 0.47878724 0.56095123
vt 0.4767472 0.5013536
vt 0.47878724 0.5013536
vt 0.4767472 0.56095123
vt 0.39963007 0.5178162
vt 0.3975901 0.5198562
vt 0.3975901 0.5178162
vt 0.39963007 0.5198562
vt 0.47665566 0.56095123
vt 0.47461566 0.5013537
vt 0.47665566 0.5013536
vt 0.47461566 0.56095123
vt 0.30600867 0.6418282
vt 0.2741352 0.6743657
vt 0.30600867 0.6743657
vt 0.2741352 0.6418282
vt 0.28799123 0.6328126
vt 0.2877895 0.6765502
vt 0.2877895 0.6328126
vt 0.28799123 0.6765502
vt 0.2907056 0.63192695
vt 0.2905039 0.67566454
vt 0.2905039 0.63192695
vt 0.2907056 0.67566454
vt 0.2893484 0.67643666
vt 0.2891467 0.63359153
vt 0.2893484 0.63359153
vt 0.2891467 0.67643666
vt 0.28663403 0.6773223
vt 0.2864323 0.6344772
vt 0.28663403 0.6344772
vt 0.2864323 0.6773223

g Sign_Menatwork
s 1
usemtl Sign_Menatwork
f 3/3/3 2/2/2 1/1/1 
f 4/4/4 1/1/1 2/2/2 
f 7/7/7 6/6/6 5/5/5 
f 8/8/8 5/5/5 6/6/6 
f 11/11/11 10/10/10 9/9/9 
f 12/12/12 9/9/9 10/10/10 
f 15/15/15 14/14/14 13/13/13 
f 16/16/16 13/13/13 14/14/14 
f 19/19/19 18/18/18 17/17/17 
f 20/20/20 17/17/17 18/18/18 
f 23/23/23 22/22/22 21/21/21 
f 24/24/24 21/21/21 22/22/22 
f 27/27/27 26/26/26 25/25/25 
f 28/28/28 25/25/25 26/26/26 
f 31/31/31 30/30/30 29/29/29 
f 32/32/32 29/29/29 30/30/30 
f 35/35/35 34/34/34 33/33/33 
f 36/36/36 33/33/33 34/34/34 
f 39/39/39 38/38/38 37/37/37 
f 40/40/40 37/37/37 38/38/38 
f 43/43/43 42/42/42 41/41/41 
f 44/44/44 41/41/41 42/42/42 

