# Created by DisUnity v0.3.4
v -2.026558E-5 -2.4534971E-18 0.04006865
v 0.046256006 2.4384 -0.04008422
v 0.046256006 2.4544506E-18 -0.04008422
v -2.026558E-5 2.4384 0.04006865
v 0.046256006 2.4544506E-18 -0.04008422
v -0.046296537 2.4384 -0.040084183
v -0.046296537 2.4544484E-18 -0.040084183
v 0.046256006 2.4384 -0.04008422
v -0.046296537 2.4544484E-18 -0.040084183
v -2.026558E-5 2.4384 0.04006865
v -2.026558E-5 -2.4534971E-18 0.04006865
v -0.046296537 2.4384 -0.040084183
v -0.046296537 2.4384 -0.040084183
v 0.046256006 2.4384 -0.04008422
v -2.026558E-5 2.4384 0.04006865
v -0.22431242 1.710005 -0.049855344
v 0.0062959194 2.4703436 -0.0498555
v -0.1550256 2.4367363 -0.04985547
v 0.0062959194 1.6247097 -0.049855366
v -0.33387756 1.8225241 -0.049855344
v -0.31022894 2.4703436 -0.049855456
v 0.23690438 1.710005 -0.04985541
v 0.16761756 2.4367363 -0.049855523
v 0.34646964 1.8225241 -0.04985545
v 0.3228209 2.4703436 -0.049855545
v -0.44533646 2.2123926 -0.04985539
v -0.40207374 2.3481195 -0.04985541
v -0.4228177 1.9843147 -0.04985535
v 0.45792842 2.2123926 -0.049855523
v 0.4146657 2.3481195 -0.049855538
v 0.43540978 1.9843147 -0.049855478
v 0.0062959194 2.4703436 -0.03985547
v -0.22431242 1.710005 -0.03985531
v -0.1550256 2.4367363 -0.039855443
v 0.0062959194 1.6247097 -0.03985533
v -0.33387756 1.8225241 -0.039855313
v -0.31022894 2.4703436 -0.03985542
v -0.44533646 2.2123926 -0.039855354
v -0.4228177 1.9843147 -0.03985532
v 0.23690438 1.710005 -0.039855383
v 0.16761756 2.4367363 -0.039855488
v 0.34646964 1.8225241 -0.039855417
v 0.3228209 2.4703436 -0.039855517
v 0.45792842 2.2123926 -0.03985549
v 0.43540978 1.9843147 -0.03985545
v -0.40207374 2.3481195 -0.039855383
v 0.4146657 2.3481195 -0.039855506
v 0.0062959194 1.6247097 -0.03985533
v -0.22431242 1.710005 -0.049855344
v -0.22431242 1.710005 -0.03985531
v 0.0062959194 1.6247097 -0.049855366
v 0.23690438 1.710005 -0.039855383
v 0.23690438 1.710005 -0.04985541
v -0.22431242 1.710005 -0.03985531
v -0.33387756 1.8225241 -0.049855344
v -0.33387756 1.8225241 -0.039855313
v -0.22431242 1.710005 -0.049855344
v -0.4228177 1.9843147 -0.04985535
v -0.4228177 1.9843147 -0.03985532
v -0.44533646 2.2123926 -0.04985539
v -0.44533646 2.2123926 -0.039855354
v -0.40207374 2.3481195 -0.04985541
v -0.40207374 2.3481195 -0.039855383
v -0.31022894 2.4703436 -0.049855456
v -0.31022894 2.4703436 -0.03985542
v -0.1550256 2.4367363 -0.039855443
v 0.0062959194 2.4703436 -0.0498555
v 0.0062959194 2.4703436 -0.03985547
v -0.1550256 2.4367363 -0.04985547
v -0.31022894 2.4703436 -0.03985542
v -0.31022894 2.4703436 -0.049855456
v 0.16761756 2.4367363 -0.049855523
v 0.16761756 2.4367363 -0.039855488
v 0.3228209 2.4703436 -0.049855545
v 0.3228209 2.4703436 -0.039855517
v 0.34646964 1.8225241 -0.039855417
v 0.23690438 1.710005 -0.04985541
v 0.23690438 1.710005 -0.039855383
v 0.34646964 1.8225241 -0.04985545
v 0.43540978 1.9843147 -0.03985545
v 0.43540978 1.9843147 -0.049855478
v 0.45792842 2.2123926 -0.03985549
v 0.45792842 2.2123926 -0.049855523
v 0.4146657 2.3481195 -0.039855506
v 0.4146657 2.3481195 -0.049855538
v 0.3228209 2.4703436 -0.039855517
v 0.4146657 2.3481195 -0.049855538
v 0.4146657 2.3481195 -0.039855506
v 0.3228209 2.4703436 -0.049855545
vn 0.8660255 0.0 0.4999999
vn 0.8660255 0.0 0.4999999
vn 0.8660255 0.0 0.4999999
vn 0.8660255 0.0 0.4999999
vn -0.0 0.0 -1.0
vn -0.0 0.0 -1.0
vn -0.0 0.0 -1.0
vn -0.0 0.0 -1.0
vn -0.8660253 0.0 0.50000006
vn -0.8660253 0.0 0.50000006
vn -0.8660253 0.0 0.5000001
vn -0.8660253 0.0 0.5000001
vn -0.0 1.0 0.0
vn -0.0 1.0 0.0
vn -0.0 1.0 0.0
vn -0.0 0.0 -1.0
vn -0.0 0.0 -1.0
vn -0.0 0.0 -1.0
vn -0.0 0.0 -1.0
vn -0.0 0.0 -1.0
vn -0.0 0.0 -1.0
vn -0.0 0.0 -1.0
vn -0.0 0.0 -1.0
vn -0.0 0.0 -1.0
vn -0.0 0.0 -1.0
vn -0.0 0.0 -1.0
vn -0.0 0.0 -1.0
vn -0.0 0.0 -1.0
vn -0.0 0.0 -1.0
vn -0.0 0.0 -1.0
vn -0.0 0.0 -1.0
vn -0.0 0.0 1.0
vn -0.0 0.0 1.0
vn -0.0 0.0 1.0
vn -0.0 0.0 1.0
vn -0.0 0.0 1.0
vn -0.0 0.0 1.0
vn -0.0 0.0 1.0
vn -0.0 0.0 1.0
vn -0.0 0.0 1.0
vn -0.0 0.0 1.0
vn -0.0 0.0 1.0
vn -0.0 0.0 1.0
vn -0.0 0.0 1.0
vn -0.0 0.0 1.0
vn -0.0 0.0 1.0
vn -0.0 0.0 1.0
vn -0.0 -1.0 0.0
vn -0.5450783 -0.83838516 0.0
vn -0.54507804 -0.83838534 0.0
vn -0.0 -1.0 0.0
vn 0.545078 -0.83838546 0.0
vn 0.54507786 -0.83838546 0.0
vn -0.54507804 -0.83838534 0.0
vn -0.8036668 -0.5950795 0.0
vn -0.8036668 -0.5950795 0.0
vn -0.5450783 -0.83838516 0.0
vn -0.955182 -0.2960193 0.0
vn -0.955182 -0.29601914 0.0
vn -0.9944846 0.10488329 0.0
vn -0.9944846 0.10488335 0.0
vn -0.8886073 0.45866877 0.0
vn -0.88860726 0.45866877 0.0
vn -0.7994448 0.6007395 0.0
vn -0.7994448 0.6007395 0.0
vn 0.0039287372 0.9999924 0.0
vn -0.0 1.0 0.0
vn -0.0 1.0 0.0
vn 0.003928799 0.9999924 0.0
vn 0.21163218 0.97734934 0.0
vn 0.21163218 0.97734934 0.0
vn -0.003928815 0.9999924 0.0
vn -0.003928884 0.9999924 0.0
vn -0.21163212 0.97734934 0.0
vn -0.21163213 0.97734934 0.0
vn 0.80366665 -0.59507984 0.0
vn 0.54507786 -0.83838546 0.0
vn 0.545078 -0.83838546 0.0
vn 0.80366665 -0.5950798 0.0
vn 0.955182 -0.29601908 0.0
vn 0.955182 -0.29601908 0.0
vn 0.9944845 0.10488368 0.0
vn 0.9944845 0.104883626 0.0
vn 0.8886073 0.45866877 0.0
vn 0.8886073 0.45866877 0.0
vn 0.7994448 0.60073954 0.0
vn 0.8886073 0.45866877 0.0
vn 0.8886073 0.45866877 0.0
vn 0.7994448 0.60073954 0.0
vt 0.9377397 0.46612555
vt 0.95303875 0.026908457
vt 0.9521796 0.46612555
vt 0.9377397 0.026877522
vt 0.9369194 0.46612555
vt 0.95272964 0.027444363
vt 0.9535889 0.46672314
vt 0.93777853 0.026908457
vt 0.9388055 0.46672314
vt 0.95324534 0.027475238
vt 0.9532454 0.46672314
vt 0.93794626 0.027444363
vt 0.971328 0.027444363
vt 0.9563769 0.026908457
vt 0.96426314 0.015718937
vt 0.094260626 0.82844687
vt 0.06298133 0.71936023
vt 0.084862724 0.724182
vt 0.06298133 0.8406843
vt 0.10912183 0.8123036
vt 0.10591423 0.71936023
vt 0.031701997 0.82844687
vt 0.041099977 0.724182
vt 0.016840784 0.8123036
vt 0.020048453 0.71936023
vt 0.12423995 0.7563688
vt 0.11837189 0.7368959
vt 0.12118557 0.7890914
vt 0.0017226839 0.7563688
vt 0.0075907777 0.7368959
vt 0.004777096 0.78909135
vt 0.68905234 0.35201812
vt 0.6591579 0.4505828
vt 0.66813976 0.35637468
vt 0.68905234 0.46163982
vt 0.6449547 0.4359966
vt 0.6480204 0.35201812
vt 0.63050604 0.38545698
vt 0.6334252 0.41502333
vt 0.7189467 0.4505828
vt 0.7099649 0.35637468
vt 0.7331499 0.4359966
vt 0.7300843 0.35201812
vt 0.74759865 0.38545698
vt 0.7446795 0.41502333
vt 0.63611424 0.36786228
vt 0.7419903 0.36786228
vt 0.6676047 0.37599313
vt 0.63771033 0.3782094
vt 0.63771033 0.37599313
vt 0.6676047 0.3782094
vt 0.69749904 0.37599313
vt 0.69749904 0.3782094
vt 0.736275 0.38741952
vt 0.72168887 0.3896358
vt 0.72168887 0.38741952
vt 0.736275 0.3896358
vt 0.70071554 0.3896358
vt 0.70071554 0.38741952
vt 0.67114913 0.3896358
vt 0.67114913 0.38741952
vt 0.65355456 0.3896358
vt 0.65355456 0.38741952
vt 0.63771033 0.3896358
vt 0.63771033 0.38741952
vt 0.6996548 0.38170642
vt 0.6787423 0.38392258
vt 0.6787423 0.38170642
vt 0.6996548 0.38392258
vt 0.71977425 0.38170642
vt 0.71977425 0.38392258
vt 0.6578297 0.38392258
vt 0.6578297 0.38170642
vt 0.63771033 0.38392258
vt 0.63771033 0.38170642
vt 0.6522964 0.39313275
vt 0.63771033 0.39534897
vt 0.63771033 0.39313275
vt 0.6522964 0.39534897
vt 0.6732698 0.39313275
vt 0.6732698 0.39534897
vt 0.70283616 0.39313275
vt 0.70283616 0.39534897
vt 0.72043073 0.39313275
vt 0.72043073 0.39534897
vt 0.736275 0.39313275
vt 0.72043073 0.39534897
vt 0.72043073 0.39313275
vt 0.736275 0.39534897

g Sign_Interstate66
s 1
usemtl Sign_Interstate66
f 3/3/3 2/2/2 1/1/1 
f 4/4/4 1/1/1 2/2/2 
f 7/7/7 6/6/6 5/5/5 
f 8/8/8 5/5/5 6/6/6 
f 11/11/11 10/10/10 9/9/9 
f 12/12/12 9/9/9 10/10/10 
f 15/15/15 14/14/14 13/13/13 
f 18/18/18 17/17/17 16/16/16 
f 19/19/19 16/16/16 17/17/17 
f 16/16/16 20/20/20 18/18/18 
f 21/21/21 18/18/18 20/20/20 
f 19/19/19 17/17/17 22/22/22 
f 23/23/23 22/22/22 17/17/17 
f 22/22/22 23/23/23 24/24/24 
f 25/25/25 24/24/24 23/23/23 
f 21/21/21 20/20/20 26/26/26 
f 21/21/21 26/26/26 27/27/27 
f 28/28/28 26/26/26 20/20/20 
f 25/25/25 29/29/29 24/24/24 
f 29/29/29 25/25/25 30/30/30 
f 31/31/31 24/24/24 29/29/29 
f 34/34/34 33/33/33 32/32/32 
f 35/35/35 32/32/32 33/33/33 
f 33/33/33 34/34/34 36/36/36 
f 37/37/37 36/36/36 34/34/34 
f 37/37/37 38/38/38 36/36/36 
f 39/39/39 36/36/36 38/38/38 
f 35/35/35 40/40/40 32/32/32 
f 41/41/41 32/32/32 40/40/40 
f 40/40/40 42/42/42 41/41/41 
f 43/43/43 41/41/41 42/42/42 
f 43/43/43 42/42/42 44/44/44 
f 45/45/45 44/44/44 42/42/42 
f 46/46/46 38/38/38 37/37/37 
f 47/47/47 43/43/43 44/44/44 
f 50/50/50 49/49/49 48/48/48 
f 51/51/51 48/48/48 49/49/49 
f 48/48/48 51/51/51 52/52/52 
f 53/53/53 52/52/52 51/51/51 
f 56/56/56 55/55/55 54/54/54 
f 57/57/57 54/54/54 55/55/55 
f 55/55/55 56/56/56 58/58/58 
f 59/59/59 58/58/58 56/56/56 
f 58/58/58 59/59/59 60/60/60 
f 59/59/59 61/61/61 60/60/60 
f 60/60/60 61/61/61 62/62/62 
f 61/61/61 63/63/63 62/62/62 
f 62/62/62 63/63/63 64/64/64 
f 65/65/65 64/64/64 63/63/63 
f 68/68/68 67/67/67 66/66/66 
f 69/69/69 66/66/66 67/67/67 
f 66/66/66 69/69/69 70/70/70 
f 71/71/71 70/70/70 69/69/69 
f 67/67/67 68/68/68 72/72/72 
f 73/73/73 72/72/72 68/68/68 
f 72/72/72 73/73/73 74/74/74 
f 75/75/75 74/74/74 73/73/73 
f 78/78/78 77/77/77 76/76/76 
f 79/79/79 76/76/76 77/77/77 
f 76/76/76 79/79/79 80/80/80 
f 81/81/81 80/80/80 79/79/79 
f 80/80/80 81/81/81 82/82/82 
f 82/82/82 81/81/81 83/83/83 
f 84/84/84 82/82/82 83/83/83 
f 85/85/85 84/84/84 83/83/83 
f 88/88/88 87/87/87 86/86/86 
f 89/89/89 86/86/86 87/87/87 

