# Created by DisUnity v0.3.4
v -2.5629997E-5 -1.3906225E-18 0.02271059
v 0.026203394 1.3820584 -0.022719178
v 0.026203394 1.3911484E-18 -0.022719178
v -2.5629997E-5 1.3820584 0.02271059
v 0.026203394 1.3911484E-18 -0.022719178
v -0.026254535 1.3820584 -0.022719158
v -0.026254535 1.3911472E-18 -0.022719158
v 0.026203394 1.3820584 -0.022719178
v -0.026254535 1.3911472E-18 -0.022719158
v -2.5629997E-5 1.3820584 0.02271059
v -2.5629997E-5 -1.3906225E-18 0.02271059
v -0.026254535 1.3820584 -0.022719158
v -0.026254535 1.3820584 -0.022719158
v 0.026203394 1.3820584 -0.022719178
v -2.5629997E-5 1.3820584 0.02271059
v -0.15352702 1.4208758 -0.043210015
v 0.16640294 1.0992974 -0.043210167
v 0.16640306 1.4208758 -0.04321016
v -0.15352714 1.0992974 -0.04321003
v 0.16640294 1.0992974 -0.033210162
v -0.15352702 1.4208758 -0.033210017
v 0.16640306 1.4208758 -0.033210155
v -0.15352714 1.0992974 -0.033210024
v 0.16640294 1.0992974 -0.033210162
v -0.15352714 1.0992974 -0.04321003
v -0.15352714 1.0992974 -0.033210024
v 0.16640294 1.0992974 -0.043210167
v -0.15352714 1.0992974 -0.033210024
v -0.15352702 1.4208758 -0.043210015
v -0.15352702 1.4208758 -0.033210017
v -0.15352714 1.0992974 -0.04321003
v -0.15352702 1.4208758 -0.033210017
v 0.16640306 1.4208758 -0.04321016
v 0.16640306 1.4208758 -0.033210155
v -0.15352702 1.4208758 -0.043210015
v 0.16640306 1.4208758 -0.033210155
v 0.16640294 1.0992974 -0.043210167
v 0.16640294 1.0992974 -0.033210162
v 0.16640306 1.4208758 -0.04321016
vn 0.86602426 0.0 0.50000197
vn 0.86602426 0.0 0.50000197
vn 0.86602426 0.0 0.50000197
vn 0.86602426 0.0 0.50000197
vn -0.0 0.0 -1.0
vn -0.0 0.0 -1.0
vn -0.0 0.0 -1.0
vn -0.0 0.0 -1.0
vn -0.86602527 0.0 0.5000004
vn -0.86602527 0.0 0.50000036
vn -0.86602527 0.0 0.5000004
vn -0.86602527 0.0 0.5000004
vn -0.0 1.0 0.0
vn -0.0 1.0 0.0
vn -0.0 1.0 0.0
vn -0.0 0.0 -1.0
vn -0.0 0.0 -1.0
vn -0.0 0.0 -1.0
vn -0.0 0.0 -1.0
vn -0.0 0.0 1.0
vn -0.0 0.0 1.0
vn -0.0 0.0 1.0
vn -0.0 0.0 1.0
vn -0.0 -1.0 0.0
vn -0.0 -1.0 0.0
vn -0.0 -1.0 0.0
vn -0.0 -1.0 0.0
vn -1.0 0.0 0.0
vn -1.0 0.0 0.0
vn -1.0 0.0 0.0
vn -1.0 0.0 0.0
vn -0.0 1.0 0.0
vn -0.0 1.0 0.0
vn -0.0 1.0 0.0
vn -0.0 1.0 0.0
vn 1.0 0.0 0.0
vn 1.0 0.0 0.0
vn 1.0 0.0 0.0
vn 1.0 0.0 0.0
vt 0.960217 0.46612555
vt 0.9755161 0.026908457
vt 0.97465694 0.46612555
vt 0.960217 0.026877522
vt 0.9593967 0.46612555
vt 0.975207 0.027444363
vt 0.97606623 0.46672314
vt 0.96025586 0.026908457
vt 0.96128285 0.46672314
vt 0.9757227 0.027475238
vt 0.97572273 0.46672314
vt 0.9604236 0.027444363
vt 0.971328 0.027444363
vt 0.9563769 0.026908457
vt 0.96426314 0.015718937
vt 0.40624458 0.46656823
vt 0.46764016 0.40485632
vt 0.46764016 0.46656823
vt 0.40624458 0.40485632
vt 0.7433858 0.45534658
vt 0.700549 0.4122892
vt 0.7433858 0.4122892
vt 0.700549 0.45534658
vt 0.7433858 0.45534658
vt 0.700549 0.4576357
vt 0.700549 0.45534658
vt 0.7433858 0.4576357
vt 0.700549 0.45534658
vt 0.69825995 0.4122892
vt 0.700549 0.4122892
vt 0.69825995 0.45534658
vt 0.7433858 0.36945248
vt 0.74567485 0.4122892
vt 0.7433858 0.4122892
vt 0.74567485 0.36945248
vt 0.7433858 0.4122892
vt 0.74567485 0.45534658
vt 0.7433858 0.45534658
vt 0.74567485 0.4122892

g Sign_ChevronLeft
s 1
usemtl Sign_ChevronLeft
f 3/3/3 2/2/2 1/1/1 
f 4/4/4 1/1/1 2/2/2 
f 7/7/7 6/6/6 5/5/5 
f 8/8/8 5/5/5 6/6/6 
f 11/11/11 10/10/10 9/9/9 
f 12/12/12 9/9/9 10/10/10 
f 15/15/15 14/14/14 13/13/13 
f 18/18/18 17/17/17 16/16/16 
f 19/19/19 16/16/16 17/17/17 
f 22/22/22 21/21/21 20/20/20 
f 23/23/23 20/20/20 21/21/21 
f 26/26/26 25/25/25 24/24/24 
f 27/27/27 24/24/24 25/25/25 
f 30/30/30 29/29/29 28/28/28 
f 31/31/31 28/28/28 29/29/29 
f 34/34/34 33/33/33 32/32/32 
f 35/35/35 32/32/32 33/33/33 
f 38/38/38 37/37/37 36/36/36 
f 39/39/39 36/36/36 37/37/37 

