# Created by DisUnity v0.3.4
v -2.026558E-5 -2.4534971E-18 0.04006865
v 0.046256006 2.4384 -0.04008422
v 0.046256006 2.4544506E-18 -0.04008422
v -2.026558E-5 2.4384 0.04006865
v 0.046256006 2.4544506E-18 -0.04008422
v -0.046296537 2.4384 -0.040084183
v -0.046296537 2.4544484E-18 -0.040084183
v 0.046256006 2.4384 -0.04008422
v -0.046296537 2.4544484E-18 -0.040084183
v -2.026558E-5 2.4384 0.04006865
v -2.026558E-5 -2.4534971E-18 0.04006865
v -0.046296537 2.4384 -0.040084183
v -0.046296537 2.4384 -0.040084183
v 0.046256006 2.4384 -0.04008422
v -2.026558E-5 2.4384 0.04006865
v -0.24136591 2.4954925 -0.056050837
v 0.26168394 1.8573018 -0.056050994
v 0.26168394 2.4954925 -0.056050994
v -0.24136603 1.8573018 -0.056050837
v 0.26168394 1.8573018 -0.046050996
v -0.24136591 2.4954925 -0.04605084
v 0.26168394 2.4954925 -0.046050996
v -0.24136603 1.8573018 -0.04605084
v 0.26168394 1.8573018 -0.046050996
v -0.24136603 1.8573018 -0.056050837
v -0.24136603 1.8573018 -0.04605084
v 0.26168394 1.8573018 -0.056050994
v -0.24136603 1.8573018 -0.04605084
v -0.24136591 2.4954925 -0.056050837
v -0.24136591 2.4954925 -0.04605084
v -0.24136603 1.8573018 -0.056050837
v -0.24136591 2.4954925 -0.04605084
v 0.26168394 2.4954925 -0.056050994
v 0.26168394 2.4954925 -0.046050996
v -0.24136591 2.4954925 -0.056050837
v 0.26168394 2.4954925 -0.046050996
v 0.26168394 1.8573018 -0.056050994
v 0.26168394 1.8573018 -0.046050996
v 0.26168394 2.4954925 -0.056050994
vn 0.8660255 0.0 0.4999999
vn 0.8660255 0.0 0.4999999
vn 0.8660255 0.0 0.4999999
vn 0.8660255 0.0 0.4999999
vn -0.0 0.0 -1.0
vn -0.0 0.0 -1.0
vn -0.0 0.0 -1.0
vn -0.0 0.0 -1.0
vn -0.8660253 0.0 0.50000006
vn -0.8660253 0.0 0.50000006
vn -0.8660253 0.0 0.5000001
vn -0.8660253 0.0 0.5000001
vn -0.0 1.0 0.0
vn -0.0 1.0 0.0
vn -0.0 1.0 0.0
vn -0.0 0.0 -1.0
vn -0.0 0.0 -1.0
vn -0.0 0.0 -1.0
vn -0.0 0.0 -1.0
vn -0.0 0.0 1.0
vn -0.0 0.0 1.0
vn -0.0 0.0 1.0
vn -0.0 0.0 1.0
vn -0.0 -1.0 0.0
vn -0.0 -1.0 0.0
vn -0.0 -1.0 0.0
vn -0.0 -1.0 0.0
vn -1.0 0.0 0.0
vn -1.0 0.0 0.0
vn -1.0 0.0 0.0
vn -1.0 0.0 0.0
vn -0.0 1.0 0.0
vn -0.0 1.0 0.0
vn -0.0 1.0 0.0
vn -0.0 1.0 0.0
vn 1.0 0.0 0.0
vn 1.0 0.0 0.0
vn 1.0 0.0 0.0
vn 1.0 0.0 0.0
vt 0.9377397 0.46612555
vt 0.95303875 0.026908457
vt 0.9521796 0.46612555
vt 0.9377397 0.026877522
vt 0.9369194 0.46612555
vt 0.95272964 0.027444363
vt 0.9535889 0.46672314
vt 0.93777853 0.026908457
vt 0.9388055 0.46672314
vt 0.95324534 0.027475238
vt 0.9532454 0.46672314
vt 0.93794626 0.027444363
vt 0.971328 0.027444363
vt 0.9563769 0.026908457
vt 0.96426314 0.015718937
vt 0.5290758 0.56323224
vt 0.406605 0.46669537
vt 0.5290758 0.46669537
vt 0.406605 0.56323224
vt 0.630613 0.44735503
vt 0.74472696 0.35740536
vt 0.74472696 0.44735503
vt 0.630613 0.35740536
vt 0.630613 0.44735503
vt 0.627556 0.35740536
vt 0.630613 0.35740536
vt 0.627556 0.44735503
vt 0.630613 0.35740536
vt 0.74472696 0.35434848
vt 0.74472696 0.35740536
vt 0.630613 0.35434848
vt 0.74472696 0.35740536
vt 0.7477839 0.44735503
vt 0.74472696 0.44735503
vt 0.7477839 0.35740536
vt 0.74472696 0.44735503
vt 0.630613 0.45041192
vt 0.630613 0.44735503
vt 0.74472696 0.45041192

g Sign_StopLine
s 1
usemtl Sign_StopLine
f 3/3/3 2/2/2 1/1/1 
f 4/4/4 1/1/1 2/2/2 
f 7/7/7 6/6/6 5/5/5 
f 8/8/8 5/5/5 6/6/6 
f 11/11/11 10/10/10 9/9/9 
f 12/12/12 9/9/9 10/10/10 
f 15/15/15 14/14/14 13/13/13 
f 18/18/18 17/17/17 16/16/16 
f 19/19/19 16/16/16 17/17/17 
f 22/22/22 21/21/21 20/20/20 
f 23/23/23 20/20/20 21/21/21 
f 26/26/26 25/25/25 24/24/24 
f 27/27/27 24/24/24 25/25/25 
f 30/30/30 29/29/29 28/28/28 
f 31/31/31 28/28/28 29/29/29 
f 34/34/34 33/33/33 32/32/32 
f 35/35/35 32/32/32 33/33/33 
f 38/38/38 37/37/37 36/36/36 
f 39/39/39 36/36/36 37/37/37 

