# Created by DisUnity v0.3.4
v 3.6001205E-5 -2.453513E-18 0.04006891
v 0.046312332 2.4384 -0.04008396
v 0.046312332 2.4544347E-18 -0.04008396
v 3.6001205E-5 2.4384 0.04006891
v 0.046312332 2.4544347E-18 -0.04008396
v -0.04624033 2.4384 -0.040083922
v -0.04624033 2.4544324E-18 -0.040083922
v 0.046312332 2.4384 -0.04008396
v -0.04624033 2.4544324E-18 -0.040083922
v 3.6001205E-5 2.4384 0.04006891
v 3.6001205E-5 -2.453513E-18 0.04006891
v -0.04624033 2.4384 -0.040083922
v -0.04624033 2.4384 -0.040083922
v 0.046312332 2.4384 -0.04008396
v 3.6001205E-5 2.4384 0.04006891
v 0.47026634 2.3692532 -0.08598854
v -0.057701826 1.6849318 -0.08598842
v 0.055372477 1.6841619 -0.08598844
v -0.505599 2.3820267 -0.08598834
v -0.50520444 2.4399624 -0.08598834
v 0.47084785 2.45466 -0.085988544
v 0.41795778 2.497703 -0.08598854
v -0.46524477 2.503717 -0.08598836
v -0.057701826 1.6849318 -0.07598842
v 0.47026634 2.3692532 -0.07598854
v 0.055372477 1.6841619 -0.07598844
v -0.505599 2.3820267 -0.075988345
v -0.50520444 2.4399624 -0.075988345
v 0.47084785 2.45466 -0.07598854
v 0.41795778 2.497703 -0.07598853
v -0.46524477 2.503717 -0.07598836
v -0.057701826 1.6849318 -0.07598842
v -0.505599 2.3820267 -0.08598834
v -0.505599 2.3820267 -0.075988345
v -0.057701826 1.6849318 -0.08598842
v 0.47026634 2.3692532 -0.07598854
v 0.055372477 1.6841619 -0.08598844
v 0.055372477 1.6841619 -0.07598844
v 0.47026634 2.3692532 -0.08598854
v 0.47084785 2.45466 -0.07598854
v 0.47084785 2.45466 -0.085988544
v 0.055372477 1.6841619 -0.07598844
v -0.057701826 1.6849318 -0.08598842
v -0.057701826 1.6849318 -0.07598842
v 0.055372477 1.6841619 -0.08598844
v -0.505599 2.3820267 -0.075988345
v -0.50520444 2.4399624 -0.08598834
v -0.50520444 2.4399624 -0.075988345
v -0.505599 2.3820267 -0.08598834
v -0.50520444 2.4399624 -0.075988345
v -0.46524477 2.503717 -0.08598836
v -0.46524477 2.503717 -0.07598836
v -0.50520444 2.4399624 -0.08598834
v -0.46524477 2.503717 -0.07598836
v 0.41795778 2.497703 -0.08598854
v 0.41795778 2.497703 -0.07598853
v -0.46524477 2.503717 -0.08598836
v 0.41795778 2.497703 -0.07598853
v 0.47084785 2.45466 -0.085988544
v 0.47084785 2.45466 -0.07598854
v 0.41795778 2.497703 -0.08598854
vn 0.86602515 0.0 0.5000004
vn 0.86602527 0.0 0.5000004
vn 0.86602527 0.0 0.5000004
vn 0.86602527 0.0 0.5000004
vn -0.0 0.0 -1.0
vn -0.0 0.0 -1.0
vn -0.0 0.0 -1.0
vn -0.0 0.0 -1.0
vn -0.8660251 0.0 0.5000006
vn -0.8660251 0.0 0.5000006
vn -0.8660251 0.0 0.5000006
vn -0.8660251 0.0 0.5000006
vn -0.0 1.0 0.0
vn -0.0 1.0 0.0
vn -0.0 1.0 0.0
vn -0.0 0.0 -1.0
vn -0.0 0.0 -1.0
vn -0.0 0.0 -1.0
vn -0.0 0.0 -1.0
vn -0.0 0.0 -1.0
vn -0.0 0.0 -1.0
vn -0.0 0.0 -1.0
vn -0.0 0.0 -1.0
vn -0.0 0.0 1.0
vn -0.0 0.0 1.0
vn -0.0 0.0 1.0
vn -0.0 0.0 1.0
vn -0.0 0.0 1.0
vn -0.0 0.0 1.0
vn -0.0 0.0 1.0
vn -0.0 0.0 1.0
vn -0.8413076 -0.5405567 0.0
vn -0.9604607 -0.27841574 0.0
vn -0.9604607 -0.27841547 0.0
vn -0.8413076 -0.5405567 0.0
vn 0.96224374 -0.2721895 0.0
vn 0.855371 -0.5180159 0.0
vn 0.855371 -0.5180159 0.0
vn 0.9622433 -0.27219084 0.0
vn 0.9999769 -0.0068084695 0.0
vn 0.9999769 -0.00680847 0.0
vn -0.006808229 -0.9999769 0.0
vn -0.006808229 -0.9999769 0.0
vn -0.0068082297 -0.9999769 0.0
vn -0.0068082297 -0.9999769 0.0
vn -0.9604607 -0.27841547 0.0
vn -0.9601264 0.27956602 0.0
vn -0.9601264 0.27956602 0.0
vn -0.9604607 -0.27841574 0.0
vn -0.9601264 0.27956602 0.0
vn -0.8473222 0.5310791 0.0
vn -0.84732217 0.5310792 0.0
vn -0.9601264 0.27956602 0.0
vn 0.006809006 0.9999769 0.0
vn 0.33815897 0.9410889 0.0
vn 0.33815986 0.94108874 0.0
vn 0.0068090055 0.9999769 0.0
vn 0.33815986 0.94108874 0.0
vn 0.63121045 0.77561164 0.0
vn 0.63121045 0.77561164 0.0
vn 0.33815897 0.9410889 0.0
vt 0.9377397 0.46612555
vt 0.95303875 0.026908457
vt 0.9521796 0.46612555
vt 0.9377397 0.026877522
vt 0.9369194 0.46612555
vt 0.95272964 0.027444363
vt 0.9535889 0.46672314
vt 0.93777853 0.026908457
vt 0.9388055 0.46672314
vt 0.95324534 0.027475238
vt 0.9532454 0.46672314
vt 0.93794626 0.027444363
vt 0.971328 0.027444363
vt 0.9563769 0.026908457
vt 0.96426314 0.015718937
vt 0.43791205 0.21283847
vt 0.5392308 0.34416193
vt 0.51753145 0.34430957
vt 0.6251837 0.21038723
vt 0.625108 0.19926912
vt 0.43780047 0.19644856
vt 0.44795024 0.18818843
vt 0.6174396 0.18703443
vt 0.6927796 0.45789832
vt 0.62739295 0.37314802
vt 0.6787758 0.45799357
vt 0.7482497 0.37156606
vt 0.7482009 0.36439097
vt 0.62732095 0.3625707
vt 0.6338712 0.35724008
vt 0.74325204 0.35649526
vt 0.9632646 1.3089675
vt 0.9574183 1.0256219
vt 0.9632646 1.0256219
vt 0.9574183 1.3089675
vt 0.9952885 1.278008
vt 0.9894421 1.0041198
vt 0.9952885 1.0041198
vt 0.9894421 1.278008
vt 0.9952885 1.3072146
vt 0.9894421 1.3072146
vt 0.9632646 1.3476357
vt 0.9574183 1.3089675
vt 0.9632646 1.3089675
vt 0.9574183 1.3476357
vt 0.97794217 1.3551997
vt 0.9720959 1.3353872
vt 0.97794217 1.3353872
vt 0.9720959 1.3551997
vt 0.97794217 1.3353872
vt 0.9720959 1.3096572
vt 0.97794217 1.3096572
vt 0.9720959 1.3353872
vt 0.97794217 1.3096572
vt 0.9720959 1.0076274
vt 0.9779423 1.0076274
vt 0.9720959 1.3096572
vt 0.9952885 1.3305336
vt 0.9894421 1.3072146
vt 0.9952885 1.3072146
vt 0.9894421 1.3305336

g Sign_Yield
s 1
usemtl Sign_Yield
f 3/3/3 2/2/2 1/1/1 
f 4/4/4 1/1/1 2/2/2 
f 7/7/7 6/6/6 5/5/5 
f 8/8/8 5/5/5 6/6/6 
f 11/11/11 10/10/10 9/9/9 
f 12/12/12 9/9/9 10/10/10 
f 15/15/15 14/14/14 13/13/13 
f 18/18/18 17/17/17 16/16/16 
f 19/19/19 16/16/16 17/17/17 
f 19/19/19 20/20/20 16/16/16 
f 21/21/21 16/16/16 20/20/20 
f 21/21/21 20/20/20 22/22/22 
f 23/23/23 22/22/22 20/20/20 
f 26/26/26 25/25/25 24/24/24 
f 27/27/27 24/24/24 25/25/25 
f 27/27/27 25/25/25 28/28/28 
f 29/29/29 28/28/28 25/25/25 
f 29/29/29 30/30/30 28/28/28 
f 31/31/31 28/28/28 30/30/30 
f 34/34/34 33/33/33 32/32/32 
f 35/35/35 32/32/32 33/33/33 
f 38/38/38 37/37/37 36/36/36 
f 39/39/39 36/36/36 37/37/37 
f 36/36/36 39/39/39 40/40/40 
f 41/41/41 40/40/40 39/39/39 
f 44/44/44 43/43/43 42/42/42 
f 45/45/45 42/42/42 43/43/43 
f 48/48/48 47/47/47 46/46/46 
f 49/49/49 46/46/46 47/47/47 
f 52/52/52 51/51/51 50/50/50 
f 53/53/53 50/50/50 51/51/51 
f 56/56/56 55/55/55 54/54/54 
f 57/57/57 54/54/54 55/55/55 
f 60/60/60 59/59/59 58/58/58 
f 61/61/61 58/58/58 59/59/59 

