# Created by DisUnity v0.3.4
v 1.6774202E-8 -3.2719646E-18 0.053435236
v 0.046276264 2.4384 -0.026717637
v 0.046276264 1.6359834E-18 -0.026717637
v 1.6774202E-8 2.4384 0.053435236
v 0.046276264 1.6359834E-18 -0.026717637
v -0.046276283 2.4384 -0.026717598
v -0.046276283 1.6359811E-18 -0.026717598
v 0.046276264 2.4384 -0.026717637
v -0.046276283 1.6359811E-18 -0.026717598
v 1.6774202E-8 2.4384 0.053435236
v 1.6774202E-8 -3.2719646E-18 0.053435236
v -0.046276283 2.4384 -0.026717598
v -0.046276283 2.4384 -0.026717598
v 0.046276264 2.4384 -0.026717637
v 1.6774202E-8 2.4384 0.053435236
v 0.016588792 2.4949455 -0.045919295
v -0.18951978 1.5206946 -0.0459191
v 0.016588733 1.5206947 -0.04591913
v -0.18951978 2.4949455 -0.045919262
v 0.016588733 1.5206947 -0.04591913
v -0.18951978 1.5206946 -0.035919104
v 0.016588796 1.5206946 -0.035919134
v -0.18951978 1.5206946 -0.0459191
v -0.18951978 1.5206946 -0.035919104
v -0.18951978 2.4949455 -0.045919262
v -0.18951978 2.4949455 -0.03591926
v -0.18951978 1.5206946 -0.0459191
v -0.18951978 2.4949455 -0.03591926
v 0.016588796 1.5206946 -0.035919134
v -0.18951978 1.5206946 -0.035919104
v 0.016588736 2.4949458 -0.035919294
v -0.18951978 2.4949455 -0.045919262
v 0.016588736 2.4949458 -0.035919294
v -0.18951978 2.4949455 -0.03591926
v 0.016588792 2.4949455 -0.045919295
v 0.016588792 2.4949455 -0.045919295
v 0.22269736 1.5206946 -0.045919232
v 0.22269736 2.4949455 -0.045919392
v 0.016588852 1.5206947 -0.04591913
v 0.016588852 1.5206947 -0.04591913
v 0.22269736 1.5206946 -0.035919234
v 0.22269736 1.5206946 -0.045919232
v 0.016588796 1.5206946 -0.035919134
v 0.22269736 1.5206946 -0.035919234
v 0.22269736 2.4949455 -0.045919392
v 0.22269736 1.5206946 -0.045919232
v 0.22269736 2.4949455 -0.03591939
v 0.22269736 2.4949455 -0.03591939
v 0.016588796 1.5206946 -0.035919134
v 0.016588856 2.4949458 -0.035919294
v 0.22269736 1.5206946 -0.035919234
v 0.22269736 2.4949455 -0.045919392
v 0.016588856 2.4949458 -0.035919294
v 0.016588792 2.4949455 -0.045919295
v 0.22269736 2.4949455 -0.03591939
vn 0.8660256 0.0 0.4999997
vn 0.8660255 0.0 0.4999997
vn 0.8660256 0.0 0.4999997
vn 0.8660256 0.0 0.4999997
vn -0.0 0.0 -1.0
vn -0.0 0.0 -1.0
vn -0.0 0.0 -1.0
vn -0.0 0.0 -1.0
vn -0.86602527 0.0 0.5000003
vn -0.86602527 0.0 0.50000036
vn -0.86602527 0.0 0.50000036
vn -0.86602527 0.0 0.50000036
vn -0.0 1.0 0.0
vn -0.0 1.0 0.0
vn -0.0 1.0 0.0
vn -0.0 0.0 -1.0
vn -0.0 0.0 -1.0
vn -0.0 0.0 -1.0
vn -0.0 0.0 -1.0
vn -0.0 -1.0 -1.1553013E-5
vn -0.0 -1.0 0.0
vn -0.0 -1.0 -1.1920931E-5
vn -0.0 -1.0 0.0
vn -1.0 0.0 0.0
vn -1.0 0.0 0.0
vn -1.0 0.0 0.0
vn -1.0 0.0 0.0
vn -0.0 0.0 1.0
vn -0.0 0.0 1.0
vn -0.0 0.0 1.0
vn -0.0 0.0 1.0
vn -0.0 1.0 0.0
vn -0.0 1.0 -2.3106018E-5
vn -0.0 1.0 0.0
vn -0.0 1.0 -2.3841854E-5
vn -0.0 0.0 -1.0
vn -0.0 0.0 -1.0
vn -0.0 0.0 -1.0
vn -0.0 0.0 -1.0
vn -0.0 -1.0 -1.1553013E-5
vn -0.0 -1.0 0.0
vn -0.0 -1.0 0.0
vn -0.0 -1.0 -1.1920932E-5
vn 1.0 0.0 0.0
vn 1.0 0.0 0.0
vn 1.0 0.0 0.0
vn 1.0 0.0 0.0
vn -0.0 0.0 1.0
vn -0.0 0.0 1.0
vn -0.0 0.0 1.0
vn -0.0 0.0 1.0
vn -0.0 1.0 0.0
vn -0.0 1.0 -2.3106017E-5
vn -0.0 1.0 -2.3841854E-5
vn -0.0 1.0 0.0
vt 0.9377397 0.46612555
vt 0.95303875 0.026908457
vt 0.9521796 0.46612555
vt 0.9377397 0.026877522
vt 0.9369194 0.46612555
vt 0.95272964 0.027444363
vt 0.9535889 0.46672314
vt 0.93777853 0.026908457
vt 0.9388055 0.46672314
vt 0.95324534 0.027475238
vt 0.9532454 0.46672314
vt 0.93794626 0.027444363
vt 0.971328 0.027444363
vt 0.9563769 0.026908457
vt 0.96426314 0.015718937
vt 0.39250383 8.6039305E-4
vt 0.4378696 0.21850741
vt 0.39250386 0.21850735
vt 0.4378696 8.6039305E-4
vt 0.6896678 0.34584022
vt 0.7142458 0.34787893
vt 0.68966776 0.34787893
vt 0.7142458 0.34584028
vt 0.7142458 0.34787893
vt 0.71628463 0.4640566
vt 0.7142458 0.4640566
vt 0.71628463 0.34787893
vt 0.7142458 0.4640566
vt 0.68966776 0.34787893
vt 0.7142458 0.34787893
vt 0.6896678 0.46405655
vt 0.7142458 0.46609533
vt 0.6896678 0.46405655
vt 0.7142458 0.4640566
vt 0.68966776 0.46609533
vt 0.39250383 8.6039305E-4
vt 0.4378696 0.21850741
vt 0.4378696 8.6039305E-4
vt 0.39250386 0.21850735
vt 0.6896678 0.34584022
vt 0.7142458 0.34787893
vt 0.7142458 0.34584028
vt 0.68966776 0.34787893
vt 0.7142458 0.34787893
vt 0.71628463 0.4640566
vt 0.71628463 0.34787893
vt 0.7142458 0.4640566
vt 0.7142458 0.4640566
vt 0.68966776 0.34787893
vt 0.6896678 0.46405655
vt 0.7142458 0.34787893
vt 0.7142458 0.46609533
vt 0.6896678 0.46405655
vt 0.68966776 0.46609533
vt 0.7142458 0.4640566

g Sign_WarningLinesA
s 1
usemtl Sign_WarningLinesA
f 3/3/3 2/2/2 1/1/1 
f 4/4/4 1/1/1 2/2/2 
f 7/7/7 6/6/6 5/5/5 
f 8/8/8 5/5/5 6/6/6 
f 11/11/11 10/10/10 9/9/9 
f 12/12/12 9/9/9 10/10/10 
f 15/15/15 14/14/14 13/13/13 
f 18/18/18 17/17/17 16/16/16 
f 19/19/19 16/16/16 17/17/17 
f 22/22/22 21/21/21 20/20/20 
f 23/23/23 20/20/20 21/21/21 
f 26/26/26 25/25/25 24/24/24 
f 27/27/27 24/24/24 25/25/25 
f 30/30/30 29/29/29 28/28/28 
f 31/31/31 28/28/28 29/29/29 
f 34/34/34 33/33/33 32/32/32 
f 35/35/35 32/32/32 33/33/33 
f 38/38/38 37/37/37 36/36/36 
f 39/39/39 36/36/36 37/37/37 
f 42/42/42 41/41/41 40/40/40 
f 43/43/43 40/40/40 41/41/41 
f 46/46/46 45/45/45 44/44/44 
f 47/47/47 44/44/44 45/45/45 
f 50/50/50 49/49/49 48/48/48 
f 51/51/51 48/48/48 49/49/49 
f 54/54/54 53/53/53 52/52/52 
f 55/55/55 52/52/52 53/53/53 

