# Created by DisUnity v0.3.4
v -9.94188 66.56897 9.983607
v 9.94188 60.068153 -9.974676
v 9.94188 66.56897 9.983607
v -9.94188 60.068153 -9.974676
v -10.572578 67.970726 10.572578
v 9.94188 67.77743 9.979142
v 10.572578 67.970726 10.572578
v -9.94188 67.77743 9.979142
v 9.94188 61.27661 -9.979142
v 10.572578 61.083317 -10.572578
v -10.572578 61.083317 -10.572578
v -9.94188 61.27661 -9.979142
v 10.572578 61.083317 -10.572578
v -9.94188 61.27661 -9.979142
v -10.572578 61.083317 -10.572578
v 9.94188 61.27661 -9.979142
v -9.94188 67.77743 9.979142
v 9.94188 66.56897 9.983607
v 9.94188 67.77743 9.979142
v -9.94188 66.56897 9.983607
v 9.94188 67.77743 9.979142
v 9.94188 60.068153 -9.974676
v 9.94188 61.27661 -9.979142
v 9.94188 66.56897 9.983607
v 9.94188 61.27661 -9.979142
v -9.94188 60.068153 -9.974676
v -9.94188 61.27661 -9.979142
v 9.94188 60.068153 -9.974676
v -9.94188 61.27661 -9.979142
v -9.94188 66.56897 9.983607
v -9.94188 67.77743 9.979142
v -9.94188 60.068153 -9.974676
v -8.021863 66.466 6.1637654
v 0.124379955 74.16725 -7.222183
v 8.019232 66.466 6.1637654
v -8.178668 62.081444 7.1189594
v -9.042184 66.381424 7.1189594
v -8.178668 66.381424 7.1189594
v -9.042184 62.081444 7.1189594
v 8.090297 62.081444 7.1189594
v 8.090297 66.381424 7.1189594
v 9.025223 62.081444 7.1189594
v 9.025223 66.381424 7.1189594
v 9.025223 62.081444 7.1189594
v 0.13309304 75.449 -7.957902
v 0.13309304 59.44458 -7.957902
v 9.025223 66.381424 7.1189594
v 0.13309304 59.44458 -7.957902
v -9.042184 66.381424 7.1189594
v -9.042184 62.081444 7.1189594
v 0.13309304 75.449 -7.957902
v 9.025223 66.381424 7.1189594
v 0.124379955 74.778656 -6.792752
v 0.13309304 75.449 -7.957902
v 8.090297 66.381424 7.1189594
v -8.178668 66.381424 7.1189594
v -9.042184 66.381424 7.1189594
v 0.13309304 75.449 -7.957902
v 0.124379955 74.778656 -6.792752
v 8.090297 66.381424 7.1189594
v 0.124379955 74.16725 -7.222183
v 0.124379955 74.778656 -6.792752
v 0.124379955 74.16725 -7.222183
v 8.090297 66.381424 7.1189594
v 8.019232 66.466 6.1637654
v 0.124379955 74.778656 -6.792752
v -8.021863 66.466 6.1637654
v -8.178668 66.381424 7.1189594
v -8.021863 66.466 6.1637654
v 0.124379955 74.778656 -6.792752
v 0.124379955 74.16725 -7.222183
v 8.019232 66.466 6.1637654
v -8.178668 66.381424 7.1189594
v -8.021863 66.466 6.1637654
v 8.090297 66.381424 7.1189594
v 10.572578 60.042725 10.572578
v -10.572578 35.27278 10.572578
v -10.572578 60.042725 10.572578
v 10.572578 35.272785 10.572578
v 10.572578 60.042725 -10.572578
v 10.572578 35.272785 10.572578
v 10.572578 60.042725 10.572578
v 10.572578 35.272785 -10.572578
v -10.572578 60.042725 -10.572578
v 10.572578 35.272785 -10.572578
v 10.572578 60.042725 -10.572578
v -10.572578 35.272785 -10.572578
v -10.572578 60.042725 10.572578
v -10.572578 35.272785 -10.572578
v -10.572578 60.042725 -10.572578
v -10.572578 35.27278 10.572578
v 10.572578 67.970726 10.572578
v -10.572578 60.042725 10.572578
v -10.572578 67.970726 10.572578
v 10.572578 60.042725 10.572578
v 10.572578 61.083317 -10.572578
v 10.572578 60.042725 10.572578
v 10.572578 67.970726 10.572578
v 10.572578 60.042725 -10.572578
v -10.572578 61.083317 -10.572578
v 10.572578 60.042725 -10.572578
v 10.572578 61.083317 -10.572578
v -10.572578 60.042725 -10.572578
v -10.572578 60.042725 10.572578
v -10.572578 61.083317 -10.572578
v -10.572578 67.970726 10.572578
v -10.572578 60.042725 -10.572578
v 10.572578 35.272785 10.572578
v -10.572578 3.8800073 10.572578
v -10.572578 35.27278 10.572578
v 10.572578 3.8800066 10.572578
v 10.572578 35.272785 -10.572578
v 10.572578 3.8800066 10.572578
v 10.572578 35.272785 10.572578
v 10.572578 3.880006 -10.572578
v -10.572578 35.272785 -10.572578
v 10.572578 3.880006 -10.572578
v 10.572578 35.272785 -10.572578
v -10.572578 3.880006 -10.572578
v -10.572578 35.27278 10.572578
v -10.572578 3.880006 -10.572578
v -10.572578 35.272785 -10.572578
v -10.572578 3.8800073 10.572578
v 10.572578 -6.4738373E-16 10.572578
v -10.572578 3.8800073 10.572578
v 10.572578 3.8800066 10.572578
v -10.572578 -6.4738373E-16 10.572578
v 10.572578 6.4738373E-16 -10.572578
v 10.572578 3.8800066 10.572578
v 10.572578 3.880006 -10.572578
v 10.572578 -6.4738373E-16 10.572578
v -10.572578 6.4738373E-16 -10.572578
v 10.572578 3.880006 -10.572578
v -10.572578 3.880006 -10.572578
v 10.572578 6.4738373E-16 -10.572578
v -10.572578 -6.4738373E-16 10.572578
v -10.572578 3.880006 -10.572578
v -10.572578 3.8800073 10.572578
v -10.572578 6.4738373E-16 -10.572578
vn -0.0 0.95083255 -0.30970538
vn -0.0 0.95083255 -0.30970538
vn -0.0 0.95083255 -0.30970538
vn -0.0 0.95083255 -0.30970538
vn -0.0 0.95083064 -0.30971143
vn -0.0 0.95083064 -0.30971143
vn -0.0 0.95083064 -0.3097114
vn -0.0 0.95083064 -0.30971146
vn -0.0 0.95083255 -0.3097056
vn -0.0 0.95083255 -0.3097056
vn -0.0 0.95083255 -0.3097056
vn -0.0 0.95083255 -0.30970538
vn -0.0 0.9508324 -0.3097059
vn -0.0 0.95083237 -0.3097059
vn -0.0 0.95083237 -0.3097059
vn -0.0 0.9508324 -0.30970588
vn -0.0 -0.0036948516 -0.9999932
vn -0.0 -0.0036948519 -0.9999932
vn -0.0 -0.0036948519 -0.9999932
vn -0.0 -0.0036948519 -0.9999932
vn -1.0 0.0 0.0
vn -1.0 0.0 0.0
vn -1.0 0.0 0.0
vn -1.0 0.0 0.0
vn -0.0 0.0036956407 0.9999932
vn -0.0 0.003695641 0.9999932
vn -0.0 0.003695641 0.9999932
vn -0.0 0.003695641 0.9999932
vn 1.0 0.0 0.0
vn 1.0 0.0 0.0
vn 1.0 0.0 0.0
vn 1.0 0.0 0.0
vn -0.0 0.86678517 0.49868175
vn -0.0 0.86678517 0.4986817
vn -0.0 0.86678517 0.49868175
vn -0.0 0.0 1.0
vn -0.0 0.0 1.0
vn -0.0 0.0 1.0
vn -0.0 0.0 1.0
vn -0.0 0.0 1.0
vn -0.0 0.0 1.0
vn -0.0 0.0 1.0
vn -0.0 0.0 1.0
vn 0.8613497 0.0 -0.5080125
vn 0.8613497 0.0 -0.5080125
vn 0.8613497 0.0 -0.5080125
vn 0.86134976 0.0 -0.5080124
vn -0.8542475 0.0 -0.51986665
vn -0.8542475 0.0 -0.51986665
vn -0.8542475 0.0 -0.5198665
vn -0.8542475 0.0 -0.51986665
vn 0.03784079 0.8660409 0.4985391
vn 0.037840795 0.8660409 0.49853906
vn 0.03784079 0.8660409 0.49853906
vn -0.0 0.85612684 0.5167657
vn -0.0 0.85695434 0.51539224
vn -0.0 0.85695434 0.51539224
vn -0.041566312 0.8661693 0.49801907
vn -0.04156631 0.8661693 0.49801904
vn -0.89749324 -0.25348666 0.36090243
vn -0.89749324 -0.25348663 0.36090243
vn -0.89749324 -0.25348663 0.36090243
vn -0.6865786 -0.7269342 -0.013287384
vn -0.68657863 -0.7269342 -0.013287387
vn -0.6865786 -0.72693425 -0.013287387
vn 0.76388294 -0.6417007 0.068578735
vn 0.76388294 -0.6417007 0.068578735
vn 0.76388294 -0.6417007 0.068578735
vn 0.8837003 -0.26901948 0.38301742
vn 0.8837003 -0.2690195 0.38301745
vn 0.8837003 -0.2690195 0.38301742
vn -0.0 0.9961027 0.088201806
vn -0.0 0.9961027 0.088201806
vn -0.0 0.9961027 0.088201806
vn -0.0 0.9961027 0.088201806
vn -0.0 0.0 1.0
vn -0.0 0.0 1.0
vn -0.0 0.0 1.0
vn -0.0 0.0 1.0
vn 1.0 0.0 0.0
vn 1.0 0.0 0.0
vn 1.0 0.0 0.0
vn 1.0 0.0 0.0
vn -0.0 0.0 -1.0
vn -0.0 0.0 -1.0
vn -0.0 0.0 -1.0
vn -0.0 0.0 -1.0
vn -1.0 0.0 0.0
vn -1.0 0.0 0.0
vn -1.0 0.0 0.0
vn -1.0 0.0 0.0
vn -0.0 0.0 1.0
vn -0.0 0.0 1.0
vn -0.0 0.0 1.0
vn -0.0 0.0 1.0
vn 1.0 0.0 0.0
vn 1.0 0.0 0.0
vn 1.0 0.0 0.0
vn 1.0 0.0 0.0
vn -0.0 0.0 -1.0
vn -0.0 0.0 -1.0
vn -0.0 0.0 -1.0
vn -0.0 0.0 -1.0
vn -1.0 0.0 0.0
vn -1.0 0.0 0.0
vn -1.0 0.0 0.0
vn -1.0 0.0 0.0
vn -0.0 0.0 1.0
vn -0.0 0.0 1.0
vn -0.0 0.0 1.0
vn -0.0 0.0 1.0
vn 1.0 0.0 0.0
vn 1.0 0.0 0.0
vn 1.0 0.0 0.0
vn 1.0 0.0 0.0
vn -0.0 0.0 -1.0
vn -0.0 0.0 -1.0
vn -0.0 0.0 -1.0
vn -0.0 0.0 -1.0
vn -1.0 0.0 0.0
vn -1.0 0.0 0.0
vn -1.0 0.0 0.0
vn -1.0 0.0 0.0
vn -0.0 0.0 1.0
vn -0.0 0.0 1.0
vn -0.0 0.0 1.0
vn -0.0 0.0 1.0
vn 1.0 0.0 0.0
vn 1.0 0.0 0.0
vn 1.0 0.0 0.0
vn 1.0 0.0 0.0
vn -0.0 0.0 -1.0
vn -0.0 0.0 -1.0
vn -0.0 0.0 -1.0
vn -0.0 0.0 -1.0
vn -1.0 0.0 0.0
vn -1.0 0.0 0.0
vn -1.0 0.0 0.0
vn -1.0 0.0 0.0
vt 0.44190454 0.23069024
vt 0.34713805 0.3317845
vt 0.34713805 0.23069024
vt 0.44190454 0.3317845
vt 0.43825892 0.12522537
vt 0.35233173 0.12786716
vt 0.34969 0.12522537
vt 0.43561715 0.12786716
vt 0.35233173 0.21671373
vt 0.34969 0.21935552
vt 0.43825892 0.21935552
vt 0.43561715 0.21671373
vt 0.34969 0.21935552
vt 0.43561715 0.21671373
vt 0.43825892 0.21935552
vt 0.35233173 0.21671373
vt 0.44538343 0.1625402
vt 0.34296662 0.16941774
vt 0.34296662 0.1625402
vt 0.44538343 0.16941774
vt 0.44625357 0.18499881
vt 0.34602705 0.19929338
vt 0.34761956 0.19326967
vt 0.44466117 0.19102252
vt 0.43389577 0.17511952
vt 0.34111097 0.18135023
vt 0.34111097 0.17511952
vt 0.43389577 0.18135023
vt 0.44373417 0.20540226
vt 0.34686604 0.2116214
vt 0.34475455 0.20575935
vt 0.4458457 0.21126425
vt 0.36423558 0.21664035
vt 0.4049455 0.14974558
vt 0.44439906 0.21664035
vt 0.23304789 0.274307
vt 0.22945182 0.25452125
vt 0.23304789 0.25452125
vt 0.22945182 0.274307
vt 0.30079973 0.274307
vt 0.30079973 0.25452125
vt 0.30469322 0.274307
vt 0.30469322 0.25452125
vt 0.24333763 0.30899072
vt 0.32595092 0.2392807
vt 0.32595092 0.32274163
vt 0.24333763 0.28656685
vt 0.2441526 0.32028925
vt 0.3274529 0.28411448
vt 0.3274529 0.30653834
vt 0.2441526 0.23682833
vt 0.32721537 0.32901126
vt 0.27802855 0.23013425
vt 0.2783034 0.22209054
vt 0.3217679 0.32886076
vt 0.22697422 0.32624167
vt 0.22194278 0.32610273
vt 0.2783034 0.22209054
vt 0.27802855 0.23013425
vt 0.31376618 0.27024448
vt 0.23734437 0.22435397
vt 0.23934487 0.2211976
vt 0.23734437 0.22435397
vt 0.31376618 0.27024448
vt 0.30923057 0.27019334
vt 0.31303865 0.2748294
vt 0.24196105 0.32305777
vt 0.23734437 0.32322186
vt 0.24196105 0.32305777
vt 0.31303865 0.2748294
vt 0.31501514 0.27805007
vt 0.3112105 0.30287433
vt 0.23026334 0.30764782
vt 0.23104702 0.30287433
vt 0.31156558 0.30764782
vt 0.62294257 0.6770086
vt 0.5288034 0.9026477
vt 0.5288034 0.6770086
vt 0.62294257 0.9026476
vt 0.6226417 0.6770086
vt 0.52850264 0.9026476
vt 0.52850264 0.6770086
vt 0.6226417 0.9026477
vt 0.62234074 0.6770086
vt 0.5282017 0.9026477
vt 0.5282017 0.6770086
vt 0.62234074 0.9026477
vt 0.62290055 0.6770086
vt 0.52876145 0.9026477
vt 0.52876145 0.6770086
vt 0.62290055 0.9026477
vt 0.57871825 0.69447154
vt 0.56833935 0.7024337
vt 0.56833935 0.69447154
vt 0.57871825 0.7024337
vt 0.5787714 0.70138866
vt 0.5683926 0.7024337
vt 0.5683926 0.69447154
vt 0.5787714 0.7024337
vt 0.578695 0.70138866
vt 0.5683162 0.7024337
vt 0.5683162 0.70138866
vt 0.578695 0.7024337
vt 0.57883775 0.7024337
vt 0.5684589 0.70138866
vt 0.57883775 0.69447154
vt 0.5684589 0.7024337
vt 0.62294257 0.67714
vt 0.5288034 0.938857
vt 0.5288034 0.67714
vt 0.62294257 0.938857
vt 0.6226417 0.67714
vt 0.52850264 0.938857
vt 0.52850264 0.67714
vt 0.6226417 0.938857
vt 0.62234074 0.67714
vt 0.5282017 0.938857
vt 0.5282017 0.67714
vt 0.62234074 0.938857
vt 0.62290055 0.67714
vt 0.52876145 0.938857
vt 0.52876145 0.67714
vt 0.62290055 0.938857
vt 0.21341464 0.33622223
vt 5.5784243E-4 0.2782625
vt 0.21341464 0.2781589
vt 5.5784243E-4 0.33632582
vt 0.21343265 0.33622223
vt 5.758349E-4 0.2782625
vt 0.21343265 0.2781589
vt 5.758349E-4 0.33632582
vt 0.2133992 0.33622223
vt 5.4239086E-4 0.2782625
vt 0.2133992 0.2781589
vt 5.4239086E-4 0.33632582
vt 0.21342067 0.33622223
vt 5.638674E-4 0.27826238
vt 0.21342067 0.27815878
vt 5.638674E-4 0.33632582

g Skyscraper_20
s 1
usemtl Skyscraper_20
f 3/3/3 2/2/2 1/1/1 
f 4/4/4 1/1/1 2/2/2 
f 7/7/7 6/6/6 5/5/5 
f 8/8/8 5/5/5 6/6/6 
f 6/6/6 7/7/7 9/9/9 
f 10/10/10 9/9/9 7/7/7 
f 5/5/5 8/8/8 11/11/11 
f 12/12/12 11/11/11 8/8/8 
f 15/15/15 14/14/14 13/13/13 
f 16/16/16 13/13/13 14/14/14 
f 19/19/19 18/18/18 17/17/17 
f 20/20/20 17/17/17 18/18/18 
f 23/23/23 22/22/22 21/21/21 
f 24/24/24 21/21/21 22/22/22 
f 27/27/27 26/26/26 25/25/25 
f 28/28/28 25/25/25 26/26/26 
f 31/31/31 30/30/30 29/29/29 
f 32/32/32 29/29/29 30/30/30 
f 35/35/35 34/34/34 33/33/33 
f 38/38/38 37/37/37 36/36/36 
f 39/39/39 36/36/36 37/37/37 
f 36/36/36 40/40/40 38/38/38 
f 41/41/41 38/38/38 40/40/40 
f 40/40/40 42/42/42 41/41/41 
f 43/43/43 41/41/41 42/42/42 
f 46/46/46 45/45/45 44/44/44 
f 47/47/47 44/44/44 45/45/45 
f 50/50/50 49/49/49 48/48/48 
f 51/51/51 48/48/48 49/49/49 
f 54/54/54 53/53/53 52/52/52 
f 55/55/55 52/52/52 53/53/53 
f 57/57/57 56/56/56 54/54/54 
f 59/59/59 58/58/58 56/56/56 
f 62/62/62 61/61/61 60/60/60 
f 65/65/65 64/64/64 63/63/63 
f 68/68/68 67/67/67 66/66/66 
f 71/71/71 70/70/70 69/69/69 
f 74/74/74 73/73/73 72/72/72 
f 75/75/75 72/72/72 73/73/73 
f 78/78/78 77/77/77 76/76/76 
f 79/79/79 76/76/76 77/77/77 
f 82/82/82 81/81/81 80/80/80 
f 83/83/83 80/80/80 81/81/81 
f 86/86/86 85/85/85 84/84/84 
f 87/87/87 84/84/84 85/85/85 
f 90/90/90 89/89/89 88/88/88 
f 91/91/91 88/88/88 89/89/89 
f 94/94/94 93/93/93 92/92/92 
f 95/95/95 92/92/92 93/93/93 
f 98/98/98 97/97/97 96/96/96 
f 99/99/99 96/96/96 97/97/97 
f 102/102/102 101/101/101 100/100/100 
f 103/103/103 100/100/100 101/101/101 
f 106/106/106 105/105/105 104/104/104 
f 107/107/107 104/104/104 105/105/105 
f 110/110/110 109/109/109 108/108/108 
f 111/111/111 108/108/108 109/109/109 
f 114/114/114 113/113/113 112/112/112 
f 115/115/115 112/112/112 113/113/113 
f 118/118/118 117/117/117 116/116/116 
f 119/119/119 116/116/116 117/117/117 
f 122/122/122 121/121/121 120/120/120 
f 123/123/123 120/120/120 121/121/121 
f 126/126/126 125/125/125 124/124/124 
f 127/127/127 124/124/124 125/125/125 
f 130/130/130 129/129/129 128/128/128 
f 131/131/131 128/128/128 129/129/129 
f 134/134/134 133/133/133 132/132/132 
f 135/135/135 132/132/132 133/133/133 
f 138/138/138 137/137/137 136/136/136 
f 139/139/139 136/136/136 137/137/137 

