# Created by DisUnity v0.3.4
v -9.521155 14.491926 16.164467
v 9.521155 14.491926 -16.164467
v 9.521155 14.491926 16.164467
v -9.521155 14.491926 -16.164467
v 10.484637 15.538332 17.127949
v -9.521155 15.538332 16.164467
v 9.521155 15.538332 16.164467
v -10.484637 15.538332 17.127949
v 10.484637 15.538332 -17.127949
v 9.521155 15.538332 -16.164467
v -9.521155 15.538332 -16.164467
v -10.484637 15.538332 -17.127949
v 9.521155 15.538332 16.164467
v -9.521155 14.491926 16.164467
v 9.521155 14.491926 16.164467
v -9.521155 15.538332 16.164467
v 9.521155 15.538332 -16.164467
v 9.521155 14.491926 16.164467
v 9.521155 14.491926 -16.164467
v 9.521155 15.538332 16.164467
v -9.521155 15.538332 -16.164467
v 9.521155 14.491926 -16.164467
v -9.521155 14.491926 -16.164467
v 9.521155 15.538332 -16.164467
v -9.521155 15.538332 16.164467
v -9.521155 14.491926 -16.164467
v -9.521155 14.491926 16.164467
v -9.521155 15.538332 -16.164467
v -4.683072 19.26786 13.1247
v 5.081778 19.26786 6.255859
v 5.081778 19.26786 13.1247
v -4.683072 19.26786 6.255859
v -5.2715983 14.491918 13.713226
v 5.6703043 19.778305 13.713226
v 5.6703043 14.491918 13.713226
v -5.2715983 19.778305 13.713226
v 5.6703043 14.491918 13.713226
v 5.6703043 19.778305 5.6673326
v 5.6703043 14.491918 5.6673326
v 5.6703043 19.778305 13.713226
v 5.6703043 14.491918 5.6673326
v -5.2715983 19.778305 5.6673326
v -5.2715983 14.491918 5.6673326
v 5.6703043 19.778305 5.6673326
v -5.2715983 14.491918 5.6673326
v -5.2715983 19.778305 13.713226
v -5.2715983 14.491918 13.713226
v -5.2715983 19.778305 5.6673326
v -5.2715983 19.778305 13.713226
v 5.081778 19.778305 13.1247
v 5.6703043 19.778305 13.713226
v -4.683072 19.778305 13.1247
v 5.081778 19.778305 6.255859
v 5.6703043 19.778305 5.6673326
v -4.683072 19.778305 6.255859
v -5.2715983 19.778305 5.6673326
v -4.683072 19.778305 13.1247
v 5.081778 19.26786 13.1247
v 5.081778 19.778305 13.1247
v -4.683072 19.26786 13.1247
v 5.081778 19.778305 13.1247
v 5.081778 19.26786 6.255859
v 5.081778 19.778305 6.255859
v 5.081778 19.26786 13.1247
v 5.081778 19.778305 6.255859
v -4.683072 19.26786 6.255859
v -4.683072 19.778305 6.255859
v 5.081778 19.26786 6.255859
v -4.683072 19.778305 6.255859
v -4.683072 19.26786 13.1247
v -4.683072 19.778305 13.1247
v -4.683072 19.26786 6.255859
v 10.484637 3.0299747 17.127949
v -10.484637 15.538332 17.127949
v 10.484637 15.538332 17.127949
v -10.484637 3.029975 17.127949
v 10.484637 3.0299747 -17.127949
v 10.484637 3.0299747 1.8553244E-16
v 10.484637 15.538332 -17.127949
v 10.484637 15.538332 17.127949
v 10.484637 3.0299747 17.127949
v -10.484637 3.0299747 -17.127949
v 10.484637 15.538332 -17.127949
v -10.484637 15.538332 -17.127949
v 10.484637 3.0299747 -17.127949
v -10.484637 3.029975 17.127949
v -10.484637 3.029975 1.8553246E-16
v -10.484637 15.538332 17.127949
v -10.484637 15.538332 -17.127949
v -10.484637 3.0299747 -17.127949
v 10.484637 -1.0487843E-15 17.127949
v -10.484637 3.029975 17.127949
v 10.484637 3.0299747 17.127949
v -10.484637 -1.0487843E-15 17.127949
v 10.484637 0.0 0.0
v 10.484637 3.0299747 17.127949
v 10.484637 3.0299747 1.8553244E-16
v 10.484637 -1.0487843E-15 17.127949
v -10.484637 1.0487843E-15 -17.127949
v 10.484637 3.0299747 -17.127949
v -10.484637 3.0299747 -17.127949
v 10.484637 1.0487843E-15 -17.127949
v -10.484637 0.0 0.0
v -10.484637 3.0299747 -17.127949
v -10.484637 3.029975 1.8553246E-16
v -10.484637 1.0487843E-15 -17.127949
v 10.484637 1.0487843E-15 -17.127949
v 10.484637 3.0299747 1.8553244E-16
v 10.484637 3.0299747 -17.127949
v 10.484637 0.0 0.0
v -10.484637 -1.0487843E-15 17.127949
v -10.484637 3.029975 1.8553246E-16
v -10.484637 3.029975 17.127949
v -10.484637 0.0 0.0
v 3.374847 15.278843 0.6568916
v 4.190523 15.278826 1.3874362
v 2.4843447 15.278826 1.3874362
v 4.190523 15.278826 0.65689075
v 2.4843447 15.278826 0.65689075
v 3.374847 14.439882 0.6568916
v 4.190523 15.278826 0.65689075
v 3.374847 15.278843 0.6568916
v 4.190523 14.439882 0.65689075
v 2.4843447 14.439882 0.65689075
v 2.4843447 15.278826 0.65689075
v 2.4843447 14.439882 0.65689075
v 2.4843447 15.278826 1.3874362
v 2.4843447 14.439882 1.3874362
v 2.4843447 15.278826 0.65689075
v 4.190523 14.439882 1.3874362
v 4.190523 15.278826 0.65689075
v 4.190523 14.439882 0.65689075
v 4.190523 15.278826 1.3874362
v 4.190523 14.439882 1.3874362
v 2.4843447 15.278826 1.3874362
v 4.190523 15.278826 1.3874362
v 2.4843447 14.439882 1.3874362
v 3.374847 15.278843 -3.7618482
v 4.190523 15.278826 -3.0313036
v 2.4843447 15.278826 -3.0313036
v 4.190523 15.278826 -3.7618492
v 2.4843447 15.278826 -3.7618492
v 3.374847 14.439882 -3.7618482
v 4.190523 15.278826 -3.7618492
v 3.374847 15.278843 -3.7618482
v 4.190523 14.439882 -3.7618492
v 2.4843447 14.439882 -3.7618492
v 2.4843447 15.278826 -3.7618492
v 2.4843447 14.439882 -3.7618492
v 2.4843447 15.278826 -3.0313036
v 2.4843447 14.439882 -3.0313036
v 2.4843447 15.278826 -3.7618492
v 4.190523 14.439882 -3.0313036
v 4.190523 15.278826 -3.7618492
v 4.190523 14.439882 -3.7618492
v 4.190523 15.278826 -3.0313036
v 4.190523 14.439882 -3.0313036
v 2.4843447 15.278826 -3.0313036
v 4.190523 15.278826 -3.0313036
v 2.4843447 14.439882 -3.0313036
v -1.120372 15.944855 -0.14319333
v -4.5882297 15.944855 -3.4517114
v -1.120372 15.944855 -3.4517107
v -4.588231 15.944855 -0.14319374
v -1.120372 14.430626 -0.14319333
v -1.120372 15.944855 -3.4517107
v -1.120372 14.430626 -3.4517107
v -1.120372 15.944855 -0.14319333
v -1.120372 14.430626 -3.4517107
v -4.5882297 15.944855 -3.4517114
v -4.5882297 14.430626 -3.4517114
v -1.120372 15.944855 -3.4517107
v -4.5882297 14.430626 -3.4517114
v -4.588231 15.944855 -0.14319374
v -4.588231 14.430626 -0.14319374
v -4.5882297 15.944855 -3.4517114
v -4.588231 14.430626 -0.14319374
v -1.120372 15.944855 -0.14319333
v -1.120372 14.430626 -0.14319333
v -4.588231 15.944855 -0.14319374
v -3.4661167 15.944855 -8.580739
v -5.6949515 15.944855 -11.8892565
v -3.4661167 15.944855 -11.889256
v -5.6949515 15.944855 -8.580739
v -3.4661167 14.430626 -8.580739
v -3.4661167 15.944855 -11.889256
v -3.4661167 14.430626 -11.889256
v -3.4661167 15.944855 -8.580739
v -3.4661167 14.430626 -11.889256
v -5.6949515 15.944855 -11.8892565
v -5.6949515 14.430626 -11.8892565
v -3.4661167 15.944855 -11.889256
v -5.6949515 14.430626 -11.8892565
v -5.6949515 15.944855 -8.580739
v -5.6949515 14.430626 -8.580739
v -5.6949515 15.944855 -11.8892565
v -5.6949515 14.430626 -8.580739
v -3.4661167 15.944855 -8.580739
v -3.4661167 14.430626 -8.580739
v -5.6949515 15.944855 -8.580739
v -4.638127 14.430643 -8.542779
v -4.069677 14.430643 -8.866795
v -4.638127 14.430643 -8.866795
v -4.069677 14.430643 -8.542779
v -4.638127 15.521592 -8.542779
v -4.069677 15.521592 -8.866795
v -4.069677 15.521592 -8.542779
v -4.638127 15.521592 -8.866795
v -4.638127 14.430643 -8.542779
v -4.069677 15.521592 -8.542779
v -4.069677 14.430643 -8.542779
v -4.638127 15.521592 -8.542779
v -4.069677 14.430643 -8.542779
v -4.069677 15.521592 -8.866795
v -4.069677 14.430643 -8.866795
v -4.069677 15.521592 -8.542779
v -4.638127 14.430643 -8.866795
v -4.638127 15.521592 -8.542779
v -4.638127 14.430643 -8.542779
v -4.638127 15.521592 -8.866795
v -5.2109337 14.430643 -8.542779
v -4.6424837 14.430643 -8.866795
v -5.2109337 14.430643 -8.866795
v -4.6424837 14.430643 -8.542779
v -5.2109337 15.521592 -8.542779
v -4.6424837 15.521592 -8.866795
v -4.6424837 15.521592 -8.542779
v -5.2109337 15.521592 -8.866795
v -5.2109337 14.430643 -8.542779
v -4.6424837 15.521592 -8.542779
v -4.6424837 14.430643 -8.542779
v -5.2109337 15.521592 -8.542779
v -4.6424837 14.430643 -8.542779
v -4.6424837 15.521592 -8.866795
v -4.6424837 14.430643 -8.866795
v -4.6424837 15.521592 -8.542779
v -5.2109337 14.430643 -8.866795
v -5.2109337 15.521592 -8.542779
v -5.2109337 14.430643 -8.542779
v -5.2109337 15.521592 -8.866795
vn -0.0 1.0 0.0
vn -0.0 1.0 0.0
vn -0.0 1.0 0.0
vn -0.0 1.0 0.0
vn -0.0 1.0 0.0
vn -0.0 1.0 0.0
vn -0.0 1.0 0.0
vn -0.0 1.0 0.0
vn -0.0 1.0 0.0
vn -0.0 1.0 0.0
vn -0.0 1.0 0.0
vn -0.0 1.0 0.0
vn -0.0 0.0 -1.0
vn -0.0 0.0 -1.0
vn -0.0 0.0 -1.0
vn -0.0 0.0 -1.0
vn -1.0 0.0 0.0
vn -1.0 0.0 0.0
vn -1.0 0.0 0.0
vn -1.0 0.0 0.0
vn -0.0 0.0 1.0
vn -0.0 0.0 1.0
vn -0.0 0.0 1.0
vn -0.0 0.0 1.0
vn 1.0 0.0 0.0
vn 1.0 0.0 0.0
vn 1.0 0.0 0.0
vn 1.0 0.0 0.0
vn -0.0 1.0 0.0
vn -0.0 1.0 0.0
vn -0.0 1.0 0.0
vn -0.0 1.0 0.0
vn -0.0 0.0 1.0
vn -0.0 0.0 1.0
vn -0.0 0.0 1.0
vn -0.0 0.0 1.0
vn 1.0 0.0 0.0
vn 1.0 0.0 0.0
vn 1.0 0.0 0.0
vn 1.0 0.0 0.0
vn -0.0 0.0 -1.0
vn -0.0 0.0 -1.0
vn -0.0 0.0 -1.0
vn -0.0 0.0 -1.0
vn -1.0 0.0 0.0
vn -1.0 0.0 0.0
vn -1.0 0.0 0.0
vn -1.0 0.0 0.0
vn -0.0 1.0 0.0
vn -0.0 1.0 0.0
vn -0.0 1.0 0.0
vn -0.0 1.0 0.0
vn -0.0 1.0 0.0
vn -0.0 1.0 0.0
vn -0.0 1.0 0.0
vn -0.0 1.0 0.0
vn -0.0 0.0 -1.0
vn -0.0 0.0 -1.0
vn -0.0 0.0 -1.0
vn -0.0 0.0 -1.0
vn -1.0 0.0 0.0
vn -1.0 0.0 0.0
vn -1.0 0.0 0.0
vn -1.0 0.0 0.0
vn -0.0 0.0 1.0
vn -0.0 0.0 1.0
vn -0.0 0.0 1.0
vn -0.0 0.0 1.0
vn 1.0 0.0 0.0
vn 1.0 0.0 0.0
vn 1.0 0.0 0.0
vn 1.0 0.0 0.0
vn -0.0 0.0 1.0
vn -0.0 0.0 1.0
vn -0.0 0.0 1.0
vn -0.0 0.0 1.0
vn 1.0 0.0 0.0
vn 1.0 0.0 0.0
vn 1.0 0.0 0.0
vn 1.0 0.0 0.0
vn 1.0 0.0 0.0
vn -0.0 0.0 -1.0
vn -0.0 0.0 -1.0
vn -0.0 0.0 -1.0
vn -0.0 0.0 -1.0
vn -1.0 0.0 0.0
vn -1.0 0.0 0.0
vn -1.0 0.0 0.0
vn -1.0 0.0 0.0
vn -1.0 0.0 0.0
vn -0.0 0.0 1.0
vn -0.0 0.0 1.0
vn -0.0 0.0 1.0
vn -0.0 0.0 1.0
vn 1.0 0.0 0.0
vn 1.0 0.0 0.0
vn 1.0 0.0 0.0
vn 1.0 0.0 0.0
vn -0.0 0.0 -1.0
vn -0.0 0.0 -1.0
vn -0.0 0.0 -1.0
vn -0.0 0.0 -1.0
vn -1.0 0.0 0.0
vn -1.0 0.0 0.0
vn -1.0 0.0 0.0
vn -1.0 0.0 0.0
vn 1.0 0.0 0.0
vn 1.0 0.0 0.0
vn 1.0 0.0 0.0
vn 1.0 0.0 0.0
vn -1.0 0.0 0.0
vn -1.0 0.0 0.0
vn -1.0 0.0 0.0
vn -1.0 0.0 0.0
vn -0.0 1.0 1.2895918E-5
vn 1.1259554E-5 1.0 1.0926077E-5
vn -1.0845504E-5 1.0 1.0277528E-5
vn 2.1045285E-5 1.0 0.0
vn -1.9276918E-5 1.0 0.0
vn -0.0 0.0 -1.0
vn -0.0 0.0 -1.0
vn -0.0 0.0 -1.0
vn -0.0 0.0 -1.0
vn -0.0 0.0 -1.0
vn -0.0 0.0 -1.0
vn -1.0 0.0 0.0
vn -1.0 0.0 0.0
vn -1.0 0.0 0.0
vn -1.0 0.0 0.0
vn 1.0 0.0 0.0
vn 1.0 0.0 0.0
vn 1.0 0.0 0.0
vn 1.0 0.0 0.0
vn -0.0 0.0 1.0
vn -0.0 0.0 1.0
vn -0.0 0.0 1.0
vn -0.0 0.0 1.0
vn -0.0 1.0 1.2895917E-5
vn 1.1259554E-5 1.0 1.0926077E-5
vn -1.0845504E-5 1.0 1.0277528E-5
vn 2.1045284E-5 1.0 0.0
vn -1.927692E-5 1.0 0.0
vn -0.0 0.0 -1.0
vn -0.0 0.0 -1.0
vn -0.0 0.0 -1.0
vn -0.0 0.0 -1.0
vn -0.0 0.0 -1.0
vn -0.0 0.0 -1.0
vn -1.0 0.0 0.0
vn -1.0 0.0 0.0
vn -1.0 0.0 0.0
vn -1.0 0.0 0.0
vn 1.0 0.0 0.0
vn 1.0 0.0 0.0
vn 1.0 0.0 0.0
vn 1.0 0.0 0.0
vn -0.0 0.0 1.0
vn -0.0 0.0 1.0
vn -0.0 0.0 1.0
vn -0.0 0.0 1.0
vn -0.0 1.0 0.0
vn -0.0 1.0 0.0
vn -0.0 1.0 0.0
vn -0.0 1.0 0.0
vn 1.0 0.0 0.0
vn 1.0 0.0 0.0
vn 1.0 0.0 0.0
vn 1.0 0.0 0.0
vn -0.0 0.0 -1.0
vn -0.0 0.0 -1.0
vn -0.0 0.0 -1.0
vn -0.0 0.0 -1.0
vn -1.0 0.0 0.0
vn -1.0 0.0 0.0
vn -1.0 0.0 0.0
vn -1.0 0.0 0.0
vn -0.0 0.0 1.0
vn -0.0 0.0 1.0
vn -0.0 0.0 1.0
vn -0.0 0.0 1.0
vn -0.0 1.0 0.0
vn -0.0 1.0 0.0
vn -0.0 1.0 0.0
vn -0.0 1.0 0.0
vn 1.0 0.0 0.0
vn 1.0 0.0 0.0
vn 1.0 0.0 0.0
vn 1.0 0.0 0.0
vn -0.0 0.0 -1.0
vn -0.0 0.0 -1.0
vn -0.0 0.0 -1.0
vn -0.0 0.0 -1.0
vn -1.0 0.0 0.0
vn -1.0 0.0 0.0
vn -1.0 0.0 0.0
vn -1.0 0.0 0.0
vn -0.0 0.0 1.0
vn -0.0 0.0 1.0
vn -0.0 0.0 1.0
vn -0.0 0.0 1.0
vn -0.0 -1.0 0.0
vn -0.0 -1.0 0.0
vn -0.0 -1.0 0.0
vn -0.0 -1.0 0.0
vn -0.0 1.0 0.0
vn -0.0 1.0 0.0
vn -0.0 1.0 0.0
vn -0.0 1.0 0.0
vn -0.0 0.0 1.0
vn -0.0 0.0 1.0
vn -0.0 0.0 1.0
vn -0.0 0.0 1.0
vn 1.0 0.0 0.0
vn 1.0 0.0 0.0
vn 1.0 0.0 0.0
vn 1.0 0.0 0.0
vn -1.0 0.0 0.0
vn -1.0 0.0 0.0
vn -1.0 0.0 0.0
vn -1.0 0.0 0.0
vn -0.0 -1.0 0.0
vn -0.0 -1.0 0.0
vn -0.0 -1.0 0.0
vn -0.0 -1.0 0.0
vn -0.0 1.0 0.0
vn -0.0 1.0 0.0
vn -0.0 1.0 0.0
vn -0.0 1.0 0.0
vn -0.0 0.0 1.0
vn -0.0 0.0 1.0
vn -0.0 0.0 1.0
vn -0.0 0.0 1.0
vn 1.0 0.0 0.0
vn 1.0 0.0 0.0
vn 1.0 0.0 0.0
vn 1.0 0.0 0.0
vn -1.0 0.0 0.0
vn -1.0 0.0 0.0
vn -1.0 0.0 0.0
vn -1.0 0.0 0.0
vt 0.3826627 0.33350015
vt 0.44426608 0.22891349
vt 0.44426608 0.33350015
vt 0.3826627 0.22891349
vt 0.3324735 0.33101463
vt 0.26596138 0.32781136
vt 0.32927024 0.32781136
vt 0.2627581 0.33101463
vt 0.3324735 0.2171259
vt 0.32927024 0.22032928
vt 0.26596138 0.22032928
vt 0.2627581 0.2171259
vt 0.3410554 0.1774835
vt 0.40145344 0.18115067
vt 0.3410554 0.18115067
vt 0.40145344 0.1774835
vt 0.34099483 0.19358975
vt 0.44353515 0.19725686
vt 0.34099483 0.19725686
vt 0.44353515 0.19358975
vt 0.34099483 0.18231076
vt 0.40139297 0.18597794
vt 0.34099483 0.18597794
vt 0.40139297 0.18231076
vt 0.34099483 0.18795025
vt 0.44353515 0.19161743
vt 0.34099483 0.19161743
vt 0.44353515 0.18795025
vt 0.36485034 0.33247292
vt 0.44387746 0.27688336
vt 0.44387746 0.33247292
vt 0.36485034 0.27688336
vt 0.22133484 0.33322293
vt 0.33476546 0.23933482
vt 0.33476546 0.33322293
vt 0.22133484 0.23933482
vt 0.2513568 0.33322293
vt 0.33476552 0.23933458
vt 0.33476552 0.33322293
vt 0.2513568 0.23933458
vt 0.22133484 0.33322293
vt 0.33476546 0.23933458
vt 0.33476546 0.33322293
vt 0.22133484 0.23933458
vt 0.2513568 0.33322293
vt 0.33476552 0.23933458
vt 0.33476552 0.33322293
vt 0.2513568 0.23933458
vt 0.24229334 0.32190078
vt 0.32834595 0.31700915
vt 0.33323753 0.32190078
vt 0.24718484 0.31700915
vt 0.32834595 0.2599184
vt 0.33323753 0.25502682
vt 0.24718484 0.2599184
vt 0.24229334 0.25502682
vt 0.3296668 0.32756114
vt 0.24850559 0.3322488
vt 0.24850559 0.32756114
vt 0.3296668 0.3322488
vt 0.3296668 0.32756114
vt 0.27257603 0.3322488
vt 0.27257603 0.32756114
vt 0.3296668 0.3322488
vt 0.3296668 0.32756114
vt 0.24850559 0.3322488
vt 0.24850559 0.32756114
vt 0.3296668 0.3322488
vt 0.3296668 0.32756114
vt 0.27257603 0.33224875
vt 0.27257603 0.32756114
vt 0.3296668 0.33224875
vt 0.88436216 0.6240337
vt 0.6726328 0.4361248
vt 0.88436216 0.4361248
vt 0.6726328 0.6240337
vt 0.99925476 0.6229094
vt 0.7856496 0.6229094
vt 0.99925476 0.43500042
vt 0.57204443 0.43500042
vt 0.57204443 0.6229094
vt 0.88477045 0.62439835
vt 0.6730411 0.43648934
vt 0.88477045 0.43648934
vt 0.6730411 0.62439835
vt 0.99999654 0.6252084
vt 0.7863914 0.6252084
vt 0.99999654 0.43729925
vt 0.57278615 0.43729925
vt 0.57278615 0.6252084
vt 0.54012907 0.04433626
vt 0.33094156 0.0010257959
vt 0.54012907 0.0010257959
vt 0.33094156 0.04433626
vt 0.54012907 0.04433626
vt 0.33094156 0.0010257959
vt 0.54012907 0.0010257959
vt 0.33094156 0.04433626
vt 0.54012907 0.04433626
vt 0.33094156 0.0010257959
vt 0.54012907 0.0010257959
vt 0.33094156 0.04433626
vt 0.54012907 0.04433626
vt 0.33094156 0.0010257959
vt 0.54012907 0.0010257959
vt 0.33094156 0.04433626
vt 0.54012907 0.04433626
vt 0.33094156 0.0010257959
vt 0.54012907 0.0010257959
vt 0.33094156 0.04433626
vt 0.54012907 0.04433626
vt 0.33094156 0.0010257959
vt 0.54012907 0.0010257959
vt 0.33094156 0.04433626
vt 0.51879084 0.2882678
vt 0.4797296 0.25356668
vt 0.54038477 0.25356668
vt 0.4797296 0.2882678
vt 0.54038477 0.2882678
vt 0.51879084 0.33229822
vt 0.4797296 0.2882678
vt 0.51879084 0.2882678
vt 0.4797296 0.33229822
vt 0.54038477 0.33229822
vt 0.54038477 0.2882678
vt 0.5405462 0.2882678
vt 0.4965012 0.25356668
vt 0.5405462 0.25356668
vt 0.4965012 0.2882678
vt 0.48033136 0.25356668
vt 0.52437633 0.2882678
vt 0.48033136 0.2882678
vt 0.52437633 0.25356668
vt 0.4797296 0.25073475
vt 0.54038477 0.2880897
vt 0.4797296 0.2880897
vt 0.54038477 0.25073475
vt 0.51879084 0.2882678
vt 0.4797296 0.25356668
vt 0.54038477 0.25356668
vt 0.4797296 0.2882678
vt 0.54038477 0.2882678
vt 0.51879084 0.33229822
vt 0.4797296 0.2882678
vt 0.51879084 0.2882678
vt 0.4797296 0.33229822
vt 0.54038477 0.33229822
vt 0.54038477 0.2882678
vt 0.5405462 0.2882678
vt 0.4965012 0.25356668
vt 0.5405462 0.25356668
vt 0.4965012 0.2882678
vt 0.48033136 0.25356668
vt 0.52437633 0.2882678
vt 0.48033136 0.2882678
vt 0.52437633 0.25356668
vt 0.4797296 0.25073475
vt 0.54038477 0.2880897
vt 0.4797296 0.2880897
vt 0.54038477 0.25073475
vt 0.5108246 0.16252619
vt 0.4836234 0.20027924
vt 0.4836234 0.16252619
vt 0.5108246 0.20027924
vt 0.5108246 0.13418722
vt 0.4836234 0.16252619
vt 0.4836234 0.13418722
vt 0.5108246 0.16252619
vt 0.45528442 0.16252619
vt 0.4836234 0.20027924
vt 0.45528442 0.20027924
vt 0.4836234 0.16252619
vt 0.4836234 0.2286182
vt 0.5108246 0.20027924
vt 0.5108246 0.2286182
vt 0.4836234 0.20027924
vt 0.53916353 0.20027924
vt 0.5108246 0.16252619
vt 0.53916353 0.16252619
vt 0.5108246 0.20027924
vt 0.5108246 0.16252619
vt 0.4836234 0.20027924
vt 0.4836234 0.16252619
vt 0.5108246 0.20027924
vt 0.5108246 0.13418722
vt 0.4836234 0.16252619
vt 0.4836234 0.13418722
vt 0.5108246 0.16252619
vt 0.45528442 0.16252619
vt 0.4836234 0.20027924
vt 0.45528442 0.20027924
vt 0.4836234 0.16252619
vt 0.4836234 0.2286182
vt 0.5108246 0.20027924
vt 0.5108246 0.2286182
vt 0.4836234 0.20027924
vt 0.53916353 0.20027924
vt 0.5108246 0.16252619
vt 0.53916353 0.16252619
vt 0.5108246 0.20027924
vt 0.45949695 0.33336198
vt 0.47652647 0.30348408
vt 0.47652647 0.33336198
vt 0.45949695 0.30348408
vt 0.47652647 0.33336198
vt 0.45949695 0.30348396
vt 0.47652647 0.30348396
vt 0.45949695 0.33336198
vt 0.44811836 0.26813257
vt 0.47911873 0.3343104
vt 0.47911873 0.26813257
vt 0.44811836 0.3343104
vt 0.47652635 0.27000678
vt 0.45949695 0.33336198
vt 0.45949695 0.27000678
vt 0.47652635 0.33336198
vt 0.47652623 0.27000678
vt 0.45949695 0.33336198
vt 0.45949695 0.27000678
vt 0.47652623 0.33336198
vt 0.45949695 0.33336198
vt 0.47652647 0.30348408
vt 0.47652647 0.33336198
vt 0.45949695 0.30348408
vt 0.47652647 0.33336198
vt 0.45949695 0.30348396
vt 0.47652647 0.30348396
vt 0.45949695 0.33336198
vt 0.47911873 0.26813257
vt 0.44811836 0.3343104
vt 0.44811836 0.26813257
vt 0.47911873 0.3343104
vt 0.47652635 0.27000678
vt 0.45949695 0.33336198
vt 0.45949695 0.27000678
vt 0.47652635 0.33336198
vt 0.47652623 0.27000678
vt 0.45949695 0.33336198
vt 0.45949695 0.27000678
vt 0.47652623 0.33336198

g Skyscraper_35
s 1
usemtl Skyscraper_35
f 3/3/3 2/2/2 1/1/1 
f 4/4/4 1/1/1 2/2/2 
f 7/7/7 6/6/6 5/5/5 
f 8/8/8 5/5/5 6/6/6 
f 5/5/5 9/9/9 7/7/7 
f 10/10/10 7/7/7 9/9/9 
f 10/10/10 9/9/9 11/11/11 
f 6/6/6 11/11/11 8/8/8 
f 12/12/12 11/11/11 9/9/9 
f 12/12/12 8/8/8 11/11/11 
f 15/15/15 14/14/14 13/13/13 
f 16/16/16 13/13/13 14/14/14 
f 19/19/19 18/18/18 17/17/17 
f 20/20/20 17/17/17 18/18/18 
f 23/23/23 22/22/22 21/21/21 
f 24/24/24 21/21/21 22/22/22 
f 27/27/27 26/26/26 25/25/25 
f 28/28/28 25/25/25 26/26/26 
f 31/31/31 30/30/30 29/29/29 
f 32/32/32 29/29/29 30/30/30 
f 35/35/35 34/34/34 33/33/33 
f 36/36/36 33/33/33 34/34/34 
f 39/39/39 38/38/38 37/37/37 
f 40/40/40 37/37/37 38/38/38 
f 43/43/43 42/42/42 41/41/41 
f 44/44/44 41/41/41 42/42/42 
f 47/47/47 46/46/46 45/45/45 
f 48/48/48 45/45/45 46/46/46 
f 51/51/51 50/50/50 49/49/49 
f 52/52/52 49/49/49 50/50/50 
f 50/50/50 51/51/51 53/53/53 
f 54/54/54 53/53/53 51/51/51 
f 53/53/53 54/54/54 55/55/55 
f 56/56/56 55/55/55 54/54/54 
f 49/49/49 52/52/52 56/56/56 
f 55/55/55 56/56/56 52/52/52 
f 59/59/59 58/58/58 57/57/57 
f 60/60/60 57/57/57 58/58/58 
f 63/63/63 62/62/62 61/61/61 
f 64/64/64 61/61/61 62/62/62 
f 67/67/67 66/66/66 65/65/65 
f 68/68/68 65/65/65 66/66/66 
f 71/71/71 70/70/70 69/69/69 
f 72/72/72 69/69/69 70/70/70 
f 75/75/75 74/74/74 73/73/73 
f 76/76/76 73/73/73 74/74/74 
f 79/79/79 78/78/78 77/77/77 
f 80/80/80 78/78/78 79/79/79 
f 81/81/81 78/78/78 80/80/80 
f 84/84/84 83/83/83 82/82/82 
f 85/85/85 82/82/82 83/83/83 
f 88/88/88 87/87/87 86/86/86 
f 89/89/89 87/87/87 88/88/88 
f 90/90/90 87/87/87 89/89/89 
f 93/93/93 92/92/92 91/91/91 
f 94/94/94 91/91/91 92/92/92 
f 97/97/97 96/96/96 95/95/95 
f 98/98/98 95/95/95 96/96/96 
f 101/101/101 100/100/100 99/99/99 
f 102/102/102 99/99/99 100/100/100 
f 105/105/105 104/104/104 103/103/103 
f 106/106/106 103/103/103 104/104/104 
f 109/109/109 108/108/108 107/107/107 
f 110/110/110 107/107/107 108/108/108 
f 113/113/113 112/112/112 111/111/111 
f 114/114/114 111/111/111 112/112/112 
f 117/117/117 116/116/116 115/115/115 
f 118/118/118 115/115/115 116/116/116 
f 119/119/119 117/117/117 115/115/115 
f 122/122/122 121/121/121 120/120/120 
f 123/123/123 120/120/120 121/121/121 
f 120/120/120 124/124/124 122/122/122 
f 125/125/125 122/122/122 124/124/124 
f 128/128/128 127/127/127 126/126/126 
f 129/129/129 126/126/126 127/127/127 
f 132/132/132 131/131/131 130/130/130 
f 133/133/133 130/130/130 131/131/131 
f 136/136/136 135/135/135 134/134/134 
f 137/137/137 134/134/134 135/135/135 
f 140/140/140 139/139/139 138/138/138 
f 141/141/141 138/138/138 139/139/139 
f 142/142/142 140/140/140 138/138/138 
f 145/145/145 144/144/144 143/143/143 
f 146/146/146 143/143/143 144/144/144 
f 143/143/143 147/147/147 145/145/145 
f 148/148/148 145/145/145 147/147/147 
f 151/151/151 150/150/150 149/149/149 
f 152/152/152 149/149/149 150/150/150 
f 155/155/155 154/154/154 153/153/153 
f 156/156/156 153/153/153 154/154/154 
f 159/159/159 158/158/158 157/157/157 
f 160/160/160 157/157/157 158/158/158 
f 163/163/163 162/162/162 161/161/161 
f 164/164/164 161/161/161 162/162/162 
f 167/167/167 166/166/166 165/165/165 
f 168/168/168 165/165/165 166/166/166 
f 171/171/171 170/170/170 169/169/169 
f 172/172/172 169/169/169 170/170/170 
f 175/175/175 174/174/174 173/173/173 
f 176/176/176 173/173/173 174/174/174 
f 179/179/179 178/178/178 177/177/177 
f 180/180/180 177/177/177 178/178/178 
f 183/183/183 182/182/182 181/181/181 
f 184/184/184 181/181/181 182/182/182 
f 187/187/187 186/186/186 185/185/185 
f 188/188/188 185/185/185 186/186/186 
f 191/191/191 190/190/190 189/189/189 
f 192/192/192 189/189/189 190/190/190 
f 195/195/195 194/194/194 193/193/193 
f 196/196/196 193/193/193 194/194/194 
f 199/199/199 198/198/198 197/197/197 
f 200/200/200 197/197/197 198/198/198 
f 203/203/203 202/202/202 201/201/201 
f 204/204/204 201/201/201 202/202/202 
f 207/207/207 206/206/206 205/205/205 
f 208/208/208 205/205/205 206/206/206 
f 211/211/211 210/210/210 209/209/209 
f 212/212/212 209/209/209 210/210/210 
f 215/215/215 214/214/214 213/213/213 
f 216/216/216 213/213/213 214/214/214 
f 219/219/219 218/218/218 217/217/217 
f 220/220/220 217/217/217 218/218/218 
f 223/223/223 222/222/222 221/221/221 
f 224/224/224 221/221/221 222/222/222 
f 227/227/227 226/226/226 225/225/225 
f 228/228/228 225/225/225 226/226/226 
f 231/231/231 230/230/230 229/229/229 
f 232/232/232 229/229/229 230/230/230 
f 235/235/235 234/234/234 233/233/233 
f 236/236/236 233/233/233 234/234/234 
f 239/239/239 238/238/238 237/237/237 
f 240/240/240 237/237/237 238/238/238 

