# Created by DisUnity v0.3.4
v -3.8159065 13.751752 -5.048198
v 3.865841 13.471521 -4.2433057
v -3.4548836 13.471521 -4.2433047
v 3.865841 13.751752 -5.048199
v -3.8158417 0.0023602662 -4.7996564
v 3.865841 3.474268 -4.7996573
v -3.815857 3.474268 -4.7996564
v 3.865841 0.0023602662 -4.7996573
v -3.8159065 13.1349 -4.7996564
v 3.865841 13.1349 -4.7996573
v -3.8158646 0.0024238694 5.04817
v -3.815857 3.474268 -4.7996564
v -3.815876 3.4995785 5.036385
v -3.8158417 0.0023602662 -4.7996564
v -3.815918 13.22038 5.0082984
v -3.8159065 13.1349 -4.7996564
v -3.8158646 0.0024238694 5.04817
v -0.13936615 3.4921985 5.035391
v 1.2517395 0.0024200534 5.0471516
v -3.815876 3.4995785 5.036385
v -3.4548302 13.19542 5.007362
v 3.8658333 13.195342 4.9867535
v 3.8658333 3.4921212 5.0147758
v -3.815918 13.22038 5.0082984
v 3.8658333 0.002343093 5.0265336
v -3.4548302 13.19542 5.007362
v 3.865841 13.0859785 -4.2851315
v 3.8658333 13.195342 4.9867535
v -3.4548836 13.0859785 -4.2851305
v 3.865841 13.471521 -4.2433057
v -3.4548836 13.0859785 -4.2851305
v -3.4548836 13.471521 -4.2433047
v 3.865841 13.0859785 -4.2851315
v -3.4548836 13.471521 -4.2433047
v -3.4548302 13.19542 5.007362
v -3.4549522 13.580802 5.005927
v -3.4548836 13.0859785 -4.2851305
v -3.815918 13.580805 5.0069447
v -3.4548836 13.471521 -4.2433047
v -3.4549522 13.580802 5.005927
v -3.8159065 13.751752 -5.048198
v -3.8159065 13.751752 -5.048198
v 3.865841 13.1349 -4.7996573
v 3.865841 13.751752 -5.048199
v -3.8159065 13.1349 -4.7996564
v -3.815918 13.580805 5.0069447
v -3.8159065 13.1349 -4.7996564
v -3.8159065 13.751752 -5.048198
v -3.815918 13.22038 5.0082984
v -3.4549522 13.580802 5.005927
v -3.815918 13.22038 5.0082984
v -3.815918 13.580805 5.0069447
v -3.4548302 13.19542 5.007362
v 3.865841 3.474268 -4.7996573
v 3.865841 0.00235963 -4.288459
v 3.865841 3.4598086 -4.287476
v 3.865841 0.0023602662 -4.7996573
v 3.865841 13.0859785 -4.2851315
v 3.8658333 3.4921212 5.0147758
v 3.8658333 13.195342 4.9867535
v 3.865841 13.1349 -4.7996573
v 3.8658333 0.002343093 5.0265336
v 3.865841 13.471521 -4.2433057
v 3.865841 13.1349 -4.7996573
v 3.865841 13.0859785 -4.2851315
v 3.865841 13.751752 -5.048199
v -2.1809578 12.971832 -2.2131147
v -2.8152275 14.08247 -2.2131147
v -2.8152275 12.971832 -2.2131143
v -2.1809578 14.08247 -2.2131147
v -2.4980927 12.971832 -1.8959779
v -2.4980927 14.08247 -2.530251
v -2.4980927 12.971832 -2.530251
v -2.4980927 14.08247 -1.8959779
v 1.0567665 13.781103 0.32863402
v 1.7985382 13.781103 1.0780491
v 1.0567665 13.781103 1.0780492
v 1.7985382 13.781103 0.3286339
v 1.0567665 13.047283 0.32863402
v 1.0567665 13.781103 1.0780492
v 1.0567665 13.047283 1.0780492
v 1.0567665 13.781103 0.32863402
v 1.0567665 13.047283 1.0780492
v 1.7985382 13.781103 1.0780491
v 1.797432 13.047283 1.0780491
v 1.0567665 13.781103 1.0780492
v 1.797432 13.047283 1.0780491
v 1.7985382 13.781103 0.3286339
v 1.797432 13.047283 0.3286339
v 1.7985382 13.781103 1.0780491
v 1.797432 13.047283 0.3286339
v 1.0567665 13.781103 0.32863402
v 1.0567665 13.047283 0.32863402
v 1.7985382 13.781103 0.3286339
v -3.8658066 4.750462 2.5865326
v -3.8658066 3.9308043 3.3659139
v -3.8658066 3.9308043 2.5865326
v -3.8658066 4.750462 3.3659139
v -3.8658066 4.750462 3.3659139
v -3.7784538 4.812987 2.524008
v -3.7784538 4.812987 3.4284387
v -3.8658066 4.750462 2.5865326
v -3.8658066 3.9308043 2.5865326
v -3.7784538 4.812987 2.524008
v -3.8658066 4.750462 2.5865326
v -3.7784538 3.8682795 2.524008
v -3.8658066 3.9308043 3.3659139
v -3.7784538 3.8682795 2.524008
v -3.8658066 3.9308043 2.5865326
v -3.7784538 3.8682795 3.4284387
v -3.8658066 4.750462 3.3659139
v -3.7784538 3.8682795 3.4284387
v -3.8658066 3.9308043 3.3659139
v -3.7784538 4.812987 3.4284387
vn 0.18896827 0.9506174 0.24620664
vn -0.0 0.9443993 0.32880065
vn 0.35546052 0.92123175 0.15805033
vn -0.0 0.9443993 0.32880068
vn -0.0 0.0 -1.0
vn -0.0 0.0 -1.0
vn -0.0 0.0 -1.0
vn -0.0 0.0 -1.0
vn -0.0 -0.19034229 -0.9817178
vn -0.0 -0.19034193 -0.9817178
vn -1.0 0.0 0.0
vn -1.0 0.0 0.0
vn -1.0 0.0 0.0
vn -1.0 0.0 0.0
vn -1.0 0.0 0.0
vn -1.0 0.0 0.0
vn 2.4034985E-4 0.0034086767 0.99999416
vn 2.484552E-4 0.0032495938 0.99999475
vn 2.0098872E-4 0.0034501436 0.99999404
vn 3.0661697E-4 0.0031751068 0.999995
vn 0.0028151127 0.003850479 0.9999887
vn 0.003396274 0.0036105863 0.9999877
vn 0.0057077887 0.003734737 0.99997675
vn 0.0028153907 0.0033329648 0.99999046
vn 0.007887041 0.0033691025 0.9999633
vn -1.2938086E-5 0.9999305 -0.011786811
vn -0.0 0.9999306 -0.011784156
vn -2.2520819E-5 0.9999305 -0.011794359
vn -0.0 0.9999306 -0.011776622
vn -0.0 -0.1078526 0.99416685
vn -0.0 -0.10785261 0.99416685
vn -0.0 -0.10785259 0.99416685
vn -0.0 -0.10785259 0.99416685
vn 1.0 3.167654E-4 0.0
vn 1.0 3.167654E-4 0.0
vn 1.0 3.167654E-4 0.0
vn 1.0 0.0 0.0
vn 0.018338945 0.9997702 -0.01109563
vn 0.35546052 0.92123175 0.15805033
vn -2.5379237E-5 0.99993026 -0.011814276
vn 0.18896827 0.9506174 0.24620664
vn -0.0 -0.37372428 -0.9275398
vn -0.0 -0.19034193 -0.9817178
vn -0.0 -0.37372422 -0.9275398
vn -0.0 -0.19034229 -0.9817178
vn -1.0 0.0 0.0
vn -1.0 0.0 0.0
vn -1.0 0.0 0.0
vn -1.0 0.0 0.0
vn 0.0028350074 0.0037399053 0.99998903
vn 0.0028153907 0.0033329648 0.99999046
vn 0.0028190215 0.0037559157 0.99998903
vn 0.002552463 0.0032603047 0.9999914
vn 1.0 0.0 0.0
vn 1.0 0.0 0.0
vn 1.0 0.0 0.0
vn 1.0 0.0 0.0
vn 1.0 0.0 0.0
vn 1.0 0.0 0.0
vn 1.0 0.0 0.0
vn 1.0 0.0 0.0
vn 1.0 0.0 0.0
vn 1.0 0.0 0.0
vn 1.0 0.0 0.0
vn 1.0 0.0 0.0
vn 1.0 0.0 0.0
vn -0.0 0.0 -1.0
vn -0.0 0.0 -1.0
vn -0.0 0.0 -1.0
vn -0.0 0.0 -1.0
vn 1.0 0.0 0.0
vn 1.0 0.0 0.0
vn 1.0 0.0 0.0
vn 1.0 0.0 0.0
vn -0.0 1.0 0.0
vn -0.0 1.0 0.0
vn -0.0 1.0 0.0
vn -0.0 1.0 0.0
vn -1.0 0.0 0.0
vn -1.0 0.0 0.0
vn -1.0 0.0 0.0
vn -1.0 0.0 0.0
vn -0.0 0.0 1.0
vn -0.0 0.0 1.0
vn -0.0 0.0 1.0
vn -0.0 0.0 1.0
vn 0.9999989 -0.0015075372 0.0
vn 0.9999989 -0.0015075372 0.0
vn 0.9999989 -0.0015075373 0.0
vn 0.9999989 -0.0015075373 0.0
vn -0.0 0.0 -1.0
vn -0.0 0.0 -1.0
vn -0.0 0.0 -1.0
vn -0.0 0.0 -1.0
vn -1.0 0.0 0.0
vn -1.0 0.0 0.0
vn -1.0 0.0 0.0
vn -1.0 0.0 0.0
vn -0.58203906 0.8131608 0.0
vn -0.58203906 0.81316084 0.0
vn -0.58203906 0.81316084 0.0
vn -0.58203906 0.81316084 0.0
vn -0.58203757 0.0 -0.81316185
vn -0.58203757 0.0 -0.81316185
vn -0.58203757 0.0 -0.81316185
vn -0.58203757 0.0 -0.81316185
vn -0.58203906 -0.81316084 0.0
vn -0.58203906 -0.8131608 0.0
vn -0.58203906 -0.81316084 0.0
vn -0.58203906 -0.81316084 0.0
vn -0.58203906 0.0 0.8131608
vn -0.58203906 0.0 0.8131608
vn -0.58203906 0.0 0.8131608
vn -0.58203906 0.0 0.81316084
vt 0.3467853 0.29701
vt 0.40113962 0.30308932
vt 0.34933499 0.30284268
vt 0.4011449 0.29705817
vt 0.12909013 0.4912166
vt 4.3022167E-4 0.43746185
vt 0.12909013 0.43712223
vt 4.3022167E-4 0.4914773
vt 0.12909012 0.30819786
vt 4.3022167E-4 0.30872554
vt 0.2823092 0.49115396
vt 0.12927836 0.43631732
vt 0.28206414 0.43633175
vt 0.12934116 0.49090087
vt 0.2814801 0.30567276
vt 0.1291287 0.3062271
vt 0.2823092 0.49115396
vt 0.33917207 0.4364463
vt 0.36102524 0.49115384
vt 0.28206414 0.43633175
vt 0.28708884 0.30606055
vt 0.40080234 0.30606174
vt 0.40138578 0.43644744
vt 0.2814801 0.30567276
vt 0.4016306 0.49115497
vt 0.88212264 0.048723936
vt 0.7584868 0.29619628
vt 0.75871414 0.048612833
vt 0.8818963 0.2952158
vt 0.40113962 0.30308932
vt 0.3493325 0.30578768
vt 0.34933499 0.30284268
vt 0.40113714 0.30583364
vt 0.2917002 0.30107105
vt 0.4013262 0.30546457
vt 0.4002867 0.30097377
vt 0.29122588 0.3056231
vt 0.3999573 0.29668504
vt 0.2917002 0.30107105
vt 0.4002867 0.30097377
vt 0.28190726 0.29679024
vt 0.12666477 0.29573184
vt 3.0121417E-5 0.307518
vt 3.0121417E-5 0.29652476
vt 0.12661976 0.30672514
vt 0.17441472 0.2972706
vt 0.022287417 0.30656236
vt 0.013951663 0.2958365
vt 0.17603078 0.30656236
vt 0.18065754 0.296499
vt 0.17603078 0.30656236
vt 0.17447883 0.29722816
vt 0.17917371 0.30656236
vt 0.281405 0.43759185
vt 0.27493843 0.49126393
vt 0.27465788 0.43721277
vt 0.281405 0.49197692
vt 0.2739892 0.3083914
vt 0.12955995 0.43734324
vt 0.12936024 0.30758476
vt 0.281405 0.30797464
vt 0.12964375 0.4917876
vt 0.019776354 0.29761183
vt 0.00988197 0.3077181
vt 0.020985123 0.30595958
vt 0.0013031363 0.29607195
vt 0.9538992 0.42037517
vt 0.97347665 0.3860942
vt 0.97347677 0.42037517
vt 0.9538992 0.3860942
vt 0.9538992 0.42037517
vt 0.97347665 0.3860942
vt 0.97347677 0.42037517
vt 0.9538992 0.3860942
vt 0.94941914 0.067724764
vt 0.9220865 0.04011029
vt 0.94941914 0.04011029
vt 0.9220865 0.067724764
vt 0.9508621 0.12808353
vt 0.8912369 0.068143964
vt 0.9508619 0.068143964
vt 0.891237 0.12808353
vt 0.9547386 0.042387784
vt 0.9980683 8.9275837E-4
vt 0.95463544 0.0010626316
vt 0.9981733 0.042387784
vt 0.9547386 0.042461514
vt 0.9980101 6.9981813E-4
vt 0.95457363 8.569956E-4
vt 0.9981733 0.042400956
vt 0.9508621 0.068143964
vt 0.891237 0.12808353
vt 0.9508621 0.12808353
vt 0.891237 0.068143964
vt 0.957035 0.3676098
vt 0.97052056 0.38385963
vt 0.9569889 0.38277775
vt 0.9705667 0.36869162
vt 0.5226786 0.52692634
vt 0.4959955 0.5235217
vt 0.5246602 0.5235217
vt 0.49797714 0.52692634
vt 0.4964958 0.5262994
vt 0.5245591 0.5238945
vt 0.52245724 0.52722615
vt 0.4946368 0.52282625
vt 0.4972274 0.52703685
vt 0.52394104 0.5238808
vt 0.52192783 0.52726686
vt 0.49527755 0.52361405
vt 0.4972502 0.52735215
vt 0.5251911 0.5237973
vt 0.52322775 0.52721244
vt 0.49525023 0.52395827

g Small_Building
s 1
usemtl Small_Building
f 3/3/3 2/2/2 1/1/1 
f 4/4/4 1/1/1 2/2/2 
f 7/7/7 6/6/6 5/5/5 
f 8/8/8 5/5/5 6/6/6 
f 7/7/7 9/9/9 6/6/6 
f 10/10/10 6/6/6 9/9/9 
f 13/13/13 12/12/12 11/11/11 
f 14/14/14 11/11/11 12/12/12 
f 13/13/13 15/15/15 12/12/12 
f 16/16/16 12/12/12 15/15/15 
f 19/19/19 18/18/18 17/17/17 
f 20/20/20 17/17/17 18/18/18 
f 18/18/18 21/21/21 20/20/20 
f 21/21/21 18/18/18 22/22/22 
f 23/23/23 22/22/22 18/18/18 
f 18/18/18 19/19/19 23/23/23 
f 24/24/24 20/20/20 21/21/21 
f 25/25/25 23/23/23 19/19/19 
f 28/28/28 27/27/27 26/26/26 
f 29/29/29 26/26/26 27/27/27 
f 32/32/32 31/31/31 30/30/30 
f 33/33/33 30/30/30 31/31/31 
f 36/36/36 35/35/35 34/34/34 
f 37/37/37 34/34/34 35/35/35 
f 40/40/40 39/39/39 38/38/38 
f 41/41/41 38/38/38 39/39/39 
f 44/44/44 43/43/43 42/42/42 
f 45/45/45 42/42/42 43/43/43 
f 48/48/48 47/47/47 46/46/46 
f 49/49/49 46/46/46 47/47/47 
f 52/52/52 51/51/51 50/50/50 
f 53/53/53 50/50/50 51/51/51 
f 56/56/56 55/55/55 54/54/54 
f 57/57/57 54/54/54 55/55/55 
f 56/56/56 54/54/54 58/58/58 
f 56/56/56 58/58/58 59/59/59 
f 60/60/60 59/59/59 58/58/58 
f 61/61/61 58/58/58 54/54/54 
f 55/55/55 56/56/56 62/62/62 
f 59/59/59 62/62/62 56/56/56 
f 65/65/65 64/64/64 63/63/63 
f 66/66/66 63/63/63 64/64/64 
f 69/69/69 68/68/68 67/67/67 
f 70/70/70 67/67/67 68/68/68 
f 73/73/73 72/72/72 71/71/71 
f 74/74/74 71/71/71 72/72/72 
f 77/77/77 76/76/76 75/75/75 
f 78/78/78 75/75/75 76/76/76 
f 81/81/81 80/80/80 79/79/79 
f 82/82/82 79/79/79 80/80/80 
f 85/85/85 84/84/84 83/83/83 
f 86/86/86 83/83/83 84/84/84 
f 89/89/89 88/88/88 87/87/87 
f 90/90/90 87/87/87 88/88/88 
f 93/93/93 92/92/92 91/91/91 
f 94/94/94 91/91/91 92/92/92 
f 97/97/97 96/96/96 95/95/95 
f 98/98/98 95/95/95 96/96/96 
f 101/101/101 100/100/100 99/99/99 
f 102/102/102 99/99/99 100/100/100 
f 105/105/105 104/104/104 103/103/103 
f 106/106/106 103/103/103 104/104/104 
f 109/109/109 108/108/108 107/107/107 
f 110/110/110 107/107/107 108/108/108 
f 113/113/113 112/112/112 111/111/111 
f 114/114/114 111/111/111 112/112/112 

