# Created by DisUnity v0.3.4
v -1.0 0.0 0.0
v -0.853553 -0.382683 0.353553
v -0.92388 -0.382683 0.0
v -0.92388 0.0 0.382683
v -0.653281 -0.707107 0.270598
v -0.707107 -0.707107 0.0
v -0.353553 -0.92388 0.146447
v -0.382683 -0.92388 0.0
v -0.92388 0.382684 0.0
v -0.853553 0.382684 0.353553
v -0.707107 0.707107 0.0
v -0.653281 0.707107 0.270598
v -0.382683 0.92388 0.0
v -0.353553 0.92388 0.146446
v -0.5 0.707107 0.5
v -0.270598 0.92388 0.270598
v -0.5 -0.707107 0.5
v -0.653282 -0.382683 0.653281
v -0.653282 0.382684 0.653281
v -0.270598 -0.92388 0.270598
v -0.707107 0.0 0.707107
v -0.270598 0.707107 0.653281
v -0.146447 0.92388 0.353553
v -0.270598 -0.707107 0.653281
v -0.353553 -0.382683 0.853553
v -0.353553 0.382684 0.853553
v -0.146447 -0.92388 0.353553
v -0.382683 0.0 0.923879
v -0.0 0.707107 0.707106
v -0.0 0.92388 0.382683
v -0.0 -0.707107 0.707107
v -0.0 -0.382683 0.923879
v -0.0 0.382684 0.923879
v -0.0 -0.92388 0.382683
v -0.0 0.0 1.0
v 0.270598 0.707107 0.653281
v 0.146446 0.92388 0.353553
v 0.270598 -0.707107 0.653281
v 0.353553 -0.382683 0.853553
v 0.353553 0.382684 0.853553
v 0.146446 -0.92388 0.353553
v 0.382683 0.0 0.923879
v 0.5 0.707107 0.5
v 0.270598 0.92388 0.270598
v 0.5 -0.707107 0.5
v 0.653281 -0.382683 0.653281
v 0.653281 0.382684 0.653281
v 0.270598 -0.92388 0.270598
v 0.707106 0.0 0.707106
v 0.653281 0.707107 0.270598
v 0.353553 0.92388 0.146446
v 0.653281 -0.707107 0.270598
v 0.853553 -0.382683 0.353553
v 0.853553 0.382684 0.353553
v 0.353553 -0.92388 0.146447
v 0.923879 0.0 0.382683
v 0.707106 0.707107 0.0
v 0.382683 0.92388 0.0
v 0.707106 -0.707107 0.0
v 0.923879 -0.382683 0.0
v 0.923879 0.382684 0.0
v 0.382683 -0.92388 0.0
v 0.999999 0.0 0.0
v 0.653281 0.707107 -0.270598
v 0.353553 0.92388 -0.146447
v 0.653281 -0.707107 -0.270598
v 0.853553 -0.382683 -0.353553
v 0.853553 0.382683 -0.353553
v 0.353553 -0.92388 -0.146446
v 0.923879 0.0 -0.382683
v 0.5 0.707107 -0.5
v 0.270598 0.92388 -0.270598
v 0.5 -0.707107 -0.5
v 0.653281 -0.382683 -0.653281
v 0.653281 0.382683 -0.653281
v 0.270598 -0.92388 -0.270598
v 0.707106 0.0 -0.707106
v 0.270598 0.707107 -0.653281
v 0.146446 0.92388 -0.353553
v 0.270598 -0.707107 -0.653281
v 0.353553 -0.382683 -0.853553
v 0.353553 0.382683 -0.853553
v 0.146446 -0.92388 -0.353553
v 0.382683 0.0 -0.923879
v -0.0 0.707107 -0.707106
v -0.0 0.92388 -0.382683
v -0.0 -0.707107 -0.707106
v -0.0 -0.382683 -0.923879
v -0.0 0.382683 -0.923879
v -0.0 -0.92388 -0.382683
v -0.0 0.0 -0.999999
v -0.0 -1.0 0.0
v -0.0 1.0 0.0
v -0.0 -1.0 0.0
v -0.0 -1.0 0.0
v -0.0 -1.0 0.0
v -0.0 -1.0 0.0
v -0.0 -1.0 0.0
v -0.0 -1.0 0.0
v -0.0 -1.0 0.0
v -0.0 -1.0 0.0
v -0.0 -1.0 0.0
v -0.653281 -0.707107 -0.270598
v -0.853553 -0.382683 -0.353553
v -0.653281 -0.382683 -0.653281
v -0.5 -0.707107 -0.5
v -0.353553 -0.382683 -0.853553
v -0.270598 -0.707107 -0.653281
v -0.0 -0.382683 -0.923879
v -0.0 -0.707107 -0.707106
v -0.146447 -0.92388 -0.353553
v -0.0 -0.92388 -0.382683
v -0.0 0.0 -0.999999
v -0.382683 0.0 -0.923879
v -0.0 0.382683 -0.923879
v -0.353553 0.382683 -0.853553
v -0.0 0.707107 -0.707106
v -0.270598 0.707107 -0.653281
v -0.0 0.92388 -0.382683
v -0.146447 0.92388 -0.353553
v -0.5 0.707107 -0.5
v -0.270598 0.92388 -0.270598
v -0.653281 0.382683 -0.653281
v -0.270598 -0.92388 -0.270598
v -0.707107 0.0 -0.707106
v -0.653281 0.707107 -0.270598
v -0.353553 0.92388 -0.146447
v -0.853553 0.382683 -0.353553
v -0.923879 0.0 -0.382683
v -0.0 1.0 0.0
v -0.0 1.0 0.0
v -0.0 1.0 0.0
v -0.0 1.0 0.0
v -0.0 1.0 0.0
v -0.0 1.0 0.0
v -0.0 1.0 0.0
v -0.0 1.0 0.0
v -0.0 1.0 0.0
v -0.0 1.0 0.0
v -0.0 1.0 0.0
v -0.0 1.0 0.0
v -0.0 1.0 0.0
v -0.0 1.0 0.0
v -0.353553 -0.92388 -0.146446
v -0.0 -1.0 0.0
v -0.0 -1.0 0.0
v -0.0 -1.0 0.0
v -0.0 -1.0 0.0
vn -1.0 0.0 0.0
vn -0.8567063 -0.3743493 0.3548475
vn -0.9272891 -0.374346 0.0
vn -0.92388034 0.0 0.38268155
vn -0.6641274 -0.6951654 0.2750997
vn -0.71884906 -0.6951662 0.0
vn -0.37239107 -0.91516894 0.1542423
vn -0.40308937 -0.9151606 0.0
vn -0.9272891 0.374346 0.0
vn -0.8567063 0.3743493 0.3548475
vn -0.71884906 0.6951662 0.0
vn -0.6641274 0.6951654 0.2750997
vn -0.40308937 0.9151606 0.0
vn -0.37239107 0.91516894 0.1542423
vn -0.5083002 0.6951704 0.5083002
vn -0.2850153 0.91516805 0.2850153
vn -0.5083002 -0.6951704 0.5083002
vn -0.6556893 -0.37435696 0.6556893
vn -0.6556893 0.37435696 0.6556893
vn -0.2850153 -0.91516805 0.2850153
vn -0.70710677 0.0 0.70710677
vn -0.2750997 0.6951654 0.6641274
vn -0.1542423 0.91516894 0.37239107
vn -0.2750997 -0.6951654 0.6641274
vn -0.3548475 -0.3743493 0.8567063
vn -0.3548475 0.3743493 0.8567063
vn -0.1542423 -0.91516894 0.37239107
vn -0.38268155 0.0 0.92388034
vn -0.0 0.6951662 0.71884906
vn -0.0 0.9151606 0.40308937
vn -0.0 -0.6951662 0.71884906
vn -0.0 -0.374346 0.9272891
vn -0.0 0.374346 0.9272891
vn -0.0 -0.9151606 0.40308937
vn -0.0 0.0 1.0
vn 0.2750997 0.6951654 0.6641274
vn 0.1542423 0.91516894 0.37239107
vn 0.2750997 -0.6951654 0.6641274
vn 0.3548475 -0.3743493 0.8567063
vn 0.3548475 0.3743493 0.8567063
vn 0.1542423 -0.91516894 0.37239107
vn 0.38268155 0.0 0.92388034
vn 0.5083002 0.6951704 0.5083002
vn 0.2850153 0.91516805 0.2850153
vn 0.5083002 -0.6951704 0.5083002
vn 0.6556893 -0.37435696 0.6556893
vn 0.6556893 0.37435696 0.6556893
vn 0.2850153 -0.91516805 0.2850153
vn 0.70710677 0.0 0.70710677
vn 0.6641274 0.6951654 0.2750997
vn 0.37239107 0.91516894 0.1542423
vn 0.6641274 -0.6951654 0.2750997
vn 0.8567063 -0.3743493 0.3548475
vn 0.8567063 0.3743493 0.3548475
vn 0.37239107 -0.91516894 0.1542423
vn 0.92388034 0.0 0.38268155
vn 0.71884906 0.6951662 0.0
vn 0.40308937 0.9151606 0.0
vn 0.71884906 -0.6951662 0.0
vn 0.9272891 -0.374346 0.0
vn 0.9272891 0.374346 0.0
vn 0.40308937 -0.9151606 0.0
vn 1.0 0.0 0.0
vn 0.6641274 0.6951654 -0.2750997
vn 0.37239107 0.91516894 -0.1542423
vn 0.6641274 -0.6951654 -0.2750997
vn 0.8567063 -0.3743493 -0.3548475
vn 0.8567063 0.3743493 -0.3548475
vn 0.37239107 -0.91516894 -0.1542423
vn 0.92388034 0.0 -0.38268155
vn 0.5083002 0.6951704 -0.5083002
vn 0.2850153 0.91516805 -0.2850153
vn 0.5083002 -0.6951704 -0.5083002
vn 0.6556893 -0.37435696 -0.6556893
vn 0.6556893 0.37435696 -0.6556893
vn 0.2850153 -0.91516805 -0.2850153
vn 0.70710677 0.0 -0.70710677
vn 0.2750997 0.6951654 -0.6641274
vn 0.1542423 0.91516894 -0.37239107
vn 0.2750997 -0.6951654 -0.6641274
vn 0.3548475 -0.3743493 -0.8567063
vn 0.3548475 0.3743493 -0.8567063
vn 0.1542423 -0.91516894 -0.37239107
vn 0.38268155 0.0 -0.92388034
vn -0.0 0.6951662 -0.71884906
vn -0.0 0.9151606 -0.40308937
vn -0.0 -0.6951662 -0.71884906
vn -0.0 -0.374346 -0.9272891
vn -0.0 0.374346 -0.9272891
vn -0.0 -0.9151606 -0.40308937
vn -0.0 0.0 -1.0
vn -0.0 -1.0 0.0
vn -0.0 1.0 0.0
vn -0.0 -1.0 0.0
vn -0.0 -1.0 0.0
vn -0.0 -1.0 0.0
vn -0.0 -1.0 0.0
vn -0.0 -1.0 0.0
vn -0.0 -1.0 0.0
vn -0.0 -1.0 0.0
vn -0.0 -1.0 0.0
vn -0.0 -1.0 0.0
vn -0.6641274 -0.6951654 -0.2750997
vn -0.8567063 -0.3743493 -0.3548475
vn -0.6556893 -0.37435696 -0.6556893
vn -0.5083002 -0.6951704 -0.5083002
vn -0.3548475 -0.3743493 -0.8567063
vn -0.2750997 -0.6951654 -0.6641274
vn -0.0 -0.374346 -0.9272891
vn -0.0 -0.6951662 -0.71884906
vn -0.1542423 -0.91516894 -0.37239107
vn -0.0 -0.9151606 -0.40308937
vn -0.0 0.0 -1.0
vn -0.38268155 0.0 -0.92388034
vn -0.0 0.374346 -0.9272891
vn -0.3548475 0.3743493 -0.8567063
vn -0.0 0.6951662 -0.71884906
vn -0.2750997 0.6951654 -0.6641274
vn -0.0 0.9151606 -0.40308937
vn -0.1542423 0.91516894 -0.37239107
vn -0.5083002 0.6951704 -0.5083002
vn -0.2850153 0.91516805 -0.2850153
vn -0.6556893 0.37435696 -0.6556893
vn -0.2850153 -0.91516805 -0.2850153
vn -0.70710677 0.0 -0.70710677
vn -0.6641274 0.6951654 -0.2750997
vn -0.37239107 0.91516894 -0.1542423
vn -0.8567063 0.3743493 -0.3548475
vn -0.92388034 0.0 -0.38268155
vn -0.0 1.0 0.0
vn -0.0 1.0 0.0
vn -0.0 1.0 0.0
vn -0.0 1.0 0.0
vn -0.0 1.0 0.0
vn -0.0 1.0 0.0
vn -0.0 1.0 0.0
vn -0.0 1.0 0.0
vn -0.0 1.0 0.0
vn -0.0 1.0 0.0
vn -0.0 1.0 0.0
vn -0.0 1.0 0.0
vn -0.0 1.0 0.0
vn -0.0 1.0 0.0
vn -0.37239107 -0.91516894 -0.1542423
vn -0.0 -1.0 0.0
vn -0.0 -1.0 0.0
vn -0.0 -1.0 0.0
vn -0.0 -1.0 0.0
vt 0.25 0.5
vt 0.3125 0.625
vt 0.25 0.625
vt 0.3125 0.5
vt 0.3125 0.75
vt 0.25 0.75
vt 0.3125 0.875
vt 0.25 0.875
vt 0.25 0.375
vt 0.3125 0.375
vt 0.25 0.25
vt 0.3125 0.25
vt 0.25 0.125
vt 0.3125 0.125
vt 0.375 0.25
vt 0.375 0.125
vt 0.375 0.75
vt 0.375 0.625
vt 0.375 0.375
vt 0.375 0.875
vt 0.375 0.5
vt 0.4375 0.25
vt 0.4375 0.125
vt 0.4375 0.75
vt 0.4375 0.625
vt 0.4375 0.375
vt 0.4375 0.875
vt 0.4375 0.5
vt 0.5 0.25
vt 0.5 0.125
vt 0.5 0.75
vt 0.5 0.625
vt 0.5 0.375
vt 0.5 0.875
vt 0.5 0.5
vt 0.5625 0.25
vt 0.5625 0.125
vt 0.5625 0.75
vt 0.5625 0.625
vt 0.5625 0.375
vt 0.5625 0.875
vt 0.5625 0.5
vt 0.625 0.25
vt 0.625 0.125
vt 0.625 0.75
vt 0.625 0.625
vt 0.625 0.375
vt 0.625 0.875
vt 0.625 0.5
vt 0.6875 0.25
vt 0.6875 0.125
vt 0.6875 0.75
vt 0.6875 0.625
vt 0.6875 0.375
vt 0.6875 0.875
vt 0.6875 0.5
vt 0.75 0.25
vt 0.75 0.125
vt 0.75 0.75
vt 0.75 0.625
vt 0.75 0.375
vt 0.75 0.875
vt 0.75 0.5
vt 0.8125 0.25
vt 0.8125 0.125
vt 0.8125 0.75
vt 0.8125 0.625
vt 0.8125 0.375
vt 0.8125 0.875
vt 0.8125 0.5
vt 0.875 0.25
vt 0.875 0.125
vt 0.875 0.75
vt 0.875 0.625
vt 0.875 0.375
vt 0.875 0.875
vt 0.875 0.5
vt 0.9375 0.25
vt 0.9375 0.125
vt 0.9375 0.75
vt 0.9375 0.625
vt 0.9375 0.375
vt 0.9375 0.875
vt 0.9375 0.5
vt 1.0 0.25
vt 1.0 0.125
vt 1.0 0.75
vt 1.0 0.625
vt 1.0 0.375
vt 1.0 0.875
vt 1.0 0.5
vt 1.215956 1.0
vt 1.176208 0.0
vt 1.215956 1.0
vt 1.215956 1.0
vt 0.215956 1.0
vt 0.215956 1.0
vt 0.215956 1.0
vt 0.215956 1.0
vt 0.215956 1.0
vt 0.215956 1.0
vt 0.215956 1.0
vt 0.1875 0.75
vt 0.1875 0.625
vt 0.125 0.625
vt 0.125 0.75
vt 0.0625 0.625
vt 0.0625 0.75
vt 0.0 0.625
vt 0.0 0.75
vt 0.0625 0.875
vt 0.0 0.875
vt 0.0 0.5
vt 0.0625 0.5
vt 0.0 0.375
vt 0.0625 0.375
vt 0.0 0.25
vt 0.0625 0.25
vt 0.0 0.125
vt 0.0625 0.125
vt 0.125 0.25
vt 0.125 0.125
vt 0.125 0.375
vt 0.125 0.875
vt 0.125 0.5
vt 0.1875 0.25
vt 0.1875 0.125
vt 0.1875 0.375
vt 0.1875 0.5
vt 0.176208 0.0
vt 0.176208 0.0
vt 0.176208 0.0
vt 0.176208 0.0
vt 0.176208 0.0
vt 0.176208 0.0
vt 0.176208 0.0
vt 0.176208 0.0
vt 0.176208 0.0
vt 0.176208 0.0
vt 1.176208 0.0
vt 1.176208 0.0
vt 1.176208 0.0
vt 1.176208 0.0
vt 0.1875 0.875
vt 0.215956 1.0
vt 0.215956 1.0
vt 0.215956 1.0
vt 0.215956 1.0

g Sphere
s 1
usemtl Sphere
f 3/3/3 2/2/2 1/1/1 
f 2/2/2 4/4/4 1/1/1 
f 5/5/5 2/2/2 3/3/3 
f 6/6/6 5/5/5 3/3/3 
f 7/7/7 5/5/5 6/6/6 
f 8/8/8 7/7/7 6/6/6 
f 1/1/1 4/4/4 9/9/9 
f 4/4/4 10/10/10 9/9/9 
f 9/9/9 10/10/10 11/11/11 
f 10/10/10 12/12/12 11/11/11 
f 11/11/11 12/12/12 13/13/13 
f 12/12/12 14/14/14 13/13/13 
f 12/12/12 15/15/15 14/14/14 
f 15/15/15 16/16/16 14/14/14 
f 5/5/5 17/17/17 2/2/2 
f 17/17/17 18/18/18 2/2/2 
f 10/10/10 19/19/19 12/12/12 
f 19/19/19 15/15/15 12/12/12 
f 7/7/7 20/20/20 5/5/5 
f 20/20/20 17/17/17 5/5/5 
f 21/21/21 19/19/19 10/10/10 
f 4/4/4 21/21/21 10/10/10 
f 18/18/18 21/21/21 4/4/4 
f 2/2/2 18/18/18 4/4/4 
f 15/15/15 22/22/22 16/16/16 
f 22/22/22 23/23/23 16/16/16 
f 17/17/17 24/24/24 18/18/18 
f 24/24/24 25/25/25 18/18/18 
f 18/18/18 25/25/25 21/21/21 
f 19/19/19 26/26/26 15/15/15 
f 26/26/26 22/22/22 15/15/15 
f 20/20/20 27/27/27 17/17/17 
f 27/27/27 24/24/24 17/17/17 
f 21/21/21 28/28/28 19/19/19 
f 28/28/28 26/26/26 19/19/19 
f 25/25/25 28/28/28 21/21/21 
f 22/22/22 29/29/29 23/23/23 
f 29/29/29 30/30/30 23/23/23 
f 24/24/24 31/31/31 25/25/25 
f 31/31/31 32/32/32 25/25/25 
f 25/25/25 32/32/32 28/28/28 
f 26/26/26 33/33/33 22/22/22 
f 33/33/33 29/29/29 22/22/22 
f 27/27/27 34/34/34 24/24/24 
f 34/34/34 31/31/31 24/24/24 
f 28/28/28 35/35/35 26/26/26 
f 35/35/35 33/33/33 26/26/26 
f 32/32/32 35/35/35 28/28/28 
f 29/29/29 36/36/36 30/30/30 
f 36/36/36 37/37/37 30/30/30 
f 31/31/31 38/38/38 32/32/32 
f 38/38/38 39/39/39 32/32/32 
f 32/32/32 39/39/39 35/35/35 
f 33/33/33 40/40/40 29/29/29 
f 40/40/40 36/36/36 29/29/29 
f 34/34/34 41/41/41 31/31/31 
f 41/41/41 38/38/38 31/31/31 
f 35/35/35 42/42/42 33/33/33 
f 42/42/42 40/40/40 33/33/33 
f 39/39/39 42/42/42 35/35/35 
f 36/36/36 43/43/43 37/37/37 
f 43/43/43 44/44/44 37/37/37 
f 38/38/38 45/45/45 39/39/39 
f 45/45/45 46/46/46 39/39/39 
f 39/39/39 46/46/46 42/42/42 
f 40/40/40 47/47/47 36/36/36 
f 47/47/47 43/43/43 36/36/36 
f 41/41/41 48/48/48 38/38/38 
f 48/48/48 45/45/45 38/38/38 
f 42/42/42 49/49/49 40/40/40 
f 49/49/49 47/47/47 40/40/40 
f 46/46/46 49/49/49 42/42/42 
f 43/43/43 50/50/50 44/44/44 
f 50/50/50 51/51/51 44/44/44 
f 45/45/45 52/52/52 46/46/46 
f 52/52/52 53/53/53 46/46/46 
f 46/46/46 53/53/53 49/49/49 
f 47/47/47 54/54/54 43/43/43 
f 54/54/54 50/50/50 43/43/43 
f 48/48/48 55/55/55 45/45/45 
f 55/55/55 52/52/52 45/45/45 
f 49/49/49 56/56/56 47/47/47 
f 56/56/56 54/54/54 47/47/47 
f 53/53/53 56/56/56 49/49/49 
f 50/50/50 57/57/57 51/51/51 
f 57/57/57 58/58/58 51/51/51 
f 52/52/52 59/59/59 53/53/53 
f 59/59/59 60/60/60 53/53/53 
f 53/53/53 60/60/60 56/56/56 
f 54/54/54 61/61/61 50/50/50 
f 61/61/61 57/57/57 50/50/50 
f 55/55/55 62/62/62 52/52/52 
f 62/62/62 59/59/59 52/52/52 
f 56/56/56 63/63/63 54/54/54 
f 63/63/63 61/61/61 54/54/54 
f 60/60/60 63/63/63 56/56/56 
f 57/57/57 64/64/64 58/58/58 
f 64/64/64 65/65/65 58/58/58 
f 59/59/59 66/66/66 60/60/60 
f 66/66/66 67/67/67 60/60/60 
f 60/60/60 67/67/67 63/63/63 
f 61/61/61 68/68/68 57/57/57 
f 68/68/68 64/64/64 57/57/57 
f 62/62/62 69/69/69 59/59/59 
f 69/69/69 66/66/66 59/59/59 
f 63/63/63 70/70/70 61/61/61 
f 70/70/70 68/68/68 61/61/61 
f 67/67/67 70/70/70 63/63/63 
f 64/64/64 71/71/71 65/65/65 
f 71/71/71 72/72/72 65/65/65 
f 66/66/66 73/73/73 67/67/67 
f 73/73/73 74/74/74 67/67/67 
f 67/67/67 74/74/74 70/70/70 
f 68/68/68 75/75/75 64/64/64 
f 75/75/75 71/71/71 64/64/64 
f 69/69/69 76/76/76 66/66/66 
f 76/76/76 73/73/73 66/66/66 
f 70/70/70 77/77/77 68/68/68 
f 77/77/77 75/75/75 68/68/68 
f 74/74/74 77/77/77 70/70/70 
f 71/71/71 78/78/78 72/72/72 
f 78/78/78 79/79/79 72/72/72 
f 73/73/73 80/80/80 74/74/74 
f 80/80/80 81/81/81 74/74/74 
f 74/74/74 81/81/81 77/77/77 
f 75/75/75 82/82/82 71/71/71 
f 82/82/82 78/78/78 71/71/71 
f 76/76/76 83/83/83 73/73/73 
f 83/83/83 80/80/80 73/73/73 
f 77/77/77 84/84/84 75/75/75 
f 84/84/84 82/82/82 75/75/75 
f 81/81/81 84/84/84 77/77/77 
f 78/78/78 85/85/85 79/79/79 
f 85/85/85 86/86/86 79/79/79 
f 80/80/80 87/87/87 81/81/81 
f 87/87/87 88/88/88 81/81/81 
f 81/81/81 88/88/88 84/84/84 
f 82/82/82 89/89/89 78/78/78 
f 89/89/89 85/85/85 78/78/78 
f 83/83/83 90/90/90 80/80/80 
f 90/90/90 87/87/87 80/80/80 
f 84/84/84 91/91/91 82/82/82 
f 91/91/91 89/89/89 82/82/82 
f 88/88/88 91/91/91 84/84/84 
f 92/92/92 83/83/83 76/76/76 
f 79/79/79 86/86/86 93/93/93 
f 94/94/94 90/90/90 83/83/83 
f 92/92/92 69/69/69 62/62/62 
f 92/92/92 76/76/76 69/69/69 
f 95/95/95 62/62/62 55/55/55 
f 96/96/96 55/55/55 48/48/48 
f 97/97/97 48/48/48 41/41/41 
f 98/98/98 41/41/41 34/34/34 
f 99/99/99 34/34/34 27/27/27 
f 100/100/100 27/27/27 20/20/20 
f 101/101/101 20/20/20 7/7/7 
f 102/102/102 7/7/7 8/8/8 
f 6/6/6 103/103/103 8/8/8 
f 103/103/103 6/6/6 104/104/104 
f 103/103/103 104/104/104 105/105/105 
f 106/106/106 103/103/103 105/105/105 
f 106/106/106 105/105/105 107/107/107 
f 108/108/108 106/106/106 107/107/107 
f 108/108/108 107/107/107 109/109/109 
f 110/110/110 108/108/108 109/109/109 
f 111/111/111 108/108/108 110/110/110 
f 112/112/112 111/111/111 110/110/110 
f 109/109/109 107/107/107 113/113/113 
f 107/107/107 114/114/114 113/113/113 
f 107/107/107 105/105/105 114/114/114 
f 113/113/113 114/114/114 115/115/115 
f 114/114/114 116/116/116 115/115/115 
f 115/115/115 116/116/116 117/117/117 
f 116/116/116 118/118/118 117/117/117 
f 117/117/117 118/118/118 119/119/119 
f 118/118/118 120/120/120 119/119/119 
f 118/118/118 121/121/121 120/120/120 
f 121/121/121 122/122/122 120/120/120 
f 116/116/116 123/123/123 118/118/118 
f 123/123/123 121/121/121 118/118/118 
f 111/111/111 124/124/124 108/108/108 
f 114/114/114 125/125/125 116/116/116 
f 125/125/125 123/123/123 116/116/116 
f 105/105/105 125/125/125 114/114/114 
f 121/121/121 126/126/126 122/122/122 
f 126/126/126 127/127/127 122/122/122 
f 123/123/123 128/128/128 121/121/121 
f 128/128/128 126/126/126 121/121/121 
f 125/125/125 129/129/129 123/123/123 
f 129/129/129 128/128/128 123/123/123 
f 105/105/105 104/104/104 125/125/125 
f 104/104/104 129/129/129 125/125/125 
f 119/119/119 120/120/120 130/130/130 
f 120/120/120 122/122/122 131/131/131 
f 122/122/122 127/127/127 132/132/132 
f 126/126/126 11/11/11 127/127/127 
f 11/11/11 13/13/13 127/127/127 
f 128/128/128 9/9/9 126/126/126 
f 9/9/9 11/11/11 126/126/126 
f 129/129/129 1/1/1 128/128/128 
f 1/1/1 9/9/9 128/128/128 
f 127/127/127 13/13/13 133/133/133 
f 104/104/104 3/3/3 129/129/129 
f 3/3/3 1/1/1 129/129/129 
f 6/6/6 3/3/3 104/104/104 
f 13/13/13 14/14/14 134/134/134 
f 14/14/14 16/16/16 135/135/135 
f 16/16/16 23/23/23 136/136/136 
f 23/23/23 30/30/30 137/137/137 
f 30/30/30 37/37/37 138/138/138 
f 37/37/37 44/44/44 139/139/139 
f 44/44/44 51/51/51 140/140/140 
f 51/51/51 58/58/58 141/141/141 
f 58/58/58 65/65/65 142/142/142 
f 65/65/65 72/72/72 142/142/142 
f 72/72/72 79/79/79 143/143/143 
f 124/124/124 106/106/106 108/108/108 
f 124/124/124 144/144/144 106/106/106 
f 144/144/144 103/103/103 106/106/106 
f 145/145/145 144/144/144 124/124/124 
f 103/103/103 144/144/144 8/8/8 
f 8/8/8 144/144/144 146/146/146 
f 147/147/147 124/124/124 111/111/111 
f 148/148/148 111/111/111 112/112/112 

