# Created by DisUnity v0.3.4
v 1.266554 0.6624613 -2.421137
v 1.365414 0.22537327 2.4211404
v 1.3183144 0.66245985 2.4211404
v 1.3169671 0.22537327 -2.421137
v 0.82172835 0.8172345 -2.421137
v 0.8701762 0.81723356 2.4211404
v 0.7949797 1.2227998 -2.421137
v 0.8145517 1.2227998 2.4211404
v 0.44197762 1.4168315 -2.4211369
v 0.46154678 1.416831 2.4211407
v 0.34558928 1.8666091 -2.4211369
v 0.34559047 1.8666091 2.4211407
v -0.0021904788 2.004929 -2.4211369
v -0.002191178 2.0049286 2.4211407
v 1.3169671 -0.0013594627 -2.421137
v 1.365414 0.22537327 2.4211404
v 1.3169671 0.22537327 -2.421137
v 1.3585776 -0.0013594627 2.4211404
v -1.3178643 0.6624594 -2.4211385
v -1.3306571 0.22537327 2.421141
v -1.3654326 0.22537279 -2.4211366
v -1.2807151 0.6624589 2.421139
v -0.8701929 0.81723404 -2.4211366
v -0.8354188 0.81723356 2.421141
v -0.7993611 1.2227988 -2.4211366
v -0.77979434 1.2227988 2.4211407
v -0.44635856 1.4168315 -2.4211369
v -0.42678988 1.416831 2.4211407
v -0.349975 1.8666091 -2.4211388
v -0.3499757 1.8666091 2.4211388
v -0.0021904788 2.004929 -2.4211369
v -0.002191178 2.0049286 2.4211407
v -1.3654326 -0.0013594627 -2.4211366
v -1.3306571 0.22537327 2.421141
v -1.3238221 -0.0013594627 2.421141
v -1.3654326 0.22537279 -2.4211366
v -1.3654326 -0.0013594627 -2.4211366
v 1.3585776 -0.0013594627 2.4211404
v 1.3169671 -0.0013594627 -2.421137
v -1.3238221 -0.0013594627 2.421141
v -0.44635856 1.4168315 -2.4211369
v 0.34558928 1.8666091 -2.4211369
v -0.349975 1.8666091 -2.4211388
v 0.44197762 1.4168315 -2.4211369
v 0.7949797 1.2227998 -2.421137
v -0.7993611 1.2227988 -2.4211366
v 0.82172835 0.8172345 -2.421137
v -0.8701929 0.81723404 -2.4211366
v 1.266554 0.6624613 -2.421137
v -1.3178643 0.6624594 -2.4211385
v 1.3169671 0.22537327 -2.421137
v -1.3654326 0.22537279 -2.4211366
v -0.0021904788 2.004929 -2.4211369
v -1.3238221 -0.0013594627 2.421141
v 1.365414 0.22537327 2.4211404
v 1.3585776 -0.0013594627 2.4211404
v -1.3306571 0.22537327 2.421141
v 0.34559047 1.8666091 2.4211407
v -0.42678988 1.416831 2.4211407
v -0.3499757 1.8666091 2.4211388
v 0.46154678 1.416831 2.4211407
v -0.77979434 1.2227988 2.4211407
v 0.8145517 1.2227998 2.4211404
v 0.8701762 0.81723356 2.4211404
v -0.8354188 0.81723356 2.421141
v -1.2807151 0.6624589 2.421139
v 1.3183144 0.66245985 2.4211404
v -1.3306571 0.22537327 2.421141
v 1.365414 0.22537327 2.4211404
v -0.002191178 2.0049286 2.4211407
v 1.3169671 -0.0013594627 -2.421137
v -1.3654326 0.22537279 -2.4211366
v -1.3654326 -0.0013594627 -2.4211366
v 1.3169671 0.22537327 -2.421137
vn 0.7791499 0.6267872 -0.007951542
vn 0.9941421 0.107561424 -0.010587396
vn 0.78350645 0.62132883 -0.008251397
vn 0.9933651 0.11457335 -0.009938598
vn 0.7967494 0.60425556 -0.008097452
vn 0.77281594 0.6346146 -0.004457047
vn 0.8421004 0.5392804 -0.006606986
vn 0.8244233 0.5659639 -0.0033320435
vn 0.8026742 0.596409 -0.0032439923
vn 0.79020643 0.6128396 -0.0011922495
vn 0.7629452 0.6464597 -0.0021023436
vn 0.7502968 0.66110116 0.0
vn -0.0 1.0 0.0
vn -0.0 1.0 0.0
vn 0.99994993 0.0 -0.010004479
vn 0.99994993 0.0 -0.010004479
vn 0.99994993 0.0 -0.0100044785
vn 0.99950886 -0.030137058 -0.008588944
vn -0.7827549 0.6223037 0.0057327314
vn -0.9935417 0.113212444 0.0075942287
vn -0.9941048 0.10818889 0.0071392935
vn -0.7796265 0.626217 0.005891773
vn -0.7603832 0.6494511 0.005548147
vn -0.7739282 0.63326186 0.0038283055
vn -0.81448895 0.58015835 0.004918024
vn -0.8236821 0.56704193 0.0033284982
vn -0.8019162 0.5974278 0.00324063
vn -0.81428504 0.580464 0.001210846
vn -0.7645661 0.6445418 0.0021074438
vn -0.77712893 0.6293414 0.0
vn -0.0 1.0 0.0
vn -0.0 1.0 0.0
vn -0.9995091 -0.030130755 0.008588945
vn -0.9995091 -0.030130757 0.008588946
vn -0.9995091 -0.030130755 0.0085889455
vn -0.99997425 0.0 0.0071814554
vn -0.0 -1.0 0.0
vn -0.0 -1.0 0.0
vn -0.0 -1.0 0.0
vn -0.0 -1.0 0.0
vn -0.0 0.0 -1.0
vn -0.0 0.0 -1.0
vn -0.0 0.0 -1.0
vn -0.0 0.0 -1.0
vn -0.0 0.0 -1.0
vn -0.0 0.0 -1.0
vn -0.0 0.0 -1.0
vn -0.0 0.0 -1.0
vn -0.0 1.0722427E-5 -1.0
vn -0.0 1.0722427E-5 -1.0
vn -0.0 0.0 -1.0
vn -0.0 0.0 -1.0
vn -0.0 0.0 -1.0
vn -0.0 0.0 1.0
vn -0.0 0.0 1.0
vn -0.0 0.0 1.0
vn -0.0 0.0 1.0
vn -0.0 0.0 1.0
vn -0.0 0.0 1.0
vn -0.0 0.0 1.0
vn -0.0 0.0 1.0
vn -0.0 0.0 1.0
vn -0.0 0.0 1.0
vn -0.0 0.0 1.0
vn -0.0 0.0 1.0
vn -0.0 -1.31277375E-5 1.0
vn -0.0 0.0 1.0
vn -0.0 0.0 1.0
vn -0.0 0.0 1.0
vn -0.0 0.0 1.0
vn -0.0 0.0 -1.0
vn -0.0 0.0 -1.0
vn -0.0 0.0 -1.0
vn -0.0 0.0 -1.0
vt 0.32082903 0.6126888
vt 0.39094788 0.6266943
vt 0.39094788 0.6126888
vt 0.32082903 0.6266943
vt 0.32082903 0.6046231
vt 0.39094788 0.6046231
vt 0.32082903 0.5993034
vt 0.39094788 0.5993034
vt 0.32082903 0.5831804
vt 0.39094788 0.5831804
vt 0.31948572 0.5727927
vt 0.38960457 0.5727927
vt 0.31948572 0.56400037
vt 0.38960457 0.56400037
vt 0.3903127 0.5615711
vt 0.2753336 0.5579399
vt 0.3903127 0.5579399
vt 0.2753336 0.56157124
vt 0.38827637 0.6126888
vt 0.31815752 0.6266943
vt 0.38827637 0.6266943
vt 0.31815752 0.6126888
vt 0.38827637 0.604626
vt 0.31815752 0.604626
vt 0.38827637 0.59930634
vt 0.31815752 0.59930634
vt 0.38827637 0.5853692
vt 0.31815752 0.5853692
vt 0.38827637 0.5751169
vt 0.31815752 0.5751169
vt 0.38827637 0.5641358
vt 0.31815752 0.5641358
vt 0.39015463 0.56154317
vt 0.27517554 0.5579119
vt 0.27517554 0.56154317
vt 0.39015463 0.5579119
vt 0.62677276 0.5632043
vt 0.5392336 0.5022846
vt 0.62677276 0.5022846
vt 0.53923374 0.56320417
vt 0.28863442 0.58368087
vt 0.2778206 0.60272133
vt 0.2778206 0.5859981
vt 0.28863442 0.60503876
vt 0.29329944 0.6135258
vt 0.29329947 0.57519376
vt 0.30305022 0.61416894
vt 0.30305025 0.57349074
vt 0.3067714 0.6248637
vt 0.30677143 0.5627276
vt 0.3172801 0.62607574
vt 0.3172801 0.5615839
vt 0.274495 0.59435976
vt 0.47968543 0.56024927
vt 0.5383538 0.5531401
vt 0.5383538 0.56024927
vt 0.47968543 0.5531401
vt 0.2774671 0.5863357
vt 0.28828093 0.6049057
vt 0.2774671 0.6030588
vt 0.28828093 0.5835478
vt 0.29294598 0.61339283
vt 0.29294598 0.57506067
vt 0.30269682 0.5737233
vt 0.30269682 0.61473024
vt 0.306418 0.6254363
vt 0.30641797 0.56294894
vt 0.3169267 0.626637
vt 0.3169267 0.56181645
vt 0.27414155 0.5946973
vt 0.47968543 0.56024927
vt 0.5383538 0.5531401
vt 0.5383538 0.56024927
vt 0.47968543 0.5531401

g Sprial_Ductwork
s 1
usemtl Sprial_Ductwork
f 3/3/3 2/2/2 1/1/1 
f 4/4/4 1/1/1 2/2/2 
f 1/1/1 5/5/5 3/3/3 
f 6/6/6 3/3/3 5/5/5 
f 5/5/5 7/7/7 6/6/6 
f 8/8/8 6/6/6 7/7/7 
f 7/7/7 9/9/9 8/8/8 
f 10/10/10 8/8/8 9/9/9 
f 9/9/9 11/11/11 10/10/10 
f 12/12/12 10/10/10 11/11/11 
f 11/11/11 13/13/13 12/12/12 
f 14/14/14 12/12/12 13/13/13 
f 17/17/17 16/16/16 15/15/15 
f 18/18/18 15/15/15 16/16/16 
f 21/21/21 20/20/20 19/19/19 
f 22/22/22 19/19/19 20/20/20 
f 19/19/19 22/22/22 23/23/23 
f 24/24/24 23/23/23 22/22/22 
f 23/23/23 24/24/24 25/25/25 
f 26/26/26 25/25/25 24/24/24 
f 25/25/25 26/26/26 27/27/27 
f 28/28/28 27/27/27 26/26/26 
f 27/27/27 28/28/28 29/29/29 
f 30/30/30 29/29/29 28/28/28 
f 29/29/29 30/30/30 31/31/31 
f 32/32/32 31/31/31 30/30/30 
f 35/35/35 34/34/34 33/33/33 
f 36/36/36 33/33/33 34/34/34 
f 39/39/39 38/38/38 37/37/37 
f 40/40/40 37/37/37 38/38/38 
f 43/43/43 42/42/42 41/41/41 
f 44/44/44 41/41/41 42/42/42 
f 44/44/44 45/45/45 41/41/41 
f 46/46/46 41/41/41 45/45/45 
f 45/45/45 47/47/47 46/46/46 
f 48/48/48 46/46/46 47/47/47 
f 47/47/47 49/49/49 48/48/48 
f 50/50/50 48/48/48 49/49/49 
f 49/49/49 51/51/51 50/50/50 
f 52/52/52 50/50/50 51/51/51 
f 53/53/53 42/42/42 43/43/43 
f 56/56/56 55/55/55 54/54/54 
f 57/57/57 54/54/54 55/55/55 
f 60/60/60 59/59/59 58/58/58 
f 61/61/61 58/58/58 59/59/59 
f 59/59/59 62/62/62 61/61/61 
f 63/63/63 61/61/61 62/62/62 
f 63/63/63 62/62/62 64/64/64 
f 65/65/65 64/64/64 62/62/62 
f 65/65/65 66/66/66 64/64/64 
f 67/67/67 64/64/64 66/66/66 
f 66/66/66 68/68/68 67/67/67 
f 69/69/69 67/67/67 68/68/68 
f 70/70/70 60/60/60 58/58/58 
f 73/73/73 72/72/72 71/71/71 
f 74/74/74 71/71/71 72/72/72 

