# Created by DisUnity v0.3.4
v -9.999702 1.2158638 -0.745063
v -4.9513652E-5 1.4704576 -1.0277004
v -9.999702 1.4704595 -1.0277005
v -4.9508748E-5 1.215862 -0.7450628
v -9.999702 0.706673 -0.745063
v -4.960268E-5 0.9612664 -1.0277004
v -9.999702 0.9612681 -1.0277005
v -4.9597777E-5 0.7066713 -0.7450628
v -9.999702 0.9612681 -1.0277005
v -4.9508748E-5 1.215862 -0.7450628
v -9.999702 1.2158638 -0.745063
v -4.960268E-5 0.9612664 -1.0277004
v -9.999702 1.4704595 -1.0277005
v -4.941972E-5 1.725052 -0.7450628
v -9.999702 1.7250539 -0.745063
v -4.9513652E-5 1.4704576 -1.0277004
v -9.999702 1.4704595 -0.91163176
v -4.9491315E-5 1.215862 -0.64535904
v -9.999702 1.2158638 -0.6453592
v -4.9493356E-5 1.4704576 -0.9116316
v -9.999702 0.9612681 -0.91163176
v -4.957159E-5 0.7567458 -0.64535904
v -9.999702 0.75674754 -0.6453592
v -4.9582384E-5 0.9612664 -0.9116316
v -9.999702 1.2158638 -0.6453592
v -4.9582384E-5 0.9612664 -0.9116316
v -9.999702 0.9612681 -0.91163176
v -4.9491315E-5 1.215862 -0.64535904
v -9.999702 1.6749796 -0.6453592
v -4.9493356E-5 1.4704576 -0.9116316
v -9.999702 1.4704595 -0.91163176
v -4.941104E-5 1.6749778 -0.64535904
v -9.999702 0.75674754 -0.6453592
v -4.9597777E-5 0.7066713 -0.7450628
v -9.999702 0.706673 -0.745063
v -4.957159E-5 0.7567458 -0.64535904
v -9.999702 1.7250539 -0.745063
v -4.941104E-5 1.6749778 -0.64535904
v -9.999702 1.6749796 -0.6453592
v -4.941972E-5 1.725052 -0.7450628
v -9.999702 1.2158638 -0.6453592
v -9.999702 1.4704595 -1.0277005
v -9.999702 1.4704595 -0.91163176
v -9.999702 1.2158638 -0.745063
v -9.999702 1.7250539 -0.745063
v -9.999702 1.6749796 -0.6453592
v -9.999702 0.9612681 -0.91163176
v -9.999702 0.9612681 -1.0277005
v -9.999702 0.75674754 -0.6453592
v -9.999702 0.706673 -0.745063
v -4.9493356E-5 1.4704576 -0.9116316
v -4.9508748E-5 1.215862 -0.7450628
v -4.9491315E-5 1.215862 -0.64535904
v -4.9513652E-5 1.4704576 -1.0277004
v -4.941104E-5 1.6749778 -0.64535904
v -4.941972E-5 1.725052 -0.7450628
v -4.960268E-5 0.9612664 -1.0277004
v -4.9582384E-5 0.9612664 -0.9116316
v -4.9597777E-5 0.7066713 -0.7450628
v -4.957159E-5 0.7567458 -0.64535904
v -5.3200607 1.8934559 -0.648839
v -5.930963 1.893456 0.0014773249
v -5.9309635 1.893456 -0.64883894
v -5.3200603 1.8934559 0.001477218
v -5.3200607 -5.933011E-5 -0.648839
v -5.9309635 1.893456 -0.64883894
v -5.9309635 -5.9223294E-5 -0.64883894
v -5.3200607 1.8934559 -0.648839
v -5.9309635 -5.9223294E-5 -0.64883894
v -5.930963 1.893456 0.0014773249
v -5.9309635 -5.9223294E-5 0.0014773249
v -5.9309635 1.893456 -0.64883894
v -5.9309635 -5.9223294E-5 0.0014773249
v -5.3200603 1.8934559 0.001477218
v -5.3200607 -5.933011E-5 0.001477218
v -5.930963 1.893456 0.0014773249
v -5.3200607 -5.933011E-5 0.001477218
v -5.3200607 1.8934559 -0.648839
v -5.3200607 -5.933011E-5 -0.648839
v -5.3200603 1.8934559 0.001477218
v -4.9373684E-5 1.8934549 -0.6501818
v -0.6121155 1.893455 1.3457511E-4
v -0.6121156 1.893455 -0.65018165
v -4.925998E-5 1.8934549 1.344681E-4
v -4.9704755E-5 -6.026029E-5 -0.6501818
v -0.6121156 1.893455 -0.65018165
v -0.612116 -6.015327E-5 -0.65018165
v -4.9373684E-5 1.8934549 -0.6501818
v -0.612116 -6.015327E-5 -0.65018165
v -0.6121155 1.893455 1.3457511E-4
v -0.61211586 -6.015327E-5 1.3457511E-4
v -0.6121156 1.893455 -0.65018165
v -0.61211586 -6.015327E-5 1.3457511E-4
v -4.925998E-5 1.8934549 1.344681E-4
v -4.959105E-5 -6.026029E-5 1.344681E-4
v -0.6121155 1.893455 1.3457511E-4
v -4.959105E-5 -6.026029E-5 1.344681E-4
v -4.9373684E-5 1.8934549 -0.6501818
v -4.9704755E-5 -6.026029E-5 -0.6501818
v -4.925998E-5 1.8934549 1.344681E-4
vn -0.0 0.0 -1.0
vn -0.0 0.0 -1.0
vn -0.0 0.0 -1.0
vn -0.0 0.0 -1.0
vn -0.0 -0.74300486 -0.669286
vn -0.0 0.0 -1.0
vn -0.0 0.0 -1.0
vn -0.0 -0.74300486 -0.6692861
vn -0.0 0.0 -1.0
vn -0.0 0.0 -1.0
vn -0.0 0.0 -1.0
vn -0.0 0.0 -1.0
vn -0.0 0.0 -1.0
vn -0.0 0.74300563 -0.66928506
vn -0.0 0.74300563 -0.66928506
vn -0.0 0.0 -1.0
vn -0.0 -0.05397847 0.9985421
vn -0.0 0.0 1.0
vn -0.0 0.0 1.0
vn -0.0 -0.05397739 0.9985422
vn -0.0 0.05397712 0.9985422
vn -0.0 0.79306203 0.60914093
vn -0.0 0.79306203 0.60914093
vn -0.0 0.05397795 0.9985421
vn -0.0 0.0 1.0
vn -0.0 0.05397795 0.9985421
vn -0.0 0.05397712 0.9985422
vn -0.0 0.0 1.0
vn -0.0 -0.7930627 0.6091401
vn -0.0 -0.05397739 0.9985422
vn -0.0 -0.05397847 0.9985421
vn -0.0 -0.79306257 0.6091402
vn -0.0 -0.89362764 0.44880915
vn -0.0 -0.89362764 0.44880915
vn -0.0 -0.89362764 0.44880915
vn -0.0 -0.89362764 0.44880915
vn -0.0 0.89362836 0.44880787
vn -0.0 0.8936287 0.44880697
vn -0.0 0.89362836 0.44880792
vn -0.0 0.8936287 0.44880703
vn -1.0 0.0 0.0
vn -1.0 0.0 0.0
vn -1.0 0.0 0.0
vn -1.0 0.0 0.0
vn -1.0 0.0 0.0
vn -1.0 0.0 0.0
vn -1.0 0.0 0.0
vn -1.0 0.0 0.0
vn -1.0 0.0 0.0
vn -1.0 0.0 0.0
vn 1.0 0.0 0.0
vn 1.0 0.0 0.0
vn 1.0 0.0 0.0
vn 1.0 0.0 0.0
vn 1.0 0.0 0.0
vn 1.0 0.0 0.0
vn 1.0 0.0 0.0
vn 1.0 0.0 0.0
vn 1.0 0.0 0.0
vn 1.0 0.0 0.0
vn -0.0 1.0 0.0
vn -0.0 1.0 0.0
vn -0.0 1.0 0.0
vn -0.0 1.0 0.0
vn -0.0 0.0 -1.0
vn -0.0 0.0 -1.0
vn -0.0 0.0 -1.0
vn -0.0 0.0 -1.0
vn -1.0 0.0 0.0
vn -1.0 0.0 0.0
vn -1.0 0.0 0.0
vn -1.0 0.0 0.0
vn -0.0 0.0 1.0
vn -0.0 0.0 1.0
vn -0.0 0.0 1.0
vn -0.0 0.0 1.0
vn 1.0 0.0 0.0
vn 1.0 0.0 0.0
vn 1.0 0.0 0.0
vn 1.0 0.0 0.0
vn -0.0 1.0 0.0
vn -0.0 1.0 0.0
vn -0.0 1.0 0.0
vn -0.0 1.0 0.0
vn -0.0 0.0 -1.0
vn -0.0 0.0 -1.0
vn -0.0 0.0 -1.0
vn -0.0 0.0 -1.0
vn -1.0 0.0 0.0
vn -1.0 0.0 0.0
vn -1.0 0.0 0.0
vn -1.0 0.0 0.0
vn -0.0 0.0 1.0
vn -0.0 0.0 1.0
vn -0.0 0.0 1.0
vn -0.0 0.0 1.0
vn 1.0 0.0 0.0
vn 1.0 0.0 0.0
vn 1.0 0.0 0.0
vn 1.0 0.0 0.0
vt 0.46400243 0.97103953
vt 0.033127688 0.9570568
vt 0.46400237 0.95705676
vt 0.033127688 0.97103965
vt 0.46400243 0.9990052
vt 0.033127688 0.9850225
vt 0.46400243 0.9850224
vt 0.033127688 0.9990053
vt 0.46400243 0.9850224
vt 0.033127688 0.97103965
vt 0.46400243 0.97103953
vt 0.033127688 0.9850225
vt 0.46400237 0.95705676
vt 0.033127688 0.9430739
vt 0.46400237 0.94307387
vt 0.033127688 0.9570568
vt 4.4058077E-4 0.95381
vt 0.49871224 0.96904373
vt 4.4069812E-4 0.96904373
vt 0.49871224 0.95381
vt 4.4058077E-4 0.9842775
vt 0.49871224 0.99951124
vt 4.4058077E-4 0.99951124
vt 0.49871224 0.9842775
vt 4.4069812E-4 0.96904373
vt 0.49871224 0.9842775
vt 4.4058077E-4 0.9842775
vt 0.49871224 0.96904373
vt 4.4069812E-4 0.9385762
vt 0.49871224 0.95381
vt 4.4058077E-4 0.95381
vt 0.49871224 0.9385762
vt 1.3315176 0.99963695
vt 1.3170335 0.99447817
vt 1.3328412 0.99447817
vt 1.3157101 0.99963695
vt 0.46400237 0.94307387
vt 0.033127688 0.93814135
vt 0.46400237 0.9381413
vt 0.033127688 0.9430739
vt 0.3881358 0.9901308
vt 0.3969205 0.97693825
vt 0.3969205 0.98094314
vt 0.3881358 0.9866906
vt 0.40570518 0.9866906
vt 0.4039774 0.9901308
vt 0.37935102 0.98094314
vt 0.37935102 0.97693825
vt 0.37229413 0.9901308
vt 0.3705663 0.9866906
vt 0.3793252 0.9809481
vt 0.38810992 0.98669547
vt 0.38810992 0.9901357
vt 0.3793252 0.97694314
vt 0.3722683 0.9901357
vt 0.3705405 0.98669547
vt 0.39689466 0.97694314
vt 0.39689463 0.9809481
vt 0.40567935 0.98669547
vt 0.40395156 0.9901357
vt 0.59247637 0.9393974
vt 0.62342715 0.96847236
vt 0.59247637 0.96847236
vt 0.62342715 0.9393974
vt 0.50108576 0.9698892
vt 0.62466073 0.9992955
vt 0.50108576 0.9992955
vt 0.62466073 0.9698892
vt 0.50108576 0.9385856
vt 0.62466073 0.9698892
vt 0.50108576 0.9698892
vt 0.62466073 0.9385856
vt 0.50108576 0.9698892
vt 0.62466073 0.9992955
vt 0.50108576 0.9992955
vt 0.62466073 0.9698892
vt 0.50108576 0.93858564
vt 0.62466073 0.9698892
vt 0.50108576 0.9698892
vt 0.62466073 0.93858564
vt 0.59247637 0.9393974
vt 0.62342715 0.96847236
vt 0.59247637 0.96847236
vt 0.62342715 0.9393974
vt 0.50108576 0.9698892
vt 0.62466073 0.9992955
vt 0.50108576 0.9992955
vt 0.62466073 0.9698892
vt 0.50108576 0.9385856
vt 0.62466073 0.9698892
vt 0.50108576 0.9698892
vt 0.62466073 0.9385856
vt 0.50108576 0.9698892
vt 0.62466073 0.9992955
vt 0.50108576 0.9992955
vt 0.62466073 0.9698892
vt 0.50108576 0.93858564
vt 0.62466073 0.9698892
vt 0.50108576 0.9698892
vt 0.62466073 0.93858564

g Straight_Guardrail
s 1
usemtl Straight_Guardrail
f 3/3/3 2/2/2 1/1/1 
f 4/4/4 1/1/1 2/2/2 
f 7/7/7 6/6/6 5/5/5 
f 8/8/8 5/5/5 6/6/6 
f 11/11/11 10/10/10 9/9/9 
f 12/12/12 9/9/9 10/10/10 
f 15/15/15 14/14/14 13/13/13 
f 16/16/16 13/13/13 14/14/14 
f 19/19/19 18/18/18 17/17/17 
f 20/20/20 17/17/17 18/18/18 
f 23/23/23 22/22/22 21/21/21 
f 24/24/24 21/21/21 22/22/22 
f 27/27/27 26/26/26 25/25/25 
f 28/28/28 25/25/25 26/26/26 
f 31/31/31 30/30/30 29/29/29 
f 32/32/32 29/29/29 30/30/30 
f 35/35/35 34/34/34 33/33/33 
f 36/36/36 33/33/33 34/34/34 
f 39/39/39 38/38/38 37/37/37 
f 40/40/40 37/37/37 38/38/38 
f 43/43/43 42/42/42 41/41/41 
f 44/44/44 41/41/41 42/42/42 
f 42/42/42 43/43/43 45/45/45 
f 46/46/46 45/45/45 43/43/43 
f 41/41/41 44/44/44 47/47/47 
f 48/48/48 47/47/47 44/44/44 
f 47/47/47 48/48/48 49/49/49 
f 50/50/50 49/49/49 48/48/48 
f 53/53/53 52/52/52 51/51/51 
f 54/54/54 51/51/51 52/52/52 
f 51/51/51 54/54/54 55/55/55 
f 56/56/56 55/55/55 54/54/54 
f 52/52/52 53/53/53 57/57/57 
f 58/58/58 57/57/57 53/53/53 
f 57/57/57 58/58/58 59/59/59 
f 60/60/60 59/59/59 58/58/58 
f 63/63/63 62/62/62 61/61/61 
f 64/64/64 61/61/61 62/62/62 
f 67/67/67 66/66/66 65/65/65 
f 68/68/68 65/65/65 66/66/66 
f 71/71/71 70/70/70 69/69/69 
f 72/72/72 69/69/69 70/70/70 
f 75/75/75 74/74/74 73/73/73 
f 76/76/76 73/73/73 74/74/74 
f 79/79/79 78/78/78 77/77/77 
f 80/80/80 77/77/77 78/78/78 
f 83/83/83 82/82/82 81/81/81 
f 84/84/84 81/81/81 82/82/82 
f 87/87/87 86/86/86 85/85/85 
f 88/88/88 85/85/85 86/86/86 
f 91/91/91 90/90/90 89/89/89 
f 92/92/92 89/89/89 90/90/90 
f 95/95/95 94/94/94 93/93/93 
f 96/96/96 93/93/93 94/94/94 
f 99/99/99 98/98/98 97/97/97 
f 100/100/100 97/97/97 98/98/98 

