# Created by DisUnity v0.3.4
v -5.9999967 0.24978212 -1.0490729E-6
v -13.999974 0.24978071 -2.0000055
v -5.9999976 0.24978212 -2.0000124
v -13.999973 0.24978071 4.704724E-6
v -1.9999728 0.24978282 -4.164384E-6
v -5.9999976 0.24978212 -2.0000124
v -1.9999734 0.24978282 -2.0000145
v -5.9999967 0.24978212 -1.0490729E-6
v 7.894187E-6 0.48559952 -2.0000348
v -1.9999863 0.48559916 -2.0853686E-5
v -1.9999874 0.48559916 -2.000031
v 9.451843E-6 0.48559952 -2.4318693E-5
v -1.9999874 0.48559916 -2.000031
v -1.9999862 0.24978282 -2.0853686E-5
v -1.9999872 0.24978282 -2.000031
v -1.9999863 0.48559916 -2.0853686E-5
v 7.979095E-6 -2.0325182E-5 -2.0000348
v 9.451843E-6 0.48559952 -2.4318693E-5
v 7.894187E-6 0.48559952 -2.0000348
v 9.536751E-6 -2.0325182E-5 -2.4318693E-5
v -13.999989 0.48559707 -2.000031
v -15.999982 0.48559672 -2.04405E-5
v -15.999985 0.48559672 -2.0000312
v -13.999987 0.48559707 -2.0567648E-5
v -15.999985 0.48559672 -2.0000312
v -15.999982 -2.312271E-5 -2.04405E-5
v -15.999985 -2.312271E-5 -2.0000312
v -15.999982 0.48559672 -2.04405E-5
v -13.999989 0.24978071 -2.000031
v -13.999987 0.48559707 -2.0567648E-5
v -13.999989 0.48559707 -2.000031
v -13.999987 0.24978071 -2.0567648E-5
vn -0.0 1.0 0.0
vn -0.0 1.0 0.0
vn -0.0 1.0 0.0
vn -0.0 1.0 0.0
vn -0.0 1.0 0.0
vn -0.0 1.0 0.0
vn -0.0 1.0 0.0
vn -0.0 1.0 0.0
vn -0.0 1.0 0.0
vn -0.0 1.0 0.0
vn -0.0 1.0 0.0
vn -0.0 1.0 0.0
vn -1.0 0.0 0.0
vn -1.0 0.0 0.0
vn -1.0 0.0 0.0
vn -1.0 0.0 0.0
vn 1.0 0.0 0.0
vn 1.0 0.0 0.0
vn 1.0 0.0 0.0
vn 1.0 0.0 0.0
vn -0.0 1.0 0.0
vn -0.0 1.0 0.0
vn -0.0 1.0 0.0
vn -0.0 1.0 0.0
vn -1.0 0.0 0.0
vn -1.0 0.0 0.0
vn -1.0 0.0 0.0
vn -1.0 0.0 0.0
vn 1.0 0.0 0.0
vn 1.0 0.0 0.0
vn 1.0 0.0 0.0
vn 1.0 0.0 0.0
vt 0.49987495 0.46138203
vt 0.46934855 0.58311915
vt 0.4693485 0.46138203
vt 0.49987498 0.58311915
vt 0.37776926 0.58311915
vt 0.4082957 0.5198159
vt 0.4082957 0.58311915
vt 0.37776923 0.5198159
vt 0.3727222 0.7507856
vt 0.33132127 0.7778168
vt 0.3727222 0.7778168
vt 0.33132127 0.7507856
vt 0.3727222 0.7778168
vt 0.33132127 0.7811957
vt 0.3727222 0.7811957
vt 0.33132127 0.7778168
vt 0.3727222 0.80822694
vt 0.33132127 0.8116058
vt 0.3727222 0.8116058
vt 0.33132127 0.80822694
vt 0.3727222 0.7507856
vt 0.33132127 0.7778168
vt 0.3727222 0.7778168
vt 0.33132127 0.7507856
vt 0.3727222 0.7778168
vt 0.33132127 0.7811957
vt 0.3727222 0.7811957
vt 0.33132127 0.7778168
vt 0.3727222 0.80822694
vt 0.33132127 0.8116058
vt 0.3727222 0.8116058
vt 0.33132127 0.80822694

g Three_Lane_27
s 1
usemtl Three_Lane_27
f 3/3/3 2/2/2 1/1/1 
f 4/4/4 1/1/1 2/2/2 
f 7/7/7 6/6/6 5/5/5 
f 8/8/8 5/5/5 6/6/6 
f 11/11/11 10/10/10 9/9/9 
f 12/12/12 9/9/9 10/10/10 
f 15/15/15 14/14/14 13/13/13 
f 16/16/16 13/13/13 14/14/14 
f 19/19/19 18/18/18 17/17/17 
f 20/20/20 17/17/17 18/18/18 
f 23/23/23 22/22/22 21/21/21 
f 24/24/24 21/21/21 22/22/22 
f 27/27/27 26/26/26 25/25/25 
f 28/28/28 25/25/25 26/26/26 
f 31/31/31 30/30/30 29/29/29 
f 32/32/32 29/29/29 30/30/30 

