# Created by DisUnity v0.3.4
v 2.0864391 0.24981813 -55.555458
v -5.5178967 0.24981739 -64.369095
v -3.8589954 0.24981727 -65.476685
v 0.32684612 0.24981824 -54.616028
v -12.290367 0.24981664 -73.50239
v -10.748177 0.24981648 -74.76744
v 7.0308824 0.24981907 -45.09929
v 5.1875834 0.24981916 -44.33709
v 10.926721 0.24982005 -34.208862
v 9.017515 0.24982013 -33.631252
v 13.73644 0.2498211 -22.989037
v 11.779764 0.24982114 -22.601599
v 15.432986 0.24982215 -11.547854
v 13.447734 0.24982217 -11.3543215
v 16.000027 0.24982323 0.004521847
v 14.005364 0.24982323 0.0022802353
v -19.92536 0.24981597 -81.92796
v -18.514769 0.2498158 -83.33826
v -2.4719372 0.24982062 -30.151886
v 0.2562456 0.24982145 -20.3123
v 0.0048093796 0.24982147 -20.264717
v -2.2249165 0.24982058 -30.224148
v 1.7539978 0.24982235 -10.20513
v 1.5005894 0.24982235 -10.182394
v -5.905794 0.24981979 -39.74869
v -5.6656227 0.24981977 -39.845226
v -10.263699 0.24981903 -48.962738
v -10.032764 0.249819 -49.082886
v -15.503681 0.24981831 -57.705288
v -15.284317 0.24981827 -57.848167
v -21.575287 0.24981767 -65.892166
v -21.36974 0.24981762 -66.05666
v -28.420044 0.24981713 -73.44454
v -28.23045 0.24981709 -73.62931
v 2.2539463 0.24982324 4.005432E-5
v 2.0010014 0.24982326 -0.001999855
v 5.1849585 0.24982028 -32.46751
v 11.536818 0.24982116 -22.553282
v 7.8516545 0.24982125 -21.818815
v 8.780474 0.24982016 -33.55936
v 13.201221 0.24982218 -11.3300495
v 9.461843 0.24982223 -10.9600315
v 4.181885 0.24982134 -21.091078
v 5.7384124 0.24982229 -10.595505
v 1.4874325 0.24981935 -42.803574
v -1.969842 0.24981956 -41.373867
v 1.6041927 0.24982044 -31.383568
v 4.958729 0.24981917 -44.242313
v -3.2053223 0.24981847 -52.72749
v 0.10838127 0.24981828 -54.49928
v -6.505806 0.24981873 -50.965782
v -11.960026 0.24981797 -60.066956
v -8.848114 0.24981768 -62.14369
v -18.279978 0.2498173 -68.58975
v -15.386612 0.24981697 -70.96151
v -5.7238674 0.24981745 -64.2315
v -12.481861 0.24981669 -73.34526
v -22.757858 0.24981634 -79.09605
v -20.10053 0.24981602 -81.75282
v -25.404812 0.2498167 -76.4521
v 8.780474 0.24982016 -33.55936
v 11.779764 0.24982114 -22.601599
v 11.536818 0.24982116 -22.553282
v 9.017515 0.24982013 -33.631252
v 13.447734 0.24982217 -11.3543215
v 13.201221 0.24982218 -11.3300495
v 4.958729 0.24981917 -44.242313
v 5.1875834 0.24981916 -44.33709
v 0.10838127 0.24981828 -54.49928
v 0.32684612 0.24981824 -54.616028
v -5.7238674 0.24981745 -64.2315
v -5.5178967 0.24981739 -64.369095
v -12.481861 0.24981669 -73.34526
v -12.290367 0.24981664 -73.50239
v -20.10053 0.24981602 -81.75282
v -19.92536 0.24981597 -81.92796
v 14.005364 0.24982323 0.0022802353
v 13.75766 0.24982324 0.002273798
v -4.3856974 0.24982068 -29.568771
v 0.0048093796 0.24982147 -20.264717
v -1.9570398 0.24982153 -19.872116
v -2.4719372 0.24982062 -30.151886
v 1.5005894 0.24982235 -10.182394
v -0.49042797 0.24982238 -9.984115
v -7.7530174 0.24981989 -38.980717
v -5.905794 0.24981979 -39.74869
v -12.026573 0.24981914 -48.017323
v -10.263699 0.24981903 -48.962738
v -17.165218 0.24981846 -56.591576
v -15.503681 0.24981831 -57.705288
v -23.119469 0.24981783 -64.62092
v -21.575287 0.24981767 -65.892166
v -29.831997 0.24981731 -72.02804
v -28.420044 0.24981713 -73.44454
v 2.0010014 0.24982326 -0.001999855
v 1.5258789E-5 0.24982326 2.002716E-5
v -2.2249165 0.24982058 -30.224148
v 4.181885 0.24982134 -21.091078
v 0.2562456 0.24982145 -20.3123
v 1.6041927 0.24982044 -31.383568
v 5.7384124 0.24982229 -10.595505
v 1.7539978 0.24982235 -10.20513
v -5.6656227 0.24981977 -39.845226
v -1.969842 0.24981956 -41.373867
v -10.032764 0.249819 -49.082886
v -6.505806 0.24981873 -50.965782
v -15.284317 0.24981827 -57.848167
v -11.960026 0.24981797 -60.066956
v -21.36974 0.24981762 -66.05666
v -18.279978 0.2498173 -68.58975
v -28.23045 0.24981709 -73.62931
v -25.404812 0.2498167 -76.4521
v 6.2587886 0.24982324 0.002092123
v 2.2539463 0.24982324 4.005432E-5
v 10.926721 0.24982005 -34.208862
v 13.73644 -5.2154064E-7 -22.989037
v 13.73644 0.2498211 -22.989037
v 10.926721 -1.8328428E-6 -34.208862
v -12.026573 0.24981914 -48.017323
v -17.165218 -4.1127205E-6 -56.591576
v -17.165218 0.24981846 -56.591576
v -12.026573 -3.1739473E-6 -48.017323
v -10.748177 0.24981648 -74.76744
v -3.8589954 -5.3942204E-6 -65.476685
v -3.8589954 0.24981727 -65.476685
v -10.748177 -6.4373016E-6 -74.76744
v 2.0864391 0.24981813 -55.555458
v 7.0308824 -3.0845404E-6 -45.09929
v 7.0308824 0.24981907 -45.09929
v 2.0864391 -4.261732E-6 -55.555458
v 15.432986 7.748604E-7 -11.547854
v 13.73644 0.2498211 -22.989037
v 13.73644 -5.2154064E-7 -22.989037
v 15.432986 0.24982215 -11.547854
v -0.49042797 0.24982238 -9.984115
v -1.9570398 -2.980232E-8 -19.872116
v -1.9570398 0.24982153 -19.872116
v -0.49042797 1.0728836E-6 -9.984115
v -4.3856974 0.24982068 -29.568771
v -7.7530174 -2.1755695E-6 -38.980717
v -7.7530174 0.24981989 -38.980717
v -4.3856974 -1.1324883E-6 -29.568771
v -23.119469 -4.991889E-6 -64.62092
v -17.165218 0.24981846 -56.591576
v -17.165218 -4.1127205E-6 -56.591576
v -23.119469 0.24981783 -64.62092
v 7.0308824 0.24981907 -45.09929
v 10.926721 -1.8328428E-6 -34.208862
v 10.926721 0.24982005 -34.208862
v 7.0308824 -3.0845404E-6 -45.09929
v -7.7530174 0.24981989 -38.980717
v -12.026573 -3.1739473E-6 -48.017323
v -12.026573 0.24981914 -48.017323
v -7.7530174 -2.1755695E-6 -38.980717
v 13.75766 0.24982324 0.002273798
v 10.000019 0.24982323 0.004286051
v 6.2587886 0.24982324 0.002092123
v -18.514769 0.2498158 -83.33826
v -10.748177 -6.4373016E-6 -74.76744
v -10.748177 0.24981648 -74.76744
v -18.514769 -7.3611736E-6 -83.33826
v -3.8589954 0.24981727 -65.476685
v 2.0864391 -4.261732E-6 -55.555458
v 2.0864391 0.24981813 -55.555458
v -3.8589954 -5.3942204E-6 -65.476685
v 16.000027 2.115965E-6 0.004522085
v 15.432986 0.24982215 -11.547854
v 15.432986 7.748604E-7 -11.547854
v 16.000027 0.24982323 0.004521847
v 1.5258789E-5 0.24982326 2.002716E-5
v -0.49042797 1.0728836E-6 -9.984115
v -0.49042797 0.24982238 -9.984115
v 1.5258789E-5 2.2053719E-6 2.002716E-5
v -1.9570398 0.24982153 -19.872116
v -4.3856974 -1.1324883E-6 -29.568771
v -4.3856974 0.24982068 -29.568771
v -1.9570398 -2.980232E-8 -19.872116
v -29.831997 -5.7667494E-6 -72.02804
v -23.119469 0.24981783 -64.62092
v -23.119469 -4.991889E-6 -64.62092
v -29.831997 0.24981731 -72.02804
vn -0.0 1.0 0.0
vn -0.0 1.0 0.0
vn -0.0 1.0 0.0
vn -0.0 1.0 0.0
vn -0.0 1.0 0.0
vn -0.0 1.0 0.0
vn -0.0 1.0 0.0
vn -0.0 1.0 0.0
vn -0.0 1.0 0.0
vn -0.0 1.0 0.0
vn -0.0 1.0 0.0
vn -0.0 1.0 0.0
vn -0.0 1.0 0.0
vn -0.0 1.0 0.0
vn -0.0 1.0 0.0
vn -0.0 1.0 0.0
vn -0.0 1.0 0.0
vn -0.0 1.0 0.0
vn -0.0 1.0 0.0
vn -0.0 1.0 0.0
vn -0.0 1.0 0.0
vn -0.0 1.0 0.0
vn -0.0 1.0 0.0
vn -0.0 1.0 0.0
vn -0.0 1.0 0.0
vn -0.0 1.0 0.0
vn -0.0 1.0 0.0
vn -0.0 1.0 0.0
vn -0.0 1.0 0.0
vn -0.0 1.0 0.0
vn -0.0 1.0 0.0
vn -0.0 1.0 0.0
vn -0.0 1.0 0.0
vn -0.0 1.0 0.0
vn -0.0 1.0 0.0
vn -0.0 1.0 0.0
vn -0.0 1.0 0.0
vn -0.0 1.0 0.0
vn -0.0 1.0 0.0
vn -0.0 1.0 0.0
vn -0.0 1.0 0.0
vn -0.0 1.0 0.0
vn -0.0 1.0 0.0
vn -0.0 1.0 0.0
vn -0.0 1.0 0.0
vn -0.0 1.0 0.0
vn -0.0 1.0 0.0
vn -0.0 1.0 0.0
vn -0.0 1.0 0.0
vn -0.0 1.0 0.0
vn -0.0 1.0 0.0
vn -0.0 1.0 0.0
vn -0.0 1.0 0.0
vn -0.0 1.0 0.0
vn -0.0 1.0 0.0
vn -0.0 1.0 0.0
vn -0.0 1.0 0.0
vn -0.0 1.0 0.0
vn -0.0 1.0 0.0
vn -0.0 1.0 0.0
vn -0.0 1.0 0.0
vn -0.0 1.0 0.0
vn -0.0 1.0 0.0
vn -0.0 1.0 0.0
vn -0.0 1.0 0.0
vn -0.0 1.0 0.0
vn -0.0 1.0 0.0
vn -0.0 1.0 0.0
vn -0.0 1.0 0.0
vn -0.0 1.0 0.0
vn -0.0 1.0 0.0
vn -0.0 1.0 0.0
vn -0.0 1.0 0.0
vn -0.0 1.0 0.0
vn -0.0 1.0 0.0
vn -0.0 1.0 0.0
vn -0.0 1.0 0.0
vn -0.0 1.0 0.0
vn -0.0 1.0 0.0
vn -0.0 1.0 0.0
vn -0.0 1.0 0.0
vn -0.0 1.0 0.0
vn -0.0 1.0 0.0
vn -0.0 1.0 0.0
vn -0.0 1.0 0.0
vn -0.0 1.0 0.0
vn -0.0 1.0 0.0
vn -0.0 1.0 0.0
vn -0.0 1.0 0.0
vn -0.0 1.0 0.0
vn -0.0 1.0 0.0
vn -0.0 1.0 0.0
vn -0.0 1.0 0.0
vn -0.0 1.0 0.0
vn -0.0 1.0 0.0
vn -0.0 1.0 0.0
vn -0.0 1.0 0.0
vn -0.0 1.0 0.0
vn -0.0 1.0 0.0
vn -0.0 1.0 0.0
vn -0.0 1.0 0.0
vn -0.0 1.0 0.0
vn -0.0 1.0 0.0
vn -0.0 1.0 0.0
vn -0.0 1.0 0.0
vn -0.0 1.0 0.0
vn -0.0 1.0 0.0
vn -0.0 1.0 0.0
vn -0.0 1.0 0.0
vn -0.0 1.0 0.0
vn -0.0 1.0 0.0
vn -0.0 1.0 0.0
vn -0.0 1.0 0.0
vn -0.0 1.0 0.0
vn 0.9700455 0.0 -0.24292314
vn 0.9700455 0.0 -0.24292314
vn 0.9700455 0.0 -0.24292314
vn 0.9700455 0.0 -0.24292314
vn -0.8577535 0.0 0.5140613
vn -0.8577535 0.0 0.5140613
vn -0.8577535 0.0 0.5140612
vn -0.8577535 0.0 0.5140612
vn 0.8032618 0.0 -0.595626
vn 0.8032618 0.0 -0.595626
vn 0.8032618 0.0 -0.595626
vn 0.8032618 0.0 -0.59562606
vn 0.9040212 0.0 -0.42748755
vn 0.9040212 0.0 -0.42748752
vn 0.9040212 0.0 -0.42748752
vn 0.9040213 0.0 -0.42748752
vn 0.9891839 0.0 -0.14668033
vn 0.9891839 0.0 -0.14668033
vn 0.9891839 0.0 -0.14668033
vn 0.9891839 0.0 -0.14668034
vn -0.9891784 0.0 0.14671731
vn -0.9891784 0.0 0.14671731
vn -0.9891784 0.0 0.14671731
vn -0.9891784 0.0 0.1467173
vn -0.9415544 0.0 0.33686075
vn -0.9415544 0.0 0.33686078
vn -0.9415544 0.0 0.33686078
vn -0.9415544 0.0 0.33686075
vn -0.8032418 0.0 0.59565306
vn -0.8032418 0.0 0.59565306
vn -0.8032418 0.0 0.59565306
vn -0.8032418 0.0 0.59565306
vn 0.94156647 0.0 -0.33682707
vn 0.94156647 0.0 -0.33682704
vn 0.94156647 0.0 -0.33682704
vn 0.94156647 0.0 -0.33682713
vn -0.9040063 0.0 0.42751908
vn -0.9040063 0.0 0.42751908
vn -0.9040063 0.0 0.42751908
vn -0.9040064 0.0 0.4275191
vn -0.0 1.0 0.0
vn -0.0 1.0 0.0
vn -0.0 1.0 0.0
vn 0.7410175 0.0 -0.6714858
vn 0.7410175 0.0 -0.6714858
vn 0.7410175 0.0 -0.6714858
vn 0.7410175 0.0 -0.6714857
vn 0.85777134 0.0 -0.5140316
vn 0.85777134 0.0 -0.5140316
vn 0.85777134 0.0 -0.5140316
vn 0.85777134 0.0 -0.5140315
vn 0.99879754 0.0 -0.04902529
vn 0.99879754 0.0 -0.04902529
vn 0.99879754 0.0 -0.04902529
vn 0.99879754 0.0 -0.049025293
vn -0.9987956 0.0 0.049063098
vn -0.9987956 0.0 0.049063098
vn -0.9987956 0.0 0.049063094
vn -0.9987956 0.0 0.0490631
vn -0.9700366 0.0 0.24295872
vn -0.9700366 0.0 0.2429587
vn -0.9700366 0.0 0.2429587
vn -0.9700366 0.0 0.24295866
vn -0.7409956 0.0 0.67150986
vn -0.74099565 0.0 0.67150986
vn -0.7409956 0.0 0.67150986
vn -0.7409956 0.0 0.67150986
vt 7.5547876 0.87569714
vt 7.8583612 0.9378075
vt 7.858218 0.87568957
vt 7.555002 0.93780005
vt 8.16172 0.937815
vt 8.16165 0.87568194
vt 7.2513566 0.87570477
vt 7.2516427 0.93779254
vt 6.9479256 0.87571234
vt 6.948283 0.9377851
vt 6.644495 0.8757199
vt 6.644924 0.9377776
vt 6.341064 0.87572753
vt 6.3415647 0.93777007
vt 6.037633 0.8757351
vt 6.038205 0.9377626
vt 8.46508 0.93782246
vt 8.46508 0.87567437
vt -1.0151308 0.31513762
vt -1.1144918 0.31030428
vt -1.1147726 0.31513858
vt -1.0149001 0.31030524
vt -1.2140834 0.31030333
vt -1.2144144 0.31513953
vt -0.91548884 0.31513667
vt -0.91530836 0.3103062
vt -0.81584704 0.31513572
vt -0.8157167 0.31030715
vt -0.71620524 0.31513482
vt -0.716125 0.3103081
vt -0.61656344 0.31513393
vt -0.6165333 0.31030905
vt -0.5169216 0.31513298
vt -0.5169416 0.31030995
vt -1.3136752 0.31030244
vt -1.3140562 0.31514043
vt 0.043277085 0.061575055
vt -0.10216105 0.005697608
vt -0.10216105 0.061671793
vt 0.043277085 0.0056009293
vt -0.24759917 0.0057942867
vt -0.24759917 0.06176853
vt -0.10216105 0.117401004
vt -0.24759917 0.11749768
vt 0.18871522 0.061478317
vt 0.18871522 0.11720765
vt 0.043277085 0.117304325
vt 0.18871522 0.00550431
vt 0.33415335 0.06138158
vt 0.33415335 0.005407691
vt 0.33415335 0.11711097
vt 0.4795915 0.11701429
vt 0.4795915 0.06128484
vt 0.6250296 0.11691755
vt 0.6250296 0.0611881
vt 0.4795915 0.0053110123
vt 0.6250296 0.0052143335
vt 0.77046776 0.061091363
vt 0.77046776 0.005117655
vt 0.77046776 0.11682087
vt -3.0727077 0.44190347
vt -3.4072075 0.43341017
vt -3.4072075 0.44190347
vt -3.0727077 0.43341017
vt -3.7417073 0.43341017
vt -3.7417073 0.44190347
vt -2.7382078 0.44190347
vt -2.7382078 0.43341017
vt -2.403708 0.44190347
vt -2.403708 0.43341017
vt -2.0692084 0.44190347
vt -2.0692084 0.43341017
vt -1.7347085 0.44190347
vt -1.7347085 0.43341017
vt -1.4002087 0.44190347
vt -1.4002087 0.43341017
vt -4.076207 0.43341017
vt -4.076207 0.44190347
vt -2.695732 0.8744714
vt -2.4764848 0.9349587
vt -2.4761405 0.8744982
vt -2.6961405 0.93491626
vt -2.256829 0.9350012
vt -2.256549 0.87452495
vt -2.9153237 0.8744447
vt -2.9157963 0.9348738
vt -3.1349154 0.87441796
vt -3.135452 0.9348313
vt -3.3545072 0.8743912
vt -3.3551078 0.9347889
vt -3.574099 0.87436444
vt -3.5747635 0.9347464
vt -3.7936907 0.8743377
vt -3.7944193 0.93470395
vt -2.0371733 0.93504363
vt -2.036957 0.8745517
vt 0.041540965 0.11969632
vt -0.10380018 0.06000346
vt -0.10380012 0.11961901
vt 0.04154092 0.060100913
vt -0.24914123 0.059906006
vt -0.2491412 0.119541705
vt 0.18688205 0.11977363
vt 0.18688202 0.060198307
vt 0.33222312 0.11985093
vt 0.33222312 0.06029576
vt 0.4775642 0.11992824
vt 0.4775642 0.060393155
vt 0.62290525 0.12000555
vt 0.62290525 0.06049061
vt 0.76824635 0.120082855
vt 0.76824635 0.060588002
vt -0.39448228 0.059808612
vt -0.39448228 0.1194644
vt 2.4415188 1.8936985
vt 2.7472987 1.9015267
vt 2.7472987 1.8936985
vt 2.4415188 1.9015266
vt 1.0338631 1.8906565
vt 0.728106 1.8828268
vt 0.728106 1.8906565
vt 1.0338631 1.8828268
vt 1.2183988 1.8936985
vt 1.5241787 1.9015266
vt 1.5241787 1.8936985
vt 1.2183988 1.9015266
vt 1.8299588 1.8936985
vt 2.1357388 1.9015266
vt 2.1357388 1.8936985
vt 1.8299588 1.9015266
vt 3.0530787 1.9015267
vt 2.7472987 1.8936985
vt 2.7472987 1.9015267
vt 3.0530787 1.8936985
vt 2.2568913 1.8906565
vt 1.9511342 1.8828268
vt 1.9511342 1.8906565
vt 2.2568913 1.8828268
vt 1.6453772 1.8906565
vt 1.3396201 1.8828268
vt 1.3396201 1.8906565
vt 1.6453772 1.8828268
vt 0.42234898 1.8828268
vt 0.728106 1.8906565
vt 0.728106 1.8828268
vt 0.42234898 1.8906565
vt 2.1357388 1.8936985
vt 2.4415188 1.9015266
vt 2.4415188 1.8936985
vt 2.1357388 1.9015266
vt 1.3396201 1.8906565
vt 1.0338631 1.8828268
vt 1.0338631 1.8906565
vt 1.3396201 1.8828268
vt -0.3930373 0.0058909655
vt -0.3930373 0.06186527
vt -0.3930373 0.11759442
vt 0.9126189 1.8936985
vt 1.2183988 1.9015266
vt 1.2183988 1.8936985
vt 0.9126189 1.9015266
vt 1.5241787 1.8936985
vt 1.8299588 1.9015266
vt 1.8299588 1.8936985
vt 1.5241787 1.9015266
vt 3.3588586 1.9015267
vt 3.0530787 1.8936985
vt 3.0530787 1.9015267
vt 3.3588586 1.8936985
vt 2.5626483 1.8906565
vt 2.2568913 1.8828268
vt 2.2568913 1.8906565
vt 2.5626483 1.8828268
vt 1.9511342 1.8906565
vt 1.6453772 1.8828268
vt 1.6453772 1.8906565
vt 1.9511342 1.8828268
vt 0.11659196 1.8828268
vt 0.42234898 1.8906565
vt 0.42234898 1.8828268
vt 0.11659196 1.8906565

g Three_Lane_45Degree_L_80m
s 1
usemtl Three_Lane_45Degree_L_80m
f 3/3/3 2/2/2 1/1/1 
f 4/4/4 1/1/1 2/2/2 
f 2/2/2 3/3/3 5/5/5 
f 6/6/6 5/5/5 3/3/3 
f 1/1/1 4/4/4 7/7/7 
f 8/8/8 7/7/7 4/4/4 
f 7/7/7 8/8/8 9/9/9 
f 10/10/10 9/9/9 8/8/8 
f 9/9/9 10/10/10 11/11/11 
f 12/12/12 11/11/11 10/10/10 
f 11/11/11 12/12/12 13/13/13 
f 14/14/14 13/13/13 12/12/12 
f 13/13/13 14/14/14 15/15/15 
f 16/16/16 15/15/15 14/14/14 
f 5/5/5 6/6/6 17/17/17 
f 18/18/18 17/17/17 6/6/6 
f 21/21/21 20/20/20 19/19/19 
f 22/22/22 19/19/19 20/20/20 
f 20/20/20 21/21/21 23/23/23 
f 24/24/24 23/23/23 21/21/21 
f 19/19/19 22/22/22 25/25/25 
f 26/26/26 25/25/25 22/22/22 
f 25/25/25 26/26/26 27/27/27 
f 28/28/28 27/27/27 26/26/26 
f 27/27/27 28/28/28 29/29/29 
f 30/30/30 29/29/29 28/28/28 
f 29/29/29 30/30/30 31/31/31 
f 32/32/32 31/31/31 30/30/30 
f 31/31/31 32/32/32 33/33/33 
f 34/34/34 33/33/33 32/32/32 
f 23/23/23 24/24/24 35/35/35 
f 36/36/36 35/35/35 24/24/24 
f 39/39/39 38/38/38 37/37/37 
f 40/40/40 37/37/37 38/38/38 
f 38/38/38 39/39/39 41/41/41 
f 42/42/42 41/41/41 39/39/39 
f 39/39/39 43/43/43 42/42/42 
f 44/44/44 42/42/42 43/43/43 
f 37/37/37 40/40/40 45/45/45 
f 45/45/45 46/46/46 37/37/37 
f 47/47/47 37/37/37 46/46/46 
f 37/37/37 47/47/47 39/39/39 
f 43/43/43 39/39/39 47/47/47 
f 48/48/48 45/45/45 40/40/40 
f 45/45/45 48/48/48 49/49/49 
f 50/50/50 49/49/49 48/48/48 
f 49/49/49 51/51/51 45/45/45 
f 46/46/46 45/45/45 51/51/51 
f 51/51/51 49/49/49 52/52/52 
f 53/53/53 52/52/52 49/49/49 
f 49/49/49 50/50/50 53/53/53 
f 52/52/52 53/53/53 54/54/54 
f 55/55/55 54/54/54 53/53/53 
f 53/53/53 56/56/56 55/55/55 
f 56/56/56 53/53/53 50/50/50 
f 57/57/57 55/55/55 56/56/56 
f 55/55/55 57/57/57 58/58/58 
f 59/59/59 58/58/58 57/57/57 
f 54/54/54 55/55/55 60/60/60 
f 58/58/58 60/60/60 55/55/55 
f 63/63/63 62/62/62 61/61/61 
f 64/64/64 61/61/61 62/62/62 
f 62/62/62 63/63/63 65/65/65 
f 66/66/66 65/65/65 63/63/63 
f 61/61/61 64/64/64 67/67/67 
f 68/68/68 67/67/67 64/64/64 
f 67/67/67 68/68/68 69/69/69 
f 70/70/70 69/69/69 68/68/68 
f 69/69/69 70/70/70 71/71/71 
f 72/72/72 71/71/71 70/70/70 
f 71/71/71 72/72/72 73/73/73 
f 74/74/74 73/73/73 72/72/72 
f 73/73/73 74/74/74 75/75/75 
f 76/76/76 75/75/75 74/74/74 
f 65/65/65 66/66/66 77/77/77 
f 78/78/78 77/77/77 66/66/66 
f 81/81/81 80/80/80 79/79/79 
f 82/82/82 79/79/79 80/80/80 
f 80/80/80 81/81/81 83/83/83 
f 84/84/84 83/83/83 81/81/81 
f 79/79/79 82/82/82 85/85/85 
f 86/86/86 85/85/85 82/82/82 
f 85/85/85 86/86/86 87/87/87 
f 88/88/88 87/87/87 86/86/86 
f 87/87/87 88/88/88 89/89/89 
f 90/90/90 89/89/89 88/88/88 
f 89/89/89 90/90/90 91/91/91 
f 92/92/92 91/91/91 90/90/90 
f 91/91/91 92/92/92 93/93/93 
f 94/94/94 93/93/93 92/92/92 
f 83/83/83 84/84/84 95/95/95 
f 96/96/96 95/95/95 84/84/84 
f 99/99/99 98/98/98 97/97/97 
f 100/100/100 97/97/97 98/98/98 
f 98/98/98 99/99/99 101/101/101 
f 102/102/102 101/101/101 99/99/99 
f 97/97/97 100/100/100 103/103/103 
f 104/104/104 103/103/103 100/100/100 
f 103/103/103 104/104/104 105/105/105 
f 106/106/106 105/105/105 104/104/104 
f 105/105/105 106/106/106 107/107/107 
f 108/108/108 107/107/107 106/106/106 
f 107/107/107 108/108/108 109/109/109 
f 110/110/110 109/109/109 108/108/108 
f 109/109/109 110/110/110 111/111/111 
f 112/112/112 111/111/111 110/110/110 
f 101/101/101 102/102/102 113/113/113 
f 114/114/114 113/113/113 102/102/102 
f 117/117/117 116/116/116 115/115/115 
f 118/118/118 115/115/115 116/116/116 
f 121/121/121 120/120/120 119/119/119 
f 122/122/122 119/119/119 120/120/120 
f 125/125/125 124/124/124 123/123/123 
f 126/126/126 123/123/123 124/124/124 
f 129/129/129 128/128/128 127/127/127 
f 130/130/130 127/127/127 128/128/128 
f 133/133/133 132/132/132 131/131/131 
f 134/134/134 131/131/131 132/132/132 
f 137/137/137 136/136/136 135/135/135 
f 138/138/138 135/135/135 136/136/136 
f 141/141/141 140/140/140 139/139/139 
f 142/142/142 139/139/139 140/140/140 
f 145/145/145 144/144/144 143/143/143 
f 146/146/146 143/143/143 144/144/144 
f 149/149/149 148/148/148 147/147/147 
f 150/150/150 147/147/147 148/148/148 
f 153/153/153 152/152/152 151/151/151 
f 154/154/154 151/151/151 152/152/152 
f 41/41/41 42/42/42 155/155/155 
f 156/156/156 155/155/155 42/42/42 
f 42/42/42 44/44/44 156/156/156 
f 157/157/157 156/156/156 44/44/44 
f 160/160/160 159/159/159 158/158/158 
f 161/161/161 158/158/158 159/159/159 
f 164/164/164 163/163/163 162/162/162 
f 165/165/165 162/162/162 163/163/163 
f 168/168/168 167/167/167 166/166/166 
f 169/169/169 166/166/166 167/167/167 
f 172/172/172 171/171/171 170/170/170 
f 173/173/173 170/170/170 171/171/171 
f 176/176/176 175/175/175 174/174/174 
f 177/177/177 174/174/174 175/175/175 
f 180/180/180 179/179/179 178/178/178 
f 181/181/181 178/178/178 179/179/179 

