# Created by DisUnity v0.3.4
v -1.9998474 0.48575932 -2.000122
v 8.773804E-5 0.48575932 -1.13487244E-4
v -1.9998474 0.48575932 -1.13487244E-4
v 8.773804E-5 0.48575932 -2.000122
v -1.9998474 0.24994296 -2.000122
v -1.9998474 0.48575932 -1.13487244E-4
v -1.9998474 0.24994296 -1.1396408E-4
v -1.9998474 0.48575932 -2.000122
v 8.773804E-5 0.48575932 -2.000122
v 8.773804E-5 1.3941526E-4 -1.13487244E-4
v 8.773804E-5 0.48575932 -1.13487244E-4
v 8.773804E-5 1.3941526E-4 -2.000122
v -27.999819 0.48575932 -2.000122
v -25.999886 0.48575932 -1.13487244E-4
v -27.999819 0.48575932 -1.1444092E-4
v -25.999886 0.48575932 -2.000122
v -27.999819 1.3941526E-4 -2.000122
v -27.999819 0.48575932 -1.1444092E-4
v -27.999819 1.3941526E-4 -1.1444092E-4
v -27.999819 0.48575932 -2.000122
v -25.999886 0.48575932 -2.000122
v -25.999886 0.24994296 -1.13487244E-4
v -25.999886 0.48575932 -1.13487244E-4
v -25.999886 0.24994296 -2.000122
v -5.97876 0.24994296 -2.000122
v -1.9998474 0.24994296 -1.1396408E-4
v -5.97876 0.24994296 -1.1396408E-4
v -1.9998474 0.24994296 -2.000122
v -14.277529 0.24994296 -2.000122
v -13.72937 0.24994296 -1.1396408E-4
v -14.277527 0.24994296 -1.1396408E-4
v -13.729372 0.24994296 -2.000122
v -22.06415 0.24994296 -2.000122
v -14.277527 0.24994296 -1.1396408E-4
v -22.064148 0.24994296 -1.13487244E-4
v -14.277529 0.24994296 -2.000122
v -25.999886 0.24994296 -2.000122
v -22.064148 0.24994296 -1.13487244E-4
v -25.999886 0.24994296 -1.13487244E-4
v -22.06415 0.24994296 -2.000122
v -13.729372 0.24994296 -2.000122
v -5.97876 0.24994296 -1.1396408E-4
v -13.72937 0.24994296 -1.1396408E-4
v -5.97876 0.24994296 -2.000122
vn -0.0 1.0 0.0
vn -0.0 1.0 0.0
vn -0.0 1.0 0.0
vn -0.0 1.0 0.0
vn -1.0 0.0 0.0
vn -1.0 0.0 0.0
vn -1.0 0.0 0.0
vn -1.0 0.0 0.0
vn 1.0 0.0 0.0
vn 1.0 0.0 0.0
vn 1.0 0.0 0.0
vn 1.0 0.0 0.0
vn -0.0 1.0 0.0
vn -0.0 1.0 0.0
vn -0.0 1.0 0.0
vn -0.0 1.0 0.0
vn -1.0 0.0 0.0
vn -1.0 0.0 0.0
vn -1.0 0.0 0.0
vn -1.0 0.0 0.0
vn 1.0 0.0 0.0
vn 1.0 0.0 0.0
vn 1.0 0.0 0.0
vn 1.0 0.0 0.0
vn -0.0 1.0 0.0
vn -0.0 1.0 0.0
vn -0.0 1.0 0.0
vn -0.0 1.0 0.0
vn -0.0 1.0 0.0
vn -0.0 1.0 0.0
vn -0.0 1.0 0.0
vn -0.0 1.0 0.0
vn -0.0 1.0 0.0
vn -0.0 1.0 0.0
vn -0.0 1.0 0.0
vn -0.0 1.0 0.0
vn -0.0 1.0 0.0
vn -0.0 1.0 0.0
vn -0.0 1.0 0.0
vn -0.0 1.0 0.0
vn -0.0 1.0 0.0
vn -0.0 1.0 0.0
vn -0.0 1.0 0.0
vn -0.0 1.0 0.0
vt 0.38088495 0.8084088
vt 0.43439218 0.751142
vt 0.4343922 0.8084088
vt 0.38088492 0.751142
vt 0.38088495 0.81176025
vt 0.4343922 0.8084088
vt 0.4343922 0.81176025
vt 0.38088495 0.8084088
vt 0.38088495 0.8114679
vt 0.4343922 0.80811644
vt 0.4343922 0.8114679
vt 0.38088495 0.80811644
vt 0.38088495 0.8084088
vt 0.4343922 0.751142
vt 0.4343922 0.8084088
vt 0.38088495 0.751142
vt 0.38088495 0.81176025
vt 0.4343922 0.8084088
vt 0.4343922 0.81176025
vt 0.38088495 0.8084088
vt 0.38088498 0.8114679
vt 0.43439224 0.80811644
vt 0.43439224 0.8114679
vt 0.38088498 0.80811644
vt 0.5841973 0.52734894
vt 0.55398506 0.5843524
vt 0.553985 0.527349
vt 0.58419734 0.5843524
vt 0.25394228 0.4283083
vt 0.19269216 0.44509554
vt 0.19269216 0.4283083
vt 0.25394228 0.44509554
vt 0.5747755 0.4684267
vt 0.5445633 0.5891542
vt 0.54456323 0.4684267
vt 0.5747755 0.5891542
vt 0.8258942 0.5842443
vt 0.85610634 0.52789307
vt 0.8561064 0.5842443
vt 0.82589406 0.52789307
vt 0.81647235 0.5891543
vt 0.8466846 0.46897078
vt 0.8466846 0.58915424
vt 0.81647235 0.46897078

g Three_Lane_32
s 1
usemtl Three_Lane_32
f 3/3/3 2/2/2 1/1/1 
f 4/4/4 1/1/1 2/2/2 
f 7/7/7 6/6/6 5/5/5 
f 8/8/8 5/5/5 6/6/6 
f 11/11/11 10/10/10 9/9/9 
f 12/12/12 9/9/9 10/10/10 
f 15/15/15 14/14/14 13/13/13 
f 16/16/16 13/13/13 14/14/14 
f 19/19/19 18/18/18 17/17/17 
f 20/20/20 17/17/17 18/18/18 
f 23/23/23 22/22/22 21/21/21 
f 24/24/24 21/21/21 22/22/22 
f 27/27/27 26/26/26 25/25/25 
f 28/28/28 25/25/25 26/26/26 
f 31/31/31 30/30/30 29/29/29 
f 32/32/32 29/29/29 30/30/30 
f 35/35/35 34/34/34 33/33/33 
f 36/36/36 33/33/33 34/34/34 
f 39/39/39 38/38/38 37/37/37 
f 40/40/40 37/37/37 38/38/38 
f 43/43/43 42/42/42 41/41/41 
f 44/44/44 41/41/41 42/42/42 

