# Created by DisUnity v0.3.4
v -5.9999976 0.24978212 -8.000024
v -13.999975 0.24978071 -16.000036
v -5.9999986 0.24978212 -16.000048
v -13.999983 0.24978071 -8.00003
v -1.9999806 0.24978282 -8.000033
v -5.9999986 0.24978212 -16.000048
v -1.9999739 0.24978282 -16.000046
v -5.9999976 0.24978212 -8.000024
v -1.9999892 0.48559916 -16.000063
v 7.0359138E-6 0.48559952 -8.000046
v -1.9999877 0.48559916 -8.000041
v 5.573659E-6 0.48559952 -16.000067
v -1.9999892 0.24978282 -16.000063
v -1.9999877 0.48559916 -8.000041
v -1.9999806 0.24978282 -8.000033
v -1.9999892 0.48559916 -16.000063
v 5.573659E-6 0.48559952 -16.000067
v 7.120822E-6 -2.0325182E-5 -8.000046
v 7.0359138E-6 0.48559952 -8.000046
v 5.6585677E-6 -2.0325182E-5 -16.000067
v -15.999989 0.48559672 -16.000063
v -13.99999 0.48559707 -8.000042
v -15.999986 0.48559672 -8.000042
v -13.999993 0.48559707 -16.000063
v -15.999989 -2.3122711E-5 -16.000063
v -15.999986 0.48559672 -8.000042
v -15.999986 -2.312271E-5 -8.000042
v -15.999989 0.48559672 -16.000063
v -13.999993 0.48559707 -16.000063
v -13.999983 0.24978071 -8.00003
v -13.99999 0.48559707 -8.000042
v -13.999993 0.24978071 -16.000063
v -5.9999967 0.24978212 -1.0490729E-6
v -13.999983 0.24978071 -8.00003
v -5.9999976 0.24978212 -8.000024
v -13.999973 0.24978071 5.181561E-6
v -1.9999728 0.24978282 -4.164384E-6
v -5.9999976 0.24978212 -8.000024
v -1.9999806 0.24978282 -8.000033
v -5.9999967 0.24978212 -1.0490729E-6
v -1.9999877 0.48559916 -8.000041
v 9.451843E-6 0.48559952 -2.479553E-5
v -1.9999863 0.48559916 -2.1330523E-5
v 7.0359138E-6 0.48559952 -8.000046
v -1.9999806 0.24978282 -8.000033
v -1.9999863 0.48559916 -2.1330523E-5
v -1.9999862 0.24978282 -2.1330523E-5
v -1.9999877 0.48559916 -8.000041
v 7.0359138E-6 0.48559952 -8.000046
v 9.536751E-6 -2.0325182E-5 -2.479553E-5
v 9.451843E-6 0.48559952 -2.479553E-5
v 7.120822E-6 -2.0325182E-5 -8.000046
v -15.999986 0.48559672 -8.000042
v -13.999987 0.48559707 -2.0567648E-5
v -15.999982 0.48559672 -1.9963663E-5
v -13.99999 0.48559707 -8.000042
v -15.999986 -2.312271E-5 -8.000042
v -15.999982 0.48559672 -1.9963663E-5
v -15.999982 -2.312271E-5 -1.9963663E-5
v -15.999986 0.48559672 -8.000042
v -13.99999 0.48559707 -8.000042
v -13.999987 0.24978071 -2.0567648E-5
v -13.999987 0.48559707 -2.0567648E-5
v -13.999983 0.24978071 -8.00003
vn -0.0 1.0 0.0
vn -0.0 1.0 0.0
vn -0.0 1.0 0.0
vn -0.0 1.0 0.0
vn -0.0 1.0 0.0
vn -0.0 1.0 0.0
vn -0.0 1.0 0.0
vn -0.0 1.0 0.0
vn -0.0 1.0 0.0
vn -0.0 1.0 0.0
vn -0.0 1.0 0.0
vn -0.0 1.0 0.0
vn -1.0 0.0 0.0
vn -1.0 -3.0221343E-5 0.0
vn -1.0 -3.0221343E-5 0.0
vn -1.0 0.0 0.0
vn 1.0 0.0 0.0
vn 1.0 0.0 0.0
vn 1.0 0.0 0.0
vn 1.0 0.0 0.0
vn -0.0 1.0 0.0
vn -0.0 1.0 0.0
vn -0.0 1.0 0.0
vn -0.0 1.0 0.0
vn -1.0 0.0 0.0
vn -1.0 0.0 0.0
vn -1.0 0.0 0.0
vn -1.0 0.0 0.0
vn 1.0 0.0 0.0
vn 1.0 3.2224467E-5 0.0
vn 1.0 3.2224467E-5 0.0
vn 1.0 0.0 0.0
vn -0.0 1.0 0.0
vn -0.0 1.0 0.0
vn -0.0 1.0 0.0
vn -0.0 1.0 0.0
vn -0.0 1.0 0.0
vn -0.0 1.0 0.0
vn -0.0 1.0 0.0
vn -0.0 1.0 0.0
vn -0.0 1.0 0.0
vn -0.0 1.0 0.0
vn -0.0 1.0 0.0
vn -0.0 1.0 0.0
vn -1.0 -3.0221343E-5 0.0
vn -1.0 0.0 0.0
vn -1.0 0.0 0.0
vn -1.0 -3.0221343E-5 0.0
vn 1.0 0.0 0.0
vn 1.0 0.0 0.0
vn 1.0 0.0 0.0
vn 1.0 0.0 0.0
vn -0.0 1.0 0.0
vn -0.0 1.0 0.0
vn -0.0 1.0 0.0
vn -0.0 1.0 0.0
vn -1.0 0.0 0.0
vn -1.0 0.0 0.0
vn -1.0 0.0 0.0
vn -1.0 0.0 0.0
vn 1.0 3.2224467E-5 0.0
vn 1.0 0.0 0.0
vn 1.0 0.0 0.0
vn 1.0 3.2224467E-5 0.0
vt 0.49987495 0.0010339022
vt 0.3777692 0.122770965
vt 0.37776917 0.0010339022
vt 0.49987498 0.122770965
vt 0.37776926 0.122771025
vt 0.499875 0.059467733
vt 0.49987504 0.122771025
vt 0.37776923 0.059467733
vt 0.6240893 0.7778168
vt 0.31315494 0.7507856
vt 0.31315494 0.7778168
vt 0.6240893 0.7507856
vt 0.6240893 0.7811957
vt 0.31315494 0.7778168
vt 0.31315494 0.7811957
vt 0.6240893 0.7778168
vt 0.62408936 0.8116058
vt 0.31315494 0.80822694
vt 0.31315494 0.8116058
vt 0.62408936 0.8082269
vt 0.6240893 0.7778168
vt 0.31315494 0.7507856
vt 0.31315494 0.7778168
vt 0.6240893 0.7507856
vt 0.6240893 0.7811957
vt 0.31315494 0.7778168
vt 0.31315494 0.7811957
vt 0.6240893 0.7778168
vt 0.62408936 0.8116058
vt 0.31315494 0.80822694
vt 0.31315494 0.8116058
vt 0.62408936 0.8082269
vt 0.49987495 0.0010339022
vt 0.3777692 0.122770965
vt 0.37776917 0.0010339022
vt 0.49987498 0.122770965
vt 0.37776926 0.122771025
vt 0.499875 0.059467733
vt 0.49987504 0.122771025
vt 0.37776923 0.059467733
vt 0.6240893 0.7778168
vt 0.31315494 0.7507856
vt 0.31315494 0.7778168
vt 0.6240893 0.7507856
vt 0.6240893 0.7811957
vt 0.31315494 0.7778168
vt 0.31315494 0.7811957
vt 0.6240893 0.7778168
vt 0.62408936 0.8116058
vt 0.31315494 0.80822694
vt 0.31315494 0.8116058
vt 0.62408936 0.8082269
vt 0.6240893 0.7778168
vt 0.31315494 0.7507856
vt 0.31315494 0.7778168
vt 0.6240893 0.7507856
vt 0.6240893 0.7811957
vt 0.31315494 0.7778168
vt 0.31315494 0.7811957
vt 0.6240893 0.7778168
vt 0.62408936 0.8116058
vt 0.31315494 0.80822694
vt 0.31315494 0.8116058
vt 0.62408936 0.8082269

g Three_Lane_24
s 1
usemtl Three_Lane_24
f 3/3/3 2/2/2 1/1/1 
f 4/4/4 1/1/1 2/2/2 
f 7/7/7 6/6/6 5/5/5 
f 8/8/8 5/5/5 6/6/6 
f 11/11/11 10/10/10 9/9/9 
f 12/12/12 9/9/9 10/10/10 
f 15/15/15 14/14/14 13/13/13 
f 16/16/16 13/13/13 14/14/14 
f 19/19/19 18/18/18 17/17/17 
f 20/20/20 17/17/17 18/18/18 
f 23/23/23 22/22/22 21/21/21 
f 24/24/24 21/21/21 22/22/22 
f 27/27/27 26/26/26 25/25/25 
f 28/28/28 25/25/25 26/26/26 
f 31/31/31 30/30/30 29/29/29 
f 32/32/32 29/29/29 30/30/30 
f 35/35/35 34/34/34 33/33/33 
f 36/36/36 33/33/33 34/34/34 
f 39/39/39 38/38/38 37/37/37 
f 40/40/40 37/37/37 38/38/38 
f 43/43/43 42/42/42 41/41/41 
f 44/44/44 41/41/41 42/42/42 
f 47/47/47 46/46/46 45/45/45 
f 48/48/48 45/45/45 46/46/46 
f 51/51/51 50/50/50 49/49/49 
f 52/52/52 49/49/49 50/50/50 
f 55/55/55 54/54/54 53/53/53 
f 56/56/56 53/53/53 54/54/54 
f 59/59/59 58/58/58 57/57/57 
f 60/60/60 57/57/57 58/58/58 
f 63/63/63 62/62/62 61/61/61 
f 64/64/64 61/61/61 62/62/62 

