# Created by DisUnity v0.3.4
v -2.000905 0.24982308 -7.977852
v -2.2539463 0.24982306 3.9100647E-5
v -2.255024 0.24982306 -7.977852
v -2.0010014 0.24982308 -0.0019612312
v -10.000019 0.24982305 -7.977853
v -13.75766 0.24982306 0.002003193
v -13.75766 0.24982306 -7.9778557
v -10.000019 0.24982305 0.0039029121
v -6.2587886 0.24982306 -7.977848
v -6.2587886 0.24982306 0.0019710064
v -13.75766 0.24982306 -7.9778557
v -14.005364 0.24982305 0.0020046234
v -14.005364 0.24982305 -7.9778514
v -13.75766 0.24982306 0.002003193
v -1.5258789E-5 0.24982308 -7.977852
v -2.0010014 0.24982308 -0.0019612312
v -2.000905 0.24982308 -7.977852
v -1.5258789E-5 0.24982308 2.002716E-5
v -2.255024 0.24982306 -7.977852
v -6.2587886 0.24982306 0.0019710064
v -6.2587886 0.24982306 -7.977848
v -2.2539463 0.24982306 3.9100647E-5
v -31.740576 0.24982306 3.9100647E-5
v -31.993618 0.24982308 -7.977854
v -31.739498 0.24982306 -7.977853
v -31.99352 0.24982308 -0.0019612312
v -20.236862 0.24982306 0.002003193
v -23.994503 0.24982305 -7.977852
v -20.236862 0.24982306 -7.977852
v -23.994503 0.24982305 0.0039029121
v -27.735733 0.24982306 0.0019710064
v -27.735733 0.24982306 -7.977853
v -19.989159 0.24982305 0.0020046234
v -20.236862 0.24982306 -7.977852
v -19.989159 0.24982305 -7.9778547
v -20.236862 0.24982306 0.002003193
v -31.99352 0.24982308 -0.0019612312
v -33.994507 0.24982308 -7.977854
v -31.993618 0.24982308 -7.977854
v -33.994507 0.24982308 2.002716E-5
v -27.735733 0.24982306 0.0019710064
v -31.739498 0.24982306 -7.977853
v -27.735733 0.24982306 -7.977853
v -31.740576 0.24982306 3.9100647E-5
v -16.001139 0.24992822 0.0036439896
v -16.997822 0.24992898 -7.9778514
v -16.00114 0.24992892 -7.977854
v -16.99782 0.24992828 0.0036439896
v -16.406216 0.328642 -7.977852
v -17.29333 0.622134 -7.9778523
v -17.589481 0.32864207 -7.977853
v -16.702362 0.6221339 -7.977852
v -17.220566 1.5530579 -7.9778514
v -16.997849 1.5530579 -7.9778514
v -16.775131 1.5530579 -7.977852
v -17.589481 0.2500335 0.00365448
v -16.406216 0.32863992 0.00365448
v -16.406216 0.25003338 0.00365448
v -17.589481 0.32863998 0.00365448
v -17.293327 0.6221319 0.00365448
v -16.702362 0.6221318 0.00365448
v -17.220566 1.5530559 0.00365448
v -16.997847 1.5530559 0.00365448
v -16.775131 1.5530559 0.00365448
v -17.29333 0.622134 -7.9778523
v -17.589481 0.32863998 0.00365448
v -17.589481 0.32864207 -7.977853
v -17.293327 0.6221319 0.00365448
v -17.220566 1.5530579 -7.9778514
v -17.220566 1.5530559 0.00365448
v -17.589481 0.2500335 0.00365448
v -17.589481 0.25003558 -7.977853
v -16.406216 0.328642 -7.977852
v -16.702362 0.6221318 0.00365448
v -16.702362 0.6221339 -7.977852
v -16.406216 0.32863992 0.00365448
v -16.775131 1.5530559 0.00365448
v -16.775131 1.5530579 -7.977852
v -16.406216 0.25003546 -7.977852
v -16.406216 0.25003338 0.00365448
v -16.001139 0.24992822 0.0036439896
v -14.005364 0.24982305 -7.9778514
v -14.005364 0.24982305 0.0020046234
v -16.00114 0.24992892 -7.977854
v -1.5258789E-5 0.24982308 2.002716E-5
v -1.5258789E-5 1.8328428E-6 -7.977852
v -1.5258789E-5 2.026558E-6 2.002716E-5
v -1.5258789E-5 0.24982308 -7.977852
v -19.989159 0.24982305 0.0020046234
v -17.994503 0.24992904 -7.9778514
v -17.994501 0.24992834 0.0036439896
v -19.989159 0.24982305 -7.9778547
v -33.994507 2.026558E-6 2.002716E-5
v -33.994507 0.24982308 -7.977854
v -33.994507 0.24982308 2.002716E-5
v -33.994507 1.8328428E-6 -7.977854
v -17.994501 0.24992834 0.0036439896
v -16.997822 0.24992898 -7.9778514
v -16.99782 0.24992828 0.0036439896
v -17.994503 0.24992904 -7.9778514
v -17.220566 1.5530559 0.00365448
v -16.997849 1.5530579 -7.9778514
v -16.997847 1.5530559 0.00365448
v -17.220566 1.5530579 -7.9778514
v -16.775131 1.5530579 -7.977852
v -16.775131 1.5530559 0.00365448
v -16.406216 0.25003546 -7.977852
v -17.589481 0.32864207 -7.977853
v -17.589481 0.25003558 -7.977853
v -16.406216 0.328642 -7.977852
vn -0.0 1.0 0.0
vn -0.0 1.0 0.0
vn -0.0 1.0 0.0
vn -0.0 1.0 0.0
vn -0.0 1.0 0.0
vn -0.0 1.0 0.0
vn -0.0 1.0 0.0
vn -0.0 1.0 0.0
vn -0.0 1.0 0.0
vn -0.0 1.0 0.0
vn -0.0 1.0 0.0
vn -0.0 1.0 0.0
vn -0.0 1.0 0.0
vn -0.0 1.0 0.0
vn -0.0 1.0 0.0
vn -0.0 1.0 0.0
vn -0.0 1.0 0.0
vn -0.0 1.0 0.0
vn -0.0 1.0 0.0
vn -0.0 1.0 0.0
vn -0.0 1.0 0.0
vn -0.0 1.0 0.0
vn -0.0 1.0 0.0
vn -0.0 1.0 0.0
vn -0.0 1.0 0.0
vn -0.0 1.0 0.0
vn -0.0 1.0 0.0
vn -0.0 1.0 0.0
vn -0.0 1.0 0.0
vn -0.0 1.0 0.0
vn -0.0 1.0 0.0
vn -0.0 1.0 0.0
vn -0.0 1.0 0.0
vn -0.0 1.0 0.0
vn -0.0 1.0 0.0
vn -0.0 1.0 0.0
vn -0.0 1.0 0.0
vn -0.0 1.0 0.0
vn -0.0 1.0 0.0
vn -0.0 1.0 0.0
vn -0.0 1.0 0.0
vn -0.0 1.0 0.0
vn -0.0 1.0 0.0
vn -0.0 1.0 0.0
vn -0.0 1.0 0.0
vn -0.0 1.0 0.0
vn -0.0 1.0 0.0
vn -0.0 1.0 0.0
vn -0.0 0.0 -1.0
vn -0.0 0.0 -1.0
vn -0.0 0.0 -1.0
vn -0.0 0.0 -1.0
vn -0.0 0.0 -1.0
vn -0.0 0.0 -1.0
vn -0.0 0.0 -1.0
vn -0.0 0.0 1.0
vn -0.0 0.0 1.0
vn -0.0 0.0 1.0
vn -0.0 0.0 1.0
vn -0.0 0.0 1.0
vn -0.0 0.0 1.0
vn -0.0 0.0 1.0
vn -0.0 0.0 1.0
vn -0.0 0.0 1.0
vn -0.90730894 0.4204646 0.0
vn -0.9230133 0.38476807 0.0
vn -0.9230141 0.38476607 0.0
vn -0.9073088 0.4204648 0.0
vn -0.6789978 0.7341402 0.0
vn -0.67899776 0.73414034 0.0
vn -1.0 0.0 0.0
vn -1.0 0.0 0.0
vn 0.9230158 0.3847622 0.0
vn 0.9073098 0.42046264 0.0
vn 0.9073099 0.42046252 0.0
vn 0.92301595 0.3847617 0.0
vn 0.6789952 0.73414266 0.0
vn 0.6789961 0.734142 0.0
vn 1.0 0.0 0.0
vn 1.0 0.0 0.0
vn 5.2697542E-5 1.0 0.0
vn 5.2697542E-5 1.0 0.0
vn 5.2697542E-5 1.0 0.0
vn 5.3048414E-5 1.0 0.0
vn 1.0 0.0 0.0
vn 1.0 0.0 0.0
vn 1.0 0.0 0.0
vn 1.0 0.0 0.0
vn -5.2786883E-5 1.0 0.0
vn -5.2786883E-5 1.0 0.0
vn -5.2786883E-5 1.0 0.0
vn -5.3137974E-5 1.0 0.0
vn -1.0 0.0 0.0
vn -1.0 0.0 0.0
vn -1.0 0.0 0.0
vn -1.0 0.0 0.0
vn -0.0 1.0 0.0
vn -0.0 1.0 0.0
vn -0.0 1.0 0.0
vn -0.0 1.0 0.0
vn -0.67899776 0.73414034 0.0
vn -0.0 1.0 0.0
vn -0.0 1.0 0.0
vn -0.6789978 0.7341402 0.0
vn 0.6789961 0.734142 0.0
vn 0.6789952 0.73414266 0.0
vn -0.0 0.0 -1.0
vn -0.0 0.0 -1.0
vn -0.0 0.0 -1.0
vn -0.0 0.0 -1.0
vt -1.2345856 0.3151397
vt -1.3136752 0.31030244
vt -1.2342235 0.31030315
vt -1.3140562 0.31514043
vt -0.25396028 0.061788082
vt -0.37004244 0.0058909655
vt -0.25398514 0.005813837
vt -0.37004244 0.06186527
vt -0.25398806 0.11751723
vt -0.37004244 0.11759442
vt -3.8092816 0.44190347
vt -4.076207 0.43341017
vt -3.8092818 0.43341017
vt -4.076207 0.44190347
vt 1.0879395 0.8745304
vt 1.2629075 0.93504363
vt 1.0877186 0.9350098
vt 1.2631238 0.8745517
vt -0.25553808 0.11952609
vt -0.37148744 0.059808612
vt -0.25551048 0.059886336
vt -0.37148744 0.1194644
vt -1.3136752 0.31030244
vt -1.2345856 0.3151397
vt -1.2342235 0.31030315
vt -1.3140562 0.31514043
vt -0.37004244 0.0058909655
vt -0.25396028 0.061788082
vt -0.2539852 0.005813837
vt -0.37004244 0.06186527
vt -0.37004244 0.11759442
vt -0.25398797 0.11751723
vt -4.076207 0.43341017
vt -3.8092818 0.44190347
vt -3.8092816 0.43341017
vt -4.076207 0.44190347
vt 1.2629075 0.93504363
vt 1.0879395 0.8745304
vt 1.0877186 0.9350098
vt 1.2631238 0.8745517
vt -0.37148744 0.059808612
vt -0.25553808 0.11952609
vt -0.25551042 0.059886336
vt -0.37148744 0.1194644
vt 0.6407192 0.90643793
vt 0.8822495 0.876277
vt 0.8822495 0.9064379
vt 0.6407192 0.8762771
vt 0.68161345 0.8709777
vt 0.65231603 0.8590957
vt 0.6424066 0.87414736
vt 0.6720035 0.859066
vt 0.6575331 0.820617
vt 0.66211134 0.82136905
vt 0.6697488 0.8214009
vt 0.560914 0.87414736
vt 0.52167445 0.87096894
vt 0.52167445 0.87414736
vt 0.5609281 0.870986
vt 0.551196 0.85909903
vt 0.5315316 0.8590925
vt 0.5489161 0.8214599
vt 0.54133785 0.8214856
vt 0.5337267 0.8214876
vt 0.13839492 0.85597765
vt 0.313055 0.87003183
vt 0.13839492 0.87003183
vt 0.313055 0.85597765
vt 0.13839492 0.81139934
vt 0.313055 0.81139934
vt 0.313055 0.873796
vt 0.13839492 0.873796
vt -1.262808 0.87047756
vt -1.437468 0.85642326
vt -1.262808 0.8564233
vt -1.437468 0.87047756
vt -1.437468 0.81184506
vt -1.262808 0.81184506
vt -1.262808 0.87424165
vt -1.437468 0.87424165
vt 0.6373038 0.8757351
vt 0.87995195 0.9359757
vt 0.63787603 0.93596965
vt 0.8795053 0.8757291
vt 2.5626483 1.8906565
vt 2.3187237 1.8828268
vt 2.5626483 1.8828268
vt 2.3187237 1.8906565
vt 0.63787603 0.93596965
vt 0.8795053 0.8757291
vt 0.6373038 0.8757351
vt 0.87995195 0.9359757
vt 2.5626483 1.8828268
vt 2.3187237 1.8906565
vt 2.5626483 1.8906565
vt 2.3187237 1.8828268
vt 3.0614398 0.9060458
vt 2.8199096 0.875885
vt 3.0614398 0.875885
vt 2.8199096 0.9060458
vt -1.437468 0.8297745
vt -1.262808 0.82103264
vt -1.437468 0.8210326
vt -1.262808 0.8297745
vt -1.262808 0.81184506
vt -1.437468 0.81229085
vt 0.727455 0.8717931
vt 0.689382 0.87432235
vt 0.689382 0.8717931
vt 0.727455 0.87432235

g Three_Lane_8m
s 1
usemtl Three_Lane_8m
f 3/3/3 2/2/2 1/1/1 
f 4/4/4 1/1/1 2/2/2 
f 7/7/7 6/6/6 5/5/5 
f 8/8/8 5/5/5 6/6/6 
f 5/5/5 8/8/8 9/9/9 
f 10/10/10 9/9/9 8/8/8 
f 13/13/13 12/12/12 11/11/11 
f 14/14/14 11/11/11 12/12/12 
f 17/17/17 16/16/16 15/15/15 
f 18/18/18 15/15/15 16/16/16 
f 21/21/21 20/20/20 19/19/19 
f 22/22/22 19/19/19 20/20/20 
f 25/25/25 24/24/24 23/23/23 
f 26/26/26 23/23/23 24/24/24 
f 29/29/29 28/28/28 27/27/27 
f 30/30/30 27/27/27 28/28/28 
f 30/30/30 28/28/28 31/31/31 
f 32/32/32 31/31/31 28/28/28 
f 35/35/35 34/34/34 33/33/33 
f 36/36/36 33/33/33 34/34/34 
f 39/39/39 38/38/38 37/37/37 
f 40/40/40 37/37/37 38/38/38 
f 43/43/43 42/42/42 41/41/41 
f 44/44/44 41/41/41 42/42/42 
f 47/47/47 46/46/46 45/45/45 
f 48/48/48 45/45/45 46/46/46 
f 51/51/51 50/50/50 49/49/49 
f 52/52/52 49/49/49 50/50/50 
f 50/50/50 53/53/53 52/52/52 
f 54/54/54 52/52/52 53/53/53 
f 52/52/52 54/54/54 55/55/55 
f 58/58/58 57/57/57 56/56/56 
f 59/59/59 56/56/56 57/57/57 
f 59/59/59 57/57/57 60/60/60 
f 61/61/61 60/60/60 57/57/57 
f 60/60/60 61/61/61 62/62/62 
f 63/63/63 62/62/62 61/61/61 
f 61/61/61 64/64/64 63/63/63 
f 67/67/67 66/66/66 65/65/65 
f 68/68/68 65/65/65 66/66/66 
f 65/65/65 68/68/68 69/69/69 
f 70/70/70 69/69/69 68/68/68 
f 66/66/66 67/67/67 71/71/71 
f 72/72/72 71/71/71 67/67/67 
f 75/75/75 74/74/74 73/73/73 
f 76/76/76 73/73/73 74/74/74 
f 74/74/74 75/75/75 77/77/77 
f 78/78/78 77/77/77 75/75/75 
f 73/73/73 76/76/76 79/79/79 
f 80/80/80 79/79/79 76/76/76 
f 83/83/83 82/82/82 81/81/81 
f 84/84/84 81/81/81 82/82/82 
f 87/87/87 86/86/86 85/85/85 
f 88/88/88 85/85/85 86/86/86 
f 91/91/91 90/90/90 89/89/89 
f 92/92/92 89/89/89 90/90/90 
f 95/95/95 94/94/94 93/93/93 
f 96/96/96 93/93/93 94/94/94 
f 99/99/99 98/98/98 97/97/97 
f 100/100/100 97/97/97 98/98/98 
f 103/103/103 102/102/102 101/101/101 
f 104/104/104 101/101/101 102/102/102 
f 102/102/102 103/103/103 105/105/105 
f 106/106/106 105/105/105 103/103/103 
f 109/109/109 108/108/108 107/107/107 
f 110/110/110 107/107/107 108/108/108 

