# Created by DisUnity v0.3.4
v -1.9999127 0.24976708 -14.00002
v 2.8299408 0.24976783 -22.000061
v 2.8299394 0.24976791 -14.000023
v -1.9999175 0.24976708 -22.000053
v -1.9999349 0.249767 -10.000007
v 2.8299387 0.24976783 -10.000122
v -5.999939 0.24976638 -2.0513537E-4
v -13.999969 0.24976489 -4.7165303
v -5.999938 0.24976638 -4.7165327
v -13.999966 0.24976498 -8.827852E-5
v -1.999939 0.24976708 -8.9041394E-5
v -1.9999152 0.24976699 -4.716532
v -18.716293 0.24976406 -22.000057
v -13.999959 0.24976498 -14.000023
v -18.716291 0.24976414 -14.000024
v -13.999968 0.24976495 -22.000053
v -13.999962 0.24976487 -10.000006
v -18.716295 0.24976406 -10.000121
v -13.999959 0.24976498 -14.000023
v -5.999941 0.24976638 -10.000121
v -13.999962 0.24976487 -10.000006
v -5.999933 0.24976638 -14.00002
v -1.9999175 0.24976708 -22.000053
v -5.999933 0.24976638 -14.00002
v -5.999937 0.24976638 -22.000051
v -1.9999127 0.24976708 -14.00002
v -13.999968 0.24976495 -22.000053
v -5.999933 0.24976638 -14.00002
v -13.999959 0.24976498 -14.000023
v -5.999937 0.24976638 -22.000051
v -1.9999127 0.24976708 -14.00002
v -5.999941 0.24976638 -10.000121
v -5.999933 0.24976638 -14.00002
v -1.9999349 0.249767 -10.000007
v 8.000064 0.24976882 -14.000026
v 2.8299408 0.24976783 -22.000061
v 8.000053 0.24976882 -22.00006
v 2.8299394 0.24976791 -14.000023
v 8.000046 0.24976882 -10.000005
v 2.8299387 0.24976783 -10.000122
v -5.999941 0.24976638 -10.000121
v -13.999969 0.24976489 -4.7165303
v -13.999962 0.24976487 -10.000006
v -5.999938 0.24976638 -4.7165327
v -1.9999349 0.249767 -10.000007
v -1.9999152 0.24976699 -4.716532
v -23.99994 0.24976322 -22.000061
v -18.716291 0.24976414 -14.000024
v -23.999945 0.24976322 -14.000025
v -18.716293 0.24976406 -22.000057
v -18.716295 0.24976406 -10.000121
v -23.99994 0.24976322 -10.000008
v -1.9999194 0.48558342 -22.000051
v 8.00005 0.48558518 -23.99999
v 8.00005 0.48558518 -22.000055
v -1.9999187 0.48558342 -23.999985
v -5.999939 0.48558274 -22.00005
v -5.9999385 0.48558274 -23.999985
v -13.9999695 0.48558134 -22.000051
v -13.9999695 0.48558134 -23.999985
v -23.999943 0.48557958 -22.00006
v -23.999943 0.48557958 -23.999992
v -1.9999175 0.24976708 -22.000053
v 8.00005 0.48558518 -22.000055
v 8.000053 0.24976882 -22.00006
v -1.9999194 0.48558342 -22.000051
v -5.999937 0.24976638 -22.000051
v -5.999939 0.48558274 -22.00005
v -13.999968 0.24976495 -22.000053
v -13.9999695 0.48558134 -22.000051
v -23.99994 0.24976322 -22.000061
v -23.999943 0.48557958 -22.00006
v 8.00005 -3.460243E-5 -23.99999
v -1.9999187 0.48558342 -23.999985
v -1.9999176 -3.635088E-5 -23.999985
v 8.00005 0.48558518 -23.99999
v -5.9999385 0.48558274 -23.999985
v -5.9999385 -3.7050268E-5 -23.999985
v -13.9999695 0.48558134 -23.999985
v -13.999968 -3.8449038E-5 -23.999985
v -23.999943 0.48557958 -23.999992
v -23.999943 -4.019749E-5 -23.999992
v -1.9999559 0.48558325 -9.999891
v 9.528252E-5 0.48558378 2.956392E-5
v -1.999962 0.48558342 2.921422E-5
v 1.00495985E-4 0.4855837 -7.999956
v -1.9999349 0.249767 -10.000007
v -1.999962 0.48558342 2.921422E-5
v -1.999939 0.24976708 -8.9041394E-5
v -1.9999559 0.48558325 -9.999891
v 1.00495985E-4 0.4855837 -7.999956
v 9.536743E-5 -3.6120397E-5 3.0517596E-5
v 9.528252E-5 0.48558378 2.956392E-5
v 1.00580895E-4 -3.6120397E-5 -7.999956
v 8.000019 0.48558518 -9.999886
v 1.00495985E-4 0.4855837 -7.999956
v -1.9999559 0.48558325 -9.999891
v 8.000018 0.48558518 -7.999951
v 8.000046 0.24976882 -10.000005
v -1.9999559 0.48558325 -9.999891
v -1.9999349 0.249767 -10.000007
v 8.000019 0.48558518 -9.999886
v 8.000018 0.48558518 -7.999951
v 1.00580895E-4 -3.6120397E-5 -7.999956
v 1.00495985E-4 0.4855837 -7.999956
v 8.000018 -3.472165E-5 -7.999951
v -13.999956 0.48558116 -9.99989
v -23.999937 0.48557958 -7.9999585
v -23.999937 0.48557958 -9.999893
v -15.999953 0.4855809 -7.999957
v -13.999962 0.24976487 -10.000006
v -23.999937 0.48557958 -9.999893
v -23.99994 0.24976322 -10.000008
v -13.999956 0.48558116 -9.99989
v -15.999953 0.4855809 -7.999957
v -23.999937 -4.0316696E-5 -7.9999585
v -23.999937 0.48557958 -7.9999585
v -15.999953 -3.8917937E-5 -7.999957
v -13.999958 0.48558134 2.3301376E-5
v -15.999953 0.4855809 -7.999957
v -13.999956 0.48558116 -9.99989
v -15.999954 0.48558098 2.199801E-5
v -13.999966 0.24976498 -8.827852E-5
v -13.999956 0.48558116 -9.99989
v -13.999962 0.24976487 -10.000006
v -13.999958 0.48558134 2.3301376E-5
v -15.999954 0.48558098 2.199801E-5
v -15.999953 -3.8917937E-5 -7.999957
v -15.999953 0.4855809 -7.999957
v -15.999954 -3.8917937E-5 2.1044336E-5
vn -0.0 1.0 0.0
vn -0.0 1.0 0.0
vn -0.0 1.0 0.0
vn -0.0 1.0 0.0
vn -0.0 1.0 0.0
vn -0.0 1.0 0.0
vn -0.0 1.0 0.0
vn -0.0 1.0 0.0
vn -0.0 1.0 0.0
vn -0.0 1.0 0.0
vn -0.0 1.0 0.0
vn -0.0 1.0 0.0
vn -0.0 1.0 0.0
vn -0.0 1.0 0.0
vn -0.0 1.0 0.0
vn -0.0 1.0 0.0
vn -0.0 1.0 0.0
vn -0.0 1.0 0.0
vn -0.0 1.0 0.0
vn -0.0 1.0 0.0
vn -0.0 1.0 0.0
vn -0.0 1.0 0.0
vn -0.0 1.0 0.0
vn -0.0 1.0 0.0
vn -0.0 1.0 0.0
vn -0.0 1.0 0.0
vn -0.0 1.0 0.0
vn -0.0 1.0 0.0
vn -0.0 1.0 0.0
vn -0.0 1.0 0.0
vn -0.0 1.0 0.0
vn -0.0 1.0 0.0
vn -0.0 1.0 0.0
vn -0.0 1.0 0.0
vn -0.0 1.0 0.0
vn -0.0 1.0 0.0
vn -0.0 1.0 0.0
vn -0.0 1.0 0.0
vn -0.0 1.0 0.0
vn -0.0 1.0 0.0
vn -0.0 1.0 0.0
vn -0.0 1.0 0.0
vn -0.0 1.0 0.0
vn -0.0 1.0 0.0
vn -0.0 1.0 0.0
vn -0.0 1.0 0.0
vn -0.0 1.0 0.0
vn -0.0 1.0 0.0
vn -0.0 1.0 0.0
vn -0.0 1.0 0.0
vn -0.0 1.0 0.0
vn -0.0 1.0 0.0
vn -0.0 1.0 0.0
vn -0.0 1.0 0.0
vn -0.0 1.0 0.0
vn -0.0 1.0 0.0
vn -0.0 1.0 0.0
vn -0.0 1.0 0.0
vn -0.0 1.0 0.0
vn -0.0 1.0 0.0
vn -0.0 1.0 0.0
vn -0.0 1.0 0.0
vn -0.0 0.0 1.0
vn -0.0 -1.6055143E-5 1.0
vn -0.0 -1.6176547E-5 1.0
vn -0.0 0.0 1.0
vn -0.0 0.0 1.0
vn -0.0 0.0 1.0
vn -0.0 0.0 1.0
vn -0.0 0.0 1.0
vn -0.0 0.0 1.0
vn -0.0 0.0 1.0
vn -0.0 0.0 -1.0
vn -0.0 0.0 -1.0
vn -0.0 0.0 -1.0
vn -0.0 0.0 -1.0
vn -0.0 0.0 -1.0
vn -0.0 0.0 -1.0
vn -0.0 0.0 -1.0
vn -0.0 0.0 -1.0
vn -0.0 0.0 -1.0
vn -0.0 0.0 -1.0
vn -0.0 1.0 0.0
vn -0.0 1.0 0.0
vn -0.0 1.0 0.0
vn -0.0 1.0 0.0
vn -0.7069764 2.829702E-4 -0.7072371
vn -1.0 -9.711264E-5 0.0
vn -1.0 -9.723408E-5 0.0
vn -0.70723665 2.830772E-4 -0.70697695
vn 0.7071063 0.0 0.70710725
vn 1.0 0.0 0.0
vn 1.0 0.0 0.0
vn 0.70710623 0.0 0.70710725
vn -0.0 1.0 0.0
vn -0.0 1.0 0.0
vn -0.0 1.0 0.0
vn -0.0 1.0 0.0
vn -0.0 5.052747E-4 -0.9999999
vn -0.70723665 2.830772E-4 -0.70697695
vn -0.7069764 2.829702E-4 -0.7072371
vn -0.0 5.055175E-4 -0.9999999
vn -0.0 0.0 1.0
vn 0.70710623 0.0 0.70710725
vn 0.7071063 0.0 0.70710725
vn -0.0 0.0 1.0
vn -0.0 1.0 0.0
vn -0.0 1.0 0.0
vn -0.0 1.0 0.0
vn -0.0 1.0 0.0
vn 0.70699143 3.2899858E-4 -0.7072221
vn -0.0 4.8535742E-4 -0.9999999
vn -0.0 4.8529674E-4 -0.9999999
vn 0.707222 3.2883725E-4 -0.7069915
vn -0.70710695 0.0 0.7071066
vn -0.0 0.0 1.0
vn -0.0 0.0 1.0
vn -0.70710677 0.0 0.70710677
vn -0.0 1.0 0.0
vn -0.0 1.0 0.0
vn -0.0 1.0 0.0
vn -0.0 1.0 0.0
vn 1.0 -3.2056923E-5 0.0
vn 0.707222 3.2883725E-4 -0.7069915
vn 0.70699143 3.2899858E-4 -0.7072221
vn 1.0 -3.2178275E-5 0.0
vn -1.0 0.0 0.0
vn -0.70710677 0.0 0.70710677
vn -0.70710695 0.0 0.7071066
vn -1.0 0.0 0.0
vt -0.83640254 0.74933946
vt -0.99709547 0.62571335
vt -0.83640254 0.6257133
vt -0.99709547 0.74933946
vt -0.7528422 0.74933946
vt -0.7528422 0.6257133
vt 0.31078947 0.7070688
vt 0.4437571 0.6295124
vt 0.4437571 0.7070688
vt 0.31078947 0.6295124
vt 0.31078947 0.74739814
vt 0.4437571 0.74739814
vt -0.99709547 0.6257132
vt -0.83640254 0.74933946
vt -0.83640254 0.6257132
vt -0.99709547 0.74933946
vt -0.7528422 0.74933946
vt -0.7528422 0.6257132
vt 0.38642344 0.62271595
vt 0.44626328 0.50293016
vt 0.44626328 0.62271607
vt 0.38642344 0.50293016
vt 0.52630717 0.5029303
vt 0.64640725 0.56308424
vt 0.5263072 0.56308424
vt 0.64640725 0.5029303
vt 0.5263072 0.62271607
vt 0.64640725 0.50293016
vt 0.64640725 0.62271595
vt 0.5263072 0.50293016
vt 0.38642344 0.5029303
vt 0.44626328 0.56308436
vt 0.38642344 0.56308424
vt 0.44626328 0.5029303
vt 0.28026882 0.62669224
vt 0.4132365 0.7489435
vt 0.28026882 0.7489435
vt 0.4132365 0.62669224
vt 0.28026882 0.56312156
vt 0.4132365 0.56312156
vt -0.83640254 0.62571335
vt -0.99709547 0.7493396
vt -0.99709547 0.62571335
vt -0.83640254 0.7493396
vt -0.7528422 0.62571335
vt -0.7528422 0.7493396
vt 0.31078932 0.6295124
vt 0.443757 0.7070688
vt 0.31078932 0.7070688
vt 0.443757 0.6295124
vt 0.443757 0.74739814
vt 0.31078932 0.74739814
vt 0.31266415 0.7777348
vt 0.06282746 0.7509674
vt 0.06282749 0.7777348
vt 0.31266415 0.7509674
vt 0.43758246 0.7777348
vt 0.43758243 0.7509674
vt 0.687419 0.7777348
vt 0.6874189 0.7509674
vt 0.93725544 0.7777348
vt 0.93725544 0.7509674
vt 0.31266415 0.7810808
vt 0.06282749 0.7777348
vt 0.0628275 0.7810808
vt 0.31266415 0.7777348
vt 0.43758246 0.7810808
vt 0.43758246 0.7777348
vt 0.687419 0.7810807
vt 0.687419 0.7777348
vt 0.93725544 0.7810807
vt 0.93725544 0.7777348
vt 0.06282753 0.8078482
vt 0.3126642 0.8111941
vt 0.31266418 0.8078482
vt 0.06282753 0.8111941
vt 0.43758255 0.8111941
vt 0.4375825 0.8078482
vt 0.687419 0.8111941
vt 0.687419 0.8078482
vt 0.93725544 0.8111941
vt 0.93725544 0.8078482
vt 0.623796 0.7564854
vt 0.31996065 0.80529976
vt 0.31996065 0.7564854
vt 0.5630273 0.80529976
vt 0.623796 0.7503836
vt 0.31996065 0.7564854
vt 0.31996065 0.7503836
vt 0.623796 0.7564854
vt 0.5630273 0.80529976
vt 0.31996065 0.8114015
vt 0.31996065 0.80529976
vt 0.5630273 0.8114015
vt 0.31996065 0.7564854
vt 0.5630439 0.80529976
vt 0.62381256 0.7564854
vt 0.31996065 0.80529976
vt 0.31996065 0.7503836
vt 0.62381256 0.7564854
vt 0.62381256 0.7503836
vt 0.31996065 0.7564854
vt 0.31996065 0.80529976
vt 0.5630439 0.8114015
vt 0.5630439 0.80529976
vt 0.31996065 0.8114015
vt 0.623796 0.7564854
vt 0.31996065 0.80529976
vt 0.31996065 0.7564854
vt 0.5630273 0.80529976
vt 0.623796 0.7503836
vt 0.31996065 0.7564854
vt 0.31996065 0.7503836
vt 0.623796 0.7564854
vt 0.5630273 0.80529976
vt 0.31996065 0.8114015
vt 0.31996065 0.80529976
vt 0.5630273 0.8114015
vt 0.31996065 0.7564854
vt 0.5630439 0.80529976
vt 0.62381256 0.7564854
vt 0.31996065 0.80529976
vt 0.31996065 0.7503836
vt 0.62381256 0.7564854
vt 0.62381256 0.7503836
vt 0.31996065 0.7564854
vt 0.31996065 0.80529976
vt 0.5630439 0.8114015
vt 0.5630439 0.80529976
vt 0.31996065 0.8114015

g Three_Lane_01
s 1
usemtl Three_Lane_01
f 3/3/3 2/2/2 1/1/1 
f 4/4/4 1/1/1 2/2/2 
f 1/1/1 5/5/5 3/3/3 
f 6/6/6 3/3/3 5/5/5 
f 9/9/9 8/8/8 7/7/7 
f 10/10/10 7/7/7 8/8/8 
f 7/7/7 11/11/11 9/9/9 
f 12/12/12 9/9/9 11/11/11 
f 15/15/15 14/14/14 13/13/13 
f 16/16/16 13/13/13 14/14/14 
f 14/14/14 15/15/15 17/17/17 
f 18/18/18 17/17/17 15/15/15 
f 21/21/21 20/20/20 19/19/19 
f 22/22/22 19/19/19 20/20/20 
f 25/25/25 24/24/24 23/23/23 
f 26/26/26 23/23/23 24/24/24 
f 29/29/29 28/28/28 27/27/27 
f 30/30/30 27/27/27 28/28/28 
f 33/33/33 32/32/32 31/31/31 
f 34/34/34 31/31/31 32/32/32 
f 37/37/37 36/36/36 35/35/35 
f 38/38/38 35/35/35 36/36/36 
f 35/35/35 38/38/38 39/39/39 
f 40/40/40 39/39/39 38/38/38 
f 43/43/43 42/42/42 41/41/41 
f 44/44/44 41/41/41 42/42/42 
f 41/41/41 44/44/44 45/45/45 
f 46/46/46 45/45/45 44/44/44 
f 49/49/49 48/48/48 47/47/47 
f 50/50/50 47/47/47 48/48/48 
f 48/48/48 49/49/49 51/51/51 
f 52/52/52 51/51/51 49/49/49 
f 55/55/55 54/54/54 53/53/53 
f 56/56/56 53/53/53 54/54/54 
f 53/53/53 56/56/56 57/57/57 
f 58/58/58 57/57/57 56/56/56 
f 57/57/57 58/58/58 59/59/59 
f 60/60/60 59/59/59 58/58/58 
f 59/59/59 60/60/60 61/61/61 
f 62/62/62 61/61/61 60/60/60 
f 65/65/65 64/64/64 63/63/63 
f 66/66/66 63/63/63 64/64/64 
f 63/63/63 66/66/66 67/67/67 
f 68/68/68 67/67/67 66/66/66 
f 67/67/67 68/68/68 69/69/69 
f 70/70/70 69/69/69 68/68/68 
f 69/69/69 70/70/70 71/71/71 
f 72/72/72 71/71/71 70/70/70 
f 75/75/75 74/74/74 73/73/73 
f 76/76/76 73/73/73 74/74/74 
f 74/74/74 75/75/75 77/77/77 
f 78/78/78 77/77/77 75/75/75 
f 77/77/77 78/78/78 79/79/79 
f 80/80/80 79/79/79 78/78/78 
f 79/79/79 80/80/80 81/81/81 
f 82/82/82 81/81/81 80/80/80 
f 85/85/85 84/84/84 83/83/83 
f 86/86/86 83/83/83 84/84/84 
f 89/89/89 88/88/88 87/87/87 
f 90/90/90 87/87/87 88/88/88 
f 93/93/93 92/92/92 91/91/91 
f 94/94/94 91/91/91 92/92/92 
f 97/97/97 96/96/96 95/95/95 
f 98/98/98 95/95/95 96/96/96 
f 101/101/101 100/100/100 99/99/99 
f 102/102/102 99/99/99 100/100/100 
f 105/105/105 104/104/104 103/103/103 
f 106/106/106 103/103/103 104/104/104 
f 109/109/109 108/108/108 107/107/107 
f 110/110/110 107/107/107 108/108/108 
f 113/113/113 112/112/112 111/111/111 
f 114/114/114 111/111/111 112/112/112 
f 117/117/117 116/116/116 115/115/115 
f 118/118/118 115/115/115 116/116/116 
f 121/121/121 120/120/120 119/119/119 
f 122/122/122 119/119/119 120/120/120 
f 125/125/125 124/124/124 123/123/123 
f 126/126/126 123/123/123 124/124/124 
f 129/129/129 128/128/128 127/127/127 
f 130/130/130 127/127/127 128/128/128 

