# Created by DisUnity v0.3.4
v -5.999996 0.24978891 -21.999567
v -14.000019 0.24978751 -31.999586
v -5.999994 0.24978891 -31.999363
v -14.000019 0.24978743 -21.999792
v -1.8865275 0.24978955 -21.999794
v -5.999994 0.24978891 -31.999363
v -1.8865219 0.24978963 -31.999588
v -5.999996 0.24978891 -21.999567
v -1.8865104 0.24978963 -14.000021
v 7.9999847 0.24979135 -21.999794
v 8.000003 0.24979135 -14.000026
v -1.8865275 0.24978955 -21.999794
v -1.8865302 0.24978955 -9.999986
v 8.000003 0.24979135 -14.000026
v 7.999983 0.24979135 -9.999984
v -1.8865104 0.24978963 -14.000021
v -6.0 0.24978891 5.272865E-4
v -14.000021 0.24978743 -9.999986
v -6.000002 0.24978891 -9.999756
v -14.000025 0.24978751 2.9891325E-4
v -1.8865337 0.24978963 2.9721652E-4
v -6.000002 0.24978891 -9.999756
v -1.8865302 0.24978955 -9.999986
v -6.0 0.24978891 5.272865E-4
v -14.00002 0.24978751 -14.000024
v -23.999992 0.24978575 -21.999798
v -14.000019 0.24978743 -21.999792
v -24.000006 0.24978575 -14.000026
v -14.000021 0.24978743 -9.999986
v -24.000006 0.24978575 -14.000026
v -14.00002 0.24978751 -14.000024
v -24.000002 0.24978575 -9.999989
v -14.00002 0.24978751 -14.000024
v -6.000002 0.24978891 -9.999756
v -14.000021 0.24978743 -9.999986
v -5.999994 0.24978891 -14.00002
v -1.8865275 0.24978955 -21.999794
v -5.999994 0.24978891 -14.00002
v -5.999996 0.24978891 -21.999567
v -1.8865104 0.24978963 -14.000021
v -14.000019 0.24978743 -21.999792
v -5.999994 0.24978891 -14.00002
v -14.00002 0.24978751 -14.000024
v -5.999996 0.24978891 -21.999567
v -1.8865104 0.24978963 -14.000021
v -6.000002 0.24978891 -9.999756
v -5.999994 0.24978891 -14.00002
v -1.8865302 0.24978955 -9.999986
v -14.000011 0.4856037 -22.00002
v -16.000002 0.4856035 -31.999819
v -14.000006 0.48560387 -31.999815
v -16.000008 0.48560342 -23.999832
v -14.000019 0.24978743 -21.999792
v -14.000006 0.48560387 -31.999815
v -14.000019 0.24978751 -31.999586
v -14.000011 0.4856037 -22.00002
v -16.000008 0.48560342 -23.999832
v -16.000002 -1.6387388E-5 -31.999819
v -16.000002 0.4856035 -31.999819
v -16.000008 -1.6446995E-5 -23.999832
v -23.999985 0.4856021 -22.000023
v -16.000008 0.48560342 -23.999832
v -14.000011 0.4856037 -22.00002
v -23.999985 0.4856021 -23.999836
v -23.999992 0.24978575 -21.999798
v -14.000011 0.4856037 -22.00002
v -14.000019 0.24978743 -21.999792
v -23.999985 0.4856021 -22.000023
v -23.999985 0.4856021 -23.999836
v -16.000008 -1.6446995E-5 -23.999832
v -16.000008 0.48560342 -23.999832
v -23.999985 -1.778615E-5 -23.999836
v -1.8865428 0.4856058 -22.00002
v 7.999974 0.4856077 -23.999826
v 7.9999733 0.4856077 -22.000013
v -1.114743E-5 0.48560622 -23.999832
v -1.8865275 0.24978955 -21.999794
v 7.9999733 0.4856077 -22.000013
v 7.9999847 0.24979135 -21.999794
v -1.8865428 0.4856058 -22.00002
v -1.114743E-5 0.48560622 -23.999832
v 7.999974 -1.2191099E-5 -23.999826
v 7.999974 0.4856077 -23.999826
v -1.1062522E-5 -1.36494655E-5 -23.999832
v -1.8865373 0.48560598 -31.999813
v -1.114743E-5 0.48560622 -23.999832
v -1.8865428 0.4856058 -22.00002
v -5.933972E-6 0.4856063 -31.999813
v -1.8865219 0.24978963 -31.999588
v -1.8865428 0.4856058 -22.00002
v -1.8865275 0.24978955 -21.999794
v -1.8865373 0.48560598 -31.999813
v -5.933972E-6 0.4856063 -31.999813
v -1.1062522E-5 -1.36494655E-5 -23.999832
v -1.114743E-5 0.48560622 -23.999832
v -5.849063E-6 -1.358986E-5 -31.999813
v -1.8865492 0.4856058 -10.000216
v -2.2973101E-5 0.4856063 7.057189E-5
v -1.8865548 0.48560598 7.0242044E-5
v -1.7759643E-5 0.48560622 -7.999914
v -1.8865302 0.24978955 -9.999986
v -1.8865548 0.48560598 7.0242044E-5
v -1.8865337 0.24978963 2.9721652E-4
v -1.8865492 0.4856058 -10.000216
v -1.7759643E-5 0.48560622 -7.999914
v -2.2888193E-5 -1.3589863E-5 7.057189E-5
v -2.2973101E-5 0.4856063 7.057189E-5
v -1.7674734E-5 -1.3649466E-5 -7.999914
v 7.9999557 0.4856077 -10.000211
v -1.7759643E-5 0.48560622 -7.999914
v -1.8865492 0.4856058 -10.000216
v 7.9999557 0.4856077 -7.99991
v 7.999983 0.24979135 -9.999984
v -1.8865492 0.4856058 -10.000216
v -1.8865302 0.24978955 -9.999986
v 7.9999557 0.4856077 -10.000211
v 7.9999557 0.4856077 -7.99991
v -1.7674734E-5 -1.3649466E-5 -7.999914
v -1.7759643E-5 0.48560622 -7.999914
v 7.9999557 -1.21911025E-5 -7.99991
v -14.000013 0.4856037 -10.0002165
v -23.999998 0.4856021 -7.9999204
v -23.999998 0.4856021 -10.000219
v -16.00001 0.48560342 -7.999918
v -14.000021 0.24978743 -9.999986
v -23.999998 0.4856021 -10.000219
v -24.000002 0.24978575 -9.999989
v -14.000013 0.4856037 -10.0002165
v -16.00001 0.48560342 -7.999918
v -23.999998 -1.7786153E-5 -7.9999204
v -23.999998 0.4856021 -7.9999204
v -16.00001 -1.6446995E-5 -7.999918
v -14.000015 0.48560387 6.430936E-5
v -16.00001 0.48560342 -7.999918
v -14.000013 0.4856037 -10.0002165
v -16.000011 0.4856035 6.395967E-5
v -14.000025 0.24978751 2.9891325E-4
v -14.000013 0.4856037 -10.0002165
v -14.000021 0.24978743 -9.999986
v -14.000015 0.48560387 6.430936E-5
v -16.000011 0.4856035 6.395967E-5
v -16.00001 -1.6446995E-5 -7.999918
v -16.00001 0.48560342 -7.999918
v -16.000011 -1.638739E-5 6.395967E-5
vn -0.0 1.0 0.0
vn -0.0 1.0 0.0
vn -0.0 1.0 0.0
vn -0.0 1.0 0.0
vn -0.0 1.0 0.0
vn -0.0 1.0 0.0
vn -0.0 1.0 0.0
vn -0.0 1.0 0.0
vn -0.0 1.0 0.0
vn -0.0 1.0 0.0
vn -0.0 1.0 0.0
vn -0.0 1.0 0.0
vn -0.0 1.0 0.0
vn -0.0 1.0 0.0
vn -0.0 1.0 0.0
vn -0.0 1.0 0.0
vn -0.0 1.0 0.0
vn -0.0 1.0 0.0
vn -0.0 1.0 0.0
vn -0.0 1.0 0.0
vn -0.0 1.0 0.0
vn -0.0 1.0 0.0
vn -0.0 1.0 0.0
vn -0.0 1.0 0.0
vn -0.0 1.0 0.0
vn -0.0 1.0 0.0
vn -0.0 1.0 0.0
vn -0.0 1.0 0.0
vn -0.0 1.0 0.0
vn -0.0 1.0 0.0
vn -0.0 1.0 0.0
vn -0.0 1.0 0.0
vn -0.0 1.0 0.0
vn -0.0 1.0 0.0
vn -0.0 1.0 0.0
vn -0.0 1.0 0.0
vn -0.0 1.0 0.0
vn -0.0 1.0 0.0
vn -0.0 1.0 0.0
vn -0.0 1.0 0.0
vn -0.0 1.0 0.0
vn -0.0 1.0 0.0
vn -0.0 1.0 0.0
vn -0.0 1.0 0.0
vn -0.0 1.0 0.0
vn -0.0 1.0 0.0
vn -0.0 1.0 0.0
vn -0.0 1.0 0.0
vn -0.0 1.0 0.0
vn -0.0 1.0 0.0
vn -0.0 1.0 0.0
vn -0.0 1.0 0.0
vn 0.7068825 6.578058E-4 0.7073307
vn 1.0 -5.607885E-5 0.0
vn 1.0 -5.6443296E-5 0.0
vn 0.7073302 6.575323E-4 0.70688295
vn -0.70710635 0.0 -0.7071072
vn -1.0 0.0 0.0
vn -1.0 0.0 0.0
vn -0.7071065 0.0 -0.707107
vn -0.0 1.0 0.0
vn -0.0 1.0 0.0
vn -0.0 1.0 0.0
vn -0.0 1.0 0.0
vn -0.0 9.5453794E-4 0.9999995
vn 0.7073302 6.575323E-4 0.70688295
vn 0.7068825 6.578058E-4 0.7073307
vn -0.0 9.544165E-4 0.9999995
vn -0.0 0.0 -1.0
vn -0.7071065 0.0 -0.707107
vn -0.70710635 0.0 -0.7071072
vn -0.0 0.0 -1.0
vn -0.0 1.0 0.0
vn -0.0 1.0 0.0
vn -0.0 1.0 0.0
vn -0.0 1.0 0.0
vn -0.7068786 6.2896917E-4 0.7073347
vn -0.0 9.305202E-4 0.99999964
vn -0.0 9.301519E-4 0.99999964
vn -0.70733625 6.2876305E-4 0.70687693
vn 0.70710725 0.0 -0.7071063
vn -0.0 0.0 -1.0
vn -0.0 0.0 -1.0
vn 0.7071071 0.0 -0.7071064
vn -0.0 1.0 0.0
vn -0.0 1.0 0.0
vn -0.0 1.0 0.0
vn -0.0 1.0 0.0
vn -1.0 -6.488145E-5 0.0
vn -0.70733625 6.2876305E-4 0.70687693
vn -0.7068786 6.2896917E-4 0.7073347
vn -1.0 -6.4881446E-5 0.0
vn 1.0 0.0 0.0
vn 0.7071071 0.0 -0.7071064
vn 0.70710725 0.0 -0.7071063
vn 1.0 0.0 0.0
vn -0.0 1.0 0.0
vn -0.0 1.0 0.0
vn -0.0 1.0 0.0
vn -0.0 1.0 0.0
vn -0.7073076 -7.463955E-4 -0.7069055
vn -1.0 -8.902479E-5 0.0
vn -1.0 -8.914611E-5 0.0
vn -0.70690435 -7.465397E-4 -0.70730877
vn 0.7071063 0.0 0.70710725
vn 1.0 0.0 0.0
vn 1.0 0.0 0.0
vn 0.7071064 0.0 0.70710707
vn -0.0 1.0 0.0
vn -0.0 1.0 0.0
vn -0.0 1.0 0.0
vn -0.0 1.0 0.0
vn -0.0 -9.6268905E-4 -0.9999995
vn -0.70690435 -7.465397E-4 -0.70730877
vn -0.7073076 -7.463955E-4 -0.7069055
vn -0.0 -9.625049E-4 -0.9999995
vn -0.0 0.0 1.0
vn 0.7071064 0.0 0.70710707
vn 0.7071063 0.0 0.70710725
vn -0.0 0.0 1.0
vn -0.0 1.0 0.0
vn -0.0 1.0 0.0
vn -0.0 1.0 0.0
vn -0.0 1.0 0.0
vn 0.70731926 -7.1458484E-4 -0.7068938
vn -0.0 -9.786814E-4 -0.9999995
vn -0.0 -9.786814E-4 -0.9999995
vn 0.7068942 -7.15073E-4 -0.70731884
vn -0.707107 0.0 0.70710653
vn -0.0 0.0 1.0
vn -0.0 0.0 1.0
vn -0.7071068 0.0 0.70710665
vn -0.0 1.0 0.0
vn -0.0 1.0 0.0
vn -0.0 1.0 0.0
vn -0.0 1.0 0.0
vn 1.0 -4.0145085E-5 0.0
vn 0.7068942 -7.15073E-4 -0.70731884
vn 0.70731926 -7.1458484E-4 -0.7068938
vn 1.0 -4.0266554E-5 0.0
vn -1.0 0.0 0.0
vn -0.7071068 0.0 0.70710665
vn -0.707107 0.0 0.70710653
vn -1.0 0.0 0.0
vt 0.49987495 0.0010339022
vt 0.3777692 0.122770965
vt 0.37776917 0.0010339022
vt 0.49987498 0.122770965
vt 0.37776926 0.122771025
vt 0.499875 0.059467733
vt 0.49987504 0.122771025
vt 0.37776923 0.059467733
vt 0.49987495 0.0010339022
vt 0.3777692 0.122770965
vt 0.37776917 0.0010339022
vt 0.49987498 0.122770965
vt 0.37776926 0.122771025
vt 0.499875 0.059467733
vt 0.49987504 0.122771025
vt 0.37776923 0.059467733
vt 0.49987495 0.0010339022
vt 0.3777692 0.122770965
vt 0.37776917 0.0010339022
vt 0.49987498 0.122770965
vt 0.37776926 0.122771025
vt 0.499875 0.059467733
vt 0.49987504 0.122771025
vt 0.37776923 0.059467733
vt 0.49987495 0.0010339022
vt 0.3777692 0.122770965
vt 0.49987498 0.122770965
vt 0.37776917 0.0010339022
vt 0.37776926 0.122771025
vt 0.499875 0.059467733
vt 0.37776923 0.059467733
vt 0.49987504 0.122771025
vt 0.38642344 0.62271595
vt 0.44626328 0.50293016
vt 0.44626328 0.62271607
vt 0.38642344 0.50293016
vt 0.32616317 0.5029303
vt 0.44626325 0.56308424
vt 0.3261632 0.56308424
vt 0.44626325 0.5029303
vt 0.3261632 0.62271607
vt 0.44626325 0.50293016
vt 0.44626325 0.62271595
vt 0.3261632 0.50293016
vt 0.38642344 0.5029303
vt 0.44626328 0.56308436
vt 0.38642344 0.56308424
vt 0.44626328 0.5029303
vt 0.623796 0.7564854
vt 0.31996065 0.80529976
vt 0.31996065 0.7564854
vt 0.5630273 0.80529976
vt 0.623796 0.7503836
vt 0.31996065 0.7564854
vt 0.31996065 0.7503836
vt 0.623796 0.7564854
vt 0.5630273 0.80529976
vt 0.31996065 0.8114015
vt 0.31996065 0.80529976
vt 0.5630273 0.8114015
vt 0.31996065 0.7564854
vt 0.5630439 0.80529976
vt 0.62381256 0.7564854
vt 0.31996065 0.80529976
vt 0.31996065 0.7503836
vt 0.62381256 0.7564854
vt 0.62381256 0.7503836
vt 0.31996065 0.7564854
vt 0.31996065 0.80529976
vt 0.5630439 0.8114015
vt 0.5630439 0.80529976
vt 0.31996065 0.8114015
vt 0.623796 0.7564854
vt 0.31996065 0.80529976
vt 0.31996065 0.7564854
vt 0.5630273 0.80529976
vt 0.623796 0.7503836
vt 0.31996065 0.7564854
vt 0.31996065 0.7503836
vt 0.623796 0.7564854
vt 0.5630273 0.80529976
vt 0.31996065 0.8114015
vt 0.31996065 0.80529976
vt 0.5630273 0.8114015
vt 0.31996065 0.7564854
vt 0.5630439 0.80529976
vt 0.62381256 0.7564854
vt 0.31996065 0.80529976
vt 0.31996065 0.7503836
vt 0.62381256 0.7564854
vt 0.62381256 0.7503836
vt 0.31996065 0.7564854
vt 0.31996065 0.80529976
vt 0.5630439 0.8114015
vt 0.5630439 0.80529976
vt 0.31996065 0.8114015
vt 0.623796 0.7564854
vt 0.31996065 0.80529976
vt 0.31996065 0.7564854
vt 0.5630273 0.80529976
vt 0.623796 0.7503836
vt 0.31996065 0.7564854
vt 0.31996065 0.7503836
vt 0.623796 0.7564854
vt 0.5630273 0.80529976
vt 0.31996065 0.8114015
vt 0.31996065 0.80529976
vt 0.5630273 0.8114015
vt 0.31996065 0.7564854
vt 0.5630439 0.80529976
vt 0.62381256 0.7564854
vt 0.31996065 0.80529976
vt 0.31996065 0.7503836
vt 0.62381256 0.7564854
vt 0.62381256 0.7503836
vt 0.31996065 0.7564854
vt 0.31996065 0.80529976
vt 0.5630439 0.8114015
vt 0.5630439 0.80529976
vt 0.31996065 0.8114015
vt 0.623796 0.7564854
vt 0.31996065 0.80529976
vt 0.31996065 0.7564854
vt 0.5630273 0.80529976
vt 0.623796 0.7503836
vt 0.31996065 0.7564854
vt 0.31996065 0.7503836
vt 0.623796 0.7564854
vt 0.5630273 0.80529976
vt 0.31996065 0.8114015
vt 0.31996065 0.80529976
vt 0.5630273 0.8114015
vt 0.31996065 0.7564854
vt 0.5630439 0.80529976
vt 0.62381256 0.7564854
vt 0.31996065 0.80529976
vt 0.31996065 0.7503836
vt 0.62381256 0.7564854
vt 0.62381256 0.7503836
vt 0.31996065 0.7564854
vt 0.31996065 0.80529976
vt 0.5630439 0.8114015
vt 0.5630439 0.80529976
vt 0.31996065 0.8114015

g Three_Lane_08
s 1
usemtl Three_Lane_08
f 3/3/3 2/2/2 1/1/1 
f 4/4/4 1/1/1 2/2/2 
f 7/7/7 6/6/6 5/5/5 
f 8/8/8 5/5/5 6/6/6 
f 11/11/11 10/10/10 9/9/9 
f 12/12/12 9/9/9 10/10/10 
f 15/15/15 14/14/14 13/13/13 
f 16/16/16 13/13/13 14/14/14 
f 19/19/19 18/18/18 17/17/17 
f 20/20/20 17/17/17 18/18/18 
f 23/23/23 22/22/22 21/21/21 
f 24/24/24 21/21/21 22/22/22 
f 27/27/27 26/26/26 25/25/25 
f 28/28/28 25/25/25 26/26/26 
f 31/31/31 30/30/30 29/29/29 
f 32/32/32 29/29/29 30/30/30 
f 35/35/35 34/34/34 33/33/33 
f 36/36/36 33/33/33 34/34/34 
f 39/39/39 38/38/38 37/37/37 
f 40/40/40 37/37/37 38/38/38 
f 43/43/43 42/42/42 41/41/41 
f 44/44/44 41/41/41 42/42/42 
f 47/47/47 46/46/46 45/45/45 
f 48/48/48 45/45/45 46/46/46 
f 51/51/51 50/50/50 49/49/49 
f 52/52/52 49/49/49 50/50/50 
f 55/55/55 54/54/54 53/53/53 
f 56/56/56 53/53/53 54/54/54 
f 59/59/59 58/58/58 57/57/57 
f 60/60/60 57/57/57 58/58/58 
f 63/63/63 62/62/62 61/61/61 
f 64/64/64 61/61/61 62/62/62 
f 67/67/67 66/66/66 65/65/65 
f 68/68/68 65/65/65 66/66/66 
f 71/71/71 70/70/70 69/69/69 
f 72/72/72 69/69/69 70/70/70 
f 75/75/75 74/74/74 73/73/73 
f 76/76/76 73/73/73 74/74/74 
f 79/79/79 78/78/78 77/77/77 
f 80/80/80 77/77/77 78/78/78 
f 83/83/83 82/82/82 81/81/81 
f 84/84/84 81/81/81 82/82/82 
f 87/87/87 86/86/86 85/85/85 
f 88/88/88 85/85/85 86/86/86 
f 91/91/91 90/90/90 89/89/89 
f 92/92/92 89/89/89 90/90/90 
f 95/95/95 94/94/94 93/93/93 
f 96/96/96 93/93/93 94/94/94 
f 99/99/99 98/98/98 97/97/97 
f 100/100/100 97/97/97 98/98/98 
f 103/103/103 102/102/102 101/101/101 
f 104/104/104 101/101/101 102/102/102 
f 107/107/107 106/106/106 105/105/105 
f 108/108/108 105/105/105 106/106/106 
f 111/111/111 110/110/110 109/109/109 
f 112/112/112 109/109/109 110/110/110 
f 115/115/115 114/114/114 113/113/113 
f 116/116/116 113/113/113 114/114/114 
f 119/119/119 118/118/118 117/117/117 
f 120/120/120 117/117/117 118/118/118 
f 123/123/123 122/122/122 121/121/121 
f 124/124/124 121/121/121 122/122/122 
f 127/127/127 126/126/126 125/125/125 
f 128/128/128 125/125/125 126/126/126 
f 131/131/131 130/130/130 129/129/129 
f 132/132/132 129/129/129 130/130/130 
f 135/135/135 134/134/134 133/133/133 
f 136/136/136 133/133/133 134/134/134 
f 139/139/139 138/138/138 137/137/137 
f 140/140/140 137/137/137 138/138/138 
f 143/143/143 142/142/142 141/141/141 
f 144/144/144 141/141/141 142/142/142 

