# Created by DisUnity v0.3.4
v 10.000037 0.24977571 23.999908
v 2.0000238 0.24977571 16.865105
v 10.000028 0.24977541 16.86509
v 2.0000334 0.24977571 23.999916
v 14.000033 0.24977571 23.999897
v 10.000028 0.24977541 16.86509
v 14.000024 0.24977504 16.865086
v 10.000037 0.24977571 23.999908
v 10.000028 0.24977541 16.86509
v 2.000017 0.24977571 7.4324565
v 10.000025 0.24977535 7.4324465
v 2.0000238 0.24977571 16.865105
v 10.000022 0.24977504 4.2915344E-5
v 10.090385 0.24977437 2.2518263
v 10.000025 0.24977535 7.4324465
v 10.274362 0.24977437 5.2668886
v 11.088602 0.24977437 7.590651
v 12.489519 0.24977437 9.9097
v 13.42969 0.24977437 12.850891
v 14.000024 0.24977504 16.865086
v 10.000025 0.24977535 7.4324465
v 14.000024 0.24977504 16.865086
v 10.000028 0.24977541 16.86509
v 10.000025 0.24977535 7.4324465
v 2.0000148 0.24977571 5.2452087E-5
v 10.000022 0.24977504 4.2915344E-5
v 2.000017 0.24977571 7.4324565
v 2.0000188 0.48559204 7.4324546
v 2.002716E-5 0.48559207 5.1498413E-5
v 2.0000148 0.48559207 5.1498413E-5
v 2.4557114E-5 0.48559204 7.432453
v 2.0000238 0.48559204 16.8651
v 2.7418137E-5 0.48559204 16.8651
v 2.0000334 0.48559207 23.999912
v 3.7908554E-5 0.48559207 23.999912
v 2.0000188 0.24977571 7.4324546
v 2.0000148 0.48559207 5.1498413E-5
v 2.0000148 0.24977571 5.1498413E-5
v 2.0000188 0.48559204 7.4324546
v 2.0000238 0.24977571 16.8651
v 2.0000238 0.48559204 16.8651
v 2.0000334 0.24977571 23.999912
v 2.0000334 0.48559207 23.999912
v 2.002716E-5 -2.7924776E-5 5.1498413E-5
v 2.4557114E-5 0.48559204 7.432453
v 2.4557114E-5 -2.7924776E-5 7.432453
v 2.002716E-5 0.48559207 5.1498413E-5
v 2.7418137E-5 0.48559204 16.8651
v 2.7418137E-5 -2.7924776E-5 16.8651
v 3.7908554E-5 0.48559207 23.999912
v 3.7908554E-5 -2.7924776E-5 23.999912
v 14.00002 0.48559138 16.865082
v 16.000027 0.48559207 23.999891
v 14.00003 0.48559207 23.999893
v 16.000017 0.48559138 16.783073
v 13.42969 0.48559073 12.850889
v 15.513274 0.48559067 12.497138
v 12.489519 0.48559073 9.9096985
v 14.547224 0.48559067 9.212006
v 11.088602 0.48559073 7.590649
v 13.15828 0.48559067 6.612026
v 10.274362 0.48559073 5.2668867
v 12.268497 0.48559067 4.4759655
v 10.090385 0.48559073 2.2518244
v 12.000034 0.48559067 1.9003525
v 10.000022 0.48559138 4.1007996E-5
v 12.000037 0.4855913 -4.2915344E-5
v 14.00002 0.24977504 16.865082
v 14.00003 0.48559207 23.999893
v 14.00003 0.24977571 23.999893
v 14.00002 0.48559138 16.865082
v 13.42969 0.24977437 12.850889
v 13.42969 0.48559073 12.850889
v 12.489519 0.24977437 9.9096985
v 12.489519 0.48559073 9.9096985
v 11.088602 0.24977437 7.590649
v 11.088602 0.48559073 7.590649
v 10.274362 0.24977437 5.2668867
v 10.274362 0.48559073 5.2668867
v 10.090385 0.24977437 2.2518244
v 10.090385 0.48559073 2.2518244
v 10.000022 0.24977504 4.1007996E-5
v 10.000022 0.48559138 4.1007996E-5
v 16.000027 -2.6881695E-5 23.999891
v 16.000017 0.48559138 16.783073
v 16.000017 -2.7537346E-5 16.783073
v 16.000027 0.48559207 23.999891
v 15.513274 0.48559067 12.497138
v 15.513274 -2.8252602E-5 12.497138
v 14.547224 0.48559067 9.212006
v 14.547224 -2.8282404E-5 9.212006
v 13.15828 0.48559067 6.612026
v 13.15828 -2.8282404E-5 6.612026
v 12.268497 0.48559067 4.4759655
v 12.268497 -2.8282404E-5 4.4759655
v 12.000034 0.48559067 1.9003525
v 12.000034 -2.8282404E-5 1.9003525
v 12.000037 0.4855913 -4.2915344E-5
v 12.000037 -2.7626753E-5 -4.2915344E-5
vn -0.0 1.0 0.0
vn -0.0 1.0 0.0
vn -0.0 1.0 0.0
vn -0.0 1.0 0.0
vn -0.0 1.0 0.0
vn -0.0 1.0 0.0
vn -0.0 1.0 0.0
vn -0.0 1.0 0.0
vn -0.0 1.0 0.0
vn -0.0 1.0 0.0
vn -0.0 1.0 0.0
vn -0.0 1.0 0.0
vn -0.0 1.0 0.0
vn -0.0 1.0 0.0
vn -0.0 1.0 0.0
vn -0.0 1.0 0.0
vn -0.0 1.0 0.0
vn -0.0 1.0 0.0
vn -0.0 1.0 0.0
vn -0.0 1.0 0.0
vn -0.0 1.0 0.0
vn -0.0 1.0 0.0
vn -0.0 1.0 0.0
vn -0.0 1.0 0.0
vn -0.0 1.0 0.0
vn -0.0 1.0 0.0
vn -0.0 1.0 0.0
vn -0.0 1.0 0.0
vn -0.0 1.0 0.0
vn -0.0 1.0 0.0
vn -0.0 1.0 0.0
vn -0.0 1.0 0.0
vn -0.0 1.0 0.0
vn -0.0 1.0 0.0
vn -0.0 1.0 0.0
vn 1.0 0.0 0.0
vn 1.0 0.0 0.0
vn 1.0 0.0 0.0
vn 1.0 0.0 0.0
vn 1.0 0.0 0.0
vn 1.0 0.0 0.0
vn 1.0 0.0 0.0
vn 1.0 0.0 0.0
vn -1.0 0.0 0.0
vn -1.0 0.0 0.0
vn -1.0 0.0 0.0
vn -1.0 0.0 0.0
vn -1.0 0.0 0.0
vn -1.0 0.0 0.0
vn -1.0 0.0 0.0
vn -1.0 0.0 0.0
vn -0.0 1.0 0.0
vn -0.0 1.0 0.0
vn -0.0 1.0 0.0
vn -0.0 1.0 0.0
vn -0.0 1.0 0.0
vn -0.0 1.0 0.0
vn -0.0 1.0 0.0
vn -0.0 1.0 0.0
vn -0.0 1.0 0.0
vn -0.0 1.0 0.0
vn -0.0 1.0 0.0
vn -0.0 1.0 0.0
vn -0.0 1.0 0.0
vn -0.0 1.0 0.0
vn -0.0 1.0 0.0
vn -0.0 1.0 0.0
vn -0.99751115 0.0 0.070508935
vn -1.0 0.0 0.0
vn -1.0 0.0 0.0
vn -0.99751115 0.0 0.070508964
vn -0.9747355 0.0 0.22336234
vn -0.9747355 0.0 0.22336236
vn -0.91045773 0.0 0.41360202
vn -0.91045773 0.0 0.41360208
vn -0.9046556 0.0 0.42614353
vn -0.9046556 0.0 0.42614353
vn -0.9802675 0.0 0.1976756
vn -0.9802675 0.0 0.19767557
vn -0.9987238 0.0 0.050504353
vn -0.9987238 0.0 0.050504345
vn -0.99919575 0.0 0.040097475
vn -0.99919575 0.0 0.04009747
vn 1.0 0.0 0.0
vn 0.99840194 0.0 -0.056512043
vn 0.99840194 0.0 -0.05651204
vn 1.0 0.0 0.0
vn 0.98015714 0.0 -0.19822249
vn 0.98015714 0.0 -0.19822249
vn 0.92554504 0.0 -0.37863746
vn 0.92554516 0.0 -0.37863746
vn 0.9036119 0.0 -0.4283521
vn 0.9036119 0.0 -0.42835212
vn 0.96909124 0.0 -0.24670246
vn 0.96909124 0.0 -0.24670246
vn 0.99865204 0.0 -0.051904734
vn 0.99865204 0.0 -0.051904757
vn 1.0 0.0 0.0
vn 1.0 0.0 0.0
vt 0.49987495 0.0010339022
vt 0.3777692 0.122770965
vt 0.37776917 0.0010339022
vt 0.49987498 0.122770965
vt 0.37776926 0.122771025
vt 0.499875 0.059467733
vt 0.49987504 0.122771025
vt 0.37776923 0.059467733
vt 0.37776935 0.1236158
vt 0.49987513 0.0018787384
vt 0.49987513 0.1236158
vt 0.37776935 0.0018787384
vt 0.40952832 0.61886233
vt 0.4822241 0.6107461
vt 0.57079536 0.61886233
vt 0.5321919 0.59059644
vt 0.5707955 0.5644302
vt 0.6126204 0.5382304
vt 0.6633933 0.5180725
vt 0.7320624 0.5099981
vt 0.62426853 0.05932802
vt 0.5089563 0.13717002
vt 0.5089564 0.05932802
vt 0.37776935 0.1236158
vt 0.49987513 0.0018787384
vt 0.49987513 0.1236158
vt 0.37776935 0.0018787384
vt 0.3333331 0.7777759
vt -5.9604645E-8 0.7506412
vt -2.605002E-8 0.7777759
vt 0.33333308 0.7506412
vt 0.6666663 0.7777759
vt 0.66666627 0.7506412
vt 0.99999994 0.7777759
vt 0.99999994 0.7506412
vt 0.3333331 0.78116775
vt -2.605002E-8 0.7777759
vt -2.1855694E-8 0.78116775
vt 0.3333331 0.7777759
vt 0.6666663 0.78116775
vt 0.6666663 0.7777759
vt 0.99999994 0.78116775
vt 0.99999994 0.7777759
vt 1.169893E-8 0.80830246
vt 0.33333316 0.8116944
vt 0.33333313 0.80830246
vt 1.5893256E-8 0.8116944
vt 0.6666663 0.8116943
vt 0.6666663 0.80830246
vt 1.0 0.8116943
vt 1.0 0.80830246
vt 0.5221718 0.75730234
vt 0.7939823 0.8076694
vt 0.7939823 0.75730234
vt 0.5221718 0.8076694
vt 0.3811087 0.75730234
vt 0.3811087 0.8076694
vt 0.30363432 0.75730234
vt 0.30363432 0.8076694
vt 0.2415698 0.75730234
vt 0.22639811 0.8076694
vt 0.17694786 0.75730234
vt 0.15828842 0.8076694
vt 0.09913511 0.75730234
vt 0.09111329 0.8076694
vt 9.220354E-4 0.75730234
vt 9.220354E-4 0.8076694
vt 0.5221718 0.7512002
vt 0.7939823 0.75730234
vt 0.7939823 0.7512002
vt 0.5221718 0.75730234
vt 0.3811087 0.7512002
vt 0.3811087 0.75730234
vt 0.30363432 0.7512002
vt 0.30363432 0.75730234
vt 0.2415698 0.7512002
vt 0.2415698 0.75730234
vt 0.17694786 0.7512002
vt 0.17694786 0.75730234
vt 0.09913511 0.7512002
vt 0.09913511 0.75730234
vt 9.220354E-4 0.7512002
vt 9.220354E-4 0.75730234
vt 0.7939823 0.81130016
vt 0.5221718 0.8076694
vt 0.5222426 0.81130016
vt 0.7939823 0.8076694
vt 0.3811087 0.8076694
vt 0.38111717 0.81130016
vt 0.30363432 0.8076694
vt 0.30364567 0.8113002
vt 0.22639811 0.8076694
vt 0.22635548 0.8113002
vt 0.15828842 0.8076694
vt 0.15824255 0.8113002
vt 0.09111329 0.8076694
vt 0.091126814 0.8113002
vt 9.220354E-4 0.8076694
vt 9.2202425E-4 0.8113003

g Three_Lane_MergeToTwo_01
s 1
usemtl Three_Lane_MergeToTwo_01
f 3/3/3 2/2/2 1/1/1 
f 4/4/4 1/1/1 2/2/2 
f 7/7/7 6/6/6 5/5/5 
f 8/8/8 5/5/5 6/6/6 
f 11/11/11 10/10/10 9/9/9 
f 12/12/12 9/9/9 10/10/10 
f 15/15/15 14/14/14 13/13/13 
f 16/16/16 14/14/14 15/15/15 
f 17/17/17 16/16/16 15/15/15 
f 18/18/18 17/17/17 15/15/15 
f 19/19/19 18/18/18 15/15/15 
f 20/20/20 19/19/19 15/15/15 
f 23/23/23 22/22/22 21/21/21 
f 26/26/26 25/25/25 24/24/24 
f 27/27/27 24/24/24 25/25/25 
f 30/30/30 29/29/29 28/28/28 
f 31/31/31 28/28/28 29/29/29 
f 28/28/28 31/31/31 32/32/32 
f 33/33/33 32/32/32 31/31/31 
f 32/32/32 33/33/33 34/34/34 
f 35/35/35 34/34/34 33/33/33 
f 38/38/38 37/37/37 36/36/36 
f 39/39/39 36/36/36 37/37/37 
f 36/36/36 39/39/39 40/40/40 
f 41/41/41 40/40/40 39/39/39 
f 40/40/40 41/41/41 42/42/42 
f 43/43/43 42/42/42 41/41/41 
f 46/46/46 45/45/45 44/44/44 
f 47/47/47 44/44/44 45/45/45 
f 45/45/45 46/46/46 48/48/48 
f 49/49/49 48/48/48 46/46/46 
f 48/48/48 49/49/49 50/50/50 
f 51/51/51 50/50/50 49/49/49 
f 54/54/54 53/53/53 52/52/52 
f 55/55/55 52/52/52 53/53/53 
f 52/52/52 55/55/55 56/56/56 
f 57/57/57 56/56/56 55/55/55 
f 56/56/56 57/57/57 58/58/58 
f 59/59/59 58/58/58 57/57/57 
f 58/58/58 59/59/59 60/60/60 
f 61/61/61 60/60/60 59/59/59 
f 60/60/60 61/61/61 62/62/62 
f 63/63/63 62/62/62 61/61/61 
f 62/62/62 63/63/63 64/64/64 
f 65/65/65 64/64/64 63/63/63 
f 64/64/64 65/65/65 66/66/66 
f 67/67/67 66/66/66 65/65/65 
f 70/70/70 69/69/69 68/68/68 
f 71/71/71 68/68/68 69/69/69 
f 68/68/68 71/71/71 72/72/72 
f 73/73/73 72/72/72 71/71/71 
f 72/72/72 73/73/73 74/74/74 
f 75/75/75 74/74/74 73/73/73 
f 74/74/74 75/75/75 76/76/76 
f 77/77/77 76/76/76 75/75/75 
f 76/76/76 77/77/77 78/78/78 
f 79/79/79 78/78/78 77/77/77 
f 78/78/78 79/79/79 80/80/80 
f 81/81/81 80/80/80 79/79/79 
f 80/80/80 81/81/81 82/82/82 
f 83/83/83 82/82/82 81/81/81 
f 86/86/86 85/85/85 84/84/84 
f 87/87/87 84/84/84 85/85/85 
f 85/85/85 86/86/86 88/88/88 
f 89/89/89 88/88/88 86/86/86 
f 88/88/88 89/89/89 90/90/90 
f 91/91/91 90/90/90 89/89/89 
f 90/90/90 91/91/91 92/92/92 
f 93/93/93 92/92/92 91/91/91 
f 92/92/92 93/93/93 94/94/94 
f 95/95/95 94/94/94 93/93/93 
f 94/94/94 95/95/95 96/96/96 
f 97/97/97 96/96/96 95/95/95 
f 96/96/96 97/97/97 98/98/98 
f 99/99/99 98/98/98 97/97/97 

