# Created by DisUnity v0.3.4
v -9.404478 0.24982056 -26.298727
v -13.54831 0.24982044 -27.906181
v -12.135754 0.24982026 -29.314505
v -10.948294 0.24982071 -25.035666
v -6.9818563 0.24982086 -23.029833
v -8.642057 0.249821 -21.9242
v -4.891205 0.24982122 -19.539282
v -6.6517963 0.24982134 -18.601732
v -3.1526432 0.24982159 -15.860671
v -4.996666 0.24982168 -15.100234
v -1.7829065 0.24982198 -12.029406
v -3.6925955 0.24982205 -11.453407
v -0.7951784 0.24982238 -8.08236
v -2.7521362 0.24982244 -7.6963506
v -0.19896507 0.24982281 -4.057525
v -2.1843376 0.24982284 -3.865222
v -3.8146973E-6 0.24982323 0.006362915
v -1.9946661 0.24982323 0.0031068325
v -20.034248 0.24982171 -17.58679
v -22.043217 0.24982157 -19.424013
v -21.860453 0.24982154 -19.60313
v -20.233368 0.24982174 -17.426641
v -18.414423 0.24982187 -15.401234
v -18.627949 0.2498219 -15.261537
v -17.016567 0.24982208 -13.067504
v -17.242409 0.2498221 -12.949535
v -15.854129 0.2498223 -10.608063
v -16.090086 0.2498223 -10.512891
v -14.938288 0.24982251 -8.046584
v -15.18207 0.24982254 -7.975054
v -14.277853 0.24982275 -5.4077244
v -14.5271015 0.24982275 -5.3604536
v -13.879175 0.249823 -2.7168825
v -14.131485 0.249823 -2.6942534
v -13.746084 0.24982324 4.2438507E-5
v -13.999029 0.24982326 -0.0021152496
v -11.139818 0.24982074 -24.87858
v -16.380058 0.24982081 -25.073515
v -13.72352 0.24982049 -27.731085
v -14.043923 0.24982104 -22.494038
v -19.028187 0.24982116 -22.430744
v -16.93827 0.24982136 -20.123476
v -8.848053 0.24982104 -21.786638
v -11.971787 0.24982129 -19.698063
v -6.8702803 0.24982136 -18.485016
v -10.183594 0.24982159 -16.712498
v -15.084497 0.24982157 -17.622526
v -13.484707 0.24982181 -14.951967
v -5.2255354 0.24982171 -15.005488
v -8.696554 0.24982187 -13.56608
v -3.9296465 0.24982208 -11.381545
v -7.5249796 0.2498222 -10.289092
v -12.154294 0.24982208 -12.137499
v -11.106066 0.24982236 -9.206211
v -2.9950876 0.24982247 -7.6480618
v -6.680148 0.24982254 -6.9130754
v -2.430852 0.24982284 -3.8409717
v -6.170189 0.24982288 -3.4705215
v -10.350111 0.24982265 -6.1863174
v -9.893705 0.24982294 -3.1068823
v -2.2423706 0.24982324 0.0030851364
v -6.0000114 0.24982323 0.00543499
v -9.741241 0.24982324 0.0024552345
v -10.948294 0.24982071 -25.035666
v -13.72352 0.24982049 -27.731085
v -13.54831 0.24982044 -27.906181
v -11.139818 0.24982074 -24.87858
v -8.642057 0.249821 -21.9242
v -8.848053 0.24982104 -21.786638
v -6.6517963 0.24982134 -18.601732
v -6.8702803 0.24982136 -18.485016
v -4.996666 0.24982168 -15.100234
v -5.2255354 0.24982171 -15.005488
v -3.6925955 0.24982205 -11.453407
v -3.9296465 0.24982208 -11.381545
v -2.7521362 0.24982244 -7.6963506
v -2.9950876 0.24982247 -7.6480618
v -2.1843376 0.24982284 -3.865222
v -2.430852 0.24982284 -3.8409717
v -1.9946661 0.24982323 0.0031068325
v -2.2423706 0.24982324 0.0030851364
v -20.233368 0.24982174 -17.426641
v -23.45654 0.24982177 -18.007856
v -22.043217 0.24982157 -19.424013
v -21.778708 0.2498219 -16.155804
v -18.627949 0.2498219 -15.261537
v -20.290426 0.24982205 -14.148256
v -17.242409 0.2498221 -12.949535
v -19.00602 0.24982223 -12.004537
v -16.090086 0.2498223 -10.512891
v -17.93785 0.24982241 -9.74528
v -15.18207 0.24982254 -7.975054
v -17.0962 0.2498226 -7.3922286
v -14.5271015 0.24982275 -5.3604536
v -16.48917 0.24982283 -4.9680305
v -14.131485 0.249823 -2.6942534
v -16.122597 0.24982303 -2.4960167
v -13.999029 0.24982326 -0.0021152496
v -16.000015 0.24982326 2.002716E-5
v -16.93827 0.24982136 -20.123476
v -21.860453 0.24982154 -19.60313
v -19.028187 0.24982116 -22.430744
v -20.034248 0.24982171 -17.58679
v -15.084497 0.24982157 -17.622526
v -18.414423 0.24982187 -15.401234
v -13.484707 0.24982181 -14.951967
v -17.016567 0.24982208 -13.067504
v -12.154294 0.24982208 -12.137499
v -15.854129 0.2498223 -10.608063
v -11.106066 0.24982236 -9.206211
v -14.938288 0.24982251 -8.046584
v -10.350111 0.24982265 -6.1863174
v -14.277853 0.24982275 -5.4077244
v -9.893705 0.24982294 -3.1068823
v -13.879175 0.249823 -2.7168825
v -9.741241 0.24982324 0.0024552345
v -13.746084 0.24982324 4.2438507E-5
v -9.404478 -1.013279E-6 -26.298727
v -12.135754 0.24982026 -29.314505
v -12.135754 -1.3560057E-6 -29.314505
v -9.404478 0.24982056 -26.298727
v -21.778708 0.2498219 -16.155804
v -23.45654 2.0861626E-7 -18.007856
v -23.45654 0.24982177 -18.007856
v -21.778708 4.0233135E-7 -16.155804
v -1.7829065 6.854534E-7 -12.029406
v -3.1526432 0.24982159 -15.860671
v -3.1526432 2.0861626E-7 -15.860671
v -1.7829065 0.24982198 -12.029406
v -17.0962 0.2498226 -7.3922286
v -17.93785 1.1026859E-6 -9.74528
v -17.93785 0.24982241 -9.74528
v -17.0962 1.3709068E-6 -7.3922286
v -4.891205 -2.2351742E-7 -19.539282
v -6.9818563 0.24982086 -23.029833
v -6.9818563 -6.4074993E-7 -23.029833
v -4.891205 0.24982122 -19.539282
v -19.00602 0.24982223 -12.004537
v -20.290426 6.109476E-7 -14.148256
v -20.290426 0.24982205 -14.148256
v -19.00602 8.493662E-7 -12.004537
v -0.19896507 1.6242266E-6 -4.057525
v -0.7951784 0.24982238 -8.08236
v -0.7951784 1.1473894E-6 -8.08236
v -0.19896507 0.24982281 -4.057525
v -16.122597 0.24982303 -2.4960167
v -16.48917 1.6540289E-6 -4.9680305
v -16.48917 0.24982283 -4.9680305
v -16.122597 1.9222498E-6 -2.4960167
v -6.9818563 -6.4074993E-7 -23.029833
v -9.404478 0.24982056 -26.298727
v -9.404478 -1.013279E-6 -26.298727
v -6.9818563 0.24982086 -23.029833
v -20.290426 0.24982205 -14.148256
v -21.778708 4.0233135E-7 -16.155804
v -21.778708 0.2498219 -16.155804
v -20.290426 6.109476E-7 -14.148256
v -0.7951784 1.1473894E-6 -8.08236
v -1.7829065 0.24982198 -12.029406
v -1.7829065 6.854534E-7 -12.029406
v -0.7951784 0.24982238 -8.08236
v -16.48917 0.24982283 -4.9680305
v -17.0962 1.3709068E-6 -7.3922286
v -17.0962 0.2498226 -7.3922286
v -16.48917 1.6540289E-6 -4.9680305
v -3.1526432 2.0861626E-7 -15.860671
v -4.891205 0.24982122 -19.539282
v -4.891205 -2.2351742E-7 -19.539282
v -3.1526432 0.24982159 -15.860671
v -17.93785 0.24982241 -9.74528
v -19.00602 8.493662E-7 -12.004537
v -19.00602 0.24982223 -12.004537
v -17.93785 1.1026859E-6 -9.74528
v -3.8146973E-6 2.115965E-6 0.006362915
v -0.19896507 0.24982281 -4.057525
v -0.19896507 1.6242266E-6 -4.057525
v -3.8146973E-6 0.24982323 0.006362915
v -16.000015 0.24982326 2.002716E-5
v -16.122597 1.9222498E-6 -2.4960167
v -16.122597 0.24982303 -2.4960167
v -16.000015 2.2053719E-6 2.002716E-5
vn -0.0 1.0 0.0
vn -0.0 1.0 0.0
vn -0.0 1.0 0.0
vn -0.0 1.0 0.0
vn -0.0 1.0 0.0
vn -0.0 1.0 0.0
vn -0.0 1.0 0.0
vn -0.0 1.0 0.0
vn -0.0 1.0 0.0
vn -0.0 1.0 0.0
vn -0.0 1.0 0.0
vn -0.0 1.0 0.0
vn -0.0 1.0 0.0
vn -0.0 1.0 0.0
vn -0.0 1.0 0.0
vn -0.0 1.0 0.0
vn -0.0 1.0 0.0
vn -0.0 1.0 0.0
vn -0.0 1.0 0.0
vn -0.0 1.0 0.0
vn -0.0 1.0 0.0
vn -0.0 1.0 0.0
vn -0.0 1.0 0.0
vn -0.0 1.0 0.0
vn -0.0 1.0 0.0
vn -0.0 1.0 0.0
vn -0.0 1.0 0.0
vn -0.0 1.0 0.0
vn -0.0 1.0 0.0
vn -0.0 1.0 0.0
vn -0.0 1.0 0.0
vn -0.0 1.0 0.0
vn -0.0 1.0 0.0
vn -0.0 1.0 0.0
vn -0.0 1.0 0.0
vn -0.0 1.0 0.0
vn -0.0 1.0 0.0
vn -0.0 1.0 0.0
vn -0.0 1.0 0.0
vn -0.0 1.0 0.0
vn -0.0 1.0 0.0
vn -0.0 1.0 0.0
vn -0.0 1.0 0.0
vn -0.0 1.0 0.0
vn -0.0 1.0 0.0
vn -0.0 1.0 0.0
vn -0.0 1.0 0.0
vn -0.0 1.0 0.0
vn -0.0 1.0 0.0
vn -0.0 1.0 0.0
vn -0.0 1.0 0.0
vn -0.0 1.0 0.0
vn -0.0 1.0 0.0
vn -0.0 1.0 0.0
vn -0.0 1.0 0.0
vn -0.0 1.0 0.0
vn -0.0 1.0 0.0
vn -0.0 1.0 0.0
vn -0.0 1.0 0.0
vn -0.0 1.0 0.0
vn -0.0 1.0 0.0
vn -0.0 1.0 0.0
vn -0.0 1.0 0.0
vn -0.0 1.0 0.0
vn -0.0 1.0 0.0
vn -0.0 1.0 0.0
vn -0.0 1.0 0.0
vn -0.0 1.0 0.0
vn -0.0 1.0 0.0
vn -0.0 1.0 0.0
vn -0.0 1.0 0.0
vn -0.0 1.0 0.0
vn -0.0 1.0 0.0
vn -0.0 1.0 0.0
vn -0.0 1.0 0.0
vn -0.0 1.0 0.0
vn -0.0 1.0 0.0
vn -0.0 1.0 0.0
vn -0.0 1.0 0.0
vn -0.0 1.0 0.0
vn -0.0 1.0 0.0
vn -0.0 1.0 0.0
vn -0.0 1.0 0.0
vn -0.0 1.0 0.0
vn -0.0 1.0 0.0
vn -0.0 1.0 0.0
vn -0.0 1.0 0.0
vn -0.0 1.0 0.0
vn -0.0 1.0 0.0
vn -0.0 1.0 0.0
vn -0.0 1.0 0.0
vn -0.0 1.0 0.0
vn -0.0 1.0 0.0
vn -0.0 1.0 0.0
vn -0.0 1.0 0.0
vn -0.0 1.0 0.0
vn -0.0 1.0 0.0
vn -0.0 1.0 0.0
vn -0.0 1.0 0.0
vn -0.0 1.0 0.0
vn -0.0 1.0 0.0
vn -0.0 1.0 0.0
vn -0.0 1.0 0.0
vn -0.0 1.0 0.0
vn -0.0 1.0 0.0
vn -0.0 1.0 0.0
vn -0.0 1.0 0.0
vn -0.0 1.0 0.0
vn -0.0 1.0 0.0
vn -0.0 1.0 0.0
vn -0.0 1.0 0.0
vn -0.0 1.0 0.0
vn -0.0 1.0 0.0
vn -0.0 1.0 0.0
vn -0.0 1.0 0.0
vn -0.0 1.0 0.0
vn -0.0 1.0 0.0
vn 0.7412037 0.0 -0.6712802
vn 0.7412037 0.0 -0.67128015
vn 0.7412037 0.0 -0.67128015
vn 0.7412037 0.0 -0.6712802
vn -0.74110466 0.0 0.6713895
vn -0.74110466 0.0 0.6713896
vn -0.7411046 0.0 0.6713896
vn -0.7411046 0.0 0.6713896
vn 0.9416308 0.0 -0.33664754
vn 0.9416308 0.0 -0.33664757
vn 0.9416308 0.0 -0.33664757
vn 0.9416308 0.0 -0.3366475
vn -0.94158024 0.0 0.33678856
vn -0.94158024 0.0 0.3367886
vn -0.94158024 0.0 0.3367886
vn -0.94158024 0.0 0.33678862
vn 0.85789156 0.0 -0.5138307
vn 0.8578917 0.0 -0.5138307
vn 0.85789156 0.0 -0.5138307
vn 0.85789156 0.0 -0.5138307
vn -0.85781497 0.0 0.51395863
vn -0.85781497 0.0 0.51395863
vn -0.85781497 0.0 0.5139586
vn -0.8578149 0.0 0.5139587
vn 0.9892055 0.0 -0.14653459
vn 0.9892055 0.0 -0.14653458
vn 0.9892055 0.0 -0.14653458
vn 0.9892055 0.0 -0.14653456
vn -0.9891832 0.0 0.14668536
vn -0.9891832 0.0 0.14668535
vn -0.9891832 0.0 0.14668535
vn -0.9891832 0.0 0.14668535
vn 0.8034139 0.0 -0.59542096
vn 0.8034139 0.0 -0.59542096
vn 0.8034139 0.0 -0.59542096
vn 0.8034139 0.0 -0.59542096
vn -0.8033257 0.0 0.5955399
vn -0.8033257 0.0 0.5955399
vn -0.8033257 0.0 0.59554
vn -0.8033257 0.0 0.59554
vn 0.9700865 0.0 -0.24275921
vn 0.9700865 0.0 -0.24275921
vn 0.9700865 0.0 -0.24275921
vn 0.9700865 0.0 -0.24275921
vn -0.9700501 0.0 0.24290517
vn -0.9700501 0.0 0.2429052
vn -0.9700501 0.0 0.2429052
vn -0.9700501 0.0 0.2429052
vn 0.904112 0.0 -0.42729563
vn 0.904112 0.0 -0.42729563
vn 0.904112 0.0 -0.42729563
vn 0.904112 0.0 -0.42729563
vn -0.9040481 0.0 0.4274308
vn -0.9040481 0.0 0.4274308
vn -0.9040481 0.0 0.4274308
vn -0.9040481 0.0 0.42743078
vn 0.99880373 0.0 -0.04889978
vn 0.99880373 0.0 -0.04889978
vn 0.99880373 0.0 -0.048899785
vn 0.99880373 0.0 -0.048899785
vn -0.9987962 0.0 0.04905133
vn -0.9987962 0.0 0.049051333
vn -0.9987962 0.0 0.049051333
vn -0.9987962 0.0 0.04905133
vt 6.5686374 0.8757218
vt 6.644924 0.9377776
vt 6.644495 0.8757199
vt 6.569084 0.93777573
vt 6.4927797 0.8757237
vt 6.493244 0.9377738
vt 6.4169216 0.8757256
vt 6.417404 0.937772
vt 6.341064 0.87572753
vt 6.3415647 0.93777007
vt 6.2652063 0.87572944
vt 6.265725 0.9377682
vt 6.189348 0.87573135
vt 6.189885 0.9377664
vt 6.1134906 0.87573326
vt 6.114045 0.93776447
vt 6.037633 0.8757351
vt 6.038205 0.9377626
vt -0.8581308 0.43554384
vt -0.8335136 0.43933892
vt -0.8332329 0.435544
vt -0.85842407 0.4393391
vt -0.8830286 0.43554366
vt -0.8833345 0.43933928
vt -0.90792656 0.43554342
vt -0.90824497 0.43933952
vt -0.9328245 0.4355433
vt -0.9331554 0.43933964
vt -0.9577224 0.43554306
vt -0.95806587 0.43933988
vt -0.98262036 0.43554288
vt -0.9829763 0.43934005
vt -1.0075183 0.4355427
vt -1.0078868 0.43934023
vt -1.0324162 0.43554258
vt -1.0327972 0.43934035
vt -0.13852058 0.0057218075
vt -0.10216105 0.061671793
vt -0.10216105 0.005697608
vt -0.13852058 0.061695933
vt -0.10216105 0.117401004
vt -0.13852058 0.1174252
vt -0.17488012 0.0057459474
vt -0.17488012 0.061720133
vt -0.21123964 0.0057700872
vt -0.21123964 0.061744332
vt -0.17488012 0.11744934
vt -0.21123964 0.11747348
vt -0.24759917 0.0057942867
vt -0.24759917 0.06176853
vt -0.2839587 0.0058184266
vt -0.2839587 0.06179273
vt -0.24759917 0.11749768
vt -0.2839587 0.11752188
vt -0.32031822 0.005842626
vt -0.32031822 0.06181693
vt -0.35667777 0.005866766
vt -0.35667777 0.06184113
vt -0.32031822 0.11754608
vt -0.35667777 0.11757028
vt -0.3930373 0.0058909655
vt -0.3930373 0.06186527
vt -0.3930373 0.11759442
vt -3.4908323 0.31038165
vt -3.4072075 0.31471318
vt -3.4072075 0.31038165
vt -3.4908323 0.31471318
vt -3.5744574 0.31038165
vt -3.5744574 0.31471318
vt -3.6580825 0.31038165
vt -3.6580825 0.31471318
vt -3.7417073 0.31038165
vt -3.7417073 0.31471318
vt -3.8253322 0.31038165
vt -3.8253322 0.31471318
vt -3.9089572 0.31038165
vt -3.9089572 0.31471318
vt -3.9925823 0.31038165
vt -3.9925823 0.31471318
vt -4.076207 0.31038165
vt -4.076207 0.31471318
vt -2.4215708 0.9349693
vt -2.4761405 0.8744982
vt -2.4764848 0.9349587
vt -2.4212427 0.8745049
vt -2.3666568 0.9349799
vt -2.3663447 0.8745116
vt -2.3117428 0.9349906
vt -2.3114467 0.8745183
vt -2.256829 0.9350012
vt -2.256549 0.87452495
vt -2.2019153 0.9350118
vt -2.2016509 0.8745316
vt -2.1470013 0.9350224
vt -2.1467528 0.8745383
vt -2.0920873 0.935033
vt -2.091855 0.874545
vt -2.0371733 0.93504363
vt -2.036957 0.8745517
vt -0.14013544 0.05997908
vt -0.10380012 0.11961901
vt -0.10380018 0.06000346
vt -0.14013539 0.1195997
vt -0.1764707 0.059954762
vt -0.17647067 0.11958039
vt -0.21280596 0.059930384
vt -0.21280593 0.11956102
vt -0.24914123 0.059906006
vt -0.2491412 0.119541705
vt -0.2854765 0.059881687
vt -0.28547648 0.11952233
vt -0.32181177 0.05985731
vt -0.32181174 0.11950302
vt -0.35814703 0.05983293
vt -0.35814703 0.11948371
vt -0.39448228 0.059808612
vt -0.39448228 0.1194644
vt 2.8237438 1.9015267
vt 2.7472987 1.8936985
vt 2.7472987 1.9015267
vt 2.8237438 1.8936985
vt 2.0275736 1.8906565
vt 1.9511342 1.8828268
vt 1.9511342 1.8906565
vt 2.0275736 1.8828268
vt 3.1295238 1.9015267
vt 3.0530787 1.8936985
vt 3.0530787 1.9015267
vt 3.1295238 1.8936985
vt 2.3333306 1.8906565
vt 2.2568913 1.8828268
vt 2.2568913 1.8906565
vt 2.3333306 1.8828268
vt 2.9766335 1.9015267
vt 2.9001887 1.8936985
vt 2.9001887 1.9015267
vt 2.9766335 1.8936985
vt 2.1804519 1.8906565
vt 2.1040127 1.8828268
vt 2.1040127 1.8906565
vt 2.1804519 1.8828268
vt 3.2824135 1.9015267
vt 3.2059686 1.8936985
vt 3.2059686 1.9015267
vt 3.2824135 1.8936985
vt 2.486209 1.8906565
vt 2.4097698 1.8828268
vt 2.4097698 1.8906565
vt 2.486209 1.8828268
vt 2.9001887 1.9015267
vt 2.8237438 1.8936985
vt 2.8237438 1.9015267
vt 2.9001887 1.8936985
vt 2.1040127 1.8906565
vt 2.0275736 1.8828268
vt 2.0275736 1.8906565
vt 2.1040127 1.8828268
vt 3.2059686 1.9015267
vt 3.1295238 1.8936985
vt 3.1295238 1.9015267
vt 3.2059686 1.8936985
vt 2.4097698 1.8906565
vt 2.3333306 1.8828268
vt 2.3333306 1.8906565
vt 2.4097698 1.8828268
vt 3.0530787 1.9015267
vt 2.9766335 1.8936985
vt 2.9766335 1.9015267
vt 3.0530787 1.8936985
vt 2.2568913 1.8906565
vt 2.1804519 1.8828268
vt 2.1804519 1.8906565
vt 2.2568913 1.8828268
vt 3.3588586 1.9015267
vt 3.2824135 1.8936985
vt 3.2824135 1.9015267
vt 3.3588586 1.8936985
vt 2.5626483 1.8906565
vt 2.486209 1.8828268
vt 2.486209 1.8906565
vt 2.5626483 1.8828268

g Three_Lane_45Degree_L_20m
s 1
usemtl Three_Lane_45Degree_L_20m
f 3/3/3 2/2/2 1/1/1 
f 4/4/4 1/1/1 2/2/2 
f 1/1/1 4/4/4 5/5/5 
f 6/6/6 5/5/5 4/4/4 
f 5/5/5 6/6/6 7/7/7 
f 8/8/8 7/7/7 6/6/6 
f 7/7/7 8/8/8 9/9/9 
f 10/10/10 9/9/9 8/8/8 
f 9/9/9 10/10/10 11/11/11 
f 12/12/12 11/11/11 10/10/10 
f 11/11/11 12/12/12 13/13/13 
f 14/14/14 13/13/13 12/12/12 
f 13/13/13 14/14/14 15/15/15 
f 16/16/16 15/15/15 14/14/14 
f 15/15/15 16/16/16 17/17/17 
f 18/18/18 17/17/17 16/16/16 
f 21/21/21 20/20/20 19/19/19 
f 22/22/22 19/19/19 20/20/20 
f 19/19/19 22/22/22 23/23/23 
f 24/24/24 23/23/23 22/22/22 
f 23/23/23 24/24/24 25/25/25 
f 26/26/26 25/25/25 24/24/24 
f 25/25/25 26/26/26 27/27/27 
f 28/28/28 27/27/27 26/26/26 
f 27/27/27 28/28/28 29/29/29 
f 30/30/30 29/29/29 28/28/28 
f 29/29/29 30/30/30 31/31/31 
f 32/32/32 31/31/31 30/30/30 
f 31/31/31 32/32/32 33/33/33 
f 34/34/34 33/33/33 32/32/32 
f 33/33/33 34/34/34 35/35/35 
f 36/36/36 35/35/35 34/34/34 
f 39/39/39 38/38/38 37/37/37 
f 40/40/40 37/37/37 38/38/38 
f 38/38/38 41/41/41 40/40/40 
f 42/42/42 40/40/40 41/41/41 
f 37/37/37 40/40/40 43/43/43 
f 44/44/44 43/43/43 40/40/40 
f 40/40/40 42/42/42 44/44/44 
f 43/43/43 44/44/44 45/45/45 
f 46/46/46 45/45/45 44/44/44 
f 44/44/44 47/47/47 46/46/46 
f 47/47/47 44/44/44 42/42/42 
f 48/48/48 46/46/46 47/47/47 
f 45/45/45 46/46/46 49/49/49 
f 50/50/50 49/49/49 46/46/46 
f 46/46/46 48/48/48 50/50/50 
f 49/49/49 50/50/50 51/51/51 
f 52/52/52 51/51/51 50/50/50 
f 50/50/50 53/53/53 52/52/52 
f 53/53/53 50/50/50 48/48/48 
f 54/54/54 52/52/52 53/53/53 
f 51/51/51 52/52/52 55/55/55 
f 56/56/56 55/55/55 52/52/52 
f 52/52/52 54/54/54 56/56/56 
f 55/55/55 56/56/56 57/57/57 
f 58/58/58 57/57/57 56/56/56 
f 56/56/56 59/59/59 58/58/58 
f 59/59/59 56/56/56 54/54/54 
f 60/60/60 58/58/58 59/59/59 
f 57/57/57 58/58/58 61/61/61 
f 62/62/62 61/61/61 58/58/58 
f 58/58/58 60/60/60 62/62/62 
f 63/63/63 62/62/62 60/60/60 
f 66/66/66 65/65/65 64/64/64 
f 67/67/67 64/64/64 65/65/65 
f 64/64/64 67/67/67 68/68/68 
f 69/69/69 68/68/68 67/67/67 
f 68/68/68 69/69/69 70/70/70 
f 71/71/71 70/70/70 69/69/69 
f 70/70/70 71/71/71 72/72/72 
f 73/73/73 72/72/72 71/71/71 
f 72/72/72 73/73/73 74/74/74 
f 75/75/75 74/74/74 73/73/73 
f 74/74/74 75/75/75 76/76/76 
f 77/77/77 76/76/76 75/75/75 
f 76/76/76 77/77/77 78/78/78 
f 79/79/79 78/78/78 77/77/77 
f 78/78/78 79/79/79 80/80/80 
f 81/81/81 80/80/80 79/79/79 
f 84/84/84 83/83/83 82/82/82 
f 85/85/85 82/82/82 83/83/83 
f 82/82/82 85/85/85 86/86/86 
f 87/87/87 86/86/86 85/85/85 
f 86/86/86 87/87/87 88/88/88 
f 89/89/89 88/88/88 87/87/87 
f 88/88/88 89/89/89 90/90/90 
f 91/91/91 90/90/90 89/89/89 
f 90/90/90 91/91/91 92/92/92 
f 93/93/93 92/92/92 91/91/91 
f 92/92/92 93/93/93 94/94/94 
f 95/95/95 94/94/94 93/93/93 
f 94/94/94 95/95/95 96/96/96 
f 97/97/97 96/96/96 95/95/95 
f 96/96/96 97/97/97 98/98/98 
f 99/99/99 98/98/98 97/97/97 
f 102/102/102 101/101/101 100/100/100 
f 103/103/103 100/100/100 101/101/101 
f 100/100/100 103/103/103 104/104/104 
f 105/105/105 104/104/104 103/103/103 
f 104/104/104 105/105/105 106/106/106 
f 107/107/107 106/106/106 105/105/105 
f 106/106/106 107/107/107 108/108/108 
f 109/109/109 108/108/108 107/107/107 
f 108/108/108 109/109/109 110/110/110 
f 111/111/111 110/110/110 109/109/109 
f 110/110/110 111/111/111 112/112/112 
f 113/113/113 112/112/112 111/111/111 
f 112/112/112 113/113/113 114/114/114 
f 115/115/115 114/114/114 113/113/113 
f 114/114/114 115/115/115 116/116/116 
f 117/117/117 116/116/116 115/115/115 
f 120/120/120 119/119/119 118/118/118 
f 121/121/121 118/118/118 119/119/119 
f 124/124/124 123/123/123 122/122/122 
f 125/125/125 122/122/122 123/123/123 
f 128/128/128 127/127/127 126/126/126 
f 129/129/129 126/126/126 127/127/127 
f 132/132/132 131/131/131 130/130/130 
f 133/133/133 130/130/130 131/131/131 
f 136/136/136 135/135/135 134/134/134 
f 137/137/137 134/134/134 135/135/135 
f 140/140/140 139/139/139 138/138/138 
f 141/141/141 138/138/138 139/139/139 
f 144/144/144 143/143/143 142/142/142 
f 145/145/145 142/142/142 143/143/143 
f 148/148/148 147/147/147 146/146/146 
f 149/149/149 146/146/146 147/147/147 
f 152/152/152 151/151/151 150/150/150 
f 153/153/153 150/150/150 151/151/151 
f 156/156/156 155/155/155 154/154/154 
f 157/157/157 154/154/154 155/155/155 
f 160/160/160 159/159/159 158/158/158 
f 161/161/161 158/158/158 159/159/159 
f 164/164/164 163/163/163 162/162/162 
f 165/165/165 162/162/162 163/163/163 
f 168/168/168 167/167/167 166/166/166 
f 169/169/169 166/166/166 167/167/167 
f 172/172/172 171/171/171 170/170/170 
f 173/173/173 170/170/170 171/171/171 
f 176/176/176 175/175/175 174/174/174 
f 177/177/177 174/174/174 175/175/175 
f 180/180/180 179/179/179 178/178/178 
f 181/181/181 178/178/178 179/179/179 

