# Created by DisUnity v0.3.4
v -26.000078 0.24976702 -22.195927
v -36.000114 0.24976543 -21.804197
v -36.000114 0.24976543 -22.195932
v -26.000076 0.24976702 -21.804193
v -22.000057 0.24976772 -21.804195
v -22.000057 0.24976772 -22.195927
v -14.195925 0.24976908 -21.804193
v -14.195927 0.24976908 -22.195929
v -13.804191 0.24976915 -21.804193
v -13.804193 0.24976915 -22.195929
v -6.0000563 0.24977052 -21.804193
v -6.0000563 0.24977052 -22.195929
v -1.999979 0.24977122 -21.804192
v -1.99998 0.24977122 -22.195927
v 8.000057 0.24977311 -22.19592
v 8.000057 0.24977311 -21.80419
v -14.195928 0.24976908 -9.999919
v -13.804193 0.24976917 -8.896613
v -14.195927 0.24976909 -8.896613
v -13.8041935 0.24976915 -9.999919
v -13.804195 0.2497693 1.234714E-4
v -14.1959305 0.24976923 1.2149556E-4
v -4.7561378E-5 0.48558798 -6.639652
v -1.9999868 0.48558772 4.4186827E-6
v -1.9999833 0.48558757 -8.896732
v -5.1583316E-5 0.48558807 4.7683625E-6
v -4.8277205E-5 0.48558798 -7.9999824
v -1.9999812 0.48558754 -10.000038
v -1.9999833 0.48558757 -8.896732
v -1.9999828 0.24977137 1.226743E-4
v -1.9999813 0.24977124 -8.896612
v -1.9999868 0.48558772 4.4186827E-6
v -1.9999812 0.48558754 -10.000038
v -1.9999802 0.24977122 -9.999918
v -4.747647E-5 -3.20077E-5 -6.639652
v -5.1583316E-5 0.48558807 4.7683625E-6
v -4.7561378E-5 0.48558798 -6.639652
v -5.149841E-5 -3.1948097E-5 4.7683625E-6
v -4.8192298E-5 -3.20077E-5 -7.9999824
v -4.8277205E-5 0.48558798 -7.9999824
v 8.000055 0.48558947 -10.000035
v -4.8277205E-5 0.48558798 -7.9999824
v -1.9999812 0.48558754 -10.000038
v 8.000054 0.48558947 -7.9999785
v 8.000057 0.24977311 -9.999915
v -1.9999812 0.48558754 -10.000038
v -1.9999802 0.24977122 -9.999918
v 8.000055 0.48558947 -10.000035
v 8.000054 0.48558947 -7.9999785
v -4.8192298E-5 -3.20077E-5 -7.9999824
v -4.8277205E-5 0.48558798 -7.9999824
v 8.000052 -3.0549316E-5 -7.9999785
v -14.440759 0.48558554 -36.00001
v -13.559357 0.4855857 -34.000202
v -14.44076 0.48558554 -34.000202
v -13.559356 0.4855857 -36.00001
v -36.000107 0.4855818 -36.000015
v -36.00011 0.4855818 -34.000206
v 8.000055 0.48558947 -34.0002
v 8.00006 0.48558947 -36.00001
v -14.44076 0.48558554 -34.000202
v -13.559357 0.24976934 -34.000202
v -14.44076 0.2497692 -34.000202
v -13.559357 0.4855857 -34.000202
v -36.00011 0.4855818 -34.000206
v -36.00011 0.24976543 -34.000206
v 8.000055 0.24977311 -34.0002
v 8.000055 0.48558947 -34.0002
v -14.440759 -3.4532597E-5 -36.00001
v -13.559356 0.4855857 -36.00001
v -14.440759 0.48558554 -36.00001
v -13.559356 -3.437849E-5 -36.00001
v -36.000107 -3.8302154E-5 -36.000015
v -36.000107 0.4855818 -36.000015
v 8.00006 0.48558947 -36.00001
v 8.00006 -3.060892E-5 -36.00001
v -26.00008 0.48558334 -10.000039
v -36.000126 0.4855818 -7.99999
v -36.000126 0.4855818 -10.000048
v -28.000015 0.4855831 -7.999983
v -26.000078 0.24976702 -9.99992
v -36.000126 0.4855818 -10.000048
v -36.000122 0.24976543 -9.999925
v -26.00008 0.48558334 -10.000039
v -28.000015 0.4855831 -7.999983
v -36.000126 -3.8242553E-5 -7.99999
v -36.000126 0.4855818 -7.99999
v -28.000015 -3.6903373E-5 -7.999983
v -28.000015 0.4855831 -7.999983
v -26.000082 0.48558336 -8.896733
v -28.000015 0.4855831 -6.6396537
v -26.00008 0.48558334 -10.000039
v -26.000088 0.4855835 -4.5460006E-6
v -28.000023 0.4855832 -4.8956804E-6
v -26.000082 0.48558336 -8.896733
v -26.000078 0.24976702 -9.99992
v -26.000078 0.24976704 -8.896614
v -26.00008 0.48558334 -10.000039
v -26.000088 0.4855835 -4.5460006E-6
v -26.000084 0.24976717 1.19431665E-4
v -28.000015 -3.6903373E-5 -6.6396537
v -28.000015 0.4855831 -7.999983
v -28.000015 0.4855831 -6.6396537
v -28.000015 -3.6903373E-5 -7.999983
v -28.000023 -3.684377E-5 -4.8956804E-6
v -28.000023 0.4855832 -4.8956804E-6
v -26.000076 0.24976702 -30.0
v -36.000114 0.24976543 -22.195932
v -36.000114 0.24976543 -30.000002
v -26.000078 0.24976702 -22.195927
v -22.000057 0.24976772 -30.0
v -22.000057 0.24976772 -22.195927
v -14.195927 0.24976908 -22.195929
v -14.195927 0.24976908 -30.000002
v -13.804192 0.24976915 -30.000002
v -13.804193 0.24976915 -22.195929
v -6.0000563 0.24977052 -22.195929
v -6.000055 0.24977052 -30.000002
v -1.99998 0.24977122 -22.195927
v -1.9999776 0.24977122 -30.0
v 8.000056 0.24977311 -29.999994
v 8.000057 0.24977311 -22.19592
v -36.00012 0.24976543 -14.000009
v -26.000076 0.24976702 -21.804193
v -26.000078 0.24976702 -14.000004
v -36.000114 0.24976543 -21.804197
v -22.00006 0.24976772 -14.000004
v -22.000057 0.24976772 -21.804195
v -14.195927 0.24976908 -14.000004
v -14.195925 0.24976908 -21.804193
v -13.804191 0.24976915 -21.804193
v -13.804193 0.24976915 -14.000003
v -6.000056 0.24977052 -14.000003
v -6.0000563 0.24977052 -21.804193
v -1.999979 0.24977122 -21.804192
v -1.9999795 0.24977122 -14.000002
v 8.000057 0.24977311 -21.80419
v 8.000058 0.24977311 -13.999999
v -14.195926 0.24976908 -34.000206
v -13.804192 0.24976915 -30.000002
v -14.195927 0.24976908 -30.000002
v -13.804192 0.24976915 -34.000206
v -22.000055 0.24976772 -34.000202
v -22.000057 0.24976772 -30.0
v -6.000055 0.24977052 -30.000002
v -6.0000553 0.24977052 -34.000202
v -1.9999769 0.24977122 -34.000202
v -1.9999776 0.24977122 -30.0
v 8.000055 0.24977311 -34.0002
v 8.000056 0.24977311 -29.999994
v -26.000076 0.24976702 -34.000206
v -26.000076 0.24976702 -30.0
v -36.000114 0.24976543 -30.000002
v -36.00011 0.24976543 -34.000206
v -13.8041935 0.24976915 -9.999919
v -14.195927 0.24976908 -14.000004
v -13.804193 0.24976915 -14.000003
v -14.195928 0.24976908 -9.999919
v -6.000057 0.24977052 -9.999918
v -6.000056 0.24977052 -14.000003
v -1.9999802 0.24977122 -9.999918
v -1.9999795 0.24977122 -14.000002
v 8.000058 0.24977311 -13.999999
v 8.000057 0.24977311 -9.999915
v -22.00006 0.24976772 -14.000004
v -22.00006 0.24976772 -9.999919
v -26.000078 0.24976702 -9.99992
v -26.000078 0.24976702 -14.000004
v -36.000122 0.24976543 -9.999925
v -36.00012 0.24976543 -14.000009
v -22.00006 0.24976772 -9.999919
v -14.195927 0.24976909 -8.896613
v -22.00006 0.24976774 -8.896614
v -14.195928 0.24976908 -9.999919
v -14.1959305 0.24976923 1.2149556E-4
v -22.000063 0.24976787 1.2108472E-4
v -6.0000577 0.24977054 -8.896613
v -13.8041935 0.24976915 -9.999919
v -6.000057 0.24977052 -9.999918
v -13.804193 0.24976917 -8.896613
v -1.9999813 0.24977124 -8.896612
v -1.9999802 0.24977122 -9.999918
v -6.00006 0.24977067 1.219749E-4
v -13.804193 0.24976917 -8.896613
v -6.0000577 0.24977054 -8.896613
v -13.804195 0.2497693 1.234714E-4
v -1.9999828 0.24977137 1.226743E-4
v -6.0000577 0.24977054 -8.896613
v -1.9999813 0.24977124 -8.896612
v -6.00006 0.24977067 1.219749E-4
v -26.000078 0.24976702 -9.99992
v -22.00006 0.24976774 -8.896614
v -26.000078 0.24976704 -8.896614
v -22.00006 0.24976772 -9.999919
v -22.000063 0.24976787 1.2108472E-4
v -26.000084 0.24976717 1.19431665E-4
vn -0.0 1.0 0.0
vn -0.0 1.0 0.0
vn -0.0 1.0 0.0
vn -0.0 1.0 0.0
vn -0.0 1.0 0.0
vn -0.0 1.0 0.0
vn -0.0 1.0 0.0
vn -0.0 1.0 0.0
vn -0.0 1.0 0.0
vn -0.0 1.0 0.0
vn -0.0 1.0 0.0
vn -0.0 1.0 0.0
vn -0.0 1.0 0.0
vn -0.0 1.0 0.0
vn -0.0 1.0 0.0
vn -0.0 1.0 0.0
vn -0.0 1.0 0.0
vn -0.0 1.0 0.0
vn -0.0 1.0 0.0
vn -0.0 1.0 0.0
vn -0.0 1.0 0.0
vn -0.0 1.0 0.0
vn -0.0 1.0 0.0
vn -0.0 1.0 0.0
vn -0.0 1.0 0.0
vn -0.0 1.0 0.0
vn -0.0 1.0 0.0
vn -0.0 1.0 0.0
vn -1.0 0.0 0.0
vn -1.0 -1.6215008E-5 0.0
vn -1.0 0.0 0.0
vn -1.0 -1.635151E-5 0.0
vn -0.7069923 -3.637389E-4 -0.70722115
vn -0.7072201 -3.6324046E-4 -0.70699346
vn 1.0 0.0 0.0
vn 1.0 0.0 0.0
vn 1.0 0.0 0.0
vn 1.0 0.0 0.0
vn 0.7071068 0.0 0.70710665
vn 0.70710677 0.0 0.70710677
vn -0.0 1.0 0.0
vn -0.0 1.0 0.0
vn -0.0 1.0 0.0
vn -0.0 1.0 0.0
vn -0.0 -5.0956156E-4 -0.9999999
vn -0.7069923 -3.637389E-4 -0.70722115
vn -0.7072201 -3.6324046E-4 -0.70699346
vn -0.0 -5.0956156E-4 -0.9999999
vn -0.0 0.0 1.0
vn 0.7071068 0.0 0.70710665
vn 0.70710677 0.0 0.70710677
vn -0.0 0.0 1.0
vn -0.0 1.0 0.0
vn -0.0 1.0 0.0
vn -0.0 1.0 0.0
vn -0.0 1.0 0.0
vn -0.0 1.0 0.0
vn -0.0 1.0 0.0
vn -0.0 1.0 0.0
vn -0.0 1.0 0.0
vn -0.0 0.0 1.0
vn -0.0 0.0 1.0
vn -0.0 0.0 1.0
vn -0.0 0.0 1.0
vn -0.0 0.0 1.0
vn -0.0 0.0 1.0
vn -0.0 0.0 1.0
vn -0.0 0.0 1.0
vn -0.0 0.0 -1.0
vn -0.0 0.0 -1.0
vn -0.0 0.0 -1.0
vn -0.0 0.0 -1.0
vn -0.0 0.0 -1.0
vn -0.0 0.0 -1.0
vn -0.0 0.0 -1.0
vn -0.0 0.0 -1.0
vn -0.0 1.0 0.0
vn -0.0 1.0 0.0
vn -0.0 1.0 0.0
vn -0.0 1.0 0.0
vn 0.70722264 -3.5095747E-4 -0.7069908
vn -0.0 -5.214512E-4 -0.9999999
vn -0.0 -5.2169396E-4 -0.9999999
vn 0.70699215 -3.5167095E-4 -0.7072214
vn -0.70710725 0.0 0.7071063
vn -0.0 0.0 1.0
vn -0.0 0.0 1.0
vn -0.7071071 0.0 0.7071064
vn -0.0 1.0 0.0
vn -0.0 1.0 0.0
vn -0.0 1.0 0.0
vn -0.0 1.0 0.0
vn -0.0 1.0 0.0
vn -0.0 1.0 0.0
vn 1.0 1.5809392E-5 0.0
vn 0.70722264 -3.5095747E-4 -0.7069908
vn 1.0 1.6351514E-5 0.0
vn 0.70699215 -3.5167095E-4 -0.7072214
vn 1.0 1.635163E-5 0.0
vn 1.0 1.6351629E-5 0.0
vn -1.0 0.0 0.0
vn -0.70710725 0.0 0.7071063
vn -1.0 0.0 0.0
vn -0.7071071 0.0 0.7071064
vn -1.0 0.0 0.0
vn -1.0 0.0 0.0
vn -0.0 1.0 0.0
vn -0.0 1.0 0.0
vn -0.0 1.0 0.0
vn -0.0 1.0 0.0
vn -0.0 1.0 0.0
vn -0.0 1.0 0.0
vn -0.0 1.0 0.0
vn -0.0 1.0 0.0
vn -0.0 1.0 0.0
vn -0.0 1.0 0.0
vn -0.0 1.0 0.0
vn -0.0 1.0 0.0
vn -0.0 1.0 0.0
vn -0.0 1.0 0.0
vn -0.0 1.0 0.0
vn -0.0 1.0 0.0
vn -0.0 1.0 0.0
vn -0.0 1.0 0.0
vn -0.0 1.0 0.0
vn -0.0 1.0 0.0
vn -0.0 1.0 0.0
vn -0.0 1.0 0.0
vn -0.0 1.0 0.0
vn -0.0 1.0 0.0
vn -0.0 1.0 0.0
vn -0.0 1.0 0.0
vn -0.0 1.0 0.0
vn -0.0 1.0 0.0
vn -0.0 1.0 0.0
vn -0.0 1.0 0.0
vn -0.0 1.0 0.0
vn -0.0 1.0 0.0
vn -0.0 1.0 0.0
vn -0.0 1.0 0.0
vn -0.0 1.0 0.0
vn -0.0 1.0 0.0
vn -0.0 1.0 0.0
vn -0.0 1.0 0.0
vn -0.0 1.0 0.0
vn -0.0 1.0 0.0
vn -0.0 1.0 0.0
vn -0.0 1.0 0.0
vn -0.0 1.0 0.0
vn -0.0 1.0 0.0
vn -0.0 1.0 0.0
vn -0.0 1.0 0.0
vn -0.0 1.0 0.0
vn -0.0 1.0 0.0
vn -0.0 1.0 0.0
vn -0.0 1.0 0.0
vn -0.0 1.0 0.0
vn -0.0 1.0 0.0
vn -0.0 1.0 0.0
vn -0.0 1.0 0.0
vn -0.0 1.0 0.0
vn -0.0 1.0 0.0
vn -0.0 1.0 0.0
vn -0.0 1.0 0.0
vn -0.0 1.0 0.0
vn -0.0 1.0 0.0
vn -0.0 1.0 0.0
vn -0.0 1.0 0.0
vn -0.0 1.0 0.0
vn -0.0 1.0 0.0
vn -0.0 1.0 0.0
vn -0.0 1.0 0.0
vn -0.0 1.0 0.0
vn -0.0 1.0 0.0
vn -0.0 1.0 0.0
vn -0.0 1.0 0.0
vn -0.0 1.0 0.0
vn -0.0 1.0 0.0
vn -0.0 1.0 0.0
vn -0.0 1.0 0.0
vn -0.0 1.0 0.0
vn -0.0 1.0 0.0
vn -0.0 1.0 0.0
vn -0.0 1.0 0.0
vn -0.0 1.0 0.0
vn -0.0 1.0 0.0
vn -0.0 1.0 0.0
vn -0.0 1.0 0.0
vn -0.0 1.0 0.0
vn -0.0 1.0 0.0
vn -0.0 1.0 0.0
vn -0.0 1.0 0.0
vn -0.0 1.0 0.0
vn -0.0 1.0 0.0
vn -0.0 1.0 0.0
vn -0.0 1.0 0.0
vt 0.7277777 0.44237924
vt 1.0 0.43171537
vt 1.0 0.44237924
vt 0.7277777 0.43171537
vt 0.6615729 0.43171537
vt 0.6615729 0.44237924
vt 0.515332 0.43171537
vt 0.515332 0.44237924
vt 0.5046681 0.43171537
vt 0.5046681 0.44237924
vt 0.35924855 0.43171537
vt 0.35924855 0.44237924
vt 0.2922225 0.43171537
vt 0.2922225 0.44237924
vt 0.02000022 0.44237918
vt 0.0200001 0.4317153
vt 0.53901935 0.43185735
vt 0.50898504 0.4425212
vt 0.50898504 0.43185735
vt 0.53901935 0.4425212
vt 0.26679683 0.44252115
vt 0.26679695 0.4318573
vt 0.48953113 0.80851686
vt 0.3049247 0.75558454
vt 0.5521373 0.7555846
vt 0.3049247 0.80921555
vt 0.52431375 0.80851686
vt 0.56032264 0.7555846
vt 0.58729804 0.7564854
vt 0.31996065 0.7503836
vt 0.58729804 0.7503836
vt 0.31996065 0.7564854
vt 0.623796 0.7564854
vt 0.623796 0.7503836
vt 0.53382915 0.8114015
vt 0.31996065 0.80529976
vt 0.53382915 0.80529976
vt 0.31996065 0.8114015
vt 0.5630273 0.8114015
vt 0.5630273 0.80529976
vt 0.31996065 0.7564854
vt 0.5630439 0.80529976
vt 0.62381256 0.7564854
vt 0.31996065 0.80529976
vt 0.31996065 0.7503836
vt 0.62381256 0.7564854
vt 0.62381256 0.7503836
vt 0.31996065 0.7564854
vt 0.31996065 0.80529976
vt 0.5630439 0.8114015
vt 0.5630439 0.80529976
vt 0.31996065 0.8114015
vt 0.54105467 0.75027037
vt 0.5211931 0.7776922
vt 0.5410547 0.7776922
vt 0.521193 0.75027037
vt 0.936739 0.75027037
vt 0.936739 0.7776922
vt 0.12550876 0.7776922
vt 0.12550873 0.75027037
vt 0.5410547 0.7776922
vt 0.5211931 0.7811199
vt 0.5410547 0.7811199
vt 0.5211931 0.7776922
vt 0.936739 0.7776922
vt 0.936739 0.7811199
vt 0.12550876 0.7811199
vt 0.12550876 0.7776922
vt 0.5410547 0.8085418
vt 0.52119315 0.8119695
vt 0.5410547 0.8119695
vt 0.52119315 0.8085418
vt 0.9367391 0.8085418
vt 0.9367391 0.8119695
vt 0.12550879 0.8119695
vt 0.12550879 0.8085418
vt 0.623796 0.7564854
vt 0.31996065 0.80529976
vt 0.31996065 0.7564854
vt 0.5630273 0.80529976
vt 0.623796 0.7503836
vt 0.31996065 0.7564854
vt 0.31996065 0.7503836
vt 0.623796 0.7564854
vt 0.5630273 0.80529976
vt 0.31996065 0.8114015
vt 0.31996065 0.80529976
vt 0.5630273 0.8114015
vt 0.52431375 0.80851686
vt 0.5521373 0.7555846
vt 0.48953113 0.80851686
vt 0.56032264 0.7555846
vt 0.3049247 0.75558454
vt 0.3049247 0.80921555
vt 0.5873126 0.7564854
vt 0.62381256 0.7503836
vt 0.5873126 0.7503836
vt 0.62381256 0.7564854
vt 0.31996065 0.7564854
vt 0.31996065 0.7503836
vt 0.5338437 0.8114015
vt 0.5630439 0.80529976
vt 0.5338437 0.80529976
vt 0.5630439 0.8114015
vt 0.31996065 0.8114015
vt 0.31996065 0.80529976
vt 0.62849 0.10740465
vt 0.7819743 0.019226015
vt 0.7819743 0.10740465
vt 0.62849 0.019226015
vt 0.5911624 0.10740465
vt 0.5911624 0.019226015
vt 0.50870883 0.019226015
vt 0.50870883 0.10740465
vt 0.5026964 0.10740465
vt 0.5026964 0.019226015
vt 0.42070588 0.019226015
vt 0.42070588 0.10740465
vt 0.3829153 0.019226015
vt 0.3829153 0.10740465
vt 0.22943097 0.10740459
vt 0.22943097 0.019226015
vt 0.7819743 0.019226015
vt 0.62849 0.10740465
vt 0.62849 0.019225955
vt 0.7819743 0.10740465
vt 0.5911624 0.019225955
vt 0.5911624 0.10740465
vt 0.50870883 0.019225955
vt 0.50870883 0.10740465
vt 0.5026964 0.10740465
vt 0.5026964 0.019225955
vt 0.42070588 0.019226015
vt 0.42070588 0.10740465
vt 0.3829153 0.10740465
vt 0.3829153 0.019226015
vt 0.22943088 0.10740459
vt 0.22943088 0.019225895
vt 0.49134225 0.011920333
vt 0.49735457 0.065010905
vt 0.49134225 0.065010905
vt 0.49735457 0.011920333
vt 0.40888876 0.011920333
vt 0.40888876 0.065010905
vt 0.57934517 0.065010905
vt 0.57934517 0.011920333
vt 0.6171357 0.011920333
vt 0.6171357 0.065010905
vt 0.77062005 0.011920452
vt 0.77062005 0.065011024
vt 0.37156102 0.0119203925
vt 0.37156102 0.065010965
vt 0.21807668 0.065010965
vt 0.21807668 0.011920512
vt 0.5022866 0.011920273
vt 0.50829905 0.06501073
vt 0.5022866 0.06501073
vt 0.50829905 0.011920273
vt 0.42029613 0.0119203925
vt 0.42029613 0.065010846
vt 0.3825056 0.0119203925
vt 0.3825056 0.065010846
vt 0.22902113 0.06501073
vt 0.22902113 0.011920273
vt 0.59075254 0.06501073
vt 0.59075254 0.011920273
vt 0.6280802 0.011920273
vt 0.6280802 0.06501073
vt 0.7815645 0.0119203925
vt 0.7815645 0.065010846
vt 0.7638541 0.019857585
vt 0.7437311 0.1039539
vt 0.7437311 0.019857585
vt 0.7638541 0.1039539
vt 0.6389845 0.1039539
vt 0.6389845 0.019857585
vt 0.41562986 0.7096176
vt 0.44566417 0.62662494
vt 0.44566417 0.7096176
vt 0.41562986 0.62662494
vt 0.41562986 0.7478702
vt 0.44566417 0.7478702
vt 0.012513721 0.113083065
vt 0.12130316 0.011491716
vt 0.12130316 0.113083065
vt 0.012513721 0.011491716
vt 0.012610001 0.12119669
vt 0.12139945 0.059227526
vt 0.12139945 0.12119669
vt 0.012610001 0.059227526
vt 0.14153211 0.011401236
vt 0.12140911 0.065523624
vt 0.12140911 0.011401236
vt 0.14153211 0.065523624
vt 0.012771375 0.065523624
vt 0.012771375 0.011401236

g Three_Lane_13
s 1
usemtl Three_Lane_13
f 3/3/3 2/2/2 1/1/1 
f 4/4/4 1/1/1 2/2/2 
f 4/4/4 5/5/5 1/1/1 
f 6/6/6 1/1/1 5/5/5 
f 5/5/5 7/7/7 6/6/6 
f 8/8/8 6/6/6 7/7/7 
f 7/7/7 9/9/9 8/8/8 
f 10/10/10 8/8/8 9/9/9 
f 9/9/9 11/11/11 10/10/10 
f 12/12/12 10/10/10 11/11/11 
f 11/11/11 13/13/13 12/12/12 
f 14/14/14 12/12/12 13/13/13 
f 14/14/14 13/13/13 15/15/15 
f 16/16/16 15/15/15 13/13/13 
f 19/19/19 18/18/18 17/17/17 
f 20/20/20 17/17/17 18/18/18 
f 18/18/18 19/19/19 21/21/21 
f 22/22/22 21/21/21 19/19/19 
f 25/25/25 24/24/24 23/23/23 
f 26/26/26 23/23/23 24/24/24 
f 23/23/23 27/27/27 25/25/25 
f 28/28/28 25/25/25 27/27/27 
f 31/31/31 30/30/30 29/29/29 
f 32/32/32 29/29/29 30/30/30 
f 29/29/29 33/33/33 31/31/31 
f 34/34/34 31/31/31 33/33/33 
f 37/37/37 36/36/36 35/35/35 
f 38/38/38 35/35/35 36/36/36 
f 35/35/35 39/39/39 37/37/37 
f 40/40/40 37/37/37 39/39/39 
f 43/43/43 42/42/42 41/41/41 
f 44/44/44 41/41/41 42/42/42 
f 47/47/47 46/46/46 45/45/45 
f 48/48/48 45/45/45 46/46/46 
f 51/51/51 50/50/50 49/49/49 
f 52/52/52 49/49/49 50/50/50 
f 55/55/55 54/54/54 53/53/53 
f 56/56/56 53/53/53 54/54/54 
f 53/53/53 57/57/57 55/55/55 
f 58/58/58 55/55/55 57/57/57 
f 54/54/54 59/59/59 56/56/56 
f 60/60/60 56/56/56 59/59/59 
f 63/63/63 62/62/62 61/61/61 
f 64/64/64 61/61/61 62/62/62 
f 61/61/61 65/65/65 63/63/63 
f 66/66/66 63/63/63 65/65/65 
f 62/62/62 67/67/67 64/64/64 
f 68/68/68 64/64/64 67/67/67 
f 71/71/71 70/70/70 69/69/69 
f 72/72/72 69/69/69 70/70/70 
f 69/69/69 73/73/73 71/71/71 
f 74/74/74 71/71/71 73/73/73 
f 70/70/70 75/75/75 72/72/72 
f 76/76/76 72/72/72 75/75/75 
f 79/79/79 78/78/78 77/77/77 
f 80/80/80 77/77/77 78/78/78 
f 83/83/83 82/82/82 81/81/81 
f 84/84/84 81/81/81 82/82/82 
f 87/87/87 86/86/86 85/85/85 
f 88/88/88 85/85/85 86/86/86 
f 91/91/91 90/90/90 89/89/89 
f 92/92/92 89/89/89 90/90/90 
f 90/90/90 91/91/91 93/93/93 
f 94/94/94 93/93/93 91/91/91 
f 97/97/97 96/96/96 95/95/95 
f 98/98/98 95/95/95 96/96/96 
f 95/95/95 99/99/99 97/97/97 
f 100/100/100 97/97/97 99/99/99 
f 103/103/103 102/102/102 101/101/101 
f 104/104/104 101/101/101 102/102/102 
f 101/101/101 105/105/105 103/103/103 
f 106/106/106 103/103/103 105/105/105 
f 109/109/109 108/108/108 107/107/107 
f 110/110/110 107/107/107 108/108/108 
f 107/107/107 110/110/110 111/111/111 
f 112/112/112 111/111/111 110/110/110 
f 112/112/112 113/113/113 111/111/111 
f 114/114/114 111/111/111 113/113/113 
f 114/114/114 113/113/113 115/115/115 
f 116/116/116 115/115/115 113/113/113 
f 116/116/116 117/117/117 115/115/115 
f 118/118/118 115/115/115 117/117/117 
f 117/117/117 119/119/119 118/118/118 
f 120/120/120 118/118/118 119/119/119 
f 120/120/120 119/119/119 121/121/121 
f 122/122/122 121/121/121 119/119/119 
f 125/125/125 124/124/124 123/123/123 
f 126/126/126 123/123/123 124/124/124 
f 125/125/125 127/127/127 124/124/124 
f 128/128/128 124/124/124 127/127/127 
f 127/127/127 129/129/129 128/128/128 
f 130/130/130 128/128/128 129/129/129 
f 130/130/130 129/129/129 131/131/131 
f 132/132/132 131/131/131 129/129/129 
f 132/132/132 133/133/133 131/131/131 
f 134/134/134 131/131/131 133/133/133 
f 134/134/134 133/133/133 135/135/135 
f 136/136/136 135/135/135 133/133/133 
f 135/135/135 136/136/136 137/137/137 
f 138/138/138 137/137/137 136/136/136 
f 141/141/141 140/140/140 139/139/139 
f 142/142/142 139/139/139 140/140/140 
f 139/139/139 143/143/143 141/141/141 
f 144/144/144 141/141/141 143/143/143 
f 140/140/140 145/145/145 142/142/142 
f 146/146/146 142/142/142 145/145/145 
f 146/146/146 145/145/145 147/147/147 
f 148/148/148 147/147/147 145/145/145 
f 147/147/147 148/148/148 149/149/149 
f 150/150/150 149/149/149 148/148/148 
f 143/143/143 151/151/151 144/144/144 
f 152/152/152 144/144/144 151/151/151 
f 152/152/152 151/151/151 153/153/153 
f 154/154/154 153/153/153 151/151/151 
f 157/157/157 156/156/156 155/155/155 
f 158/158/158 155/155/155 156/156/156 
f 155/155/155 159/159/159 157/157/157 
f 160/160/160 157/157/157 159/159/159 
f 159/159/159 161/161/161 160/160/160 
f 162/162/162 160/160/160 161/161/161 
f 162/162/162 161/161/161 163/163/163 
f 164/164/164 163/163/163 161/161/161 
f 156/156/156 165/165/165 158/158/158 
f 166/166/166 158/158/158 165/165/165 
f 166/166/166 165/165/165 167/167/167 
f 168/168/168 167/167/167 165/165/165 
f 167/167/167 168/168/168 169/169/169 
f 170/170/170 169/169/169 168/168/168 
f 173/173/173 172/172/172 171/171/171 
f 174/174/174 171/171/171 172/172/172 
f 172/172/172 173/173/173 175/175/175 
f 176/176/176 175/175/175 173/173/173 
f 179/179/179 178/178/178 177/177/177 
f 180/180/180 177/177/177 178/178/178 
f 177/177/177 181/181/181 179/179/179 
f 182/182/182 179/179/179 181/181/181 
f 185/185/185 184/184/184 183/183/183 
f 186/186/186 183/183/183 184/184/184 
f 189/189/189 188/188/188 187/187/187 
f 190/190/190 187/187/187 188/188/188 
f 193/193/193 192/192/192 191/191/191 
f 194/194/194 191/191/191 192/192/192 
f 192/192/192 193/193/193 195/195/195 
f 196/196/196 195/195/195 193/193/193 

