# Created by DisUnity v0.3.4
v -13.999928 0.24979597 -14.000023
v -18.82978 0.24979503 -21.999943
v -13.999923 0.24979597 -21.999933
v -18.829782 0.24979512 -14.000026
v -13.999929 0.24979593 -10.000244
v -18.829815 0.24979499 -10.000129
v -10.0000305 0.24979667 -2.0583476E-4
v -1.9999725 0.24979794 -5.283795
v -1.9999714 0.24979807 -8.236568E-5
v -10.00003 0.24979667 -5.283916
v -13.999962 0.24979597 -9.2093214E-5
v -13.999963 0.24979584 -5.2838006
v 2.8298569 0.24979882 -21.999933
v -1.9999442 0.24979807 -14.00002
v -1.9999332 0.24979806 -21.99993
v 2.8298516 0.24979891 -14.000019
v -1.9999373 0.24979803 -10.00024
v 2.8298204 0.24979877 -10.000123
v -1.9999442 0.24979807 -14.00002
v -10.000025 0.24979667 -10.000244
v -10.000031 0.24979667 -14.000021
v -1.9999373 0.24979803 -10.00024
v -13.999923 0.24979597 -21.999933
v -10.000031 0.24979667 -14.000021
v -13.999928 0.24979597 -14.000023
v -10.000025 0.24979667 -21.999926
v -1.9999332 0.24979806 -21.99993
v -10.000031 0.24979667 -14.000021
v -10.000025 0.24979667 -21.999926
v -1.9999442 0.24979807 -14.00002
v -13.999928 0.24979597 -14.000023
v -10.000025 0.24979667 -10.000244
v -13.999929 0.24979593 -10.000244
v -10.000031 0.24979667 -14.000021
v -23.999968 0.24979421 -14.0000305
v -18.82978 0.24979503 -21.999943
v -18.829782 0.24979512 -14.000026
v -23.999954 0.24979421 -21.999943
v -24.00001 0.24979421 -10.00013
v -18.829815 0.24979499 -10.000129
v -10.000025 0.24979667 -10.000244
v -1.9999725 0.24979794 -5.283795
v -10.00003 0.24979667 -5.283916
v -1.9999373 0.24979803 -10.00024
v -13.999929 0.24979593 -10.000244
v -13.999963 0.24979584 -5.2838006
v 8.000042 0.24979982 -21.99993
v 2.8298516 0.24979891 -14.000019
v 2.8298569 0.24979882 -21.999933
v 8.000041 0.24979982 -14.00002
v 2.8298204 0.24979877 -10.000123
v 8.000006 0.24979982 -10.000126
v -0.11897889 0.24979796 -8.963376
v -1.9999373 0.24979803 -10.00024
v 2.8298204 0.24979877 -10.000123
v -1.9999725 0.24979794 -5.283795
v -15.150321 0.24979532 -8.232748
v -13.999929 0.24979593 -10.000244
v -13.999963 0.24979584 -5.2838006
v -18.829815 0.24979499 -10.000129
v 2.8297842 0.4856151 -10.000008
v 7.9999633 0.48561618 -7.999956
v 2.938253 0.4856151 -7.999952
v 7.999971 0.48561618 -10.000012
v 1.749109 0.48561463 -9.875322
v 2.180631 0.48561478 -7.9125385
v 0.7566888 0.48561445 -9.520223
v 1.5911039 0.4856147 -7.815128
v -0.11905522 0.4856143 -8.963141
v 1.0683911 0.4856146 -7.482629
v -0.8496805 0.48561418 -8.232512
v 0.63083 0.48561454 -7.045067
v -1.4067638 0.4856141 -7.3567715
v 0.29832944 0.48561448 -6.522356
v -1.7618626 0.48561403 -6.36435
v 0.08739567 0.48561442 -5.932825
v -2.0000067 0.48561424 -5.2836785
v -1.0624137E-5 0.4856146 -5.1752076
v -2.0000076 0.48561442 3.3982582E-5
v -1.1529005E-5 0.48561478 3.433227E-5
v 2.8298204 0.24979877 -10.000123
v 7.999971 0.48561618 -10.000012
v 2.8297842 0.4856151 -10.000008
v 8.000006 0.24979982 -10.000126
v 1.749109 0.24979828 -9.875322
v 1.749109 0.48561463 -9.875322
v 0.7566888 0.2497981 -9.520223
v 0.7566888 0.48561445 -9.520223
v -0.11905518 0.24979796 -8.963141
v -0.11905522 0.4856143 -8.963141
v -0.8496805 0.24979782 -8.232512
v -0.8496805 0.48561418 -8.232512
v -1.4067638 0.24979772 -7.3567715
v -1.4067638 0.4856141 -7.3567715
v -1.7618626 0.24979766 -6.36435
v -1.7618626 0.48561403 -6.36435
v -1.9999725 0.24979794 -5.283795
v -2.0000067 0.48561424 -5.2836785
v -1.9999714 0.24979807 -8.236568E-5
v -2.0000076 0.48561442 3.3982582E-5
v 7.9999633 -4.3828923E-6 -7.999956
v 2.938253 0.4856151 -7.999952
v 7.9999633 0.48561618 -7.999956
v 2.938253 -5.5063288E-6 -7.999952
v 2.180631 0.48561478 -7.9125385
v 2.1806312 -5.877214E-6 -7.9125385
v 1.5911039 0.4856147 -7.815128
v 1.5911039 -5.98029E-6 -7.815128
v 1.0683911 0.4856146 -7.482629
v 1.0683912 -6.0716843E-6 -7.482629
v 0.63083 0.48561454 -7.045067
v 0.63083 0.48561454 -7.045067
v 1.0683912 -6.0716843E-6 -7.482629
v 0.6308301 -6.1481896E-6 -7.045067
v 0.29832944 0.48561448 -6.522356
v 0.29832953 -6.206326E-6 -6.522356
v 0.08739567 0.48561442 -5.932825
v 0.08739575 -6.243207E-6 -5.932825
v -1.0624137E-5 0.4856146 -5.1752076
v -1.0539228E-5 -6.020071E-6 -5.1752076
v -1.1529005E-5 0.48561478 3.433227E-5
v -1.1444096E-5 -5.7816524E-6 3.433227E-5
v -13.999921 0.48561233 -21.999931
v -23.999949 0.48561057 -23.999874
v -13.999921 0.48561233 -23.999865
v -23.99995 0.48561057 -21.999939
v -10.000023 0.48561302 -21.999926
v -10.000023 0.48561302 -23.999859
v -1.9999313 0.48561442 -21.999928
v -1.9999311 0.48561442 -23.999863
v 8.000042 0.48561618 -21.999926
v 8.000042 0.48561618 -23.99986
v -13.999923 0.24979597 -21.999933
v -23.99995 0.48561057 -21.999939
v -13.999921 0.48561233 -21.999931
v -23.999954 0.24979421 -21.999943
v -10.000025 0.24979667 -21.999926
v -10.000023 0.48561302 -21.999926
v -1.9999332 0.24979806 -21.99993
v -1.9999313 0.48561442 -21.999928
v 8.000042 0.24979982 -21.99993
v 8.000042 0.48561618 -21.999926
v -23.999949 -9.977935E-6 -23.999874
v -13.999921 0.48561233 -23.999865
v -23.999949 0.48561057 -23.999874
v -13.999921 -8.229475E-6 -23.999865
v -10.000023 0.48561302 -23.999859
v -10.000023 -7.53011E-6 -23.999859
v -1.9999311 0.48561442 -23.999863
v -1.999931 -6.1313294E-6 -23.999863
v 8.000042 0.48561618 -23.99986
v 8.000042 -4.3828786E-6 -23.99986
v -13.999995 0.48561215 -5.2836833
v -16.000046 0.48561198 2.4859019E-5
v -16.00005 0.4856118 -5.1752143
v -13.999992 0.48561233 2.5208717E-5
v -14.238204 0.48561183 -6.364356
v -16.087463 0.4856116 -5.9328356
v -14.593307 0.48561177 -7.356779
v -16.298395 0.48561156 -6.5223665
v -15.150386 0.48561168 -8.232521
v -16.6309 0.4856115 -7.045074
v -15.88101 0.48561156 -8.963148
v -17.068457 0.48561144 -7.482635
v -16.756754 0.4856114 -9.520228
v -17.59117 0.48561135 -7.815136
v -17.749178 0.48561123 -9.875327
v -18.1807 0.4856112 -7.9125457
v -18.829847 0.48561132 -10.00001
v -18.938314 0.4856113 -7.9999547
v -24.00004 0.48561057 -10.00001
v -24.00004 0.48561057 -7.9999537
v -13.999963 0.24979584 -5.2838006
v -13.999992 0.48561233 2.5208717E-5
v -13.999995 0.48561215 -5.2836833
v -13.999962 0.24979597 -9.2093214E-5
v -14.238204 0.24979548 -6.364356
v -14.238204 0.48561183 -6.364356
v -14.593307 0.24979542 -7.356779
v -14.593307 0.48561177 -7.356779
v -15.150386 0.24979532 -8.232521
v -15.150386 0.48561168 -8.232521
v -15.88101 0.2497952 -8.963148
v -15.88101 0.48561156 -8.963148
v -16.756754 0.24979503 -9.520228
v -16.756754 0.4856114 -9.520228
v -17.749178 0.24979487 -9.875327
v -17.749178 0.48561123 -9.875327
v -18.829815 0.24979499 -10.000129
v -18.829847 0.48561132 -10.00001
v -24.00001 0.24979421 -10.00013
v -24.00004 0.48561057 -10.00001
v -16.000046 -8.579188E-6 2.4859019E-5
v -16.00005 0.4856118 -5.1752143
v -16.000046 0.48561198 2.4859019E-5
v -16.00005 -8.817607E-6 -5.1752133
v -16.087463 0.4856116 -5.9328356
v -16.087461 -9.071309E-6 -5.9328356
v -16.298395 0.48561156 -6.5223665
v -16.298395 -9.10819E-6 -6.5223665
v -16.6309 0.4856115 -7.045074
v -16.6309 -9.166327E-6 -7.045073
v -17.068457 0.48561144 -7.482635
v -17.068457 0.48561144 -7.482635
v -16.6309 -9.166327E-6 -7.045073
v -17.068457 -9.242832E-6 -7.482635
v -17.59117 0.48561135 -7.815136
v -17.59117 -9.334226E-6 -7.815136
v -18.1807 0.4856112 -7.9125457
v -18.1807 -9.437303E-6 -7.9125457
v -18.938314 0.4856113 -7.9999547
v -18.938314 -9.331349E-6 -7.9999547
v -24.00004 0.48561057 -7.9999537
v -24.00004 -9.977951E-6 -7.9999537
vn -0.0 1.0 0.0
vn -0.0 1.0 0.0
vn -0.0 1.0 0.0
vn -0.0 1.0 0.0
vn -0.0 1.0 0.0
vn -0.0 1.0 0.0
vn -0.0 1.0 0.0
vn -0.0 1.0 0.0
vn -0.0 1.0 0.0
vn -0.0 1.0 0.0
vn -0.0 1.0 0.0
vn -0.0 1.0 0.0
vn -0.0 1.0 0.0
vn -0.0 1.0 0.0
vn -0.0 1.0 0.0
vn -0.0 1.0 0.0
vn -0.0 1.0 0.0
vn -0.0 1.0 0.0
vn -0.0 1.0 0.0
vn -0.0 1.0 0.0
vn -0.0 1.0 0.0
vn -0.0 1.0 0.0
vn -0.0 1.0 0.0
vn -0.0 1.0 0.0
vn -0.0 1.0 0.0
vn -0.0 1.0 0.0
vn -0.0 1.0 0.0
vn -0.0 1.0 0.0
vn -0.0 1.0 0.0
vn -0.0 1.0 0.0
vn -0.0 1.0 0.0
vn -0.0 1.0 0.0
vn -0.0 1.0 0.0
vn -0.0 1.0 0.0
vn -0.0 1.0 0.0
vn -0.0 1.0 0.0
vn -0.0 1.0 0.0
vn -0.0 1.0 0.0
vn -0.0 1.0 0.0
vn -0.0 1.0 0.0
vn -0.0 1.0 0.0
vn -0.0 1.0 0.0
vn -0.0 1.0 0.0
vn -0.0 1.0 0.0
vn -0.0 1.0 0.0
vn -0.0 1.0 0.0
vn -0.0 1.0 0.0
vn -0.0 1.0 0.0
vn -0.0 1.0 0.0
vn -0.0 1.0 0.0
vn -0.0 1.0 0.0
vn -0.0 1.0 0.0
vn -0.0 1.0 0.0
vn -0.0 1.0 0.0
vn -0.0 1.0 0.0
vn -0.0 1.0 0.0
vn -0.0 1.0 0.0
vn -0.0 1.0 0.0
vn -0.0 1.0 0.0
vn -0.0 1.0 0.0
vn -0.0 1.0 0.0
vn -0.0 1.0 0.0
vn -0.0 1.0 0.0
vn -0.0 1.0 0.0
vn -0.0 1.0 0.0
vn -0.0 1.0 0.0
vn -0.0 1.0 0.0
vn -0.0 1.0 0.0
vn -0.0 1.0 0.0
vn -0.0 1.0 0.0
vn -0.0 1.0 0.0
vn -0.0 1.0 0.0
vn -0.0 1.0 0.0
vn -0.0 1.0 0.0
vn -0.0 1.0 0.0
vn -0.0 1.0 0.0
vn -0.0 1.0 0.0
vn -0.0 1.0 0.0
vn -0.0 1.0 0.0
vn -0.0 1.0 0.0
vn -0.057447866 4.7957676E-4 -0.99834836
vn -0.0 4.8148716E-4 -0.9999999
vn -0.05745422 4.4780635E-4 -0.998348
vn -0.0 4.8125247E-4 -0.9999999
vn -0.2272476 3.200282E-5 -0.9738371
vn -0.22724079 0.0 -0.9738385
vn -0.43954092 0.0 -0.8982226
vn -0.43954092 0.0 -0.8982225
vn -0.62566155 0.0 -0.7800946
vn -0.6256615 0.0 -0.7800946
vn -0.78009504 0.0 -0.6256609
vn -0.78009504 0.0 -0.6256609
vn -0.898222 0.0 -0.43954188
vn -0.89822215 0.0 -0.4395419
vn -0.96098506 0.0 -0.2766
vn -0.960985 0.0 -0.27660048
vn -0.9941214 -8.906677E-5 -0.10827172
vn -0.9941288 -9.163801E-5 -0.108202845
vn -1.0 -1.5362256E-4 0.0
vn -1.0 -1.5385215E-4 0.0
vn -0.0 0.0 1.0
vn 0.05740406 0.0 0.998351
vn -0.0 0.0 1.0
vn 0.057404093 0.0 0.998351
vn 0.13886277 0.0 0.9903116
vn 0.13886277 0.0 0.9903116
vn 0.3570892 0.0 0.9340703
vn 0.35708922 0.0 0.9340703
vn 0.62565553 0.0 0.7800995
vn 0.62565553 0.0 0.7800995
vn 0.780099 0.0 0.6256561
vn 0.780099 0.0 0.6256561
vn 0.62565553 0.0 0.7800995
vn 0.780099 0.0 0.62565607
vn 0.89822733 0.0 0.43953124
vn 0.89822733 0.0 0.4395312
vn 0.97384065 0.0 0.22723171
vn 0.97384065 0.0 0.22723171
vn 0.99835134 0.0 0.05739959
vn 0.99835134 0.0 0.057399604
vn 1.0 0.0 0.0
vn 1.0 0.0 0.0
vn -0.0 1.0 0.0
vn -0.0 1.0 0.0
vn -0.0 1.0 0.0
vn -0.0 1.0 0.0
vn -0.0 1.0 0.0
vn -0.0 1.0 0.0
vn -0.0 1.0 0.0
vn -0.0 1.0 0.0
vn -0.0 1.0 0.0
vn -0.0 1.0 0.0
vn -0.0 0.0 1.0
vn -0.0 -1.6055157E-5 1.0
vn -0.0 0.0 1.0
vn -0.0 -1.617655E-5 1.0
vn -0.0 0.0 1.0
vn -0.0 0.0 1.0
vn -0.0 0.0 1.0
vn -0.0 0.0 1.0
vn -0.0 -1.6055155E-5 1.0
vn -0.0 -1.6176558E-5 1.0
vn -0.0 0.0 -1.0
vn -0.0 0.0 -1.0
vn -0.0 0.0 -1.0
vn -0.0 0.0 -1.0
vn -0.0 0.0 -1.0
vn -0.0 0.0 -1.0
vn -0.0 0.0 -1.0
vn -0.0 0.0 -1.0
vn -0.0 0.0 -1.0
vn -0.0 0.0 -1.0
vn -0.0 1.0 0.0
vn -0.0 1.0 0.0
vn -0.0 1.0 0.0
vn -0.0 1.0 0.0
vn -0.0 1.0 0.0
vn -0.0 1.0 0.0
vn -0.0 1.0 0.0
vn -0.0 1.0 0.0
vn -0.0 1.0 0.0
vn -0.0 1.0 0.0
vn -0.0 1.0 0.0
vn -0.0 1.0 0.0
vn -0.0 1.0 0.0
vn -0.0 1.0 0.0
vn -0.0 1.0 0.0
vn -0.0 1.0 0.0
vn -0.0 1.0 0.0
vn -0.0 1.0 0.0
vn -0.0 1.0 0.0
vn -0.0 1.0 0.0
vn 0.9941155 1.9063379E-4 -0.10832446
vn 1.0 1.2981723E-4 0.0
vn 0.99412316 1.7449084E-4 -0.108255304
vn 1.0 1.295875E-4 0.0
vn 0.960975 1.6331938E-5 -0.27663544
vn 0.9609758 0.0 -0.27663213
vn 0.89822227 0.0 -0.4395416
vn 0.89822227 0.0 -0.43954152
vn 0.7800959 0.0 -0.62565994
vn 0.7800959 0.0 -0.62565994
vn 0.6256611 0.0 -0.780095
vn 0.625661 0.0 -0.780095
vn 0.43953994 0.0 -0.8982231
vn 0.43953994 0.0 -0.8982231
vn 0.22729348 0.0 -0.9738263
vn 0.22728601 3.5466204E-5 -0.973828
vn 0.05741382 4.7733355E-4 -0.9983504
vn 0.05739831 5.126451E-4 -0.9983512
vn -0.0 5.0944416E-4 -0.9999999
vn -0.0 5.095615E-4 -0.9999999
vn -1.0 0.0 0.0
vn -0.998351 0.0 0.057404354
vn -1.0 0.0 0.0
vn -0.998351 0.0 0.057404198
vn -0.97383976 0.0 0.2272359
vn -0.97383976 0.0 0.2272359
vn -0.8982257 0.0 0.43953457
vn -0.8982256 0.0 0.4395347
vn -0.7800975 0.0 0.625658
vn -0.78009766 0.0 0.6256578
vn -0.6256581 0.0 0.78009737
vn -0.6256581 0.0 0.78009737
vn -0.78009766 0.0 0.6256578
vn -0.62565815 0.0 0.7800973
vn -0.35708877 0.0 0.9340704
vn -0.35708877 0.0 0.9340704
vn -0.13885921 0.0 0.9903121
vn -0.13885923 0.0 0.9903121
vn -0.057401504 0.0 0.9983512
vn -0.05740152 0.0 0.9983512
vn -0.0 0.0 1.0
vn -0.0 0.0 1.0
vt -0.83640254 0.74933946
vt -0.99709547 0.62571335
vt -0.99709547 0.74933946
vt -0.83640254 0.6257133
vt -0.7528422 0.74933946
vt -0.7528422 0.6257133
vt 0.31078947 0.70468426
vt 0.4437571 0.6317711
vt 0.31078947 0.6317711
vt 0.4437571 0.70468426
vt 0.31078947 0.7425991
vt 0.4437571 0.7425991
vt -0.99709547 0.6257132
vt -0.83640254 0.74933946
vt -0.99709547 0.74933946
vt -0.83640254 0.6257132
vt -0.7528422 0.74933946
vt -0.7528422 0.6257132
vt 0.38642344 0.62271595
vt 0.44626328 0.50293016
vt 0.38642344 0.50293016
vt 0.44626328 0.62271607
vt 0.52630717 0.5029303
vt 0.64640725 0.56308424
vt 0.64640725 0.5029303
vt 0.5263072 0.56308424
vt 0.5263072 0.62271607
vt 0.64640725 0.50293016
vt 0.5263072 0.50293016
vt 0.64640725 0.62271595
vt 0.38642344 0.5029303
vt 0.44626328 0.56308436
vt 0.44626328 0.5029303
vt 0.38642344 0.56308424
vt 0.27602485 0.62669224
vt 0.40899253 0.7489435
vt 0.40899253 0.62669224
vt 0.27602485 0.7489435
vt 0.27602485 0.56312156
vt 0.40899253 0.56312156
vt -0.83640254 0.62571335
vt -0.99709547 0.7493396
vt -0.83640254 0.7493396
vt -0.99709547 0.62571335
vt -0.7528422 0.62571335
vt -0.7528422 0.7493396
vt 0.31078932 0.6317711
vt 0.443757 0.70468426
vt 0.443757 0.6317711
vt 0.31078932 0.70468426
vt 0.443757 0.7425991
vt 0.31078932 0.7425991
vt 0.12014766 0.66059226
vt 0.15351246 0.6373091
vt 0.06447369 0.6373091
vt 0.15351246 0.743162
vt 0.07208276 0.6769785
vt 0.04879956 0.6372887
vt 0.04879956 0.74320674
vt 0.15465248 0.6372887
vt 0.435021 0.7779745
vt 0.31320915 0.75081515
vt 0.435021 0.75081515
vt 0.31320918 0.7779745
vt 0.4631175 0.7779745
vt 0.4631175 0.75081515
vt 0.4903409 0.7779745
vt 0.49796513 0.75081515
vt 0.51714784 0.7779745
vt 0.51714784 0.75081515
vt 0.5438347 0.7779745
vt 0.5533072 0.75081515
vt 0.5706416 0.7779745
vt 0.5704105 0.75081515
vt 0.597865 0.7779745
vt 0.5978649 0.75081515
vt 0.62596136 0.7779745
vt 0.6259613 0.75081515
vt 0.74882483 0.7779745
vt 0.74882483 0.75081515
vt 0.435021 0.7813694
vt 0.31320918 0.7779745
vt 0.435021 0.7779745
vt 0.31320918 0.7813694
vt 0.4631175 0.7813694
vt 0.4631175 0.7779745
vt 0.4903409 0.7813694
vt 0.4903409 0.7779745
vt 0.51714784 0.7813694
vt 0.51714784 0.7779745
vt 0.5438347 0.7813694
vt 0.5438347 0.7779745
vt 0.5706416 0.7813694
vt 0.5706416 0.7779745
vt 0.597865 0.7813694
vt 0.597865 0.7779745
vt 0.62596136 0.7813694
vt 0.62596136 0.7779745
vt 0.74882483 0.7813694
vt 0.74882483 0.7779745
vt 0.31320918 0.80852866
vt 0.43502104 0.81192356
vt 0.31320918 0.81192356
vt 0.43502104 0.80852866
vt 0.4631175 0.81192356
vt 0.4631175 0.80852866
vt 0.49034098 0.81192356
vt 0.49034095 0.80852866
vt 0.51714784 0.81192356
vt 0.51714784 0.80852866
vt 0.5438347 0.81192356
vt 0.5438347 0.81192356
vt 0.51714784 0.80852866
vt 0.5438347 0.80852866
vt 0.5706416 0.81192356
vt 0.5706416 0.80852866
vt 0.597865 0.81192356
vt 0.597865 0.80852866
vt 0.62596136 0.81192356
vt 0.62596136 0.80852866
vt 0.74882483 0.81192356
vt 0.74882483 0.80852866
vt 0.31266415 0.7777348
vt 0.06282746 0.7509674
vt 0.31266415 0.7509674
vt 0.06282749 0.7777348
vt 0.43758246 0.7777348
vt 0.43758243 0.7509674
vt 0.687419 0.7777348
vt 0.6874189 0.7509674
vt 0.93725544 0.7777348
vt 0.93725544 0.7509674
vt 0.31266415 0.7810808
vt 0.06282749 0.7777348
vt 0.31266415 0.7777348
vt 0.0628275 0.7810808
vt 0.43758246 0.7810808
vt 0.43758246 0.7777348
vt 0.687419 0.7810807
vt 0.687419 0.7777348
vt 0.93725544 0.7810807
vt 0.93725544 0.7777348
vt 0.06282753 0.8078482
vt 0.3126642 0.8111941
vt 0.06282753 0.8111941
vt 0.31266418 0.8078482
vt 0.43758255 0.8111941
vt 0.4375825 0.8078482
vt 0.687419 0.8111941
vt 0.687419 0.8078482
vt 0.93725544 0.8111941
vt 0.93725544 0.8078482
vt 0.435021 0.7779745
vt 0.31320915 0.75081515
vt 0.435021 0.75081515
vt 0.31320918 0.7779745
vt 0.4631175 0.7779745
vt 0.4631175 0.75081515
vt 0.4903409 0.7779745
vt 0.49796513 0.75081515
vt 0.51714784 0.7779745
vt 0.51714784 0.75081515
vt 0.5438347 0.7779745
vt 0.5533072 0.75081515
vt 0.5706416 0.7779745
vt 0.5704105 0.75081515
vt 0.597865 0.7779745
vt 0.5978649 0.75081515
vt 0.62596136 0.7779745
vt 0.6259613 0.75081515
vt 0.74882483 0.7779745
vt 0.74882483 0.75081515
vt 0.435021 0.7813694
vt 0.31320918 0.7779745
vt 0.435021 0.7779745
vt 0.31320918 0.7813694
vt 0.4631175 0.7813694
vt 0.4631175 0.7779745
vt 0.4903409 0.7813694
vt 0.4903409 0.7779745
vt 0.51714784 0.7813694
vt 0.51714784 0.7779745
vt 0.5438347 0.7813694
vt 0.5438347 0.7779745
vt 0.5706416 0.7813694
vt 0.5706416 0.7779745
vt 0.597865 0.7813694
vt 0.597865 0.7779745
vt 0.62596136 0.7813694
vt 0.62596136 0.7779745
vt 0.74882483 0.7813694
vt 0.74882483 0.7779745
vt 0.31320918 0.80852866
vt 0.43502104 0.81192356
vt 0.31320918 0.81192356
vt 0.43502104 0.80852866
vt 0.4631175 0.81192356
vt 0.4631175 0.80852866
vt 0.49034098 0.81192356
vt 0.49034095 0.80852866
vt 0.51714784 0.81192356
vt 0.51714784 0.80852866
vt 0.5438347 0.81192356
vt 0.5438347 0.81192356
vt 0.51714784 0.80852866
vt 0.5438347 0.80852866
vt 0.5706416 0.81192356
vt 0.5706416 0.80852866
vt 0.597865 0.81192356
vt 0.597865 0.80852866
vt 0.62596136 0.81192356
vt 0.62596136 0.80852866
vt 0.74882483 0.81192356
vt 0.74882483 0.80852866

g Three_Lane_04
s 1
usemtl Three_Lane_04
f 3/3/3 2/2/2 1/1/1 
f 4/4/4 1/1/1 2/2/2 
f 1/1/1 4/4/4 5/5/5 
f 6/6/6 5/5/5 4/4/4 
f 9/9/9 8/8/8 7/7/7 
f 10/10/10 7/7/7 8/8/8 
f 7/7/7 10/10/10 11/11/11 
f 12/12/12 11/11/11 10/10/10 
f 15/15/15 14/14/14 13/13/13 
f 16/16/16 13/13/13 14/14/14 
f 14/14/14 17/17/17 16/16/16 
f 18/18/18 16/16/16 17/17/17 
f 21/21/21 20/20/20 19/19/19 
f 22/22/22 19/19/19 20/20/20 
f 25/25/25 24/24/24 23/23/23 
f 26/26/26 23/23/23 24/24/24 
f 29/29/29 28/28/28 27/27/27 
f 30/30/30 27/27/27 28/28/28 
f 33/33/33 32/32/32 31/31/31 
f 34/34/34 31/31/31 32/32/32 
f 37/37/37 36/36/36 35/35/35 
f 38/38/38 35/35/35 36/36/36 
f 35/35/35 39/39/39 37/37/37 
f 40/40/40 37/37/37 39/39/39 
f 43/43/43 42/42/42 41/41/41 
f 44/44/44 41/41/41 42/42/42 
f 41/41/41 45/45/45 43/43/43 
f 46/46/46 43/43/43 45/45/45 
f 49/49/49 48/48/48 47/47/47 
f 50/50/50 47/47/47 48/48/48 
f 48/48/48 51/51/51 50/50/50 
f 52/52/52 50/50/50 51/51/51 
f 55/55/55 54/54/54 53/53/53 
f 56/56/56 53/53/53 54/54/54 
f 59/59/59 58/58/58 57/57/57 
f 60/60/60 57/57/57 58/58/58 
f 63/63/63 62/62/62 61/61/61 
f 64/64/64 61/61/61 62/62/62 
f 61/61/61 65/65/65 63/63/63 
f 66/66/66 63/63/63 65/65/65 
f 65/65/65 67/67/67 66/66/66 
f 68/68/68 66/66/66 67/67/67 
f 67/67/67 69/69/69 68/68/68 
f 70/70/70 68/68/68 69/69/69 
f 69/69/69 71/71/71 70/70/70 
f 72/72/72 70/70/70 71/71/71 
f 71/71/71 73/73/73 72/72/72 
f 74/74/74 72/72/72 73/73/73 
f 73/73/73 75/75/75 74/74/74 
f 76/76/76 74/74/74 75/75/75 
f 75/75/75 77/77/77 76/76/76 
f 78/78/78 76/76/76 77/77/77 
f 77/77/77 79/79/79 78/78/78 
f 80/80/80 78/78/78 79/79/79 
f 83/83/83 82/82/82 81/81/81 
f 84/84/84 81/81/81 82/82/82 
f 81/81/81 85/85/85 83/83/83 
f 86/86/86 83/83/83 85/85/85 
f 85/85/85 87/87/87 86/86/86 
f 88/88/88 86/86/86 87/87/87 
f 87/87/87 89/89/89 88/88/88 
f 90/90/90 88/88/88 89/89/89 
f 89/89/89 91/91/91 90/90/90 
f 92/92/92 90/90/90 91/91/91 
f 91/91/91 93/93/93 92/92/92 
f 94/94/94 92/92/92 93/93/93 
f 93/93/93 95/95/95 94/94/94 
f 96/96/96 94/94/94 95/95/95 
f 95/95/95 97/97/97 96/96/96 
f 98/98/98 96/96/96 97/97/97 
f 97/97/97 99/99/99 98/98/98 
f 100/100/100 98/98/98 99/99/99 
f 103/103/103 102/102/102 101/101/101 
f 104/104/104 101/101/101 102/102/102 
f 102/102/102 105/105/105 104/104/104 
f 106/106/106 104/104/104 105/105/105 
f 105/105/105 107/107/107 106/106/106 
f 108/108/108 106/106/106 107/107/107 
f 107/107/107 109/109/109 108/108/108 
f 110/110/110 108/108/108 109/109/109 
f 109/109/109 111/111/111 110/110/110 
f 114/114/114 113/113/113 112/112/112 
f 112/112/112 115/115/115 114/114/114 
f 116/116/116 114/114/114 115/115/115 
f 115/115/115 117/117/117 116/116/116 
f 118/118/118 116/116/116 117/117/117 
f 117/117/117 119/119/119 118/118/118 
f 120/120/120 118/118/118 119/119/119 
f 119/119/119 121/121/121 120/120/120 
f 122/122/122 120/120/120 121/121/121 
f 125/125/125 124/124/124 123/123/123 
f 126/126/126 123/123/123 124/124/124 
f 123/123/123 127/127/127 125/125/125 
f 128/128/128 125/125/125 127/127/127 
f 127/127/127 129/129/129 128/128/128 
f 130/130/130 128/128/128 129/129/129 
f 129/129/129 131/131/131 130/130/130 
f 132/132/132 130/130/130 131/131/131 
f 135/135/135 134/134/134 133/133/133 
f 136/136/136 133/133/133 134/134/134 
f 133/133/133 137/137/137 135/135/135 
f 138/138/138 135/135/135 137/137/137 
f 137/137/137 139/139/139 138/138/138 
f 140/140/140 138/138/138 139/139/139 
f 139/139/139 141/141/141 140/140/140 
f 142/142/142 140/140/140 141/141/141 
f 145/145/145 144/144/144 143/143/143 
f 146/146/146 143/143/143 144/144/144 
f 144/144/144 147/147/147 146/146/146 
f 148/148/148 146/146/146 147/147/147 
f 147/147/147 149/149/149 148/148/148 
f 150/150/150 148/148/148 149/149/149 
f 149/149/149 151/151/151 150/150/150 
f 152/152/152 150/150/150 151/151/151 
f 155/155/155 154/154/154 153/153/153 
f 156/156/156 153/153/153 154/154/154 
f 153/153/153 157/157/157 155/155/155 
f 158/158/158 155/155/155 157/157/157 
f 157/157/157 159/159/159 158/158/158 
f 160/160/160 158/158/158 159/159/159 
f 159/159/159 161/161/161 160/160/160 
f 162/162/162 160/160/160 161/161/161 
f 161/161/161 163/163/163 162/162/162 
f 164/164/164 162/162/162 163/163/163 
f 163/163/163 165/165/165 164/164/164 
f 166/166/166 164/164/164 165/165/165 
f 165/165/165 167/167/167 166/166/166 
f 168/168/168 166/166/166 167/167/167 
f 167/167/167 169/169/169 168/168/168 
f 170/170/170 168/168/168 169/169/169 
f 169/169/169 171/171/171 170/170/170 
f 172/172/172 170/170/170 171/171/171 
f 175/175/175 174/174/174 173/173/173 
f 176/176/176 173/173/173 174/174/174 
f 173/173/173 177/177/177 175/175/175 
f 178/178/178 175/175/175 177/177/177 
f 177/177/177 179/179/179 178/178/178 
f 180/180/180 178/178/178 179/179/179 
f 179/179/179 181/181/181 180/180/180 
f 182/182/182 180/180/180 181/181/181 
f 181/181/181 183/183/183 182/182/182 
f 184/184/184 182/182/182 183/183/183 
f 183/183/183 185/185/185 184/184/184 
f 186/186/186 184/184/184 185/185/185 
f 185/185/185 187/187/187 186/186/186 
f 188/188/188 186/186/186 187/187/187 
f 187/187/187 189/189/189 188/188/188 
f 190/190/190 188/188/188 189/189/189 
f 189/189/189 191/191/191 190/190/190 
f 192/192/192 190/190/190 191/191/191 
f 195/195/195 194/194/194 193/193/193 
f 196/196/196 193/193/193 194/194/194 
f 194/194/194 197/197/197 196/196/196 
f 198/198/198 196/196/196 197/197/197 
f 197/197/197 199/199/199 198/198/198 
f 200/200/200 198/198/198 199/199/199 
f 199/199/199 201/201/201 200/200/200 
f 202/202/202 200/200/200 201/201/201 
f 201/201/201 203/203/203 202/202/202 
f 206/206/206 205/205/205 204/204/204 
f 204/204/204 207/207/207 206/206/206 
f 208/208/208 206/206/206 207/207/207 
f 207/207/207 209/209/209 208/208/208 
f 210/210/210 208/208/208 209/209/209 
f 209/209/209 211/211/211 210/210/210 
f 212/212/212 210/210/210 211/211/211 
f 211/211/211 213/213/213 212/212/212 
f 214/214/214 212/212/212 213/213/213 

