# Created by DisUnity v0.3.4
v 4.2495003 0.24982308 -24.953964
v 1.7912979 0.24982305 -20.353844
v 4.021984 0.24982306 -25.072704
v 2.0286407 0.24982306 -20.258175
v 0.033823967 0.24982305 -15.439152
v 0.27867222 0.24982306 -15.367335
v 6.9198647 0.24982311 -29.409492
v 6.704422 0.24982308 -29.550295
v 10.014027 0.24982314 -33.581863
v 9.812794 0.24982312 -33.7435
v -1.2335272 0.24982306 -10.375949
v -0.9835577 0.24982306 -10.328532
v -1.9985676 0.24982306 -5.2129817
v -1.7458954 0.24982306 -5.190276
v 13.502193 0.24982318 -37.430912
v 13.31719 0.24982318 -37.61195
v -2.2539463 0.24982306 4.0769577E-5
v -2.0010014 0.24982308 -0.0020382404
v -2.808836 0.24982288 -28.718147
v -8.835652 0.24982285 -24.75171
v -6.1222677 0.24982283 -30.490444
v -5.36454 0.24982291 -23.312529
v -10.973582 0.2498229 -18.774693
v -7.3781805 0.24982293 -17.68247
v -1.907095 0.24982297 -21.883234
v -3.7972994 0.24982299 -16.59891
v 0.26432705 0.24982288 -33.847282
v 3.3765364 0.24982299 -31.770996
v 0.49188137 0.24982297 -26.956877
v -2.8595505 0.24982281 -35.935642
v 3.8253622 0.24982288 -38.65055
v 0.9210892 0.24982281 -41.034885
v -12.515476 0.24982294 -12.616927
v -8.830371 0.24982296 -11.882172
v -13.446489 0.249823 -6.337699
v -9.70713 0.249823 -5.967478
v -5.160533 0.249823 -11.1547785
v -5.9836707 0.24982303 -5.6032553
v 6.719097 0.249823 -36.27924
v 10.487379 0.24982303 -40.4382
v 7.839983 0.24982291 -43.081707
v 5.1832542 0.24982281 -45.739082
v -13.75766 0.24982306 0.0025441647
v -10.000019 0.24982305 0.0046691895
v -6.2587886 0.24982306 0.0022132397
v -6.1222677 0.24982283 -30.490444
v -9.064511 0.24982284 -24.846481
v -6.340739 0.2498228 -30.607183
v -8.835652 0.24982285 -24.75171
v -11.210628 0.24982288 -18.846577
v -10.973582 0.2498229 -18.774693
v -2.8595505 0.24982281 -35.935642
v -3.0655293 0.24982278 -36.07323
v 0.9210892 0.24982281 -41.034885
v 0.7295847 0.24982277 -41.191998
v -12.758425 0.24982293 -12.665235
v -12.515476 0.24982294 -12.616927
v -13.693003 0.24982299 -6.361963
v -13.446489 0.249823 -6.337699
v 5.1832542 0.24982281 -45.739082
v 5.008068 0.24982278 -45.914204
v -14.005364 0.24982305 0.0025558472
v -13.75766 0.24982306 0.0025441647
v 6.0128517 0.24982312 -24.008799
v 2.0286407 0.24982306 -20.258175
v 4.2495003 0.24982308 -24.953964
v 3.8762188 0.24982311 -19.490425
v 0.27867222 0.24982306 -15.367335
v 2.1926785 0.2498231 -14.7844095
v 8.582003 0.24982315 -28.296028
v 6.9198647 0.24982311 -29.409492
v 11.558941 0.2498232 -32.31084
v 10.014027 0.24982314 -33.581863
v -0.9835577 0.24982306 -10.328532
v 0.9784384 0.24982308 -9.936058
v -1.7458954 0.24982306 -5.190276
v 0.24518776 0.24982308 -4.9920497
v 14.915007 0.24982324 -36.014584
v 13.502193 0.24982318 -37.430912
v -2.0010014 0.24982308 -0.0020382404
v -1.5258789E-5 0.24982308 2.002716E-5
v 4.021984 0.24982306 -25.072704
v -1.907095 0.24982297 -21.883234
v 0.49188137 0.24982297 -26.956877
v 1.7912979 0.24982305 -20.353844
v -3.7972994 0.24982299 -16.59891
v 0.033823967 0.24982305 -15.439152
v 6.704422 0.24982308 -29.550295
v 3.3765364 0.24982299 -31.770996
v 9.812794 0.24982312 -33.7435
v 6.719097 0.249823 -36.27924
v -5.160533 0.249823 -11.1547785
v -1.2335272 0.24982306 -10.375949
v -5.9836707 0.24982303 -5.6032553
v -1.9985676 0.24982306 -5.2129817
v 13.31719 0.24982318 -37.61195
v 10.487379 0.24982303 -40.4382
v -6.2587886 0.24982306 0.0022132397
v -2.2539463 0.24982306 4.0769577E-5
v -8.100805 0.24982277 -31.545721
v -10.908143 1.1920929E-6 -25.607868
v -8.100805 9.983778E-7 -31.545721
v -10.908143 0.24982281 -25.607868
v -13.120046 0.24982285 -19.423475
v -9.064511 0.24982284 -24.846481
v -11.210628 0.24982288 -18.846577
v -10.908143 0.24982281 -25.607868
v -14.715217 0.24982293 -13.05208
v -12.758425 0.24982293 -12.665235
v -15.678301 0.24982299 -6.5550265
v -13.693003 0.24982299 -6.361963
v -16.000027 0.24982305 0.0051357746
v -14.005364 0.24982305 0.0025558472
v -6.340739 0.2498228 -30.607183
v -8.100805 0.24982277 -31.545721
v -3.0655293 0.24982278 -36.07323
v -4.725062 0.24982274 -37.179867
v 0.7295847 0.24982277 -41.191998
v -0.81340885 0.24982272 -42.456062
v 5.008068 0.24982278 -45.914204
v 3.59649 0.24982274 -47.32351
v -13.120046 1.3560057E-6 -19.423475
v -10.908143 0.24982281 -25.607868
v -13.120046 0.24982285 -19.423475
v -10.908143 1.1920929E-6 -25.607868
v 2.1926785 0.2498231 -14.7844095
v 3.8762188 1.5497208E-6 -19.490425
v 2.1926785 1.6540289E-6 -14.7844095
v 3.8762188 0.24982311 -19.490425
v 11.558941 0.2498232 -32.31084
v 14.915007 1.1771917E-6 -36.014584
v 11.558941 1.2516975E-6 -32.31084
v 14.915007 0.24982324 -36.014584
v -0.81340885 0.24982272 -42.456062
v -4.725062 8.493662E-7 -37.179867
v -0.81340885 7.1525574E-7 -42.456062
v -4.725062 0.24982274 -37.179867
v -15.678301 1.758337E-6 -6.5550265
v -14.715217 0.24982293 -13.05208
v -15.678301 0.24982299 -6.5550265
v -14.715217 1.5497208E-6 -13.05208
v 0.24518776 0.24982308 -4.9920497
v 0.9784384 1.7732382E-6 -9.936058
v 0.24518776 1.9073486E-6 -4.9920497
v 0.9784384 0.24982308 -9.936058
v 6.0128517 0.24982312 -24.008799
v 8.582003 1.3411045E-6 -28.296028
v 6.0128517 1.4454126E-6 -24.008799
v 8.582003 0.24982315 -28.296028
v -4.725062 0.24982274 -37.179867
v -8.100805 9.983778E-7 -31.545721
v -4.725062 8.493662E-7 -37.179867
v -8.100805 0.24982277 -31.545721
v -14.715217 1.5497208E-6 -13.05208
v -13.120046 0.24982285 -19.423475
v -14.715217 0.24982293 -13.05208
v -13.120046 1.3560057E-6 -19.423475
v 0.9784384 0.24982308 -9.936058
v 2.1926785 1.6540289E-6 -14.7844095
v 0.9784384 1.7732382E-6 -9.936058
v 2.1926785 0.2498231 -14.7844095
v 8.582003 0.24982315 -28.296028
v 11.558941 1.2516975E-6 -32.31084
v 8.582003 1.3411045E-6 -28.296028
v 11.558941 0.2498232 -32.31084
v 3.59649 0.24982274 -47.32351
v -0.81340885 7.1525574E-7 -42.456062
v 3.59649 5.811453E-7 -47.32351
v -0.81340885 0.24982272 -42.456062
v -16.000027 1.937151E-6 0.0051357746
v -15.678301 0.24982299 -6.5550265
v -16.000027 0.24982305 0.0051357746
v -15.678301 1.758337E-6 -6.5550265
v -1.5258789E-5 0.24982308 2.002716E-5
v 0.24518776 1.9073486E-6 -4.9920497
v -1.5258789E-5 2.026558E-6 2.002716E-5
v 0.24518776 0.24982308 -4.9920497
v 3.8762188 0.24982311 -19.490425
v 6.0128517 1.4454126E-6 -24.008799
v 3.8762188 1.5497208E-6 -19.490425
v 6.0128517 0.24982312 -24.008799
vn -0.0 1.0 0.0
vn -0.0 1.0 0.0
vn -0.0 1.0 0.0
vn -0.0 1.0 0.0
vn -0.0 1.0 0.0
vn -0.0 1.0 0.0
vn -0.0 1.0 0.0
vn -0.0 1.0 0.0
vn -0.0 1.0 0.0
vn -0.0 1.0 0.0
vn -0.0 1.0 0.0
vn -0.0 1.0 0.0
vn -0.0 1.0 0.0
vn -0.0 1.0 0.0
vn -0.0 1.0 0.0
vn -0.0 1.0 0.0
vn -0.0 1.0 0.0
vn -0.0 1.0 0.0
vn -0.0 1.0 0.0
vn -0.0 1.0 0.0
vn -0.0 1.0 0.0
vn -0.0 1.0 0.0
vn -0.0 1.0 0.0
vn -0.0 1.0 0.0
vn -0.0 1.0 0.0
vn -0.0 1.0 0.0
vn -0.0 1.0 0.0
vn -0.0 1.0 0.0
vn -0.0 1.0 0.0
vn -0.0 1.0 0.0
vn -0.0 1.0 0.0
vn -0.0 1.0 0.0
vn -0.0 1.0 0.0
vn -0.0 1.0 0.0
vn -0.0 1.0 0.0
vn -0.0 1.0 0.0
vn -0.0 1.0 0.0
vn -0.0 1.0 0.0
vn -0.0 1.0 0.0
vn -0.0 1.0 0.0
vn -0.0 1.0 0.0
vn -0.0 1.0 0.0
vn -0.0 1.0 0.0
vn -0.0 1.0 0.0
vn -0.0 1.0 0.0
vn -0.0 1.0 0.0
vn -0.0 1.0 0.0
vn -0.0 1.0 0.0
vn -0.0 1.0 0.0
vn -0.0 1.0 0.0
vn -0.0 1.0 0.0
vn -0.0 1.0 0.0
vn -0.0 1.0 0.0
vn -0.0 1.0 0.0
vn -0.0 1.0 0.0
vn -0.0 1.0 0.0
vn -0.0 1.0 0.0
vn -0.0 1.0 0.0
vn -0.0 1.0 0.0
vn -0.0 1.0 0.0
vn -0.0 1.0 0.0
vn -0.0 1.0 0.0
vn -0.0 1.0 0.0
vn -0.0 1.0 0.0
vn -0.0 1.0 0.0
vn -0.0 1.0 0.0
vn -0.0 1.0 0.0
vn -0.0 1.0 0.0
vn -0.0 1.0 0.0
vn -0.0 1.0 0.0
vn -0.0 1.0 0.0
vn -0.0 1.0 0.0
vn -0.0 1.0 0.0
vn -0.0 1.0 0.0
vn -0.0 1.0 0.0
vn -0.0 1.0 0.0
vn -0.0 1.0 0.0
vn -0.0 1.0 0.0
vn -0.0 1.0 0.0
vn -0.0 1.0 0.0
vn -0.0 1.0 0.0
vn -0.0 1.0 0.0
vn -0.0 1.0 0.0
vn -0.0 1.0 0.0
vn -0.0 1.0 0.0
vn -0.0 1.0 0.0
vn -0.0 1.0 0.0
vn -0.0 1.0 0.0
vn -0.0 1.0 0.0
vn -0.0 1.0 0.0
vn -0.0 1.0 0.0
vn -0.0 1.0 0.0
vn -0.0 1.0 0.0
vn -0.0 1.0 0.0
vn -0.0 1.0 0.0
vn -0.0 1.0 0.0
vn -0.0 1.0 0.0
vn -0.0 1.0 0.0
vn -0.0 1.0 0.0
vn -0.9040515 0.0 -0.42742348
vn -0.9040515 0.0 -0.4274235
vn -0.9040515 0.0 -0.42742348
vn -0.9040515 0.0 -0.42742348
vn -0.0 1.0 0.0
vn -0.0 1.0 0.0
vn -0.0 1.0 0.0
vn -0.0 1.0 0.0
vn -0.0 1.0 0.0
vn -0.0 1.0 0.0
vn -0.0 1.0 0.0
vn -0.0 1.0 0.0
vn -0.0 1.0 0.0
vn -0.0 1.0 0.0
vn -0.0 1.0 0.0
vn -0.0 1.0 0.0
vn -0.0 1.0 0.0
vn -0.0 1.0 0.0
vn -0.0 1.0 0.0
vn -0.0 1.0 0.0
vn -0.0 1.0 0.0
vn -0.0 1.0 0.0
vn -0.9415879 0.0 -0.3367672
vn -0.9415879 0.0 -0.33676723
vn -0.9415879 0.0 -0.3367672
vn -0.9415879 0.0 -0.3367672
vn 0.941563 0.0 0.3368368
vn 0.941563 0.0 0.33683684
vn 0.941563 0.0 0.3368368
vn 0.9415631 0.0 0.3368368
vn 0.7410318 0.0 0.6714698
vn 0.74103194 0.0 0.67146987
vn 0.7410318 0.0 0.67146987
vn 0.74103194 0.0 0.67146987
vn -0.8033125 0.0 -0.59555787
vn -0.8033125 0.0 -0.59555787
vn -0.8033125 0.0 -0.59555787
vn -0.8033125 0.0 -0.59555787
vn -0.9891912 0.0 -0.14663175
vn -0.9891912 0.0 -0.14663176
vn -0.9891912 0.0 -0.14663176
vn -0.9891912 0.0 -0.14663176
vn 0.9891801 0.0 0.14670624
vn 0.9891801 0.0 0.14670625
vn 0.9891801 0.0 0.14670625
vn 0.9891801 0.0 0.14670625
vn 0.857774 0.0 0.5140269
vn 0.857774 0.0 0.5140269
vn 0.85777414 0.0 0.5140269
vn 0.85777414 0.0 0.5140269
vn -0.8578115 0.0 -0.5139646
vn -0.8578115 0.0 -0.5139646
vn -0.8578115 0.0 -0.5139646
vn -0.8578114 0.0 -0.51396453
vn -0.9700593 0.0 -0.2428684
vn -0.9700593 0.0 -0.2428684
vn -0.9700593 0.0 -0.2428684
vn -0.9700593 0.0 -0.2428684
vn 0.9700411 0.0 0.24294089
vn 0.9700411 0.0 0.24294089
vn 0.9700411 0.0 0.24294089
vn 0.9700411 0.0 0.24294089
vn 0.80326974 0.0 0.5956154
vn 0.80326974 0.0 0.5956154
vn 0.8032697 0.0 0.5956154
vn 0.8032697 0.0 0.5956155
vn -0.74107975 0.0 -0.671417
vn -0.74107975 0.0 -0.671417
vn -0.7410797 0.0 -0.671417
vn -0.74107975 0.0 -0.671417
vn -0.99879956 0.0 -0.04898348
vn -0.99879956 0.0 -0.04898348
vn -0.99879956 0.0 -0.04898349
vn -0.99879956 0.0 -0.048983492
vn 0.99879587 0.0 0.049059357
vn 0.99879587 0.0 0.04905936
vn 0.99879587 0.0 0.049059357
vn 0.99879587 0.0 0.049059365
vn 0.90402013 0.0 0.42748988
vn 0.90402013 0.0 0.42748988
vn 0.90402013 0.0 0.42748988
vn 0.90402013 0.0 0.42749
vt -1.0649517 0.31408685
vt -1.1144918 0.3113557
vt -1.064696 0.311356
vt -1.1147726 0.31408715
vt -1.1642876 0.31135547
vt -1.1645935 0.3140874
vt -1.0151308 0.31408656
vt -1.0149001 0.3113563
vt -0.9653098 0.31408632
vt -0.9651042 0.31135654
vt -1.2140834 0.31135523
vt -1.2144144 0.31408763
vt -1.2638793 0.31135494
vt -1.2642353 0.31408793
vt -0.91548884 0.31408608
vt -0.91530836 0.31135684
vt -1.3136752 0.3113547
vt -1.3140562 0.31408817
vt 0.014057469 0.061623454
vt -0.058661602 0.005697608
vt 0.014057469 0.0056492686
vt -0.058661602 0.061671793
vt -0.13138068 0.0057459474
vt -0.13138068 0.061720133
vt -0.058661602 0.117401004
vt -0.13138068 0.11744934
vt 0.08677653 0.061575055
vt 0.08677653 0.117304325
vt 0.014057469 0.117352664
vt 0.08677653 0.0056009293
vt 0.15949559 0.061526656
vt 0.15949559 0.0055526495
vt -0.20409974 0.0057942867
vt -0.20409974 0.06176853
vt -0.27681878 0.005842626
vt -0.27681878 0.06181693
vt -0.20409974 0.11749768
vt -0.27681878 0.11754608
vt 0.15949559 0.117255986
vt 0.23221466 0.11720765
vt 0.23221466 0.061478317
vt 0.23221466 0.00550431
vt -0.34953785 0.0058909655
vt -0.34953785 0.06186527
vt -0.34953785 0.11759442
vt -3.2399576 0.4393767
vt -3.4072075 0.43593693
vt -3.2399576 0.43593693
vt -3.4072075 0.4393767
vt -3.5744574 0.43593693
vt -3.5744574 0.4393767
vt -3.0727077 0.4393767
vt -3.0727077 0.43593693
vt -2.9054577 0.4393767
vt -2.9054577 0.43593693
vt -3.7417073 0.43593693
vt -3.7417073 0.4393767
vt -3.9089572 0.43593693
vt -3.9089572 0.4393767
vt -2.7382078 0.4393767
vt -2.7382078 0.43593693
vt -4.076207 0.43593693
vt -4.076207 0.4393767
vt -2.5859363 0.87448484
vt -2.4764848 0.9349587
vt -2.5863128 0.9349375
vt -2.4761405 0.8744982
vt -2.3666568 0.9349799
vt -2.3663447 0.8745116
vt -2.695732 0.8744714
vt -2.6961405 0.93491626
vt -2.805528 0.8744581
vt -2.8059683 0.93489504
vt -2.256829 0.9350012
vt -2.256549 0.87452495
vt -2.1470013 0.9350224
vt -2.1467528 0.8745383
vt -2.9153237 0.8744447
vt -2.9157963 0.9348738
vt -2.0371733 0.93504363
vt -2.036957 0.8745517
vt 0.012369875 0.119657636
vt -0.06030073 0.06000346
vt 0.012369823 0.060052156
vt -0.06030067 0.11961901
vt -0.13297126 0.059954762
vt -0.13297123 0.11958039
vt 0.08504041 0.11969632
vt 0.08504037 0.060100913
vt 0.15771097 0.119735
vt 0.15771091 0.06014961
vt -0.2056418 0.059906006
vt -0.20564178 0.119541705
vt -0.27831233 0.05985731
vt -0.2783123 0.11950302
vt 0.23038149 0.11977363
vt 0.23038146 0.060198307
vt -0.35098284 0.059808612
vt -0.35098284 0.1194644
vt 2.5944088 1.8936985
vt 2.7472987 1.9015267
vt 2.5944088 1.9015266
vt 2.7472987 1.8936985
vt 6.4927797 0.8757237
vt 6.644924 0.9377776
vt 6.493244 0.9377738
vt 6.644495 0.8757199
vt 6.341064 0.87572753
vt 6.3415647 0.93777007
vt 6.189348 0.87573135
vt 6.189885 0.9377664
vt 6.037633 0.8757351
vt 6.038205 0.9377626
vt 6.7966037 0.93778133
vt 6.7962103 0.87571615
vt 6.948283 0.9377851
vt 6.9479256 0.87571234
vt 7.099963 0.9377888
vt 7.099641 0.8757085
vt 7.2516427 0.93779254
vt 7.2513566 0.87570477
vt 2.9001887 1.9015267
vt 2.7472987 1.8936985
vt 2.9001887 1.8936985
vt 2.7472987 1.9015267
vt 2.1040127 1.8906565
vt 1.9511342 1.8828268
vt 2.1040127 1.8828268
vt 1.9511342 1.8906565
vt 1.4924986 1.8906565
vt 1.3396201 1.8828268
vt 1.4924986 1.8828268
vt 1.3396201 1.8906565
vt 2.2886288 1.8936985
vt 2.4415188 1.9015266
vt 2.2886288 1.9015266
vt 2.4415188 1.8936985
vt 3.2059686 1.9015267
vt 3.0530787 1.8936985
vt 3.2059686 1.8936985
vt 3.0530787 1.9015267
vt 2.4097698 1.8906565
vt 2.2568913 1.8828268
vt 2.4097698 1.8828268
vt 2.2568913 1.8906565
vt 1.7982557 1.8906565
vt 1.6453772 1.8828268
vt 1.7982557 1.8828268
vt 1.6453772 1.8906565
vt 2.4415188 1.8936985
vt 2.5944088 1.9015266
vt 2.4415188 1.9015266
vt 2.5944088 1.8936985
vt 3.0530787 1.9015267
vt 2.9001887 1.8936985
vt 3.0530787 1.8936985
vt 2.9001887 1.9015267
vt 2.2568913 1.8906565
vt 2.1040127 1.8828268
vt 2.2568913 1.8828268
vt 2.1040127 1.8906565
vt 1.6453772 1.8906565
vt 1.4924986 1.8828268
vt 1.6453772 1.8828268
vt 1.4924986 1.8906565
vt 2.1357388 1.8936985
vt 2.2886288 1.9015266
vt 2.1357388 1.9015266
vt 2.2886288 1.8936985
vt 3.3588586 1.9015267
vt 3.2059686 1.8936985
vt 3.3588586 1.8936985
vt 3.2059686 1.9015267
vt 2.5626483 1.8906565
vt 2.4097698 1.8828268
vt 2.5626483 1.8828268
vt 2.4097698 1.8906565
vt 1.9511342 1.8906565
vt 1.7982557 1.8828268
vt 1.9511342 1.8828268
vt 1.7982557 1.8906565

g Three_Lane_45Degree_R_40m
s 1
usemtl Three_Lane_45Degree_R_40m
f 3/3/3 2/2/2 1/1/1 
f 4/4/4 1/1/1 2/2/2 
f 2/2/2 5/5/5 4/4/4 
f 6/6/6 4/4/4 5/5/5 
f 1/1/1 7/7/7 3/3/3 
f 8/8/8 3/3/3 7/7/7 
f 7/7/7 9/9/9 8/8/8 
f 10/10/10 8/8/8 9/9/9 
f 5/5/5 11/11/11 6/6/6 
f 12/12/12 6/6/6 11/11/11 
f 11/11/11 13/13/13 12/12/12 
f 14/14/14 12/12/12 13/13/13 
f 9/9/9 15/15/15 10/10/10 
f 16/16/16 10/10/10 15/15/15 
f 13/13/13 17/17/17 14/14/14 
f 18/18/18 14/14/14 17/17/17 
f 21/21/21 20/20/20 19/19/19 
f 22/22/22 19/19/19 20/20/20 
f 20/20/20 23/23/23 22/22/22 
f 24/24/24 22/22/22 23/23/23 
f 22/22/22 24/24/24 25/25/25 
f 26/26/26 25/25/25 24/24/24 
f 19/19/19 27/27/27 21/21/21 
f 27/27/27 19/19/19 28/28/28 
f 29/29/29 28/28/28 19/19/19 
f 25/25/25 29/29/29 22/22/22 
f 19/19/19 22/22/22 29/29/29 
f 30/30/30 21/21/21 27/27/27 
f 27/27/27 31/31/31 30/30/30 
f 32/32/32 30/30/30 31/31/31 
f 23/23/23 33/33/33 24/24/24 
f 34/34/34 24/24/24 33/33/33 
f 24/24/24 34/34/34 26/26/26 
f 33/33/33 35/35/35 34/34/34 
f 36/36/36 34/34/34 35/35/35 
f 34/34/34 36/36/36 37/37/37 
f 37/37/37 26/26/26 34/34/34 
f 38/38/38 37/37/37 36/36/36 
f 28/28/28 39/39/39 27/27/27 
f 31/31/31 27/27/27 39/39/39 
f 39/39/39 40/40/40 31/31/31 
f 41/41/41 31/31/31 40/40/40 
f 31/31/31 41/41/41 32/32/32 
f 42/42/42 32/32/32 41/41/41 
f 35/35/35 43/43/43 36/36/36 
f 44/44/44 36/36/36 43/43/43 
f 36/36/36 44/44/44 38/38/38 
f 45/45/45 38/38/38 44/44/44 
f 48/48/48 47/47/47 46/46/46 
f 49/49/49 46/46/46 47/47/47 
f 47/47/47 50/50/50 49/49/49 
f 51/51/51 49/49/49 50/50/50 
f 46/46/46 52/52/52 48/48/48 
f 53/53/53 48/48/48 52/52/52 
f 52/52/52 54/54/54 53/53/53 
f 55/55/55 53/53/53 54/54/54 
f 50/50/50 56/56/56 51/51/51 
f 57/57/57 51/51/51 56/56/56 
f 56/56/56 58/58/58 57/57/57 
f 59/59/59 57/57/57 58/58/58 
f 54/54/54 60/60/60 55/55/55 
f 61/61/61 55/55/55 60/60/60 
f 58/58/58 62/62/62 59/59/59 
f 63/63/63 59/59/59 62/62/62 
f 66/66/66 65/65/65 64/64/64 
f 67/67/67 64/64/64 65/65/65 
f 65/65/65 68/68/68 67/67/67 
f 69/69/69 67/67/67 68/68/68 
f 64/64/64 70/70/70 66/66/66 
f 71/71/71 66/66/66 70/70/70 
f 70/70/70 72/72/72 71/71/71 
f 73/73/73 71/71/71 72/72/72 
f 68/68/68 74/74/74 69/69/69 
f 75/75/75 69/69/69 74/74/74 
f 74/74/74 76/76/76 75/75/75 
f 77/77/77 75/75/75 76/76/76 
f 72/72/72 78/78/78 73/73/73 
f 79/79/79 73/73/73 78/78/78 
f 76/76/76 80/80/80 77/77/77 
f 81/81/81 77/77/77 80/80/80 
f 84/84/84 83/83/83 82/82/82 
f 85/85/85 82/82/82 83/83/83 
f 83/83/83 86/86/86 85/85/85 
f 87/87/87 85/85/85 86/86/86 
f 82/82/82 88/88/88 84/84/84 
f 89/89/89 84/84/84 88/88/88 
f 88/88/88 90/90/90 89/89/89 
f 91/91/91 89/89/89 90/90/90 
f 86/86/86 92/92/92 87/87/87 
f 93/93/93 87/87/87 92/92/92 
f 92/92/92 94/94/94 93/93/93 
f 95/95/95 93/93/93 94/94/94 
f 90/90/90 96/96/96 91/91/91 
f 97/97/97 91/91/91 96/96/96 
f 94/94/94 98/98/98 95/95/95 
f 99/99/99 95/95/95 98/98/98 
f 102/102/102 101/101/101 100/100/100 
f 103/103/103 100/100/100 101/101/101 
f 106/106/106 105/105/105 104/104/104 
f 107/107/107 104/104/104 105/105/105 
f 104/104/104 108/108/108 106/106/106 
f 109/109/109 106/106/106 108/108/108 
f 108/108/108 110/110/110 109/109/109 
f 111/111/111 109/109/109 110/110/110 
f 110/110/110 112/112/112 111/111/111 
f 113/113/113 111/111/111 112/112/112 
f 105/105/105 114/114/114 107/107/107 
f 115/115/115 107/107/107 114/114/114 
f 114/114/114 116/116/116 115/115/115 
f 117/117/117 115/115/115 116/116/116 
f 116/116/116 118/118/118 117/117/117 
f 119/119/119 117/117/117 118/118/118 
f 118/118/118 120/120/120 119/119/119 
f 121/121/121 119/119/119 120/120/120 
f 124/124/124 123/123/123 122/122/122 
f 125/125/125 122/122/122 123/123/123 
f 128/128/128 127/127/127 126/126/126 
f 129/129/129 126/126/126 127/127/127 
f 132/132/132 131/131/131 130/130/130 
f 133/133/133 130/130/130 131/131/131 
f 136/136/136 135/135/135 134/134/134 
f 137/137/137 134/134/134 135/135/135 
f 140/140/140 139/139/139 138/138/138 
f 141/141/141 138/138/138 139/139/139 
f 144/144/144 143/143/143 142/142/142 
f 145/145/145 142/142/142 143/143/143 
f 148/148/148 147/147/147 146/146/146 
f 149/149/149 146/146/146 147/147/147 
f 152/152/152 151/151/151 150/150/150 
f 153/153/153 150/150/150 151/151/151 
f 156/156/156 155/155/155 154/154/154 
f 157/157/157 154/154/154 155/155/155 
f 160/160/160 159/159/159 158/158/158 
f 161/161/161 158/158/158 159/159/159 
f 164/164/164 163/163/163 162/162/162 
f 165/165/165 162/162/162 163/163/163 
f 168/168/168 167/167/167 166/166/166 
f 169/169/169 166/166/166 167/167/167 
f 172/172/172 171/171/171 170/170/170 
f 173/173/173 170/170/170 171/171/171 
f 176/176/176 175/175/175 174/174/174 
f 177/177/177 174/174/174 175/175/175 
f 180/180/180 179/179/179 178/178/178 
f 181/181/181 178/178/178 179/179/179 

