# Created by DisUnity v0.3.4
v -6.9525642 0.24974456 -6.0149803
v -16.18946 0.24974489 -6.7388763
v -9.717335 0.24974468 -11.441147
v -14.561003 0.24974468 -3.5428429
v -3.1483269 0.24974452 -7.2510605
v -9.717335 0.24974468 -11.441147
v -6.4812584 0.2497446 -13.792305
v -6.9525642 0.24974456 -6.0149803
v -6.48127 0.48556095 -13.792309
v -1.2462273 0.48556083 -7.8691063
v -3.1483345 0.48556086 -7.251068
v -4.863243 0.4855609 -14.96788
v -6.4812584 0.2497446 -13.792305
v -3.1483345 0.48556086 -7.251068
v -3.1483269 0.24974452 -7.2510605
v -6.48127 0.48556095 -13.792309
v -4.863243 0.4855609 -14.96788
v -1.2462273 -5.90086E-5 -7.8691063
v -1.2462273 0.48556083 -7.8691063
v -4.863243 -5.8948994E-5 -14.96788
v -17.807499 0.4855613 -5.5633087
v -14.561012 0.48556104 -3.5428467
v -16.46312 0.48556107 -2.9248123
v -16.189472 0.48556125 -6.7388763
v -17.807499 -5.853176E-5 -5.5633087
v -16.46312 0.48556107 -2.9248123
v -16.46312 -5.877018E-5 -2.9248123
v -17.807499 0.4855613 -5.5633087
v -16.189472 0.48556125 -6.7388763
v -14.561003 0.24974468 -3.5428429
v -14.561012 0.48556104 -3.5428467
v -16.18946 0.24974489 -6.7388763
v -5.9998856 0.24974447 -7.6293945E-6
v -14.561003 0.24974468 -3.5428429
v -6.9525642 0.24974456 -6.0149803
v -13.999859 0.24974447 1.5292439E-17
v -1.9998627 0.24974447 -1.1444092E-5
v -6.9525642 0.24974456 -6.0149803
v -3.1483269 0.24974452 -7.2510605
v -5.9998856 0.24974447 -7.6293945E-6
v -3.1483345 0.48556086 -7.251068
v 1.2207031E-4 0.48556083 -3.0517578E-5
v -1.9998741 0.48556083 -2.670288E-5
v -1.2462273 0.48556083 -7.8691063
v -3.1483269 0.24974452 -7.2510605
v -1.9998741 0.48556083 -2.670288E-5
v -1.9998741 0.24974449 -2.670288E-5
v -3.1483345 0.48556086 -7.251068
v -1.2462273 0.48556083 -7.8691063
v 1.2207031E-4 -5.90086E-5 -3.0517578E-5
v 1.2207031E-4 0.48556083 -3.0517578E-5
v -1.2462273 -5.90086E-5 -7.8691063
v -16.46312 0.48556107 -2.9248123
v -13.999872 0.48556083 -1.1444092E-5
v -15.9998665 0.48556083 -1.1444092E-5
v -14.561012 0.48556104 -3.5428467
v -16.46312 -5.877018E-5 -2.9248123
v -15.9998665 0.48556083 -1.1444092E-5
v -15.9998665 -5.90086E-5 -1.1444092E-5
v -16.46312 0.48556107 -2.9248123
v -14.561012 0.48556104 -3.5428467
v -13.999872 0.24974449 -1.1444092E-5
v -13.999872 0.48556083 -1.1444092E-5
v -14.561003 0.24974468 -3.5428429
v -14.023567 0.24974485 -15.747379
v -21.92572 0.2497454 -11.167397
v -19.453577 0.24974507 -18.77583
v -18.725845 0.24974513 -9.275265
v -11.6724205 0.2497447 -18.983467
v -19.453577 0.24974507 -18.77583
v -18.217505 0.2497449 -22.580078
v -14.023567 0.24974485 -15.747379
v -18.217516 0.48556125 -22.58007
v -10.496868 0.485561 -20.601501
v -11.672432 0.48556107 -18.983467
v -17.599487 0.48556116 -24.482182
v -18.217505 0.2497449 -22.580078
v -11.672432 0.48556107 -18.983467
v -11.6724205 0.2497447 -18.983467
v -18.217516 0.48556125 -22.58007
v -17.599487 0.48556116 -24.482182
v -10.496868 -5.8829784E-5 -20.601501
v -10.496868 0.485561 -20.601501
v -17.599487 -5.8680773E-5 -24.482182
v -22.543762 0.48556185 -9.2652855
v -18.725853 0.4855615 -9.275261
v -19.901424 0.48556158 -7.657234
v -21.925728 0.48556176 -11.167397
v -22.543762 -5.799532E-5 -9.2652855
v -19.901424 0.48556158 -7.657234
v -19.901424 -5.826354E-5 -7.657234
v -22.543762 0.48556185 -9.2652855
v -21.925728 0.48556176 -11.167397
v -18.725845 0.24974513 -9.275265
v -18.725853 0.4855615 -9.275261
v -21.92572 0.2497454 -11.167397
v -9.717335 0.24974468 -11.441147
v -18.725845 0.24974513 -9.275265
v -14.023567 0.24974485 -15.747379
v -16.18946 0.24974489 -6.7388763
v -6.4812584 0.2497446 -13.792305
v -14.023567 0.24974485 -15.747379
v -11.6724205 0.2497447 -18.983467
v -9.717335 0.24974468 -11.441147
v -11.672432 0.48556107 -18.983467
v -4.863243 0.4855609 -14.96788
v -6.48127 0.48556095 -13.792309
v -10.496868 0.485561 -20.601501
v -11.6724205 0.2497447 -18.983467
v -6.48127 0.48556095 -13.792309
v -6.4812584 0.2497446 -13.792305
v -11.672432 0.48556107 -18.983467
v -10.496868 0.485561 -20.601501
v -4.863243 -5.8948994E-5 -14.96788
v -4.863243 0.4855609 -14.96788
v -10.496868 -5.8829784E-5 -20.601501
v -19.901424 0.48556158 -7.657234
v -16.189472 0.48556125 -6.7388763
v -17.807499 0.4855613 -5.5633087
v -18.725853 0.4855615 -9.275261
v -19.901424 -5.826354E-5 -7.657234
v -17.807499 0.4855613 -5.5633087
v -17.807499 -5.853176E-5 -5.5633087
v -19.901424 0.48556158 -7.657234
v -18.725853 0.4855615 -9.275261
v -16.18946 0.24974489 -6.7388763
v -16.189472 0.48556125 -6.7388763
v -18.725845 0.24974513 -9.275265
v -19.453577 0.24974507 -18.77583
v -25.99986 0.24974573 -12.000023
v -25.999855 0.24974538 -20.0
v -21.92572 0.2497454 -11.167397
v -18.217505 0.2497449 -22.580078
v -25.999855 0.24974538 -20.0
v -25.999855 0.2497452 -24.000027
v -19.453577 0.24974507 -18.77583
v -25.99987 0.48556158 -24.000011
v -17.599487 0.48556116 -24.482182
v -18.217516 0.48556125 -22.58007
v -25.999876 0.4855615 -26.000008
v -25.99987 0.2497452 -24.000011
v -18.217516 0.48556125 -22.58007
v -18.217505 0.2497449 -22.580078
v -25.99987 0.48556158 -24.000011
v -25.999876 0.4855615 -26.000008
v -17.599487 -5.8680773E-5 -24.482182
v -17.599487 0.48556116 -24.482182
v -25.999876 -5.8352947E-5 -26.000008
v -25.999872 0.48556218 -10.000011
v -21.925728 0.48556176 -11.167397
v -22.543762 0.48556185 -9.2652855
v -25.999872 0.4855621 -12.000008
v -25.999872 -5.7667494E-5 -10.000011
v -22.543762 0.48556185 -9.2652855
v -22.543762 -5.799532E-5 -9.2652855
v -25.999872 0.48556218 -10.000011
v -25.999872 0.4855621 -12.000008
v -21.92572 0.2497454 -11.167397
v -21.925728 0.48556176 -11.167397
v -25.999872 0.24974573 -12.000008
vn -0.0 1.0 0.0
vn -0.0 1.0 0.0
vn -0.0 1.0 0.0
vn -0.0 1.0 0.0
vn -0.0 1.0 0.0
vn -0.0 1.0 0.0
vn -0.0 1.0 0.0
vn -0.0 1.0 0.0
vn -0.0 1.0 0.0
vn -0.0 1.0 0.0
vn -0.0 1.0 0.0
vn -0.0 1.0 0.0
vn -0.8090192 -2.9527986E-5 0.5877822
vn -0.95105505 -2.099694E-5 0.3090214
vn -0.9510576 -2.0493811E-5 0.30901366
vn -0.8090144 -2.9871173E-5 0.5877889
vn 0.80901664 0.0 -0.58778566
vn 0.9510561 0.0 -0.30901816
vn 0.9510561 0.0 -0.30901808
vn 0.8090166 0.0 -0.5877858
vn -0.0 1.0 0.0
vn -0.0 1.0 0.0
vn -0.0 1.0 0.0
vn -0.0 1.0 0.0
vn -0.8090171 0.0 0.587785
vn -0.951056 0.0 0.30901834
vn -0.9510561 0.0 0.30901834
vn -0.8090171 0.0 0.58778507
vn 0.80901575 3.895343E-5 -0.58778703
vn 0.9510573 3.377114E-5 -0.30901462
vn 0.95105547 3.2671596E-5 -0.30901998
vn 0.809019 3.9261435E-5 -0.5877825
vn -0.0 1.0 0.0
vn -0.0 1.0 0.0
vn -0.0 1.0 0.0
vn -0.0 1.0 0.0
vn -0.0 1.0 0.0
vn -0.0 1.0 0.0
vn -0.0 1.0 0.0
vn -0.0 1.0 0.0
vn -0.0 1.0 0.0
vn -0.0 1.0 0.0
vn -0.0 1.0 0.0
vn -0.0 1.0 0.0
vn -0.9510576 -2.0493811E-5 0.30901366
vn -0.98768836 0.0 0.15643473
vn -0.98768836 0.0 0.15643471
vn -0.95105505 -2.099694E-5 0.3090214
vn 0.9510561 0.0 -0.30901808
vn 0.9876881 0.0 -0.15643568
vn 0.9876881 0.0 -0.1564357
vn 0.9510561 0.0 -0.30901816
vn -0.0 1.0 0.0
vn -0.0 1.0 0.0
vn -0.0 1.0 0.0
vn -0.0 1.0 0.0
vn -0.9510561 0.0 0.30901834
vn -0.98768777 0.0 0.15643775
vn -0.98768777 0.0 0.15643775
vn -0.951056 0.0 0.30901834
vn 0.95105547 3.2671596E-5 -0.30901998
vn 0.9876879 0.0 -0.1564371
vn 0.9876879 0.0 -0.1564372
vn 0.9510573 3.377114E-5 -0.30901462
vn -0.0 1.0 0.0
vn -0.0 1.0 0.0
vn -0.0 1.0 0.0
vn -0.0 1.0 0.0
vn -0.0 1.0 0.0
vn -0.0 1.0 0.0
vn -0.0 1.0 0.0
vn -0.0 1.0 0.0
vn -0.0 1.0 0.0
vn -0.0 1.0 0.0
vn -0.0 1.0 0.0
vn -0.0 1.0 0.0
vn -0.33487526 -4.644791E-5 0.94226253
vn -0.60034335 -2.9422208E-5 0.79974246
vn -0.60034883 -2.9016632E-5 0.7997382
vn -0.3348685 -4.634667E-5 0.94226485
vn 0.33292657 0.0 -0.9429528
vn 0.59937984 0.0 -0.80046475
vn 0.5993798 0.0 -0.80046475
vn 0.33292666 0.0 -0.9429527
vn -0.0 1.0 0.0
vn -0.0 1.0 0.0
vn -0.0 1.0 0.0
vn -0.0 1.0 0.0
vn -0.36914024 0.0 0.92937374
vn -0.61788356 0.0 0.7862696
vn -0.61788356 0.0 0.7862696
vn -0.36914015 0.0 0.92937374
vn 0.35955927 1.1917578E-5 -0.9331222
vn 0.612884 3.232796E-5 -0.7901729
vn 0.61288214 3.261095E-5 -0.79017437
vn 0.35956505 1.1514608E-5 -0.93312
vn -0.0 1.0 0.0
vn -0.0 1.0 0.0
vn -0.0 1.0 0.0
vn -0.0 1.0 0.0
vn -0.0 1.0 0.0
vn -0.0 1.0 0.0
vn -0.0 1.0 0.0
vn -0.0 1.0 0.0
vn -0.0 1.0 0.0
vn -0.0 1.0 0.0
vn -0.0 1.0 0.0
vn -0.0 1.0 0.0
vn -0.60034883 -2.9016632E-5 0.7997382
vn -0.8090144 -2.9871173E-5 0.5877889
vn -0.8090192 -2.9527986E-5 0.5877822
vn -0.60034335 -2.9422208E-5 0.79974246
vn 0.5993798 0.0 -0.80046475
vn 0.8090166 0.0 -0.5877858
vn 0.80901664 0.0 -0.58778566
vn 0.59937984 0.0 -0.80046475
vn -0.0 1.0 0.0
vn -0.0 1.0 0.0
vn -0.0 1.0 0.0
vn -0.0 1.0 0.0
vn -0.61788356 0.0 0.7862696
vn -0.8090171 0.0 0.58778507
vn -0.8090171 0.0 0.587785
vn -0.61788356 0.0 0.7862696
vn 0.61288214 3.261095E-5 -0.79017437
vn 0.809019 3.9261435E-5 -0.5877825
vn 0.80901575 3.895343E-5 -0.58778703
vn 0.612884 3.232796E-5 -0.7901729
vn -0.0 1.0 0.0
vn -0.0 1.0 0.0
vn -0.0 1.0 0.0
vn -0.0 1.0 0.0
vn -0.0 1.0 0.0
vn -0.0 1.0 0.0
vn -0.0 1.0 0.0
vn -0.0 1.0 0.0
vn -0.0 1.0 0.0
vn -0.0 1.0 0.0
vn -0.0 1.0 0.0
vn -0.0 1.0 0.0
vn -0.17949322 0.0 0.98375916
vn -0.3348685 -4.634667E-5 0.94226485
vn -0.33487526 -4.644791E-5 0.94226253
vn -0.17949323 0.0 0.98375916
vn 0.17780611 0.0 -0.9840656
vn 0.33292666 0.0 -0.9429527
vn 0.33292657 0.0 -0.9429528
vn 0.17780612 0.0 -0.9840656
vn -0.0 1.0 0.0
vn -0.0 1.0 0.0
vn -0.0 1.0 0.0
vn -0.0 1.0 0.0
vn -0.2079407 0.0 0.9781415
vn -0.36914015 0.0 0.92937374
vn -0.36914024 0.0 0.92937374
vn -0.20794071 0.0 0.9781415
vn 0.20022587 0.0 -0.9797498
vn 0.35956505 1.1514608E-5 -0.93312
vn 0.35955927 1.1917578E-5 -0.9331222
vn 0.20022584 0.0 -0.9797498
vt 0.49304166 0.0010339022
vt 0.3774475 0.122770965
vt 0.37744746 0.0010339022
vt 0.49304166 0.122770965
vt 0.37744755 0.122771025
vt 0.49304166 0.059467733
vt 0.49304187 0.122771025
vt 0.3774475 0.059467733
vt 0.30786642 0.80408245
vt 0.5923289 0.7633697
vt 0.5814917 0.80408245
vt 0.29664627 0.7633697
vt 0.30786642 0.81011
vt 0.5814917 0.80408245
vt 0.58151865 0.81011
vt 0.30786642 0.80408245
vt 0.29664627 0.7633697
vt 0.5923289 0.75297487
vt 0.5923289 0.7633697
vt 0.29664627 0.75297487
vt 0.64552295 0.8041576
vt 0.77075875 0.75975895
vt 0.756763 0.8041576
vt 0.6321693 0.75975895
vt 0.64552295 0.8114912
vt 0.756763 0.8041576
vt 0.7567631 0.8114912
vt 0.64552295 0.8041576
vt 0.6321693 0.75975895
vt 0.77075875 0.7532517
vt 0.77075875 0.75975895
vt 0.6321693 0.75325173
vt 0.49304166 0.0010339022
vt 0.3774475 0.122770965
vt 0.37744746 0.0010339022
vt 0.49304166 0.122770965
vt 0.37744755 0.122771025
vt 0.49304166 0.059467733
vt 0.49304187 0.122771025
vt 0.3774475 0.059467733
vt 0.30786642 0.80408245
vt 0.5923289 0.7633697
vt 0.5814917 0.80408245
vt 0.29664627 0.7633697
vt 0.30786642 0.81011
vt 0.5814917 0.80408245
vt 0.58151865 0.81011
vt 0.30786642 0.80408245
vt 0.29664627 0.7633697
vt 0.5923289 0.75297487
vt 0.5923289 0.7633697
vt 0.29664627 0.75297487
vt 0.64552313 0.8041576
vt 0.77075875 0.75975895
vt 0.7567631 0.8041576
vt 0.6321693 0.75975895
vt 0.64552313 0.8114912
vt 0.7567631 0.8041576
vt 0.7567631 0.8114912
vt 0.64552313 0.8041576
vt 0.6321693 0.75975895
vt 0.77075875 0.7532517
vt 0.77075875 0.75975895
vt 0.6321696 0.7532517
vt 0.49304166 0.0010339022
vt 0.3774475 0.122770965
vt 0.37744746 0.0010339022
vt 0.49304166 0.122770965
vt 0.37744755 0.122771025
vt 0.49304166 0.059467733
vt 0.49304187 0.122771025
vt 0.3774475 0.059467733
vt 0.30786642 0.80408245
vt 0.5923289 0.7633697
vt 0.5814917 0.80408245
vt 0.29664627 0.7633697
vt 0.30786642 0.81011
vt 0.5814917 0.80408245
vt 0.58151865 0.81011
vt 0.30786642 0.80408245
vt 0.29664627 0.7633697
vt 0.5923289 0.75297487
vt 0.5923289 0.7633697
vt 0.29664627 0.75297487
vt 0.6455227 0.8041576
vt 0.77075845 0.75975895
vt 0.7567626 0.8041576
vt 0.632169 0.75975895
vt 0.6455227 0.8114912
vt 0.7567626 0.8041576
vt 0.7567626 0.8114912
vt 0.6455227 0.8041576
vt 0.632169 0.75975895
vt 0.77075875 0.7532517
vt 0.77075845 0.75975895
vt 0.6321693 0.7532517
vt 0.49304166 0.0010339022
vt 0.3774475 0.122770965
vt 0.37744746 0.0010339022
vt 0.49304166 0.122770965
vt 0.37744755 0.122771025
vt 0.49304166 0.059467733
vt 0.49304187 0.122771025
vt 0.3774475 0.059467733
vt 0.30786642 0.80408245
vt 0.5923289 0.7633697
vt 0.5814917 0.80408245
vt 0.29664627 0.7633697
vt 0.30786642 0.81011
vt 0.5814917 0.80408245
vt 0.58151865 0.81011
vt 0.30786642 0.80408245
vt 0.29664627 0.7633697
vt 0.5923289 0.75297487
vt 0.5923289 0.7633697
vt 0.29664627 0.75297487
vt 0.64552295 0.8041576
vt 0.77075857 0.75975895
vt 0.756763 0.8041576
vt 0.6321691 0.75975895
vt 0.64552325 0.8114912
vt 0.756763 0.8041576
vt 0.756763 0.8114912
vt 0.64552295 0.8041576
vt 0.6321691 0.75975895
vt 0.77075875 0.7532517
vt 0.77075857 0.75975895
vt 0.632169 0.7532517
vt 0.49304166 0.0010339022
vt 0.3774475 0.122770965
vt 0.37744746 0.0010339022
vt 0.49304166 0.122770965
vt 0.37744755 0.122771025
vt 0.49304166 0.059467733
vt 0.49304187 0.122771025
vt 0.3774475 0.059467733
vt 0.30786642 0.80408245
vt 0.5923289 0.7633697
vt 0.5814917 0.80408245
vt 0.29664627 0.7633697
vt 0.30786642 0.81011
vt 0.5814917 0.80408245
vt 0.58151865 0.81011
vt 0.30786642 0.80408245
vt 0.29664627 0.7633697
vt 0.5923289 0.75297487
vt 0.5923289 0.7633697
vt 0.29664627 0.75297487
vt 0.6455225 0.8041576
vt 0.7707583 0.75975895
vt 0.7567625 0.8041576
vt 0.6321689 0.75975895
vt 0.6455225 0.8114912
vt 0.7567625 0.8041576
vt 0.7567625 0.8114912
vt 0.6455225 0.8041576
vt 0.6321689 0.75975895
vt 0.77075875 0.7532517
vt 0.7707583 0.75975895
vt 0.6321689 0.7532517

g Three_Lane_90Degrees_01
s 1
usemtl Three_Lane_90Degrees_01
f 3/3/3 2/2/2 1/1/1 
f 4/4/4 1/1/1 2/2/2 
f 7/7/7 6/6/6 5/5/5 
f 8/8/8 5/5/5 6/6/6 
f 11/11/11 10/10/10 9/9/9 
f 12/12/12 9/9/9 10/10/10 
f 15/15/15 14/14/14 13/13/13 
f 16/16/16 13/13/13 14/14/14 
f 19/19/19 18/18/18 17/17/17 
f 20/20/20 17/17/17 18/18/18 
f 23/23/23 22/22/22 21/21/21 
f 24/24/24 21/21/21 22/22/22 
f 27/27/27 26/26/26 25/25/25 
f 28/28/28 25/25/25 26/26/26 
f 31/31/31 30/30/30 29/29/29 
f 32/32/32 29/29/29 30/30/30 
f 35/35/35 34/34/34 33/33/33 
f 36/36/36 33/33/33 34/34/34 
f 39/39/39 38/38/38 37/37/37 
f 40/40/40 37/37/37 38/38/38 
f 43/43/43 42/42/42 41/41/41 
f 44/44/44 41/41/41 42/42/42 
f 47/47/47 46/46/46 45/45/45 
f 48/48/48 45/45/45 46/46/46 
f 51/51/51 50/50/50 49/49/49 
f 52/52/52 49/49/49 50/50/50 
f 55/55/55 54/54/54 53/53/53 
f 56/56/56 53/53/53 54/54/54 
f 59/59/59 58/58/58 57/57/57 
f 60/60/60 57/57/57 58/58/58 
f 63/63/63 62/62/62 61/61/61 
f 64/64/64 61/61/61 62/62/62 
f 67/67/67 66/66/66 65/65/65 
f 68/68/68 65/65/65 66/66/66 
f 71/71/71 70/70/70 69/69/69 
f 72/72/72 69/69/69 70/70/70 
f 75/75/75 74/74/74 73/73/73 
f 76/76/76 73/73/73 74/74/74 
f 79/79/79 78/78/78 77/77/77 
f 80/80/80 77/77/77 78/78/78 
f 83/83/83 82/82/82 81/81/81 
f 84/84/84 81/81/81 82/82/82 
f 87/87/87 86/86/86 85/85/85 
f 88/88/88 85/85/85 86/86/86 
f 91/91/91 90/90/90 89/89/89 
f 92/92/92 89/89/89 90/90/90 
f 95/95/95 94/94/94 93/93/93 
f 96/96/96 93/93/93 94/94/94 
f 99/99/99 98/98/98 97/97/97 
f 100/100/100 97/97/97 98/98/98 
f 103/103/103 102/102/102 101/101/101 
f 104/104/104 101/101/101 102/102/102 
f 107/107/107 106/106/106 105/105/105 
f 108/108/108 105/105/105 106/106/106 
f 111/111/111 110/110/110 109/109/109 
f 112/112/112 109/109/109 110/110/110 
f 115/115/115 114/114/114 113/113/113 
f 116/116/116 113/113/113 114/114/114 
f 119/119/119 118/118/118 117/117/117 
f 120/120/120 117/117/117 118/118/118 
f 123/123/123 122/122/122 121/121/121 
f 124/124/124 121/121/121 122/122/122 
f 127/127/127 126/126/126 125/125/125 
f 128/128/128 125/125/125 126/126/126 
f 131/131/131 130/130/130 129/129/129 
f 132/132/132 129/129/129 130/130/130 
f 135/135/135 134/134/134 133/133/133 
f 136/136/136 133/133/133 134/134/134 
f 139/139/139 138/138/138 137/137/137 
f 140/140/140 137/137/137 138/138/138 
f 143/143/143 142/142/142 141/141/141 
f 144/144/144 141/141/141 142/142/142 
f 147/147/147 146/146/146 145/145/145 
f 148/148/148 145/145/145 146/146/146 
f 151/151/151 150/150/150 149/149/149 
f 152/152/152 149/149/149 150/150/150 
f 155/155/155 154/154/154 153/153/153 
f 156/156/156 153/153/153 154/154/154 
f 159/159/159 158/158/158 157/157/157 
f 160/160/160 157/157/157 158/158/158 

