# Created by DisUnity v0.3.4
v -1.9999747 0.24976717 -14.00002
v 7.9999924 0.24976891 -22.00006
v 8.000003 0.24976891 -14.000026
v -1.999979 0.24976717 -22.000053
v -1.9999945 0.2497671 -9.999742
v 8.000003 0.24976891 -14.000026
v 7.9999866 0.24976891 -9.99974
v -1.9999747 0.24976717 -14.00002
v -6.0 0.24976647 2.8505322E-4
v -14.000021 0.249765 -9.999741
v -6.000002 0.24976647 -9.999511
v -14.000025 0.24976507 5.4772616E-5
v -1.9999986 0.24976717 5.3056072E-5
v -6.000002 0.24976647 -9.999511
v -1.9999945 0.2497671 -9.999742
v -6.0 0.24976647 2.8505322E-4
v -14.00002 0.24976507 -14.000023
v -24.000002 0.24976331 -22.000061
v -14.000029 0.24976507 -22.000053
v -24.000006 0.24976331 -14.000025
v -14.000021 0.249765 -9.999741
v -24.000006 0.24976331 -14.000025
v -14.00002 0.24976507 -14.000023
v -23.999998 0.24976331 -9.999744
v -14.00002 0.24976507 -14.000023
v -6.000002 0.24976647 -9.999511
v -14.000021 0.249765 -9.999741
v -5.999994 0.24976647 -14.00002
v -1.999979 0.24976717 -22.000053
v -5.999994 0.24976647 -14.00002
v -5.999998 0.24976647 -22.000051
v -1.9999747 0.24976717 -14.00002
v -14.000029 0.24976507 -22.000053
v -5.999994 0.24976647 -14.00002
v -14.00002 0.24976507 -14.000023
v -5.999998 0.24976647 -22.000051
v -1.9999747 0.24976717 -14.00002
v -6.000002 0.24976647 -9.999511
v -5.999994 0.24976647 -14.00002
v -1.9999945 0.2497671 -9.999742
v -14.000013 0.48558128 -9.999971
v -23.999994 0.48557964 -8.000042
v -23.999994 0.48557964 -9.999976
v -16.00001 0.48558098 -8.000037
v -14.000021 0.249765 -9.999741
v -23.999994 0.48557964 -9.999976
v -23.999998 0.24976331 -9.999744
v -14.000013 0.48558128 -9.999971
v -16.00001 0.48558098 -8.000037
v -23.999994 -4.02273E-5 -8.000042
v -23.999994 0.48557964 -8.000042
v -16.00001 -3.8828537E-5 -8.000037
v -14.000015 0.4855814 -1.7983126E-4
v -16.00001 0.48558098 -8.000037
v -14.000013 0.48558128 -9.999971
v -16.00001 0.48558104 -1.8113463E-4
v -14.000025 0.24976507 5.4772616E-5
v -14.000013 0.48558128 -9.999971
v -14.000021 0.249765 -9.999741
v -14.000015 0.4855814 -1.7983126E-4
v -16.00001 0.48558104 -1.8113463E-4
v -16.00001 -3.8828537E-5 -8.000037
v -16.00001 0.48558098 -8.000037
v -16.00001 -3.8828537E-5 -1.8113463E-4
v -2.0000136 0.48558336 -9.999971
v -2.2973056E-5 0.48558384 -1.7356873E-4
v -2.0000196 0.48558348 -1.7391842E-4
v -1.7759618E-5 0.48558378 -8.000036
v -1.9999945 0.2497671 -9.999742
v -2.0000196 0.48558348 -1.7391842E-4
v -1.9999986 0.24976717 5.3056072E-5
v -2.0000136 0.48558336 -9.999971
v -1.7759618E-5 0.48558378 -8.000036
v -2.2888147E-5 -3.603101E-5 -1.7356873E-4
v -2.2973056E-5 0.48558384 -1.7356873E-4
v -1.7674709E-5 -3.603101E-5 -8.000036
v 7.9999595 0.48558524 -9.999967
v -1.7759618E-5 0.48558378 -8.000036
v -2.0000136 0.48558336 -9.999971
v 7.9999595 0.48558524 -8.000032
v 7.9999866 0.24976891 -9.99974
v -2.0000136 0.48558336 -9.999971
v -1.9999945 0.2497671 -9.999742
v 7.9999595 0.48558524 -9.999967
v 7.9999595 0.48558524 -8.000032
v -1.7674709E-5 -3.603101E-5 -8.000036
v -1.7759618E-5 0.48558378 -8.000036
v 7.9999595 -3.463225E-5 -8.000032
v -1.9999809 0.48558348 -22.000051
v 7.999989 0.48558524 -23.99999
v 7.9999886 0.48558524 -22.000055
v -1.9999807 0.48558348 -23.999985
v -6.0 0.4855828 -22.000048
v -5.9999995 0.4855828 -23.999983
v -14.0000305 0.4855814 -22.000051
v -14.00003 0.4855814 -23.999987
v -24.000004 0.48557964 -22.00006
v -24.000004 0.48557964 -23.999992
v -1.999979 0.24976717 -22.000053
v 7.9999886 0.48558524 -22.000055
v 7.9999924 0.24976891 -22.00006
v -1.9999809 0.48558348 -22.000051
v -5.999998 0.24976647 -22.000051
v -6.0 0.4855828 -22.000048
v -14.000029 0.24976507 -22.000053
v -14.0000305 0.4855814 -22.000051
v -24.000002 0.24976331 -22.000061
v -24.000004 0.48557964 -22.00006
v -1.9999807 0.48558348 -23.999985
v 7.999989 -3.4513036E-5 -23.99999
v 7.999989 0.48558524 -23.99999
v -1.9999796 -3.6261485E-5 -23.999985
v -5.9999995 0.4855828 -23.999983
v -5.9999995 -3.696087E-5 -23.999983
v -14.00003 0.4855814 -23.999987
v -14.000029 -3.835964E-5 -23.999987
v -24.000004 0.48557964 -23.999992
v -24.000004 -4.0108094E-5 -23.999992
vn -0.0 1.0 0.0
vn -0.0 1.0 0.0
vn -0.0 1.0 0.0
vn -0.0 1.0 0.0
vn -0.0 1.0 0.0
vn -0.0 1.0 0.0
vn -0.0 1.0 0.0
vn -0.0 1.0 0.0
vn -0.0 1.0 0.0
vn -0.0 1.0 0.0
vn -0.0 1.0 0.0
vn -0.0 1.0 0.0
vn -0.0 1.0 0.0
vn -0.0 1.0 0.0
vn -0.0 1.0 0.0
vn -0.0 1.0 0.0
vn -0.0 1.0 0.0
vn -0.0 1.0 0.0
vn -0.0 1.0 0.0
vn -0.0 1.0 0.0
vn -0.0 1.0 0.0
vn -0.0 1.0 0.0
vn -0.0 1.0 0.0
vn -0.0 1.0 0.0
vn -0.0 1.0 0.0
vn -0.0 1.0 0.0
vn -0.0 1.0 0.0
vn -0.0 1.0 0.0
vn -0.0 1.0 0.0
vn -0.0 1.0 0.0
vn -0.0 1.0 0.0
vn -0.0 1.0 0.0
vn -0.0 1.0 0.0
vn -0.0 1.0 0.0
vn -0.0 1.0 0.0
vn -0.0 1.0 0.0
vn -0.0 1.0 0.0
vn -0.0 1.0 0.0
vn -0.0 1.0 0.0
vn -0.0 1.0 0.0
vn -0.0 1.0 0.0
vn -0.0 1.0 0.0
vn -0.0 1.0 0.0
vn -0.0 1.0 0.0
vn 0.70732 -7.1462704E-4 -0.7068931
vn -0.0 -9.82665E-4 -0.9999995
vn -0.0 -9.827258E-4 -0.9999995
vn 0.70689404 -7.150731E-4 -0.707319
vn -0.707107 0.0 0.7071065
vn -0.0 0.0 1.0
vn -0.0 0.0 1.0
vn -0.70710665 0.0 0.7071068
vn -0.0 1.0 0.0
vn -0.0 1.0 0.0
vn -0.0 1.0 0.0
vn -0.0 1.0 0.0
vn 1.0 -4.0145078E-5 0.0
vn 0.70689404 -7.150731E-4 -0.707319
vn 0.70732 -7.1462704E-4 -0.7068931
vn 1.0 -4.0266554E-5 0.0
vn -1.0 0.0 0.0
vn -0.70710665 0.0 0.7071068
vn -0.707107 0.0 0.7071065
vn -1.0 0.0 0.0
vn -0.0 1.0 0.0
vn -0.0 1.0 0.0
vn -0.0 1.0 0.0
vn -0.0 1.0 0.0
vn -0.70730793 -7.4639503E-4 -0.7069052
vn -1.0 -8.902483E-5 0.0
vn -1.0 -8.914617E-5 0.0
vn -0.7069057 -7.4653985E-4 -0.7073074
vn 0.70710605 0.0 0.7071074
vn 1.0 0.0 0.0
vn 1.0 0.0 0.0
vn 0.7071064 0.0 0.70710707
vn -0.0 1.0 0.0
vn -0.0 1.0 0.0
vn -0.0 1.0 0.0
vn -0.0 1.0 0.0
vn -0.0 -9.6268713E-4 -0.9999995
vn -0.7069057 -7.4653985E-4 -0.7073074
vn -0.70730793 -7.4639503E-4 -0.7069052
vn -0.0 -9.6250494E-4 -0.9999995
vn -0.0 0.0 1.0
vn 0.7071064 0.0 0.70710707
vn 0.70710605 0.0 0.7071074
vn -0.0 0.0 1.0
vn -0.0 1.0 0.0
vn -0.0 1.0 0.0
vn -0.0 1.0 0.0
vn -0.0 1.0 0.0
vn -0.0 1.0 0.0
vn -0.0 1.0 0.0
vn -0.0 1.0 0.0
vn -0.0 1.0 0.0
vn -0.0 1.0 0.0
vn -0.0 1.0 0.0
vn -0.0 0.0 1.0
vn -0.0 -1.6055146E-5 1.0
vn -0.0 -1.6176551E-5 1.0
vn -0.0 0.0 1.0
vn -0.0 -1.6024953E-5 1.0
vn -0.0 -1.6100685E-5 1.0
vn -0.0 0.0 1.0
vn -0.0 0.0 1.0
vn -0.0 0.0 1.0
vn -0.0 0.0 1.0
vn -0.0 0.0 -1.0
vn -0.0 0.0 -1.0
vn -0.0 0.0 -1.0
vn -0.0 0.0 -1.0
vn -0.0 0.0 -1.0
vn -0.0 0.0 -1.0
vn -0.0 0.0 -1.0
vn -0.0 0.0 -1.0
vn -0.0 0.0 -1.0
vn -0.0 0.0 -1.0
vt 0.49987495 0.0010339022
vt 0.3777692 0.122770965
vt 0.37776917 0.0010339022
vt 0.49987498 0.122770965
vt 0.37776926 0.122771025
vt 0.499875 0.059467733
vt 0.49987504 0.122771025
vt 0.37776923 0.059467733
vt 0.49987495 0.0010339022
vt 0.3777692 0.122770965
vt 0.37776917 0.0010339022
vt 0.49987498 0.122770965
vt 0.37776926 0.122771025
vt 0.499875 0.059467733
vt 0.49987504 0.122771025
vt 0.37776923 0.059467733
vt 0.49987495 0.0010339022
vt 0.3777692 0.122770965
vt 0.49987498 0.122770965
vt 0.37776917 0.0010339022
vt 0.37776926 0.122771025
vt 0.499875 0.059467733
vt 0.37776923 0.059467733
vt 0.49987504 0.122771025
vt 0.38642344 0.62271595
vt 0.44626328 0.50293016
vt 0.44626328 0.62271607
vt 0.38642344 0.50293016
vt 0.32616317 0.5029303
vt 0.44626325 0.56308424
vt 0.3261632 0.56308424
vt 0.44626325 0.5029303
vt 0.3261632 0.62271607
vt 0.44626325 0.50293016
vt 0.44626325 0.62271595
vt 0.3261632 0.50293016
vt 0.38642344 0.5029303
vt 0.44626328 0.56308436
vt 0.38642344 0.56308424
vt 0.44626328 0.5029303
vt 0.623796 0.7564854
vt 0.31996065 0.80529976
vt 0.31996065 0.7564854
vt 0.5630273 0.80529976
vt 0.623796 0.7503836
vt 0.31996065 0.7564854
vt 0.31996065 0.7503836
vt 0.623796 0.7564854
vt 0.5630273 0.80529976
vt 0.31996065 0.8114015
vt 0.31996065 0.80529976
vt 0.5630273 0.8114015
vt 0.31996065 0.7564854
vt 0.5630439 0.80529976
vt 0.62381256 0.7564854
vt 0.31996065 0.80529976
vt 0.31996065 0.7503836
vt 0.62381256 0.7564854
vt 0.62381256 0.7503836
vt 0.31996065 0.7564854
vt 0.31996065 0.80529976
vt 0.5630439 0.8114015
vt 0.5630439 0.80529976
vt 0.31996065 0.8114015
vt 0.623796 0.7564854
vt 0.31996065 0.80529976
vt 0.31996065 0.7564854
vt 0.5630273 0.80529976
vt 0.623796 0.7503836
vt 0.31996065 0.7564854
vt 0.31996065 0.7503836
vt 0.623796 0.7564854
vt 0.5630273 0.80529976
vt 0.31996065 0.8114015
vt 0.31996065 0.80529976
vt 0.5630273 0.8114015
vt 0.31996065 0.7564854
vt 0.5630439 0.80529976
vt 0.62381256 0.7564854
vt 0.31996065 0.80529976
vt 0.31996065 0.7503836
vt 0.62381256 0.7564854
vt 0.62381256 0.7503836
vt 0.31996065 0.7564854
vt 0.31996065 0.80529976
vt 0.5630439 0.8114015
vt 0.5630439 0.80529976
vt 0.31996065 0.8114015
vt 0.31266415 0.7777348
vt 0.06282746 0.7509674
vt 0.06282749 0.7777348
vt 0.31266415 0.7509674
vt 0.43758246 0.7777348
vt 0.43758243 0.7509674
vt 0.687419 0.7777348
vt 0.6874189 0.7509674
vt 0.93725544 0.7777348
vt 0.93725544 0.7509674
vt 0.31266415 0.7810808
vt 0.06282749 0.7777348
vt 0.0628275 0.7810808
vt 0.31266415 0.7777348
vt 0.43758246 0.7810808
vt 0.43758246 0.7777348
vt 0.687419 0.7810807
vt 0.687419 0.7777348
vt 0.93725544 0.7810807
vt 0.93725544 0.7777348
vt 0.3126642 0.8111941
vt 0.06282753 0.8078482
vt 0.06282753 0.8111941
vt 0.31266418 0.8078482
vt 0.43758255 0.8111941
vt 0.4375825 0.8078482
vt 0.687419 0.8111941
vt 0.687419 0.8078482
vt 0.93725544 0.8111941
vt 0.93725544 0.8078482

g Three_Lane_05
s 1
usemtl Three_Lane_05
f 3/3/3 2/2/2 1/1/1 
f 4/4/4 1/1/1 2/2/2 
f 7/7/7 6/6/6 5/5/5 
f 8/8/8 5/5/5 6/6/6 
f 11/11/11 10/10/10 9/9/9 
f 12/12/12 9/9/9 10/10/10 
f 15/15/15 14/14/14 13/13/13 
f 16/16/16 13/13/13 14/14/14 
f 19/19/19 18/18/18 17/17/17 
f 20/20/20 17/17/17 18/18/18 
f 23/23/23 22/22/22 21/21/21 
f 24/24/24 21/21/21 22/22/22 
f 27/27/27 26/26/26 25/25/25 
f 28/28/28 25/25/25 26/26/26 
f 31/31/31 30/30/30 29/29/29 
f 32/32/32 29/29/29 30/30/30 
f 35/35/35 34/34/34 33/33/33 
f 36/36/36 33/33/33 34/34/34 
f 39/39/39 38/38/38 37/37/37 
f 40/40/40 37/37/37 38/38/38 
f 43/43/43 42/42/42 41/41/41 
f 44/44/44 41/41/41 42/42/42 
f 47/47/47 46/46/46 45/45/45 
f 48/48/48 45/45/45 46/46/46 
f 51/51/51 50/50/50 49/49/49 
f 52/52/52 49/49/49 50/50/50 
f 55/55/55 54/54/54 53/53/53 
f 56/56/56 53/53/53 54/54/54 
f 59/59/59 58/58/58 57/57/57 
f 60/60/60 57/57/57 58/58/58 
f 63/63/63 62/62/62 61/61/61 
f 64/64/64 61/61/61 62/62/62 
f 67/67/67 66/66/66 65/65/65 
f 68/68/68 65/65/65 66/66/66 
f 71/71/71 70/70/70 69/69/69 
f 72/72/72 69/69/69 70/70/70 
f 75/75/75 74/74/74 73/73/73 
f 76/76/76 73/73/73 74/74/74 
f 79/79/79 78/78/78 77/77/77 
f 80/80/80 77/77/77 78/78/78 
f 83/83/83 82/82/82 81/81/81 
f 84/84/84 81/81/81 82/82/82 
f 87/87/87 86/86/86 85/85/85 
f 88/88/88 85/85/85 86/86/86 
f 91/91/91 90/90/90 89/89/89 
f 92/92/92 89/89/89 90/90/90 
f 89/89/89 92/92/92 93/93/93 
f 94/94/94 93/93/93 92/92/92 
f 93/93/93 94/94/94 95/95/95 
f 96/96/96 95/95/95 94/94/94 
f 95/95/95 96/96/96 97/97/97 
f 98/98/98 97/97/97 96/96/96 
f 101/101/101 100/100/100 99/99/99 
f 102/102/102 99/99/99 100/100/100 
f 99/99/99 102/102/102 103/103/103 
f 104/104/104 103/103/103 102/102/102 
f 103/103/103 104/104/104 105/105/105 
f 106/106/106 105/105/105 104/104/104 
f 105/105/105 106/106/106 107/107/107 
f 108/108/108 107/107/107 106/106/106 
f 111/111/111 110/110/110 109/109/109 
f 112/112/112 109/109/109 110/110/110 
f 109/109/109 112/112/112 113/113/113 
f 114/114/114 113/113/113 112/112/112 
f 113/113/113 114/114/114 115/115/115 
f 116/116/116 115/115/115 114/114/114 
f 115/115/115 116/116/116 117/117/117 
f 118/118/118 117/117/117 116/116/116 

