# Created by DisUnity v0.3.4
v -27.448399 0.485671 -33.44607
v -21.816559 0.48567104 -29.657795
v -27.83857 0.4856711 -31.484566
v -21.051212 0.48567095 -31.505491
v -33.999992 0.48567116 -34.000015
v -33.999996 0.48567125 -32.00008
v -27.83857 0.4856711 -31.484566
v -21.816559 0.24985467 -29.657795
v -27.83857 0.24985476 -31.484566
v -21.816559 0.48567104 -29.657795
v -33.999996 0.48567125 -32.00008
v -33.999996 0.2498549 -32.00008
v -27.448399 5.1140785E-5 -33.44607
v -21.051212 0.48567095 -31.505491
v -27.448399 0.485671 -33.44607
v -21.051212 5.105138E-5 -31.505491
v -33.999992 5.1259995E-5 -34.000015
v -33.999992 0.48567116 -34.000015
v -32.520794 0.48567215 -7.945692
v -31.766378 0.4856721 -5.636978
v -32.910965 0.4856722 -5.984188
v -31.001032 0.485672 -7.4846735
v -34.00004 0.4856723 -7.999921
v -34.00004 0.48567238 -5.9999866
v -32.910965 0.4856722 -5.984188
v -31.766378 5.2183867E-5 -5.636978
v -32.910965 5.2332878E-5 -5.984188
v -31.766378 0.4856721 -5.636978
v -34.00004 0.48567238 -5.9999866
v -34.00004 5.248189E-5 -5.9999866
v -32.520794 0.24985579 -7.945692
v -31.001032 0.485672 -7.4846735
v -32.520794 0.48567215 -7.945692
v -31.001032 0.24985564 -7.4846735
v -34.00004 0.24985595 -7.999922
v -34.00004 0.4856723 -7.999921
v -27.83857 0.24985476 -31.484566
v -23.339233 0.24985483 -25.981762
v -28.614826 0.24985492 -27.58211
v -21.816559 0.24985467 -29.657795
v -16.26667 0.24985462 -26.6913
v -18.477242 0.24985476 -23.38296
v -33.999996 0.2498549 -32.00008
v -34.000004 0.24985509 -28.122486
v -14.215673 0.24985474 -19.885569
v -11.402153 0.24985461 -22.69908
v -10.718295 0.24985474 -15.623987
v -7.4099474 0.24985465 -17.834549
v -8.119509 0.24985477 -10.761988
v -4.443472 0.24985471 -12.284649
v -2.6167202 0.2498548 -6.2626343
v -6.51918 0.24985483 -5.486391
v -5.9788203 0.2498549 4.386902E-5
v -1.9999084 0.2498549 5.1498413E-5
v -21.816559 0.48567104 -29.657795
v -15.155562 0.4856709 -28.354183
v -16.26667 0.48567098 -26.6913
v -21.051212 0.48567095 -31.505491
v -11.402153 0.48567098 -22.69908
v -9.987984 0.48567092 -24.113243
v -21.816559 0.24985467 -29.657795
v -16.26667 0.48567098 -26.6913
v -16.26667 0.24985462 -26.6913
v -21.816559 0.48567104 -29.657795
v -11.402153 0.24985461 -22.69908
v -11.402153 0.48567098 -22.69908
v -21.051212 0.48567095 -31.505491
v -15.155562 5.0991774E-5 -28.354183
v -15.155562 0.4856709 -28.354183
v -21.051212 5.105138E-5 -31.505491
v -9.987984 0.48567092 -24.113243
v -9.987984 5.1021576E-5 -24.113243
v -31.766378 0.4856721 -5.636978
v -29.600418 0.48567185 -6.736026
v -30.711525 0.48567194 -5.073145
v -31.001032 0.485672 -7.4846735
v -29.78694 0.4856718 -4.314354
v -28.37277 0.48567173 -5.7285175
v -31.766378 5.2183867E-5 -5.636978
v -30.711525 0.48567194 -5.073145
v -30.711525 5.2034855E-5 -5.073145
v -31.766378 0.4856721 -5.636978
v -29.78694 5.1885843E-5 -4.314354
v -29.78694 0.4856718 -4.314354
v -31.001032 0.485672 -7.4846735
v -29.600418 0.24985549 -6.736027
v -29.600418 0.48567185 -6.736026
v -31.001032 0.24985564 -7.4846735
v -28.37277 0.48567173 -5.7285175
v -28.372768 0.24985535 -5.7285185
v -4.443472 0.48567107 -12.284649
v -0.65521336 0.48567113 -6.6527977
v -2.6167202 0.48567116 -6.2626324
v -2.5957727 0.48567104 -13.049989
v -1.9999084 0.48567128 5.340576E-5
v 2.5749207E-5 0.48567128 5.722046E-5
v -4.443472 0.24985471 -12.284649
v -2.6167202 0.48567116 -6.2626324
v -2.6167202 0.2498548 -6.2626343
v -4.443472 0.48567107 -12.284649
v -1.9999084 0.2498549 5.1498413E-5
v -1.9999084 0.48567128 5.340576E-5
v -2.5957727 0.48567104 -13.049989
v -0.65521336 5.1230192E-5 -6.6527977
v -0.65521336 0.48567113 -6.6527977
v -2.5957727 5.1140785E-5 -13.049989
v 2.5749207E-5 0.48567128 5.722046E-5
v 2.5749207E-5 5.1379204E-5 5.722046E-5
v -28.464321 0.48567152 -2.3349104
v -26.15561 0.4856714 -1.5804863
v -28.117115 0.48567137 -1.1903229
v -26.616623 0.4856715 -3.1002502
v -27.99988 0.48567128 9.536743E-6
v -25.999947 0.48567128 1.335144E-5
v -28.464321 5.1617622E-5 -2.3349104
v -28.117115 0.48567137 -1.1903229
v -28.117115 5.146861E-5 -1.1903229
v -28.464321 0.48567152 -2.3349104
v -27.99988 5.1379204E-5 9.536743E-6
v -27.99988 0.48567128 9.536743E-6
v -26.616623 0.4856715 -3.1002502
v -26.15561 0.249855 -1.5804863
v -26.15561 0.4856714 -1.5804863
v -26.616623 0.24985512 -3.1002502
v -25.999947 0.48567128 1.335144E-5
v -25.999945 0.2498549 1.335144E-5
v -5.7470613 0.48567095 -18.94565
v -4.443472 0.48567107 -12.284649
v -7.4099474 0.485671 -17.834549
v -2.5957727 0.48567104 -13.049989
v -9.987984 0.48567092 -24.113243
v -11.402153 0.48567098 -22.69908
v -7.4099474 0.485671 -17.834549
v -4.443472 0.24985471 -12.284649
v -7.4099474 0.24985465 -17.834549
v -4.443472 0.48567107 -12.284649
v -11.402153 0.48567098 -22.69908
v -11.402153 0.24985461 -22.69908
v -5.7470613 5.105138E-5 -18.94565
v -2.5957727 0.48567104 -13.049989
v -5.7470613 0.48567095 -18.94565
v -2.5957727 5.1140785E-5 -13.049989
v -9.987984 5.1021576E-5 -24.113243
v -9.987984 0.48567092 -24.113243
v -27.365267 0.48567158 -4.500866
v -28.464321 0.48567152 -2.3349104
v -29.028152 0.48567164 -3.3897648
v -26.616623 0.4856715 -3.1002502
v -28.37277 0.48567173 -5.7285175
v -29.78694 0.4856718 -4.314354
v -29.028152 0.48567164 -3.3897648
v -28.464321 5.1617622E-5 -2.3349104
v -29.028152 5.173683E-5 -3.3897648
v -28.464321 0.48567152 -2.3349104
v -29.78694 0.4856718 -4.314354
v -29.78694 5.1885843E-5 -4.314354
v -27.365265 0.24985524 -4.500867
v -26.616623 0.4856715 -3.1002502
v -27.365267 0.48567158 -4.500866
v -26.616623 0.24985512 -3.1002502
v -28.372768 0.24985535 -5.7285185
v -28.37277 0.48567173 -5.7285175
v -34.000015 0.24985544 -19.823719
v -30.12691 0.24985525 -19.980427
v -30.23385 0.24985528 -19.442802
v -34.000015 0.24985541 -20.371876
v -26.515053 0.24985516 -18.314707
v -26.305283 0.24985515 -18.821138
v -22.783264 0.24985504 -16.938572
v -23.087805 0.24985507 -16.482796
v -20.083797 0.249855 -14.017463
v -19.696192 0.24985498 -14.405067
v -17.162697 0.24985494 -11.3179865
v -17.618473 0.24985495 -11.013447
v -15.786573 0.24985492 -7.586193
v -15.280143 0.2498549 -7.7959633
v -14.120867 0.24985489 -3.974331
v -14.658491 0.2498549 -3.8673916
v -14.277588 0.2498549 3.2424927E-5
v -13.729431 0.2498549 3.2424927E-5
v -34.00003 0.24985579 -12.037098
v -30.23385 0.24985528 -19.442802
v -31.752962 0.24985561 -11.805802
v -34.000015 0.24985544 -19.823719
v -29.49488 0.24985547 -11.120815
v -26.515053 0.24985516 -18.314707
v -23.087805 0.24985507 -16.482796
v -27.413834 0.24985535 -10.008467
v -25.589779 0.24985524 -8.511499
v -20.083797 0.249855 -14.017463
v -17.618473 0.24985495 -11.013447
v -24.09282 0.24985513 -6.687441
v -22.980476 0.24985504 -4.606388
v -15.786573 0.24985492 -7.586193
v -14.658491 0.2498549 -3.8673916
v -22.295496 0.24985497 -2.3483067
v -22.064209 0.2498549 2.0980835E-5
v -14.277588 0.2498549 3.2424927E-5
v -34.00004 0.24985595 -7.999922
v -31.752962 0.24985561 -11.805802
v -32.520794 0.24985579 -7.945692
v -34.00003 0.24985579 -12.037098
v -31.001032 0.24985564 -7.4846735
v -29.49488 0.24985547 -11.120815
v -27.413834 0.24985535 -10.008467
v -29.600418 0.24985549 -6.736027
v -28.372768 0.24985535 -5.7285185
v -25.589779 0.24985524 -8.511499
v -24.09282 0.24985513 -6.687441
v -27.365265 0.24985524 -4.500867
v -26.616623 0.24985512 -3.1002502
v -22.980476 0.24985504 -4.606388
v -22.295496 0.24985497 -2.3483067
v -26.15561 0.249855 -1.5804863
v -25.999945 0.2498549 1.335144E-5
v -22.064209 0.2498549 2.0980835E-5
v -34.000015 0.24985541 -20.371876
v -28.614826 0.24985492 -27.58211
v -30.12691 0.24985525 -19.980427
v -34.000004 0.24985509 -28.122486
v -26.305283 0.24985515 -18.821138
v -23.339233 0.24985483 -25.981762
v -18.477242 0.24985476 -23.38296
v -22.783264 0.24985504 -16.938572
v -19.696192 0.24985498 -14.405067
v -14.215673 0.24985474 -19.885569
v -10.718295 0.24985474 -15.623987
v -17.162697 0.24985494 -11.3179865
v -15.280143 0.2498549 -7.7959633
v -8.119509 0.24985477 -10.761988
v -6.51918 0.24985483 -5.486391
v -14.120867 0.24985489 -3.974331
v -13.729431 0.2498549 3.2424927E-5
v -5.9788203 0.2498549 4.386902E-5
vn -0.0 1.0 0.0
vn -0.0 1.0 0.0
vn -0.0 1.0 0.0
vn -0.0 1.0 0.0
vn -0.0 1.0 0.0
vn -0.0 1.0 0.0
vn -0.1878768 0.0 0.9821926
vn -0.38268557 0.0 0.9238787
vn -0.18787685 0.0 0.9821926
vn -0.3826856 0.0 0.9238786
vn -0.0833767 0.0 0.99651814
vn -0.08337669 0.0 0.99651814
vn 0.1883074 0.0 -0.9821101
vn 0.38268548 0.0 -0.9238787
vn 0.1883074 0.0 -0.9821101
vn 0.3826855 0.0 -0.9238787
vn 0.08425036 0.0 -0.99644464
vn 0.08425036 0.0 -0.99644464
vn -0.0 1.0 0.0
vn -0.0 1.0 0.0
vn -0.0 1.0 0.0
vn -0.0 1.0 0.0
vn -0.0 1.0 0.0
vn -0.0 1.0 0.0
vn -0.1539021 0.0 0.9880861
vn -0.38268554 0.0 0.9238787
vn -0.1539021 0.0 0.9880861
vn -0.3826855 0.0 0.9238787
vn -0.0145049095 0.0 0.99989486
vn -0.01450491 0.0 0.99989486
vn 0.16482969 0.0 -0.98632205
vn 0.3826853 0.0 -0.9238788
vn 0.16482964 0.0 -0.98632205
vn 0.38268527 0.0 -0.9238788
vn 0.03663525 0.0 -0.99932873
vn 0.036635183 0.0 -0.99932873
vn -0.0 1.0 0.0
vn -0.0 1.0 0.0
vn -0.0 1.0 0.0
vn -0.0 1.0 0.0
vn -0.0 1.0 0.0
vn -0.0 1.0 0.0
vn -0.0 1.0 0.0
vn -0.0 1.0 0.0
vn -0.0 1.0 0.0
vn -0.0 1.0 0.0
vn -0.0 1.0 0.0
vn -0.0 1.0 0.0
vn -0.0 1.0 0.0
vn -0.0 1.0 0.0
vn -0.0 1.0 0.0
vn -0.0 1.0 0.0
vn -0.0 1.0 0.0
vn -0.0 1.0 0.0
vn -0.0 1.0 0.0
vn -0.0 1.0 0.0
vn -0.0 1.0 0.0
vn -0.0 1.0 0.0
vn -0.0 1.0 0.0
vn -0.0 1.0 0.0
vn -0.38268557 0.0 0.9238787
vn -0.5555721 0.0 0.8314684
vn -0.555572 0.0 0.83146846
vn -0.3826856 0.0 0.9238786
vn -0.70710784 0.0 0.7071057
vn -0.70710784 0.0 0.70710564
vn 0.38268548 0.0 -0.9238787
vn 0.55557203 0.0 -0.8314684
vn 0.5555721 0.0 -0.8314684
vn 0.3826855 0.0 -0.9238787
vn 0.70710796 0.0 -0.7071056
vn 0.7071079 0.0 -0.7071056
vn -0.0 1.0 0.0
vn -0.0 1.0 0.0
vn -0.0 1.0 0.0
vn -0.0 1.0 0.0
vn -0.0 1.0 0.0
vn -0.0 1.0 0.0
vn -0.38268554 0.0 0.9238787
vn -0.5555718 0.0 0.8314685
vn -0.55557185 0.0 0.8314685
vn -0.3826855 0.0 0.9238787
vn -0.7071083 0.0 0.70710516
vn -0.7071083 0.0 0.7071052
vn 0.3826853 0.0 -0.9238788
vn 0.5555718 0.0 -0.83146864
vn 0.5555721 0.0 -0.8314684
vn 0.38268527 0.0 -0.9238788
vn 0.7071078 0.0 -0.70710576
vn 0.70710796 0.0 -0.7071056
vn -0.0 1.0 0.0
vn -0.0 1.0 0.0
vn -0.0 1.0 0.0
vn -0.0 1.0 0.0
vn -0.0 1.0 0.0
vn -0.0 1.0 0.0
vn -0.92388004 0.0 0.38268238
vn -0.98078555 0.0 0.19508855
vn -0.9807854 0.0 0.19508965
vn -0.9238799 0.0 0.38268247
vn -0.99518484 0.0 0.09801574
vn -0.99518484 0.0 0.098015726
vn 0.9238799 0.0 -0.38268244
vn 0.98078555 0.0 -0.19508909
vn 0.98078555 0.0 -0.19508909
vn 0.9238799 0.0 -0.38268244
vn 0.99518484 0.0 -0.09801567
vn 0.99518484 0.0 -0.09801567
vn -0.0 1.0 0.0
vn -0.0 1.0 0.0
vn -0.0 1.0 0.0
vn -0.0 1.0 0.0
vn -0.0 1.0 0.0
vn -0.0 1.0 0.0
vn -0.9238796 0.0 0.38268313
vn -0.98078555 0.0 0.1950891
vn -0.98078555 0.0 0.1950891
vn -0.9238796 0.0 0.38268316
vn -0.99518496 0.0 0.09801522
vn -0.99518496 0.0 0.09801522
vn 0.92388004 0.0 -0.38268223
vn 0.98078555 0.0 -0.19508895
vn 0.98078555 0.0 -0.19508891
vn 0.92388004 0.0 -0.38268214
vn 0.99518484 0.0 -0.098016284
vn 0.99518484 0.0 -0.098016396
vn -0.0 1.0 0.0
vn -0.0 1.0 0.0
vn -0.0 1.0 0.0
vn -0.0 1.0 0.0
vn -0.0 1.0 0.0
vn -0.0 1.0 0.0
vn -0.83147025 0.0 0.55556923
vn -0.92388004 0.0 0.38268238
vn -0.83147025 0.0 0.5555692
vn -0.9238799 0.0 0.38268247
vn -0.70710784 0.0 0.70710564
vn -0.70710784 0.0 0.7071057
vn 0.83147025 0.0 -0.55556923
vn 0.9238799 0.0 -0.38268244
vn 0.83147025 0.0 -0.5555691
vn 0.9238799 0.0 -0.38268244
vn 0.7071079 0.0 -0.7071056
vn 0.70710796 0.0 -0.7071056
vn -0.0 1.0 0.0
vn -0.0 1.0 0.0
vn -0.0 1.0 0.0
vn -0.0 1.0 0.0
vn -0.0 1.0 0.0
vn -0.0 1.0 0.0
vn -0.83147025 0.0 0.55556923
vn -0.9238796 0.0 0.38268313
vn -0.83147025 0.0 0.55556923
vn -0.9238796 0.0 0.38268316
vn -0.7071083 0.0 0.7071052
vn -0.7071083 0.0 0.70710516
vn 0.8314704 0.0 -0.5555691
vn 0.92388004 0.0 -0.38268223
vn 0.83147025 0.0 -0.55556923
vn 0.92388004 0.0 -0.38268214
vn 0.70710796 0.0 -0.7071056
vn 0.7071078 0.0 -0.70710576
vn -0.0 1.0 0.0
vn -0.0 1.0 0.0
vn -0.0 1.0 0.0
vn -0.0 1.0 0.0
vn -0.0 1.0 0.0
vn -0.0 1.0 0.0
vn -0.0 1.0 0.0
vn -0.0 1.0 0.0
vn -0.0 1.0 0.0
vn -0.0 1.0 0.0
vn -0.0 1.0 0.0
vn -0.0 1.0 0.0
vn -0.0 1.0 0.0
vn -0.0 1.0 0.0
vn -0.0 1.0 0.0
vn -0.0 1.0 0.0
vn -0.0 1.0 0.0
vn -0.0 1.0 0.0
vn -0.0 1.0 0.0
vn -0.0 1.0 0.0
vn -0.0 1.0 0.0
vn -0.0 1.0 0.0
vn -0.0 1.0 0.0
vn -0.0 1.0 0.0
vn -0.0 1.0 0.0
vn -0.0 1.0 0.0
vn -0.0 1.0 0.0
vn -0.0 1.0 0.0
vn -0.0 1.0 0.0
vn -0.0 1.0 0.0
vn -0.0 1.0 0.0
vn -0.0 1.0 0.0
vn -0.0 1.0 0.0
vn -0.0 1.0 0.0
vn -0.0 1.0 0.0
vn -0.0 1.0 0.0
vn -0.0 1.0 0.0
vn -0.0 1.0 0.0
vn -0.0 1.0 0.0
vn -0.0 1.0 0.0
vn -0.0 1.0 0.0
vn -0.0 1.0 0.0
vn -0.0 1.0 0.0
vn -0.0 1.0 0.0
vn -0.0 1.0 0.0
vn -0.0 1.0 0.0
vn -0.0 1.0 0.0
vn -0.0 1.0 0.0
vn -0.0 1.0 0.0
vn -0.0 1.0 0.0
vn -0.0 1.0 0.0
vn -0.0 1.0 0.0
vn -0.0 1.0 0.0
vn -0.0 1.0 0.0
vn -0.0 1.0 0.0
vn -0.0 1.0 0.0
vn -0.0 1.0 0.0
vn -0.0 1.0 0.0
vn -0.0 1.0 0.0
vn -0.0 1.0 0.0
vn -0.0 1.0 0.0
vn -0.0 1.0 0.0
vn -0.0 1.0 0.0
vn -0.0 1.0 0.0
vn -0.0 1.0 0.0
vn -0.0 1.0 0.0
vn -0.0 1.0 0.0
vn -0.0 1.0 0.0
vn -0.0 1.0 0.0
vn -0.0 1.0 0.0
vn -0.0 1.0 0.0
vn -0.0 1.0 0.0
vt 0.5338496 0.751142
vt 0.38088495 0.7779535
vt 0.5338496 0.7779535
vt 0.38088492 0.751142
vt 0.68681425 0.751142
vt 0.68681425 0.7779535
vt 0.5338496 0.7779535
vt 0.38088495 0.78130496
vt 0.5338496 0.78130496
vt 0.38088495 0.7779535
vt 0.68681425 0.7779535
vt 0.68681425 0.78130496
vt 0.5338496 0.80811644
vt 0.38088495 0.8114679
vt 0.5338496 0.8114679
vt 0.38088495 0.80811644
vt 0.6868143 0.80811644
vt 0.6868143 0.8114679
vt 0.5616334 0.751142
vt 0.5185062 0.7779535
vt 0.5616334 0.7779535
vt 0.5185062 0.751142
vt 0.6047606 0.751142
vt 0.6047606 0.7779535
vt 0.5616334 0.7779535
vt 0.5185062 0.78130496
vt 0.5616334 0.78130496
vt 0.5185062 0.7779535
vt 0.6047606 0.7779535
vt 0.6047606 0.78130496
vt 0.5616334 0.80811644
vt 0.5185062 0.8114679
vt 0.5616334 0.8114679
vt 0.5185062 0.80811644
vt 0.6047606 0.80811644
vt 0.6047606 0.8114679
vt 0.6851581 0.116267264
vt 0.6247335 0.059263885
vt 0.6851581 0.059263885
vt 0.6247336 0.11626732
vt 0.56430936 0.11626732
vt 0.5643093 0.059263885
vt 0.7455825 0.116267204
vt 0.74558264 0.059263885
vt 0.5038851 0.059263885
vt 0.50388515 0.11626732
vt 0.4434609 0.059263885
vt 0.44346097 0.11626732
vt 0.38303673 0.059263825
vt 0.3830368 0.116267264
vt 0.32261226 0.116267264
vt 0.32261223 0.059263885
vt 0.26218772 0.059263945
vt 0.26218772 0.116267264
vt 0.38088495 0.7779535
vt 0.5331463 0.751142
vt 0.5331464 0.7779535
vt 0.38088492 0.751142
vt 0.68540776 0.7779535
vt 0.68540776 0.751142
vt 0.38088495 0.78130496
vt 0.5331464 0.7779535
vt 0.5331464 0.78130496
vt 0.38088495 0.7779535
vt 0.68540776 0.78130496
vt 0.68540776 0.7779535
vt 0.38088495 0.8114679
vt 0.5331464 0.80811644
vt 0.5331464 0.8114679
vt 0.38088495 0.80811644
vt 0.6854078 0.8114679
vt 0.6854078 0.80811644
vt 0.5185062 0.7779535
vt 0.56143516 0.751142
vt 0.56143516 0.7779535
vt 0.5185062 0.751142
vt 0.60436404 0.7779535
vt 0.60436404 0.751142
vt 0.5185062 0.78130496
vt 0.56143516 0.7779535
vt 0.56143516 0.78130496
vt 0.5185062 0.7779535
vt 0.60436404 0.78130496
vt 0.60436404 0.7779535
vt 0.5185062 0.8114679
vt 0.56143516 0.80811644
vt 0.56143516 0.8114679
vt 0.5185062 0.80811644
vt 0.60436404 0.8114679
vt 0.60436404 0.80811644
vt 0.38088495 0.7779535
vt 0.5338496 0.751142
vt 0.5338496 0.7779535
vt 0.38088492 0.751142
vt 0.68681425 0.7779535
vt 0.68681425 0.751142
vt 0.38088495 0.78130496
vt 0.5338496 0.7779535
vt 0.5338496 0.78130496
vt 0.38088495 0.7779535
vt 0.68681425 0.78130496
vt 0.68681425 0.7779535
vt 0.38088495 0.8114679
vt 0.5338496 0.80811644
vt 0.5338496 0.8114679
vt 0.38088495 0.80811644
vt 0.6868143 0.8114679
vt 0.6868143 0.80811644
vt 0.5185062 0.7779535
vt 0.5616334 0.751142
vt 0.5616334 0.7779535
vt 0.5185062 0.751142
vt 0.6047606 0.7779535
vt 0.6047606 0.751142
vt 0.5185062 0.78130496
vt 0.5616334 0.7779535
vt 0.5616334 0.78130496
vt 0.5185062 0.7779535
vt 0.6047606 0.78130496
vt 0.6047606 0.7779535
vt 0.5185062 0.8114679
vt 0.5616334 0.80811644
vt 0.5616334 0.8114679
vt 0.5185062 0.80811644
vt 0.6047606 0.8114679
vt 0.6047606 0.80811644
vt 0.5331463 0.751142
vt 0.38088495 0.7779535
vt 0.5331464 0.7779535
vt 0.38088492 0.751142
vt 0.68540776 0.751142
vt 0.68540776 0.7779535
vt 0.5331464 0.7779535
vt 0.38088495 0.78130496
vt 0.5331464 0.78130496
vt 0.38088495 0.7779535
vt 0.68540776 0.7779535
vt 0.68540776 0.78130496
vt 0.5331464 0.80811644
vt 0.38088495 0.8114679
vt 0.5331464 0.8114679
vt 0.38088495 0.80811644
vt 0.6854078 0.80811644
vt 0.6854078 0.8114679
vt 0.56143516 0.751142
vt 0.5185062 0.7779535
vt 0.56143516 0.7779535
vt 0.5185062 0.751142
vt 0.60436404 0.751142
vt 0.60436404 0.7779535
vt 0.56143516 0.7779535
vt 0.5185062 0.78130496
vt 0.56143516 0.78130496
vt 0.5185062 0.7779535
vt 0.60436404 0.7779535
vt 0.60436404 0.78130496
vt 0.56143516 0.80811644
vt 0.5185062 0.8114679
vt 0.56143516 0.8114679
vt 0.5185062 0.80811644
vt 0.60436404 0.80811644
vt 0.60436404 0.8114679
vt 0.9889418 0.42830837
vt 0.8664415 0.44509554
vt 0.8664415 0.42830837
vt 0.9889418 0.4450956
vt 0.74394125 0.4283083
vt 0.74394125 0.44509554
vt 0.6214415 0.44509554
vt 0.6214415 0.42830837
vt 0.49894175 0.42830837
vt 0.49894175 0.4450956
vt 0.37644202 0.44509554
vt 0.37644202 0.42830837
vt 0.25394228 0.4283083
vt 0.25394228 0.44509554
vt 0.13144204 0.44509554
vt 0.13144204 0.42830837
vt 0.008941819 0.42830837
vt 0.008941819 0.4450956
vt 0.6095512 3.4159422E-4
vt 0.5815158 0.12106907
vt 0.5815158 3.4159422E-4
vt 0.6095512 0.12106907
vt 0.5534803 3.4159422E-4
vt 0.5534803 0.12106907
vt 0.52544504 0.12106907
vt 0.52544504 3.4159422E-4
vt 0.4974098 3.4159422E-4
vt 0.4974098 0.12106907
vt 0.4693745 0.12106907
vt 0.4693745 3.4159422E-4
vt 0.44133922 3.4159422E-4
vt 0.44133922 0.12106907
vt 0.41330376 0.12106907
vt 0.41330376 3.4159422E-4
vt 0.3852683 3.4159422E-4
vt 0.38526836 0.12106907
vt 0.38963982 0.11615914
vt 0.41767523 0.059807897
vt 0.41767523 0.11615914
vt 0.38963982 0.059807897
vt 0.4457107 0.11615914
vt 0.4457107 0.059807897
vt 0.47374594 0.059807897
vt 0.47374594 0.1161592
vt 0.50178117 0.1161592
vt 0.50178117 0.059807956
vt 0.5298165 0.059807956
vt 0.5298165 0.1161592
vt 0.5578518 0.1161592
vt 0.5578518 0.059807956
vt 0.5858872 0.059807956
vt 0.5858872 0.1161592
vt 0.6139226 0.1161592
vt 0.61392266 0.059807956
vt 0.25276586 0.12106919
vt 0.3131904 8.856654E-4
vt 0.3131904 0.12106919
vt 0.25276586 8.856654E-4
vt 0.37361497 0.12106919
vt 0.37361497 8.856654E-4
vt 0.43403918 8.856654E-4
vt 0.43403918 0.12106919
vt 0.49446338 0.12106913
vt 0.49446338 8.856654E-4
vt 0.5548876 8.856654E-4
vt 0.5548876 0.12106919
vt 0.6153118 0.12106919
vt 0.6153118 8.856654E-4
vt 0.6757363 8.856058E-4
vt 0.6757363 0.12106913
vt 0.7361608 0.12106907
vt 0.7361608 8.855462E-4

g Three_Lane_90Degrees_05
s 1
usemtl Three_Lane_90Degrees_05
f 3/3/3 2/2/2 1/1/1 
f 4/4/4 1/1/1 2/2/2 
f 1/1/1 5/5/5 3/3/3 
f 6/6/6 3/3/3 5/5/5 
f 9/9/9 8/8/8 7/7/7 
f 10/10/10 7/7/7 8/8/8 
f 7/7/7 11/11/11 9/9/9 
f 12/12/12 9/9/9 11/11/11 
f 15/15/15 14/14/14 13/13/13 
f 16/16/16 13/13/13 14/14/14 
f 13/13/13 17/17/17 15/15/15 
f 18/18/18 15/15/15 17/17/17 
f 21/21/21 20/20/20 19/19/19 
f 22/22/22 19/19/19 20/20/20 
f 19/19/19 23/23/23 21/21/21 
f 24/24/24 21/21/21 23/23/23 
f 27/27/27 26/26/26 25/25/25 
f 28/28/28 25/25/25 26/26/26 
f 25/25/25 29/29/29 27/27/27 
f 30/30/30 27/27/27 29/29/29 
f 33/33/33 32/32/32 31/31/31 
f 34/34/34 31/31/31 32/32/32 
f 31/31/31 35/35/35 33/33/33 
f 36/36/36 33/33/33 35/35/35 
f 39/39/39 38/38/38 37/37/37 
f 40/40/40 37/37/37 38/38/38 
f 40/40/40 38/38/38 41/41/41 
f 42/42/42 41/41/41 38/38/38 
f 37/37/37 43/43/43 39/39/39 
f 44/44/44 39/39/39 43/43/43 
f 42/42/42 45/45/45 41/41/41 
f 46/46/46 41/41/41 45/45/45 
f 45/45/45 47/47/47 46/46/46 
f 48/48/48 46/46/46 47/47/47 
f 47/47/47 49/49/49 48/48/48 
f 50/50/50 48/48/48 49/49/49 
f 50/50/50 49/49/49 51/51/51 
f 52/52/52 51/51/51 49/49/49 
f 52/52/52 53/53/53 51/51/51 
f 54/54/54 51/51/51 53/53/53 
f 57/57/57 56/56/56 55/55/55 
f 58/58/58 55/55/55 56/56/56 
f 57/57/57 59/59/59 56/56/56 
f 60/60/60 56/56/56 59/59/59 
f 63/63/63 62/62/62 61/61/61 
f 64/64/64 61/61/61 62/62/62 
f 63/63/63 65/65/65 62/62/62 
f 66/66/66 62/62/62 65/65/65 
f 69/69/69 68/68/68 67/67/67 
f 70/70/70 67/67/67 68/68/68 
f 69/69/69 71/71/71 68/68/68 
f 72/72/72 68/68/68 71/71/71 
f 75/75/75 74/74/74 73/73/73 
f 76/76/76 73/73/73 74/74/74 
f 75/75/75 77/77/77 74/74/74 
f 78/78/78 74/74/74 77/77/77 
f 81/81/81 80/80/80 79/79/79 
f 82/82/82 79/79/79 80/80/80 
f 81/81/81 83/83/83 80/80/80 
f 84/84/84 80/80/80 83/83/83 
f 87/87/87 86/86/86 85/85/85 
f 88/88/88 85/85/85 86/86/86 
f 87/87/87 89/89/89 86/86/86 
f 90/90/90 86/86/86 89/89/89 
f 93/93/93 92/92/92 91/91/91 
f 94/94/94 91/91/91 92/92/92 
f 93/93/93 95/95/95 92/92/92 
f 96/96/96 92/92/92 95/95/95 
f 99/99/99 98/98/98 97/97/97 
f 100/100/100 97/97/97 98/98/98 
f 99/99/99 101/101/101 98/98/98 
f 102/102/102 98/98/98 101/101/101 
f 105/105/105 104/104/104 103/103/103 
f 106/106/106 103/103/103 104/104/104 
f 105/105/105 107/107/107 104/104/104 
f 108/108/108 104/104/104 107/107/107 
f 111/111/111 110/110/110 109/109/109 
f 112/112/112 109/109/109 110/110/110 
f 111/111/111 113/113/113 110/110/110 
f 114/114/114 110/110/110 113/113/113 
f 117/117/117 116/116/116 115/115/115 
f 118/118/118 115/115/115 116/116/116 
f 117/117/117 119/119/119 116/116/116 
f 120/120/120 116/116/116 119/119/119 
f 123/123/123 122/122/122 121/121/121 
f 124/124/124 121/121/121 122/122/122 
f 123/123/123 125/125/125 122/122/122 
f 126/126/126 122/122/122 125/125/125 
f 129/129/129 128/128/128 127/127/127 
f 130/130/130 127/127/127 128/128/128 
f 127/127/127 131/131/131 129/129/129 
f 132/132/132 129/129/129 131/131/131 
f 135/135/135 134/134/134 133/133/133 
f 136/136/136 133/133/133 134/134/134 
f 133/133/133 137/137/137 135/135/135 
f 138/138/138 135/135/135 137/137/137 
f 141/141/141 140/140/140 139/139/139 
f 142/142/142 139/139/139 140/140/140 
f 139/139/139 143/143/143 141/141/141 
f 144/144/144 141/141/141 143/143/143 
f 147/147/147 146/146/146 145/145/145 
f 148/148/148 145/145/145 146/146/146 
f 145/145/145 149/149/149 147/147/147 
f 150/150/150 147/147/147 149/149/149 
f 153/153/153 152/152/152 151/151/151 
f 154/154/154 151/151/151 152/152/152 
f 151/151/151 155/155/155 153/153/153 
f 156/156/156 153/153/153 155/155/155 
f 159/159/159 158/158/158 157/157/157 
f 160/160/160 157/157/157 158/158/158 
f 157/157/157 161/161/161 159/159/159 
f 162/162/162 159/159/159 161/161/161 
f 165/165/165 164/164/164 163/163/163 
f 166/166/166 163/163/163 164/164/164 
f 165/165/165 167/167/167 164/164/164 
f 168/168/168 164/164/164 167/167/167 
f 168/168/168 167/167/167 169/169/169 
f 170/170/170 169/169/169 167/167/167 
f 170/170/170 171/171/171 169/169/169 
f 172/172/172 169/169/169 171/171/171 
f 172/172/172 171/171/171 173/173/173 
f 174/174/174 173/173/173 171/171/171 
f 174/174/174 175/175/175 173/173/173 
f 176/176/176 173/173/173 175/175/175 
f 176/176/176 175/175/175 177/177/177 
f 178/178/178 177/177/177 175/175/175 
f 178/178/178 179/179/179 177/177/177 
f 180/180/180 177/177/177 179/179/179 
f 183/183/183 182/182/182 181/181/181 
f 184/184/184 181/181/181 182/182/182 
f 183/183/183 185/185/185 182/182/182 
f 186/186/186 182/182/182 185/185/185 
f 186/186/186 185/185/185 187/187/187 
f 188/188/188 187/187/187 185/185/185 
f 188/188/188 189/189/189 187/187/187 
f 190/190/190 187/187/187 189/189/189 
f 190/190/190 189/189/189 191/191/191 
f 192/192/192 191/191/191 189/189/189 
f 192/192/192 193/193/193 191/191/191 
f 194/194/194 191/191/191 193/193/193 
f 194/194/194 193/193/193 195/195/195 
f 196/196/196 195/195/195 193/193/193 
f 196/196/196 197/197/197 195/195/195 
f 198/198/198 195/195/195 197/197/197 
f 201/201/201 200/200/200 199/199/199 
f 202/202/202 199/199/199 200/200/200 
f 201/201/201 203/203/203 200/200/200 
f 204/204/204 200/200/200 203/203/203 
f 204/204/204 203/203/203 205/205/205 
f 206/206/206 205/205/205 203/203/203 
f 206/206/206 207/207/207 205/205/205 
f 208/208/208 205/205/205 207/207/207 
f 208/208/208 207/207/207 209/209/209 
f 210/210/210 209/209/209 207/207/207 
f 210/210/210 211/211/211 209/209/209 
f 212/212/212 209/209/209 211/211/211 
f 212/212/212 211/211/211 213/213/213 
f 214/214/214 213/213/213 211/211/211 
f 214/214/214 215/215/215 213/213/213 
f 216/216/216 213/213/213 215/215/215 
f 219/219/219 218/218/218 217/217/217 
f 220/220/220 217/217/217 218/218/218 
f 219/219/219 221/221/221 218/218/218 
f 222/222/222 218/218/218 221/221/221 
f 222/222/222 221/221/221 223/223/223 
f 224/224/224 223/223/223 221/221/221 
f 224/224/224 225/225/225 223/223/223 
f 226/226/226 223/223/223 225/225/225 
f 226/226/226 225/225/225 227/227/227 
f 228/228/228 227/227/227 225/225/225 
f 228/228/228 229/229/229 227/227/227 
f 230/230/230 227/227/227 229/229/229 
f 230/230/230 229/229/229 231/231/231 
f 232/232/232 231/231/231 229/229/229 
f 232/232/232 233/233/233 231/231/231 
f 234/234/234 231/231/231 233/233/233 

