# Created by DisUnity v0.3.4
v -4.5078945 -0.0046821604 -5.8735905
v -4.5078974 3.5092602 -5.8735905
v -4.507884 -0.004681667 5.4933376
v -4.507886 5.5195107 5.4933376
v -4.5078974 5.5080585 -5.8735905
v -3.3629897 10.049137 -3.6989498
v -4.507887 9.002675 5.4933376
v -4.5078974 9.002675 -5.8735905
v -1.5259134 11.737624 -0.19012666
v 1.1189092 3.5092602 -5.873591
v 4.4694595 9.002675 -5.873591
v 1.1517901 9.002675 -5.8735905
v 4.4694595 3.5092602 -5.873591
v -1.460261 9.002675 -5.8735905
v -1.6242667 3.5092602 -5.873591
v -1.6242621 -0.0046821604 -5.873591
v 1.1189103 2.9205146 -5.8735914
v 1.1189154 -0.0046821604 -5.8735914
v -4.5078945 -0.0046821604 -5.8735905
v -4.5078974 3.5092602 -5.8735905
v -2.6276817 9.002675 -5.873591
v -3.9010592 9.002675 -5.8735905
v -4.5078974 5.5080585 -5.8735905
v -4.5078974 9.002675 -5.8735905
v -1.5259134 11.737624 -0.19012666
v 2.7805004 10.237441 -3.3076422
v 0.74877405 11.737624 -0.1901267
v -0.23351426 10.153242 -3.4826136
v -3.3629897 10.049137 -3.6989498
v -2.6276817 9.002675 -5.873591
v -1.460261 9.002675 -5.8735905
v 1.1517901 9.002675 -5.8735905
v 1.1189157 -0.00468223 -7.463937
v 4.4694595 2.9205565 -7.463937
v 1.1189095 2.9205565 -7.463937
v 4.4694595 -0.00468223 -7.4639363
v 1.1189103 2.9205146 -5.8735914
v 1.1189095 2.9205565 -7.463937
v 1.1189092 3.5092602 -5.873591
v 1.1189092 3.5092602 -5.873591
v 4.4694595 2.9205565 -7.463937
v 4.4694595 3.5092602 -5.873591
v 1.1189095 2.9205565 -7.463937
v 4.4694595 -0.0046821604 -5.87359
v 4.4694595 2.9205565 -7.463937
v 4.4694595 -0.00468223 -7.4639363
v 4.4694595 2.9205565 -5.873591
v -1.5259134 11.737624 -0.19012666
v 4.4694576 9.002675 5.4933367
v -4.507887 9.002675 5.4933376
v 0.74877405 11.737624 -0.1901267
v 4.4694576 9.002675 5.4933367
v 4.4694595 3.5092602 -5.873591
v 4.4694576 5.5195107 5.493337
v 4.4694595 9.002675 -5.873591
v 4.4694576 -0.004681587 5.4933376
v 4.4694595 -0.004682064 -5.87359
v 2.7805004 10.237441 -3.3076422
v 4.4694595 9.002675 -5.873591
v 4.4694576 9.002675 5.4933367
v 0.74877405 11.737624 -0.1901267
v 2.780501 10.237441 -5.873233
v 4.4694595 9.002675 -5.873591
v 2.7805004 10.237441 -3.3076422
v -3.9010592 9.002675 -5.8735905
v -3.3629897 10.049137 -3.6989498
v -4.5078974 9.002675 -5.8735905
v -1.460261 9.002675 -5.8735905
v -0.23205477 10.163497 -5.873294
v -0.23351426 10.153242 -3.4826136
v 1.1517901 9.002675 -5.8735905
v -0.23351426 10.153242 -3.4826136
v -0.23205477 10.163497 -5.873294
v -3.9010592 9.002675 -5.8735905
v -3.2961416 10.027788 -5.873745
v -3.3629897 10.049137 -3.6989498
v -3.2961416 10.027788 -5.873745
v -2.6276817 9.002675 -5.873591
v -3.3629897 10.049137 -3.6989498
v -0.23205477 10.163497 -5.873294
v -1.460261 9.002675 -5.8735905
v 1.1517901 9.002675 -5.8735905
v -3.2961416 10.027788 -5.873745
v -3.9010592 9.002675 -5.8735905
v -2.6276817 9.002675 -5.873591
v 1.1517901 9.002675 -5.8735905
v 2.780501 10.237441 -5.873233
v 2.7805004 10.237441 -3.3076422
v 1.1517901 9.002675 -5.8735905
v 4.4694595 9.002675 -5.873591
v 2.780501 10.237441 -5.873233
v 4.4694595 2.9205565 -7.463937
v 4.4694595 2.9205565 -5.873591
v 4.4694595 3.5092602 -5.873591
v 1.1189154 -0.0046821604 -5.8735914
v 1.1189095 2.9205565 -7.463937
v 1.1189103 2.9205146 -5.8735914
v 1.1189157 -0.00468223 -7.463937
v -4.507887 9.002675 5.4933376
v -4.5078974 5.5080585 -5.8735905
v -4.5078974 9.002675 -5.8735905
v -4.507886 5.5195107 5.4933376
v 4.4694576 9.002675 5.4933367
v -4.507886 5.5195107 5.4933376
v -4.507887 9.002675 5.4933376
v 4.4694576 5.5195107 5.493337
v 4.4694576 -0.004681587 5.4933376
v -4.507884 -0.004681667 5.4933376
v -4.449961 4.1737113 7.380929
v -1.764937 2.6738393 7.3809285
v -4.449961 2.6738393 7.380929
v -1.764937 4.1737113 7.3809285
v -4.449961 4.1737113 5.410329
v -4.449961 2.6738393 7.380929
v -4.449961 2.6738393 5.410329
v -4.449961 4.1737113 7.380929
v -4.449961 2.6738393 5.410329
v -1.764937 2.6738393 7.3809285
v -1.7649368 2.6738393 5.410329
v -4.449961 2.6738393 7.380929
v -1.7649368 2.6738393 5.410329
v -1.764937 4.1737113 7.3809285
v -1.7649368 4.1737113 5.410329
v -1.764937 2.6738393 7.3809285
v -1.8720267 2.7570662 5.446159
v -4.3428717 2.7570662 7.273839
v -4.3428717 2.7570662 5.446159
v -1.8720269 2.7570662 7.2738385
v -1.8654319 -0.005000353 6.9767165
v -2.0112362 2.6942084 6.9767165
v -2.0112333 -0.005000353 6.9767165
v -1.8654319 2.6942084 6.9767165
v -2.0112333 -0.005000353 6.9767165
v -2.0112364 2.6942084 7.292081
v -2.0112336 -0.005000353 7.292081
v -2.0112362 2.6942084 6.9767165
v -2.0112336 -0.005000353 7.292081
v -1.8654319 2.6942084 7.292081
v -1.8654319 -0.005000353 7.292081
v -2.0112364 2.6942084 7.292081
v -1.8654319 -0.005000353 7.292081
v -1.8654319 2.6942084 6.9767165
v -1.8654319 -0.005000353 6.9767165
v -1.8654319 2.6942084 7.292081
v -4.02901 -0.005000353 6.9767165
v -4.3524666 2.6942084 6.9767165
v -4.3524632 -0.005000353 6.9767165
v -4.029007 2.6942084 6.9767165
v -4.3524632 -0.005000353 6.9767165
v -4.3524666 2.6942084 7.292081
v -4.3524632 -0.005000353 7.292081
v -4.3524666 2.6942084 6.9767165
v -4.3524632 -0.005000353 7.292081
v -4.029007 2.6942084 7.292081
v -4.02901 -0.005000353 7.292081
v -4.3524666 2.6942084 7.292081
v -4.02901 -0.005000353 7.292081
v -4.029007 2.6942084 6.9767165
v -4.02901 -0.005000353 6.9767165
v -4.029007 2.6942084 7.292081
v -4.449961 4.1737113 5.446159
v -4.3428717 4.1737113 7.273839
v -4.449961 4.1737113 7.380929
v -4.3428717 4.1737113 5.446159
v -4.449961 4.1737113 7.380929
v -1.8720269 4.1737113 7.2738385
v -1.764937 4.1737113 7.3809285
v -4.3428717 4.1737113 7.273839
v -1.764937 4.1737113 7.3809285
v -1.8720267 4.1737113 5.446159
v -1.7649368 4.1737113 5.446159
v -1.8720269 4.1737113 7.2738385
v -4.3428717 4.1737113 5.446159
v -4.3428717 2.7570662 7.273839
v -4.3428717 4.1737113 7.273839
v -4.3428717 2.7570662 5.446159
v -4.3428717 4.1737113 7.273839
v -1.8720269 2.7570662 7.2738385
v -1.8720269 4.1737113 7.2738385
v -4.3428717 2.7570662 7.273839
v -1.8720269 4.1737113 7.2738385
v -1.8720267 2.7570662 5.446159
v -1.8720267 4.1737113 5.446159
v -1.8720269 2.7570662 7.2738385
vn -1.0 0.0 0.0
vn -1.0 0.0 0.0
vn -1.0 0.0 0.0
vn -1.0 0.0 0.0
vn -1.0 0.0 0.0
vn -0.67466074 0.738128 0.0
vn -0.67466074 0.738128 0.0
vn -0.67466074 0.738128 0.0
vn -0.6763131 0.7366141 -3.7752133E-4
vn -0.0 0.0 -1.0
vn -0.0 0.0 -1.0
vn -0.0 0.0 -1.0
vn -0.0 0.0 -1.0
vn -0.0 0.0 -1.0
vn -0.0 0.0 -1.0
vn -0.0 0.0 -1.0
vn -0.0 0.0 -1.0
vn -0.0 0.0 -1.0
vn -0.0 0.0 -1.0
vn -0.0 0.0 -1.0
vn -0.0 0.0 -1.0
vn -0.0 0.0 -1.0
vn -0.0 0.0 -1.0
vn -0.0 0.0 -1.0
vn -0.0 0.90109676 -0.43361804
vn -0.0 0.90109676 -0.433618
vn -0.0 0.9010969 -0.43361783
vn -0.0 0.90109676 -0.4336182
vn -0.0 0.90109676 -0.43361813
vn -0.0 0.9010966 -0.43361834
vn -0.0 0.90109646 -0.4336186
vn -0.0 0.90109646 -0.4336187
vn -0.0 0.0 -1.0
vn -0.0 0.0 -1.0
vn -0.0 0.0 -1.0
vn -0.0 0.0 -1.0
vn -1.0 0.0 0.0
vn -1.0 0.0 0.0
vn -1.0 0.0 0.0
vn -0.0 0.93780893 -0.34715188
vn -0.0 0.93780893 -0.34715182
vn -0.0 0.93780893 -0.34715185
vn -0.0 0.93780893 -0.34715185
vn 1.0 0.0 0.0
vn 1.0 0.0 0.0
vn 1.0 0.0 0.0
vn 1.0 0.0 0.0
vn -0.0 0.90109664 0.43361822
vn -0.0 0.90109664 0.43361825
vn -0.0 0.90109664 0.4336182
vn -0.0 0.90109664 0.43361828
vn 1.0 0.0 0.0
vn 1.0 0.0 0.0
vn 1.0 0.0 0.0
vn 1.0 0.0 0.0
vn 1.0 0.0 0.0
vn 1.0 0.0 0.0
vn 0.59018075 0.8072711 0.0
vn 0.59018075 0.8072711 0.0
vn 0.59018075 0.8072711 0.0
vn 0.59313446 0.805103 -8.709021E-4
vn 0.5901809 0.80727106 0.0
vn 0.5901808 0.80727106 0.0
vn 0.5901808 0.80727106 0.0
vn -0.0 0.90109676 -0.43361813
vn -0.0 0.90109676 -0.43361813
vn -0.0 0.90109676 -0.43361813
vn -0.68688697 0.7267592 0.0026981048
vn -0.68688697 0.7267592 0.0026981048
vn -0.68688697 0.7267592 0.0026981048
vn 0.64266616 0.7661374 0.0036787016
vn 0.64266616 0.7661375 0.0036787016
vn 0.64266616 0.7661374 0.0036787014
vn -0.8608083 0.50795686 -0.031445585
vn -0.8608083 0.5079568 -0.031445585
vn -0.8608083 0.5079568 -0.031445585
vn 0.8374697 0.54610366 0.020380987
vn 0.8374697 0.54610366 0.020380987
vn 0.8374697 0.54610366 0.020380987
vn -0.0 2.5550235E-4 -1.0
vn -0.0 2.5550235E-4 -1.0
vn -0.0 2.5550235E-4 -1.0
vn -0.0 -1.5048946E-4 -1.0
vn -0.0 -1.5048946E-4 -1.0
vn -0.0 -1.5048948E-4 -1.0
vn -0.6041356 0.7968815 0.0
vn -0.60413563 0.7968815 0.0
vn -0.6041357 0.7968815 0.0
vn -0.0 2.898217E-4 -1.0
vn -0.0 2.898217E-4 -1.0
vn -0.0 2.898217E-4 -1.0
vn 1.0 0.0 0.0
vn 1.0 0.0 0.0
vn 1.0 0.0 0.0
vn -1.0 0.0 0.0
vn -1.0 0.0 0.0
vn -1.0 0.0 0.0
vn -1.0 0.0 0.0
vn -1.0 0.0 0.0
vn -1.0 0.0 0.0
vn -1.0 0.0 0.0
vn -1.0 0.0 0.0
vn -0.0 0.0 1.0
vn -0.0 0.0 1.0
vn -0.0 0.0 1.0
vn -0.0 0.0 1.0
vn -0.0 0.0 1.0
vn -0.0 0.0 1.0
vn -0.0 0.0 1.0
vn -0.0 0.0 1.0
vn -0.0 0.0 1.0
vn -0.0 0.0 1.0
vn -1.0 0.0 0.0
vn -1.0 0.0 0.0
vn -1.0 0.0 0.0
vn -1.0 0.0 0.0
vn -0.0 -1.0 0.0
vn -0.0 -1.0 0.0
vn -0.0 -1.0 0.0
vn -0.0 -1.0 0.0
vn 1.0 0.0 0.0
vn 1.0 0.0 0.0
vn 1.0 0.0 0.0
vn 1.0 0.0 0.0
vn -0.0 1.0 0.0
vn -0.0 1.0 0.0
vn -0.0 1.0 0.0
vn -0.0 1.0 0.0
vn -0.0 0.0 -1.0
vn -0.0 0.0 -1.0
vn -0.0 0.0 -1.0
vn -0.0 0.0 -1.0
vn -1.0 0.0 0.0
vn -1.0 0.0 0.0
vn -1.0 0.0 0.0
vn -1.0 0.0 0.0
vn -0.0 0.0 1.0
vn -0.0 0.0 1.0
vn -0.0 0.0 1.0
vn -0.0 0.0 1.0
vn 1.0 0.0 0.0
vn 1.0 0.0 0.0
vn 1.0 0.0 0.0
vn 1.0 0.0 0.0
vn -0.0 0.0 -1.0
vn -0.0 0.0 -1.0
vn -0.0 0.0 -1.0
vn -0.0 0.0 -1.0
vn -1.0 0.0 0.0
vn -1.0 0.0 0.0
vn -1.0 0.0 0.0
vn -1.0 0.0 0.0
vn -0.0 0.0 1.0
vn -0.0 0.0 1.0
vn -0.0 0.0 1.0
vn -0.0 0.0 1.0
vn 1.0 0.0 0.0
vn 1.0 0.0 0.0
vn 1.0 0.0 0.0
vn 1.0 0.0 0.0
vn -0.0 1.0 0.0
vn -0.0 1.0 0.0
vn -0.0 1.0 0.0
vn -0.0 1.0 0.0
vn -0.0 1.0 0.0
vn -0.0 1.0 0.0
vn -0.0 1.0 0.0
vn -0.0 1.0 0.0
vn -0.0 1.0 0.0
vn -0.0 1.0 0.0
vn -0.0 1.0 0.0
vn -0.0 1.0 0.0
vn 1.0 0.0 0.0
vn 1.0 0.0 0.0
vn 1.0 0.0 0.0
vn 1.0 0.0 0.0
vn -0.0 0.0 -1.0
vn -0.0 0.0 -1.0
vn -0.0 0.0 -1.0
vn -0.0 0.0 -1.0
vn -1.0 0.0 0.0
vn -1.0 0.0 0.0
vn -1.0 0.0 0.0
vn -1.0 0.0 0.0
vt 0.18540035 0.50478464
vt 0.18540035 0.45458233
vt 0.05675711 0.50478464
vt 0.05675711 0.4300837
vt 0.18540035 0.4300837
vt 0.34903857 0.37237817
vt 0.2384825 0.38785368
vt 0.37836432 0.38785368
vt 0.3095616 0.35314935
vt 0.48641488 0.45908022
vt 0.4428488 0.3876512
vt 0.48598734 0.3876512
vt 0.4428488 0.45908022
vt 0.51995075 0.3876512
vt 0.52208346 0.45908022
vt 0.52208334 0.5047705
vt 0.48641488 0.46673536
vt 0.48641476 0.5047705
vt 0.5595782 0.5047705
vt 0.5595782 0.45908022
vt 0.5351306 0.3876512
vt 0.5516877 0.3876512
vt 0.5595782 0.43309063
vt 0.5595782 0.3876512
vt 0.49111754 0.3481443
vt 0.5423132 0.3655424
vt 0.5169047 0.3481443
vt 0.50488734 0.36569262
vt 0.46822077 0.3680386
vt 0.47738543 0.38215047
vt 0.48814154 0.38212395
vt 0.5218972 0.38183296
vt 0.51976365 0.50607294
vt 0.48764223 0.46474278
vt 0.52020717 0.46474278
vt 0.4871987 0.50607294
vt 0.07684366 0.38630164
vt 0.044337176 0.3861385
vt 0.07684366 0.37492585
vt 0.3169366 0.3700822
vt 0.28394967 0.38677847
vt 0.28394967 0.3700822
vt 0.3169366 0.38677847
vt 0.18836157 0.50478464
vt 0.20316705 0.46363062
vt 0.20316705 0.50478464
vt 0.18836157 0.46363062
vt 0.28241837 0.34957385
vt 0.36476016 0.38776666
vt 0.24146335 0.38776666
vt 0.3136595 0.34957385
vt 0.04455618 0.38650215
vt 0.18532647 0.45740908
vt 0.04455618 0.43102938
vt 0.18532647 0.38650215
vt 0.04455618 0.50478464
vt 0.18532647 0.50478464
vt 0.34360656 0.3698389
vt 0.3782092 0.38785368
vt 0.23832743 0.38785368
vt 0.3094065 0.35314935
vt 0.3355739 0.36667734
vt 0.33557874 0.38469213
vt 0.3009761 0.36667734
vt 0.4615146 0.38215047
vt 0.46822077 0.3680386
vt 0.4539511 0.38215047
vt 0.33573383 0.38476634
vt 0.3357299 0.3676744
vt 0.3034907 0.36781275
vt 0.33557874 0.38476634
vt 0.3033356 0.36781275
vt 0.33557475 0.3676744
vt 0.33573383 0.38476634
vt 0.33573592 0.36950457
vt 0.3064081 0.36921662
vt 0.33558083 0.36950457
vt 0.33557874 0.38476634
vt 0.30625296 0.36921662
vt 0.5020815 0.36879152
vt 0.48518506 0.38777393
vt 0.5193761 0.38769752
vt 0.42425138 0.3637069
vt 0.41008133 0.38154966
vt 0.43990254 0.38154966
vt 0.33573383 0.38476634
vt 0.33572906 0.36667734
vt 0.3011312 0.36667734
vt 0.40877098 0.38231045
vt 0.44188845 0.38225633
vt 0.42504317 0.36560506
vt 0.044379465 0.3859859
vt 0.076886036 0.3862676
vt 0.076886036 0.3747732
vt 0.18851672 0.50478464
vt 0.20332211 0.46363062
vt 0.18851672 0.46363062
vt 0.20332211 0.50478464
vt 0.05675711 0.38652772
vt 0.18540035 0.43193322
vt 0.18540035 0.38652772
vt 0.05675711 0.43193322
vt 0.38274956 0.3875993
vt 0.2344396 0.4302523
vt 0.2344396 0.3875993
vt 0.38274956 0.4302523
vt 0.38274956 0.50478464
vt 0.23443963 0.50478464
vt 0.23683053 0.4453892
vt 0.2791151 0.46729022
vt 0.23683053 0.46709418
vt 0.2791151 0.44558525
vt 0.04277935 0.44683027
vt 0.009860432 0.4669351
vt 0.04277935 0.4669351
vt 0.009860432 0.44683027
vt 0.4705866 0.4976549
vt 0.4633311 0.49278623
vt 0.4633311 0.4976549
vt 0.4705866 0.49278623
vt 0.04277935 0.4669351
vt 0.009860432 0.44683027
vt 0.04277935 0.44683027
vt 0.009860432 0.4669351
vt 0.45178545 0.4977281
vt 0.46109825 0.49259007
vt 0.46109825 0.4977281
vt 0.45178533 0.49259043
vt 0.23770568 0.50478464
vt 0.23996976 0.46872532
vt 0.23996976 0.50478464
vt 0.23770568 0.46872532
vt 0.013181057 0.5043441
vt 0.010813417 0.46702516
vt 0.010813417 0.5043441
vt 0.013181057 0.46702516
vt 0.2751799 0.50478464
vt 0.27756724 0.46863186
vt 0.27756724 0.50478464
vt 0.27517983 0.46863186
vt 0.010813417 0.5043441
vt 0.013181057 0.46702516
vt 0.013181057 0.5043441
vt 0.010813417 0.46702516
vt 0.23770568 0.50478464
vt 0.23996976 0.46872532
vt 0.23996976 0.50478464
vt 0.23770568 0.46872532
vt 0.013181057 0.5043441
vt 0.010813417 0.46702516
vt 0.010813417 0.5043441
vt 0.013181057 0.46702516
vt 0.23770568 0.50478464
vt 0.23996976 0.46872532
vt 0.23996976 0.50478464
vt 0.23770568 0.46872532
vt 0.010813417 0.5043441
vt 0.013181057 0.46702516
vt 0.013181057 0.5043441
vt 0.010813417 0.46702516
vt 0.24905843 0.46360308
vt 0.2686816 0.4624533
vt 0.26983148 0.46360308
vt 0.24905843 0.4624533
vt 0.24503076 0.46354836
vt 0.27270925 0.46239847
vt 0.27385902 0.46354836
vt 0.24618053 0.46239847
vt 0.26983148 0.46235293
vt 0.24905843 0.4635027
vt 0.24905843 0.46235293
vt 0.2686816 0.4635027
vt 0.00986553 0.46454036
vt 0.031769942 0.4468733
vt 0.031769942 0.46454036
vt 0.00986553 0.4468733
vt 0.23683053 0.4648733
vt 0.2791151 0.44533116
vt 0.2791151 0.4649409
vt 0.23683053 0.44526356
vt 0.009870958 0.46454036
vt 0.03310589 0.4468733
vt 0.03310589 0.46454036
vt 0.009870958 0.4468733

g Townhome_Blue_Small
s 1
usemtl Townhome_Blue_Small
f 3/3/3 2/2/2 1/1/1 
f 3/3/3 4/4/4 2/2/2 
f 5/5/5 2/2/2 4/4/4 
f 8/8/8 7/7/7 6/6/6 
f 9/9/9 6/6/6 7/7/7 
f 12/12/12 11/11/11 10/10/10 
f 13/13/13 10/10/10 11/11/11 
f 12/12/12 10/10/10 14/14/14 
f 15/15/15 14/14/14 10/10/10 
f 15/15/15 10/10/10 16/16/16 
f 10/10/10 17/17/17 16/16/16 
f 16/16/16 17/17/17 18/18/18 
f 16/16/16 19/19/19 15/15/15 
f 20/20/20 15/15/15 19/19/19 
f 21/21/21 14/14/14 15/15/15 
f 15/15/15 20/20/20 21/21/21 
f 22/22/22 21/21/21 20/20/20 
f 20/20/20 23/23/23 22/22/22 
f 24/24/24 22/22/22 23/23/23 
f 27/27/27 26/26/26 25/25/25 
f 28/28/28 25/25/25 26/26/26 
f 29/29/29 25/25/25 28/28/28 
f 29/29/29 28/28/28 30/30/30 
f 31/31/31 30/30/30 28/28/28 
f 28/28/28 26/26/26 32/32/32 
f 35/35/35 34/34/34 33/33/33 
f 36/36/36 33/33/33 34/34/34 
f 39/39/39 38/38/38 37/37/37 
f 42/42/42 41/41/41 40/40/40 
f 43/43/43 40/40/40 41/41/41 
f 46/46/46 45/45/45 44/44/44 
f 47/47/47 44/44/44 45/45/45 
f 50/50/50 49/49/49 48/48/48 
f 51/51/51 48/48/48 49/49/49 
f 54/54/54 53/53/53 52/52/52 
f 55/55/55 52/52/52 53/53/53 
f 54/54/54 56/56/56 53/53/53 
f 57/57/57 53/53/53 56/56/56 
f 60/60/60 59/59/59 58/58/58 
f 61/61/61 60/60/60 58/58/58 
f 64/64/64 63/63/63 62/62/62 
f 67/67/67 66/66/66 65/65/65 
f 70/70/70 69/69/69 68/68/68 
f 73/73/73 72/72/72 71/71/71 
f 76/76/76 75/75/75 74/74/74 
f 79/79/79 78/78/78 77/77/77 
f 82/82/82 81/81/81 80/80/80 
f 85/85/85 84/84/84 83/83/83 
f 88/88/88 87/87/87 86/86/86 
f 91/91/91 90/90/90 89/89/89 
f 94/94/94 93/93/93 92/92/92 
f 97/97/97 96/96/96 95/95/95 
f 98/98/98 95/95/95 96/96/96 
f 101/101/101 100/100/100 99/99/99 
f 102/102/102 99/99/99 100/100/100 
f 105/105/105 104/104/104 103/103/103 
f 106/106/106 103/103/103 104/104/104 
f 106/106/106 104/104/104 107/107/107 
f 108/108/108 107/107/107 104/104/104 
f 111/111/111 110/110/110 109/109/109 
f 112/112/112 109/109/109 110/110/110 
f 115/115/115 114/114/114 113/113/113 
f 116/116/116 113/113/113 114/114/114 
f 119/119/119 118/118/118 117/117/117 
f 120/120/120 117/117/117 118/118/118 
f 123/123/123 122/122/122 121/121/121 
f 124/124/124 121/121/121 122/122/122 
f 127/127/127 126/126/126 125/125/125 
f 128/128/128 125/125/125 126/126/126 
f 131/131/131 130/130/130 129/129/129 
f 132/132/132 129/129/129 130/130/130 
f 135/135/135 134/134/134 133/133/133 
f 136/136/136 133/133/133 134/134/134 
f 139/139/139 138/138/138 137/137/137 
f 140/140/140 137/137/137 138/138/138 
f 143/143/143 142/142/142 141/141/141 
f 144/144/144 141/141/141 142/142/142 
f 147/147/147 146/146/146 145/145/145 
f 148/148/148 145/145/145 146/146/146 
f 151/151/151 150/150/150 149/149/149 
f 152/152/152 149/149/149 150/150/150 
f 155/155/155 154/154/154 153/153/153 
f 156/156/156 153/153/153 154/154/154 
f 159/159/159 158/158/158 157/157/157 
f 160/160/160 157/157/157 158/158/158 
f 163/163/163 162/162/162 161/161/161 
f 164/164/164 161/161/161 162/162/162 
f 167/167/167 166/166/166 165/165/165 
f 168/168/168 165/165/165 166/166/166 
f 171/171/171 170/170/170 169/169/169 
f 172/172/172 169/169/169 170/170/170 
f 175/175/175 174/174/174 173/173/173 
f 176/176/176 173/173/173 174/174/174 
f 179/179/179 178/178/178 177/177/177 
f 180/180/180 177/177/177 178/178/178 
f 183/183/183 182/182/182 181/181/181 
f 184/184/184 181/181/181 182/182/182 

