# Created by DisUnity v0.3.4
v -4.5078945 -0.0046821604 -5.8735905
v -4.5078974 3.5092602 -5.8735905
v -4.507884 -0.004681667 5.4933376
v -4.507886 5.5195107 5.4933376
v -4.5078974 5.5080585 -5.8735905
v -4.507887 9.002675 5.4933376
v -4.5078974 9.002675 -5.8735905
v -3.3629897 10.049137 -3.6989498
v -4.507887 9.002675 5.4933376
v -4.5078974 9.002675 -5.8735905
v -1.5259134 11.737624 -0.19012666
v 1.1189092 3.5092602 -5.873591
v 4.4694595 9.002675 -5.873591
v 1.6735793 9.002675 -5.8735905
v 4.4694595 3.5092602 -5.873591
v 1.1517901 9.002675 -5.8735905
v 2.780501 10.237441 -5.873233
v 4.4694595 9.002675 -5.873591
v -1.460261 9.002675 -5.8735905
v -0.23205477 10.163497 -5.873294
v -1.6242667 3.5092602 -5.873591
v -1.6242621 -0.0046821604 -5.873591
v 1.1189103 2.9205146 -5.8735914
v 1.1189154 -0.0046821604 -5.8735914
v -4.5078945 -0.0046821604 -5.8735905
v -4.5078974 3.5092602 -5.8735905
v -2.6276817 9.002675 -5.873591
v -3.9010592 9.002675 -5.8735905
v -4.5078974 5.5080585 -5.8735905
v -4.5078974 9.002675 -5.8735905
v -3.2961416 10.027788 -5.873745
v -3.9010592 9.002675 -5.8735905
v -1.5259134 11.737624 -0.19012666
v 2.7805004 10.237441 -3.3076422
v 0.74877405 11.737624 -0.1901267
v -0.23351426 10.153242 -3.4826136
v -3.3629897 10.049137 -3.6989498
v -2.6276817 9.002675 -5.873591
v -1.460261 9.002675 -5.8735905
v 1.1517901 9.002675 -5.8735905
v 1.1189157 -0.00468223 -7.463937
v 4.4694595 2.9205565 -7.463937
v 1.1189095 2.9205565 -7.463937
v 4.4694595 -0.00468223 -7.4639363
v 1.1189103 2.9205146 -5.8735914
v 1.1189095 2.9205565 -7.463937
v 1.1189092 3.5092602 -5.873591
v 1.1189092 3.5092602 -5.873591
v 4.4694595 2.9205565 -7.463937
v 4.4694595 3.5092602 -5.873591
v 1.1189095 2.9205565 -7.463937
v 4.4694595 -0.0046821604 -5.87359
v 4.4694595 2.9205565 -7.463937
v 4.4694595 -0.00468223 -7.4639363
v 4.4694595 2.9205565 -5.873591
v -1.5259134 11.737624 -0.19012666
v 4.4694576 9.002675 5.4933367
v -4.507887 9.002675 5.4933376
v 0.74877405 11.737624 -0.1901267
v 4.4694576 9.002675 5.4933367
v 4.4694595 3.5092602 -5.873591
v 4.4694576 5.5195107 5.493337
v 4.4694595 9.002675 -5.873591
v 4.4694576 -0.004681587 5.4933376
v 4.4694595 -0.004682064 -5.87359
v 2.7805004 10.237441 -3.3076422
v 4.4694595 9.002675 -5.873591
v 4.4694576 9.002675 5.4933367
v 0.74877405 11.737624 -0.1901267
v 2.780501 10.237441 -5.873233
v -3.9010592 9.002675 -5.8735905
v -3.3629897 10.049137 -3.6989498
v -4.5078974 9.002675 -5.8735905
v -1.460261 9.002675 -5.8735905
v -0.23205477 10.163497 -5.873294
v -0.23351426 10.153242 -3.4826136
v 1.1517901 9.002675 -5.8735905
v -0.23351426 10.153242 -3.4826136
v -0.23205477 10.163497 -5.873294
v -3.9010592 9.002675 -5.8735905
v -3.2961416 10.027788 -5.873745
v -3.3629897 10.049137 -3.6989498
v -3.2961416 10.027788 -5.873745
v -2.6276817 9.002675 -5.873591
v -3.3629897 10.049137 -3.6989498
v 1.1517901 9.002675 -5.8735905
v 2.780501 10.237441 -5.873233
v 2.7805004 10.237441 -3.3076422
v 4.4694595 2.9205565 -7.463937
v 4.4694595 2.9205565 -5.873591
v 4.4694595 3.5092602 -5.873591
v 1.1189154 -0.0046821604 -5.8735914
v 1.1189095 2.9205565 -7.463937
v 1.1189103 2.9205146 -5.8735914
v 1.1189157 -0.00468223 -7.463937
v 4.4694576 9.002675 5.4933367
v -4.507886 5.5195107 5.4933376
v -4.507887 9.002675 5.4933376
v 4.4694576 5.5195107 5.493337
v 4.4694576 -0.004681587 5.4933376
v -4.507884 -0.004681667 5.4933376
v -4.4786477 4.1737113 7.3191614
v -1.7936236 2.6738393 7.319161
v -4.4786477 2.6738393 7.3191614
v -1.7936236 4.1737113 7.319161
v -4.4786477 4.1737113 5.3485613
v -4.4786477 2.6738393 7.3191614
v -4.4786477 2.6738393 5.3485613
v -4.4786477 4.1737113 7.3191614
v -4.4786477 2.6738393 5.3485613
v -1.7936236 2.6738393 7.319161
v -1.7936233 2.6738393 5.3485613
v -4.4786477 2.6738393 7.3191614
v -1.7936233 2.6738393 5.3485613
v -1.7936236 4.1737113 7.319161
v -1.7936233 4.1737113 5.3485613
v -1.7936236 2.6738393 7.319161
v -1.9007132 2.7570662 5.348962
v -4.371558 2.7570662 7.2120714
v -4.371558 2.7570662 5.4556513
v -1.9007134 2.7570662 7.212071
v -1.8941184 -0.005000353 6.914949
v -2.0399227 2.6942084 6.914949
v -2.0399199 -0.005000353 6.914949
v -1.8941184 2.6942084 6.914949
v -2.0399199 -0.005000353 6.914949
v -2.039923 2.6942084 7.2303133
v -2.03992 -0.005000353 7.2303133
v -2.0399227 2.6942084 6.914949
v -2.03992 -0.005000353 7.2303133
v -1.8941184 2.6942084 7.2303133
v -1.8941184 -0.005000353 7.2303133
v -2.039923 2.6942084 7.2303133
v -1.8941184 -0.005000353 7.2303133
v -1.8941184 2.6942084 6.914949
v -1.8941184 -0.005000353 6.914949
v -1.8941184 2.6942084 7.2303133
v -4.0576963 -0.005000353 6.914949
v -4.381153 2.6942084 6.914949
v -4.38115 -0.005000353 6.914949
v -4.0576935 2.6942084 6.914949
v -4.38115 -0.005000353 6.914949
v -4.381153 2.6942084 7.2303133
v -4.38115 -0.005000353 7.2303133
v -4.381153 2.6942084 6.914949
v -4.38115 -0.005000353 7.2303133
v -4.0576935 2.6942084 7.2303133
v -4.0576963 -0.005000353 7.2303133
v -4.381153 2.6942084 7.2303133
v -4.0576963 -0.005000353 7.2303133
v -4.0576935 2.6942084 6.914949
v -4.0576963 -0.005000353 6.914949
v -4.0576935 2.6942084 7.2303133
v -4.4786477 4.1737113 5.3485613
v -4.371558 4.1737113 7.2120714
v -4.4786477 4.1737113 7.3191614
v -4.371558 4.1737113 5.4556513
v -4.4786477 4.1737113 7.3191614
v -1.9007134 4.1737113 7.212071
v -1.7936236 4.1737113 7.319161
v -4.371558 4.1737113 7.2120714
v -1.7936236 4.1737113 7.319161
v -1.9007132 4.1737113 5.348962
v -1.7936233 4.1737113 5.3485613
v -1.9007134 4.1737113 7.212071
v -4.371558 4.1737113 5.4556513
v -4.371558 2.7570662 7.2120714
v -4.371558 4.1737113 7.2120714
v -4.371558 2.7570662 5.4556513
v -4.371558 4.1737113 7.2120714
v -1.9007134 2.7570662 7.212071
v -1.9007134 4.1737113 7.212071
v -4.371558 2.7570662 7.2120714
v -1.9007134 4.1737113 7.212071
v -1.9007132 2.7570662 5.348962
v -1.9007132 4.1737113 5.348962
v -1.9007134 2.7570662 7.212071
vn -1.0 0.0 0.0
vn -1.0 0.0 0.0
vn -1.0 0.0 0.0
vn -1.0 0.0 0.0
vn -1.0 0.0 0.0
vn -1.0 0.0 0.0
vn -1.0 0.0 0.0
vn -0.67466074 0.738128 0.0
vn -0.67466074 0.738128 0.0
vn -0.67466074 0.738128 0.0
vn -0.6763131 0.7366141 -3.7752133E-4
vn -0.0 0.0 -1.0
vn -0.0 0.0 -1.0
vn -0.0 0.0 -1.0
vn -0.0 0.0 -1.0
vn -0.0 2.5550235E-4 -1.0
vn -0.0 2.8963207E-4 -1.0
vn -0.0 2.89785E-4 -1.0
vn -0.0 0.0 -1.0
vn -0.0 2.5550235E-4 -1.0
vn -0.0 0.0 -1.0
vn -0.0 0.0 -1.0
vn -0.0 0.0 -1.0
vn -0.0 0.0 -1.0
vn -0.0 0.0 -1.0
vn -0.0 0.0 -1.0
vn -0.0 0.0 -1.0
vn -0.0 0.0 -1.0
vn -0.0 0.0 -1.0
vn -0.0 0.0 -1.0
vn -0.0 -1.5048946E-4 -1.0
vn -0.0 -1.5048946E-4 -1.0
vn -0.0 0.90109676 -0.43361804
vn -0.0 0.90109676 -0.433618
vn -0.0 0.9010969 -0.43361783
vn -0.0 0.90109676 -0.4336182
vn -0.0 0.90109676 -0.43361813
vn -0.0 0.9010966 -0.43361834
vn -0.0 0.90109646 -0.4336186
vn -0.0 0.90109646 -0.4336187
vn -0.0 0.0 -1.0
vn -0.0 0.0 -1.0
vn -0.0 0.0 -1.0
vn -0.0 0.0 -1.0
vn -1.0 0.0 0.0
vn -1.0 0.0 0.0
vn -1.0 0.0 0.0
vn -0.0 0.93780893 -0.34715188
vn -0.0 0.93780893 -0.34715182
vn -0.0 0.93780893 -0.34715185
vn -0.0 0.93780893 -0.34715185
vn 1.0 0.0 0.0
vn 1.0 0.0 0.0
vn 1.0 0.0 0.0
vn 1.0 0.0 0.0
vn -0.0 0.90109664 0.43361822
vn -0.0 0.90109664 0.43361825
vn -0.0 0.90109664 0.4336182
vn -0.0 0.90109664 0.43361828
vn 1.0 0.0 0.0
vn 1.0 0.0 0.0
vn 1.0 0.0 0.0
vn 1.0 0.0 0.0
vn 1.0 0.0 0.0
vn 1.0 0.0 0.0
vn 0.59018075 0.8072711 0.0
vn 0.59018075 0.8072711 0.0
vn 0.59018075 0.8072711 0.0
vn 0.59313446 0.805103 -8.709021E-4
vn 0.5901809 0.80727106 0.0
vn -0.0 0.90109676 -0.43361813
vn -0.0 0.90109676 -0.43361813
vn -0.0 0.90109676 -0.43361813
vn -0.68688697 0.7267592 0.0026981048
vn -0.68688697 0.7267592 0.0026981048
vn -0.68688697 0.7267592 0.0026981048
vn 0.64266616 0.7661374 0.0036787016
vn 0.64266616 0.7661375 0.0036787016
vn 0.64266616 0.7661374 0.0036787014
vn -0.8608083 0.50795686 -0.031445585
vn -0.8608083 0.5079568 -0.031445585
vn -0.8608083 0.5079568 -0.031445585
vn 0.8374697 0.54610366 0.020380987
vn 0.8374697 0.54610366 0.020380987
vn 0.8374697 0.54610366 0.020380987
vn -0.6041356 0.7968815 0.0
vn -0.60413563 0.7968815 0.0
vn -0.6041357 0.7968815 0.0
vn 1.0 0.0 0.0
vn 1.0 0.0 0.0
vn 1.0 0.0 0.0
vn -1.0 0.0 0.0
vn -1.0 0.0 0.0
vn -1.0 0.0 0.0
vn -1.0 0.0 0.0
vn -0.0 0.0 1.0
vn -0.0 0.0 1.0
vn -0.0 0.0 1.0
vn -0.0 0.0 1.0
vn -0.0 0.0 1.0
vn -0.0 0.0 1.0
vn -0.0 0.0 1.0
vn -0.0 0.0 1.0
vn -0.0 0.0 1.0
vn -0.0 0.0 1.0
vn -1.0 0.0 0.0
vn -1.0 0.0 0.0
vn -1.0 0.0 0.0
vn -1.0 0.0 0.0
vn -0.0 -1.0 0.0
vn -0.0 -1.0 0.0
vn -0.0 -1.0 0.0
vn -0.0 -1.0 0.0
vn 1.0 0.0 0.0
vn 1.0 0.0 0.0
vn 1.0 0.0 0.0
vn 1.0 0.0 0.0
vn -0.0 1.0 0.0
vn -0.0 1.0 0.0
vn -0.0 1.0 0.0
vn -0.0 1.0 0.0
vn -0.0 0.0 -1.0
vn -0.0 0.0 -1.0
vn -0.0 0.0 -1.0
vn -0.0 0.0 -1.0
vn -1.0 0.0 0.0
vn -1.0 0.0 0.0
vn -1.0 0.0 0.0
vn -1.0 0.0 0.0
vn -0.0 0.0 1.0
vn -0.0 0.0 1.0
vn -0.0 0.0 1.0
vn -0.0 0.0 1.0
vn 1.0 0.0 0.0
vn 1.0 0.0 0.0
vn 1.0 0.0 0.0
vn 1.0 0.0 0.0
vn -0.0 0.0 -1.0
vn -0.0 0.0 -1.0
vn -0.0 0.0 -1.0
vn -0.0 0.0 -1.0
vn -1.0 0.0 0.0
vn -1.0 0.0 0.0
vn -1.0 0.0 0.0
vn -1.0 0.0 0.0
vn -0.0 0.0 1.0
vn -0.0 0.0 1.0
vn -0.0 0.0 1.0
vn -0.0 0.0 1.0
vn 1.0 0.0 0.0
vn 1.0 0.0 0.0
vn 1.0 0.0 0.0
vn 1.0 0.0 0.0
vn -0.0 1.0 0.0
vn -0.0 1.0 0.0
vn -0.0 1.0 0.0
vn -0.0 1.0 0.0
vn -0.0 1.0 0.0
vn -0.0 1.0 0.0
vn -0.0 1.0 0.0
vn -0.0 1.0 0.0
vn -0.0 1.0 0.0
vn -0.0 1.0 0.0
vn -0.0 1.0 0.0
vn -0.0 1.0 0.0
vn 1.0 0.0 0.0
vn 1.0 0.0 0.0
vn 1.0 0.0 0.0
vn 1.0 0.0 0.0
vn -0.0 0.0 -1.0
vn -0.0 0.0 -1.0
vn -0.0 0.0 -1.0
vn -0.0 0.0 -1.0
vn -1.0 0.0 0.0
vn -1.0 0.0 0.0
vn -1.0 0.0 0.0
vn -1.0 0.0 0.0
vt 0.18517567 0.8329076
vt 0.18517567 0.78217876
vt 0.049558483 0.8329076
vt 0.049558483 0.7576801
vt 0.18517567 0.7576801
vt 0.049558483 0.7122885
vt 0.18517567 0.7122885
vt 0.14860205 0.696813
vt 0.038045984 0.7122885
vt 0.1779278 0.7122885
vt 0.10912509 0.6775842
vt 0.53348875 0.78431135
vt 0.5001276 0.7163433
vt 0.5275232 0.7163433
vt 0.5001276 0.78431135
vt 0.5334198 0.7164498
vt 0.5129257 0.6993296
vt 0.4948508 0.7159808
vt 0.566445 0.7163433
vt 0.55057234 0.7004945
vt 0.5683181 0.78451717
vt 0.5683181 0.83261806
vt 0.53271276 0.7922643
vt 0.5327127 0.83261806
vt 0.5993324 0.83261806
vt 0.59933233 0.78451717
vt 0.57900095 0.7163433
vt 0.5926963 0.7163433
vt 0.5992231 0.7596029
vt 0.5992231 0.7163433
vt 0.58674026 0.707474
vt 0.5943318 0.71598077
vt 0.56438875 0.68197465
vt 0.51283926 0.69937277
vt 0.53842336 0.68197465
vt 0.55052376 0.699523
vt 0.58744377 0.7018689
vt 0.5782158 0.71598077
vt 0.5673853 0.7159543
vt 0.5333965 0.7156633
vt 0.41568944 0.83250135
vt 0.3826444 0.78794193
vt 0.4156895 0.78794193
vt 0.3826444 0.83250135
vt 0.06964503 0.71288204
vt 0.037138548 0.71271896
vt 0.06964503 0.70150626
vt 0.30352184 0.6976786
vt 0.27053487 0.7143749
vt 0.27053487 0.6976786
vt 0.30352184 0.7143749
vt 0.17871116 0.83265704
vt 0.21121776 0.78702676
vt 0.21121776 0.83265704
vt 0.17871116 0.78702676
vt 0.26900357 0.6826032
vt 0.35134536 0.7153631
vt 0.22804858 0.7153631
vt 0.3002447 0.6826032
vt 0.03735755 0.7122885
vt 0.17723931 0.78500545
vt 0.03735755 0.75862575
vt 0.17723931 0.7122885
vt 0.03735755 0.83304894
vt 0.17723931 0.83304894
vt 0.14317006 0.6942737
vt 0.17777269 0.7122885
vt 0.037890915 0.7122885
vt 0.10896997 0.6775842
vt 0.17776789 0.6942737
vt 0.59419626 0.71598077
vt 0.58744377 0.7018689
vt 0.60181206 0.71598077
vt 0.1779278 0.71236277
vt 0.17792387 0.69527084
vt 0.14568467 0.6954092
vt 0.17777269 0.71236277
vt 0.14552958 0.6954092
vt 0.17776869 0.69527084
vt 0.1779278 0.71236277
vt 0.1779299 0.697101
vt 0.14860205 0.696813
vt 0.17777477 0.697101
vt 0.17777269 0.71236277
vt 0.14844692 0.696813
vt 0.1779278 0.71236277
vt 0.17792301 0.6942737
vt 0.14332516 0.6942737
vt 0.037180837 0.7125664
vt 0.06968741 0.71284807
vt 0.06968741 0.70135367
vt 0.17886631 0.83265704
vt 0.21137282 0.78702676
vt 0.17886631 0.78702676
vt 0.21137282 0.83265704
vt 0.37356222 0.7151957
vt 0.23006628 0.75784874
vt 0.23006628 0.7151957
vt 0.37356222 0.75784874
vt 0.37356222 0.8328458
vt 0.23006631 0.8328458
vt 0.23008281 0.7761515
vt 0.2726077 0.7969013
vt 0.23008281 0.79670525
vt 0.2726077 0.7763475
vt 0.03728793 0.7747915
vt 0.0043690125 0.7948963
vt 0.03728793 0.7948963
vt 0.0043690125 0.7747915
vt 0.546691 0.81828874
vt 0.55439216 0.8136606
vt 0.55439216 0.81828874
vt 0.546691 0.8136606
vt 0.03728793 0.7948963
vt 0.0043690125 0.7747915
vt 0.03728793 0.7747915
vt 0.0043690125 0.7948963
vt 0.4302382 0.82471657
vt 0.439551 0.8195785
vt 0.439551 0.82471657
vt 0.43023807 0.8195789
vt 0.23162998 0.8325706
vt 0.23389407 0.79632175
vt 0.23389407 0.8325706
vt 0.23162998 0.79632175
vt 0.007203243 0.83194053
vt 0.0048356033 0.7946216
vt 0.0048356033 0.83194053
vt 0.007203243 0.7946216
vt 0.26910418 0.83286893
vt 0.27149153 0.7962283
vt 0.27149153 0.83286893
vt 0.26910412 0.7962283
vt 0.0048356033 0.83194053
vt 0.007203243 0.7946216
vt 0.007203243 0.83194053
vt 0.0048356033 0.7946216
vt 0.23162998 0.8325706
vt 0.23389407 0.79632175
vt 0.23389407 0.8325706
vt 0.23162998 0.79632175
vt 0.007203243 0.83194053
vt 0.0048356033 0.7946216
vt 0.0048356033 0.83194053
vt 0.007203243 0.7946216
vt 0.23162998 0.8325706
vt 0.23389407 0.79632175
vt 0.23389407 0.8325706
vt 0.23162998 0.79632175
vt 0.0048356033 0.83194053
vt 0.007203243 0.7946216
vt 0.007203243 0.83194053
vt 0.0048356033 0.7946216
vt 0.013604507 0.79085284
vt 0.029820427 0.789921
vt 0.030752316 0.79085284
vt 0.014536396 0.789921
vt 0.010496113 0.79089046
vt 0.032928787 0.7899586
vt 0.033860687 0.79089046
vt 0.011427989 0.7899586
vt 0.030752286 0.7900484
vt 0.013607994 0.79098034
vt 0.013604507 0.7900484
vt 0.029820427 0.79098034
vt 0.0043741106 0.79250157
vt 0.026278522 0.7748345
vt 0.026278522 0.79250157
vt 0.0043741106 0.7748345
vt 0.23008281 0.7939088
vt 0.2726077 0.7763093
vt 0.2726077 0.79397637
vt 0.23008281 0.7762417
vt 0.0043795384 0.79250157
vt 0.02761447 0.7748345
vt 0.02761447 0.79250157
vt 0.0043795384 0.7748345

g Townhome_Grey_Small
s 1
usemtl Townhome_Grey_Small
f 3/3/3 2/2/2 1/1/1 
f 3/3/3 4/4/4 2/2/2 
f 5/5/5 2/2/2 4/4/4 
f 4/4/4 6/6/6 5/5/5 
f 7/7/7 5/5/5 6/6/6 
f 10/10/10 9/9/9 8/8/8 
f 11/11/11 8/8/8 9/9/9 
f 14/14/14 13/13/13 12/12/12 
f 15/15/15 12/12/12 13/13/13 
f 16/16/16 14/14/14 12/12/12 
f 16/16/16 17/17/17 14/14/14 
f 18/18/18 14/14/14 17/17/17 
f 16/16/16 12/12/12 19/19/19 
f 16/16/16 19/19/19 20/20/20 
f 21/21/21 19/19/19 12/12/12 
f 21/21/21 12/12/12 22/22/22 
f 12/12/12 23/23/23 22/22/22 
f 22/22/22 23/23/23 24/24/24 
f 22/22/22 25/25/25 21/21/21 
f 26/26/26 21/21/21 25/25/25 
f 27/27/27 19/19/19 21/21/21 
f 21/21/21 26/26/26 27/27/27 
f 28/28/28 27/27/27 26/26/26 
f 26/26/26 29/29/29 28/28/28 
f 30/30/30 28/28/28 29/29/29 
f 27/27/27 32/32/32 31/31/31 
f 35/35/35 34/34/34 33/33/33 
f 36/36/36 33/33/33 34/34/34 
f 37/37/37 33/33/33 36/36/36 
f 37/37/37 36/36/36 38/38/38 
f 39/39/39 38/38/38 36/36/36 
f 36/36/36 34/34/34 40/40/40 
f 43/43/43 42/42/42 41/41/41 
f 44/44/44 41/41/41 42/42/42 
f 47/47/47 46/46/46 45/45/45 
f 50/50/50 49/49/49 48/48/48 
f 51/51/51 48/48/48 49/49/49 
f 54/54/54 53/53/53 52/52/52 
f 55/55/55 52/52/52 53/53/53 
f 58/58/58 57/57/57 56/56/56 
f 59/59/59 56/56/56 57/57/57 
f 62/62/62 61/61/61 60/60/60 
f 63/63/63 60/60/60 61/61/61 
f 62/62/62 64/64/64 61/61/61 
f 65/65/65 61/61/61 64/64/64 
f 68/68/68 67/67/67 66/66/66 
f 69/69/69 68/68/68 66/66/66 
f 66/66/66 67/67/67 70/70/70 
f 73/73/73 72/72/72 71/71/71 
f 76/76/76 75/75/75 74/74/74 
f 79/79/79 78/78/78 77/77/77 
f 82/82/82 81/81/81 80/80/80 
f 85/85/85 84/84/84 83/83/83 
f 88/88/88 87/87/87 86/86/86 
f 91/91/91 90/90/90 89/89/89 
f 94/94/94 93/93/93 92/92/92 
f 95/95/95 92/92/92 93/93/93 
f 98/98/98 97/97/97 96/96/96 
f 99/99/99 96/96/96 97/97/97 
f 99/99/99 97/97/97 100/100/100 
f 101/101/101 100/100/100 97/97/97 
f 104/104/104 103/103/103 102/102/102 
f 105/105/105 102/102/102 103/103/103 
f 108/108/108 107/107/107 106/106/106 
f 109/109/109 106/106/106 107/107/107 
f 112/112/112 111/111/111 110/110/110 
f 113/113/113 110/110/110 111/111/111 
f 116/116/116 115/115/115 114/114/114 
f 117/117/117 114/114/114 115/115/115 
f 120/120/120 119/119/119 118/118/118 
f 121/121/121 118/118/118 119/119/119 
f 124/124/124 123/123/123 122/122/122 
f 125/125/125 122/122/122 123/123/123 
f 128/128/128 127/127/127 126/126/126 
f 129/129/129 126/126/126 127/127/127 
f 132/132/132 131/131/131 130/130/130 
f 133/133/133 130/130/130 131/131/131 
f 136/136/136 135/135/135 134/134/134 
f 137/137/137 134/134/134 135/135/135 
f 140/140/140 139/139/139 138/138/138 
f 141/141/141 138/138/138 139/139/139 
f 144/144/144 143/143/143 142/142/142 
f 145/145/145 142/142/142 143/143/143 
f 148/148/148 147/147/147 146/146/146 
f 149/149/149 146/146/146 147/147/147 
f 152/152/152 151/151/151 150/150/150 
f 153/153/153 150/150/150 151/151/151 
f 156/156/156 155/155/155 154/154/154 
f 157/157/157 154/154/154 155/155/155 
f 160/160/160 159/159/159 158/158/158 
f 161/161/161 158/158/158 159/159/159 
f 164/164/164 163/163/163 162/162/162 
f 165/165/165 162/162/162 163/163/163 
f 168/168/168 167/167/167 166/166/166 
f 169/169/169 166/166/166 167/167/167 
f 172/172/172 171/171/171 170/170/170 
f 173/173/173 170/170/170 171/171/171 
f 176/176/176 175/175/175 174/174/174 
f 177/177/177 174/174/174 175/175/175 

