# Created by DisUnity v0.3.4
v 1.9573218 5.4370117 -0.68587816
v -0.4240936 11.431526 -0.3143135
v 3.9042106 9.531575 -1.4343424
v -2.370982 7.3369627 0.43415138
v -2.373882 7.3382344 0.43489388
v 3.9013073 9.532846 -1.4335996
v -0.42699784 11.432799 -0.31357005
v 1.9544213 5.4382834 -0.6851277
v 0.67527604 4.1172886 0.4818271
v 0.8285084 8.213949 -3.6033366
v 2.2854962 4.1298356 -2.9251976
v -0.78171206 8.201402 -0.19631109
v -0.78269327 8.204137 -0.19676754
v 2.2845163 4.132569 -2.9256532
v 0.8275271 8.216686 -3.6037924
v 0.67429805 4.120025 0.48137343
v 0.47157425 4.86291 1.4613414
v 2.7702496 7.859659 -2.6440718
v 3.8065872 6.8465347 0.87665695
v -0.56476396 5.8760333 -2.0593855
v -0.5654584 5.8767066 -2.0617468
v 3.8058884 6.847208 0.8742957
v 2.769555 7.860331 -2.6464345
v 0.47087848 4.8635883 1.4589826
v -0.16705748 3.9956088 -0.7013477
v 3.4079633 8.725082 -0.48505998
v 3.072784 4.9078507 -2.4692268
v 0.16812183 7.81284 1.282819
v 0.1683441 7.815403 1.2841449
v 3.0730062 4.9104075 -2.467902
v 3.4081836 8.727648 -0.4837323
v -0.16683266 3.9981654 -0.70001847
v 0.5055087 6.526233 -2.4631324
v 0.50552315 10.6341305 2.8761678
v 0.5055165 11.027717 -2.0333447
v 0.5055141 6.1326475 2.4463792
v 0.50550896 6.132383 2.4496684
v 0.5055062 11.027453 -2.0300546
v 0.5055141 10.633865 2.879461
v 0.5055094 6.52597 -2.4598444
v 0.16003835 4.008811 -0.0587821
v -2.2550938 9.797861 1.632295
v -3.635821 5.5542874 2.599101
v 1.5407678 8.252383 -1.0255885
v 1.5416974 8.255227 -1.0262312
v -3.6348934 5.5571303 2.5984592
v -2.254161 9.800708 1.6316514
v 0.16096607 4.0116544 -0.05943102
v -1.1855336 3.3887563 -0.25962627
v 1.240668 7.2967305 3.1865356
v -2.1401577 5.3181157 3.01154
v 2.1952944 5.3673725 -0.08463114
v 2.1975622 5.3686924 -0.08451131
v -2.1378915 5.3194356 3.0116594
v 1.2429378 7.2980533 3.186654
v -1.1832659 3.390082 -0.25950903
v 1.0865264 2.8714209 0.47590613
v -1.6507967 7.8132052 2.4524074
v 0.498506 4.5518346 3.9242465
v -1.0627768 6.1327915 -0.9959337
v -1.0642134 6.1349816 -0.99692106
v 0.49706933 4.5540247 3.9232602
v -1.6522346 7.8153977 2.4514186
v 1.0850872 2.873606 0.4749188
v -0.8527619 3.6639345 0.85595
v -0.23269454 7.0214553 -3.6339803
v -3.1136756 4.8958244 -1.9784065
v 2.0282164 5.789565 -0.79962325
v 2.030146 5.7909956 -0.80072945
v -3.111746 4.8972554 -1.9795121
v -0.23076308 7.022886 -3.635088
v -0.85083103 3.665358 0.8548408
v 0.6634592 3.3820462 0.07207586
v -2.5659132 7.301824 -2.624097
v -1.7189348 2.907922 -2.820776
v -0.18351805 7.7759476 0.26875454
v -0.18408951 7.778892 0.26889035
v -1.7195069 2.9108646 -2.82064
v -2.5664854 7.304771 -2.6239612
v 0.66289353 3.3849905 0.07220744
v 0.010511594 -0.002973862 -0.0658281
v 0.27049 2.7562263 -0.07290344
v 0.15097052 2.7562263 0.013932885
v 0.17995277 -0.002973862 -0.1889343
v 0.39001077 2.7562263 0.013932713
v 0.34939396 -0.002974506 -0.06582828
v 0.34435788 2.7562263 0.15443657
v 0.28467318 -0.002973862 0.13336152
v 0.10871346 5.515426 -0.033920616
v 0.17995214 5.515426 -0.08567909
v 0.25119212 5.515426 -0.033920787
v 0.22398087 5.515426 0.04982635
v 0.07523304 -0.002973862 0.13336153
v 0.15097052 2.7562263 0.013932885
v 0.19662279 2.7562263 0.15443674
v 0.010511594 -0.002973862 -0.0658281
v 0.28467318 -0.002973862 0.13336152
v 0.34435788 2.7562263 0.15443657
v 0.13592404 5.515426 0.049826354
v 0.10871346 5.515426 -0.033920616
v 0.22398087 5.515426 0.04982635
v 0.07523304 -0.002973862 0.13336153
v 0.17995277 -0.002973862 -0.1889343
v 0.010511594 -0.002973862 -0.0658281
v 0.28467318 -0.002973862 0.13336152
v 0.34939396 -0.002974506 -0.06582828
v 0.13592404 5.515426 0.049826354
v 0.25119212 5.515426 -0.033920787
v 0.22398087 5.515426 0.04982635
v 0.10871346 5.515426 -0.033920616
v 0.17995214 5.515426 -0.08567909
vn 0.26974353 0.047546186 0.96175766
vn 0.26974353 0.04754619 0.96175766
vn 0.2697434 0.04754615 0.96175766
vn 0.2697437 0.04754623 0.96175766
vn -0.26974326 -0.04754731 -0.96175766
vn -0.26974323 -0.04754739 -0.96175766
vn -0.26974365 -0.04754629 -0.96175766
vn -0.2697429 -0.047548417 -0.9617578
vn 0.84080106 0.3661574 0.39872596
vn 0.84080106 0.36615744 0.3987259
vn 0.84080106 0.36615738 0.3987259
vn 0.84080106 0.3661574 0.3987259
vn -0.84080106 -0.36615783 -0.3987256
vn -0.84080106 -0.36615792 -0.39872545
vn -0.84080094 -0.3661574 -0.3987261
vn -0.8408011 -0.36615837 -0.39872488
vn -0.42814925 0.8271395 0.3640446
vn -0.4281492 0.8271395 0.36404464
vn -0.42814925 0.8271395 0.3640446
vn -0.4281492 0.8271395 0.36404467
vn 0.42814896 -0.82714015 -0.3640434
vn 0.42814896 -0.82714015 -0.36404344
vn 0.42814913 -0.82714 -0.36404368
vn 0.4281488 -0.8271404 -0.36404312
vn 0.5227712 -0.42885673 0.7367443
vn 0.52277124 -0.42885676 0.7367442
vn 0.5227712 -0.42885676 0.7367443
vn 0.5227713 -0.42885685 0.7367442
vn -0.52277184 0.42885575 -0.7367444
vn -0.5227719 0.42885566 -0.7367444
vn -0.5227715 0.42885616 -0.7367444
vn -0.5227723 0.42885524 -0.7367444
vn 1.0 0.0 0.0
vn 1.0 0.0 0.0
vn 1.0 0.0 0.0
vn 1.0 0.0 0.0
vn -1.0 0.0 0.0
vn -1.0 0.0 0.0
vn -1.0 0.0 0.0
vn -1.0 0.0 0.0
vn -0.5735761 0.0 -0.8191523
vn -0.5735761 0.0 -0.8191523
vn -0.57357615 0.0 -0.81915224
vn -0.573576 0.0 -0.8191524
vn 0.5735764 0.0 0.8191522
vn 0.57357633 0.0 0.8191522
vn 0.57357603 0.0 0.8191523
vn 0.5735766 0.0 0.81915194
vn -0.4006809 0.73322684 -0.5493935
vn -0.4006809 0.73322684 -0.5493934
vn -0.4006808 0.73322684 -0.54939353
vn -0.40068096 0.73322684 -0.54939336
vn 0.4006805 -0.73322725 0.54939324
vn 0.40068042 -0.73322725 0.5493933
vn 0.40068093 -0.73322654 0.5493939
vn 0.40067998 -0.733228 0.5493926
vn -0.8514997 -0.513707 0.105135
vn -0.8514997 -0.513707 0.105135016
vn -0.8514997 -0.513707 0.10513494
vn -0.8514997 -0.513707 0.105135076
vn 0.85150003 0.5137063 -0.10513531
vn 0.85150015 0.5137063 -0.10513534
vn 0.8514998 0.5137069 -0.10513507
vn 0.8515004 0.51370573 -0.10513558
vn 0.26421916 -0.7895346 -0.5539163
vn 0.26421916 -0.7895346 -0.5539163
vn 0.264219 -0.7895347 -0.5539163
vn 0.2642193 -0.7895346 -0.5539162
vn -0.26421914 0.78953403 0.5539171
vn -0.2642191 0.78953403 0.5539171
vn -0.264219 0.78953516 0.5539157
vn -0.26421928 0.789533 0.55391866
vn 0.7462645 0.17262779 -0.64287555
vn 0.7462645 0.17262779 -0.64287555
vn 0.7462646 0.1726279 -0.6428754
vn 0.74626446 0.17262767 -0.6428757
vn -0.7462638 -0.1726283 0.64287627
vn -0.74626356 -0.17262843 0.6428764
vn -0.74626446 -0.17262769 0.64287555
vn -0.7462629 -0.172629 0.642877
vn -0.9481714 0.05730221 -0.3125498
vn 0.012422487 0.018854858 -0.9997451
vn -0.95226437 0.01895439 -0.3046857
vn -0.011973939 0.042404298 -0.9990288
vn 0.95448065 0.018525124 -0.2976969
vn 0.9472639 -0.0046816445 -0.32042032
vn 0.5915337 0.0184228 0.80606973
vn 0.5836959 -0.018826313 0.81175405
vn -0.9495131 -0.01997188 -0.31309104
vn -0.012246384 -0.005031666 -0.9999124
vn 0.9463583 0.042056125 -0.32037053
vn 0.58279824 0.056161348 0.8106739
vn -0.59958947 0.020267913 0.8000511
vn -0.95226437 0.01895439 -0.3046857
vn -0.5754868 0.018702023 0.8175972
vn -0.9481714 0.05730221 -0.3125498
vn 0.5836959 -0.018826313 0.81175405
vn 0.5915337 0.0184228 0.80606973
vn -0.5998742 0.01713095 0.7999109
vn -0.9495131 -0.01997188 -0.31309104
vn 0.58279824 0.056161348 0.8106739
vn -0.0 -1.0 0.0
vn -0.0 -1.0 0.0
vn -0.0 -1.0 0.0
vn -0.0 -1.0 0.0
vn -0.0 -1.0 0.0
vn -0.0 1.0 0.0
vn -0.0 1.0 0.0
vn -0.0 1.0 0.0
vn -0.0 1.0 0.0
vn -0.0 1.0 0.0
vt 0.5381917 0.0019062757
vt 0.31766355 0.3298053
vt 0.5381918 0.3298053
vt 0.3176635 0.0019062757
vt 0.3176635 0.0019062757
vt 0.5381918 0.3298053
vt 0.31766355 0.3298053
vt 0.5381917 0.0019062757
vt 0.5381917 0.0019062757
vt 0.31766355 0.3298053
vt 0.5381918 0.3298053
vt 0.3176635 0.0019062757
vt 0.3176635 0.0019062757
vt 0.5381918 0.3298053
vt 0.31766355 0.3298053
vt 0.5381917 0.0019062757
vt 0.5381917 0.0019062757
vt 0.31766355 0.3298053
vt 0.5381918 0.3298053
vt 0.3176635 0.0019062757
vt 0.3176635 0.0019062757
vt 0.5381918 0.3298053
vt 0.31766355 0.3298053
vt 0.5381917 0.0019062757
vt 0.5381917 0.0019062757
vt 0.31766355 0.3298053
vt 0.5381918 0.3298053
vt 0.3176635 0.0019062757
vt 0.3176635 0.0019062757
vt 0.5381918 0.3298053
vt 0.31766355 0.3298053
vt 0.5381917 0.0019062757
vt 0.5381917 0.0019062757
vt 0.31766355 0.3298053
vt 0.5381918 0.3298053
vt 0.3176635 0.0019062757
vt 0.3176635 0.0019062757
vt 0.5381918 0.3298053
vt 0.31766355 0.3298053
vt 0.5381917 0.0019062757
vt 0.5381917 0.0019062757
vt 0.31766355 0.3298053
vt 0.5381918 0.3298053
vt 0.3176635 0.0019062757
vt 0.3176635 0.0019062757
vt 0.5381918 0.3298053
vt 0.31766355 0.3298053
vt 0.5381917 0.0019062757
vt 0.5381917 0.0019062757
vt 0.31766355 0.3298053
vt 0.5381918 0.3298053
vt 0.3176635 0.0019062757
vt 0.3176635 0.0019062757
vt 0.5381918 0.3298053
vt 0.31766355 0.3298053
vt 0.5381917 0.0019062757
vt 0.5381917 0.0019062757
vt 0.31766355 0.3298053
vt 0.5381918 0.3298053
vt 0.3176635 0.0019062757
vt 0.3176635 0.0019062757
vt 0.5381918 0.3298053
vt 0.31766355 0.3298053
vt 0.5381917 0.0019062757
vt 0.5381917 0.0019062757
vt 0.31766355 0.3298053
vt 0.5381918 0.3298053
vt 0.3176635 0.0019062757
vt 0.3176635 0.0019062757
vt 0.5381918 0.3298053
vt 0.31766355 0.3298053
vt 0.5381917 0.0019062757
vt 0.5381917 0.0019062757
vt 0.31766355 0.3298053
vt 0.5381918 0.3298053
vt 0.3176635 0.0019062757
vt 0.3176635 0.0019062757
vt 0.5381918 0.3298053
vt 0.31766355 0.3298053
vt 0.5381917 0.0019062757
vt 0.9483587 0.89276004
vt 0.7497135 0.92316675
vt 0.7487778 0.9124718
vt 0.9496853 0.9079225
vt 0.7504098 0.93388003
vt 0.9506724 0.92311084
vt 0.7508664 0.94460654
vt 0.9513198 0.9383174
vt 0.5491921 0.93210995
vt 0.54974604 0.9384355
vt 0.55014956 0.94464916
vt 0.5504155 0.95089555
vt 0.9516269 0.9535347
vt 0.7510597 0.96607655
vt 0.7510831 0.95534045
vt 0.9515938 0.96875507
vt 0.9513198 0.9383174
vt 0.7508664 0.94460654
vt 0.55054164 0.9571461
vt 0.5505271 0.96347165
vt 0.5504155 0.95089555
vt 0.96236914 0.8868129
vt 0.9496853 0.9079225
vt 0.9483587 0.89276004
vt 0.97235465 0.8982999
vt 0.9645155 0.9113463
vt 0.5429568 0.9306705
vt 0.54385924 0.9409852
vt 0.53966105 0.9361557
vt 0.5491921 0.93210995
vt 0.54974604 0.9384355

g Tree_08
s 1
usemtl Tree_08
f 3/3/3 2/2/2 1/1/1 
f 4/4/4 1/1/1 2/2/2 
f 7/7/7 6/6/6 5/5/5 
f 8/8/8 5/5/5 6/6/6 
f 11/11/11 10/10/10 9/9/9 
f 12/12/12 9/9/9 10/10/10 
f 15/15/15 14/14/14 13/13/13 
f 16/16/16 13/13/13 14/14/14 
f 19/19/19 18/18/18 17/17/17 
f 20/20/20 17/17/17 18/18/18 
f 23/23/23 22/22/22 21/21/21 
f 24/24/24 21/21/21 22/22/22 
f 27/27/27 26/26/26 25/25/25 
f 28/28/28 25/25/25 26/26/26 
f 31/31/31 30/30/30 29/29/29 
f 32/32/32 29/29/29 30/30/30 
f 35/35/35 34/34/34 33/33/33 
f 36/36/36 33/33/33 34/34/34 
f 39/39/39 38/38/38 37/37/37 
f 40/40/40 37/37/37 38/38/38 
f 43/43/43 42/42/42 41/41/41 
f 44/44/44 41/41/41 42/42/42 
f 47/47/47 46/46/46 45/45/45 
f 48/48/48 45/45/45 46/46/46 
f 51/51/51 50/50/50 49/49/49 
f 52/52/52 49/49/49 50/50/50 
f 55/55/55 54/54/54 53/53/53 
f 56/56/56 53/53/53 54/54/54 
f 59/59/59 58/58/58 57/57/57 
f 60/60/60 57/57/57 58/58/58 
f 63/63/63 62/62/62 61/61/61 
f 64/64/64 61/61/61 62/62/62 
f 67/67/67 66/66/66 65/65/65 
f 68/68/68 65/65/65 66/66/66 
f 71/71/71 70/70/70 69/69/69 
f 72/72/72 69/69/69 70/70/70 
f 75/75/75 74/74/74 73/73/73 
f 76/76/76 73/73/73 74/74/74 
f 79/79/79 78/78/78 77/77/77 
f 80/80/80 77/77/77 78/78/78 
f 83/83/83 82/82/82 81/81/81 
f 84/84/84 81/81/81 82/82/82 
f 82/82/82 85/85/85 84/84/84 
f 86/86/86 84/84/84 85/85/85 
f 85/85/85 87/87/87 86/86/86 
f 88/88/88 86/86/86 87/87/87 
f 83/83/83 89/89/89 82/82/82 
f 90/90/90 82/82/82 89/89/89 
f 82/82/82 90/90/90 85/85/85 
f 85/85/85 91/91/91 87/87/87 
f 91/91/91 85/85/85 90/90/90 
f 92/92/92 87/87/87 91/91/91 
f 95/95/95 94/94/94 93/93/93 
f 96/96/96 93/93/93 94/94/94 
f 93/93/93 97/97/97 95/95/95 
f 98/98/98 95/95/95 97/97/97 
f 95/95/95 99/99/99 94/94/94 
f 100/100/100 94/94/94 99/99/99 
f 99/99/99 95/95/95 101/101/101 
f 98/98/98 101/101/101 95/95/95 
f 104/104/104 103/103/103 102/102/102 
f 102/102/102 103/103/103 105/105/105 
f 105/105/105 103/103/103 106/106/106 
f 109/109/109 108/108/108 107/107/107 
f 107/107/107 108/108/108 110/110/110 
f 110/110/110 108/108/108 111/111/111 

