# Created by DisUnity v0.3.4
v -0.2746701 6.753597 -1.8617756
v 0.112628564 10.141954 0.9075379
v 0.22072154 7.051345 1.1913948
v -0.38276014 9.844209 -2.1456351
v -0.38282952 9.84628 -2.1458254
v 0.22065097 7.0534167 1.1912043
v 0.11256149 10.14403 0.9073451
v -0.2747436 6.7556705 -1.8619692
v 0.2606101 5.8387337 0.47841972
v 0.3869671 8.655918 -2.89019
v 1.5883926 5.8473625 -2.3309999
v -0.9408159 8.64729 -0.080769874
v -0.94162613 8.649171 -0.08114623
v 1.5875812 5.849243 -2.331376
v 0.38615578 8.657801 -2.8905666
v 0.2598046 5.8406167 0.47804567
v 0.29644263 6.102253 1.6845285
v 2.650388 8.661508 -2.519599
v 3.711647 7.796289 1.0857846
v -0.7648149 6.9674726 -1.9208553
v -0.76538193 6.9679346 -1.9228036
v 3.7110765 7.7967534 1.0838379
v 2.6498187 8.661973 -2.5215487
v 0.29586983 6.102721 1.6825845
v -0.43397298 5.755057 -0.49722192
v 2.5139728 9.007415 -0.31887144
v 2.2375863 6.3823853 -1.9550083
v -0.15758692 8.380087 1.1389151
v -0.15740377 8.381847 1.1400082
v 2.2377677 6.384146 -1.9539157
v 2.514153 9.009177 -0.31777692
v -0.43378636 5.756816 -0.49612564
v 0.041895084 6.257692 0.41923997
v -0.13533323 10.5373335 -0.55714846
v 1.918331 8.693781 0.8668935
v -2.011771 8.101244 -1.004802
v -2.0118568 8.103272 -1.0052686
v 1.918246 8.6958065 0.8664261
v -0.13542071 10.53936 -0.55761755
v 0.041812256 6.259719 0.41877624
v -0.38131118 5.764137 0.27785078
v -1.9031835 9.745141 1.3434674
v -2.773235 6.8269296 1.9526904
v 0.4887398 8.682349 -0.33137217
v 0.4893254 8.684303 -0.33177695
v -2.77265 6.828883 1.9522856
v -1.9025966 9.747099 1.3430623
v -0.3807279 5.7660913 0.2774429
v -1.2738031 5.337738 -0.1329799
v 0.72682965 8.025167 2.7087123
v -2.060985 6.664517 2.5644112
v 1.5140114 6.6983905 0.011320764
v 1.5158808 6.6992974 0.011419338
v -2.0591145 6.6654253 2.5645103
v 0.728702 8.026076 2.7088108
v -1.2719367 5.3386507 -0.13288336
v 0.599727 4.981979 0.4735371
v -1.6574607 8.380337 2.1033533
v 0.11484513 6.1375628 3.3170266
v -1.1725794 7.224752 -0.7401361
v -1.1737635 7.2262573 -0.74095005
v 0.113661654 6.1390676 3.316213
v -1.6586471 8.3818445 2.1025376
v 0.5985388 4.983481 0.47272295
v -0.9994032 5.5269732 0.7869203
v -0.48809892 7.835866 -2.9154594
v -2.8637424 6.374117 -1.5502797
v 1.3762401 6.9887223 -0.5782592
v 1.3778313 6.9897056 -0.5791716
v -2.862151 6.3751006 -1.5511919
v -0.486506 7.83685 -2.916372
v -0.9978126 5.5279527 0.7860058
v 0.32531947 4.428654 0.16984555
v -2.904417 7.697949 -2.5266278
v -2.0573409 4.0332103 -2.7233293
v -0.5217568 8.093393 0.366548
v -0.52222687 8.095417 0.36666
v -2.0578113 4.0352345 -2.7232163
v -2.9048877 7.6999764 -2.5265145
v 0.3248499 4.43068 0.16995461
v -0.3066412 6.1069144E-4 0.037577953
v -0.071266584 4.5629463 0.031171659
v -0.1794733 4.5629463 0.10978944
v -0.1532363 6.1069144E-4 -0.07387704
v 0.036943626 4.562945 0.10978914
v 1.6856882E-4 6.1010814E-4 0.037577793
v -0.21773103 7.613329 0.0664652
v -0.1532363 7.613329 0.019604983
v -0.088736326 7.613328 0.06646447
v -0.24804568 6.1069144E-4 0.21791564
v -0.1794733 4.5629463 0.10978944
v -0.13814223 4.562945 0.23699567
v -0.3066412 6.1069144E-4 0.037577953
v -0.058426883 6.1127474E-4 0.21791594
v -0.0043897354 4.5629463 0.23699582
v 1.6856882E-4 6.1010814E-4 0.037577793
v 0.036943626 4.562945 0.10978914
v -0.19309631 7.613329 0.14228602
v -0.21773103 7.613329 0.0664652
v -0.11337279 7.613329 0.14228585
v -0.088736326 7.613328 0.06646447
v -0.24804568 6.1069144E-4 0.21791564
v -0.1532363 6.1069144E-4 -0.07387704
v -0.3066412 6.1069144E-4 0.037577953
v -0.058426883 6.1127474E-4 0.21791594
v 1.6856882E-4 6.1010814E-4 0.037577793
v -0.19309631 7.613329 0.14228602
v -0.088736326 7.613328 0.06646447
v -0.11337279 7.613329 0.14228585
v -0.21773103 7.613329 0.0664652
v -0.1532363 7.613329 0.019604983
v 1.8086733 4.13821 -0.38867778
v -2.9835374 7.217442 -3.6509693
v 1.4491501 6.176434 -4.5449185
v -2.6240163 5.1792216 0.5052679
v -2.6264102 5.1797767 0.50574565
v 1.4467592 6.1769915 -4.544439
v -2.9859328 7.218002 -3.6504917
v 1.8062818 4.1387753 -0.388196
v -0.8829612 3.7204752 0.258009
v -0.3600567 7.6336317 -3.2566874
v -2.3501077 4.4752603 -3.0969791
v 1.1070908 6.8788447 0.09830524
v 1.108419 6.8809633 0.0981998
v -2.3487785 4.4773774 -3.097085
v -0.35872683 7.635751 -3.2567897
v -0.88162667 3.7225883 0.25790122
v 0.051562313 3.7313976 0.2761658
v 1.1692147 8.521244 2.2120228
v 1.8081921 5.010124 3.3187475
v -0.5874129 7.242518 -0.83056164
v -0.58783925 7.244872 -0.83130324
v 1.8077699 5.012475 3.318005
v 1.1687918 8.5236 2.2112768
v 0.051134773 3.73375 0.2754243
v -0.53444946 3.2183673 1.3028241
v 3.0813892 6.451813 -0.79714024
v 2.6160877 4.814714 2.529195
v -0.069149375 4.8554673 -2.02351
v -0.06883499 4.8565593 -2.0257425
v 2.6164029 4.8158073 2.5269654
v 3.0817018 6.4529076 -0.79937387
v -0.53413796 3.2194626 1.3005954
v 0.3889865 2.7903256 -0.87918097
v 2.1057813 6.879144 1.9971846
v 3.746336 4.180695 1.7481946E-4
v -1.2515692 5.4887743 1.1178298
v -1.2526705 5.4905863 1.1191626
v 3.745236 4.1825066 0.0015067336
v 2.1046789 6.880958 1.9985195
v 0.38788587 2.7921326 -0.87784326
v 0.59691566 3.446047 1.0703914
v -3.787128 6.2240515 0.06930023
v -2.3999457 4.4653106 3.0598948
v -0.7902657 5.2047896 -1.9202055
v -0.79119194 5.2059727 -1.9222068
v -2.400873 4.466495 3.057893
v -3.7880538 6.225237 0.06729463
v 0.5959859 3.4472282 1.0683904
v -0.82253027 3.9816923 -1.7197412
v -2.7566366 5.711246 4.142581
v -4.566034 3.3124347 0.7501379
v 0.9868645 6.380505 1.6727
v 0.98786837 6.3818283 1.6745757
v -4.5650306 3.3137534 0.75201446
v -2.7556326 5.7125683 4.144459
v -0.8215305 3.9830172 -1.7178665
v -0.18968293 1.8663688 1.0343424
v 0.8892068 5.135664 -3.0323732
v 1.4254698 1.4709252 -2.3477912
v -0.7259453 5.5311074 0.34976086
v -0.7262439 5.533133 0.3493823
v 1.4251682 1.4729493 -2.3481698
v 0.8889052 5.137691 -3.0327523
v -0.18997924 1.8683939 1.0339628
v 0.91872257 0.966542 0.01440137
v -0.96260124 5.0553613 2.7859528
v 1.5406328 2.356912 3.4288294
v -1.5845133 3.6649914 -0.62847376
v -1.5861868 3.6668026 -0.62890744
v 1.5389612 2.358724 3.4283948
v -0.9642793 5.0571756 2.785519
v 0.917045 0.9683489 0.0139709115
v 0.54663 4.014957 -0.87663907
v -3.7638483 1.7958272 1.9228579
v -3.0584016 2.7068644 -1.8631339
v -0.15881638 3.1039217 2.9093525
v -0.15926026 3.1033425 2.9117494
v -3.058846 2.7062824 -1.8607367
v -3.764291 1.7952473 1.925256
v 0.5461844 4.0143814 -0.8742427
vn -0.98659664 -0.019627035 0.16199355
vn -0.98659664 -0.019627035 0.16199355
vn -0.9865965 -0.01962752 0.16199414
vn -0.98659676 -0.019626545 0.16199295
vn 0.9865965 0.019625777 -0.16199425
vn 0.9865965 0.019625776 -0.16199425
vn 0.98659664 0.019626297 -0.16199386
vn 0.9865965 0.019625258 -0.16199467
vn 0.81715846 0.4267137 0.3875144
vn 0.81715846 0.42671376 0.38751444
vn 0.81715846 0.42671376 0.38751444
vn 0.81715846 0.4267137 0.38751444
vn -0.81715864 -0.42671445 -0.3875133
vn -0.81715864 -0.42671445 -0.38751328
vn -0.8171585 -0.4267135 -0.3875144
vn -0.8171587 -0.4267154 -0.38751218
vn -0.3755756 0.8700361 0.31934318
vn -0.37557566 0.8700361 0.31934315
vn -0.37557566 0.8700361 0.31934315
vn -0.37557563 0.8700361 0.3193432
vn 0.37557587 -0.8700365 -0.31934202
vn 0.3755758 -0.8700365 -0.31934202
vn 0.37557647 -0.8700358 -0.31934315
vn 0.37557518 -0.8700372 -0.31934085
vn 0.5029142 -0.49470913 0.70875955
vn 0.5029142 -0.49470913 0.7087596
vn 0.50291425 -0.49470922 0.70875955
vn 0.50291413 -0.49470913 0.70875967
vn -0.5029153 0.49470836 -0.7087594
vn -0.5029153 0.49470836 -0.7087594
vn -0.50291455 0.49470913 -0.70875937
vn -0.50291604 0.4947074 -0.7087594
vn -0.44501066 0.1816362 0.87691146
vn -0.44501066 0.18163618 0.87691146
vn -0.4450108 0.18163618 0.87691146
vn -0.44501057 0.18163623 0.8769116
vn 0.4450104 -0.18163684 -0.8769116
vn 0.4450104 -0.18163684 -0.8769116
vn 0.4450104 -0.18163683 -0.8769116
vn 0.4450104 -0.18163684 -0.8769116
vn -0.5735762 0.0 -0.8191522
vn -0.57357615 0.0 -0.8191522
vn -0.57357615 0.0 -0.81915224
vn -0.5735764 0.0 -0.8191522
vn 0.57357657 0.0 0.819152
vn 0.57357657 0.0 0.819152
vn 0.5735764 0.0 0.8191522
vn 0.57357675 0.0 0.81915176
vn -0.36049235 0.79102707 -0.49428886
vn -0.36049232 0.79102707 -0.4942888
vn -0.36049202 0.79102707 -0.4942891
vn -0.36049265 0.79102707 -0.49428856
vn 0.36049166 -0.79102796 0.49428794
vn 0.36049163 -0.7910279 0.49428797
vn 0.36049214 -0.7910273 0.49428868
vn 0.3604911 -0.79102856 0.49428722
vn -0.80619663 -0.5832141 0.09954081
vn -0.80619663 -0.5832141 0.0995408
vn -0.8061967 -0.583214 0.09954058
vn -0.8061965 -0.58321416 0.09954102
vn 0.80619717 0.58321327 -0.09954127
vn 0.80619717 0.5832132 -0.09954128
vn 0.80619663 0.58321404 -0.099540874
vn 0.8061977 0.58321244 -0.09954166
vn 0.23418595 -0.8391195 -0.49095356
vn 0.23418595 -0.8391195 -0.49095356
vn 0.23418592 -0.8391195 -0.49095356
vn 0.23418595 -0.83911943 -0.49095362
vn -0.234186 0.839119 0.4909545
vn -0.234186 0.839119 0.4909545
vn -0.23418587 0.8391195 0.4909536
vn -0.23418608 0.8391185 0.49095526
vn 0.7414429 0.20566174 -0.6387219
vn 0.7414429 0.20566174 -0.6387219
vn 0.7414429 0.20566165 -0.63872194
vn 0.741443 0.2056618 -0.63872176
vn -0.7414425 -0.20566195 0.6387223
vn -0.7414425 -0.20566198 0.63872224
vn -0.741443 -0.20566155 0.63872194
vn -0.74144214 -0.20566241 0.6387226
vn -0.94985366 0.031399786 -0.31111428
vn 0.008424488 0.009736852 -0.99991715
vn -0.9519647 0.0076146787 -0.30611324
vn -0.006634168 0.023137556 -0.99971026
vn 0.95340085 0.015957981 -0.3012842
vn 0.94900066 -0.002659432 -0.3152627
vn -0.9498212 -0.016349494 -0.31236595
vn -0.010056017 -0.004062245 -0.99994123
vn 0.94735104 0.03451081 -0.31833163
vn -0.5943331 0.010954194 0.80414426
vn -0.9519647 0.0076146787 -0.30611324
vn -0.57945096 0.012749859 0.8149073
vn -0.94985366 0.031399786 -0.31111428
vn 0.58558255 -0.010325501 0.8105471
vn 0.5903259 0.017694939 0.806971
vn 0.94900066 -0.002659432 -0.3152627
vn 0.95340085 0.015957981 -0.3012842
vn -0.5976954 0.014120793 0.8015989
vn -0.9498212 -0.016349494 -0.31236595
vn 0.58385146 0.046026107 0.81055474
vn 0.94735104 0.03451081 -0.31833163
vn -0.0 -1.0 0.0
vn -0.0 -1.0 0.0
vn -0.0 -1.0 0.0
vn -0.0 -1.0 0.0
vn -0.0 -1.0 0.0
vn -0.0 1.0 0.0
vn -0.0 1.0 0.0
vn -0.0 1.0 -1.2577916E-5
vn -0.0 1.0 0.0
vn -0.0 1.0 1.0175402E-5
vn 0.2853944 0.8700361 0.40197918
vn 0.28539434 0.8700361 0.40197915
vn 0.28539425 0.8700361 0.4019793
vn 0.28539452 0.8700361 0.401979
vn -0.28539315 -0.87003654 -0.40197897
vn -0.28539312 -0.87003654 -0.40197894
vn -0.28539428 -0.8700358 -0.40197974
vn -0.28539205 -0.87003726 -0.4019782
vn 0.7498943 -0.49470943 -0.43922785
vn 0.7498944 -0.49470943 -0.43922782
vn 0.7498943 -0.49470946 -0.4392278
vn 0.7498944 -0.49470943 -0.43922773
vn -0.74989474 0.494708 0.4392287
vn -0.74989474 0.49470803 0.4392288
vn -0.7498945 0.494709 0.4392279
vn -0.7498949 0.49470708 0.43922958
vn -0.86602587 0.0 0.49999914
vn -0.86602587 0.0 0.49999914
vn -0.8660256 0.0 0.49999964
vn -0.8660262 0.0 0.4999986
vn 0.8660253 0.0 -0.5000001
vn 0.8660253 0.0 -0.5000001
vn 0.8660255 0.0 -0.49999994
vn 0.86602527 0.0 -0.50000036
vn -0.52382666 0.79102755 0.31603974
vn -0.52382666 0.79102755 0.3160397
vn -0.52382684 0.79102755 0.31603947
vn -0.5238265 0.79102755 0.31604
vn 0.5238264 -0.79102784 -0.31603923
vn 0.5238264 -0.79102784 -0.31603923
vn 0.52382696 -0.7910273 -0.3160396
vn 0.5238258 -0.79102844 -0.3160389
vn 0.028897462 -0.5832142 0.81180423
vn 0.028897462 -0.5832141 0.81180423
vn 0.028897284 -0.58321416 0.81180435
vn 0.028897647 -0.5832142 0.81180423
vn -0.028897915 0.5832133 -0.8118049
vn -0.028897915 0.5832133 -0.8118049
vn -0.028897498 0.5832143 -0.8118042
vn -0.028898334 0.58321226 -0.8118056
vn -0.46867493 -0.8391193 -0.2760844
vn -0.46867493 -0.8391193 -0.27608436
vn -0.468675 -0.8391193 -0.27608415
vn -0.4686749 -0.83911926 -0.2760846
vn 0.4686756 0.8391189 0.27608445
vn 0.4686756 0.8391189 0.27608445
vn 0.46867502 0.83911926 0.27608427
vn 0.4686762 0.8391185 0.27608454
vn -0.3988038 0.83547777 -0.37806392
vn -0.39880383 0.83547777 -0.37806395
vn -0.39880344 0.835478 -0.3780639
vn -0.3988042 0.8354776 -0.378064
vn 0.3988046 -0.8354777 0.3780633
vn 0.39880463 -0.8354777 0.37806332
vn 0.3988045 -0.8354776 0.3780637
vn 0.39880478 -0.8354779 0.37806293
vn 0.8922259 0.20566179 0.40204006
vn 0.8922259 0.2056618 0.4020401
vn 0.8922258 0.20566188 0.4020401
vn 0.892226 0.2056617 0.40203997
vn -0.8922263 -0.20566182 -0.40203914
vn -0.8922263 -0.20566179 -0.4020391
vn -0.8922263 -0.20566165 -0.4020393
vn -0.8922264 -0.20566201 -0.402039
vn -0.7235321 -0.58321416 0.36927304
vn -0.723532 -0.58321416 0.36927307
vn -0.72353226 -0.58321404 0.3692728
vn -0.72353184 -0.5832143 0.3692733
vn 0.7235321 0.5832135 -0.3692739
vn 0.7235321 0.58321357 -0.3692739
vn 0.72353154 0.5832148 -0.36927307
vn 0.7235327 0.5832123 -0.36927477
vn -0.37337643 0.9153585 0.15069439
vn -0.37337643 0.9153585 0.15069439
vn -0.3733763 0.9153586 0.15069464
vn -0.37337658 0.9153585 0.15069415
vn 0.37337723 -0.9153582 -0.15069444
vn 0.3733773 -0.9153582 -0.15069444
vn 0.37337673 -0.9153584 -0.1506941
vn 0.37337774 -0.9153579 -0.15069477
vt 0.8228859 0.34588218
vt 0.99555606 0.0061826706
vt 0.8228859 0.0061826706
vt 0.99555606 0.34588218
vt 0.99555606 0.34588218
vt 0.8228858 0.0061826706
vt 0.99555606 0.0061826706
vt 0.8228858 0.34588218
vt 0.8228859 0.34588218
vt 0.99555606 0.0061826706
vt 0.8228859 0.0061826706
vt 0.99555606 0.34588218
vt 0.99555606 0.34588218
vt 0.8228858 0.0061826706
vt 0.99555606 0.0061826706
vt 0.8228858 0.34588218
vt 0.8228859 0.34588218
vt 0.99555606 0.0061826706
vt 0.8228859 0.0061826706
vt 0.99555606 0.34588218
vt 0.99555606 0.34588218
vt 0.8228858 0.0061826706
vt 0.99555606 0.0061826706
vt 0.8228858 0.34588218
vt 0.8228859 0.34588218
vt 0.99555606 0.0061826706
vt 0.8228859 0.0061826706
vt 0.99555606 0.34588218
vt 0.99555606 0.34588218
vt 0.8228858 0.0061826706
vt 0.99555606 0.0061826706
vt 0.8228858 0.34588218
vt 0.8228859 0.34588218
vt 0.99555606 0.0061826706
vt 0.8228859 0.0061826706
vt 0.99555606 0.34588218
vt 0.99555606 0.34588218
vt 0.8228858 0.0061826706
vt 0.99555606 0.0061826706
vt 0.8228858 0.34588218
vt 0.8228859 0.34588218
vt 0.99555606 0.0061826706
vt 0.8228859 0.0061826706
vt 0.99555606 0.34588218
vt 0.99555606 0.34588218
vt 0.8228858 0.0061826706
vt 0.99555606 0.0061826706
vt 0.8228858 0.34588218
vt 0.8228859 0.34588218
vt 0.99555606 0.0061826706
vt 0.8228859 0.0061826706
vt 0.99555606 0.34588218
vt 0.99555606 0.34588218
vt 0.8228858 0.0061826706
vt 0.99555606 0.0061826706
vt 0.8228858 0.34588218
vt 0.8228859 0.34588218
vt 0.99555606 0.0061826706
vt 0.8228859 0.0061826706
vt 0.99555606 0.34588218
vt 0.99555606 0.34588218
vt 0.8228858 0.0061826706
vt 0.99555606 0.0061826706
vt 0.8228858 0.34588218
vt 0.8228859 0.34588218
vt 0.99555606 0.0061826706
vt 0.8228859 0.0061826706
vt 0.99555606 0.34588218
vt 0.99555606 0.34588218
vt 0.8228858 0.0061826706
vt 0.99555606 0.0061826706
vt 0.8228858 0.34588218
vt 0.8228859 0.34588218
vt 0.99555606 0.0061826706
vt 0.8228859 0.0061826706
vt 0.99555606 0.34588218
vt 0.99555606 0.34588218
vt 0.8228858 0.0061826706
vt 0.99555606 0.0061826706
vt 0.8228858 0.34588218
vt 0.48339814 0.75017655
vt 0.256375 0.78492707
vt 0.2553057 0.77270424
vt 0.48491424 0.76750505
vt 0.25717083 0.7971708
vt 0.48604238 0.7848631
vt 0.027207725 0.7951479
vt 0.027840782 0.80237705
vt 0.028301992 0.8094784
vt 0.4871332 0.81963336
vt 0.25791362 0.83396685
vt 0.25794032 0.821697
vt 0.48709542 0.837028
vt 0.48678225 0.80224216
vt 0.25769266 0.80942965
vt 0.48604238 0.7848631
vt 0.25717083 0.7971708
vt 0.028750129 0.8237606
vt 0.028733436 0.83098984
vt 0.028605953 0.81661713
vt 0.028301992 0.8094784
vt 0.4994101 0.7433799
vt 0.48491424 0.76750505
vt 0.48339814 0.75017655
vt 0.5108221 0.7565078
vt 0.50186306 0.771418
vt 0.020081706 0.79350275
vt 0.02111312 0.80529106
vt 0.016315091 0.79977155
vt 0.027207725 0.7951479
vt 0.027840782 0.80237705
vt 0.8228859 0.34588218
vt 0.99555606 0.0061826706
vt 0.8228859 0.0061826706
vt 0.99555606 0.34588218
vt 0.99555606 0.34588218
vt 0.8228858 0.0061826706
vt 0.99555606 0.0061826706
vt 0.8228858 0.34588218
vt 0.8228859 0.34588218
vt 0.99555606 0.0061826706
vt 0.8228859 0.0061826706
vt 0.99555606 0.34588218
vt 0.99555606 0.34588218
vt 0.8228858 0.0061826706
vt 0.99555606 0.0061826706
vt 0.8228858 0.34588218
vt 0.8228859 0.34588218
vt 0.99555606 0.0061826706
vt 0.8228859 0.0061826706
vt 0.99555606 0.34588218
vt 0.99555606 0.34588218
vt 0.8228858 0.0061826706
vt 0.99555606 0.0061826706
vt 0.8228858 0.34588218
vt 0.8228859 0.34588218
vt 0.99555606 0.0061826706
vt 0.8228859 0.0061826706
vt 0.99555606 0.34588218
vt 0.99555606 0.34588218
vt 0.8228858 0.0061826706
vt 0.99555606 0.0061826706
vt 0.8228858 0.34588218
vt 0.8228859 0.34588218
vt 0.99555606 0.0061826706
vt 0.8228859 0.0061826706
vt 0.99555606 0.34588218
vt 0.99555606 0.34588218
vt 0.8228858 0.0061826706
vt 0.99555606 0.0061826706
vt 0.8228858 0.34588218
vt 0.8228859 0.34588218
vt 0.99555606 0.0061826706
vt 0.8228859 0.0061826706
vt 0.99555606 0.34588218
vt 0.99555606 0.34588218
vt 0.8228858 0.0061826706
vt 0.99555606 0.0061826706
vt 0.8228858 0.34588218
vt 0.8228859 0.34588218
vt 0.99555606 0.0061826706
vt 0.8228859 0.0061826706
vt 0.99555606 0.34588218
vt 0.99555606 0.34588218
vt 0.8228858 0.0061826706
vt 0.99555606 0.0061826706
vt 0.8228858 0.34588218
vt 0.8228859 0.34588218
vt 0.99555606 0.0061826706
vt 0.8228859 0.0061826706
vt 0.99555606 0.34588218
vt 0.99555606 0.34588218
vt 0.8228858 0.0061826706
vt 0.99555606 0.0061826706
vt 0.8228858 0.34588218
vt 0.8228859 0.34588218
vt 0.99555606 0.0061826706
vt 0.8228859 0.0061826706
vt 0.99555606 0.34588218
vt 0.99555606 0.34588218
vt 0.8228858 0.0061826706
vt 0.99555606 0.0061826706
vt 0.8228858 0.34588218
vt 0.8228859 0.34588218
vt 0.99555606 0.0061826706
vt 0.8228859 0.0061826706
vt 0.99555606 0.34588218
vt 0.99555606 0.34588218
vt 0.8228858 0.0061826706
vt 0.99555606 0.0061826706
vt 0.8228858 0.34588218

g Tree_05
s 1
usemtl Tree_05
f 3/3/3 2/2/2 1/1/1 
f 4/4/4 1/1/1 2/2/2 
f 7/7/7 6/6/6 5/5/5 
f 8/8/8 5/5/5 6/6/6 
f 11/11/11 10/10/10 9/9/9 
f 12/12/12 9/9/9 10/10/10 
f 15/15/15 14/14/14 13/13/13 
f 16/16/16 13/13/13 14/14/14 
f 19/19/19 18/18/18 17/17/17 
f 20/20/20 17/17/17 18/18/18 
f 23/23/23 22/22/22 21/21/21 
f 24/24/24 21/21/21 22/22/22 
f 27/27/27 26/26/26 25/25/25 
f 28/28/28 25/25/25 26/26/26 
f 31/31/31 30/30/30 29/29/29 
f 32/32/32 29/29/29 30/30/30 
f 35/35/35 34/34/34 33/33/33 
f 36/36/36 33/33/33 34/34/34 
f 39/39/39 38/38/38 37/37/37 
f 40/40/40 37/37/37 38/38/38 
f 43/43/43 42/42/42 41/41/41 
f 44/44/44 41/41/41 42/42/42 
f 47/47/47 46/46/46 45/45/45 
f 48/48/48 45/45/45 46/46/46 
f 51/51/51 50/50/50 49/49/49 
f 52/52/52 49/49/49 50/50/50 
f 55/55/55 54/54/54 53/53/53 
f 56/56/56 53/53/53 54/54/54 
f 59/59/59 58/58/58 57/57/57 
f 60/60/60 57/57/57 58/58/58 
f 63/63/63 62/62/62 61/61/61 
f 64/64/64 61/61/61 62/62/62 
f 67/67/67 66/66/66 65/65/65 
f 68/68/68 65/65/65 66/66/66 
f 71/71/71 70/70/70 69/69/69 
f 72/72/72 69/69/69 70/70/70 
f 75/75/75 74/74/74 73/73/73 
f 76/76/76 73/73/73 74/74/74 
f 79/79/79 78/78/78 77/77/77 
f 80/80/80 77/77/77 78/78/78 
f 83/83/83 82/82/82 81/81/81 
f 84/84/84 81/81/81 82/82/82 
f 82/82/82 85/85/85 84/84/84 
f 86/86/86 84/84/84 85/85/85 
f 83/83/83 87/87/87 82/82/82 
f 88/88/88 82/82/82 87/87/87 
f 82/82/82 88/88/88 85/85/85 
f 89/89/89 85/85/85 88/88/88 
f 92/92/92 91/91/91 90/90/90 
f 93/93/93 90/90/90 91/91/91 
f 90/90/90 94/94/94 92/92/92 
f 95/95/95 92/92/92 94/94/94 
f 94/94/94 96/96/96 95/95/95 
f 97/97/97 95/95/95 96/96/96 
f 92/92/92 98/98/98 91/91/91 
f 99/99/99 91/91/91 98/98/98 
f 98/98/98 92/92/92 100/100/100 
f 95/95/95 100/100/100 92/92/92 
f 100/100/100 95/95/95 101/101/101 
f 97/97/97 101/101/101 95/95/95 
f 104/104/104 103/103/103 102/102/102 
f 102/102/102 103/103/103 105/105/105 
f 105/105/105 103/103/103 106/106/106 
f 109/109/109 108/108/108 107/107/107 
f 107/107/107 108/108/108 110/110/110 
f 110/110/110 108/108/108 111/111/111 
f 114/114/114 113/113/113 112/112/112 
f 115/115/115 112/112/112 113/113/113 
f 118/118/118 117/117/117 116/116/116 
f 119/119/119 116/116/116 117/117/117 
f 122/122/122 121/121/121 120/120/120 
f 123/123/123 120/120/120 121/121/121 
f 126/126/126 125/125/125 124/124/124 
f 127/127/127 124/124/124 125/125/125 
f 130/130/130 129/129/129 128/128/128 
f 131/131/131 128/128/128 129/129/129 
f 134/134/134 133/133/133 132/132/132 
f 135/135/135 132/132/132 133/133/133 
f 138/138/138 137/137/137 136/136/136 
f 139/139/139 136/136/136 137/137/137 
f 142/142/142 141/141/141 140/140/140 
f 143/143/143 140/140/140 141/141/141 
f 146/146/146 145/145/145 144/144/144 
f 147/147/147 144/144/144 145/145/145 
f 150/150/150 149/149/149 148/148/148 
f 151/151/151 148/148/148 149/149/149 
f 154/154/154 153/153/153 152/152/152 
f 155/155/155 152/152/152 153/153/153 
f 158/158/158 157/157/157 156/156/156 
f 159/159/159 156/156/156 157/157/157 
f 162/162/162 161/161/161 160/160/160 
f 163/163/163 160/160/160 161/161/161 
f 166/166/166 165/165/165 164/164/164 
f 167/167/167 164/164/164 165/165/165 
f 170/170/170 169/169/169 168/168/168 
f 171/171/171 168/168/168 169/169/169 
f 174/174/174 173/173/173 172/172/172 
f 175/175/175 172/172/172 173/173/173 
f 178/178/178 177/177/177 176/176/176 
f 179/179/179 176/176/176 177/177/177 
f 182/182/182 181/181/181 180/180/180 
f 183/183/183 180/180/180 181/181/181 
f 186/186/186 185/185/185 184/184/184 
f 187/187/187 184/184/184 185/185/185 
f 190/190/190 189/189/189 188/188/188 
f 191/191/191 188/188/188 189/189/189 

