# Created by DisUnity v0.3.4
v 0.9129025 6.3881006 0.6089599
v -1.011671 11.246443 -2.1969788
v 2.578734 9.687635 -1.3376999
v -2.6775074 7.946904 -0.25031903
v -2.6796043 7.947813 -0.2508269
v 2.576633 9.688547 -1.3382065
v -1.013777 11.247352 -2.1974852
v 0.9107983 6.3890123 0.608459
v 0.29491025 4.9585695 0.8034386
v 0.45594886 8.881539 -3.4897654
v 1.9871337 4.9705853 -2.7770934
v -1.2362746 8.869525 0.09076606
v -1.2371778 8.871811 0.09034729
v 1.986228 4.9728723 -2.7775116
v 0.4550474 8.883829 -3.4901834
v 0.2940135 4.9608603 0.80302167
v 0.15489148 5.3017793 2.2132595
v 3.154931 8.865577 -3.1447897
v 4.507477 7.660746 1.4501753
v -1.1976523 6.5066075 -2.3817067
v -1.1982827 6.5071692 -2.3838751
v 4.506842 7.6613116 1.4480094
v 3.1543002 8.86614 -3.146959
v 0.15425342 5.30235 2.2110963
v -0.7059977 4.8184166 -0.5688566
v 3.051081 9.34737 -0.34155393
v 2.6988344 5.6919794 -2.4267669
v -0.35375226 8.473805 1.5163572
v -0.35354924 8.475948 1.5175738
v 2.6990333 5.6941204 -2.4255507
v 3.0512786 9.349514 -0.3403352
v -0.7057899 4.8205547 -0.56763583
v 1.2882999 10.614592 0.23216891
v -1.1357001 6.027222 3.033153
v 0.77580017 9.644698 4.0575247
v -0.6232046 6.9971166 -0.7922023
v -0.62421024 6.995218 -0.7910448
v 0.77479094 9.642801 4.058682
v -1.1367105 6.0253243 3.0343084
v 1.2872949 10.612694 0.23332725
v -0.28641176 4.765164 0.2221112
v -2.2259982 10.308767 1.5802112
v -3.334855 6.245117 2.3566499
v 0.8224449 8.8288145 -0.5543278
v 0.8230977 8.831191 -0.55477756
v -3.3342028 6.247492 2.3561997
v -2.2253428 10.311148 1.5797603
v -0.28576246 4.7675395 0.22165647
v -1.5641882 4.3607907 -0.37855935
v 0.98556256 8.103074 3.2431026
v -2.5674312 6.20835 3.0591948
v 1.9888066 6.2555165 -0.1946522
v 1.9908863 6.256619 -0.19454256
v -2.565347 6.209454 3.0593052
v 0.98765075 8.104179 3.2432122
v -1.5621114 4.3619 -0.37845206
v 0.86482346 3.8654425 0.3943371
v -2.0119023 8.597704 2.471495
v 0.2468538 5.474611 4.01829
v -1.3939337 6.988535 -1.1524564
v -1.3952495 6.990366 -1.1533632
v 0.24553742 5.4764404 4.0173855
v -2.0132222 8.599537 2.4705875
v 0.8635011 3.8672686 0.3934312
v -1.1385171 4.6243086 1.1737406
v -0.48687512 7.839475 -3.5448449
v -3.5145688 5.8039684 -1.8049574
v 1.8891768 6.659814 -0.56614393
v 1.8909479 6.6610117 -0.56715995
v -3.5127966 5.805164 -1.8059735
v -0.48510003 7.8406725 -3.5458603
v -1.1367474 4.625499 1.1727232
v 0.6379616 3.2039673 0.40572813
v -3.478251 7.756506 -3.030855
v -2.3986757 2.6533074 -3.2815459
v -0.44161385 8.307167 0.65642023
v -0.4421371 8.309629 0.6565448
v -2.3991976 2.6557674 -3.28142
v -3.4787738 7.758972 -3.0307293
v 0.6374408 3.206432 0.40584856
v -0.31117195 6.197147E-4 0.038133185
v -0.07231958 4.6303663 0.031632237
v -0.18212509 4.6303663 0.11141163
v -0.15550044 6.197147E-4 -0.074968606
v 0.03748949 4.630365 0.111411326
v 1.7105951E-4 6.191228E-4 0.03813302
v -0.22094811 7.7258196 0.06744725
v -0.15550044 7.7258196 0.019894656
v -0.09004745 7.7258186 0.067446515
v -0.2517107 6.197147E-4 0.22113545
v -0.18212509 4.6303663 0.11141163
v -0.14018336 4.630365 0.2404974
v -0.31117195 6.197147E-4 0.038133185
v -0.05929017 6.203066E-4 0.22113577
v -0.0044545955 4.6303663 0.24049756
v 1.7105951E-4 6.191228E-4 0.03813302
v 0.03748949 4.630365 0.111411326
v -0.1959494 7.7258196 0.14438836
v -0.22094811 7.7258196 0.06744725
v -0.115047924 7.7258196 0.1443882
v -0.09004745 7.7258186 0.067446515
v -0.2517107 6.197147E-4 0.22113545
v -0.15550044 6.197147E-4 -0.074968606
v -0.31117195 6.197147E-4 0.038133185
v -0.05929017 6.203066E-4 0.22113577
v 1.7105951E-4 6.191228E-4 0.03813302
v -0.1959494 7.7258196 0.14438836
v -0.09004745 7.7258186 0.067446515
v -0.115047924 7.7258196 0.1443882
v -0.22094811 7.7258196 0.06744725
v -0.15550044 7.7258196 0.019894656
v 2.4150524 2.8675485 -0.17018858
v -3.692492 7.155422 -4.327893
v 1.956851 5.705803 -5.4672084
v -3.234291 4.3171716 0.9691216
v -3.236955 4.3178444 0.9696523
v 1.9541887 5.7064795 -5.4666734
v -3.6951585 7.1561027 -4.327363
v 2.412393 2.868236 -0.16965173
v -1.0098585 2.2859843 0.5699282
v -0.34342867 7.735107 -3.9094589
v -2.8796978 3.3370318 -3.7059147
v 1.52641 6.6840568 0.3663895
v 1.527888 6.6866336 0.36627278
v -2.8782153 3.3396053 -3.706032
v -0.34194952 7.737685 -3.909573
v -1.0083723 2.2885525 0.5698083
v -0.017805396 2.2219062 0.14995557
v 1.4066104 8.891835 2.617155
v 2.220969 4.002552 4.0276456
v -0.8321633 7.111191 -1.2605385
v -0.83263856 7.114055 -1.2613654
v 2.2204983 4.00541 4.0268183
v 1.4061387 8.8947 2.6163235
v -0.018283058 2.2247663 0.14913076
v -0.87176156 1.7353776 1.6185098
v 3.7365267 6.2379985 -1.0578403
v 3.1435103 3.958315 3.1814883
v -0.278751 4.015063 -2.6208148
v -0.27839997 4.0163903 -2.6233017
v 3.1438608 3.9596436 3.179006
v 3.7368727 6.239329 -1.0603261
v -0.87141585 1.7367117 1.6160294
v 0.30934292 1.1393884 -1.2118483
v 2.4973526 6.833123 2.4540043
v 4.588195 3.0754955 -0.091132
v -1.7815003 4.897015 1.33329
v -1.7827269 4.899219 1.3347721
v 4.5869718 3.0776992 -0.08965152
v 2.4961255 6.835331 2.4554894
v 0.30812067 1.1415844 -1.2103593
v 1.0334568 2.0524335 1.2710786
v -4.5538874 5.9208417 -0.0047858693
v -2.7859619 3.4717708 3.806649
v -0.7344668 4.5015044 -2.5403585
v -0.7354973 4.502944 -2.5425856
v -2.7869935 3.4732125 3.8044205
v -4.554919 5.9222836 -0.0070180544
v 1.0324222 2.0538678 1.2688516
v -0.74417627 2.796311 -2.388498
v -3.2091448 5.204738 5.082877
v -5.51517 1.86436 0.75929856
v 1.561848 6.136692 1.9350799
v 1.5629655 6.1383 1.9371674
v -5.5140533 1.8659662 0.7613869
v -3.2080278 5.2063465 5.084968
v -0.7430641 2.7979236 -2.386411
vn 0.011916336 0.5036302 0.8638371
vn 0.011916352 0.5036302 0.8638371
vn 0.011916678 0.50363034 0.8638371
vn 0.011916011 0.50363016 0.8638372
vn -0.011915528 -0.503631 -0.86383665
vn -0.011915558 -0.5036309 -0.86383677
vn -0.011916037 -0.50362986 -0.86383736
vn -0.0119150495 -0.50363207 -0.8638361
vn 0.8295114 0.39644563 0.39337227
vn 0.8295114 0.39644563 0.3933723
vn 0.8295114 0.3964457 0.39337233
vn 0.8295114 0.3964456 0.39337227
vn -0.8295115 -0.39644587 -0.39337155
vn -0.82951164 -0.39644602 -0.39337143
vn -0.82951146 -0.3964446 -0.3933732
vn -0.8295117 -0.39644727 -0.39336985
vn -0.40102482 0.85024136 0.3409819
vn -0.4010249 0.85024136 0.3409819
vn -0.4010245 0.8502414 0.34098214
vn -0.40102527 0.85024136 0.34098163
vn 0.40102485 -0.8502421 -0.34098017
vn 0.4010249 -0.8502421 -0.34098026
vn 0.40102556 -0.8502413 -0.34098145
vn 0.40102422 -0.85024285 -0.340979
vn 0.51321334 -0.46204606 0.72327423
vn 0.5132134 -0.46204606 0.72327423
vn 0.5132133 -0.46204597 0.7232743
vn 0.51321334 -0.46204606 0.72327405
vn -0.5132145 0.46204498 -0.723274
vn -0.5132145 0.4620449 -0.723274
vn -0.51321375 0.46204585 -0.72327393
vn -0.51321524 0.4620441 -0.72327405
vn 0.88415474 -0.46719417 0.0
vn 0.88415474 -0.46719417 0.0
vn 0.8841549 -0.4671939 0.0
vn 0.88415456 -0.4671945 0.0
vn -0.8841546 0.46719447 0.0
vn -0.88415456 0.4671945 0.0
vn -0.8841548 0.467194 0.0
vn -0.8841543 0.46719494 0.0
vn -0.5735762 0.0 -0.8191522
vn -0.5735762 0.0 -0.8191522
vn -0.5735762 0.0 -0.8191522
vn -0.57357633 0.0 -0.8191522
vn 0.5735766 0.0 0.81915194
vn 0.5735766 0.0 0.81915194
vn 0.5735764 0.0 0.8191522
vn 0.5735769 0.0 0.8191517
vn -0.3803275 0.76380825 -0.5214862
vn -0.3803275 0.7638083 -0.5214862
vn -0.3803273 0.7638083 -0.5214864
vn -0.38032767 0.76380825 -0.5214861
vn 0.380327 -0.7638092 0.5214852
vn 0.380327 -0.7638092 0.5214852
vn 0.3803275 -0.7638086 0.5214859
vn 0.38032657 -0.7638099 0.52148455
vn -0.8294228 -0.5491541 0.10240861
vn -0.8294228 -0.5491541 0.10240861
vn -0.8294229 -0.54915404 0.10240839
vn -0.8294228 -0.54915416 0.10240884
vn 0.82942337 0.54915327 -0.10240873
vn 0.82942337 0.54915327 -0.10240876
vn 0.8294228 0.5491543 -0.102408275
vn 0.829424 0.5491522 -0.102409236
vn 0.24884023 -0.8160471 -0.52167594
vn 0.2488402 -0.8160471 -0.52167594
vn 0.24884018 -0.8160471 -0.521676
vn 0.24884026 -0.81604695 -0.5216759
vn -0.2488407 0.8160464 0.5216766
vn -0.2488407 0.8160464 0.52167666
vn -0.24884064 0.8160471 0.52167577
vn -0.24884084 0.8160459 0.52167755
vn 0.7440018 0.18887775 -0.64092624
vn 0.7440018 0.18887775 -0.64092624
vn 0.74400175 0.18887772 -0.64092636
vn 0.7440019 0.18887782 -0.6409262
vn -0.74400145 -0.1888781 0.64092666
vn -0.7440014 -0.18887813 0.64092666
vn -0.744002 -0.18887761 0.6409262
vn -0.74400085 -0.18887861 0.64092714
vn -0.9498538 0.03139978 -0.31111398
vn 0.008424984 0.009736873 -0.99991715
vn -0.95196444 0.007614691 -0.30611375
vn -0.006634097 0.023137555 -0.99971026
vn 0.95340085 0.015957987 -0.301284
vn 0.94900066 -0.0026594307 -0.3152627
vn -0.9498212 -0.016349494 -0.31236574
vn -0.010056929 -0.0040622684 -0.99994123
vn 0.94735086 0.034510802 -0.31833205
vn -0.59433335 0.010954198 0.8041442
vn -0.95196444 0.007614691 -0.30611375
vn -0.57945096 0.012749874 0.81490743
vn -0.9498538 0.03139978 -0.31111398
vn 0.5855829 -0.010325503 0.8105467
vn 0.5903255 0.017694933 0.8069713
vn 0.94900066 -0.0026594307 -0.3152627
vn 0.95340085 0.015957987 -0.301284
vn -0.5976954 0.014120796 0.80159897
vn -0.9498212 -0.016349494 -0.31236574
vn 0.58385146 0.046026114 0.81055474
vn 0.94735086 0.034510802 -0.31833205
vn -0.0 -1.0 0.0
vn -0.0 -1.0 0.0
vn -0.0 -1.0 0.0
vn -0.0 -1.0 0.0
vn -0.0 -1.0 0.0
vn -0.0 1.0 0.0
vn -0.0 1.0 0.0
vn -0.0 1.0 -1.2394777E-5
vn -0.0 1.0 0.0
vn -0.0 1.0 1.0027244E-5
vn 0.30473286 0.85024136 0.42921716
vn 0.3047329 0.85024136 0.42921722
vn 0.3047328 0.85024136 0.42921728
vn 0.30473295 0.85024136 0.4292171
vn -0.30473152 -0.85024196 -0.4292171
vn -0.30473152 -0.85024196 -0.42921707
vn -0.30473283 -0.8502411 -0.429218
vn -0.30473018 -0.85024285 -0.4292162
vn 0.7652513 -0.4620466 -0.44822252
vn 0.7652513 -0.46204653 -0.4482225
vn 0.76525116 -0.46204674 -0.4482227
vn 0.76525134 -0.46204647 -0.44822237
vn -0.76525193 0.46204498 0.44822314
vn -0.76525193 0.46204492 0.44822323
vn -0.7652518 0.46204567 0.44822252
vn -0.765252 0.46204418 0.4482239
vn -0.86602616 0.0 0.49999878
vn -0.86602616 0.0 0.4999987
vn -0.866026 0.0 0.499999
vn -0.86602634 0.0 0.49999842
vn 0.8660256 0.0 -0.49999964
vn 0.8660256 0.0 -0.4999997
vn 0.8660257 0.0 -0.4999995
vn 0.8660255 0.0 -0.4999999
vn -0.5526495 0.76380867 0.33342892
vn -0.5526495 0.76380867 0.33342898
vn -0.55265003 0.76380867 0.3334282
vn -0.552649 0.76380867 0.33342966
vn 0.5526493 -0.76380914 -0.33342832
vn 0.5526492 -0.76380914 -0.3334283
vn 0.55264986 -0.7638084 -0.3334287
vn 0.55264866 -0.76380974 -0.33342788
vn 0.029729865 -0.5491544 0.83519197
vn 0.029729877 -0.5491544 0.83519197
vn 0.02972957 -0.54915434 0.835192
vn 0.029730171 -0.5491545 0.8351919
vn -0.029730482 0.5491534 -0.8351926
vn -0.029730504 0.5491533 -0.8351926
vn -0.029730046 0.5491544 -0.83519197
vn -0.029730942 0.5491523 -0.8351933
vn -0.49800304 -0.8160469 -0.2933605
vn -0.49800304 -0.8160469 -0.29336053
vn -0.49800304 -0.8160469 -0.2933605
vn -0.498003 -0.81604695 -0.2933606
vn 0.4980037 0.8160464 0.29336062
vn 0.4980038 0.8160464 0.29336062
vn 0.49800286 0.81604695 0.29336044
vn 0.49800465 0.8160458 0.29336086
vn -0.42352316 0.81205165 -0.4014975
vn -0.42352316 0.81205165 -0.40149754
vn -0.42352286 0.81205183 -0.4014975
vn -0.42352346 0.8120515 -0.40149757
vn 0.42352355 -0.81205183 0.40149677
vn 0.4235236 -0.81205183 0.4014968
vn 0.42352346 -0.8120517 0.4014972
vn 0.42352366 -0.81205195 0.40149632
vt 0.0039556324 0.72859836
vt 0.31907606 0.32333982
vt 0.0039556324 0.32333982
vt 0.31907606 0.72859836
vt 0.31907606 0.72859836
vt 0.0039556283 0.32333982
vt 0.31907606 0.32333982
vt 0.0039556283 0.72859836
vt 0.0039556324 0.72859836
vt 0.31907606 0.32333982
vt 0.0039556324 0.32333982
vt 0.31907606 0.72859836
vt 0.31907606 0.72859836
vt 0.0039556283 0.32333982
vt 0.31907606 0.32333982
vt 0.0039556283 0.72859836
vt 0.0039556324 0.72859836
vt 0.31907606 0.32333982
vt 0.0039556324 0.32333982
vt 0.31907606 0.72859836
vt 0.31907606 0.72859836
vt 0.0039556283 0.32333982
vt 0.31907606 0.32333982
vt 0.0039556283 0.72859836
vt 0.0039556324 0.72859836
vt 0.31907606 0.32333982
vt 0.0039556324 0.32333982
vt 0.31907606 0.72859836
vt 0.31907606 0.72859836
vt 0.0039556283 0.32333982
vt 0.31907606 0.32333982
vt 0.0039556283 0.72859836
vt 0.0039556324 0.72859836
vt 0.31907606 0.32333982
vt 0.0039556324 0.32333982
vt 0.31907606 0.72859836
vt 0.31907606 0.72859836
vt 0.0039556283 0.32333982
vt 0.31907606 0.32333982
vt 0.0039556283 0.72859836
vt 0.0039556324 0.72859836
vt 0.31907606 0.32333982
vt 0.0039556324 0.32333982
vt 0.31907606 0.72859836
vt 0.31907606 0.72859836
vt 0.0039556283 0.32333982
vt 0.31907606 0.32333982
vt 0.0039556283 0.72859836
vt 0.0039556324 0.72859836
vt 0.31907606 0.32333982
vt 0.0039556324 0.32333982
vt 0.31907606 0.72859836
vt 0.31907606 0.72859836
vt 0.0039556283 0.32333982
vt 0.31907606 0.32333982
vt 0.0039556283 0.72859836
vt 0.0039556324 0.72859836
vt 0.31907606 0.32333982
vt 0.0039556324 0.32333982
vt 0.31907606 0.72859836
vt 0.31907606 0.72859836
vt 0.0039556283 0.32333982
vt 0.31907606 0.32333982
vt 0.0039556283 0.72859836
vt 0.0039556324 0.72859836
vt 0.31907606 0.32333982
vt 0.0039556324 0.32333982
vt 0.31907606 0.72859836
vt 0.31907606 0.72859836
vt 0.0039556283 0.32333982
vt 0.31907606 0.32333982
vt 0.0039556283 0.72859836
vt 0.0039556324 0.72859836
vt 0.31907606 0.32333982
vt 0.0039556324 0.32333982
vt 0.31907606 0.72859836
vt 0.31907606 0.72859836
vt 0.0039556283 0.32333982
vt 0.31907606 0.32333982
vt 0.0039556283 0.72859836
vt 0.48339814 0.75017655
vt 0.256375 0.78492707
vt 0.2553057 0.77270424
vt 0.48491424 0.76750505
vt 0.25717083 0.7971708
vt 0.48604238 0.7848631
vt 0.027207725 0.7951479
vt 0.027840782 0.80237705
vt 0.028301992 0.8094784
vt 0.4871332 0.81963336
vt 0.25791362 0.83396685
vt 0.25794032 0.821697
vt 0.48709542 0.837028
vt 0.48678225 0.80224216
vt 0.25769266 0.80942965
vt 0.48604238 0.7848631
vt 0.25717083 0.7971708
vt 0.028750129 0.8237606
vt 0.028733436 0.83098984
vt 0.028605953 0.81661713
vt 0.028301992 0.8094784
vt 0.4994101 0.7433799
vt 0.48491424 0.76750505
vt 0.48339814 0.75017655
vt 0.5108221 0.7565078
vt 0.50186306 0.771418
vt 0.020081706 0.79350275
vt 0.02111312 0.80529106
vt 0.016315091 0.79977155
vt 0.027207725 0.7951479
vt 0.027840782 0.80237705
vt 0.0039556324 0.72859836
vt 0.31907606 0.32333982
vt 0.0039556324 0.32333982
vt 0.31907606 0.72859836
vt 0.31907606 0.72859836
vt 0.0039556283 0.32333982
vt 0.31907606 0.32333982
vt 0.0039556283 0.72859836
vt 0.0039556324 0.72859836
vt 0.31907606 0.32333982
vt 0.0039556324 0.32333982
vt 0.31907606 0.72859836
vt 0.31907606 0.72859836
vt 0.0039556283 0.32333982
vt 0.31907606 0.32333982
vt 0.0039556283 0.72859836
vt 0.0039556324 0.72859836
vt 0.31907606 0.32333982
vt 0.0039556324 0.32333982
vt 0.31907606 0.72859836
vt 0.31907606 0.72859836
vt 0.0039556283 0.32333982
vt 0.31907606 0.32333982
vt 0.0039556283 0.72859836
vt 0.0039556324 0.72859836
vt 0.31907606 0.32333982
vt 0.0039556324 0.32333982
vt 0.31907606 0.72859836
vt 0.31907606 0.72859836
vt 0.0039556283 0.32333982
vt 0.31907606 0.32333982
vt 0.0039556283 0.72859836
vt 0.0039556324 0.72859836
vt 0.31907606 0.32333982
vt 0.0039556324 0.32333982
vt 0.31907606 0.72859836
vt 0.31907606 0.72859836
vt 0.0039556283 0.32333982
vt 0.31907606 0.32333982
vt 0.0039556283 0.72859836
vt 0.0039556324 0.72859836
vt 0.31907606 0.32333982
vt 0.0039556324 0.32333982
vt 0.31907606 0.72859836
vt 0.31907606 0.72859836
vt 0.0039556283 0.32333982
vt 0.31907606 0.32333982
vt 0.0039556283 0.72859836
vt 0.0039556324 0.72859836
vt 0.31907606 0.32333982
vt 0.0039556324 0.32333982
vt 0.31907606 0.72859836
vt 0.31907606 0.72859836
vt 0.0039556283 0.32333982
vt 0.31907606 0.32333982
vt 0.0039556283 0.72859836

g Tree_02
s 1
usemtl Tree_02
f 3/3/3 2/2/2 1/1/1 
f 4/4/4 1/1/1 2/2/2 
f 7/7/7 6/6/6 5/5/5 
f 8/8/8 5/5/5 6/6/6 
f 11/11/11 10/10/10 9/9/9 
f 12/12/12 9/9/9 10/10/10 
f 15/15/15 14/14/14 13/13/13 
f 16/16/16 13/13/13 14/14/14 
f 19/19/19 18/18/18 17/17/17 
f 20/20/20 17/17/17 18/18/18 
f 23/23/23 22/22/22 21/21/21 
f 24/24/24 21/21/21 22/22/22 
f 27/27/27 26/26/26 25/25/25 
f 28/28/28 25/25/25 26/26/26 
f 31/31/31 30/30/30 29/29/29 
f 32/32/32 29/29/29 30/30/30 
f 35/35/35 34/34/34 33/33/33 
f 36/36/36 33/33/33 34/34/34 
f 39/39/39 38/38/38 37/37/37 
f 40/40/40 37/37/37 38/38/38 
f 43/43/43 42/42/42 41/41/41 
f 44/44/44 41/41/41 42/42/42 
f 47/47/47 46/46/46 45/45/45 
f 48/48/48 45/45/45 46/46/46 
f 51/51/51 50/50/50 49/49/49 
f 52/52/52 49/49/49 50/50/50 
f 55/55/55 54/54/54 53/53/53 
f 56/56/56 53/53/53 54/54/54 
f 59/59/59 58/58/58 57/57/57 
f 60/60/60 57/57/57 58/58/58 
f 63/63/63 62/62/62 61/61/61 
f 64/64/64 61/61/61 62/62/62 
f 67/67/67 66/66/66 65/65/65 
f 68/68/68 65/65/65 66/66/66 
f 71/71/71 70/70/70 69/69/69 
f 72/72/72 69/69/69 70/70/70 
f 75/75/75 74/74/74 73/73/73 
f 76/76/76 73/73/73 74/74/74 
f 79/79/79 78/78/78 77/77/77 
f 80/80/80 77/77/77 78/78/78 
f 83/83/83 82/82/82 81/81/81 
f 84/84/84 81/81/81 82/82/82 
f 82/82/82 85/85/85 84/84/84 
f 86/86/86 84/84/84 85/85/85 
f 83/83/83 87/87/87 82/82/82 
f 88/88/88 82/82/82 87/87/87 
f 82/82/82 88/88/88 85/85/85 
f 89/89/89 85/85/85 88/88/88 
f 92/92/92 91/91/91 90/90/90 
f 93/93/93 90/90/90 91/91/91 
f 90/90/90 94/94/94 92/92/92 
f 95/95/95 92/92/92 94/94/94 
f 94/94/94 96/96/96 95/95/95 
f 97/97/97 95/95/95 96/96/96 
f 92/92/92 98/98/98 91/91/91 
f 99/99/99 91/91/91 98/98/98 
f 98/98/98 92/92/92 100/100/100 
f 95/95/95 100/100/100 92/92/92 
f 100/100/100 95/95/95 101/101/101 
f 97/97/97 101/101/101 95/95/95 
f 104/104/104 103/103/103 102/102/102 
f 102/102/102 103/103/103 105/105/105 
f 105/105/105 103/103/103 106/106/106 
f 109/109/109 108/108/108 107/107/107 
f 107/107/107 108/108/108 110/110/110 
f 110/110/110 108/108/108 111/111/111 
f 114/114/114 113/113/113 112/112/112 
f 115/115/115 112/112/112 113/113/113 
f 118/118/118 117/117/117 116/116/116 
f 119/119/119 116/116/116 117/117/117 
f 122/122/122 121/121/121 120/120/120 
f 123/123/123 120/120/120 121/121/121 
f 126/126/126 125/125/125 124/124/124 
f 127/127/127 124/124/124 125/125/125 
f 130/130/130 129/129/129 128/128/128 
f 131/131/131 128/128/128 129/129/129 
f 134/134/134 133/133/133 132/132/132 
f 135/135/135 132/132/132 133/133/133 
f 138/138/138 137/137/137 136/136/136 
f 139/139/139 136/136/136 137/137/137 
f 142/142/142 141/141/141 140/140/140 
f 143/143/143 140/140/140 141/141/141 
f 146/146/146 145/145/145 144/144/144 
f 147/147/147 144/144/144 145/145/145 
f 150/150/150 149/149/149 148/148/148 
f 151/151/151 148/148/148 149/149/149 
f 154/154/154 153/153/153 152/152/152 
f 155/155/155 152/152/152 153/153/153 
f 158/158/158 157/157/157 156/156/156 
f 159/159/159 156/156/156 157/157/157 
f 162/162/162 161/161/161 160/160/160 
f 163/163/163 160/160/160 161/161/161 
f 166/166/166 165/165/165 164/164/164 
f 167/167/167 164/164/164 165/165/165 

