# Created by DisUnity v0.3.4
v 2.1924279 4.8717947 -0.7804493
v -0.4424854 10.403123 -0.36933258
v 4.346563 8.649976 -1.6085875
v -2.5966146 6.624939 0.4588054
v -2.5998273 6.6261125 0.459628
v 4.343349 8.651152 -1.6077653
v -0.44569972 10.404297 -0.36850923
v 2.1892207 4.8729677 -0.77961886
v 0.77390856 3.6540437 0.51155674
v 0.94345456 7.434162 -4.0084677
v 2.555538 3.6656222 -3.2581408
v -0.8381716 7.4225836 -0.23876844
v -0.83925796 7.425107 -0.23927346
v 2.554449 3.6681454 -3.2586455
v 0.9423682 7.436689 -4.0089717
v 0.77282935 3.6565692 0.5110547
v 0.54852456 4.342053 1.5953394
v 3.0918908 7.107248 -2.9470892
v 4.238545 6.172406 0.9484154
v -0.5981303 5.2768936 -2.300165
v -0.5988965 5.2775145 -2.302777
v 4.2377796 6.173026 0.9458029
v 3.0911214 7.107869 -2.9497044
v 0.5477568 4.342679 1.5927294
v -0.1580867 3.5417662 -0.7975658
v 3.7974885 7.9058027 -0.5582541
v 3.426629 4.3835196 -2.7536328
v 0.21277022 7.064049 1.3978134
v 0.21301675 7.066411 1.3992804
v 3.4268749 4.385883 -2.752167
v 3.7977326 7.908168 -0.5567853
v -0.15783939 3.5441265 -0.79609483
v 0.5860726 5.876854 -2.7468908
v 0.58608615 9.667339 3.160773
v 0.58607966 10.030513 -2.2713518
v 0.58607835 5.5136805 2.685233
v 0.58607286 5.5134363 2.6888723
v 0.58606946 10.030272 -2.2677119
v 0.5860791 9.667095 3.1644158
v 0.58607185 5.8766108 -2.743252
v 0.20382763 3.5539486 -0.08659999
v -2.4683928 8.895687 1.7844903
v -3.9960968 4.9800096 2.8542118
v 1.731534 7.469626 -1.1563221
v 1.7325623 7.4722505 -1.1570324
v -3.9950714 4.982632 2.8535023
v -2.4673605 8.898314 1.783778
v 0.2048529 3.5565722 -0.08731787
v -1.2849796 2.9818046 -0.30882347
v 1.3994879 6.5878167 3.5041778
v -2.3412244 4.7620845 3.3105545
v 2.455732 4.807536 -0.11519973
v 2.4582412 4.8087544 -0.11506747
v -2.338713 4.7633033 3.3106859
v 1.4020009 6.5890355 3.5043094
v -1.2824712 2.9830287 -0.3086943
v 1.2289382 2.5044436 0.50500506
v -1.7997712 7.064383 2.6919034
v 0.5783232 4.0550146 4.320418
v -1.1491561 5.5138116 -1.1235099
v -1.150744 5.5158324 -1.1246024
v 0.57673436 4.057035 4.319327
v -1.8013607 7.066406 2.6908092
v 1.227344 2.50646 0.5039138
v -0.91678524 3.2357202 0.9255049
v -0.23071328 6.333811 -4.042374
v -3.4183686 4.372424 -2.2105658
v 2.270871 5.1971064 -0.90630263
v 2.2730052 5.198427 -0.9075265
v -3.4162335 4.373744 -2.2117898
v -0.22857508 6.3351316 -4.0435987
v -0.9146486 3.237035 0.9242776
v 0.7608384 2.975613 0.058187548
v -2.8122995 6.592516 -2.9249887
v -1.875159 2.538124 -3.1426044
v -0.17630196 7.0300055 0.2758031
v -0.17693356 7.0327215 0.27595317
v -1.8757913 2.5408385 -3.1424541
v -2.8129315 6.595236 -2.9248378
v 0.76021147 2.9783297 0.058333706
v 0.012769649 -0.003612694 -0.079969004
v 0.3285955 2.6832879 -0.08856424
v 0.18340214 2.6832879 0.016925693
v 0.21860947 -0.003612694 -0.22952035
v 0.47379354 2.683287 0.016925288
v 0.4244493 -0.0036134766 -0.07996923
v 0.41833213 2.6832862 0.18761197
v 0.34582546 -0.003612694 0.16200967
v 0.1320684 6.0352073 -0.041207694
v 0.21861026 6.035207 -0.10408469
v 0.3051537 6.0352073 -0.0412077
v 0.27209628 6.0352073 0.060529836
v 0.09139428 -0.003612694 0.16200969
v 0.18340214 2.6832879 0.016925693
v 0.23886281 2.683287 0.18761197
v 0.012769649 -0.003612694 -0.079969004
v 0.34582546 -0.003612694 0.16200967
v 0.41833213 2.6832862 0.18761197
v 0.16512501 6.035207 0.060529638
v 0.1320684 6.0352073 -0.041207694
v 0.27209628 6.0352073 0.060529836
v 0.09139428 -0.003612694 0.16200969
v 0.21860947 -0.003612694 -0.22952035
v 0.012769649 -0.003612694 -0.079969004
v 0.34582546 -0.003612694 0.16200967
v 0.4244493 -0.0036134766 -0.07996923
v 0.16512501 6.035207 0.060529638
v 0.3051537 6.0352073 -0.0412077
v 0.27209628 6.0352073 0.060529836
v 0.1320684 6.0352073 -0.041207694
v 0.21861026 6.035207 -0.10408469
vn 0.26961023 0.05698457 0.96128196
vn 0.2696103 0.05698459 0.96128196
vn 0.26961008 0.056984518 0.9612821
vn 0.26961038 0.056984648 0.96128196
vn -0.26960996 -0.05698586 -0.96128196
vn -0.26960984 -0.05698613 -0.96128196
vn -0.2696103 -0.056984607 -0.96128196
vn -0.2696095 -0.056987382 -0.96128196
vn 0.8171584 0.4267139 0.3875145
vn 0.8171584 0.4267139 0.38751456
vn 0.817158 0.42671424 0.38751477
vn 0.8171587 0.42671356 0.38751423
vn -0.81715864 -0.42671433 -0.38751355
vn -0.8171585 -0.42671427 -0.38751352
vn -0.8171585 -0.42671335 -0.38751465
vn -0.81715864 -0.4267153 -0.38751242
vn -0.37557602 0.8700361 0.31934288
vn -0.37557605 0.8700361 0.31934285
vn -0.37557593 0.8700361 0.31934288
vn -0.37557608 0.8700361 0.3193428
vn 0.37557548 -0.87003654 -0.31934232
vn 0.37557542 -0.87003654 -0.31934226
vn 0.37557608 -0.87003595 -0.3193434
vn 0.37557486 -0.8700372 -0.3193412
vn 0.5029142 -0.4947092 0.7087596
vn 0.5029142 -0.49470922 0.7087596
vn 0.5029142 -0.4947093 0.70875955
vn 0.50291413 -0.49470913 0.70875967
vn -0.5029149 0.49470863 -0.7087594
vn -0.5029149 0.4947087 -0.7087594
vn -0.5029143 0.4947093 -0.7087594
vn -0.50291544 0.49470797 -0.7087595
vn 1.0 0.0 0.0
vn 1.0 0.0 0.0
vn 1.0 0.0 0.0
vn 1.0 0.0 0.0
vn -1.0 0.0 0.0
vn -1.0 0.0 0.0
vn -1.0 0.0 0.0
vn -1.0 0.0 0.0
vn -0.5735761 0.0 -0.8191523
vn -0.5735761 0.0 -0.8191523
vn -0.57357615 0.0 -0.81915224
vn -0.5735759 0.0 -0.8191523
vn 0.57357633 0.0 0.81915206
vn 0.57357633 0.0 0.8191522
vn 0.573576 0.0 0.8191523
vn 0.5735767 0.0 0.8191518
vn -0.3604922 0.79102725 -0.49428877
vn -0.36049217 0.7910271 -0.49428874
vn -0.36049226 0.7910271 -0.49428865
vn -0.36049214 0.7910271 -0.4942889
vn 0.36049166 -0.7910279 0.49428806
vn 0.3604917 -0.79102784 0.49428803
vn 0.36049217 -0.7910271 0.49428874
vn 0.36049122 -0.79102856 0.49428734
vn -0.8061964 -0.5832142 0.09954143
vn -0.8061964 -0.5832142 0.09954143
vn -0.8061964 -0.5832142 0.09954142
vn -0.80619645 -0.58321416 0.099541456
vn 0.8061971 0.5832132 -0.09954174
vn 0.80619717 0.5832132 -0.099541746
vn 0.8061965 0.583214 -0.09954134
vn 0.8061977 0.5832124 -0.099542156
vn 0.2341859 -0.8391193 -0.4909538
vn 0.2341859 -0.8391193 -0.4909538
vn 0.23418598 -0.8391193 -0.4909539
vn 0.23418587 -0.8391193 -0.49095386
vn -0.2341862 0.8391187 0.49095467
vn -0.2341862 0.8391187 0.49095467
vn -0.23418611 0.83911943 0.49095368
vn -0.23418635 0.8391182 0.49095568
vn 0.7414429 0.20566139 -0.638722
vn 0.7414429 0.20566139 -0.638722
vn 0.741443 0.20566145 -0.63872194
vn 0.74144286 0.20566137 -0.63872206
vn -0.74144226 -0.2056619 0.63872266
vn -0.7414422 -0.20566192 0.63872266
vn -0.7414429 -0.20566124 0.6387221
vn -0.7414416 -0.20566261 0.6387232
vn -0.94699 0.07143407 -0.31322053
vn 0.014022157 0.024019724 -0.9996132
vn -0.952289 0.02617999 -0.30407277
vn -0.01483707 0.05298786 -0.9984849
vn 0.9549335 0.017793562 -0.29628605
vn 0.9462994 -0.005721509 -0.3232411
vn 0.5920314 0.0160871 0.8057543
vn 0.58263797 -0.023463575 0.812393
vn -0.94951403 -0.019971587 -0.31308812
vn -0.01224526 -0.0050314087 -0.9999124
vn 0.9463597 0.042056434 -0.3203664
vn 0.5827955 0.056161292 0.8106758
vn -0.60240334 0.025460565 0.7977857
vn -0.952289 0.02617999 -0.30407277
vn -0.57389444 0.020983515 0.8186604
vn -0.94699 0.07143407 -0.31322053
vn 0.58263797 -0.023463575 0.812393
vn 0.5920314 0.0160871 0.8057543
vn -0.5998723 0.017131103 0.7999123
vn -0.94951403 -0.019971587 -0.31308812
vn 0.5827955 0.056161292 0.8106758
vn -0.0 -1.0 0.0
vn -0.0 -1.0 0.0
vn -0.0 -1.0 0.0
vn -0.0 -1.0 0.0
vn -0.0 -1.0 0.0
vn -0.0 1.0 0.0
vn -0.0 1.0 0.0
vn -0.0 1.0 0.0
vn -0.0 1.0 0.0
vn -0.0 1.0 0.0
vt 0.30642483 0.72875667
vt 0.54474765 0.3287428
vt 0.30642483 0.3287428
vt 0.54474765 0.72875667
vt 0.54474765 0.72875667
vt 0.30642483 0.3287428
vt 0.54474765 0.3287428
vt 0.30642483 0.72875667
vt 0.30642483 0.72875667
vt 0.54474765 0.3287428
vt 0.30642483 0.3287428
vt 0.54474765 0.72875667
vt 0.54474765 0.72875667
vt 0.30642483 0.3287428
vt 0.54474765 0.3287428
vt 0.30642483 0.72875667
vt 0.30642483 0.72875667
vt 0.54474765 0.3287428
vt 0.30642483 0.3287428
vt 0.54474765 0.72875667
vt 0.54474765 0.72875667
vt 0.30642483 0.3287428
vt 0.54474765 0.3287428
vt 0.30642483 0.72875667
vt 0.30642483 0.72875667
vt 0.54474765 0.3287428
vt 0.30642483 0.3287428
vt 0.54474765 0.72875667
vt 0.54474765 0.72875667
vt 0.30642483 0.3287428
vt 0.54474765 0.3287428
vt 0.30642483 0.72875667
vt 0.30642483 0.72875667
vt 0.54474765 0.3287428
vt 0.30642483 0.3287428
vt 0.54474765 0.72875667
vt 0.54474765 0.72875667
vt 0.30642483 0.3287428
vt 0.54474765 0.3287428
vt 0.30642483 0.72875667
vt 0.30642483 0.72875667
vt 0.54474765 0.3287428
vt 0.30642483 0.3287428
vt 0.54474765 0.72875667
vt 0.54474765 0.72875667
vt 0.30642483 0.3287428
vt 0.54474765 0.3287428
vt 0.30642483 0.72875667
vt 0.30642483 0.72875667
vt 0.54474765 0.3287428
vt 0.30642483 0.3287428
vt 0.54474765 0.72875667
vt 0.54474765 0.72875667
vt 0.30642483 0.3287428
vt 0.54474765 0.3287428
vt 0.30642483 0.72875667
vt 0.30642483 0.72875667
vt 0.54474765 0.3287428
vt 0.30642483 0.3287428
vt 0.54474765 0.72875667
vt 0.54474765 0.72875667
vt 0.30642483 0.3287428
vt 0.54474765 0.3287428
vt 0.30642483 0.72875667
vt 0.30642483 0.72875667
vt 0.54474765 0.3287428
vt 0.30642483 0.3287428
vt 0.54474765 0.72875667
vt 0.54474765 0.72875667
vt 0.30642483 0.3287428
vt 0.54474765 0.3287428
vt 0.30642483 0.72875667
vt 0.30642483 0.72875667
vt 0.54474765 0.3287428
vt 0.30642483 0.3287428
vt 0.54474765 0.72875667
vt 0.54474765 0.72875667
vt 0.30642483 0.3287428
vt 0.54474765 0.3287428
vt 0.30642483 0.72875667
vt 0.48339814 0.8901916
vt 0.256375 0.92494214
vt 0.2553057 0.9127193
vt 0.48491424 0.9075202
vt 0.25717083 0.93718594
vt 0.48604238 0.92487824
vt 0.25769266 0.9494448
vt 0.48678225 0.9422573
vt 0.027207725 0.935163
vt 0.027840782 0.9423922
vt 0.028301992 0.9494935
vt 0.028605953 0.95663226
vt 0.4871332 0.95964843
vt 0.25791362 0.9739819
vt 0.25794032 0.9617121
vt 0.48709542 0.9770431
vt 0.48678225 0.9422573
vt 0.25769266 0.9494448
vt 0.028750129 0.96377575
vt 0.028733436 0.97100496
vt 0.028605953 0.95663226
vt 0.4994101 0.88339496
vt 0.48491424 0.9075202
vt 0.48339814 0.8901916
vt 0.5108221 0.8965229
vt 0.50186306 0.9114331
vt 0.020081706 0.9335179
vt 0.02111312 0.9453062
vt 0.016315091 0.9397867
vt 0.027207725 0.935163
vt 0.027840782 0.9423922

g Tree_04
s 1
usemtl Tree_04
f 3/3/3 2/2/2 1/1/1 
f 4/4/4 1/1/1 2/2/2 
f 7/7/7 6/6/6 5/5/5 
f 8/8/8 5/5/5 6/6/6 
f 11/11/11 10/10/10 9/9/9 
f 12/12/12 9/9/9 10/10/10 
f 15/15/15 14/14/14 13/13/13 
f 16/16/16 13/13/13 14/14/14 
f 19/19/19 18/18/18 17/17/17 
f 20/20/20 17/17/17 18/18/18 
f 23/23/23 22/22/22 21/21/21 
f 24/24/24 21/21/21 22/22/22 
f 27/27/27 26/26/26 25/25/25 
f 28/28/28 25/25/25 26/26/26 
f 31/31/31 30/30/30 29/29/29 
f 32/32/32 29/29/29 30/30/30 
f 35/35/35 34/34/34 33/33/33 
f 36/36/36 33/33/33 34/34/34 
f 39/39/39 38/38/38 37/37/37 
f 40/40/40 37/37/37 38/38/38 
f 43/43/43 42/42/42 41/41/41 
f 44/44/44 41/41/41 42/42/42 
f 47/47/47 46/46/46 45/45/45 
f 48/48/48 45/45/45 46/46/46 
f 51/51/51 50/50/50 49/49/49 
f 52/52/52 49/49/49 50/50/50 
f 55/55/55 54/54/54 53/53/53 
f 56/56/56 53/53/53 54/54/54 
f 59/59/59 58/58/58 57/57/57 
f 60/60/60 57/57/57 58/58/58 
f 63/63/63 62/62/62 61/61/61 
f 64/64/64 61/61/61 62/62/62 
f 67/67/67 66/66/66 65/65/65 
f 68/68/68 65/65/65 66/66/66 
f 71/71/71 70/70/70 69/69/69 
f 72/72/72 69/69/69 70/70/70 
f 75/75/75 74/74/74 73/73/73 
f 76/76/76 73/73/73 74/74/74 
f 79/79/79 78/78/78 77/77/77 
f 80/80/80 77/77/77 78/78/78 
f 83/83/83 82/82/82 81/81/81 
f 84/84/84 81/81/81 82/82/82 
f 82/82/82 85/85/85 84/84/84 
f 86/86/86 84/84/84 85/85/85 
f 85/85/85 87/87/87 86/86/86 
f 88/88/88 86/86/86 87/87/87 
f 83/83/83 89/89/89 82/82/82 
f 90/90/90 82/82/82 89/89/89 
f 82/82/82 90/90/90 85/85/85 
f 85/85/85 91/91/91 87/87/87 
f 91/91/91 85/85/85 90/90/90 
f 92/92/92 87/87/87 91/91/91 
f 95/95/95 94/94/94 93/93/93 
f 96/96/96 93/93/93 94/94/94 
f 93/93/93 97/97/97 95/95/95 
f 98/98/98 95/95/95 97/97/97 
f 95/95/95 99/99/99 94/94/94 
f 100/100/100 94/94/94 99/99/99 
f 99/99/99 95/95/95 101/101/101 
f 98/98/98 101/101/101 95/95/95 
f 104/104/104 103/103/103 102/102/102 
f 102/102/102 103/103/103 105/105/105 
f 105/105/105 103/103/103 106/106/106 
f 109/109/109 108/108/108 107/107/107 
f 107/107/107 108/108/108 110/110/110 
f 110/110/110 108/108/108 111/111/111 

