# Created by DisUnity v0.3.4
v 1.4184979 5.4837584 -0.28503555
v -0.57575476 10.962083 0.026121106
v 3.048869 9.225738 -0.91181827
v -2.2061257 7.220104 0.6529037
v -2.2085567 7.2212667 0.6535265
v 3.046438 9.2269 -0.91119564
v -0.5781887 10.963246 0.026744517
v 1.4160686 5.484922 -0.2844071
v 0.7664927 4.277677 0.50665504
v 0.9344133 8.021572 -3.9700565
v 2.5310469 4.2891445 -3.2269204
v -0.83014077 8.010105 -0.23648049
v -0.8312167 8.012604 -0.23698047
v 2.5299716 4.2916427 -3.2274203
v 0.9333366 8.024075 -3.9705565
v 0.76542306 4.2801776 0.5061576
v 0.54326767 4.9590926 1.5800524
v 3.0622625 7.6977906 -2.9188492
v 4.19793 6.771907 0.9393272
v -0.5923996 5.8849754 -2.2781234
v -0.5931585 5.88559 -2.2807117
v 4.1971684 6.7725215 0.9367403
v 3.0615005 7.6984057 -2.9214394
v 0.54250646 4.9597125 1.5774672
v -0.15657341 4.1664753 -0.7899233
v 3.761099 8.488692 -0.5529046
v 3.3937926 5.000163 -2.7272465
v 0.21073061 7.6550055 1.3844192
v 0.21097401 7.6573462 1.3858724
v 3.3940377 5.0025024 -2.7257948
v 3.7613409 8.491035 -0.55145025
v -0.1563277 4.1688123 -0.7884662
v 0.20271468 6.4791875 -1.7733518
v 0.20272727 10.233352 2.6979077
v 0.20272012 10.593045 -1.4134362
v 0.20272028 6.119493 2.337992
v 0.20271409 6.1192513 2.3407469
v 0.20271315 10.592805 -1.4106817
v 0.20272107 10.2331085 2.7006652
v 0.20271468 6.4789457 -1.770598
v -0.08658928 4.17854 0.24010918
v -2.1090798 9.469093 1.6562583
v -3.265334 5.590937 2.4658852
v 1.0696672 8.056697 -0.569518
v 1.0704447 8.059297 -0.57005554
v -3.264557 5.5935345 2.465348
v -2.1082993 9.471695 1.6557196
v -0.08581336 4.1811385 0.23956658
v -1.2726665 3.6118786 -0.3058642
v 1.386076 7.1833367 3.4706006
v -2.31879 5.3750997 3.278832
v 2.4322004 5.4201155 -0.11409585
v 2.4346848 5.4213223 -0.11396466
v -2.316304 5.3763075 3.278963
v 1.3885634 7.184544 3.4707308
v -1.2701837 3.613091 -0.30573612
v 1.2171613 3.139092 0.50016594
v -1.7825259 7.6553373 2.6661088
v 0.5727792 4.6748047 4.2790194
v -1.138146 6.119624 -1.1127441
v -1.1397188 6.1216264 -1.1138262
v 0.57120717 4.676806 4.277938
v -1.7841003 7.65734 2.665025
v 1.2155824 3.141089 0.49908516
v -0.9080011 3.8633618 0.91663635
v -0.22850329 6.9317646 -4.003638
v -3.3856127 4.989172 -2.1893835
v 2.2491093 5.8059535 -0.8976176
v 2.251223 5.807261 -0.8988301
v -3.383499 4.99048 -2.1905959
v -0.22638635 6.933073 -4.0048504
v -0.9058857 3.8646634 0.9154209
v 0.753547 3.6057472 0.05763017
v -2.785352 7.1879916 -2.8969605
v -1.8571914 3.1724498 -3.112491
v -0.17461258 7.6212883 0.27316046
v -0.17523889 7.6239786 0.27330908
v -1.8578185 3.175138 -3.112342
v -2.7859802 7.190685 -2.896811
v 0.7529261 3.608437 0.05777454
v 0.012647286 -0.0035780761 -0.07920272
v 0.32544678 3.3162224 -0.08771559
v 0.18164395 3.3162224 0.016763698
v 0.21651468 -0.0035780761 -0.22732101
v 0.4692512 3.3162224 0.016763492
v 0.42038208 -0.0035788512 -0.079202935
v 0.41432276 3.3162224 0.18581422
v 0.34251165 -0.0035780761 0.16045724
v 0.13080132 6.6360226 -0.040812436
v 0.21651392 6.6360226 -0.10308693
v 0.30222806 6.6360226 -0.04081264
v 0.2694882 6.6360226 0.05994982
v 0.09051851 -0.0035780761 0.16045725
v 0.18164395 3.3162224 0.016763698
v 0.23657162 3.3162224 0.18581441
v 0.012647286 -0.0035780761 -0.07920272
v 0.34251165 -0.0035780761 0.16045724
v 0.41432276 3.3162224 0.18581422
v 0.16354041 6.6360226 0.059949823
v 0.13080132 6.6360226 -0.040812436
v 0.2694882 6.6360226 0.05994982
v 0.09051851 -0.0035780761 0.16045725
v 0.21651468 -0.0035780761 -0.22732101
v 0.012647286 -0.0035780761 -0.07920272
v 0.34251165 -0.0035780761 0.16045724
v 0.42038208 -0.0035788512 -0.079202935
v 0.16354041 6.6360226 0.059949823
v 0.30222806 6.6360226 -0.04081264
v 0.2694882 6.6360226 0.05994982
v 0.13080132 6.6360226 -0.040812436
v 0.21651392 6.6360226 -0.10308693
v 0.7552966 2.765073 1.2013702
v 2.850233 5.503771 -2.5401657
v 3.7947164 4.577887 0.66850823
v -0.18918777 3.690956 -2.007303
v -0.18994354 3.69157 -2.0098906
v 3.7939591 4.578501 0.6659204
v 2.8494742 5.504385 -2.5427558
v 0.7545385 2.7656915 1.198784
v -0.72378296 1.4178568 -0.5657799
v 0.2798358 4.9893146 3.1417892
v -2.5609732 3.1810787 1.9380987
v 2.1170235 3.2260945 0.6379096
v 2.1195095 3.2272992 0.63804114
v -2.5584865 3.1822863 1.9382304
v 0.28232244 4.9905233 3.1419203
v -0.7213009 1.41907 -0.565652
v 1.281466 2.2386618 0.7098407
v -2.0426214 4.167031 -2.8628695
v 1.5021966 2.125571 -2.724014
v -2.2633479 4.280122 0.5709864
v -2.2639766 4.282813 0.57113504
v 1.5015687 2.1282623 -2.723865
v -2.0432522 4.1697235 -2.862719
v 1.2808435 2.2413578 0.70998865
vn 0.26979256 0.04357593 0.9619319
vn 0.26979256 0.04357593 0.9619319
vn 0.2697926 0.04357594 0.9619319
vn 0.26979253 0.04357593 0.9619319
vn -0.2697923 -0.04357691 -0.961932
vn -0.2697923 -0.04357692 -0.961932
vn -0.26979262 -0.043575943 -0.9619319
vn -0.26979193 -0.043577872 -0.961932
vn 0.8171585 0.4267138 0.38751417
vn 0.8171585 0.4267138 0.38751417
vn 0.81715846 0.42671385 0.38751426
vn 0.81715864 0.42671376 0.38751417
vn -0.8171585 -0.4267145 -0.3875135
vn -0.8171585 -0.4267145 -0.38751346
vn -0.8171585 -0.4267137 -0.38751438
vn -0.8171585 -0.4267152 -0.3875125
vn -0.375576 0.8700361 0.31934297
vn -0.37557593 0.8700361 0.31934288
vn -0.37557584 0.8700361 0.31934297
vn -0.37557605 0.8700361 0.31934288
vn 0.37557572 -0.87003654 -0.3193421
vn 0.37557575 -0.8700365 -0.31934208
vn 0.37557623 -0.870036 -0.319343
vn 0.37557524 -0.870037 -0.3193412
vn 0.502914 -0.4947095 0.70875955
vn 0.502914 -0.4947095 0.70875955
vn 0.50291413 -0.49470958 0.70875937
vn 0.5029139 -0.4947093 0.70875967
vn -0.5029148 0.4947085 -0.7087596
vn -0.5029148 0.49470857 -0.7087596
vn -0.50291413 0.49470922 -0.70875955
vn -0.5029154 0.49470782 -0.70875967
vn 1.0 0.0 0.0
vn 1.0 0.0 0.0
vn 1.0 0.0 0.0
vn 1.0 0.0 0.0
vn -1.0 0.0 0.0
vn -1.0 0.0 0.0
vn -1.0 0.0 0.0
vn -1.0 0.0 0.0
vn -0.573576 0.0 -0.8191523
vn -0.5735761 0.0 -0.8191523
vn -0.57357615 0.0 -0.81915224
vn -0.57357585 0.0 -0.8191524
vn 0.5735764 0.0 0.819152
vn 0.5735764 0.0 0.819152
vn 0.5735761 0.0 0.8191523
vn 0.5735767 0.0 0.8191518
vn -0.3604922 0.7910271 -0.4942888
vn -0.36049217 0.7910271 -0.4942888
vn -0.36049226 0.7910271 -0.49428874
vn -0.36049214 0.7910271 -0.49428883
vn 0.3604917 -0.79102784 0.49428815
vn 0.3604917 -0.79102784 0.49428812
vn 0.3604921 -0.7910271 0.49428874
vn 0.36049122 -0.7910285 0.49428743
vn -0.8061965 -0.5832141 0.09954125
vn -0.8061965 -0.58321404 0.09954126
vn -0.80619663 -0.58321404 0.09954092
vn -0.80619645 -0.58321416 0.099541605
vn 0.80619717 0.58321315 -0.09954172
vn 0.80619717 0.5832131 -0.0995417
vn 0.8061965 0.58321404 -0.09954127
vn 0.80619776 0.5832122 -0.09954214
vn 0.23418622 -0.8391193 -0.49095365
vn 0.23418625 -0.8391193 -0.49095365
vn 0.23418637 -0.8391193 -0.4909536
vn 0.2341861 -0.8391193 -0.4909537
vn -0.23418634 0.8391187 0.49095476
vn -0.23418634 0.8391187 0.49095476
vn -0.2341862 0.8391193 0.4909538
vn -0.23418646 0.8391182 0.49095568
vn 0.74144286 0.20566134 -0.6387221
vn 0.7414429 0.20566134 -0.63872206
vn 0.74144286 0.20566139 -0.63872206
vn 0.7414428 0.20566128 -0.6387222
vn -0.74144197 -0.205662 0.63872284
vn -0.7414419 -0.20566198 0.6387229
vn -0.7414425 -0.20566143 0.63872236
vn -0.7414414 -0.20566262 0.63872343
vn -0.9481715 0.0573022 -0.31254968
vn 0.012422476 0.01885486 -0.9997451
vn -0.95226437 0.018954372 -0.30468574
vn -0.011974229 0.042404313 -0.9990288
vn 0.9544806 0.018525125 -0.2976972
vn 0.9472638 -0.0046816273 -0.32042068
vn 0.59153384 0.018422795 0.8060697
vn 0.58369607 -0.01882631 0.8117539
vn -0.9495131 -0.019971881 -0.31309134
vn -0.012245787 -0.0050316476 -0.9999124
vn 0.9463583 0.042056117 -0.32037053
vn 0.5827981 0.056161337 0.810674
vn -0.59958917 0.020267896 0.8000513
vn -0.95226437 0.018954372 -0.30468574
vn -0.57548666 0.018702036 0.8175973
vn -0.9481715 0.0573022 -0.31254968
vn 0.58369607 -0.01882631 0.8117539
vn 0.59153384 0.018422795 0.8060697
vn -0.59987426 0.01713095 0.7999109
vn -0.9495131 -0.019971881 -0.31309134
vn 0.5827981 0.056161337 0.810674
vn -0.0 -1.0 0.0
vn -0.0 -1.0 0.0
vn -0.0 -1.0 0.0
vn -0.0 -1.0 0.0
vn -0.0 -1.0 0.0
vn -0.0 1.0 0.0
vn -0.0 1.0 0.0
vn -0.0 1.0 0.0
vn -0.0 1.0 0.0
vn -0.0 1.0 0.0
vn -0.42895895 0.8264162 0.36473325
vn -0.428959 0.8264163 0.36473325
vn -0.428959 0.8264162 0.36473322
vn -0.42895898 0.8264163 0.36473328
vn 0.4289587 -0.8264167 -0.36473247
vn 0.42895877 -0.8264167 -0.3647325
vn 0.42895907 -0.8264162 -0.36473316
vn 0.4289584 -0.82641727 -0.3647318
vn -0.18889341 0.73228866 -0.6542726
vn -0.18889341 0.7322886 -0.6542727
vn -0.18889293 0.73228866 -0.6542728
vn -0.18889387 0.73228866 -0.6542725
vn 0.1888928 -0.73228943 0.65427196
vn 0.18889278 -0.73228943 0.65427196
vn 0.1888931 -0.73228836 0.654273
vn 0.18889248 -0.7322905 0.65427077
vn 0.49895015 0.8666234 0.0035311515
vn 0.4989502 0.8666234 0.003531084
vn 0.49895 0.8666236 0.0035314225
vn 0.49895048 0.86662334 0.003530813
vn -0.4989495 -0.8666239 -0.0035301666
vn -0.49894944 -0.8666239 -0.003530008
vn -0.4989499 -0.8666236 -0.0035308201
vn -0.49894896 -0.8666241 -0.0035293545
vt 0.0039556324 0.32340676
vt 0.31907606 0.005809903
vt 0.0039556324 0.005809903
vt 0.31907606 0.32340676
vt 0.31907606 0.32340676
vt 0.0039556283 0.005809903
vt 0.31907606 0.005809903
vt 0.0039556283 0.32340676
vt 0.0039556324 0.32340676
vt 0.31907606 0.005809903
vt 0.0039556324 0.005809903
vt 0.31907606 0.32340676
vt 0.31907606 0.32340676
vt 0.0039556283 0.005809903
vt 0.31907606 0.005809903
vt 0.0039556283 0.32340676
vt 0.0039556324 0.32340676
vt 0.31907606 0.005809903
vt 0.0039556324 0.005809903
vt 0.31907606 0.32340676
vt 0.31907606 0.32340676
vt 0.0039556283 0.005809903
vt 0.31907606 0.005809903
vt 0.0039556283 0.32340676
vt 0.0039556324 0.32340676
vt 0.31907606 0.005809903
vt 0.0039556324 0.005809903
vt 0.31907606 0.32340676
vt 0.31907606 0.32340676
vt 0.0039556283 0.005809903
vt 0.31907606 0.005809903
vt 0.0039556283 0.32340676
vt 0.0039556324 0.32340676
vt 0.31907606 0.005809903
vt 0.0039556324 0.005809903
vt 0.31907606 0.32340676
vt 0.31907606 0.32340676
vt 0.0039556283 0.005809903
vt 0.31907606 0.005809903
vt 0.0039556283 0.32340676
vt 0.0039556324 0.32340676
vt 0.31907606 0.005809903
vt 0.0039556324 0.005809903
vt 0.31907606 0.32340676
vt 0.31907606 0.32340676
vt 0.0039556283 0.005809903
vt 0.31907606 0.005809903
vt 0.0039556283 0.32340676
vt 0.0039556324 0.32340676
vt 0.31907606 0.005809903
vt 0.0039556324 0.005809903
vt 0.31907606 0.32340676
vt 0.31907606 0.32340676
vt 0.0039556283 0.005809903
vt 0.31907606 0.005809903
vt 0.0039556283 0.32340676
vt 0.0039556324 0.32340676
vt 0.31907606 0.005809903
vt 0.0039556324 0.005809903
vt 0.31907606 0.32340676
vt 0.31907606 0.32340676
vt 0.0039556283 0.005809903
vt 0.31907606 0.005809903
vt 0.0039556283 0.32340676
vt 0.0039556324 0.32340676
vt 0.31907606 0.005809903
vt 0.0039556324 0.005809903
vt 0.31907606 0.32340676
vt 0.31907606 0.32340676
vt 0.0039556283 0.005809903
vt 0.31907606 0.005809903
vt 0.0039556283 0.32340676
vt 0.0039556324 0.32340676
vt 0.31907606 0.005809903
vt 0.0039556324 0.005809903
vt 0.31907606 0.32340676
vt 0.31907606 0.32340676
vt 0.0039556283 0.005809903
vt 0.31907606 0.005809903
vt 0.0039556283 0.32340676
vt 0.48339814 0.8901916
vt 0.256375 0.92494214
vt 0.2553057 0.9127193
vt 0.48491424 0.9075202
vt 0.25717083 0.93718594
vt 0.48604238 0.92487824
vt 0.25769266 0.9494448
vt 0.48678225 0.9422573
vt 0.027207725 0.935163
vt 0.027840782 0.9423922
vt 0.028301992 0.9494935
vt 0.028605953 0.95663226
vt 0.4871332 0.95964843
vt 0.25791362 0.9739819
vt 0.25794032 0.9617121
vt 0.48709542 0.9770431
vt 0.48678225 0.9422573
vt 0.25769266 0.9494448
vt 0.028750129 0.96377575
vt 0.028733436 0.97100496
vt 0.028605953 0.95663226
vt 0.4994101 0.88339496
vt 0.48491424 0.9075202
vt 0.48339814 0.8901916
vt 0.5108221 0.8965229
vt 0.50186306 0.9114331
vt 0.020081706 0.9335179
vt 0.02111312 0.9453062
vt 0.016315091 0.9397867
vt 0.027207725 0.935163
vt 0.027840782 0.9423922
vt 0.0039556324 0.32340676
vt 0.31907606 0.005809903
vt 0.0039556324 0.005809903
vt 0.31907606 0.32340676
vt 0.31907606 0.32340676
vt 0.0039556283 0.005809903
vt 0.31907606 0.005809903
vt 0.0039556283 0.32340676
vt 0.0039556324 0.32340676
vt 0.31907606 0.005809903
vt 0.0039556324 0.005809903
vt 0.31907606 0.32340676
vt 0.31907606 0.32340676
vt 0.0039556283 0.005809903
vt 0.31907606 0.005809903
vt 0.0039556283 0.32340676
vt 0.0039556324 0.32340676
vt 0.31907606 0.005809903
vt 0.0039556324 0.005809903
vt 0.31907606 0.32340676
vt 0.31907606 0.32340676
vt 0.0039556283 0.005809903
vt 0.31907606 0.005809903
vt 0.0039556283 0.32340676

g Tree_01
s 1
usemtl Tree_01
f 3/3/3 2/2/2 1/1/1 
f 4/4/4 1/1/1 2/2/2 
f 7/7/7 6/6/6 5/5/5 
f 8/8/8 5/5/5 6/6/6 
f 11/11/11 10/10/10 9/9/9 
f 12/12/12 9/9/9 10/10/10 
f 15/15/15 14/14/14 13/13/13 
f 16/16/16 13/13/13 14/14/14 
f 19/19/19 18/18/18 17/17/17 
f 20/20/20 17/17/17 18/18/18 
f 23/23/23 22/22/22 21/21/21 
f 24/24/24 21/21/21 22/22/22 
f 27/27/27 26/26/26 25/25/25 
f 28/28/28 25/25/25 26/26/26 
f 31/31/31 30/30/30 29/29/29 
f 32/32/32 29/29/29 30/30/30 
f 35/35/35 34/34/34 33/33/33 
f 36/36/36 33/33/33 34/34/34 
f 39/39/39 38/38/38 37/37/37 
f 40/40/40 37/37/37 38/38/38 
f 43/43/43 42/42/42 41/41/41 
f 44/44/44 41/41/41 42/42/42 
f 47/47/47 46/46/46 45/45/45 
f 48/48/48 45/45/45 46/46/46 
f 51/51/51 50/50/50 49/49/49 
f 52/52/52 49/49/49 50/50/50 
f 55/55/55 54/54/54 53/53/53 
f 56/56/56 53/53/53 54/54/54 
f 59/59/59 58/58/58 57/57/57 
f 60/60/60 57/57/57 58/58/58 
f 63/63/63 62/62/62 61/61/61 
f 64/64/64 61/61/61 62/62/62 
f 67/67/67 66/66/66 65/65/65 
f 68/68/68 65/65/65 66/66/66 
f 71/71/71 70/70/70 69/69/69 
f 72/72/72 69/69/69 70/70/70 
f 75/75/75 74/74/74 73/73/73 
f 76/76/76 73/73/73 74/74/74 
f 79/79/79 78/78/78 77/77/77 
f 80/80/80 77/77/77 78/78/78 
f 83/83/83 82/82/82 81/81/81 
f 84/84/84 81/81/81 82/82/82 
f 82/82/82 85/85/85 84/84/84 
f 86/86/86 84/84/84 85/85/85 
f 85/85/85 87/87/87 86/86/86 
f 88/88/88 86/86/86 87/87/87 
f 83/83/83 89/89/89 82/82/82 
f 90/90/90 82/82/82 89/89/89 
f 82/82/82 90/90/90 85/85/85 
f 85/85/85 91/91/91 87/87/87 
f 91/91/91 85/85/85 90/90/90 
f 92/92/92 87/87/87 91/91/91 
f 95/95/95 94/94/94 93/93/93 
f 96/96/96 93/93/93 94/94/94 
f 93/93/93 97/97/97 95/95/95 
f 98/98/98 95/95/95 97/97/97 
f 95/95/95 99/99/99 94/94/94 
f 100/100/100 94/94/94 99/99/99 
f 99/99/99 95/95/95 101/101/101 
f 98/98/98 101/101/101 95/95/95 
f 104/104/104 103/103/103 102/102/102 
f 102/102/102 103/103/103 105/105/105 
f 105/105/105 103/103/103 106/106/106 
f 109/109/109 108/108/108 107/107/107 
f 107/107/107 108/108/108 110/110/110 
f 110/110/110 108/108/108 111/111/111 
f 114/114/114 113/113/113 112/112/112 
f 115/115/115 112/112/112 113/113/113 
f 118/118/118 117/117/117 116/116/116 
f 119/119/119 116/116/116 117/117/117 
f 122/122/122 121/121/121 120/120/120 
f 123/123/123 120/120/120 121/121/121 
f 126/126/126 125/125/125 124/124/124 
f 127/127/127 124/124/124 125/125/125 
f 130/130/130 129/129/129 128/128/128 
f 131/131/131 128/128/128 129/129/129 
f 134/134/134 133/133/133 132/132/132 
f 135/135/135 132/132/132 133/133/133 

