# Created by DisUnity v0.3.4
v -1.229091 8.112292E-15 -1.8558761E-7
v -0.3637044 36.25194 0.36370587
v -0.8690987 -3.79895E-8 0.8690985
v -0.51435566 36.25194 1.5069572E-6
v -0.8690987 -3.79895E-8 0.8690985
v -5.5182344E-8 36.25194 0.51435727
v -1.3186232E-7 -5.3725277E-8 1.229091
v -0.3637044 36.25194 0.36370587
v 0.3637043 36.25194 0.363706
v 0.8690985 -3.7989512E-8 0.8690987
v 0.51435566 36.25194 1.6173219E-6
v 1.229091 -3.4154789E-15 7.813705E-8
v 1.229091 -3.4154789E-15 7.813705E-8
v 0.36370438 36.25194 -0.36370283
v 0.8690986 3.798951E-8 -0.86909866
v 0.51435566 36.25194 1.6173219E-6
v 0.8690986 3.798951E-8 -0.86909866
v 7.1531915E-8 36.25194 -0.51435405
v 1.7093085E-7 5.3725277E-8 -1.229091
v 0.36370438 36.25194 -0.36370283
v -0.3637043 36.25194 -0.36370295
v -0.8690985 3.798952E-8 -0.8690989
v -0.51435566 36.25194 1.5069572E-6
v -1.229091 8.112292E-15 -1.8558761E-7
v 0.6900704 36.251945 -0.9749465
v -0.69007194 36.251945 0.97495
v 0.69007015 36.251945 0.97495025
v -0.6900717 36.251945 -0.97494674
v 0.8633937 37.80433 -0.9749466
v -0.86339533 37.80433 0.97494996
v -0.8633951 37.80433 -0.97494686
v 0.8633935 37.80433 0.9749502
v -0.8633955 37.80433 2.482918
v 0.86339325 37.80433 2.4829185
v 0.6900704 36.251945 -0.9749465
v -0.8633951 37.80433 -0.97494686
v -0.6900717 36.251945 -0.97494674
v 0.8633937 37.80433 -0.9749466
v -0.6900717 36.251945 -0.97494674
v -0.86339533 37.80433 0.97494996
v -0.69007194 36.251945 0.97495
v -0.8633951 37.80433 -0.97494686
v -0.6900721 36.939533 2.482919
v -0.8633955 37.80433 2.482918
v -0.6900721 36.939533 2.482919
v 0.86339325 37.80433 2.4829185
v 0.6900698 36.939533 2.482919
v -0.8633955 37.80433 2.482918
v 0.69007015 36.251945 0.97495025
v 0.8633937 37.80433 -0.9749466
v 0.6900704 36.251945 -0.9749465
v 0.8633935 37.80433 0.9749502
v 0.86339325 37.80433 2.4829185
v 0.6900698 36.939533 2.482919
v -0.69007194 36.251945 0.97495
v 0.6900698 36.939533 2.482919
v 0.69007015 36.251945 0.97495025
v -0.6900721 36.939533 2.482919
vn -0.99980575 0.019711953 0.0
vn -0.7069695 0.019711921 0.7069693
vn -0.70696956 0.01971192 0.7069692
vn -0.99980575 0.019711949 0.0
vn -0.70696956 0.01971192 0.7069692
vn -0.0 0.019711912 0.99980575
vn -0.0 0.019711912 0.99980575
vn -0.7069695 0.019711921 0.7069693
vn 0.7069693 0.019711921 0.7069695
vn 0.7069694 0.019711923 0.7069695
vn 0.99980575 0.019711953 0.0
vn 0.99980575 0.019711955 0.0
vn 0.99980575 0.019711955 0.0
vn 0.7069695 0.019711982 -0.7069694
vn 0.70696944 0.019711982 -0.7069694
vn 0.99980575 0.019711953 0.0
vn 0.70696944 0.019711982 -0.7069694
vn -0.0 0.019711994 -0.99980575
vn -0.0 0.019711994 -0.99980575
vn 0.7069695 0.019711982 -0.7069694
vn -0.70696926 0.019711982 -0.7069695
vn -0.7069693 0.019711984 -0.7069695
vn -0.99980575 0.019711949 0.0
vn -0.99980575 0.019711953 0.0
vn -0.0 -1.0 0.0
vn -0.0 -1.0 0.0
vn -0.0 -1.0 0.0
vn -0.0 -1.0 0.0
vn -0.0 1.0 0.0
vn -0.0 1.0 0.0
vn -0.0 1.0 0.0
vn -0.0 1.0 0.0
vn -0.0 1.0 0.0
vn -0.0 1.0 0.0
vn -0.0 0.0 -1.0
vn -0.0 0.0 -1.0
vn -0.0 0.0 -1.0
vn -0.0 0.0 -1.0
vn -0.99382484 -0.1109604 0.0
vn -0.99382484 -0.1109604 0.0
vn -0.99382484 -0.1109604 0.0
vn -0.99382484 -0.1109604 0.0
vn -0.98935485 -0.141883 0.03234705
vn -0.98935485 -0.14188299 0.03234705
vn -0.0 0.0 1.0
vn -0.0 0.0 1.0
vn -0.0 0.0 1.0
vn -0.0 0.0 1.0
vn 0.99382484 -0.11096038 0.0
vn 0.99382484 -0.11096038 0.0
vn 0.99382484 -0.11096037 0.0
vn 0.99382484 -0.11096037 0.0
vn 0.98935485 -0.141883 0.032347362
vn 0.98935485 -0.141883 0.032347362
vn -0.0 -0.9098778 0.41487652
vn -0.0 -0.90987766 0.4148765
vn -0.0 -0.9098778 0.41487652
vn -0.0 -0.9098778 0.41487652
vt 0.5124995 0.006051898
vt 0.9870516 0.06537074
vt 0.5124995 0.06537074
vt 0.9870516 0.006051898
vt 0.5124995 0.06537074
vt 0.9870516 0.1246897
vt 0.5124995 0.1246897
vt 0.9870516 0.06537074
vt 0.9870516 0.18400872
vt 0.5124995 0.18400872
vt 0.9870516 0.2433278
vt 0.5124995 0.2433278
vt 0.5124995 0.006051898
vt 0.9870516 0.06537086
vt 0.5124995 0.06537086
vt 0.9870516 0.006051898
vt 0.5124995 0.06537086
vt 0.9870516 0.124690056
vt 0.5124995 0.124690056
vt 0.9870516 0.06537086
vt 0.9870516 0.18400896
vt 0.5124995 0.18400896
vt 0.9870516 0.24332792
vt 0.5124995 0.24332792
vt 0.54857767 0.19518071
vt 0.58509994 0.24606258
vt 0.5485753 0.24606258
vt 0.5851022 0.19518143
vt 0.5439828 0.24606246
vt 0.58971703 0.19386679
vt 0.5896984 0.24606246
vt 0.5439659 0.19386601
vt 0.58965653 0.15397817
vt 0.5440283 0.15397817
vt 0.54857767 0.19518071
vt 0.5896984 0.15397823
vt 0.5851022 0.19518143
vt 0.5439828 0.15397817
vt 0.63105416 0.24606246
vt 0.58971703 0.19386679
vt 0.6310714 0.19378918
vt 0.5896984 0.24606246
vt 0.61289114 0.15397817
vt 0.58965653 0.15397817
vt 0.5851053 0.22245437
vt 0.5440283 0.24606246
vt 0.54858065 0.22245383
vt 0.58965653 0.24606246
vt 0.5026115 0.19378847
vt 0.5439828 0.24606246
vt 0.50262785 0.24606246
vt 0.5439659 0.19386601
vt 0.5440283 0.15397817
vt 0.5207928 0.15397817
vt 0.5851068 0.17859435
vt 0.54858065 0.22245383
vt 0.54858214 0.17859328
vt 0.5851053 0.22245437

g Turbine_Tower
s 1
usemtl Turbine_Tower
f 3/3/3 2/2/2 1/1/1 
f 2/2/2 4/4/4 1/1/1 
f 7/7/7 6/6/6 5/5/5 
f 6/6/6 8/8/8 5/5/5 
f 9/9/9 6/6/6 7/7/7 
f 10/10/10 9/9/9 7/7/7 
f 11/11/11 9/9/9 10/10/10 
f 12/12/12 11/11/11 10/10/10 
f 15/15/15 14/14/14 13/13/13 
f 14/14/14 16/16/16 13/13/13 
f 19/19/19 18/18/18 17/17/17 
f 18/18/18 20/20/20 17/17/17 
f 21/21/21 18/18/18 19/19/19 
f 22/22/22 21/21/21 19/19/19 
f 23/23/23 21/21/21 22/22/22 
f 24/24/24 23/23/23 22/22/22 
f 27/27/27 26/26/26 25/25/25 
f 26/26/26 28/28/28 25/25/25 
f 31/31/31 30/30/30 29/29/29 
f 30/30/30 32/32/32 29/29/29 
f 30/30/30 33/33/33 32/32/32 
f 33/33/33 34/34/34 32/32/32 
f 37/37/37 36/36/36 35/35/35 
f 36/36/36 38/38/38 35/35/35 
f 41/41/41 40/40/40 39/39/39 
f 40/40/40 42/42/42 39/39/39 
f 41/41/41 43/43/43 40/40/40 
f 43/43/43 44/44/44 40/40/40 
f 47/47/47 46/46/46 45/45/45 
f 46/46/46 48/48/48 45/45/45 
f 51/51/51 50/50/50 49/49/49 
f 50/50/50 52/52/52 49/49/49 
f 52/52/52 53/53/53 49/49/49 
f 53/53/53 54/54/54 49/49/49 
f 57/57/57 56/56/56 55/55/55 
f 56/56/56 58/58/58 55/55/55 

