# Created by DisUnity v0.3.4
v -2.00064 0.25000992 -0.0049209595
v -3.33786E-5 0.25000983 -8.068943
v -2.3841858E-5 0.25000975 -0.0049152374
v -2.0006485 0.25001 -8.068949
v -5.9946365 0.25000998 -0.0049057007
v -2.2483635 0.25001 -8.068939
v -2.248354 0.25000992 -0.0049114227
v -5.994646 0.25001007 -8.0689335
v -9.75228 0.25001 -0.0048923492
v -9.752291 0.2500101 -8.068924
v -2.248354 0.25000992 -0.0049114227
v -2.0006485 0.25001 -8.068949
v -2.00064 0.25000992 -0.0049209595
v -2.2483635 0.25001 -8.068939
v -12.000009 0.25000957 -0.004875183
v -10.00001 0.25001 -8.068916
v -10.0 0.25000995 -0.0048885345
v -12.000019 0.25000966 -8.068907
v -10.0 0.25000995 -0.0048885345
v -9.752291 0.2500101 -8.068924
v -9.75228 0.25001 -0.0048923492
v -10.00001 0.25001 -8.068916
v -2.3841858E-5 0.25000975 -0.0049152374
v -3.2424927E-5 1.7166138E-5 -8.068943
v -2.3841858E-5 1.7046928E-5 -0.0049152374
v -3.33786E-5 0.25000983 -8.068943
v -12.000009 1.7017126E-5 -0.004875183
v -12.000019 0.25000966 -8.068907
v -12.000009 0.25000957 -0.004875183
v -12.000019 1.707673E-5 -8.068907
vn -0.0 1.0 0.0
vn -0.0 1.0 0.0
vn -0.0 1.0 0.0
vn -0.0 1.0 0.0
vn -0.0 1.0 0.0
vn -0.0 1.0 0.0
vn -0.0 1.0 0.0
vn -0.0 1.0 0.0
vn -0.0 1.0 0.0
vn -0.0 1.0 0.0
vn -0.0 1.0 0.0
vn -0.0 1.0 0.0
vn -0.0 1.0 0.0
vn -0.0 1.0 0.0
vn -0.0 1.0 0.0
vn -0.0 1.0 0.0
vn -0.0 1.0 0.0
vn -0.0 1.0 0.0
vn -0.0 1.0 0.0
vn -0.0 1.0 0.0
vn -0.0 1.0 0.0
vn -0.0 1.0 0.0
vn 1.0 0.0 0.0
vn 1.0 0.0 0.0
vn 1.0 0.0 0.0
vn 1.0 0.0 0.0
vn -1.0 0.0 0.0
vn -1.0 0.0 0.0
vn -1.0 0.0 0.0
vn -1.0 0.0 0.0
vt 2.2866383 0.93696743
vt 2.0321174 0.8750566
vt 2.286639 0.8750567
vt 2.032117 0.9369674
vt 1.0021255 0.062343955
vt 0.8689853 4.9209595E-4
vt 1.0021255 4.9215555E-4
vt 0.8689852 0.062343895
vt 1.0021255 0.12438351
vt 0.8689852 0.12438345
vt 1.0815628 0.31461793
vt 0.9416077 0.31031924
vt 1.0815625 0.310318
vt 0.9416079 0.31461918
vt 0.28299427 0.87505645
vt 0.5374628 0.93696713
vt 0.28294134 0.9369671
vt 0.5375158 0.8750565
vt 1.2572861 0.44073737
vt 1.0660168 0.4348631
vt 1.2572861 0.4348626
vt 1.0660168 0.44073772
vt 2.1251278 0.90801597
vt 1.8706062 0.9001257
vt 2.1251278 0.9001257
vt 1.8706062 0.90801597
vt 0.44179106 0.8890494
vt 0.6963126 0.89693964
vt 0.44179106 0.89693964
vt 0.6963126 0.8890494

g Two_Lane_8m_OneDirection
s 1
usemtl Two_Lane_8m_OneDirection
f 3/3/3 2/2/2 1/1/1 
f 4/4/4 1/1/1 2/2/2 
f 7/7/7 6/6/6 5/5/5 
f 8/8/8 5/5/5 6/6/6 
f 5/5/5 8/8/8 9/9/9 
f 10/10/10 9/9/9 8/8/8 
f 13/13/13 12/12/12 11/11/11 
f 14/14/14 11/11/11 12/12/12 
f 17/17/17 16/16/16 15/15/15 
f 18/18/18 15/15/15 16/16/16 
f 21/21/21 20/20/20 19/19/19 
f 22/22/22 19/19/19 20/20/20 
f 25/25/25 24/24/24 23/23/23 
f 26/26/26 23/23/23 24/24/24 
f 29/29/29 28/28/28 27/27/27 
f 30/30/30 27/27/27 28/28/28 

