# Created by DisUnity v0.3.4
v -21.1734 0.4855609 -25.644644
v -17.044975 0.4855609 -22.516682
v -21.563576 0.48556098 -23.683138
v -16.279625 0.4855608 -24.364378
v -25.999886 0.48556104 -25.999893
v -25.999886 0.48556113 -23.999958
v -21.563576 0.48556098 -23.683138
v -17.044975 0.24974453 -22.516682
v -21.563576 0.24974464 -23.683138
v -17.044975 0.4855609 -22.516682
v -25.999886 0.48556113 -23.999958
v -25.999886 0.2497448 -23.999958
v -21.1734 -5.8978796E-5 -25.644644
v -16.279625 0.4855608 -24.364378
v -21.1734 0.4855609 -25.644644
v -16.279625 -5.9098005E-5 -24.364378
v -25.999886 -5.8859587E-5 -25.999893
v -25.999886 0.48556104 -25.999893
v -24.685059 0.4855617 -7.9905424
v -23.933304 0.4855616 -5.886894
v -25.075233 0.48556176 -5.9999857
v -23.167961 0.48556155 -7.7345896
v -21.720581 0.4855614 -6.960944
v -22.831688 0.48556146 -5.2980633
v -25.999916 0.48556185 -7.999921
v -25.999916 0.48556194 -5.9999866
v -21.866104 0.4855613 -4.5056305
v -20.451935 0.48556125 -5.919796
v -21.073677 0.4855612 -3.5400505
v -19.410797 0.48556113 -4.6511517
v -20.484848 0.48556104 -2.4384289
v -18.637154 0.48556104 -3.2037687
v -18.160744 0.48556095 -1.6332607
v -20.122253 0.48556092 -1.2430954
v -19.999817 0.48556083 9.536743E-6
v -17.999886 0.48556083 1.335144E-5
v -25.075233 0.48556176 -5.9999857
v -23.933304 -5.8293343E-5 -5.886894
v -25.075233 -5.811453E-5 -5.9999857
v -23.933304 0.4855616 -5.886894
v -22.831688 0.48556146 -5.2980633
v -22.831688 -5.8442354E-5 -5.2980633
v -25.999916 0.48556194 -5.9999866
v -25.999916 -5.7965517E-5 -5.9999866
v -21.866104 -5.8591366E-5 -4.5056305
v -21.866104 0.4855613 -4.5056305
v -21.073677 -5.8710575E-5 -3.5400505
v -21.073677 0.4855612 -3.5400505
v -20.484848 -5.8859587E-5 -2.4384289
v -20.484848 0.48556104 -2.4384289
v -20.122253 0.48556092 -1.2430954
v -20.122253 -5.8978796E-5 -1.2430954
v -19.999817 -5.9068203E-5 9.536743E-6
v -19.999817 0.48556083 9.536743E-6
v -24.685059 0.24974532 -7.9905434
v -23.167961 0.48556155 -7.7345896
v -24.685059 0.4855617 -7.9905424
v -23.167961 0.24974518 -7.7345896
v -21.720581 0.24974504 -6.960945
v -21.720581 0.4855614 -6.960944
v -25.999916 0.24974549 -7.999922
v -25.999916 0.48556185 -7.999921
v -20.451935 0.48556125 -5.919796
v -20.451935 0.2497449 -5.919796
v -19.410797 0.48556113 -4.6511517
v -19.410797 0.24974477 -4.6511526
v -18.637154 0.48556104 -3.2037687
v -18.637154 0.24974467 -3.2037687
v -18.160744 0.24974455 -1.6332607
v -18.160744 0.48556095 -1.6332607
v -17.999886 0.48556083 1.335144E-5
v -17.999886 0.24974446 1.335144E-5
v -21.563576 0.24974464 -23.683138
v -20.002953 0.24974485 -15.37554
v -23.071548 0.24974497 -16.102139
v -17.044975 0.24974453 -22.516682
v -25.999886 0.2497448 -23.999958
v -25.9999 0.24974513 -16.270435
v -17.044975 0.4855609 -22.516682
v -11.720299 0.48556075 -21.927353
v -12.831406 0.4855608 -20.264471
v -16.279625 0.4855608 -24.364378
v -9.138184 0.48556077 -17.233511
v -7.7240143 0.48556072 -18.647676
v -17.044975 0.24974453 -22.516682
v -12.831406 0.4855608 -20.264471
v -12.831406 0.24974446 -20.264471
v -17.044975 0.4855609 -22.516682
v -9.138184 0.2497444 -17.233513
v -9.138184 0.48556077 -17.233511
v -16.279625 0.4855608 -24.364378
v -11.720299 -5.915761E-5 -21.927353
v -11.720299 0.48556075 -21.927353
v -16.279625 -5.9098005E-5 -24.364378
v -7.7240143 0.48556072 -18.647676
v -7.7240143 -5.9187412E-5 -18.647676
v -20.002953 0.24974485 -15.37554
v -12.831406 0.24974446 -20.264471
v -17.12571 0.24974473 -13.837616
v -17.044975 0.24974453 -22.516682
v -14.60379 0.24974464 -11.767922
v -9.138184 0.2497444 -17.233513
v -3.8550415 0.48556075 -9.326706
v -0.5066376 0.48556075 -5.1448584
v -2.4681396 0.48556077 -4.754693
v -2.0073395 0.48556072 -10.092046
v -1.9998474 0.48556083 4.196167E-5
v 8.392334E-5 0.48556083 4.386902E-5
v -3.8550415 0.2497444 -9.326706
v -2.4681396 0.48556077 -4.754693
v -2.4681396 0.24974442 -4.754694
v -3.8550415 0.48556075 -9.326706
v -1.9998474 0.24974446 3.8146973E-5
v -1.9998474 0.48556083 4.196167E-5
v -2.0073395 0.48556072 -10.092046
v -0.5066376 -5.915761E-5 -5.1448584
v -0.5066376 0.48556075 -5.1448584
v -2.0073395 -5.9187412E-5 -10.092046
v 8.392334E-5 0.48556083 4.386902E-5
v 8.392334E-5 -5.9068203E-5 4.386902E-5
v -10.996193 0.24974452 -6.3687515
v -2.4681396 0.24974442 -4.754694
v -10.049149 0.24974447 -3.246748
v -3.8550415 0.2497444 -9.326706
v -9.72937 0.24974446 2.670288E-5
v -1.9998474 0.24974446 3.8146973E-5
v -4.444351 0.48556072 -14.651382
v -3.8550415 0.48556075 -9.326706
v -6.107239 0.48556075 -13.54028
v -2.0073395 0.48556072 -10.092046
v -7.7240143 0.48556072 -18.647676
v -9.138184 0.48556077 -17.233511
v -6.107239 0.48556075 -13.54028
v -3.8550415 0.2497444 -9.326706
v -6.107239 0.24974439 -13.54028
v -3.8550415 0.48556075 -9.326706
v -9.138184 0.48556077 -17.233511
v -9.138184 0.2497444 -17.233513
v -4.444351 -5.9187412E-5 -14.651382
v -2.0073395 0.48556072 -10.092046
v -4.444351 0.48556072 -14.651382
v -2.0073395 -5.9187412E-5 -10.092046
v -7.7240143 -5.9187412E-5 -18.647676
v -7.7240143 0.48556072 -18.647676
v -6.107239 0.24974439 -13.54028
v -10.996193 0.24974452 -6.3687515
v -12.534103 0.24974458 -9.2459955
v -3.8550415 0.2497444 -9.326706
v -9.138184 0.2497444 -17.233513
v -14.60379 0.24974464 -11.767922
v -25.9999 0.24974516 -15.722279
v -23.071548 0.24974497 -16.102139
v -23.17849 0.249745 -15.564514
v -25.9999 0.24974513 -16.270435
v -20.212723 0.24974486 -14.86911
v -20.002953 0.24974485 -15.37554
v -17.12571 0.24974473 -13.837616
v -17.430252 0.24974476 -13.381842
v -14.991394 0.24974467 -11.380318
v -14.60379 0.24974464 -11.767922
v -12.534103 0.24974458 -9.2459955
v -12.989883 0.2497446 -8.941456
v -11.5026245 0.24974453 -6.1589813
v -10.996193 0.24974452 -6.3687515
v -10.049149 0.24974447 -3.246748
v -10.586769 0.24974449 -3.1398087
v -10.277527 0.24974446 2.4795532E-5
v -9.72937 0.24974446 2.670288E-5
v -25.999916 0.24974549 -7.999922
v -23.17849 0.249745 -15.564514
v -24.685059 0.24974532 -7.9905434
v -25.9999 0.24974516 -15.722279
v -23.167961 0.24974518 -7.7345896
v -20.212723 0.24974486 -14.86911
v -23.167961 0.24974518 -7.7345896
v -17.430252 0.24974476 -13.381842
v -21.720581 0.24974504 -6.960945
v -20.212723 0.24974486 -14.86911
v -20.451935 0.2497449 -5.919796
v -14.991394 0.24974467 -11.380318
v -18.637154 0.24974467 -3.2037687
v -10.586769 0.24974449 -3.1398087
v -18.160744 0.24974455 -1.6332607
v -11.5026245 0.24974453 -6.1589813
v -17.999886 0.24974446 1.335144E-5
v -10.277527 0.24974446 2.4795532E-5
v -20.451935 0.2497449 -5.919796
v -12.989883 0.2497446 -8.941456
v -19.410797 0.24974477 -4.6511526
v -14.991394 0.24974467 -11.380318
v -18.637154 0.24974467 -3.2037687
v -11.5026245 0.24974453 -6.1589813
vn -0.0 1.0 0.0
vn -0.0 1.0 0.0
vn -0.0 1.0 0.0
vn -0.0 1.0 0.0
vn -0.0 1.0 0.0
vn -0.0 1.0 0.0
vn -0.16125496 0.0 0.98691285
vn -0.36324933 0.0 0.931692
vn -0.16125508 0.0 0.98691285
vn -0.3632492 0.0 0.931692
vn -0.07123383 0.0 0.9974597
vn -0.07123383 0.0 0.9974597
vn 0.16393082 0.0 -0.98647183
vn 0.36476123 0.0 -0.9311011
vn 0.16393085 0.0 -0.98647183
vn 0.3647613 0.0 -0.9311011
vn 0.0734056 0.0 -0.9973022
vn 0.0734056 0.0 -0.9973022
vn -0.0 1.0 0.0
vn -0.0 1.0 0.0
vn -0.0 1.0 0.0
vn -0.0 1.0 0.0
vn -0.0 1.0 0.0
vn -0.0 1.0 0.0
vn -0.0 1.0 0.0
vn -0.0 1.0 0.0
vn -0.0 1.0 0.0
vn -0.0 1.0 0.0
vn -0.0 1.0 0.0
vn -0.0 1.0 0.0
vn -0.0 1.0 0.0
vn -0.0 1.0 0.0
vn -0.0 1.0 0.0
vn -0.0 1.0 0.0
vn -0.0 1.0 0.0
vn -0.0 1.0 0.0
vn -0.049337234 0.0 0.9987822
vn -0.29054415 0.0 0.95686156
vn -0.04933724 0.0 0.9987822
vn -0.2905441 0.0 0.95686156
vn -0.5555713 0.0 0.8314689
vn -0.5555714 0.0 0.8314689
vn -0.0 0.0 1.0
vn -0.0 0.0 1.0
vn -0.70710737 0.0 0.7071062
vn -0.7071073 0.0 0.70710623
vn -0.83147025 0.0 0.55556923
vn -0.83147025 0.0 0.55556923
vn -0.92388034 0.0 0.38268143
vn -0.92388034 0.0 0.3826814
vn -0.98078555 0.0 0.19508871
vn -0.98078555 0.0 0.19508864
vn -0.9951846 0.0 0.09801822
vn -0.9951846 0.0 0.09801823
vn 0.08702517 0.0 -0.99620605
vn 0.32310385 0.0 -0.9463635
vn 0.08702519 0.0 -0.99620605
vn 0.3231038 0.0 -0.9463635
vn 0.55557054 0.0 -0.83146936
vn 0.5555708 0.0 -0.8314692
vn 0.00713248 0.0 -0.9999746
vn 0.0071324795 0.0 -0.9999746
vn 0.70710844 0.0 -0.70710504
vn 0.7071084 0.0 -0.7071051
vn 0.831471 0.0 -0.55556816
vn 0.8314708 0.0 -0.55556846
vn 0.9238793 0.0 -0.38268408
vn 0.9238793 0.0 -0.38268405
vn 0.9807854 0.0 -0.19508919
vn 0.9807854 0.0 -0.19508918
vn 0.9951851 0.0 -0.09801395
vn 0.9951851 0.0 -0.09801395
vn -0.0 1.0 0.0
vn -0.0 1.0 0.0
vn -0.0 1.0 0.0
vn -0.0 1.0 0.0
vn -0.0 1.0 0.0
vn -0.0 1.0 0.0
vn -0.0 1.0 0.0
vn -0.0 1.0 0.0
vn -0.0 1.0 0.0
vn -0.0 1.0 0.0
vn -0.0 1.0 0.0
vn -0.0 1.0 0.0
vn -0.36324933 0.0 0.931692
vn -0.5555716 0.0 0.8314687
vn -0.5555716 0.0 0.8314687
vn -0.3632492 0.0 0.931692
vn -0.70710796 0.0 0.7071056
vn -0.7071083 0.0 0.70710516
vn 0.36476123 0.0 -0.9311011
vn 0.55557203 0.0 -0.83146846
vn 0.55557185 0.0 -0.8314685
vn 0.3647613 0.0 -0.9311011
vn 0.70710784 0.0 -0.70710564
vn 0.70710784 0.0 -0.70710564
vn -0.0 1.0 0.0
vn -0.0 1.0 0.0
vn -0.0 1.0 0.0
vn -0.0 1.0 0.0
vn -0.0 1.0 0.0
vn -0.0 1.0 0.0
vn -0.0 1.0 0.0
vn -0.0 1.0 0.0
vn -0.0 1.0 0.0
vn -0.0 1.0 0.0
vn -0.0 1.0 0.0
vn -0.0 1.0 0.0
vn -0.9238798 0.0 0.38268268
vn -0.98078555 0.0 0.19508895
vn -0.9807854 0.0 0.19508947
vn -0.9238798 0.0 0.38268268
vn -0.99518496 0.0 0.09801543
vn -0.99518496 0.0 0.09801544
vn 0.92388004 0.0 -0.38268206
vn 0.98078555 0.0 -0.19508868
vn 0.98078555 0.0 -0.19508864
vn 0.92388004 0.0 -0.38268214
vn 0.99518484 0.0 -0.09801577
vn 0.99518484 0.0 -0.09801576
vn -0.0 1.0 0.0
vn -0.0 1.0 0.0
vn -0.0 1.0 0.0
vn -0.0 1.0 0.0
vn -0.0 1.0 0.0
vn -0.0 1.0 0.0
vn -0.0 1.0 0.0
vn -0.0 1.0 0.0
vn -0.0 1.0 0.0
vn -0.0 1.0 0.0
vn -0.0 1.0 0.0
vn -0.0 1.0 0.0
vn -0.8314704 0.0 0.5555691
vn -0.9238798 0.0 0.38268268
vn -0.8314704 0.0 0.5555691
vn -0.9238798 0.0 0.38268268
vn -0.7071083 0.0 0.70710516
vn -0.70710796 0.0 0.7071056
vn 0.83147025 0.0 -0.55556923
vn 0.92388004 0.0 -0.38268206
vn 0.83147025 0.0 -0.5555691
vn 0.92388004 0.0 -0.38268214
vn 0.70710784 0.0 -0.70710564
vn 0.70710784 0.0 -0.70710564
vn -0.0 1.0 0.0
vn -0.0 1.0 0.0
vn -0.0 1.0 0.0
vn -0.0 1.0 0.0
vn -0.0 1.0 0.0
vn -0.0 1.0 0.0
vn -0.0 1.0 0.0
vn -0.0 1.0 0.0
vn -0.0 1.0 0.0
vn -0.0 1.0 0.0
vn -0.0 1.0 0.0
vn -0.0 1.0 0.0
vn -0.0 1.0 0.0
vn -0.0 1.0 0.0
vn -0.0 1.0 0.0
vn -0.0 1.0 0.0
vn -0.0 1.0 0.0
vn -0.0 1.0 0.0
vn -0.0 1.0 0.0
vn -0.0 1.0 0.0
vn -0.0 1.0 0.0
vn -0.0 1.0 0.0
vn -0.0 1.0 0.0
vn -0.0 1.0 0.0
vn -0.0 1.0 0.0
vn -0.0 1.0 0.0
vn -0.0 1.0 0.0
vn -0.0 1.0 0.0
vn -0.0 1.0 0.0
vn -0.0 1.0 0.0
vn -0.0 1.0 0.0
vn -0.0 1.0 0.0
vn -0.0 1.0 0.0
vn -0.0 1.0 0.0
vn -0.0 1.0 0.0
vn -0.0 1.0 0.0
vn -0.0 1.0 0.0
vn -0.0 1.0 0.0
vn -0.0 1.0 0.0
vn -0.0 1.0 0.0
vn -0.0 1.0 0.0
vn -0.0 1.0 0.0
vn -0.0 1.0 0.0
vn -0.0 1.0 0.0
vn -0.0 1.0 0.0
vn -0.0 1.0 0.0
vn -0.0 1.0 0.0
vn -0.0 1.0 0.0
vt 0.5338496 0.751142
vt 0.38088495 0.7779535
vt 0.5338496 0.7779535
vt 0.38088492 0.751142
vt 0.68681425 0.751142
vt 0.68681425 0.7779535
vt 0.5338496 0.7779535
vt 0.38088495 0.78130496
vt 0.5338496 0.78130496
vt 0.38088495 0.7779535
vt 0.68681425 0.7779535
vt 0.68681425 0.78130496
vt 0.5338496 0.80811644
vt 0.38088495 0.8114679
vt 0.5338496 0.8114679
vt 0.38088495 0.80811644
vt 0.6868143 0.80811644
vt 0.6868143 0.8114679
vt 0.44098935 0.759285
vt 0.48035312 0.7940128
vt 0.44098935 0.7940128
vt 0.48035312 0.759285
vt 0.51935464 0.759285
vt 0.51935464 0.7940128
vt 0.40716335 0.759285
vt 0.40716335 0.7940128
vt 0.55941164 0.7940128
vt 0.55941164 0.759285
vt 0.59602684 0.7940128
vt 0.59602684 0.759285
vt 0.6349789 0.7940128
vt 0.6349789 0.759285
vt 0.6755408 0.759285
vt 0.6755408 0.7940128
vt 0.7142066 0.7940128
vt 0.7142066 0.759285
vt 0.44098935 0.7940128
vt 0.48035312 0.8046251
vt 0.44098935 0.8046251
vt 0.48035312 0.7940128
vt 0.51935464 0.7940128
vt 0.51935464 0.8046251
vt 0.40716335 0.7940128
vt 0.40716335 0.8046251
vt 0.55941164 0.8046251
vt 0.55941164 0.7940128
vt 0.59602684 0.8046251
vt 0.59602684 0.7940128
vt 0.6349789 0.8046251
vt 0.6349789 0.7940128
vt 0.6755408 0.7940128
vt 0.6755408 0.8046251
vt 0.71420646 0.8046251
vt 0.7142066 0.7940128
vt 0.44098935 0.755417
vt 0.48035312 0.759285
vt 0.44098935 0.759285
vt 0.48035312 0.755417
vt 0.51935464 0.755417
vt 0.51935464 0.759285
vt 0.40716335 0.755417
vt 0.40716335 0.759285
vt 0.55941164 0.759285
vt 0.55941164 0.755417
vt 0.59602684 0.759285
vt 0.59602684 0.755417
vt 0.6349789 0.759285
vt 0.6349789 0.755417
vt 0.6755408 0.755417
vt 0.6755408 0.759285
vt 0.7142066 0.759285
vt 0.7142067 0.755417
vt 0.5641219 0.12368059
vt 0.5297995 0.0
vt 0.56412196 0.0
vt 0.48637658 0.12368059
vt 0.64186716 0.12368059
vt 0.59844434 0.0
vt 0.38088495 0.7779535
vt 0.5331463 0.751142
vt 0.5331464 0.7779535
vt 0.38088492 0.751142
vt 0.68540776 0.7779535
vt 0.68540776 0.751142
vt 0.38088495 0.78130496
vt 0.5331464 0.7779535
vt 0.5331464 0.78130496
vt 0.38088495 0.7779535
vt 0.68540776 0.78130496
vt 0.68540776 0.7779535
vt 0.38088495 0.8114679
vt 0.5331464 0.80811644
vt 0.5331464 0.8114679
vt 0.38088495 0.80811644
vt 0.6854078 0.8114679
vt 0.6854078 0.80811644
vt 0.59844434 0.0
vt 0.5641219 0.12368059
vt 0.56412196 0.0
vt 0.64186716 0.12368059
vt 0.5297995 0.0
vt 0.48637658 0.12368059
vt 0.38088495 0.7779535
vt 0.5338496 0.751142
vt 0.5338496 0.7779535
vt 0.38088492 0.751142
vt 0.68681425 0.7779535
vt 0.68681425 0.751142
vt 0.38088495 0.78130496
vt 0.5338496 0.7779535
vt 0.5338496 0.78130496
vt 0.38088495 0.7779535
vt 0.68681425 0.78130496
vt 0.68681425 0.7779535
vt 0.38088495 0.8114679
vt 0.5338496 0.80811644
vt 0.5338496 0.8114679
vt 0.38088495 0.80811644
vt 0.6868143 0.8114679
vt 0.6868143 0.80811644
vt 0.59844434 0.0
vt 0.5641219 0.12368059
vt 0.56412196 0.0
vt 0.64186716 0.12368059
vt 0.5297995 0.0
vt 0.48637658 0.12368059
vt 0.5331463 0.751142
vt 0.38088495 0.7779535
vt 0.5331464 0.7779535
vt 0.38088492 0.751142
vt 0.68540776 0.751142
vt 0.68540776 0.7779535
vt 0.5331464 0.7779535
vt 0.38088495 0.78130496
vt 0.5331464 0.78130496
vt 0.38088495 0.7779535
vt 0.68540776 0.7779535
vt 0.68540776 0.78130496
vt 0.5331464 0.80811644
vt 0.38088495 0.8114679
vt 0.5331464 0.8114679
vt 0.38088495 0.80811644
vt 0.6854078 0.80811644
vt 0.6854078 0.8114679
vt 0.5641219 0.12368059
vt 0.5297995 0.0
vt 0.56412196 0.0
vt 0.48637658 0.12368059
vt 0.64186716 0.12368059
vt 0.59844434 0.0
vt 0.9889418 0.42830837
vt 0.8664415 0.44509554
vt 0.8664415 0.42830837
vt 0.9889418 0.4450956
vt 0.74394125 0.4283083
vt 0.74394125 0.44509554
vt 0.6214415 0.44509554
vt 0.6214415 0.42830837
vt 0.49894175 0.42830837
vt 0.49894175 0.4450956
vt 0.37644202 0.44509554
vt 0.37644202 0.42830837
vt 0.25394228 0.4283083
vt 0.25394228 0.44509554
vt 0.13144204 0.44509554
vt 0.13144204 0.42830837
vt 0.008941819 0.42830837
vt 0.008941819 0.4450956
vt 0.34332353 0.46620053
vt 0.3135692 0.5898811
vt 0.3135692 0.46620053
vt 0.34332353 0.5898811
vt 0.2838149 0.46620053
vt 0.2838149 0.5898811
vt 0.21811049 0.0
vt 0.18735664 0.12368059
vt 0.18735665 0.0
vt 0.22413133 0.12368059
vt 0.15660278 0.0
vt 0.15058188 0.12368059
vt 0.21811049 0.0
vt 0.18735664 0.12368059
vt 0.18735665 0.0
vt 0.22413133 0.12368059
vt 0.15660278 0.0
vt 0.15058188 0.12368059
vt 0.3437927 0.4671924
vt 0.3140384 0.590873
vt 0.3140384 0.4671924
vt 0.3437927 0.590873
vt 0.28428409 0.4671924
vt 0.28428409 0.590873

g Two_Lane_90Degrees_07
s 1
usemtl Two_Lane_90Degrees_07
f 3/3/3 2/2/2 1/1/1 
f 4/4/4 1/1/1 2/2/2 
f 1/1/1 5/5/5 3/3/3 
f 6/6/6 3/3/3 5/5/5 
f 9/9/9 8/8/8 7/7/7 
f 10/10/10 7/7/7 8/8/8 
f 7/7/7 11/11/11 9/9/9 
f 12/12/12 9/9/9 11/11/11 
f 15/15/15 14/14/14 13/13/13 
f 16/16/16 13/13/13 14/14/14 
f 13/13/13 17/17/17 15/15/15 
f 18/18/18 15/15/15 17/17/17 
f 21/21/21 20/20/20 19/19/19 
f 22/22/22 19/19/19 20/20/20 
f 22/22/22 20/20/20 23/23/23 
f 24/24/24 23/23/23 20/20/20 
f 19/19/19 25/25/25 21/21/21 
f 26/26/26 21/21/21 25/25/25 
f 24/24/24 27/27/27 23/23/23 
f 28/28/28 23/23/23 27/27/27 
f 27/27/27 29/29/29 28/28/28 
f 30/30/30 28/28/28 29/29/29 
f 29/29/29 31/31/31 30/30/30 
f 32/32/32 30/30/30 31/31/31 
f 32/32/32 31/31/31 33/33/33 
f 34/34/34 33/33/33 31/31/31 
f 34/34/34 35/35/35 33/33/33 
f 36/36/36 33/33/33 35/35/35 
f 39/39/39 38/38/38 37/37/37 
f 40/40/40 37/37/37 38/38/38 
f 40/40/40 38/38/38 41/41/41 
f 42/42/42 41/41/41 38/38/38 
f 37/37/37 43/43/43 39/39/39 
f 44/44/44 39/39/39 43/43/43 
f 42/42/42 45/45/45 41/41/41 
f 46/46/46 41/41/41 45/45/45 
f 45/45/45 47/47/47 46/46/46 
f 48/48/48 46/46/46 47/47/47 
f 47/47/47 49/49/49 48/48/48 
f 50/50/50 48/48/48 49/49/49 
f 50/50/50 49/49/49 51/51/51 
f 52/52/52 51/51/51 49/49/49 
f 52/52/52 53/53/53 51/51/51 
f 54/54/54 51/51/51 53/53/53 
f 57/57/57 56/56/56 55/55/55 
f 58/58/58 55/55/55 56/56/56 
f 58/58/58 56/56/56 59/59/59 
f 60/60/60 59/59/59 56/56/56 
f 55/55/55 61/61/61 57/57/57 
f 62/62/62 57/57/57 61/61/61 
f 60/60/60 63/63/63 59/59/59 
f 64/64/64 59/59/59 63/63/63 
f 63/63/63 65/65/65 64/64/64 
f 66/66/66 64/64/64 65/65/65 
f 65/65/65 67/67/67 66/66/66 
f 68/68/68 66/66/66 67/67/67 
f 68/68/68 67/67/67 69/69/69 
f 70/70/70 69/69/69 67/67/67 
f 70/70/70 71/71/71 69/69/69 
f 72/72/72 69/69/69 71/71/71 
f 75/75/75 74/74/74 73/73/73 
f 76/76/76 73/73/73 74/74/74 
f 73/73/73 77/77/77 75/75/75 
f 78/78/78 75/75/75 77/77/77 
f 81/81/81 80/80/80 79/79/79 
f 82/82/82 79/79/79 80/80/80 
f 81/81/81 83/83/83 80/80/80 
f 84/84/84 80/80/80 83/83/83 
f 87/87/87 86/86/86 85/85/85 
f 88/88/88 85/85/85 86/86/86 
f 87/87/87 89/89/89 86/86/86 
f 90/90/90 86/86/86 89/89/89 
f 93/93/93 92/92/92 91/91/91 
f 94/94/94 91/91/91 92/92/92 
f 93/93/93 95/95/95 92/92/92 
f 96/96/96 92/92/92 95/95/95 
f 99/99/99 98/98/98 97/97/97 
f 100/100/100 97/97/97 98/98/98 
f 99/99/99 101/101/101 98/98/98 
f 102/102/102 98/98/98 101/101/101 
f 105/105/105 104/104/104 103/103/103 
f 106/106/106 103/103/103 104/104/104 
f 105/105/105 107/107/107 104/104/104 
f 108/108/108 104/104/104 107/107/107 
f 111/111/111 110/110/110 109/109/109 
f 112/112/112 109/109/109 110/110/110 
f 111/111/111 113/113/113 110/110/110 
f 114/114/114 110/110/110 113/113/113 
f 117/117/117 116/116/116 115/115/115 
f 118/118/118 115/115/115 116/116/116 
f 117/117/117 119/119/119 116/116/116 
f 120/120/120 116/116/116 119/119/119 
f 123/123/123 122/122/122 121/121/121 
f 124/124/124 121/121/121 122/122/122 
f 123/123/123 125/125/125 122/122/122 
f 126/126/126 122/122/122 125/125/125 
f 129/129/129 128/128/128 127/127/127 
f 130/130/130 127/127/127 128/128/128 
f 127/127/127 131/131/131 129/129/129 
f 132/132/132 129/129/129 131/131/131 
f 135/135/135 134/134/134 133/133/133 
f 136/136/136 133/133/133 134/134/134 
f 133/133/133 137/137/137 135/135/135 
f 138/138/138 135/135/135 137/137/137 
f 141/141/141 140/140/140 139/139/139 
f 142/142/142 139/139/139 140/140/140 
f 139/139/139 143/143/143 141/141/141 
f 144/144/144 141/141/141 143/143/143 
f 147/147/147 146/146/146 145/145/145 
f 148/148/148 145/145/145 146/146/146 
f 145/145/145 149/149/149 147/147/147 
f 150/150/150 147/147/147 149/149/149 
f 153/153/153 152/152/152 151/151/151 
f 154/154/154 151/151/151 152/152/152 
f 153/153/153 155/155/155 152/152/152 
f 156/156/156 152/152/152 155/155/155 
f 156/156/156 155/155/155 157/157/157 
f 158/158/158 157/157/157 155/155/155 
f 158/158/158 159/159/159 157/157/157 
f 160/160/160 157/157/157 159/159/159 
f 160/160/160 159/159/159 161/161/161 
f 162/162/162 161/161/161 159/159/159 
f 162/162/162 163/163/163 161/161/161 
f 164/164/164 161/161/161 163/163/163 
f 164/164/164 163/163/163 165/165/165 
f 166/166/166 165/165/165 163/163/163 
f 166/166/166 167/167/167 165/165/165 
f 168/168/168 165/165/165 167/167/167 
f 171/171/171 170/170/170 169/169/169 
f 172/172/172 169/169/169 170/170/170 
f 171/171/171 173/173/173 170/170/170 
f 174/174/174 170/170/170 173/173/173 
f 177/177/177 176/176/176 175/175/175 
f 178/178/178 175/175/175 176/176/176 
f 177/177/177 179/179/179 176/176/176 
f 180/180/180 176/176/176 179/179/179 
f 183/183/183 182/182/182 181/181/181 
f 184/184/184 181/181/181 182/182/182 
f 183/183/183 185/185/185 182/182/182 
f 186/186/186 182/182/182 185/185/185 
f 189/189/189 188/188/188 187/187/187 
f 190/190/190 187/187/187 188/188/188 
f 189/189/189 191/191/191 188/188/188 
f 192/192/192 188/188/188 191/191/191 

