# Created by DisUnity v0.3.4
v -2.000719 0.24998826 -8.000023
v -8.583069E-6 0.24999987 -1.5258789E-5
v -2.0006237 0.25000003 -1.9073486E-5
v -1.02996826E-4 0.24998805 -8.0000305
v -2.248433 0.24998827 -8.0000305
v -5.99462 0.2500001 1.530809E-17
v -5.994719 0.24998835 -8.0000305
v -2.2483377 0.25000003 -1.1444092E-5
v -9.752366 0.24998839 -8.000023
v -9.752262 0.25000015 1.1444092E-5
v -2.0006237 0.25000003 -1.9073486E-5
v -2.248433 0.24998827 -8.0000305
v -2.000719 0.24998826 -8.000023
v -2.2483377 0.25000003 -1.1444092E-5
v -9.999983 0.2500001 1.1444092E-5
v -12.011591 0.25001368 -7.9999065
v -10.000083 0.24998823 -8.000008
v -12.011576 0.25001213 -1.9073486E-5
v -9.752366 0.24998839 -8.000023
v -9.999983 0.2500001 1.1444092E-5
v -10.000083 0.24998823 -8.000008
v -9.752262 0.25000015 1.1444092E-5
v -1.02996826E-4 0.24998805 -8.0000305
v -7.6293945E-6 7.122755E-6 -1.5258789E-5
v -8.583069E-6 0.24999987 -1.5258789E-5
v -1.02996826E-4 -4.440546E-6 -8.0000305
v -13.005882 0.25001225 -1.1444092E-5
v -14.000204 0.25001404 -7.9998894
v -13.0058975 0.25001392 -7.999897
v -14.000189 0.2500125 1.530885E-17
v -12.011576 0.25001213 -1.9073486E-5
v -13.0058975 0.25001392 -7.999897
v -12.011591 0.25001368 -7.9999065
v -13.005882 0.25001225 -1.1444092E-5
v -23.99948 0.24998826 -8.000023
v -26.00019 0.24999987 -1.5258789E-5
v -26.000095 0.24998805 -8.0000305
v -23.999575 0.25000003 -1.9073486E-5
v -23.751766 0.24998827 -8.0000305
v -20.005579 0.2500001 1.530809E-17
v -23.751862 0.25000003 -1.1444092E-5
v -20.00548 0.24998835 -8.0000305
v -16.247833 0.24998839 -8.000023
v -16.247936 0.25000015 1.1444092E-5
v -23.999575 0.25000003 -1.9073486E-5
v -23.751766 0.24998827 -8.0000305
v -23.751862 0.25000003 -1.1444092E-5
v -23.99948 0.24998826 -8.000023
v -16.000216 0.2500001 1.1444092E-5
v -14.000204 0.25001404 -7.9998894
v -14.000189 0.2500125 1.530885E-17
v -16.000114 0.24998823 -8.000008
v -16.247833 0.24998839 -8.000023
v -16.000216 0.2500001 1.1444092E-5
v -16.247936 0.25000015 1.1444092E-5
v -16.000114 0.24998823 -8.000008
v -26.000095 0.24998805 -8.0000305
v -26.00019 7.122755E-6 -1.5258789E-5
v -26.000095 -4.440546E-6 -8.0000305
v -26.00019 0.24999987 -1.5258789E-5
v -12.418327 0.32865557 -7.9816284
v -13.305439 0.62214756 -7.981621
v -13.601593 0.32865563 -7.9816284
v -12.714474 0.62214744 -7.9816284
v -13.232674 1.5530711 -7.981613
v -13.009958 1.5530714 -7.981613
v -12.418327 0.250049 -7.9816284
v -13.601593 0.2500491 -7.9816284
v -12.787243 1.5530711 -7.981613
v -13.601582 0.2500269 -7.6293945E-6
v -12.418316 0.32863334 -7.6293945E-6
v -12.418316 0.2500268 -7.6293945E-6
v -13.601582 0.3286334 -7.6293945E-6
v -13.305428 0.62212527 -7.6293945E-6
v -12.714462 0.62212527 -7.6293945E-6
v -13.232666 1.5530493 -7.6293945E-6
v -13.009947 1.5530493 -7.6293945E-6
v -12.787231 1.5530493 -7.6293945E-6
v -13.305428 0.6221287 -7.981613
v -13.601582 0.3286334 -7.6293945E-6
v -13.601582 0.32863685 -7.981613
v -13.305428 0.62212527 -7.6293945E-6
v -13.232666 1.5530528 -7.981613
v -13.232666 1.5530493 -7.6293945E-6
v -13.601582 0.2500269 -7.6293945E-6
v -13.601582 0.25003037 -7.981613
v -12.418316 0.3286368 -7.981613
v -12.714462 0.62212527 -7.6293945E-6
v -12.714462 0.6221287 -7.981613
v -12.418316 0.32863334 -7.6293945E-6
v -12.787231 1.5530493 -7.6293945E-6
v -12.787231 1.5530528 -7.981613
v -12.418316 0.25003025 -7.981613
v -12.418316 0.2500268 -7.6293945E-6
v -13.232666 1.5530493 -7.6293945E-6
v -13.009947 1.5530528 -7.981613
v -13.009947 1.5530493 -7.6293945E-6
v -13.232666 1.5530528 -7.981613
v -12.787231 1.5530528 -7.981613
v -12.787231 1.5530493 -7.6293945E-6
vn -0.0 1.0 0.0
vn -0.0 1.0 0.0
vn -0.0 1.0 0.0
vn -0.0 1.0 0.0
vn -0.0 1.0 0.0
vn -0.0 1.0 0.0
vn -0.0 1.0 0.0
vn -0.0 1.0 0.0
vn -0.0 1.0 0.0
vn -0.0 1.0 0.0
vn -0.0 1.0 0.0
vn -0.0 1.0 0.0
vn -0.0 1.0 0.0
vn -0.0 1.0 0.0
vn 1.2652714E-5 1.0 0.0
vn 1.2652715E-5 1.0 0.0
vn 1.2652713E-5 1.0 0.0
vn -0.0 1.0 0.0
vn -0.0 1.0 0.0
vn -0.0 1.0 0.0
vn -0.0 1.0 0.0
vn -0.0 1.0 0.0
vn 1.0 0.0 -1.1801704E-5
vn 1.0 0.0 -1.1801704E-5
vn 1.0 0.0 -1.1801703E-5
vn 1.0 0.0 -1.1920906E-5
vn -0.0 1.0 0.0
vn -0.0 1.0 0.0
vn -0.0 1.0 0.0
vn -0.0 1.0 0.0
vn -0.0 1.0 0.0
vn -0.0 1.0 0.0
vn -0.0 1.0 0.0
vn -0.0 1.0 0.0
vn -0.0 1.0 0.0
vn -0.0 1.0 0.0
vn -0.0 1.0 0.0
vn -0.0 1.0 0.0
vn -0.0 1.0 0.0
vn -0.0 1.0 0.0
vn -0.0 1.0 0.0
vn -0.0 1.0 0.0
vn -0.0 1.0 0.0
vn -0.0 1.0 0.0
vn -0.0 1.0 0.0
vn -0.0 1.0 0.0
vn -0.0 1.0 0.0
vn -0.0 1.0 0.0
vn -0.0 1.0 0.0
vn -0.0 1.0 0.0
vn -0.0 1.0 0.0
vn -1.2904897E-5 1.0 0.0
vn -0.0 1.0 0.0
vn -0.0 1.0 0.0
vn -0.0 1.0 0.0
vn -0.0 1.0 0.0
vn -1.0 0.0 -1.1920907E-5
vn -1.0 0.0 -1.1920906E-5
vn -1.0 0.0 -1.1920906E-5
vn -1.0 0.0 -1.1920907E-5
vn -0.0 0.0 -1.0
vn -0.0 1.625537E-5 -1.0
vn -0.0 0.0 -1.0
vn -1.14697095E-5 0.0 -1.0
vn -0.0 1.3837157E-5 -1.0
vn -0.0 1.6391015E-5 -1.0
vn -0.0 0.0 -1.0
vn -0.0 0.0 -1.0
vn -0.0 1.6391024E-5 -1.0
vn -0.0 0.0 1.0
vn -0.0 0.0 1.0
vn -0.0 0.0 1.0
vn -0.0 0.0 1.0
vn -0.0 0.0 1.0
vn -0.0 0.0 1.0
vn -0.0 0.0 1.0
vn -0.0 0.0 1.0
vn -0.0 0.0 1.0
vn -0.9073088 0.42046493 0.0
vn -0.9230132 0.38476828 0.0
vn -0.9230134 0.38476777 0.0
vn -0.9073088 0.42046478 0.0
vn -0.67899805 0.73414 0.0
vn -0.67899776 0.73414034 0.0
vn -1.0 0.0 0.0
vn -1.0 0.0 0.0
vn 0.9230158 0.38476226 0.0
vn 0.9073098 0.42046273 0.0
vn 0.9073099 0.42046243 0.0
vn 0.92301595 0.38476163 0.0
vn 0.6789954 0.73414254 0.0
vn 0.6789945 0.7341433 0.0
vn 1.0 0.0 0.0
vn 1.0 0.0 0.0
vn -0.67899776 0.73414034 0.0
vn -0.0 1.0 0.0
vn -0.0 1.0 0.0
vn -0.67899805 0.73414 0.0
vn 0.6789945 0.7341433 0.0
vn 0.6789954 0.73414254 0.0
vt 0.34079063 0.936967
vt 0.58035696 0.87505674
vt 0.58035696 0.9369675
vt 0.34079063 0.87505627
vt 0.25084168 4.917383E-4
vt 0.3761588 0.062344015
vt 0.25084156 0.06234348
vt 0.3761588 4.9221516E-4
vt 0.25084156 0.12438315
vt 0.3761588 0.12438357
vt 0.44804984 0.31031597
vt 0.31631842 0.31462818
vt 0.31631842 0.31032825
vt 0.44804984 0.3146159
vt 0.31039557 0.936967
vt 0.5499669 0.87505674
vt 0.5499619 0.9369675
vt 0.31040058 0.8750564
vt 0.29274115 0.434866
vt 0.47277194 0.4407367
vt 0.29274115 0.44074064
vt 0.47277194 0.43486196
vt 0.3254669 0.90801615
vt 0.56503326 0.9001256
vt 0.56503326 0.9080159
vt 0.3254669 0.9001259
vt 0.88681847 0.8964003
vt 1.0566502 0.8752915
vt 1.0566504 0.8963999
vt 0.88681835 0.8752918
vt 0.71691203 0.89645517
vt 0.8867437 0.8753464
vt 0.8867439 0.8964549
vt 0.71691185 0.8753468
vt 0.34079063 0.936967
vt 0.58035696 0.87505674
vt 0.34079063 0.87505627
vt 0.58035696 0.9369675
vt 0.25084168 4.917383E-4
vt 0.3761588 0.062344015
vt 0.3761588 4.9221516E-4
vt 0.25084156 0.06234348
vt 0.25084156 0.12438315
vt 0.3761588 0.12438357
vt 0.44804984 0.31031597
vt 0.31631842 0.31462818
vt 0.44804984 0.3146159
vt 0.31631842 0.31032825
vt 0.31039557 0.936967
vt 0.5499669 0.87505674
vt 0.31040058 0.8750564
vt 0.5499619 0.9369675
vt 0.29274115 0.434866
vt 0.47277194 0.4407367
vt 0.47277194 0.43486196
vt 0.29274115 0.44074064
vt 0.3254669 0.90801615
vt 0.56503326 0.9001256
vt 0.3254669 0.9001259
vt 0.56503326 0.9080159
vt 0.68161345 0.8709777
vt 0.65231603 0.8590957
vt 0.6424019 0.8709059
vt 0.6720035 0.859066
vt 0.6575331 0.820617
vt 0.66211134 0.82136905
vt 0.68160117 0.8740444
vt 0.6424066 0.87414736
vt 0.6697488 0.8214009
vt 0.560914 0.87414736
vt 0.52167445 0.87096894
vt 0.52167445 0.87414736
vt 0.5609281 0.870986
vt 0.551196 0.85909903
vt 0.5315316 0.8590925
vt 0.5489161 0.8214599
vt 0.54133785 0.8214856
vt 0.5337267 0.8214876
vt 0.13839273 0.85597765
vt 0.313055 0.87003183
vt 0.13839273 0.87003183
vt 0.313055 0.85597765
vt 0.13839273 0.81139934
vt 0.313055 0.81139934
vt 0.313055 0.873796
vt 0.13839273 0.873796
vt -1.2628057 0.87047756
vt -1.437468 0.85642326
vt -1.2628057 0.8564233
vt -1.437468 0.87047756
vt -1.437468 0.81184506
vt -1.2628057 0.81184506
vt -1.2628057 0.87424165
vt -1.437468 0.87424165
vt -1.437468 0.8297745
vt -1.2628057 0.82103264
vt -1.437468 0.8210326
vt -1.2628057 0.8297745
vt -1.2628057 0.81184506
vt -1.437468 0.81229085

g Two_Lane_8m
s 1
usemtl Two_Lane_8m
f 3/3/3 2/2/2 1/1/1 
f 4/4/4 1/1/1 2/2/2 
f 7/7/7 6/6/6 5/5/5 
f 8/8/8 5/5/5 6/6/6 
f 7/7/7 9/9/9 6/6/6 
f 10/10/10 6/6/6 9/9/9 
f 13/13/13 12/12/12 11/11/11 
f 14/14/14 11/11/11 12/12/12 
f 17/17/17 16/16/16 15/15/15 
f 18/18/18 15/15/15 16/16/16 
f 21/21/21 20/20/20 19/19/19 
f 22/22/22 19/19/19 20/20/20 
f 25/25/25 24/24/24 23/23/23 
f 26/26/26 23/23/23 24/24/24 
f 29/29/29 28/28/28 27/27/27 
f 30/30/30 27/27/27 28/28/28 
f 33/33/33 32/32/32 31/31/31 
f 34/34/34 31/31/31 32/32/32 
f 37/37/37 36/36/36 35/35/35 
f 38/38/38 35/35/35 36/36/36 
f 41/41/41 40/40/40 39/39/39 
f 42/42/42 39/39/39 40/40/40 
f 42/42/42 40/40/40 43/43/43 
f 44/44/44 43/43/43 40/40/40 
f 47/47/47 46/46/46 45/45/45 
f 48/48/48 45/45/45 46/46/46 
f 51/51/51 50/50/50 49/49/49 
f 52/52/52 49/49/49 50/50/50 
f 55/55/55 54/54/54 53/53/53 
f 56/56/56 53/53/53 54/54/54 
f 59/59/59 58/58/58 57/57/57 
f 60/60/60 57/57/57 58/58/58 
f 63/63/63 62/62/62 61/61/61 
f 64/64/64 61/61/61 62/62/62 
f 62/62/62 65/65/65 64/64/64 
f 66/66/66 64/64/64 65/65/65 
f 61/61/61 67/67/67 63/63/63 
f 68/68/68 63/63/63 67/67/67 
f 64/64/64 66/66/66 69/69/69 
f 72/72/72 71/71/71 70/70/70 
f 73/73/73 70/70/70 71/71/71 
f 73/73/73 71/71/71 74/74/74 
f 75/75/75 74/74/74 71/71/71 
f 74/74/74 75/75/75 76/76/76 
f 77/77/77 76/76/76 75/75/75 
f 75/75/75 78/78/78 77/77/77 
f 81/81/81 80/80/80 79/79/79 
f 82/82/82 79/79/79 80/80/80 
f 79/79/79 82/82/82 83/83/83 
f 84/84/84 83/83/83 82/82/82 
f 80/80/80 81/81/81 85/85/85 
f 86/86/86 85/85/85 81/81/81 
f 89/89/89 88/88/88 87/87/87 
f 90/90/90 87/87/87 88/88/88 
f 88/88/88 89/89/89 91/91/91 
f 92/92/92 91/91/91 89/89/89 
f 87/87/87 90/90/90 93/93/93 
f 94/94/94 93/93/93 90/90/90 
f 97/97/97 96/96/96 95/95/95 
f 98/98/98 95/95/95 96/96/96 
f 96/96/96 97/97/97 99/99/99 
f 100/100/100 99/99/99 97/97/97 

