# Created by DisUnity v0.3.4
v -18.000015 0.24976842 -18.195805
v -28.000053 0.24976681 -17.804073
v -28.000053 0.24976681 -18.195808
v -18.000015 0.24976842 -17.80407
v -10.195865 0.24976978 -17.80407
v -10.195867 0.24976978 -18.195805
v -9.80413 0.24976985 -17.80407
v -9.8041315 0.24976985 -18.195805
v -1.9999788 0.24977122 -17.80407
v -1.9999793 0.24977122 -18.195803
v 8.000056 0.24977311 -18.195799
v 8.000057 0.24977311 -17.804064
v -10.195867 0.24976978 -9.999916
v -9.8041315 0.24976987 -8.896611
v -10.195866 0.24976979 -8.896611
v -9.804132 0.24976985 -9.999916
v -9.804134 0.24977 1.241708E-4
v -10.195869 0.24976993 1.2314864E-4
v -4.7561378E-5 0.48558798 -6.63965
v -1.9999863 0.48558772 6.3260313E-6
v -1.9999824 0.48558757 -8.89673
v -5.2060153E-5 0.48558807 6.675711E-6
v -4.732353E-5 0.48558798 -7.9999804
v -1.9999816 0.48558754 -10.000036
v -1.9999824 0.48558757 -8.89673
v -1.9999824 0.24977137 1.2553533E-4
v -1.9999803 0.24977124 -8.89661
v -1.9999863 0.48558772 6.3260313E-6
v -1.9999816 0.48558754 -10.000036
v -1.9999802 0.24977122 -9.999915
v -4.747647E-5 -3.20077E-5 -6.63965
v -5.2060153E-5 0.48558807 6.675711E-6
v -4.7561378E-5 0.48558798 -6.63965
v -5.1975247E-5 -3.1948097E-5 6.675711E-6
v -4.7238624E-5 -3.20077E-5 -7.9999804
v -4.732353E-5 0.48558798 -7.9999804
v 8.000054 0.48558947 -10.000033
v -4.732353E-5 0.48558798 -7.9999804
v -1.9999816 0.48558754 -10.000036
v 8.000053 0.48558947 -7.9999766
v 8.000057 0.24977311 -9.999912
v -1.9999816 0.48558754 -10.000036
v -1.9999802 0.24977122 -9.999915
v 8.000054 0.48558947 -10.000033
v 8.000053 0.48558947 -7.9999766
v -4.7238624E-5 -3.20077E-5 -7.9999804
v -4.732353E-5 0.48558798 -7.9999804
v 8.000052 -3.0549316E-5 -7.9999766
v -10.440698 0.48558626 -27.999763
v -9.559295 0.4855864 -25.999954
v -10.440698 0.48558626 -25.999952
v -9.559295 0.4855864 -27.999765
v -28.000048 0.4855832 -27.999767
v -28.000051 0.4855832 -25.999956
v 8.000057 0.48558947 -25.99995
v 8.000058 0.48558947 -27.999762
v -10.440698 0.48558626 -25.999952
v -9.559295 0.24977005 -25.999954
v -10.440698 0.24976988 -25.999956
v -9.559295 0.4855864 -25.999954
v -28.000051 0.4855832 -25.999956
v -28.000051 0.24976681 -25.99996
v 8.000057 0.24977311 -25.99995
v 8.000057 0.48558947 -25.99995
v -10.440698 -3.3833203E-5 -27.999763
v -9.559295 0.4855864 -27.999765
v -10.440698 0.48558626 -27.999763
v -9.559295 -3.3679094E-5 -27.999765
v -28.000048 -3.6903377E-5 -27.999767
v -28.000048 0.4855832 -27.999767
v 8.000058 0.48558947 -27.999762
v 8.000058 -3.060892E-5 -27.999762
v -18.00002 0.48558474 -10.000036
v -28.000063 0.4855832 -7.9999876
v -28.000063 0.4855832 -10.000045
v -19.999954 0.4855845 -7.9999804
v -18.000017 0.24976842 -9.999917
v -28.000063 0.4855832 -10.000045
v -28.000057 0.24976681 -9.999922
v -18.00002 0.48558474 -10.000036
v -19.999954 0.4855845 -7.9999804
v -28.000063 -3.6843776E-5 -7.9999876
v -28.000063 0.4855832 -7.9999876
v -19.999954 -3.55046E-5 -7.9999804
v -19.999954 0.4855845 -7.9999804
v -18.000021 0.48558477 -8.89673
v -19.999954 0.4855845 -6.6396513
v -18.00002 0.48558474 -10.000036
v -18.000027 0.4855849 -2.193551E-6
v -19.999962 0.4855846 -2.5432307E-6
v -18.000021 0.48558477 -8.89673
v -18.000017 0.24976842 -9.999917
v -18.000017 0.24976844 -8.896611
v -18.00002 0.48558474 -10.000036
v -18.000027 0.4855849 -2.193551E-6
v -18.000023 0.24976857 1.2178411E-4
v -19.999954 -3.55046E-5 -6.6396513
v -19.999954 0.4855845 -7.9999804
v -19.999954 0.4855845 -6.6396513
v -19.999954 -3.55046E-5 -7.9999804
v -19.999962 -3.5444995E-5 -2.5432307E-6
v -19.999962 0.4855846 -2.5432307E-6
v -18.000015 0.24976842 -25.999958
v -28.000053 0.24976681 -18.195808
v -28.000051 0.24976681 -25.99996
v -18.000015 0.24976842 -18.195805
v -10.195867 0.24976978 -18.195805
v -10.195865 0.24976978 -25.999956
v -9.8041315 0.24976985 -18.195805
v -9.80413 0.24976985 -25.999958
v -1.9999793 0.24977122 -18.195803
v -1.9999778 0.24977122 -25.999956
v 8.000057 0.24977311 -25.99995
v 8.000056 0.24977311 -18.195799
v -28.000057 0.24976681 -9.999922
v -18.000015 0.24976842 -17.80407
v -18.000017 0.24976842 -9.999917
v -28.000053 0.24976681 -17.804073
v -10.195867 0.24976978 -9.999916
v -10.195865 0.24976978 -17.80407
v -9.804132 0.24976985 -9.999916
v -9.80413 0.24976985 -17.80407
v -1.9999802 0.24977122 -9.999915
v -1.9999788 0.24977122 -17.80407
v 8.000057 0.24977311 -17.804064
v 8.000057 0.24977311 -9.999912
v -18.000017 0.24976842 -9.999917
v -10.195866 0.24976979 -8.896611
v -18.000017 0.24976844 -8.896611
v -10.195867 0.24976978 -9.999916
v -10.195869 0.24976993 1.2314864E-4
v -18.000023 0.24976857 1.2178411E-4
v -1.9999803 0.24977124 -8.89661
v -9.804132 0.24976985 -9.999916
v -1.9999802 0.24977122 -9.999915
v -9.8041315 0.24976987 -8.896611
v -1.9999824 0.24977137 1.2553533E-4
v -9.8041315 0.24976987 -8.896611
v -1.9999803 0.24977124 -8.89661
v -9.804134 0.24977 1.241708E-4
vn -0.0 1.0 0.0
vn -0.0 1.0 0.0
vn -0.0 1.0 0.0
vn -0.0 1.0 0.0
vn -0.0 1.0 0.0
vn -0.0 1.0 0.0
vn -0.0 1.0 0.0
vn -0.0 1.0 0.0
vn -0.0 1.0 0.0
vn -0.0 1.0 0.0
vn -0.0 1.0 0.0
vn -0.0 1.0 0.0
vn -0.0 1.0 0.0
vn -0.0 1.0 0.0
vn -0.0 1.0 0.0
vn -0.0 1.0 0.0
vn -0.0 1.0 0.0
vn -0.0 1.0 0.0
vn -0.0 1.0 0.0
vn -0.0 1.0 0.0
vn -0.0 1.0 0.0
vn -0.0 1.0 0.0
vn -0.0 1.0 0.0
vn -0.0 1.0 0.0
vn -1.0 0.0 0.0
vn -1.0 -1.6215035E-5 0.0
vn -1.0 0.0 0.0
vn -1.0 -1.6351541E-5 0.0
vn -0.70699215 -3.678369E-4 -0.70722127
vn -0.7072208 -3.675293E-4 -0.7069927
vn 1.0 0.0 0.0
vn 1.0 0.0 0.0
vn 1.0 0.0 0.0
vn 1.0 0.0 0.0
vn 0.7071066 0.0 0.7071069
vn 0.70710653 0.0 0.70710695
vn -0.0 1.0 0.0
vn -0.0 1.0 0.0
vn -0.0 1.0 0.0
vn -0.0 1.0 0.0
vn -0.0 -5.136057E-4 -0.9999999
vn -0.70699215 -3.678369E-4 -0.70722127
vn -0.7072208 -3.675293E-4 -0.7069927
vn -0.0 -5.136057E-4 -0.9999999
vn -0.0 0.0 1.0
vn 0.7071066 0.0 0.7071069
vn 0.70710653 0.0 0.70710695
vn -0.0 0.0 1.0
vn -0.0 1.0 0.0
vn -0.0 1.0 0.0
vn -0.0 1.0 0.0
vn -0.0 1.0 0.0
vn -0.0 1.0 0.0
vn -0.0 1.0 0.0
vn -0.0 1.0 0.0
vn -0.0 1.0 0.0
vn -0.0 -1.4830446E-5 1.0
vn -0.0 0.0 1.0
vn -0.0 -1.6176558E-5 1.0
vn -0.0 0.0 1.0
vn -0.0 -1.617656E-5 1.0
vn -0.0 -1.6176558E-5 1.0
vn -0.0 0.0 1.0
vn -0.0 0.0 1.0
vn -0.0 0.0 -1.0
vn -0.0 0.0 -1.0
vn -0.0 0.0 -1.0
vn -0.0 0.0 -1.0
vn -0.0 0.0 -1.0
vn -0.0 0.0 -1.0
vn -0.0 0.0 -1.0
vn -0.0 0.0 -1.0
vn -0.0 1.0 0.0
vn -0.0 1.0 0.0
vn -0.0 1.0 0.0
vn -0.0 1.0 0.0
vn 0.70722324 -3.509572E-4 -0.70699024
vn -0.0 -5.214512E-4 -0.9999999
vn -0.0 -5.2169396E-4 -0.9999999
vn 0.70699215 -3.5167095E-4 -0.7072214
vn -0.70710725 0.0 0.7071063
vn -0.0 0.0 1.0
vn -0.0 0.0 1.0
vn -0.7071071 0.0 0.7071064
vn -0.0 1.0 0.0
vn -0.0 1.0 0.0
vn -0.0 1.0 0.0
vn -0.0 1.0 0.0
vn -0.0 1.0 0.0
vn -0.0 1.0 0.0
vn 1.0 1.5809392E-5 0.0
vn 0.70722324 -3.509572E-4 -0.70699024
vn 1.0 1.6351514E-5 0.0
vn 0.70699215 -3.5167095E-4 -0.7072214
vn 1.0 1.635163E-5 0.0
vn 1.0 1.6351629E-5 0.0
vn -1.0 0.0 0.0
vn -0.70710725 0.0 0.7071063
vn -1.0 0.0 0.0
vn -0.7071071 0.0 0.7071064
vn -1.0 0.0 0.0
vn -1.0 0.0 0.0
vn -0.0 1.0 0.0
vn -0.0 1.0 0.0
vn -0.0 1.0 0.0
vn -0.0 1.0 0.0
vn -0.0 1.0 0.0
vn -0.0 1.0 0.0
vn -0.0 1.0 0.0
vn -0.0 1.0 0.0
vn -0.0 1.0 0.0
vn -0.0 1.0 0.0
vn -0.0 1.0 0.0
vn -0.0 1.0 0.0
vn -0.0 1.0 0.0
vn -0.0 1.0 0.0
vn -0.0 1.0 0.0
vn -0.0 1.0 0.0
vn -0.0 1.0 0.0
vn -0.0 1.0 0.0
vn -0.0 1.0 0.0
vn -0.0 1.0 0.0
vn -0.0 1.0 0.0
vn -0.0 1.0 0.0
vn -0.0 1.0 0.0
vn -0.0 1.0 0.0
vn -0.0 1.0 0.0
vn -0.0 1.0 0.0
vn -0.0 1.0 0.0
vn -0.0 1.0 0.0
vn -0.0 1.0 0.0
vn -0.0 1.0 0.0
vn -0.0 1.0 0.0
vn -0.0 1.0 0.0
vn -0.0 1.0 0.0
vn -0.0 1.0 0.0
vn -0.0 1.0 0.0
vn -0.0 1.0 0.0
vn -0.0 1.0 0.0
vn -0.0 1.0 0.0
vt 0.7277777 0.44237924
vt 1.0 0.43171537
vt 1.0 0.44237924
vt 0.7277777 0.43171537
vt 0.515332 0.43171537
vt 0.515332 0.44237924
vt 0.5046681 0.43171537
vt 0.5046681 0.44237924
vt 0.2922225 0.43171537
vt 0.2922225 0.44237924
vt 0.02000022 0.44237918
vt 0.0200001 0.4317153
vt 0.53901935 0.43185735
vt 0.50898504 0.4425212
vt 0.50898504 0.43185735
vt 0.53901935 0.4425212
vt 0.26679683 0.44252115
vt 0.26679695 0.4318573
vt 0.48953113 0.80851686
vt 0.3049247 0.75558454
vt 0.5521373 0.7555846
vt 0.3049247 0.80921555
vt 0.52431375 0.80851686
vt 0.56032264 0.7555846
vt 0.58729804 0.7564854
vt 0.31996065 0.7503836
vt 0.58729804 0.7503836
vt 0.31996065 0.7564854
vt 0.623796 0.7564854
vt 0.623796 0.7503836
vt 0.53382915 0.8114015
vt 0.31996065 0.80529976
vt 0.53382915 0.80529976
vt 0.31996065 0.8114015
vt 0.5630273 0.8114015
vt 0.5630273 0.80529976
vt 0.31996065 0.7564854
vt 0.5630439 0.80529976
vt 0.62381256 0.7564854
vt 0.31996065 0.80529976
vt 0.31996065 0.7503836
vt 0.62381256 0.7564854
vt 0.62381256 0.7503836
vt 0.31996065 0.7564854
vt 0.31996065 0.80529976
vt 0.5630439 0.8114015
vt 0.5630439 0.80529976
vt 0.31996065 0.8114015
vt 0.54105467 0.75027037
vt 0.5211931 0.7776922
vt 0.5410547 0.7776922
vt 0.521193 0.75027037
vt 0.936739 0.75027037
vt 0.936739 0.7776922
vt 0.12550876 0.7776922
vt 0.12550873 0.75027037
vt 0.5410547 0.7776922
vt 0.5211931 0.7811199
vt 0.5410547 0.7811199
vt 0.5211931 0.7776922
vt 0.936739 0.7776922
vt 0.936739 0.7811199
vt 0.12550876 0.7811199
vt 0.12550876 0.7776922
vt 0.5410547 0.8085418
vt 0.52119315 0.8119695
vt 0.5410547 0.8119695
vt 0.52119315 0.8085418
vt 0.9367391 0.8085418
vt 0.9367391 0.8119695
vt 0.12550879 0.8119695
vt 0.12550879 0.8085418
vt 0.623796 0.7564854
vt 0.31996065 0.80529976
vt 0.31996065 0.7564854
vt 0.5630273 0.80529976
vt 0.623796 0.7503836
vt 0.31996065 0.7564854
vt 0.31996065 0.7503836
vt 0.623796 0.7564854
vt 0.5630273 0.80529976
vt 0.31996065 0.8114015
vt 0.31996065 0.80529976
vt 0.5630273 0.8114015
vt 0.52431375 0.80851686
vt 0.5521373 0.7555846
vt 0.48953113 0.80851686
vt 0.56032264 0.7555846
vt 0.3049247 0.75558454
vt 0.3049247 0.80921555
vt 0.5873126 0.7564854
vt 0.62381256 0.7503836
vt 0.5873126 0.7503836
vt 0.62381256 0.7564854
vt 0.31996065 0.7564854
vt 0.31996065 0.7503836
vt 0.5338437 0.8114015
vt 0.5630439 0.80529976
vt 0.5338437 0.80529976
vt 0.5630439 0.8114015
vt 0.31996065 0.8114015
vt 0.31996065 0.80529976
vt 0.6062164 0.122167826
vt 0.7463252 0.0
vt 0.7463252 0.12216771
vt 0.6062164 0.0
vt 0.49687368 0.0
vt 0.49687368 0.122167826
vt 0.49138516 0.0
vt 0.49138516 0.122167826
vt 0.38204247 0.0
vt 0.38204247 0.122167826
vt 0.24193364 0.12216771
vt 0.24193364 0.0
vt 0.7463252 0.0
vt 0.6062164 0.12216771
vt 0.6062164 -1.1920929E-7
vt 0.7463252 0.12216771
vt 0.49687368 -1.1920929E-7
vt 0.49687368 0.12216771
vt 0.49138516 -1.1920929E-7
vt 0.49138516 0.12216771
vt 0.38204247 0.0
vt 0.38204247 0.12216771
vt 0.24193358 0.12216765
vt 0.24193358 -1.1920929E-7
vt 0.7574769 0.0
vt 0.7373539 0.12216771
vt 0.7373539 0.0
vt 0.7574769 0.12216771
vt 0.63260734 0.12216771
vt 0.63260734 0.0
vt 0.41562986 0.7478702
vt 0.44566417 0.62662494
vt 0.44566417 0.7478702
vt 0.41562986 0.62662494
vt 0.25522804 0.12427223
vt 0.3640175 0.0030269623
vt 0.3640175 0.12427223
vt 0.25522804 0.003026843

g Two_Lane_01
s 1
usemtl Two_Lane_01
f 3/3/3 2/2/2 1/1/1 
f 4/4/4 1/1/1 2/2/2 
f 4/4/4 5/5/5 1/1/1 
f 6/6/6 1/1/1 5/5/5 
f 5/5/5 7/7/7 6/6/6 
f 8/8/8 6/6/6 7/7/7 
f 7/7/7 9/9/9 8/8/8 
f 10/10/10 8/8/8 9/9/9 
f 10/10/10 9/9/9 11/11/11 
f 12/12/12 11/11/11 9/9/9 
f 15/15/15 14/14/14 13/13/13 
f 16/16/16 13/13/13 14/14/14 
f 14/14/14 15/15/15 17/17/17 
f 18/18/18 17/17/17 15/15/15 
f 21/21/21 20/20/20 19/19/19 
f 22/22/22 19/19/19 20/20/20 
f 19/19/19 23/23/23 21/21/21 
f 24/24/24 21/21/21 23/23/23 
f 27/27/27 26/26/26 25/25/25 
f 28/28/28 25/25/25 26/26/26 
f 25/25/25 29/29/29 27/27/27 
f 30/30/30 27/27/27 29/29/29 
f 33/33/33 32/32/32 31/31/31 
f 34/34/34 31/31/31 32/32/32 
f 31/31/31 35/35/35 33/33/33 
f 36/36/36 33/33/33 35/35/35 
f 39/39/39 38/38/38 37/37/37 
f 40/40/40 37/37/37 38/38/38 
f 43/43/43 42/42/42 41/41/41 
f 44/44/44 41/41/41 42/42/42 
f 47/47/47 46/46/46 45/45/45 
f 48/48/48 45/45/45 46/46/46 
f 51/51/51 50/50/50 49/49/49 
f 52/52/52 49/49/49 50/50/50 
f 49/49/49 53/53/53 51/51/51 
f 54/54/54 51/51/51 53/53/53 
f 50/50/50 55/55/55 52/52/52 
f 56/56/56 52/52/52 55/55/55 
f 59/59/59 58/58/58 57/57/57 
f 60/60/60 57/57/57 58/58/58 
f 57/57/57 61/61/61 59/59/59 
f 62/62/62 59/59/59 61/61/61 
f 58/58/58 63/63/63 60/60/60 
f 64/64/64 60/60/60 63/63/63 
f 67/67/67 66/66/66 65/65/65 
f 68/68/68 65/65/65 66/66/66 
f 65/65/65 69/69/69 67/67/67 
f 70/70/70 67/67/67 69/69/69 
f 66/66/66 71/71/71 68/68/68 
f 72/72/72 68/68/68 71/71/71 
f 75/75/75 74/74/74 73/73/73 
f 76/76/76 73/73/73 74/74/74 
f 79/79/79 78/78/78 77/77/77 
f 80/80/80 77/77/77 78/78/78 
f 83/83/83 82/82/82 81/81/81 
f 84/84/84 81/81/81 82/82/82 
f 87/87/87 86/86/86 85/85/85 
f 88/88/88 85/85/85 86/86/86 
f 86/86/86 87/87/87 89/89/89 
f 90/90/90 89/89/89 87/87/87 
f 93/93/93 92/92/92 91/91/91 
f 94/94/94 91/91/91 92/92/92 
f 91/91/91 95/95/95 93/93/93 
f 96/96/96 93/93/93 95/95/95 
f 99/99/99 98/98/98 97/97/97 
f 100/100/100 97/97/97 98/98/98 
f 97/97/97 101/101/101 99/99/99 
f 102/102/102 99/99/99 101/101/101 
f 105/105/105 104/104/104 103/103/103 
f 106/106/106 103/103/103 104/104/104 
f 106/106/106 107/107/107 103/103/103 
f 108/108/108 103/103/103 107/107/107 
f 107/107/107 109/109/109 108/108/108 
f 110/110/110 108/108/108 109/109/109 
f 109/109/109 111/111/111 110/110/110 
f 112/112/112 110/110/110 111/111/111 
f 112/112/112 111/111/111 113/113/113 
f 114/114/114 113/113/113 111/111/111 
f 117/117/117 116/116/116 115/115/115 
f 118/118/118 115/115/115 116/116/116 
f 117/117/117 119/119/119 116/116/116 
f 120/120/120 116/116/116 119/119/119 
f 119/119/119 121/121/121 120/120/120 
f 122/122/122 120/120/120 121/121/121 
f 121/121/121 123/123/123 122/122/122 
f 124/124/124 122/122/122 123/123/123 
f 124/124/124 123/123/123 125/125/125 
f 126/126/126 125/125/125 123/123/123 
f 129/129/129 128/128/128 127/127/127 
f 130/130/130 127/127/127 128/128/128 
f 128/128/128 129/129/129 131/131/131 
f 132/132/132 131/131/131 129/129/129 
f 135/135/135 134/134/134 133/133/133 
f 136/136/136 133/133/133 134/134/134 
f 139/139/139 138/138/138 137/137/137 
f 140/140/140 137/137/137 138/138/138 

