# Created by DisUnity v0.3.4
v -12.000016 0.2498015 -18.000078
v -14.829746 0.24980095 -9.999911
v -14.829745 0.24980095 -18.000078
v -12.000017 0.2498015 -8.000038
v -12.000017 0.2498015 -8.000038
v -1.886572 0.24980322 -5.2835865
v -10.11342 0.24980177 -5.2835836
v 2.1859092E-5 0.24980363 -8.000037
v -1.886572 0.24980322 -5.2835865
v 2.1859092E-5 0.24980363 -8.000037
v 2.8297536 0.24980403 -9.999915
v -14.829746 0.24980095 -9.999911
v -12.000017 0.2498015 -8.000038
v -10.11342 0.24980177 -5.2835836
v -20.00005 0.24980022 -18.00008
v -14.829746 0.24980095 -9.999911
v -20.000051 0.24980022 -9.999913
v -14.829745 0.24980095 -18.000078
v -10.113419 0.24980195 1.2793142E-4
v -1.886572 0.24980322 -5.2835865
v -1.8865719 0.2498034 1.2174046E-4
v -10.11342 0.24980177 -5.2835836
v 8.000051 0.24980487 -18.000076
v 2.8297536 0.24980403 -9.999915
v 2.8297503 0.24980403 -18.000076
v 8.000059 0.249805 -9.999917
v 2.3130717E-5 0.24980363 -18.000076
v 2.8297536 0.24980403 -9.999915
v 2.1859092E-5 0.24980363 -8.000037
v 2.8297503 0.24980403 -18.000076
v 2.1859092E-5 0.24980363 -8.000037
v -12.000016 0.2498015 -18.000078
v 2.3130717E-5 0.24980363 -18.000076
v -12.000017 0.2498015 -8.000038
v 8.00005 0.4856212 -19.999887
v -20.00005 0.4856166 -18.000078
v -20.00005 0.4856166 -19.99989
v 8.000049 0.4856212 -18.000076
v -20.00005 0.4856166 -18.000078
v 8.000051 0.24980487 -18.000076
v -20.00005 0.24980022 -18.00008
v 8.000049 0.4856212 -18.000076
v 8.00005 1.2795639E-6 -19.999887
v -20.00005 0.4856166 -19.99989
v -20.00005 -3.3777108E-6 -19.99989
v 8.00005 0.4856212 -19.999887
v -14.829746 0.4856173 -10.000027
v -20.000051 0.4856166 -7.9999714
v -20.000051 0.4856166 -10.000029
v -14.938216 0.48561728 -7.99997
v -13.749072 0.48561722 -9.875341
v -14.180594 0.48561722 -7.912558
v -12.75665 0.4856174 -9.520241
v -13.591064 0.48561734 -7.815148
v -11.880908 0.48561755 -8.9631605
v -13.068355 0.48561743 -7.4826465
v -11.150281 0.4856177 -8.2325325
v -12.630793 0.48561752 -7.0450845
v -10.5932 0.4856178 -7.3567915
v -12.298293 0.48561758 -6.522376
v -10.238101 0.48561785 -6.3643684
v -12.087358 0.48561758 -5.932845
v -10.113419 0.48561814 -5.283699
v -11.9999485 0.48561782 -5.175227
v -10.113419 0.48561832 1.3490502E-5
v -11.9999485 0.485618 1.5068E-5
v -14.829746 0.24980095 -9.999911
v -20.000051 0.4856166 -10.000029
v -20.000051 0.24980022 -9.999913
v -14.829746 0.4856173 -10.000027
v -13.749072 0.24980088 -9.875341
v -13.749072 0.48561722 -9.875341
v -12.75665 0.24980104 -9.520241
v -12.75665 0.4856174 -9.520241
v -11.880908 0.2498012 -8.9631605
v -11.880908 0.48561755 -8.9631605
v -11.150281 0.24980132 -8.2325325
v -11.150281 0.4856177 -8.2325325
v -10.5932 0.24980143 -7.3567915
v -10.5932 0.4856178 -7.3567915
v -10.238101 0.24980149 -6.3643684
v -10.238101 0.48561785 -6.3643684
v -10.11342 0.24980177 -5.2835836
v -10.113419 0.48561814 -5.283699
v -10.113419 0.24980195 1.2793142E-4
v -10.113419 0.48561832 1.3490502E-5
v -14.938216 0.48561728 -7.99997
v -20.000051 -4.0929667E-6 -7.9999704
v -20.000051 0.4856166 -7.9999714
v -14.938218 -3.2079276E-6 -7.99997
v -14.180594 0.48561722 -7.912558
v -14.180596 -3.3138795E-6 -7.9125576
v -13.591064 0.48561734 -7.815148
v -13.591066 -3.2108028E-6 -7.815148
v -13.068355 0.48561743 -7.4826465
v -13.068355 -3.1194088E-6 -7.4826465
v -12.630793 0.48561752 -7.0450845
v -13.068355 -3.1194088E-6 -7.4826465
v -12.630793 0.48561752 -7.0450845
v -12.630793 -3.042903E-6 -7.045084
v -12.298293 0.48561758 -6.522376
v -12.298293 -2.984767E-6 -6.522376
v -12.087358 0.48561758 -5.932845
v -12.087359 -2.9478863E-6 -5.932844
v -11.9999485 0.48561782 -5.175227
v -11.9999485 -2.6941843E-6 -5.175227
v -11.9999485 0.485618 1.5068E-5
v -11.9999485 -2.6941843E-6 1.5068E-5
v -1.8865691 0.48561957 -5.283707
v -3.7278205E-5 0.48562008 -6.503054E-12
v -1.8865682 0.48561975 6.238162E-7
v -3.8280687E-5 0.4856199 -5.1752386
v -1.7618841 0.48561934 -6.3643813
v 0.0873723 0.48561972 -5.9328604
v -1.4067848 0.4856194 -7.3568044
v 0.29830846 0.48561978 -6.5223904
v -0.8497053 0.4856195 -8.232546
v 0.63080996 0.48561984 -7.045101
v -0.119078584 0.4856196 -8.963174
v 1.0683725 0.4856199 -7.4826627
v 0.7566635 0.48561975 -9.520255
v 1.5910801 0.48562 -7.8151627
v 1.7490871 0.48561993 -9.875355
v 2.18061 0.48562008 -7.912573
v 2.8297565 0.4856204 -10.000037
v 2.9382281 0.4856204 -7.999982
v 8.000065 0.48562148 -10.000041
v 8.000068 0.48562148 -7.9999843
v -1.886572 0.24980322 -5.2835865
v -1.8865682 0.48561975 6.238162E-7
v -1.8865719 0.2498034 1.2174046E-4
v -1.8865691 0.48561957 -5.283707
v -1.7618841 0.24980296 -6.3643813
v -1.7618841 0.48561934 -6.3643813
v -1.4067848 0.24980302 -7.3568044
v -1.4067848 0.4856194 -7.3568044
v -0.8497053 0.24980313 -8.232546
v -0.8497053 0.4856195 -8.232546
v -0.11907855 0.24980326 -8.963174
v -0.119078584 0.4856196 -8.963174
v 0.7566635 0.24980341 -9.520255
v 0.7566635 0.48561975 -9.520255
v 1.7490871 0.24980359 -9.875355
v 1.7490871 0.48561993 -9.875355
v 2.8297536 0.24980403 -9.999915
v 2.8297565 0.4856204 -10.000037
v 8.000059 0.249805 -9.999917
v 8.000065 0.48562148 -10.000041
v -3.8280687E-5 0.4856199 -5.1752386
v -3.71933E-5 -5.960529E-7 -6.503084E-12
v -3.7278205E-5 0.48562008 -6.503054E-12
v -3.819578E-5 -5.960531E-7 -5.1752386
v 0.0873723 0.48561972 -5.9328604
v 0.08737143 -8.1918853E-7 -5.9328613
v 0.29830846 0.48561978 -6.5223904
v 0.2983076 -7.8230727E-7 -6.5223904
v 0.63080996 0.48561984 -7.045101
v 0.6308101 -7.2417066E-7 -7.0451016
v 1.0683725 0.4856199 -7.4826627
v 0.6308101 -7.2417066E-7 -7.0451016
v 1.0683725 0.4856199 -7.4826627
v 1.0683726 -6.476648E-7 -7.4826627
v 1.5910801 0.48562 -7.8151627
v 1.5910782 -5.56272E-7 -7.8151627
v 2.18061 0.48562008 -7.912573
v 2.1806083 -4.5319536E-7 -7.9125733
v 2.9382281 0.4856204 -7.999982
v 2.9382262 -8.231062E-8 -7.999982
v 8.000068 0.48562148 -7.9999843
v 8.000068 8.0273E-7 -7.9999847
vn -0.0 1.0 0.0
vn -0.0 1.0 0.0
vn -0.0 1.0 0.0
vn -0.0 1.0 0.0
vn -0.0 1.0 0.0
vn -0.0 1.0 0.0
vn -0.0 1.0 0.0
vn -0.0 1.0 0.0
vn -0.0 1.0 0.0
vn -0.0 1.0 0.0
vn -0.0 1.0 0.0
vn -0.0 1.0 0.0
vn -0.0 1.0 0.0
vn -0.0 1.0 0.0
vn -0.0 1.0 0.0
vn -0.0 1.0 0.0
vn -0.0 1.0 0.0
vn -0.0 1.0 0.0
vn -0.0 1.0 0.0
vn -0.0 1.0 0.0
vn -0.0 1.0 0.0
vn -0.0 1.0 0.0
vn -0.0 1.0 0.0
vn -0.0 1.0 0.0
vn -0.0 1.0 0.0
vn -0.0 1.0 0.0
vn -0.0 1.0 0.0
vn -0.0 1.0 0.0
vn -0.0 1.0 0.0
vn -0.0 1.0 0.0
vn -0.0 1.0 0.0
vn -0.0 1.0 0.0
vn -0.0 1.0 0.0
vn -0.0 1.0 0.0
vn -0.0 1.0 0.0
vn -0.0 1.0 0.0
vn -0.0 1.0 0.0
vn -0.0 1.0 0.0
vn -0.0 0.0 1.0
vn -0.0 0.0 1.0
vn -0.0 0.0 1.0
vn -0.0 0.0 1.0
vn -0.0 0.0 -1.0
vn -0.0 0.0 -1.0
vn -0.0 0.0 -1.0
vn -0.0 0.0 -1.0
vn -0.0 1.0 0.0
vn -0.0 1.0 0.0
vn -0.0 1.0 0.0
vn -0.0 1.0 0.0
vn -0.0 1.0 0.0
vn -0.0 1.0 0.0
vn -0.0 1.0 0.0
vn -0.0 1.0 0.0
vn -0.0 1.0 0.0
vn -0.0 1.0 0.0
vn -0.0 1.0 0.0
vn -0.0 1.0 0.0
vn -0.0 1.0 0.0
vn -0.0 1.0 0.0
vn -0.0 1.0 0.0
vn -0.0 1.0 0.0
vn -0.0 1.0 0.0
vn -0.0 1.0 0.0
vn -0.0 1.0 0.0
vn -0.0 1.0 0.0
vn 0.057351824 -4.885255E-4 -0.99835396
vn -0.0 -4.8934086E-4 -0.9999999
vn -0.0 -4.893409E-4 -0.9999999
vn 0.057356905 -4.5543854E-4 -0.9983536
vn 0.22723356 -3.3209682E-5 -0.97384036
vn 0.2272405 0.0 -0.9738386
vn 0.439541 0.0 -0.8982225
vn 0.43954098 0.0 -0.8982225
vn 0.6256609 0.0 -0.78009504
vn 0.62566096 0.0 -0.78009516
vn 0.780095 0.0 -0.6256611
vn 0.780095 0.0 -0.62566113
vn 0.8982226 0.0 -0.4395408
vn 0.8982226 0.0 -0.4395408
vn 0.97384053 0.0 -0.22723223
vn 0.9738404 0.0 -0.22723307
vn 0.99835217 -2.7853119E-5 -0.057383392
vn 0.99835014 -3.1903404E-5 -0.05741991
vn 1.0 0.0 0.0
vn 1.0 0.0 0.0
vn -0.05740309 0.0 0.9983511
vn -0.0 0.0 1.0
vn -0.0 0.0 1.0
vn -0.057402913 0.0 0.9983511
vn -0.13886166 0.0 0.99031174
vn -0.13886149 0.0 0.99031174
vn -0.35709137 0.0 0.93406945
vn -0.35709 0.0 0.93407
vn -0.62565696 0.0 0.7800983
vn -0.6256567 0.0 0.7800984
vn -0.7800987 0.0 0.6256564
vn -0.6256567 0.0 0.7800984
vn -0.7800987 0.0 0.6256564
vn -0.78009886 0.0 0.6256563
vn -0.89822686 0.0 0.4395321
vn -0.898227 0.0 0.4395318
vn -0.97384024 0.0 0.22723417
vn -0.97384024 0.0 0.22723381
vn -0.9983511 0.0 0.057402216
vn -0.9983511 0.0 0.057402477
vn -1.0 0.0 0.0
vn -1.0 0.0 0.0
vn -0.0 1.0 0.0
vn -0.0 1.0 0.0
vn -0.0 1.0 0.0
vn -0.0 1.0 0.0
vn -0.0 1.0 0.0
vn -0.0 1.0 0.0
vn -0.0 1.0 0.0
vn -0.0 1.0 0.0
vn -0.0 1.0 0.0
vn -0.0 1.0 0.0
vn -0.0 1.0 0.0
vn -0.0 1.0 0.0
vn -0.0 1.0 0.0
vn -0.0 1.0 0.0
vn -0.0 1.0 0.0
vn -0.0 1.0 0.0
vn -0.0 1.0 0.0
vn -0.0 1.0 0.0
vn -0.0 1.0 0.0
vn -0.0 1.0 0.0
vn -0.9983524 -1.7358783E-5 -0.05737919
vn -1.0 1.5887008E-5 0.0
vn -1.0 1.6001806E-5 0.0
vn -0.99835026 -1.4265191E-5 -0.0574172
vn -0.973839 0.0 -0.22723934
vn -0.97383875 0.0 -0.22723995
vn -0.8982228 0.0 -0.4395404
vn -0.8982228 0.0 -0.43954033
vn -0.7800957 0.0 -0.62566024
vn -0.7800957 0.0 -0.62566024
vn -0.6256614 0.0 -0.7800948
vn -0.6256614 0.0 -0.7800948
vn -0.43954092 0.0 -0.8982226
vn -0.43954092 0.0 -0.8982226
vn -0.22718522 0.0 -0.9738515
vn -0.22719254 -3.5117846E-5 -0.97384983
vn -0.057396498 -4.8120407E-4 -0.99835134
vn -0.057400975 -5.1622745E-4 -0.9983511
vn -0.0 -5.255032E-4 -0.9999999
vn -0.0 -5.257378E-4 -0.9999999
vn 0.9983511 0.0 0.05740186
vn 1.0 0.0 0.0
vn 1.0 0.0 0.0
vn 0.9983512 0.0 0.057401635
vn 0.9738399 0.0 0.2272356
vn 0.97383976 0.0 0.22723566
vn 0.8982261 0.0 0.4395338
vn 0.898226 0.0 0.439534
vn 0.78009784 0.0 0.6256577
vn 0.78009754 0.0 0.6256579
vn 0.6256568 0.0 0.7800984
vn 0.78009754 0.0 0.6256579
vn 0.6256568 0.0 0.7800984
vn 0.625657 0.0 0.78009826
vn 0.35709122 0.0 0.9340696
vn 0.35709253 0.0 0.934069
vn 0.13885967 0.0 0.9903121
vn 0.13885984 0.0 0.990312
vn 0.057401054 0.0 0.9983512
vn 0.057401236 0.0 0.9983512
vn -0.0 0.0 1.0
vn -0.0 0.0 1.0
vt 0.20541342 0.7487682
vt 0.044503815 0.6272476
vt 0.20541345 0.62724745
vt 0.0042798305 0.7487682
vt 0.0018229266 0.6258457
vt 0.20523752 0.7491083
vt 0.03976861 0.74910855
vt 0.24318312 0.62584555
vt 0.09954284 0.7426908
vt 0.09954284 0.6330093
vt 0.2231141 0.6330093
vt 0.09156044 0.63319075
vt 0.20121937 0.63319075
vt 0.2012194 0.7424867
vt 0.34893787 0.6282382
vt 0.4411372 0.74852455
vt 0.34893787 0.74852455
vt 0.4411372 0.6282382
vt 0.34893787 0.6282382
vt 0.4411372 0.74852455
vt 0.34893787 0.74852455
vt 0.4411372 0.6282382
vt 0.41613162 0.74852455
vt 0.32393226 0.62823814
vt 0.32393226 0.74852455
vt 0.41613162 0.62823814
vt 0.20541345 0.62645936
vt 0.044503976 0.74798036
vt 0.0042798584 0.62645936
vt 0.20541345 0.7479801
vt 0.37776935 0.6236158
vt 0.49987513 0.50187874
vt 0.49987513 0.6236158
vt 0.37776935 0.50187874
vt 0.18787412 0.7503676
vt 0.93673676 0.77754563
vt 0.93673676 0.7503676
vt 0.18787415 0.77754563
vt 0.93673676 0.77754563
vt 0.18787415 0.7809429
vt 0.93673676 0.7809429
vt 0.18787415 0.77754563
vt 0.18787418 0.8081209
vt 0.9367368 0.8115182
vt 0.9367368 0.8081209
vt 0.18787418 0.8115182
vt 0.435021 0.7779745
vt 0.31320915 0.75081515
vt 0.31320918 0.7779745
vt 0.435021 0.75081515
vt 0.4631175 0.7779745
vt 0.4631175 0.75081515
vt 0.4903409 0.7779745
vt 0.49796513 0.75081515
vt 0.51714784 0.7779745
vt 0.51714784 0.75081515
vt 0.5438347 0.7779745
vt 0.5533072 0.75081515
vt 0.5706416 0.7779745
vt 0.5704105 0.75081515
vt 0.597865 0.7779745
vt 0.5978649 0.75081515
vt 0.62596136 0.7779745
vt 0.6259613 0.75081515
vt 0.74882483 0.7779745
vt 0.74882483 0.75081515
vt 0.435021 0.7813694
vt 0.31320918 0.7779745
vt 0.31320918 0.7813694
vt 0.435021 0.7779745
vt 0.4631175 0.7813694
vt 0.4631175 0.7779745
vt 0.4903409 0.7813694
vt 0.4903409 0.7779745
vt 0.51714784 0.7813694
vt 0.51714784 0.7779745
vt 0.5438347 0.7813694
vt 0.5438347 0.7779745
vt 0.5706416 0.7813694
vt 0.5706416 0.7779745
vt 0.597865 0.7813694
vt 0.597865 0.7779745
vt 0.62596136 0.7813694
vt 0.62596136 0.7779745
vt 0.74882483 0.7813694
vt 0.74882483 0.7779745
vt 0.43502104 0.81192356
vt 0.31320918 0.80852866
vt 0.31320918 0.81192356
vt 0.43502104 0.80852866
vt 0.4631175 0.81192356
vt 0.4631175 0.80852866
vt 0.49034098 0.81192356
vt 0.49034095 0.80852866
vt 0.51714784 0.81192356
vt 0.51714784 0.80852866
vt 0.5438347 0.81192356
vt 0.51714784 0.80852866
vt 0.5438347 0.81192356
vt 0.5438347 0.80852866
vt 0.5706416 0.81192356
vt 0.5706416 0.80852866
vt 0.597865 0.81192356
vt 0.597865 0.80852866
vt 0.62596136 0.81192356
vt 0.62596136 0.80852866
vt 0.74882483 0.81192356
vt 0.74882483 0.80852866
vt 0.435021 0.7779745
vt 0.31320915 0.75081515
vt 0.31320918 0.7779745
vt 0.435021 0.75081515
vt 0.4631175 0.7779745
vt 0.4631175 0.75081515
vt 0.4903409 0.7779745
vt 0.49796513 0.75081515
vt 0.51714784 0.7779745
vt 0.51714784 0.75081515
vt 0.5438347 0.7779745
vt 0.5533072 0.75081515
vt 0.5706416 0.7779745
vt 0.5704105 0.75081515
vt 0.597865 0.7779745
vt 0.5978649 0.75081515
vt 0.62596136 0.7779745
vt 0.6259613 0.75081515
vt 0.74882483 0.7779745
vt 0.74882483 0.75081515
vt 0.435021 0.7813694
vt 0.31320918 0.7779745
vt 0.31320918 0.7813694
vt 0.435021 0.7779745
vt 0.4631175 0.7813694
vt 0.4631175 0.7779745
vt 0.4903409 0.7813694
vt 0.4903409 0.7779745
vt 0.51714784 0.7813694
vt 0.51714784 0.7779745
vt 0.5438347 0.7813694
vt 0.5438347 0.7779745
vt 0.5706416 0.7813694
vt 0.5706416 0.7779745
vt 0.597865 0.7813694
vt 0.597865 0.7779745
vt 0.62596136 0.7813694
vt 0.62596136 0.7779745
vt 0.74882483 0.7813694
vt 0.74882483 0.7779745
vt 0.43502104 0.81192356
vt 0.31320918 0.80852866
vt 0.31320918 0.81192356
vt 0.43502104 0.80852866
vt 0.4631175 0.81192356
vt 0.4631175 0.80852866
vt 0.49034098 0.81192356
vt 0.49034095 0.80852866
vt 0.51714784 0.81192356
vt 0.51714784 0.80852866
vt 0.5438347 0.81192356
vt 0.51714784 0.80852866
vt 0.5438347 0.81192356
vt 0.5438347 0.80852866
vt 0.5706416 0.81192356
vt 0.5706416 0.80852866
vt 0.597865 0.81192356
vt 0.597865 0.80852866
vt 0.62596136 0.81192356
vt 0.62596136 0.80852866
vt 0.74882483 0.81192356
vt 0.74882483 0.80852866

g Two_Lane_11
s 1
usemtl Two_Lane_11
f 3/3/3 2/2/2 1/1/1 
f 4/4/4 1/1/1 2/2/2 
f 7/7/7 6/6/6 5/5/5 
f 8/8/8 5/5/5 6/6/6 
f 11/11/11 10/10/10 9/9/9 
f 14/14/14 13/13/13 12/12/12 
f 17/17/17 16/16/16 15/15/15 
f 18/18/18 15/15/15 16/16/16 
f 21/21/21 20/20/20 19/19/19 
f 22/22/22 19/19/19 20/20/20 
f 25/25/25 24/24/24 23/23/23 
f 26/26/26 23/23/23 24/24/24 
f 29/29/29 28/28/28 27/27/27 
f 30/30/30 27/27/27 28/28/28 
f 33/33/33 32/32/32 31/31/31 
f 34/34/34 31/31/31 32/32/32 
f 37/37/37 36/36/36 35/35/35 
f 38/38/38 35/35/35 36/36/36 
f 41/41/41 40/40/40 39/39/39 
f 42/42/42 39/39/39 40/40/40 
f 45/45/45 44/44/44 43/43/43 
f 46/46/46 43/43/43 44/44/44 
f 49/49/49 48/48/48 47/47/47 
f 50/50/50 47/47/47 48/48/48 
f 47/47/47 50/50/50 51/51/51 
f 52/52/52 51/51/51 50/50/50 
f 51/51/51 52/52/52 53/53/53 
f 54/54/54 53/53/53 52/52/52 
f 53/53/53 54/54/54 55/55/55 
f 56/56/56 55/55/55 54/54/54 
f 55/55/55 56/56/56 57/57/57 
f 58/58/58 57/57/57 56/56/56 
f 57/57/57 58/58/58 59/59/59 
f 60/60/60 59/59/59 58/58/58 
f 59/59/59 60/60/60 61/61/61 
f 62/62/62 61/61/61 60/60/60 
f 61/61/61 62/62/62 63/63/63 
f 64/64/64 63/63/63 62/62/62 
f 63/63/63 64/64/64 65/65/65 
f 66/66/66 65/65/65 64/64/64 
f 69/69/69 68/68/68 67/67/67 
f 70/70/70 67/67/67 68/68/68 
f 67/67/67 70/70/70 71/71/71 
f 72/72/72 71/71/71 70/70/70 
f 71/71/71 72/72/72 73/73/73 
f 74/74/74 73/73/73 72/72/72 
f 73/73/73 74/74/74 75/75/75 
f 76/76/76 75/75/75 74/74/74 
f 75/75/75 76/76/76 77/77/77 
f 78/78/78 77/77/77 76/76/76 
f 77/77/77 78/78/78 79/79/79 
f 80/80/80 79/79/79 78/78/78 
f 79/79/79 80/80/80 81/81/81 
f 82/82/82 81/81/81 80/80/80 
f 81/81/81 82/82/82 83/83/83 
f 84/84/84 83/83/83 82/82/82 
f 83/83/83 84/84/84 85/85/85 
f 86/86/86 85/85/85 84/84/84 
f 89/89/89 88/88/88 87/87/87 
f 90/90/90 87/87/87 88/88/88 
f 87/87/87 90/90/90 91/91/91 
f 92/92/92 91/91/91 90/90/90 
f 91/91/91 92/92/92 93/93/93 
f 94/94/94 93/93/93 92/92/92 
f 93/93/93 94/94/94 95/95/95 
f 96/96/96 95/95/95 94/94/94 
f 95/95/95 96/96/96 97/97/97 
f 100/100/100 99/99/99 98/98/98 
f 99/99/99 100/100/100 101/101/101 
f 102/102/102 101/101/101 100/100/100 
f 101/101/101 102/102/102 103/103/103 
f 104/104/104 103/103/103 102/102/102 
f 103/103/103 104/104/104 105/105/105 
f 106/106/106 105/105/105 104/104/104 
f 105/105/105 106/106/106 107/107/107 
f 108/108/108 107/107/107 106/106/106 
f 111/111/111 110/110/110 109/109/109 
f 112/112/112 109/109/109 110/110/110 
f 109/109/109 112/112/112 113/113/113 
f 114/114/114 113/113/113 112/112/112 
f 113/113/113 114/114/114 115/115/115 
f 116/116/116 115/115/115 114/114/114 
f 115/115/115 116/116/116 117/117/117 
f 118/118/118 117/117/117 116/116/116 
f 117/117/117 118/118/118 119/119/119 
f 120/120/120 119/119/119 118/118/118 
f 119/119/119 120/120/120 121/121/121 
f 122/122/122 121/121/121 120/120/120 
f 121/121/121 122/122/122 123/123/123 
f 124/124/124 123/123/123 122/122/122 
f 123/123/123 124/124/124 125/125/125 
f 126/126/126 125/125/125 124/124/124 
f 125/125/125 126/126/126 127/127/127 
f 128/128/128 127/127/127 126/126/126 
f 131/131/131 130/130/130 129/129/129 
f 132/132/132 129/129/129 130/130/130 
f 129/129/129 132/132/132 133/133/133 
f 134/134/134 133/133/133 132/132/132 
f 133/133/133 134/134/134 135/135/135 
f 136/136/136 135/135/135 134/134/134 
f 135/135/135 136/136/136 137/137/137 
f 138/138/138 137/137/137 136/136/136 
f 137/137/137 138/138/138 139/139/139 
f 140/140/140 139/139/139 138/138/138 
f 139/139/139 140/140/140 141/141/141 
f 142/142/142 141/141/141 140/140/140 
f 141/141/141 142/142/142 143/143/143 
f 144/144/144 143/143/143 142/142/142 
f 143/143/143 144/144/144 145/145/145 
f 146/146/146 145/145/145 144/144/144 
f 145/145/145 146/146/146 147/147/147 
f 148/148/148 147/147/147 146/146/146 
f 151/151/151 150/150/150 149/149/149 
f 152/152/152 149/149/149 150/150/150 
f 149/149/149 152/152/152 153/153/153 
f 154/154/154 153/153/153 152/152/152 
f 153/153/153 154/154/154 155/155/155 
f 156/156/156 155/155/155 154/154/154 
f 155/155/155 156/156/156 157/157/157 
f 158/158/158 157/157/157 156/156/156 
f 157/157/157 158/158/158 159/159/159 
f 162/162/162 161/161/161 160/160/160 
f 161/161/161 162/162/162 163/163/163 
f 164/164/164 163/163/163 162/162/162 
f 163/163/163 164/164/164 165/165/165 
f 166/166/166 165/165/165 164/164/164 
f 165/165/165 166/166/166 167/167/167 
f 168/168/168 167/167/167 166/166/166 
f 167/167/167 168/168/168 169/169/169 
f 170/170/170 169/169/169 168/168/168 

