# Created by DisUnity v0.3.4
v -3.528595E-5 0.48564893 -4.0000157
v -1.9999695 0.48564893 3.33786E-6
v -1.9999695 0.48564893 -4.0000153
v -3.528595E-5 0.48564893 2.861023E-6
v -1.9999695 0.48564893 -4.0000153
v -1.99997 0.24983257 3.8146973E-6
v -1.9999695 0.24983257 -4.000015
v -1.9999695 0.48564893 3.33786E-6
v -3.528595E-5 2.9206276E-5 -4.0000157
v -3.528595E-5 0.48564893 2.861023E-6
v -3.528595E-5 0.48564893 -4.0000157
v -3.528595E-5 2.9206276E-5 2.861023E-6
v -10.000007 0.48564893 -4.0000157
v -11.999941 0.48564893 3.8146973E-6
v -11.999941 0.48564893 -4.000015
v -10.000008 0.48564893 3.33786E-6
v -11.999941 0.48564893 -4.000015
v -11.999941 2.9206276E-5 3.8146973E-6
v -11.999941 2.9206276E-5 -4.000015
v -11.999941 0.48564893 3.8146973E-6
v -10.000007 0.24983257 -4.0000157
v -10.000008 0.48564893 3.33786E-6
v -10.000007 0.48564893 -4.0000157
v -10.000008 0.24983257 2.861023E-6
v -1.99997 0.24983257 3.8146973E-6
v -10.000007 0.24983257 -4.0000157
v -1.9999695 0.24983257 -4.000015
v -10.000008 0.24983257 2.861023E-6
vn -0.0 1.0 0.0
vn -0.0 1.0 0.0
vn -0.0 1.0 0.0
vn -0.0 1.0 0.0
vn -1.0 0.0 0.0
vn -1.0 0.0 0.0
vn -1.0 0.0 0.0
vn -1.0 0.0 0.0
vn 1.0 0.0 0.0
vn 1.0 0.0 0.0
vn 1.0 0.0 0.0
vn 1.0 0.0 0.0
vn -0.0 1.0 0.0
vn -0.0 1.0 0.0
vn -0.0 1.0 0.0
vn -0.0 1.0 0.0
vn -1.0 0.0 0.0
vn -1.0 0.0 0.0
vn -1.0 0.0 0.0
vn -1.0 0.0 0.0
vn 1.0 0.0 0.0
vn 1.0 0.0 0.0
vn 1.0 0.0 0.0
vn 1.0 0.0 0.0
vn -0.0 1.0 0.0
vn -0.0 1.0 0.0
vn -0.0 1.0 0.0
vn -0.0 1.0 0.0
vt 0.50504553 0.751142
vt 0.3788096 0.7779535
vt 0.50504553 0.7779535
vt 0.3788096 0.751142
vt 0.50504553 0.7779535
vt 0.3788096 0.78130496
vt 0.50504553 0.78130496
vt 0.3788096 0.7779535
vt 0.5050456 0.80811644
vt 0.37880963 0.8114679
vt 0.5050456 0.8114679
vt 0.37880963 0.80811644
vt 0.50504553 0.751142
vt 0.3788096 0.7779535
vt 0.50504553 0.7779535
vt 0.3788096 0.751142
vt 0.50504553 0.7779535
vt 0.3788096 0.78130496
vt 0.50504553 0.78130496
vt 0.3788096 0.7779535
vt 0.5050456 0.80811644
vt 0.37880963 0.8114679
vt 0.5050456 0.8114679
vt 0.37880963 0.80811644
vt 0.37776935 0.5917009
vt 0.43882224 0.46996385
vt 0.43882224 0.5917009
vt 0.37776935 0.46996385

g Two_Lane_29
s 1
usemtl Two_Lane_29
f 3/3/3 2/2/2 1/1/1 
f 4/4/4 1/1/1 2/2/2 
f 7/7/7 6/6/6 5/5/5 
f 8/8/8 5/5/5 6/6/6 
f 11/11/11 10/10/10 9/9/9 
f 12/12/12 9/9/9 10/10/10 
f 15/15/15 14/14/14 13/13/13 
f 16/16/16 13/13/13 14/14/14 
f 19/19/19 18/18/18 17/17/17 
f 20/20/20 17/17/17 18/18/18 
f 23/23/23 22/22/22 21/21/21 
f 24/24/24 21/21/21 22/22/22 
f 27/27/27 26/26/26 25/25/25 
f 28/28/28 25/25/25 26/26/26 

