# Created by DisUnity v0.3.4
v -24.000164 0.24984482 -10.000031
v -31.984856 0.24984482 -1.9999876
v -31.984982 0.24984452 -10.000023
v -24.000038 0.24984482 -1.9999943
v -24.000168 0.24984482 -14.000055
v -31.984982 0.24984452 -10.000023
v -31.98499 0.24984415 -14.000048
v -24.000164 0.24984482 -10.000031
v -40.000187 0.24984446 -10.000023
v -35.132103 0.24984348 -13.763763
v -37.590183 0.24984348 -13.209307
v -40.000187 0.24984348 -12.358191
v -41.86911 0.24984348 -11.224587
v -43.903076 0.24984348 -10.351644
v -48.0002 0.24984415 -10.000022
v -31.984982 0.24984452 -10.000023
v -40.000057 0.24984482 -1.9999857
v -40.000187 0.24984446 -10.000023
v -31.984856 0.24984482 -1.9999876
v -40.000187 0.24984446 -10.000023
v -48.000076 0.24984482 -1.9999847
v -48.0002 0.24984415 -10.000022
v -40.000057 0.24984482 -1.9999857
v -24.000164 0.24984482 -10.000031
v -16.015099 0.24984482 -1.999999
v -24.000038 0.24984482 -1.9999943
v -16.01522 0.24984452 -10.000035
v -24.000168 0.24984482 -14.000055
v -16.01522 0.24984452 -10.000035
v -24.000164 0.24984482 -10.000031
v -16.015226 0.24984415 -14.000059
v -8.000143 0.24984446 -10.000046
v -12.868227 0.24984348 -13.763781
v -10.327749 0.24984348 -13.160011
v -8.000145 0.24984348 -12.358214
v -6.131216 0.24984348 -11.224614
v -4.097252 0.24984348 -10.351674
v -7.247925E-5 0.24984415 -10.000057
v -16.01522 0.24984452 -10.000035
v -8.000018 0.24984482 -2.0000095
v -16.015099 0.24984482 -1.999999
v -8.000143 0.24984446 -10.000046
v -8.000143 0.24984446 -10.000046
v 4.9591064E-5 0.24984482 -2.00002
v -8.000018 0.24984482 -2.0000095
v -7.247925E-5 0.24984415 -10.000057
v -40.000057 0.48566115 -1.9999866
v -48.000076 0.48566118 7.05719E-5
v -48.000076 0.48566118 -1.9999852
v -40.000057 0.48566115 7.05719E-5
v -31.984856 0.48566115 -1.9999876
v -31.984856 0.48566115 6.866455E-5
v -24.000038 0.48566118 -1.9999952
v -24.000038 0.48566118 6.1035156E-5
v -40.000057 0.24984482 -1.9999857
v -48.000076 0.48566118 -1.9999852
v -48.000076 0.24984482 -1.9999847
v -40.000057 0.48566115 -1.9999866
v -31.984856 0.24984482 -1.9999876
v -31.984856 0.48566115 -1.9999876
v -24.000038 0.24984482 -1.9999943
v -24.000038 0.48566118 -1.9999952
v -40.000057 0.48566115 7.05719E-5
v -48.000076 4.0978193E-5 7.05719E-5
v -48.000076 0.48566118 7.05719E-5
v -40.000057 4.0978193E-5 7.05719E-5
v -31.984856 0.48566115 6.866455E-5
v -31.984856 4.0978193E-5 6.866455E-5
v -24.000038 0.48566118 6.1035156E-5
v -24.000038 4.0978193E-5 6.1035156E-5
v -31.984991 0.4856605 -14.000048
v -24.00017 0.48566118 -16.00011
v -24.00017 0.48566118 -14.000055
v -32.05287 0.4856605 -16.000103
v -35.132103 0.48565984 -13.763762
v -35.422985 0.48565978 -15.626828
v -37.590183 0.48565984 -13.209306
v -38.219376 0.48565978 -14.889538
v -40.000187 0.48565984 -12.358191
v -40.67925 0.48565978 -14.057238
v -41.869118 0.48565984 -11.2245865
v -42.447273 0.48565978 -12.984837
v -43.903076 0.48565984 -10.351644
v -44.193993 0.48565978 -12.215549
v -48.0002 0.4856605 -10.000022
v -48.0002 0.4856604 -12.000008
v -31.98499 0.24984415 -14.000048
v -24.00017 0.48566118 -14.000055
v -24.000168 0.24984482 -14.000055
v -31.984991 0.4856605 -14.000048
v -35.132103 0.24984348 -13.763763
v -35.132103 0.48565984 -13.763762
v -37.590183 0.24984348 -13.209307
v -37.590183 0.48565984 -13.209306
v -40.000187 0.24984348 -12.358191
v -40.000187 0.48565984 -12.358191
v -41.86911 0.24984348 -11.224587
v -41.869118 0.48565984 -11.2245865
v -43.903076 0.24984348 -10.351644
v -43.903076 0.48565984 -10.351644
v -48.0002 0.24984415 -10.000022
v -48.0002 0.4856605 -10.000022
v -32.05287 0.4856605 -16.000103
v -24.00017 4.0978193E-5 -16.00011
v -24.00017 0.48566118 -16.00011
v -32.05287 4.0978193E-5 -16.000103
v -35.422985 0.48565978 -15.626828
v -35.422985 4.0978193E-5 -15.626828
v -38.219376 0.48565978 -14.889538
v -38.219376 4.0978193E-5 -14.889538
v -40.67925 0.48565978 -14.057238
v -40.67925 4.1007996E-5 -14.057238
v -42.447273 0.48565978 -12.984837
v -42.447273 4.0978193E-5 -12.984837
v -44.193993 0.48565978 -12.215549
v -44.193993 4.0978193E-5 -12.215549
v -48.0002 0.4856604 -12.000008
v -48.0002 4.0978193E-5 -12.000008
v -8.000018 0.48566115 -2.0000095
v 5.340576E-5 0.48566118 3.6239624E-5
v -8.000015 0.48566115 4.5776367E-5
v 4.5776367E-5 0.48566118 -2.0000205
v -16.0151 0.48566115 -2.0
v -16.0151 0.48566115 5.722046E-5
v -24.000038 0.48566118 -1.9999952
v -24.000038 0.48566118 6.1035156E-5
v -8.000018 0.24984482 -2.0000095
v 4.5776367E-5 0.48566118 -2.0000205
v -8.000018 0.48566115 -2.0000095
v 4.9591064E-5 0.24984482 -2.00002
v -16.015099 0.24984482 -1.999999
v -16.0151 0.48566115 -2.0
v -24.000038 0.24984482 -1.9999943
v -24.000038 0.48566118 -1.9999952
v -8.000015 0.48566115 4.5776367E-5
v 5.340576E-5 4.0978193E-5 3.6239624E-5
v -8.000015 4.0978193E-5 4.5776367E-5
v 5.340576E-5 0.48566118 3.6239624E-5
v -16.0151 0.48566115 5.722046E-5
v -16.0151 4.0978193E-5 5.722046E-5
v -24.000038 0.48566118 6.1035156E-5
v -24.000038 4.0978193E-5 6.1035156E-5
v -16.015228 0.4856605 -14.000059
v -24.00017 0.48566118 -16.00011
v -15.94735 0.4856605 -16.000114
v -24.00017 0.48566118 -14.000055
v -12.868227 0.48565984 -13.76378
v -12.5773535 0.48565978 -15.626845
v -10.327749 0.48565984 -13.16001
v -9.775831 0.48565978 -14.93033
v -8.000145 0.48565984 -12.358214
v -7.321083 0.48565978 -14.057262
v -6.131216 0.48565984 -11.224613
v -5.5530624 0.48565978 -12.984863
v -4.097252 0.48565984 -10.351674
v -3.806347 0.48565978 -12.21558
v -7.247925E-5 0.4856605 -10.000057
v -6.2942505E-5 0.4856604 -12.000043
v -16.015226 0.24984415 -14.000059
v -24.00017 0.48566118 -14.000055
v -16.015228 0.4856605 -14.000059
v -24.000168 0.24984482 -14.000055
v -12.868227 0.24984348 -13.763781
v -12.868227 0.48565984 -13.76378
v -10.327749 0.24984348 -13.160011
v -10.327749 0.48565984 -13.16001
v -8.000145 0.24984348 -12.358214
v -8.000145 0.48565984 -12.358214
v -6.131216 0.24984348 -11.224614
v -6.131216 0.48565984 -11.224613
v -4.097252 0.24984348 -10.351674
v -4.097252 0.48565984 -10.351674
v -7.247925E-5 0.24984415 -10.000057
v -7.247925E-5 0.4856605 -10.000057
v -15.94735 0.4856605 -16.000114
v -24.00017 4.0978193E-5 -16.00011
v -15.94735 4.0978193E-5 -16.000114
v -24.00017 0.48566118 -16.00011
v -12.5773535 0.48565978 -15.626845
v -12.5773535 4.0978193E-5 -15.626845
v -9.775831 0.48565978 -14.93033
v -9.775831 4.0978193E-5 -14.93033
v -7.321083 0.48565978 -14.057262
v -7.321083 4.1007996E-5 -14.057262
v -5.5530624 0.48565978 -12.984863
v -5.5530624 4.0978193E-5 -12.984863
v -3.806347 0.48565978 -12.21558
v -3.806347 4.0978193E-5 -12.21558
v -6.2942505E-5 0.4856604 -12.000043
v -6.2942505E-5 4.0978193E-5 -12.000043
vn -0.0 1.0 0.0
vn -0.0 1.0 0.0
vn -0.0 1.0 0.0
vn -0.0 1.0 0.0
vn -0.0 1.0 0.0
vn -0.0 1.0 0.0
vn -0.0 1.0 0.0
vn -0.0 1.0 0.0
vn -0.0 1.0 0.0
vn -0.0 1.0 0.0
vn -0.0 1.0 0.0
vn -0.0 1.0 0.0
vn -0.0 1.0 0.0
vn -0.0 1.0 0.0
vn -0.0 1.0 0.0
vn -0.0 1.0 0.0
vn -0.0 1.0 0.0
vn -0.0 1.0 0.0
vn -0.0 1.0 0.0
vn -0.0 1.0 0.0
vn -0.0 1.0 0.0
vn -0.0 1.0 0.0
vn -0.0 1.0 0.0
vn -0.0 1.0 0.0
vn -0.0 1.0 0.0
vn -0.0 1.0 0.0
vn -0.0 1.0 0.0
vn -0.0 1.0 0.0
vn -0.0 1.0 0.0
vn -0.0 1.0 0.0
vn -0.0 1.0 0.0
vn -0.0 1.0 0.0
vn -0.0 1.0 0.0
vn -0.0 1.0 0.0
vn -0.0 1.0 0.0
vn -0.0 1.0 0.0
vn -0.0 1.0 0.0
vn -0.0 1.0 0.0
vn -0.0 1.0 0.0
vn -0.0 1.0 0.0
vn -0.0 1.0 0.0
vn -0.0 1.0 0.0
vn -0.0 1.0 0.0
vn -0.0 1.0 0.0
vn -0.0 1.0 0.0
vn -0.0 1.0 0.0
vn -0.0 1.0 0.0
vn -0.0 1.0 0.0
vn -0.0 1.0 0.0
vn -0.0 1.0 0.0
vn -0.0 1.0 0.0
vn -0.0 1.0 0.0
vn -0.0 1.0 0.0
vn -0.0 1.0 0.0
vn -0.0 0.0 -1.0
vn -0.0 0.0 -1.0
vn -0.0 0.0 -1.0
vn -0.0 0.0 -1.0
vn -0.0 0.0 -1.0
vn -0.0 0.0 -1.0
vn -0.0 0.0 -1.0
vn -0.0 0.0 -1.0
vn -0.0 0.0 1.0
vn -0.0 0.0 1.0
vn -0.0 0.0 1.0
vn -0.0 0.0 1.0
vn -0.0 0.0 1.0
vn -0.0 0.0 1.0
vn -0.0 0.0 1.0
vn -0.0 0.0 1.0
vn -0.0 1.0 0.0
vn -0.0 1.0 0.0
vn -0.0 1.0 0.0
vn -0.0 1.0 0.0
vn -0.0 1.0 0.0
vn -0.0 1.0 0.0
vn -0.0 1.0 0.0
vn -0.0 1.0 0.0
vn -0.0 1.0 0.0
vn -0.0 1.0 0.0
vn -0.0 1.0 0.0
vn -0.0 1.0 0.0
vn -0.0 1.0 0.0
vn -0.0 1.0 0.0
vn -0.0 1.0 0.0
vn -0.0 1.0 0.0
vn 0.037461005 0.0 0.9992981
vn -0.0 0.0 1.0
vn -0.0 0.0 1.0
vn 0.03746144 0.0 0.9992981
vn 0.14785168 0.0 0.98900956
vn 0.14785172 0.0 0.98900956
vn 0.27699897 0.0 0.96087015
vn 0.27699903 0.0 0.96087015
vn 0.4280696 0.0 0.9037458
vn 0.42806956 0.0 0.9037458
vn 0.4576206 1.07528185E-5 0.88914764
vn 0.45761824 1.0903246E-5 0.88914883
vn 0.24305157 0.0 0.9700134
vn 0.24305162 0.0 0.97001326
vn 0.085507296 0.0 0.99633753
vn 0.0855073 0.0 0.99633753
vn -0.055127867 0.0 -0.9984793
vn -0.0 0.0 -1.0
vn -0.0 0.0 -1.0
vn -0.05512785 0.0 -0.9984793
vn -0.18301362 0.0 -0.9831103
vn -0.1830136 0.0 -0.9831103
vn -0.28789243 0.0 -0.9576627
vn -0.2878924 0.0 -0.9576627
vn -0.42208305 0.0 -0.90655714
vn -0.42208302 0.0 -0.90655714
vn -0.4618153 0.0 -0.8869761
vn -0.4618153 0.0 -0.8869761
vn -0.23353623 0.0 -0.97234815
vn -0.23353626 0.0 -0.97234815
vn -0.056538474 0.0 -0.9984004
vn -0.056538478 0.0 -0.9984004
vn -0.0 1.0 0.0
vn -0.0 1.0 0.0
vn -0.0 1.0 0.0
vn -0.0 1.0 0.0
vn -0.0 1.0 0.0
vn -0.0 1.0 0.0
vn -0.0 1.0 0.0
vn -0.0 1.0 0.0
vn -0.0 0.0 -1.0
vn -0.0 0.0 -1.0
vn -0.0 0.0 -1.0
vn -0.0 0.0 -1.0
vn -0.0 0.0 -1.0
vn -0.0 0.0 -1.0
vn -0.0 0.0 -1.0
vn -0.0 0.0 -1.0
vn -0.0 0.0 1.0
vn -0.0 0.0 1.0
vn -0.0 0.0 1.0
vn -0.0 0.0 1.0
vn -0.0 0.0 1.0
vn -0.0 0.0 1.0
vn -0.0 0.0 1.0
vn -0.0 0.0 1.0
vn -0.0 1.0 0.0
vn -0.0 1.0 0.0
vn -0.0 1.0 0.0
vn -0.0 1.0 0.0
vn -0.0 1.0 0.0
vn -0.0 1.0 0.0
vn -0.0 1.0 0.0
vn -0.0 1.0 0.0
vn -0.0 1.0 0.0
vn -0.0 1.0 0.0
vn -0.0 1.0 0.0
vn -0.0 1.0 0.0
vn -0.0 1.0 0.0
vn -0.0 1.0 0.0
vn -0.0 1.0 0.0
vn -0.0 1.0 0.0
vn -0.037461165 0.0 0.9992981
vn -0.0 0.0 1.0
vn -0.03746079 0.0 0.9992981
vn -0.0 0.0 1.0
vn -0.15352602 0.0 0.98814464
vn -0.15352602 0.0 0.98814464
vn -0.2787927 0.0 0.9603513
vn -0.27879274 0.0 0.9603513
vn -0.42456576 0.0 0.90539706
vn -0.42456576 0.0 0.90539706
vn -0.45761853 0.0 0.88914865
vn -0.45761842 0.0 0.88914865
vn -0.24304926 0.0 0.970014
vn -0.24304935 0.0 0.970014
vn -0.085504964 0.0 0.9963378
vn -0.08550496 0.0 0.9963378
vn 0.055128213 0.0 -0.9984793
vn -0.0 0.0 -1.0
vn 0.055128217 0.0 -0.9984793
vn -0.0 0.0 -1.0
vn 0.17607354 0.0 -0.984377
vn 0.17607355 0.0 -0.984377
vn 0.28853473 0.0 -0.9574694
vn 0.2885347 0.0 -0.9574694
vn 0.429075 0.0 -0.9032688
vn 0.42907497 0.0 -0.9032688
vn 0.46181488 0.0 -0.88697636
vn 0.46181485 0.0 -0.88697636
vn 0.23353459 0.0 -0.9723485
vn 0.23353456 0.0 -0.9723485
vn 0.05653606 0.0 -0.9984005
vn 0.056536064 0.0 -0.9984005
vt 0.49987495 0.0010339022
vt 0.3777692 0.122770965
vt 0.37776917 0.0010339022
vt 0.49987498 0.122770965
vt 0.24941258 0.63298976
vt 0.1516735 0.7490131
vt 0.1516735 0.63298976
vt 0.24941258 0.7490131
vt 0.07661181 0.7490131
vt 0.11971149 0.6415951
vt 0.09607925 0.66307867
vt 0.07661181 0.69100136
vt 0.058643796 0.7188884
vt 0.035386298 0.7403632
vt 0.0015500416 0.7490131
vt 0.37776935 0.1236158
vt 0.49987513 0.0018787384
vt 0.49987513 0.1236158
vt 0.37776935 0.0018787384
vt 0.37776935 0.1236158
vt 0.49987513 0.0018787384
vt 0.49987513 0.1236158
vt 0.37776935 0.0018787384
vt 0.49987495 0.0010339022
vt 0.3777692 0.122770965
vt 0.49987498 0.122770965
vt 0.37776917 0.0010339022
vt 0.0015500416 0.6442101
vt 0.099289104 0.7490131
vt 0.0015500416 0.7490131
vt 0.099289104 0.6442101
vt 0.1743508 0.7490131
vt 0.13125113 0.65198326
vt 0.15488337 0.6713892
vt 0.1743508 0.6966115
vt 0.19231881 0.7218017
vt 0.21557632 0.74119973
vt 0.24941258 0.7490131
vt 0.37776935 0.1236158
vt 0.49987513 0.0018787384
vt 0.37776935 0.0018787384
vt 0.49987513 0.1236158
vt 0.37776935 0.1236158
vt 0.49987513 0.0018787384
vt 0.37776935 0.0018787384
vt 0.49987513 0.1236158
vt 0.3333331 0.7777759
vt -5.9604645E-8 0.7506412
vt -2.605002E-8 0.7777759
vt 0.33333308 0.7506412
vt 0.6666663 0.7777759
vt 0.66666627 0.7506412
vt 0.99999994 0.7777759
vt 0.99999994 0.7506412
vt 0.3333331 0.78116775
vt -2.605002E-8 0.7777759
vt -2.1855694E-8 0.78116775
vt 0.3333331 0.7777759
vt 0.6666663 0.78116775
vt 0.6666663 0.7777759
vt 0.99999994 0.78116775
vt 0.99999994 0.7777759
vt 0.33333316 0.8116944
vt 1.169893E-8 0.80830246
vt 1.5893256E-8 0.8116944
vt 0.33333313 0.80830246
vt 0.6666663 0.8116943
vt 0.6666663 0.80830246
vt 1.0 0.8116943
vt 1.0 0.80830246
vt 0.3241456 0.7777759
vt -5.9604645E-8 0.7506412
vt -2.605002E-8 0.7777759
vt 0.32414556 0.7506412
vt 0.46269238 0.7777759
vt 0.46269235 0.7506412
vt 0.5690666 0.7777759
vt 0.5690665 0.7506412
vt 0.6617421 0.7777759
vt 0.66174203 0.7506412
vt 0.74856496 0.7777759
vt 0.7485649 0.7506412
vt 0.8533838 0.7777759
vt 0.8533837 0.7506412
vt 0.99999994 0.7777759
vt 0.99999994 0.7506412
vt 0.3241456 0.78116775
vt -2.605002E-8 0.7777759
vt -2.1855694E-8 0.78116775
vt 0.3241456 0.7777759
vt 0.46269238 0.78116775
vt 0.46269238 0.7777759
vt 0.5690666 0.78116775
vt 0.5690666 0.7777759
vt 0.6617421 0.78116775
vt 0.6617421 0.7777759
vt 0.74856496 0.78116775
vt 0.74856496 0.7777759
vt 0.8533838 0.78116775
vt 0.8533838 0.7777759
vt 0.99999994 0.78116775
vt 0.99999994 0.7777759
vt 0.32414564 0.8116944
vt 1.169893E-8 0.80830246
vt 1.5893256E-8 0.8116944
vt 0.32414562 0.80830246
vt 0.46269244 0.8116943
vt 0.4626924 0.80830246
vt 0.5690666 0.8116943
vt 0.5690666 0.80830246
vt 0.6617421 0.8116943
vt 0.6617421 0.80830246
vt 0.74856496 0.8116943
vt 0.74856496 0.80830246
vt 0.8533838 0.8116943
vt 0.8533838 0.80830246
vt 1.0 0.8116943
vt 1.0 0.80830246
vt 0.3333331 0.7777759
vt -5.9604645E-8 0.7506412
vt 0.33333308 0.7506412
vt -2.605002E-8 0.7777759
vt 0.6666663 0.7777759
vt 0.66666627 0.7506412
vt 0.99999994 0.7777759
vt 0.99999994 0.7506412
vt 0.3333331 0.78116775
vt -2.605002E-8 0.7777759
vt 0.3333331 0.7777759
vt -2.1855694E-8 0.78116775
vt 0.6666663 0.78116775
vt 0.6666663 0.7777759
vt 0.99999994 0.78116775
vt 0.99999994 0.7777759
vt 0.33333316 0.8116944
vt 1.169893E-8 0.80830246
vt 0.33333313 0.80830246
vt 1.5893256E-8 0.8116944
vt 0.6666663 0.8116943
vt 0.6666663 0.80830246
vt 1.0 0.8116943
vt 1.0 0.80830246
vt 0.3241456 0.7777759
vt -5.9604645E-8 0.7506412
vt 0.32414556 0.7506412
vt -2.605002E-8 0.7777759
vt 0.46269238 0.7777759
vt 0.46269235 0.7506412
vt 0.5690666 0.7777759
vt 0.5690665 0.7506412
vt 0.6617421 0.7777759
vt 0.66174203 0.7506412
vt 0.74856496 0.7777759
vt 0.7485649 0.7506412
vt 0.8533838 0.7777759
vt 0.8533837 0.7506412
vt 0.99999994 0.7777759
vt 0.99999994 0.7506412
vt 0.3241456 0.78116775
vt -2.605002E-8 0.7777759
vt 0.3241456 0.7777759
vt -2.1855694E-8 0.78116775
vt 0.46269238 0.78116775
vt 0.46269238 0.7777759
vt 0.5690666 0.78116775
vt 0.5690666 0.7777759
vt 0.6617421 0.78116775
vt 0.6617421 0.7777759
vt 0.74856496 0.78116775
vt 0.74856496 0.7777759
vt 0.8533838 0.78116775
vt 0.8533838 0.7777759
vt 0.99999994 0.78116775
vt 0.99999994 0.7777759
vt 0.32414564 0.8116944
vt 1.169893E-8 0.80830246
vt 0.32414562 0.80830246
vt 1.5893256E-8 0.8116944
vt 0.46269244 0.8116943
vt 0.4626924 0.80830246
vt 0.5690666 0.8116943
vt 0.5690666 0.80830246
vt 0.6617421 0.8116943
vt 0.6617421 0.80830246
vt 0.74856496 0.8116943
vt 0.74856496 0.80830246
vt 0.8533838 0.8116943
vt 0.8533838 0.80830246
vt 1.0 0.8116943
vt 1.0 0.80830246

g Two_Lane_BusStop_01
s 1
usemtl Two_Lane_BusStop_01
f 3/3/3 2/2/2 1/1/1 
f 4/4/4 1/1/1 2/2/2 
f 7/7/7 6/6/6 5/5/5 
f 8/8/8 5/5/5 6/6/6 
f 6/6/6 7/7/7 9/9/9 
f 7/7/7 10/10/10 9/9/9 
f 10/10/10 11/11/11 9/9/9 
f 11/11/11 12/12/12 9/9/9 
f 12/12/12 13/13/13 9/9/9 
f 13/13/13 14/14/14 9/9/9 
f 9/9/9 14/14/14 15/15/15 
f 18/18/18 17/17/17 16/16/16 
f 19/19/19 16/16/16 17/17/17 
f 22/22/22 21/21/21 20/20/20 
f 23/23/23 20/20/20 21/21/21 
f 26/26/26 25/25/25 24/24/24 
f 27/27/27 24/24/24 25/25/25 
f 30/30/30 29/29/29 28/28/28 
f 31/31/31 28/28/28 29/29/29 
f 31/31/31 29/29/29 32/32/32 
f 33/33/33 31/31/31 32/32/32 
f 34/34/34 33/33/33 32/32/32 
f 35/35/35 34/34/34 32/32/32 
f 36/36/36 35/35/35 32/32/32 
f 37/37/37 36/36/36 32/32/32 
f 37/37/37 32/32/32 38/38/38 
f 41/41/41 40/40/40 39/39/39 
f 42/42/42 39/39/39 40/40/40 
f 45/45/45 44/44/44 43/43/43 
f 46/46/46 43/43/43 44/44/44 
f 49/49/49 48/48/48 47/47/47 
f 50/50/50 47/47/47 48/48/48 
f 47/47/47 50/50/50 51/51/51 
f 52/52/52 51/51/51 50/50/50 
f 51/51/51 52/52/52 53/53/53 
f 54/54/54 53/53/53 52/52/52 
f 57/57/57 56/56/56 55/55/55 
f 58/58/58 55/55/55 56/56/56 
f 55/55/55 58/58/58 59/59/59 
f 60/60/60 59/59/59 58/58/58 
f 59/59/59 60/60/60 61/61/61 
f 62/62/62 61/61/61 60/60/60 
f 65/65/65 64/64/64 63/63/63 
f 66/66/66 63/63/63 64/64/64 
f 63/63/63 66/66/66 67/67/67 
f 68/68/68 67/67/67 66/66/66 
f 67/67/67 68/68/68 69/69/69 
f 70/70/70 69/69/69 68/68/68 
f 73/73/73 72/72/72 71/71/71 
f 74/74/74 71/71/71 72/72/72 
f 71/71/71 74/74/74 75/75/75 
f 76/76/76 75/75/75 74/74/74 
f 75/75/75 76/76/76 77/77/77 
f 78/78/78 77/77/77 76/76/76 
f 77/77/77 78/78/78 79/79/79 
f 80/80/80 79/79/79 78/78/78 
f 79/79/79 80/80/80 81/81/81 
f 82/82/82 81/81/81 80/80/80 
f 81/81/81 82/82/82 83/83/83 
f 84/84/84 83/83/83 82/82/82 
f 83/83/83 84/84/84 85/85/85 
f 86/86/86 85/85/85 84/84/84 
f 89/89/89 88/88/88 87/87/87 
f 90/90/90 87/87/87 88/88/88 
f 87/87/87 90/90/90 91/91/91 
f 92/92/92 91/91/91 90/90/90 
f 91/91/91 92/92/92 93/93/93 
f 94/94/94 93/93/93 92/92/92 
f 93/93/93 94/94/94 95/95/95 
f 96/96/96 95/95/95 94/94/94 
f 95/95/95 96/96/96 97/97/97 
f 98/98/98 97/97/97 96/96/96 
f 97/97/97 98/98/98 99/99/99 
f 100/100/100 99/99/99 98/98/98 
f 99/99/99 100/100/100 101/101/101 
f 102/102/102 101/101/101 100/100/100 
f 105/105/105 104/104/104 103/103/103 
f 106/106/106 103/103/103 104/104/104 
f 103/103/103 106/106/106 107/107/107 
f 108/108/108 107/107/107 106/106/106 
f 107/107/107 108/108/108 109/109/109 
f 110/110/110 109/109/109 108/108/108 
f 109/109/109 110/110/110 111/111/111 
f 112/112/112 111/111/111 110/110/110 
f 111/111/111 112/112/112 113/113/113 
f 114/114/114 113/113/113 112/112/112 
f 113/113/113 114/114/114 115/115/115 
f 116/116/116 115/115/115 114/114/114 
f 115/115/115 116/116/116 117/117/117 
f 118/118/118 117/117/117 116/116/116 
f 121/121/121 120/120/120 119/119/119 
f 122/122/122 119/119/119 120/120/120 
f 119/119/119 123/123/123 121/121/121 
f 124/124/124 121/121/121 123/123/123 
f 123/123/123 125/125/125 124/124/124 
f 126/126/126 124/124/124 125/125/125 
f 129/129/129 128/128/128 127/127/127 
f 130/130/130 127/127/127 128/128/128 
f 127/127/127 131/131/131 129/129/129 
f 132/132/132 129/129/129 131/131/131 
f 131/131/131 133/133/133 132/132/132 
f 134/134/134 132/132/132 133/133/133 
f 137/137/137 136/136/136 135/135/135 
f 138/138/138 135/135/135 136/136/136 
f 135/135/135 139/139/139 137/137/137 
f 140/140/140 137/137/137 139/139/139 
f 139/139/139 141/141/141 140/140/140 
f 142/142/142 140/140/140 141/141/141 
f 145/145/145 144/144/144 143/143/143 
f 146/146/146 143/143/143 144/144/144 
f 143/143/143 147/147/147 145/145/145 
f 148/148/148 145/145/145 147/147/147 
f 147/147/147 149/149/149 148/148/148 
f 150/150/150 148/148/148 149/149/149 
f 149/149/149 151/151/151 150/150/150 
f 152/152/152 150/150/150 151/151/151 
f 151/151/151 153/153/153 152/152/152 
f 154/154/154 152/152/152 153/153/153 
f 153/153/153 155/155/155 154/154/154 
f 156/156/156 154/154/154 155/155/155 
f 155/155/155 157/157/157 156/156/156 
f 158/158/158 156/156/156 157/157/157 
f 161/161/161 160/160/160 159/159/159 
f 162/162/162 159/159/159 160/160/160 
f 159/159/159 163/163/163 161/161/161 
f 164/164/164 161/161/161 163/163/163 
f 163/163/163 165/165/165 164/164/164 
f 166/166/166 164/164/164 165/165/165 
f 165/165/165 167/167/167 166/166/166 
f 168/168/168 166/166/166 167/167/167 
f 167/167/167 169/169/169 168/168/168 
f 170/170/170 168/168/168 169/169/169 
f 169/169/169 171/171/171 170/170/170 
f 172/172/172 170/170/170 171/171/171 
f 171/171/171 173/173/173 172/172/172 
f 174/174/174 172/172/172 173/173/173 
f 177/177/177 176/176/176 175/175/175 
f 178/178/178 175/175/175 176/176/176 
f 175/175/175 179/179/179 177/177/177 
f 180/180/180 177/177/177 179/179/179 
f 179/179/179 181/181/181 180/180/180 
f 182/182/182 180/180/180 181/181/181 
f 181/181/181 183/183/183 182/182/182 
f 184/184/184 182/182/182 183/183/183 
f 183/183/183 185/185/185 184/184/184 
f 186/186/186 184/184/184 185/185/185 
f 185/185/185 187/187/187 186/186/186 
f 188/188/188 186/186/186 187/187/187 
f 187/187/187 189/189/189 188/188/188 
f 190/190/190 188/188/188 189/189/189 

