# Created by DisUnity v0.3.4
v 6.182575 0.24977571 16.865353
v 5.8277035 0.24977571 23.99992
v 5.8277016 0.24977571 16.865353
v 6.182577 0.24977571 23.99992
v 6.1825714 0.24977571 7.4327044
v 5.8276978 0.2497757 7.432704
v 6.1825695 0.24977571 5.531311E-5
v 5.827696 0.24977568 5.6266785E-5
v -2.0000515 0.24977571 23.999908
v 1.9999504 0.24977541 16.865343
v 1.9999447 0.24977571 23.999916
v -2.0000477 0.24977504 16.86534
v 1.9999447 0.24977504 5.054474E-5
v 1.9999466 0.24977535 7.4326982
v 1.9095821 0.24977437 2.252079
v 1.7256088 0.24977437 5.267141
v 0.9113693 0.24977437 7.590903
v -0.48954582 0.24977437 9.909954
v -1.4297161 0.24977437 12.851145
v -2.0000477 0.24977504 16.86534
v 1.9999466 0.24977535 7.4326982
v 1.9999504 0.24977541 16.865343
v -2.0000477 0.24977504 16.86534
v -2.0000439 0.48559138 16.865335
v -4.000044 0.48559207 23.999905
v -4.00004 0.48559138 16.783329
v -2.0000477 0.48559207 23.999905
v -1.4297161 0.48559073 12.851143
v -3.5133 0.48559067 12.497394
v -0.48954582 0.48559073 9.909952
v -2.5472507 0.48559067 9.212259
v 0.9113693 0.48559073 7.590901
v -1.158308 0.48559067 6.61228
v 1.7256088 0.48559073 5.267139
v -0.26852798 0.48559067 4.4762187
v 1.9095821 0.48559073 2.252077
v -6.67572E-5 0.48559067 1.9006052
v 1.9999447 0.48559138 4.863739E-5
v -7.05719E-5 0.4855913 -3.4332275E-5
v -2.0000439 0.24977504 16.865335
v -2.0000477 0.48559207 23.999905
v -2.0000439 0.48559138 16.865335
v -2.0000477 0.24977571 23.999905
v -1.4297161 0.24977437 12.851143
v -1.4297161 0.48559073 12.851143
v -0.48954582 0.24977437 9.909952
v -0.48954582 0.48559073 9.909952
v 0.9113693 0.24977437 7.590901
v 0.9113693 0.48559073 7.590901
v 1.7256088 0.24977437 5.267139
v 1.7256088 0.48559073 5.267139
v 1.9095821 0.24977437 2.252077
v 1.9095821 0.48559073 2.252077
v 1.9999447 0.24977504 4.863739E-5
v 1.9999447 0.48559138 4.863739E-5
v -4.000044 -2.6881695E-5 23.999905
v -4.00004 0.48559138 16.783329
v -4.000044 0.48559207 23.999905
v -4.00004 -2.7537346E-5 16.783329
v -3.5133 0.48559067 12.497394
v -3.5133 -2.8252602E-5 12.497393
v -2.5472507 0.48559067 9.212259
v -2.5472507 -2.8282404E-5 9.212259
v -1.158308 0.48559067 6.61228
v -1.158308 -2.8282404E-5 6.61228
v -0.26852798 0.48559067 4.4762187
v -0.26852798 -2.8282404E-5 4.4762187
v -6.67572E-5 0.48559067 1.9006052
v -6.67572E-5 -2.8282404E-5 1.9006052
v -7.05719E-5 0.4855913 -3.4332275E-5
v -7.05719E-5 -2.7626753E-5 -3.4332275E-5
v 9.999945 0.24977571 23.999912
v 6.182575 0.24977571 16.865353
v 9.999935 0.24977541 16.865337
v 6.182577 0.24977571 23.99992
v 13.999941 0.24977571 23.9999
v 9.999935 0.24977541 16.865337
v 13.999931 0.24977504 16.865334
v 9.999945 0.24977571 23.999912
v 9.999935 0.24977541 16.865337
v 6.1825714 0.24977571 7.4327044
v 9.999931 0.24977535 7.432695
v 6.182575 0.24977571 16.865353
v 9.999929 0.24977504 4.7683716E-5
v 10.090292 0.24977437 2.2520752
v 9.999931 0.24977535 7.432695
v 10.274269 0.24977437 5.2671366
v 11.088509 0.24977437 7.5909
v 12.489428 0.24977437 9.909948
v 13.429598 0.24977437 12.851139
v 13.999931 0.24977504 16.865334
v 9.999931 0.24977535 7.432695
v 13.999931 0.24977504 16.865334
v 9.999935 0.24977541 16.865337
v 9.999931 0.24977535 7.432695
v 6.1825695 0.24977571 5.531311E-5
v 9.999929 0.24977504 4.7683716E-5
v 6.1825714 0.24977571 7.4327044
v 13.9999275 0.48559138 16.86533
v 15.999934 0.48559207 23.999897
v 13.999937 0.48559207 23.999897
v 15.999924 0.48559138 16.783321
v 13.429598 0.48559073 12.851137
v 15.513182 0.48559067 12.497387
v 12.489428 0.48559073 9.909946
v 14.5471325 0.48559067 9.212254
v 11.088509 0.48559073 7.590898
v 13.158188 0.48559067 6.6122746
v 10.274269 0.48559073 5.2671347
v 12.268406 0.48559067 4.476214
v 10.090292 0.48559073 2.2520733
v 11.999941 0.48559067 1.9006014
v 9.999929 0.48559138 4.5776367E-5
v 11.999945 0.4855913 -3.8146973E-5
v 13.9999275 0.24977504 16.86533
v 13.999937 0.48559207 23.999897
v 13.999937 0.24977571 23.999897
v 13.9999275 0.48559138 16.86533
v 13.429598 0.24977437 12.851137
v 13.429598 0.48559073 12.851137
v 12.489428 0.24977437 9.909946
v 12.489428 0.48559073 9.909946
v 11.088509 0.24977437 7.590898
v 11.088509 0.48559073 7.590898
v 10.274269 0.24977437 5.2671347
v 10.274269 0.48559073 5.2671347
v 10.090292 0.24977437 2.2520733
v 10.090292 0.48559073 2.2520733
v 9.999929 0.24977504 4.5776367E-5
v 9.999929 0.48559138 4.5776367E-5
v 15.999934 -2.6881695E-5 23.999897
v 15.999924 0.48559138 16.783321
v 15.999924 -2.7537346E-5 16.783321
v 15.999934 0.48559207 23.999897
v 15.513182 0.48559067 12.497387
v 15.513182 -2.8252602E-5 12.497387
v 14.5471325 0.48559067 9.212254
v 14.5471325 -2.8282404E-5 9.212254
v 13.158188 0.48559067 6.6122746
v 13.158188 -2.8282404E-5 6.6122746
v 12.268406 0.48559067 4.476214
v 12.268406 -2.8282404E-5 4.476214
v 11.999941 0.48559067 1.9006014
v 11.999941 -2.8282404E-5 1.9006014
v 11.999945 0.4855913 -3.8146973E-5
v 11.999945 -2.7626753E-5 -3.8146973E-5
v 1.9999504 0.24977541 16.865343
v 5.8277035 0.24977571 23.99992
v 1.9999447 0.24977571 23.999916
v 5.8277016 0.24977571 16.865353
v 1.9999466 0.24977535 7.4326982
v 5.8277016 0.24977571 16.865353
v 1.9999504 0.24977541 16.865343
v 5.8276978 0.2497757 7.432704
v 1.9999447 0.24977504 5.054474E-5
v 5.8276978 0.2497757 7.432704
v 1.9999466 0.24977535 7.4326982
v 5.827696 0.24977568 5.6266785E-5
vn -0.0 1.0 0.0
vn -0.0 1.0 0.0
vn -0.0 1.0 0.0
vn -0.0 1.0 0.0
vn -0.0 1.0 0.0
vn -0.0 1.0 0.0
vn -0.0 1.0 0.0
vn -0.0 1.0 0.0
vn -0.0 1.0 0.0
vn -0.0 1.0 0.0
vn -0.0 1.0 0.0
vn -0.0 1.0 0.0
vn -0.0 1.0 0.0
vn -0.0 1.0 0.0
vn -0.0 1.0 0.0
vn -0.0 1.0 0.0
vn -0.0 1.0 0.0
vn -0.0 1.0 0.0
vn -0.0 1.0 0.0
vn -0.0 1.0 0.0
vn -0.0 1.0 0.0
vn -0.0 1.0 0.0
vn -0.0 1.0 0.0
vn -0.0 1.0 0.0
vn -0.0 1.0 0.0
vn -0.0 1.0 0.0
vn -0.0 1.0 0.0
vn -0.0 1.0 0.0
vn -0.0 1.0 0.0
vn -0.0 1.0 0.0
vn -0.0 1.0 0.0
vn -0.0 1.0 0.0
vn -0.0 1.0 0.0
vn -0.0 1.0 0.0
vn -0.0 1.0 0.0
vn -0.0 1.0 0.0
vn -0.0 1.0 0.0
vn -0.0 1.0 0.0
vn -0.0 1.0 0.0
vn 0.99751115 0.0 0.07050833
vn 1.0 0.0 0.0
vn 0.99751115 0.0 0.07050833
vn 1.0 0.0 0.0
vn 0.9747355 0.0 0.22336195
vn 0.9747355 0.0 0.22336195
vn 0.910458 0.0 0.4136015
vn 0.910458 0.0 0.41360155
vn 0.90465575 0.0 0.426143
vn 0.9046559 0.0 0.42614296
vn 0.98026764 0.0 0.19767499
vn 0.98026764 0.0 0.19767505
vn 0.9987239 0.0 0.05050149
vn 0.9987239 0.0 0.05050149
vn 0.999196 0.0 0.040092696
vn 0.999196 0.0 0.040092696
vn -1.0 0.0 0.0
vn -0.99840194 0.0 -0.05651132
vn -1.0 0.0 0.0
vn -0.99840194 0.0 -0.056511287
vn -0.98015714 0.0 -0.19822183
vn -0.98015714 0.0 -0.19822203
vn -0.9255452 0.0 -0.37863716
vn -0.9255452 0.0 -0.37863714
vn -0.9036122 0.0 -0.4283514
vn -0.9036122 0.0 -0.4283514
vn -0.9690916 0.0 -0.24670148
vn -0.9690915 0.0 -0.24670148
vn -0.99865216 0.0 -0.051904123
vn -0.99865216 0.0 -0.05190413
vn -1.0 0.0 0.0
vn -1.0 0.0 0.0
vn -0.0 1.0 0.0
vn -0.0 1.0 0.0
vn -0.0 1.0 0.0
vn -0.0 1.0 0.0
vn -0.0 1.0 0.0
vn -0.0 1.0 0.0
vn -0.0 1.0 0.0
vn -0.0 1.0 0.0
vn -0.0 1.0 0.0
vn -0.0 1.0 0.0
vn -0.0 1.0 0.0
vn -0.0 1.0 0.0
vn -0.0 1.0 0.0
vn -0.0 1.0 0.0
vn -0.0 1.0 0.0
vn -0.0 1.0 0.0
vn -0.0 1.0 0.0
vn -0.0 1.0 0.0
vn -0.0 1.0 0.0
vn -0.0 1.0 0.0
vn -0.0 1.0 0.0
vn -0.0 1.0 0.0
vn -0.0 1.0 0.0
vn -0.0 1.0 0.0
vn -0.0 1.0 0.0
vn -0.0 1.0 0.0
vn -0.0 1.0 0.0
vn -0.0 1.0 0.0
vn -0.0 1.0 0.0
vn -0.0 1.0 0.0
vn -0.0 1.0 0.0
vn -0.0 1.0 0.0
vn -0.0 1.0 0.0
vn -0.0 1.0 0.0
vn -0.0 1.0 0.0
vn -0.0 1.0 0.0
vn -0.0 1.0 0.0
vn -0.0 1.0 0.0
vn -0.0 1.0 0.0
vn -0.0 1.0 0.0
vn -0.0 1.0 0.0
vn -0.0 1.0 0.0
vn -0.0 1.0 0.0
vn -0.99751115 0.0 0.070509
vn -1.0 0.0 0.0
vn -1.0 0.0 0.0
vn -0.99751115 0.0 0.070508964
vn -0.9747355 0.0 0.22336218
vn -0.9747355 0.0 0.2233622
vn -0.9104577 0.0 0.41360223
vn -0.9104577 0.0 0.41360238
vn -0.9046555 0.0 0.4261437
vn -0.9046555 0.0 0.42614368
vn -0.9802675 0.0 0.19767547
vn -0.9802675 0.0 0.19767553
vn -0.9987239 0.0 0.05050214
vn -0.9987239 0.0 0.05050214
vn -0.999196 0.0 0.040092718
vn -0.999196 0.0 0.04009272
vn 1.0 0.0 0.0
vn 0.99840194 0.0 -0.056512013
vn 0.99840194 0.0 -0.056512
vn 1.0 0.0 0.0
vn 0.98015714 0.0 -0.1982222
vn 0.98015714 0.0 -0.1982222
vn 0.92554504 0.0 -0.37863746
vn 0.92554516 0.0 -0.3786375
vn 0.9036119 0.0 -0.42835212
vn 0.9036119 0.0 -0.4283521
vn 0.96909124 0.0 -0.24670263
vn 0.96909124 0.0 -0.24670263
vn 0.99865204 0.0 -0.051904872
vn 0.99865204 0.0 -0.051904872
vn 1.0 0.0 0.0
vn 1.0 0.0 0.0
vn -0.0 1.0 0.0
vn -0.0 1.0 0.0
vn -0.0 1.0 0.0
vn -0.0 1.0 0.0
vn -0.0 1.0 0.0
vn -0.0 1.0 0.0
vn -0.0 1.0 0.0
vn -0.0 1.0 0.0
vn -0.0 1.0 0.0
vn -0.0 1.0 0.0
vn -0.0 1.0 0.0
vn -0.0 1.0 0.0
vt 0.2411548 0.43386316
vt 0.11904909 0.4413154
vt 0.2411548 0.4413154
vt 0.11904909 0.43386316
vt 0.3632606 0.43386316
vt 0.3632606 0.4413154
vt 0.48536637 0.43386316
vt 0.48536637 0.4413154
vt 0.37776926 0.122771025
vt 0.499875 0.059467733
vt 0.37776923 0.059467733
vt 0.49987504 0.122771025
vt 0.40952832 0.61886233
vt 0.57079536 0.61886233
vt 0.4822241 0.6107461
vt 0.5321919 0.59059644
vt 0.5707955 0.5644302
vt 0.6126204 0.5382304
vt 0.6633933 0.5180725
vt 0.7320624 0.5099981
vt 0.62426853 0.05932802
vt 0.5089564 0.05932802
vt 0.5089563 0.13717002
vt 0.5221718 0.75730234
vt 0.7939823 0.8076694
vt 0.5221718 0.8076694
vt 0.7939823 0.75730234
vt 0.3811087 0.75730234
vt 0.3811087 0.8076694
vt 0.30363432 0.75730234
vt 0.30363432 0.8076694
vt 0.2415698 0.75730234
vt 0.22639811 0.8076694
vt 0.17694786 0.75730234
vt 0.15828842 0.8076694
vt 0.09913511 0.75730234
vt 0.09111329 0.8076694
vt 9.220354E-4 0.75730234
vt 9.220354E-4 0.8076694
vt 0.5221718 0.7512002
vt 0.7939823 0.75730234
vt 0.5221718 0.75730234
vt 0.7939823 0.7512002
vt 0.3811087 0.7512002
vt 0.3811087 0.75730234
vt 0.30363432 0.7512002
vt 0.30363432 0.75730234
vt 0.2415698 0.7512002
vt 0.2415698 0.75730234
vt 0.17694786 0.7512002
vt 0.17694786 0.75730234
vt 0.09913511 0.7512002
vt 0.09913511 0.75730234
vt 9.220354E-4 0.7512002
vt 9.220354E-4 0.75730234
vt 0.7939823 0.81130016
vt 0.5221718 0.8076694
vt 0.7939823 0.8076694
vt 0.5222426 0.81130016
vt 0.3811087 0.8076694
vt 0.38111717 0.81130016
vt 0.30363432 0.8076694
vt 0.30364567 0.8113002
vt 0.22639811 0.8076694
vt 0.22635548 0.8113002
vt 0.15828842 0.8076694
vt 0.15824255 0.8113002
vt 0.09111329 0.8076694
vt 0.091126814 0.8113002
vt 9.220354E-4 0.8076694
vt 9.2202425E-4 0.8113003
vt 0.65324044 0.49926198
vt 0.53113467 0.55586976
vt 0.5311346 0.49926198
vt 0.65324044 0.55586976
vt 0.37776926 0.122771025
vt 0.499875 0.059467733
vt 0.49987504 0.122771025
vt 0.37776923 0.059467733
vt 0.53113484 0.5562626
vt 0.65324056 0.4996549
vt 0.65324056 0.5562626
vt 0.53113484 0.4996549
vt 0.40952832 0.61886233
vt 0.4822241 0.6107461
vt 0.57079536 0.61886233
vt 0.5321919 0.59059644
vt 0.5707955 0.5644302
vt 0.6126204 0.5382304
vt 0.6633933 0.5180725
vt 0.7320624 0.5099981
vt 0.62426853 0.05932802
vt 0.5089563 0.13717002
vt 0.5089564 0.05932802
vt 0.53113484 0.5562626
vt 0.65324056 0.4996549
vt 0.65324056 0.5562626
vt 0.53113484 0.4996549
vt 0.5221718 0.75730234
vt 0.7939823 0.8076694
vt 0.7939823 0.75730234
vt 0.5221718 0.8076694
vt 0.3811087 0.75730234
vt 0.3811087 0.8076694
vt 0.30363432 0.75730234
vt 0.30363432 0.8076694
vt 0.2415698 0.75730234
vt 0.22639811 0.8076694
vt 0.17694786 0.75730234
vt 0.15828842 0.8076694
vt 0.09913511 0.75730234
vt 0.09111329 0.8076694
vt 9.220354E-4 0.75730234
vt 9.220354E-4 0.8076694
vt 0.5221718 0.7512002
vt 0.7939823 0.75730234
vt 0.7939823 0.7512002
vt 0.5221718 0.75730234
vt 0.3811087 0.7512002
vt 0.3811087 0.75730234
vt 0.30363432 0.7512002
vt 0.30363432 0.75730234
vt 0.2415698 0.7512002
vt 0.2415698 0.75730234
vt 0.17694786 0.7512002
vt 0.17694786 0.75730234
vt 0.09913511 0.7512002
vt 0.09913511 0.75730234
vt 9.220354E-4 0.7512002
vt 9.220354E-4 0.75730234
vt 0.7939823 0.81130016
vt 0.5221718 0.8076694
vt 0.5222426 0.81130016
vt 0.7939823 0.8076694
vt 0.3811087 0.8076694
vt 0.38111717 0.81130016
vt 0.30363432 0.8076694
vt 0.30364567 0.8113002
vt 0.22639811 0.8076694
vt 0.22635548 0.8113002
vt 0.15828842 0.8076694
vt 0.15824255 0.8113002
vt 0.09111329 0.8076694
vt 0.091126814 0.8113002
vt 9.220354E-4 0.8076694
vt 9.2202425E-4 0.8113003
vt 0.5311346 0.49926198
vt 0.65324044 0.5533587
vt 0.65324044 0.49926198
vt 0.53113467 0.5533587
vt 0.65324056 0.5562626
vt 0.53113484 0.5021659
vt 0.53113484 0.5562626
vt 0.65324056 0.5021659
vt 0.65324056 0.5562626
vt 0.53113484 0.5021659
vt 0.53113484 0.5562626
vt 0.65324056 0.5021659

g Two_Lane_MergeToOne_02
s 1
usemtl Two_Lane_MergeToOne_02
f 3/3/3 2/2/2 1/1/1 
f 4/4/4 1/1/1 2/2/2 
f 1/1/1 5/5/5 3/3/3 
f 6/6/6 3/3/3 5/5/5 
f 5/5/5 7/7/7 6/6/6 
f 8/8/8 6/6/6 7/7/7 
f 11/11/11 10/10/10 9/9/9 
f 12/12/12 9/9/9 10/10/10 
f 15/15/15 14/14/14 13/13/13 
f 15/15/15 16/16/16 14/14/14 
f 16/16/16 17/17/17 14/14/14 
f 17/17/17 18/18/18 14/14/14 
f 18/18/18 19/19/19 14/14/14 
f 19/19/19 20/20/20 14/14/14 
f 23/23/23 22/22/22 21/21/21 
f 26/26/26 25/25/25 24/24/24 
f 27/27/27 24/24/24 25/25/25 
f 24/24/24 28/28/28 26/26/26 
f 29/29/29 26/26/26 28/28/28 
f 28/28/28 30/30/30 29/29/29 
f 31/31/31 29/29/29 30/30/30 
f 30/30/30 32/32/32 31/31/31 
f 33/33/33 31/31/31 32/32/32 
f 32/32/32 34/34/34 33/33/33 
f 35/35/35 33/33/33 34/34/34 
f 34/34/34 36/36/36 35/35/35 
f 37/37/37 35/35/35 36/36/36 
f 36/36/36 38/38/38 37/37/37 
f 39/39/39 37/37/37 38/38/38 
f 42/42/42 41/41/41 40/40/40 
f 43/43/43 40/40/40 41/41/41 
f 40/40/40 44/44/44 42/42/42 
f 45/45/45 42/42/42 44/44/44 
f 44/44/44 46/46/46 45/45/45 
f 47/47/47 45/45/45 46/46/46 
f 46/46/46 48/48/48 47/47/47 
f 49/49/49 47/47/47 48/48/48 
f 48/48/48 50/50/50 49/49/49 
f 51/51/51 49/49/49 50/50/50 
f 50/50/50 52/52/52 51/51/51 
f 53/53/53 51/51/51 52/52/52 
f 52/52/52 54/54/54 53/53/53 
f 55/55/55 53/53/53 54/54/54 
f 58/58/58 57/57/57 56/56/56 
f 59/59/59 56/56/56 57/57/57 
f 57/57/57 60/60/60 59/59/59 
f 61/61/61 59/59/59 60/60/60 
f 60/60/60 62/62/62 61/61/61 
f 63/63/63 61/61/61 62/62/62 
f 62/62/62 64/64/64 63/63/63 
f 65/65/65 63/63/63 64/64/64 
f 64/64/64 66/66/66 65/65/65 
f 67/67/67 65/65/65 66/66/66 
f 66/66/66 68/68/68 67/67/67 
f 69/69/69 67/67/67 68/68/68 
f 68/68/68 70/70/70 69/69/69 
f 71/71/71 69/69/69 70/70/70 
f 74/74/74 73/73/73 72/72/72 
f 75/75/75 72/72/72 73/73/73 
f 78/78/78 77/77/77 76/76/76 
f 79/79/79 76/76/76 77/77/77 
f 82/82/82 81/81/81 80/80/80 
f 83/83/83 80/80/80 81/81/81 
f 86/86/86 85/85/85 84/84/84 
f 87/87/87 85/85/85 86/86/86 
f 88/88/88 87/87/87 86/86/86 
f 89/89/89 88/88/88 86/86/86 
f 90/90/90 89/89/89 86/86/86 
f 91/91/91 90/90/90 86/86/86 
f 94/94/94 93/93/93 92/92/92 
f 97/97/97 96/96/96 95/95/95 
f 98/98/98 95/95/95 96/96/96 
f 101/101/101 100/100/100 99/99/99 
f 102/102/102 99/99/99 100/100/100 
f 99/99/99 102/102/102 103/103/103 
f 104/104/104 103/103/103 102/102/102 
f 103/103/103 104/104/104 105/105/105 
f 106/106/106 105/105/105 104/104/104 
f 105/105/105 106/106/106 107/107/107 
f 108/108/108 107/107/107 106/106/106 
f 107/107/107 108/108/108 109/109/109 
f 110/110/110 109/109/109 108/108/108 
f 109/109/109 110/110/110 111/111/111 
f 112/112/112 111/111/111 110/110/110 
f 111/111/111 112/112/112 113/113/113 
f 114/114/114 113/113/113 112/112/112 
f 117/117/117 116/116/116 115/115/115 
f 118/118/118 115/115/115 116/116/116 
f 115/115/115 118/118/118 119/119/119 
f 120/120/120 119/119/119 118/118/118 
f 119/119/119 120/120/120 121/121/121 
f 122/122/122 121/121/121 120/120/120 
f 121/121/121 122/122/122 123/123/123 
f 124/124/124 123/123/123 122/122/122 
f 123/123/123 124/124/124 125/125/125 
f 126/126/126 125/125/125 124/124/124 
f 125/125/125 126/126/126 127/127/127 
f 128/128/128 127/127/127 126/126/126 
f 127/127/127 128/128/128 129/129/129 
f 130/130/130 129/129/129 128/128/128 
f 133/133/133 132/132/132 131/131/131 
f 134/134/134 131/131/131 132/132/132 
f 132/132/132 133/133/133 135/135/135 
f 136/136/136 135/135/135 133/133/133 
f 135/135/135 136/136/136 137/137/137 
f 138/138/138 137/137/137 136/136/136 
f 137/137/137 138/138/138 139/139/139 
f 140/140/140 139/139/139 138/138/138 
f 139/139/139 140/140/140 141/141/141 
f 142/142/142 141/141/141 140/140/140 
f 141/141/141 142/142/142 143/143/143 
f 144/144/144 143/143/143 142/142/142 
f 143/143/143 144/144/144 145/145/145 
f 146/146/146 145/145/145 144/144/144 
f 149/149/149 148/148/148 147/147/147 
f 150/150/150 147/147/147 148/148/148 
f 153/153/153 152/152/152 151/151/151 
f 154/154/154 151/151/151 152/152/152 
f 157/157/157 156/156/156 155/155/155 
f 158/158/158 155/155/155 156/156/156 

