# Created by DisUnity v0.3.4
v -9.804172 0.25424993 -18.195803
v -10.195904 0.25424987 -17.80407
v -10.195904 0.25424987 -18.195803
v -9.804172 0.25424993 -17.80407
v -2.0000603 0.2542513 -18.1958
v -2.0000603 0.2542513 -17.804068
v -18.000013 0.2542485 -17.804071
v -18.000015 0.2542485 -18.195805
v -22.284958 0.2542478 -17.804068
v -21.100101 0.254248 -18.195799
v -21.1001 0.254248 -17.804068
v -22.284958 0.2542478 -18.1958
v -28.000093 0.25424695 -17.804071
v -28.000093 0.25424695 -18.195803
v -18.000015 0.2542485 -18.195805
v -21.1001 0.254248 -17.804068
v -21.100101 0.254248 -18.195799
v -18.000013 0.2542485 -17.804071
v -9.804172 0.25425 -5.677231
v -10.195904 0.2542499 -6.9446735
v -9.804172 0.25424996 -6.9446735
v -10.195904 0.25424993 -5.6772304
v -9.804171 0.2542501 1.146807E-6
v -10.195903 0.25425005 1.0783143E-6
v -10.195904 0.25424987 -9.999958
v -9.804172 0.25424996 -6.9446735
v -10.195904 0.2542499 -6.9446735
v -9.804172 0.25424993 -9.999958
v 2.263035 0.25425214 -18.195803
v 1.0118887 0.2542519 -17.804071
v 1.0118887 0.2542519 -18.195803
v 2.263035 0.25425214 -17.804071
v 8.000018 0.25425324 -18.195803
v 8.000019 0.25425324 -17.80407
v -2.0000603 0.2542513 -17.804068
v 1.0118887 0.2542519 -18.195803
v 1.0118887 0.2542519 -17.804071
v -2.0000603 0.2542513 -18.1958
v -2.0000637 0.49422815 -9.999967
v -5.3015337E-5 0.49422866 -8.583078E-6
v -2.0000687 0.4942283 -8.932772E-6
v -4.82787E-5 0.49422857 -8.000074
v -2.0000637 0.2542513 -9.999967
v -2.0000687 0.4942283 -8.932772E-6
v -2.0000687 0.25425148 -8.932772E-6
v -2.0000637 0.49422815 -9.999967
v -4.82787E-5 0.49422857 -8.000074
v -5.2928932E-5 4.094838E-5 -8.583078E-6
v -5.3015337E-5 0.49422866 -8.583078E-6
v -4.8192294E-5 4.088878E-5 -8.000074
v 8.0000105 0.49423006 -9.999965
v -4.82787E-5 0.49422857 -8.000074
v -2.0000637 0.49422815 -9.999967
v 8.00001 0.4942301 -8.000072
v 8.0000105 0.25425324 -9.999965
v -2.0000637 0.49422815 -9.999967
v -2.0000637 0.2542513 -9.999967
v 8.0000105 0.49423006 -9.999965
v 8.00001 0.4942301 -8.000072
v -4.8192294E-5 4.088878E-5 -8.000074
v -4.82787E-5 0.49422857 -8.000074
v 8.000009 4.2347157E-5 -8.000072
v -18.000017 0.49422535 -9.999967
v -28.0001 0.4942238 -8.000082
v -28.000101 0.49422377 -9.999976
v -20.000032 0.49422508 -8.000074
v -18.000017 0.2542485 -9.999967
v -28.000101 0.49422377 -9.999976
v -28.000101 0.25424695 -9.999976
v -18.000017 0.49422535 -9.999967
v -20.000032 0.49422508 -8.000074
v -28.0001 3.6052697E-5 -8.000082
v -28.0001 0.4942238 -8.000082
v -20.000032 3.739187E-5 -8.000074
v -18.000027 0.4942255 -1.8406014E-5
v -20.000032 0.49422508 -8.000074
v -18.000017 0.49422535 -9.999967
v -20.00004 0.4942252 -1.7802033E-5
v -18.000027 0.25424868 -1.8406014E-5
v -18.000017 0.49422535 -9.999967
v -18.000017 0.2542485 -9.999967
v -18.000027 0.4942255 -1.8406014E-5
v -20.00004 0.4942252 -1.7802033E-5
v -20.000032 3.739187E-5 -8.000074
v -20.000032 0.49422508 -8.000074
v -20.00004 3.745147E-5 -1.7802033E-5
v -10.440738 0.49422684 -28.000044
v -9.559335 0.494227 -25.99991
v -10.440737 0.49422684 -25.99991
v -9.559336 0.494227 -28.000042
v -28.00009 0.49422377 -28.000048
v -28.000088 0.49422377 -25.999914
v 8.000017 0.49423006 -25.999905
v 8.000015 0.49423006 -28.000038
v -10.440737 0.49422684 -25.99991
v -9.559335 0.25425017 -25.99991
v -10.440737 0.25425002 -25.99991
v -9.559335 0.494227 -25.99991
v -28.000088 0.49422377 -25.999914
v -28.000088 0.25424695 -25.999914
v 8.000017 0.25425324 -25.999905
v 8.000017 0.49423006 -25.999905
v -10.440738 3.906327E-5 -28.000044
v -9.559336 0.494227 -28.000042
v -10.440738 0.49422684 -28.000044
v -9.559336 3.921738E-5 -28.000042
v -28.00009 3.5993096E-5 -28.000048
v -28.00009 0.49422377 -28.000048
v 8.000015 0.49423006 -28.000038
v 8.000015 4.2287553E-5 -28.000038
v -2.000061 0.25425136 -5.6772304
v -9.804172 0.25424996 -6.9446735
v -2.0000618 0.25425136 -6.9446726
v -9.804172 0.25425 -5.677231
v -18.000013 0.25424853 -6.944674
v -10.195904 0.25424993 -5.6772304
v -18.000015 0.25424856 -5.6772304
v -10.195904 0.2542499 -6.9446735
v -10.195903 0.25425005 1.0783143E-6
v -18.000011 0.25424868 1.6211491E-6
v -18.000015 0.2542485 -9.999958
v -10.195904 0.2542499 -6.9446735
v -18.000013 0.25424853 -6.944674
v -10.195904 0.25424987 -9.999958
v -2.0000618 0.25425136 -6.9446726
v -9.804172 0.25424993 -9.999958
v -2.0000603 0.2542513 -9.999956
v -9.804172 0.25424996 -6.9446735
v -2.00006 0.25425148 6.0397264E-7
v -9.804172 0.25425 -5.677231
v -2.000061 0.25425136 -5.6772304
v -9.804171 0.2542501 1.146807E-6
v -9.804171 0.25424993 -25.999914
v -10.195904 0.25424987 -18.195803
v -10.195903 0.25424987 -25.999914
v -9.804172 0.25424993 -18.195803
v -2.0000603 0.2542513 -25.999912
v -2.0000603 0.2542513 -18.1958
v -18.000015 0.2542485 -18.195805
v -18.000015 0.2542485 -25.999916
v -10.195904 0.25424987 -9.999958
v -9.804172 0.25424993 -17.80407
v -9.804172 0.25424993 -9.999958
v -10.195904 0.25424987 -17.80407
v -2.0000603 0.2542513 -17.804068
v -2.0000603 0.2542513 -9.999956
v -18.000015 0.2542485 -9.999958
v -18.000013 0.2542485 -17.804071
v -22.28496 0.2542478 -9.999957
v -21.1001 0.254248 -17.804068
v -21.1001 0.254248 -9.999958
v -22.284958 0.2542478 -17.804068
v -21.100101 0.254248 -25.99991
v -22.284958 0.2542478 -18.1958
v -22.284964 0.2542478 -25.999912
v -21.100101 0.254248 -18.195799
v -18.000015 0.2542485 -25.999916
v -21.100101 0.254248 -18.195799
v -21.100101 0.254248 -25.99991
v -18.000015 0.2542485 -18.195805
v -21.1001 0.254248 -9.999958
v -18.000013 0.2542485 -17.804071
v -18.000015 0.2542485 -9.999958
v -21.1001 0.254248 -17.804068
v 2.2630346 0.25425214 -25.999916
v 1.0118887 0.2542519 -18.195803
v 1.0118887 0.2542519 -25.999916
v 2.263035 0.25425214 -18.195803
v 1.0118887 0.2542519 -9.999958
v 2.263035 0.25425214 -17.804071
v 2.2630355 0.25425214 -9.999959
v 1.0118887 0.2542519 -17.804071
v -2.0000603 0.2542513 -9.999956
v 1.0118887 0.2542519 -17.804071
v 1.0118887 0.2542519 -9.999958
v -2.0000603 0.2542513 -17.804068
v 1.0118887 0.2542519 -25.999916
v -2.0000603 0.2542513 -18.1958
v -2.0000603 0.2542513 -25.999912
v 1.0118887 0.2542519 -18.195803
v 8.000018 0.25425324 -25.999914
v 2.263035 0.25425214 -18.195803
v 2.2630346 0.25425214 -25.999916
v 8.000018 0.25425324 -18.195803
v 2.2630355 0.25425214 -9.999959
v 8.000019 0.25425324 -17.80407
v 8.00002 0.25425324 -9.99996
v 2.263035 0.25425214 -17.804071
v -28.000095 0.25424695 -9.999958
v -22.284958 0.2542478 -17.804068
v -22.28496 0.2542478 -9.999957
v -28.000093 0.25424695 -17.804071
v -22.284964 0.2542478 -25.999912
v -28.000093 0.25424695 -18.195803
v -28.000093 0.25424695 -25.999914
v -22.284958 0.2542478 -18.1958
vn -0.0 1.0 0.0
vn -0.0 1.0 0.0
vn -0.0 1.0 0.0
vn -0.0 1.0 0.0
vn -0.0 1.0 0.0
vn -0.0 1.0 0.0
vn -0.0 1.0 0.0
vn -0.0 1.0 0.0
vn -0.0 1.0 0.0
vn -0.0 1.0 0.0
vn -0.0 1.0 0.0
vn -0.0 1.0 0.0
vn -0.0 1.0 0.0
vn -0.0 1.0 0.0
vn -0.0 1.0 0.0
vn -0.0 1.0 0.0
vn -0.0 1.0 0.0
vn -0.0 1.0 0.0
vn -0.0 1.0 0.0
vn -0.0 1.0 0.0
vn -0.0 1.0 0.0
vn -0.0 1.0 0.0
vn -0.0 1.0 0.0
vn -0.0 1.0 0.0
vn -0.0 1.0 0.0
vn -0.0 1.0 0.0
vn -0.0 1.0 0.0
vn -0.0 1.0 0.0
vn -0.0 1.0 0.0
vn -0.0 1.0 0.0
vn -0.0 1.0 0.0
vn -0.0 1.0 0.0
vn -0.0 1.0 0.0
vn -0.0 1.0 0.0
vn -0.0 1.0 0.0
vn -0.0 1.0 0.0
vn -0.0 1.0 0.0
vn -0.0 1.0 0.0
vn -0.0 1.0 0.0
vn -0.0 1.0 0.0
vn -0.0 1.0 0.0
vn -0.0 1.0 0.0
vn -0.7071066 0.0 -0.70710695
vn -1.0 0.0 0.0
vn -1.0 0.0 0.0
vn -0.70710635 0.0 -0.7071071
vn 0.7071065 0.0 0.707107
vn 1.0 0.0 0.0
vn 1.0 0.0 0.0
vn 0.7071064 0.0 0.70710707
vn -0.0 1.0 0.0
vn -0.0 1.0 0.0
vn -0.0 1.0 0.0
vn -0.0 1.0 0.0
vn -0.0 0.0 -1.0
vn -0.70710635 0.0 -0.7071071
vn -0.7071066 0.0 -0.70710695
vn -0.0 0.0 -1.0
vn -0.0 0.0 1.0
vn 0.7071064 0.0 0.70710707
vn 0.7071065 0.0 0.707107
vn -0.0 0.0 1.0
vn -0.0 1.0 0.0
vn -0.0 1.0 0.0
vn -0.0 1.0 0.0
vn -0.0 1.0 0.0
vn 0.70710725 0.0 -0.70710623
vn -0.0 0.0 -1.0
vn -0.0 0.0 -1.0
vn 0.7071075 0.0 -0.70710605
vn -0.70710737 0.0 0.7071061
vn -0.0 0.0 1.0
vn -0.0 0.0 1.0
vn -0.7071074 0.0 0.7071061
vn -0.0 1.0 0.0
vn -0.0 1.0 0.0
vn -0.0 1.0 0.0
vn -0.0 1.0 0.0
vn 1.0 0.0 0.0
vn 0.7071075 0.0 -0.70710605
vn 0.70710725 0.0 -0.70710623
vn 1.0 0.0 0.0
vn -1.0 0.0 0.0
vn -0.7071074 0.0 0.7071061
vn -0.70710737 0.0 0.7071061
vn -1.0 0.0 0.0
vn -0.0 1.0 0.0
vn -0.0 1.0 0.0
vn -0.0 1.0 0.0
vn -0.0 1.0 0.0
vn -0.0 1.0 0.0
vn -0.0 1.0 0.0
vn -0.0 1.0 0.0
vn -0.0 1.0 0.0
vn -0.0 0.0 1.0
vn -0.0 0.0 1.0
vn -0.0 0.0 1.0
vn -0.0 0.0 1.0
vn -0.0 0.0 1.0
vn -0.0 0.0 1.0
vn -0.0 0.0 1.0
vn -0.0 0.0 1.0
vn -0.0 0.0 -1.0
vn -0.0 0.0 -1.0
vn -0.0 0.0 -1.0
vn -0.0 0.0 -1.0
vn -0.0 0.0 -1.0
vn -0.0 0.0 -1.0
vn -0.0 0.0 -1.0
vn -0.0 0.0 -1.0
vn -0.0 1.0 0.0
vn -0.0 1.0 0.0
vn -0.0 1.0 0.0
vn -0.0 1.0 0.0
vn -0.0 1.0 0.0
vn -0.0 1.0 0.0
vn -0.0 1.0 0.0
vn -0.0 1.0 0.0
vn -0.0 1.0 0.0
vn -0.0 1.0 0.0
vn -0.0 1.0 0.0
vn -0.0 1.0 0.0
vn -0.0 1.0 0.0
vn -0.0 1.0 0.0
vn -0.0 1.0 0.0
vn -0.0 1.0 0.0
vn -0.0 1.0 0.0
vn -0.0 1.0 0.0
vn -0.0 1.0 0.0
vn -0.0 1.0 0.0
vn -0.0 1.0 0.0
vn -0.0 1.0 0.0
vn -0.0 1.0 0.0
vn -0.0 1.0 0.0
vn -0.0 1.0 0.0
vn -0.0 1.0 0.0
vn -0.0 1.0 0.0
vn -0.0 1.0 0.0
vn -0.0 1.0 0.0
vn -0.0 1.0 0.0
vn -0.0 1.0 0.0
vn -0.0 1.0 0.0
vn -0.0 1.0 0.0
vn -0.0 1.0 0.0
vn -0.0 1.0 0.0
vn -0.0 1.0 0.0
vn -0.0 1.0 0.0
vn -0.0 1.0 0.0
vn -0.0 1.0 0.0
vn -0.0 1.0 0.0
vn -0.0 1.0 0.0
vn -0.0 1.0 0.0
vn -0.0 1.0 0.0
vn -0.0 1.0 0.0
vn -0.0 1.0 0.0
vn -0.0 1.0 0.0
vn -0.0 1.0 0.0
vn -0.0 1.0 0.0
vn -0.0 1.0 0.0
vn -0.0 1.0 0.0
vn -0.0 1.0 0.0
vn -0.0 1.0 0.0
vn -0.0 1.0 0.0
vn -0.0 1.0 0.0
vn -0.0 1.0 0.0
vn -0.0 1.0 0.0
vn -0.0 1.0 0.0
vn -0.0 1.0 0.0
vn -0.0 1.0 0.0
vn -0.0 1.0 0.0
vn -0.0 1.0 0.0
vn -0.0 1.0 0.0
vn -0.0 1.0 0.0
vn -0.0 1.0 0.0
vn -0.0 1.0 0.0
vn -0.0 1.0 0.0
vn -0.0 1.0 0.0
vn -0.0 1.0 0.0
vn -0.0 1.0 0.0
vn -0.0 1.0 0.0
vn -0.0 1.0 0.0
vn -0.0 1.0 0.0
vn -0.0 1.0 0.0
vn -0.0 1.0 0.0
vn -0.0 1.0 0.0
vn -0.0 1.0 0.0
vn -0.0 1.0 0.0
vn -0.0 1.0 0.0
vn -0.0 1.0 0.0
vn -0.0 1.0 0.0
vn -0.0 1.0 0.0
vn -0.0 1.0 0.0
vn -0.0 1.0 0.0
vn -0.0 1.0 0.0
vn -0.0 1.0 0.0
vn -0.0 1.0 0.0
vt 0.7544116 0.55931866
vt 0.7609519 0.55055463
vt 0.7609519 0.55931866
vt 0.7544116 0.55055463
vt 0.6241148 0.55931866
vt 0.6241148 0.55055463
vt 0.8912486 0.55055463
vt 0.8912486 0.55931866
vt 0.5494251 0.43321085
vt 0.5160326 0.44197482
vt 0.5160326 0.43321085
vt 0.5494251 0.44197494
vt 0.64960146 0.4332109
vt 0.64960146 0.44197494
vt 0.04747197 0.6256136
vt 0.060779966 0.74919146
vt 0.04747197 0.74919146
vt 0.060779966 0.6256136
vt 0.35307145 0.43392843
vt 0.31967986 0.44125354
vt 0.31967986 0.43392843
vt 0.35307145 0.44125354
vt 0.4532467 0.4339283
vt 0.4532467 0.44125342
vt 0.014233748 0.74919146
vt 9.257564E-4 0.6256136
vt 0.014233748 0.6256136
vt 9.257564E-4 0.74919146
vt 0.14872302 0.441975
vt 0.18211569 0.43321097
vt 0.18211569 0.441975
vt 0.14872302 0.43321097
vt 0.048546806 0.44197506
vt 0.048546806 0.43321097
vt 0.060779966 0.74919146
vt 0.04747197 0.6256136
vt 0.060779966 0.6256136
vt 0.04747197 0.74919146
vt 0.623796 0.7564854
vt 0.31996065 0.80529976
vt 0.31996065 0.7564854
vt 0.5630273 0.80529976
vt 0.623796 0.7503836
vt 0.31996065 0.7564854
vt 0.31996065 0.7503836
vt 0.623796 0.7564854
vt 0.5630273 0.80529976
vt 0.31996065 0.8114015
vt 0.31996065 0.80529976
vt 0.5630273 0.8114015
vt 0.31996065 0.7564854
vt 0.5630439 0.80529976
vt 0.62381256 0.7564854
vt 0.31996065 0.80529976
vt 0.31996065 0.7503836
vt 0.62381256 0.7564854
vt 0.62381256 0.7503836
vt 0.31996065 0.7564854
vt 0.31996065 0.80529976
vt 0.5630439 0.8114015
vt 0.5630439 0.80529976
vt 0.31996065 0.8114015
vt 0.623796 0.7564854
vt 0.31996065 0.80529976
vt 0.31996065 0.7564854
vt 0.5630273 0.80529976
vt 0.623796 0.7503836
vt 0.31996065 0.7564854
vt 0.31996065 0.7503836
vt 0.623796 0.7564854
vt 0.5630273 0.80529976
vt 0.31996065 0.8114015
vt 0.31996065 0.80529976
vt 0.5630273 0.8114015
vt 0.31996065 0.7564854
vt 0.5630439 0.80529976
vt 0.62381256 0.7564854
vt 0.31996065 0.80529976
vt 0.31996065 0.7503836
vt 0.62381256 0.7564854
vt 0.62381256 0.7503836
vt 0.31996065 0.7564854
vt 0.31996065 0.80529976
vt 0.5630439 0.8114015
vt 0.5630439 0.80529976
vt 0.31996065 0.8114015
vt 0.54105467 0.75027037
vt 0.5211931 0.7776922
vt 0.5410547 0.7776922
vt 0.521193 0.75027037
vt 0.936739 0.75027037
vt 0.936739 0.7776922
vt 0.12550876 0.7776922
vt 0.12550873 0.75027037
vt 0.5410547 0.7776922
vt 0.5211931 0.7811199
vt 0.5410547 0.7811199
vt 0.5211931 0.7776922
vt 0.936739 0.7776922
vt 0.936739 0.7811199
vt 0.12550876 0.7811199
vt 0.12550876 0.7776922
vt 0.5410547 0.8085418
vt 0.52119315 0.8119695
vt 0.5410547 0.8119695
vt 0.52119315 0.8085418
vt 0.9367391 0.8085418
vt 0.9367391 0.8119695
vt 0.12550879 0.8119695
vt 0.12550879 0.8085418
vt 0.413479 0.74909216
vt 0.44421816 0.62734216
vt 0.44421816 0.74909216
vt 0.413479 0.62734216
vt 0.64334244 4.886985E-4
vt 0.60995084 0.13078529
vt 0.60995084 4.886985E-4
vt 0.64334244 0.13078529
vt 0.5097757 0.1307854
vt 0.5097756 4.886985E-4
vt 0.23665282 0.74919146
vt 0.012491195 0.6256136
vt 0.23665282 0.6256136
vt 0.012491195 0.74919146
vt 0.02481812 0.6256136
vt 0.24897975 0.74919146
vt 0.02481812 0.74919146
vt 0.24897975 0.6256136
vt 0.50939935 0.13105047
vt 0.60957456 7.536411E-4
vt 0.60957456 0.13105035
vt 0.50939935 7.5376034E-4
vt 0.7449357 0.5959732
vt 0.751476 0.46567637
vt 0.751476 0.5959732
vt 0.7449357 0.46567637
vt 0.614639 0.5959732
vt 0.614639 0.46567637
vt 0.8817727 0.46567637
vt 0.8817727 0.5959732
vt 0.751476 0.46567643
vt 0.7449357 0.59597313
vt 0.7449357 0.46567643
vt 0.751476 0.59597313
vt 0.614639 0.59597313
vt 0.614639 0.46567643
vt 0.8817727 0.46567643
vt 0.8817727 0.59597313
vt 0.44421816 0.62734216
vt 0.413479 0.74909216
vt 0.413479 0.62734216
vt 0.44421816 0.74909216
vt 0.8445638 0.59298766
vt 0.8779562 0.46269095
vt 0.8779562 0.59298766
vt 0.84456366 0.46269095
vt 0.02148958 0.6256136
vt 0.2456512 0.74919146
vt 0.02148958 0.74919146
vt 0.2456512 0.6256136
vt 0.23394756 0.74919146
vt 0.009785938 0.6256136
vt 0.23394756 0.6256136
vt 0.009785938 0.74919146
vt 0.413479 0.74909216
vt 0.44421816 0.62734216
vt 0.44421816 0.74909216
vt 0.41347888 0.62734216
vt 0.51064676 0.46269107
vt 0.4772541 0.5929878
vt 0.4772541 0.46269107
vt 0.51064676 0.5929878
vt 0.23394756 0.74919146
vt 0.009785938 0.6256136
vt 0.23394756 0.6256136
vt 0.009785938 0.74919146
vt 0.02148958 0.6256136
vt 0.2456512 0.74919146
vt 0.02148958 0.74919146
vt 0.2456512 0.6256136
vt 0.26431647 0.13029683
vt 0.36449257 5.9604645E-8
vt 0.36449268 0.13029683
vt 0.26431635 1.1920929E-7
vt 0.36449257 5.9604645E-8
vt 0.26431635 0.13029683
vt 0.26431635 1.7881393E-7
vt 0.36449257 0.13029683
vt 0.8612625 0.0
vt 0.76108617 0.1302967
vt 0.76108617 0.0
vt 0.8612625 0.13029677
vt 0.76108617 0.1302967
vt 0.8612625 0.0
vt 0.8612625 0.1302967
vt 0.76108617 0.0

g Two_Lane_05
s 1
usemtl Two_Lane_05
f 3/3/3 2/2/2 1/1/1 
f 4/4/4 1/1/1 2/2/2 
f 1/1/1 4/4/4 5/5/5 
f 6/6/6 5/5/5 4/4/4 
f 2/2/2 3/3/3 7/7/7 
f 8/8/8 7/7/7 3/3/3 
f 11/11/11 10/10/10 9/9/9 
f 12/12/12 9/9/9 10/10/10 
f 9/9/9 12/12/12 13/13/13 
f 14/14/14 13/13/13 12/12/12 
f 17/17/17 16/16/16 15/15/15 
f 18/18/18 15/15/15 16/16/16 
f 21/21/21 20/20/20 19/19/19 
f 22/22/22 19/19/19 20/20/20 
f 19/19/19 22/22/22 23/23/23 
f 24/24/24 23/23/23 22/22/22 
f 27/27/27 26/26/26 25/25/25 
f 28/28/28 25/25/25 26/26/26 
f 31/31/31 30/30/30 29/29/29 
f 32/32/32 29/29/29 30/30/30 
f 29/29/29 32/32/32 33/33/33 
f 34/34/34 33/33/33 32/32/32 
f 37/37/37 36/36/36 35/35/35 
f 38/38/38 35/35/35 36/36/36 
f 41/41/41 40/40/40 39/39/39 
f 42/42/42 39/39/39 40/40/40 
f 45/45/45 44/44/44 43/43/43 
f 46/46/46 43/43/43 44/44/44 
f 49/49/49 48/48/48 47/47/47 
f 50/50/50 47/47/47 48/48/48 
f 53/53/53 52/52/52 51/51/51 
f 54/54/54 51/51/51 52/52/52 
f 57/57/57 56/56/56 55/55/55 
f 58/58/58 55/55/55 56/56/56 
f 61/61/61 60/60/60 59/59/59 
f 62/62/62 59/59/59 60/60/60 
f 65/65/65 64/64/64 63/63/63 
f 66/66/66 63/63/63 64/64/64 
f 69/69/69 68/68/68 67/67/67 
f 70/70/70 67/67/67 68/68/68 
f 73/73/73 72/72/72 71/71/71 
f 74/74/74 71/71/71 72/72/72 
f 77/77/77 76/76/76 75/75/75 
f 78/78/78 75/75/75 76/76/76 
f 81/81/81 80/80/80 79/79/79 
f 82/82/82 79/79/79 80/80/80 
f 85/85/85 84/84/84 83/83/83 
f 86/86/86 83/83/83 84/84/84 
f 89/89/89 88/88/88 87/87/87 
f 90/90/90 87/87/87 88/88/88 
f 87/87/87 91/91/91 89/89/89 
f 92/92/92 89/89/89 91/91/91 
f 88/88/88 93/93/93 90/90/90 
f 94/94/94 90/90/90 93/93/93 
f 97/97/97 96/96/96 95/95/95 
f 98/98/98 95/95/95 96/96/96 
f 95/95/95 99/99/99 97/97/97 
f 100/100/100 97/97/97 99/99/99 
f 96/96/96 101/101/101 98/98/98 
f 102/102/102 98/98/98 101/101/101 
f 105/105/105 104/104/104 103/103/103 
f 106/106/106 103/103/103 104/104/104 
f 103/103/103 107/107/107 105/105/105 
f 108/108/108 105/105/105 107/107/107 
f 104/104/104 109/109/109 106/106/106 
f 110/110/110 106/106/106 109/109/109 
f 113/113/113 112/112/112 111/111/111 
f 114/114/114 111/111/111 112/112/112 
f 117/117/117 116/116/116 115/115/115 
f 118/118/118 115/115/115 116/116/116 
f 116/116/116 117/117/117 119/119/119 
f 120/120/120 119/119/119 117/117/117 
f 123/123/123 122/122/122 121/121/121 
f 124/124/124 121/121/121 122/122/122 
f 127/127/127 126/126/126 125/125/125 
f 128/128/128 125/125/125 126/126/126 
f 131/131/131 130/130/130 129/129/129 
f 132/132/132 129/129/129 130/130/130 
f 135/135/135 134/134/134 133/133/133 
f 136/136/136 133/133/133 134/134/134 
f 133/133/133 136/136/136 137/137/137 
f 138/138/138 137/137/137 136/136/136 
f 134/134/134 135/135/135 139/139/139 
f 140/140/140 139/139/139 135/135/135 
f 143/143/143 142/142/142 141/141/141 
f 144/144/144 141/141/141 142/142/142 
f 142/142/142 143/143/143 145/145/145 
f 146/146/146 145/145/145 143/143/143 
f 141/141/141 144/144/144 147/147/147 
f 148/148/148 147/147/147 144/144/144 
f 151/151/151 150/150/150 149/149/149 
f 152/152/152 149/149/149 150/150/150 
f 155/155/155 154/154/154 153/153/153 
f 156/156/156 153/153/153 154/154/154 
f 159/159/159 158/158/158 157/157/157 
f 160/160/160 157/157/157 158/158/158 
f 163/163/163 162/162/162 161/161/161 
f 164/164/164 161/161/161 162/162/162 
f 167/167/167 166/166/166 165/165/165 
f 168/168/168 165/165/165 166/166/166 
f 171/171/171 170/170/170 169/169/169 
f 172/172/172 169/169/169 170/170/170 
f 175/175/175 174/174/174 173/173/173 
f 176/176/176 173/173/173 174/174/174 
f 179/179/179 178/178/178 177/177/177 
f 180/180/180 177/177/177 178/178/178 
f 183/183/183 182/182/182 181/181/181 
f 184/184/184 181/181/181 182/182/182 
f 187/187/187 186/186/186 185/185/185 
f 188/188/188 185/185/185 186/186/186 
f 191/191/191 190/190/190 189/189/189 
f 192/192/192 189/189/189 190/190/190 
f 195/195/195 194/194/194 193/193/193 
f 196/196/196 193/193/193 194/194/194 

