# Created by DisUnity v0.3.4
v -14.685078 0.4856713 -18.116243
v -17.933052 0.4856713 -21.366457
v -14.001055 0.48567122 -19.995565
v -18.280342 0.48567137 -19.396908
v -11.639402 0.48567125 -16.696016
v -10.639433 0.48567116 -18.428009
v -21.999907 0.4856714 -22.00004
v -21.999912 0.4856715 -20.000107
v -14.685078 0.24985495 -18.116243
v -18.280342 0.48567137 -19.396908
v -14.685078 0.4856713 -18.116243
v -18.280342 0.24985503 -19.396908
v -11.639402 0.24985489 -16.696016
v -11.639402 0.48567125 -16.696016
v -21.999912 0.4856715 -20.000107
v -21.999912 0.24985513 -20.000105
v -14.001055 0.48567122 -19.995565
v -17.933052 5.1409006E-5 -21.366457
v -14.001055 5.13196E-5 -19.995565
v -17.933052 0.4856713 -21.366457
v -10.639433 0.48567116 -18.428009
v -10.639433 5.1259995E-5 -18.428009
v -21.999907 5.1498413E-5 -22.00004
v -21.999907 0.4856714 -22.00004
v -18.105286 0.4856717 -8.71935
v -19.669548 0.48567173 -11.518411
v -17.421263 0.48567164 -10.598671
v -20.016838 0.48567182 -9.548861
v -16.6394 0.4856716 -8.035794
v -15.639431 0.48567155 -9.767786
v -21.99993 0.48567185 -12.000069
v -21.999933 0.48567194 -10.000134
v -18.105286 5.1796436E-5 -8.71935
v -20.016838 0.48567182 -9.548861
v -18.105286 0.4856717 -8.71935
v -20.016838 5.1915646E-5 -9.548861
v -16.6394 5.170703E-5 -8.035794
v -16.6394 0.4856716 -8.035794
v -21.999933 0.48567194 -10.000134
v -21.999933 5.2034855E-5 -10.000134
v -17.421263 0.48567164 -10.598671
v -19.669548 0.24985537 -11.51841
v -17.421263 0.24985528 -10.598672
v -19.669548 0.48567173 -11.518411
v -15.639431 0.48567155 -9.767786
v -15.639431 0.24985519 -9.767786
v -21.99993 0.24985549 -12.000069
v -21.99993 0.48567185 -12.000069
v -17.421263 0.24985528 -10.598672
v -18.280342 0.24985503 -19.396908
v -14.685078 0.24985495 -18.116243
v -19.669548 0.24985537 -11.51841
v -15.639431 0.24985519 -9.767786
v -11.639402 0.24985489 -16.696016
v -21.999912 0.24985513 -20.000105
v -21.99993 0.24985549 -12.000069
v -2.2928536 0.48567125 -3.3477154
v -1.2832975 0.4856712 -7.27777
v -0.32330227 0.48567125 -3.6949959
v -3.1626222 0.48567122 -6.5937557
v -1.9999695 0.48567128 4.386902E-5
v -3.528595E-5 0.48567128 4.7683716E-5
v -2.8508525 0.48567116 -10.639411
v -4.582847 0.48567122 -9.639445
v -2.2928538 0.24985489 -3.3477173
v -3.1626222 0.48567122 -6.5937557
v -2.2928536 0.48567125 -3.3477154
v -3.1626222 0.24985486 -6.5937557
v -1.9999695 0.24985492 4.005432E-5
v -1.9999695 0.48567128 4.386902E-5
v -4.582847 0.48567122 -9.639445
v -4.5828476 0.24985485 -9.639444
v -0.32330227 0.48567125 -3.6949959
v -1.2832975 5.1289797E-5 -7.27777
v -0.32330227 5.13196E-5 -3.6949959
v -1.2832975 0.4856712 -7.27777
v -3.528595E-5 0.48567128 4.7683716E-5
v -3.528595E-5 5.1379204E-5 4.7683716E-5
v -2.8508525 5.1259995E-5 -10.639411
v -2.8508525 0.48567116 -10.639411
v -12.140906 0.48567134 -1.6112576
v -10.680202 0.48567137 -3.8575897
v -10.171355 0.4856713 -1.9585361
v -12.559526 0.48567137 -3.1735744
v -11.999941 0.48567128 1.9073486E-5
v -10.000007 0.48567128 2.4795532E-5
v -11.511086 0.4856714 -5.639431
v -13.243081 0.48567143 -4.6394653
v -12.140906 5.1409006E-5 -1.6112576
v -12.559526 0.48567137 -3.1735744
v -12.140906 0.48567134 -1.6112576
v -12.559526 5.146861E-5 -3.1735744
v -11.999941 5.1379204E-5 1.9073486E-5
v -11.999941 0.48567128 1.9073486E-5
v -13.243081 0.48567143 -4.6394653
v -13.243081 5.1498413E-5 -4.6394653
v -10.171355 0.4856713 -1.9585361
v -10.6802025 0.24985498 -3.8575897
v -10.171354 0.24985495 -1.9585361
v -10.680202 0.48567137 -3.8575897
v -10.000007 0.48567128 2.4795532E-5
v -10.000007 0.24985492 2.4795532E-5
v -11.511086 0.24985503 -5.639431
v -11.511086 0.4856714 -5.639431
v -10.171354 0.24985495 -1.9585361
v -3.1626222 0.24985486 -6.5937557
v -2.2928538 0.24985489 -3.3477173
v -10.6802025 0.24985498 -3.8575897
v -10.000007 0.24985492 2.4795532E-5
v -1.9999695 0.24985492 4.005432E-5
v -4.5828476 0.24985485 -9.639444
v -11.511086 0.24985503 -5.639431
v -7.6010833 0.48567113 -16.300528
v -6.5103664 0.48567122 -12.392234
v -8.88662 0.48567122 -14.768491
v -4.978326 0.48567116 -13.677764
v -10.639433 0.48567116 -18.428009
v -11.639402 0.48567125 -16.696016
v -4.582847 0.48567122 -9.639445
v -2.8508525 0.48567116 -10.639411
v -8.88662 0.48567122 -14.768491
v -6.5103664 0.24985485 -12.392234
v -8.88662 0.24985486 -14.768491
v -6.5103664 0.48567122 -12.392234
v -11.639402 0.48567125 -16.696016
v -11.639402 0.24985489 -16.696016
v -4.5828476 0.24985485 -9.639444
v -4.582847 0.48567122 -9.639445
v -7.6010833 5.1230192E-5 -16.300528
v -4.978326 0.48567116 -13.677764
v -7.6010833 0.48567113 -16.300528
v -4.978326 5.1230192E-5 -13.677764
v -10.639433 5.1259995E-5 -18.428009
v -10.639433 0.48567116 -18.428009
v -2.8508525 0.48567116 -10.639411
v -2.8508525 5.1259995E-5 -10.639411
v -14.028951 0.4856715 -8.640112
v -14.170796 0.4856715 -5.964382
v -15.3144865 0.48567155 -7.108076
v -12.638756 0.48567146 -7.249914
v -15.639431 0.48567155 -9.767786
v -16.6394 0.4856716 -8.035794
v -13.243081 0.48567143 -4.6394653
v -11.511086 0.4856714 -5.639431
v -15.3144865 0.48567155 -7.108076
v -14.170796 5.158782E-5 -5.964382
v -15.3144865 5.1647425E-5 -7.108076
v -14.170796 0.4856715 -5.964382
v -16.6394 0.4856716 -8.035794
v -16.6394 5.170703E-5 -8.035794
v -13.243081 5.1498413E-5 -4.6394653
v -13.243081 0.48567143 -4.6394653
v -14.028951 0.24985513 -8.640113
v -12.638756 0.48567146 -7.249914
v -14.028951 0.4856715 -8.640112
v -12.638756 0.24985507 -7.249914
v -15.639431 0.24985519 -9.767786
v -15.639431 0.48567155 -9.767786
v -11.511086 0.4856714 -5.639431
v -11.511086 0.24985503 -5.639431
v -8.88662 0.24985486 -14.768491
v -12.638756 0.24985507 -7.249914
v -14.028951 0.24985513 -8.640113
v -6.5103664 0.24985485 -12.392234
v -11.639402 0.24985489 -16.696016
v -15.639431 0.24985519 -9.767786
v -11.511086 0.24985503 -5.639431
v -4.5828476 0.24985485 -9.639444
vn -0.0 1.0 0.0
vn -0.0 1.0 0.0
vn -0.0 1.0 0.0
vn -0.0 1.0 0.0
vn -0.0 1.0 0.0
vn -0.0 1.0 0.0
vn -0.0 1.0 0.0
vn -0.0 1.0 0.0
vn -0.37950805 0.0 0.9251885
vn -0.24883988 0.0 0.96854454
vn -0.37950805 0.0 0.92518836
vn -0.24883988 0.0 0.96854466
vn -0.5000012 0.0 0.86602473
vn -0.50000125 0.0 0.8660246
vn -0.16007727 0.0 0.9871044
vn -0.16007724 0.0 0.9871044
vn 0.3763957 0.0 -0.92645895
vn 0.24256666 0.0 -0.9701347
vn 0.37639567 0.0 -0.92645895
vn 0.24256663 0.0 -0.9701347
vn 0.5000013 0.0 -0.8660246
vn 0.50000125 0.0 -0.8660246
vn 0.15393502 0.0 -0.988081
vn 0.15393502 0.0 -0.988081
vn -0.0 1.0 0.0
vn -0.0 1.0 0.0
vn -0.0 1.0 0.0
vn -0.0 1.0 0.0
vn -0.0 1.0 0.0
vn -0.0 1.0 0.0
vn -0.0 1.0 0.0
vn -0.0 1.0 0.0
vn -0.41038716 0.0 0.9119115
vn -0.31132486 0.0 0.95030355
vn -0.41038716 0.0 0.9119115
vn -0.31132486 0.0 0.95030355
vn -0.50000125 0.0 0.86602473
vn -0.5000012 0.0 0.86602473
vn -0.22188783 0.0 0.97507226
vn -0.22188783 0.0 0.97507226
vn 0.40073904 0.0 -0.9161922
vn 0.29175892 0.0 -0.9564919
vn 0.40073904 0.0 -0.9161923
vn 0.29175878 0.0 -0.9564919
vn 0.5000015 0.0 -0.86602455
vn 0.5000015 0.0 -0.86602455
vn 0.20240821 0.0 -0.9793012
vn 0.2024082 0.0 -0.9793012
vn -0.0 1.0 0.0
vn -0.0 1.0 0.0
vn -0.0 1.0 0.0
vn -0.0 1.0 0.0
vn -0.0 1.0 0.0
vn -0.0 1.0 0.0
vn -0.0 1.0 0.0
vn -0.0 1.0 0.0
vn -0.0 1.0 0.0
vn -0.0 1.0 0.0
vn -0.0 1.0 0.0
vn -0.0 1.0 0.0
vn -0.0 1.0 0.0
vn -0.0 1.0 0.0
vn -0.0 1.0 0.0
vn -0.0 1.0 0.0
vn -0.98480797 0.0 0.17364688
vn -0.93969303 0.0 0.34201908
vn -0.9848082 0.0 0.17364605
vn -0.93969303 0.0 0.34201905
vn -0.99619484 0.0 0.08715371
vn -0.99619484 0.0 0.08715372
vn -0.8660258 0.0 0.49999934
vn -0.86602587 0.0 0.49999917
vn 0.9848081 0.0 -0.17364639
vn 0.93969303 0.0 -0.34201893
vn 0.9848081 0.0 -0.17364642
vn 0.93969303 0.0 -0.34201896
vn 0.99619484 0.0 -0.08715374
vn 0.99619484 0.0 -0.08715373
vn 0.86602587 0.0 -0.49999917
vn 0.86602587 0.0 -0.49999914
vn -0.0 1.0 0.0
vn -0.0 1.0 0.0
vn -0.0 1.0 0.0
vn -0.0 1.0 0.0
vn -0.0 1.0 0.0
vn -0.0 1.0 0.0
vn -0.0 1.0 0.0
vn -0.0 1.0 0.0
vn -0.98480797 0.0 0.17364687
vn -0.939693 0.0 0.34201932
vn -0.98480797 0.0 0.17364685
vn -0.939693 0.0 0.34201935
vn -0.99619484 0.0 0.08715392
vn -0.99619484 0.0 0.08715393
vn -0.8660258 0.0 0.49999928
vn -0.8660258 0.0 0.49999928
vn 0.98480797 0.0 -0.17364691
vn 0.93969303 0.0 -0.3420189
vn 0.98480797 0.0 -0.17364691
vn 0.93969315 0.0 -0.34201875
vn 0.99619496 0.0 -0.08715363
vn 0.99619496 0.0 -0.08715359
vn 0.86602587 0.0 -0.49999917
vn 0.86602587 0.0 -0.49999914
vn -0.0 1.0 0.0
vn -0.0 1.0 0.0
vn -0.0 1.0 0.0
vn -0.0 1.0 0.0
vn -0.0 1.0 0.0
vn -0.0 1.0 0.0
vn -0.0 1.0 0.0
vn -0.0 1.0 0.0
vn -0.0 1.0 0.0
vn -0.0 1.0 0.0
vn -0.0 1.0 0.0
vn -0.0 1.0 0.0
vn -0.0 1.0 0.0
vn -0.0 1.0 0.0
vn -0.0 1.0 0.0
vn -0.0 1.0 0.0
vn -0.64278847 0.0 0.76604366
vn -0.7660451 0.0 0.6427868
vn -0.64278847 0.0 0.76604366
vn -0.76604515 0.0 0.6427868
vn -0.50000125 0.0 0.8660246
vn -0.5000012 0.0 0.86602473
vn -0.86602587 0.0 0.49999917
vn -0.8660258 0.0 0.49999934
vn 0.6427886 0.0 -0.7660436
vn 0.7660451 0.0 -0.6427868
vn 0.64278865 0.0 -0.76604354
vn 0.7660451 0.0 -0.6427868
vn 0.50000125 0.0 -0.8660246
vn 0.5000013 0.0 -0.8660246
vn 0.86602587 0.0 -0.49999914
vn 0.86602587 0.0 -0.49999917
vn -0.0 1.0 0.0
vn -0.0 1.0 0.0
vn -0.0 1.0 0.0
vn -0.0 1.0 0.0
vn -0.0 1.0 0.0
vn -0.0 1.0 0.0
vn -0.0 1.0 0.0
vn -0.0 1.0 0.0
vn -0.6427889 0.0 0.7660433
vn -0.7660452 0.0 0.6427867
vn -0.6427889 0.0 0.7660433
vn -0.7660452 0.0 0.6427867
vn -0.5000012 0.0 0.86602473
vn -0.50000125 0.0 0.86602473
vn -0.8660258 0.0 0.49999928
vn -0.8660258 0.0 0.49999928
vn 0.64278835 0.0 -0.76604384
vn 0.7660453 0.0 -0.64278656
vn 0.6427885 0.0 -0.76604366
vn 0.7660453 0.0 -0.64278656
vn 0.5000015 0.0 -0.86602455
vn 0.5000015 0.0 -0.86602455
vn 0.86602587 0.0 -0.49999914
vn 0.86602587 0.0 -0.49999917
vn -0.0 1.0 0.0
vn -0.0 1.0 0.0
vn -0.0 1.0 0.0
vn -0.0 1.0 0.0
vn -0.0 1.0 0.0
vn -0.0 1.0 0.0
vn -0.0 1.0 0.0
vn -0.0 1.0 0.0
vt 0.58390015 0.7779535
vt 0.48239252 0.751142
vt 0.58390015 0.751142
vt 0.48239255 0.7779535
vt 0.68540776 0.7779535
vt 0.68540776 0.751142
vt 0.38088492 0.751142
vt 0.38088495 0.7779535
vt 0.58390015 0.78130496
vt 0.48239255 0.7779535
vt 0.58390015 0.7779535
vt 0.48239255 0.78130496
vt 0.68540776 0.78130496
vt 0.68540776 0.7779535
vt 0.38088495 0.7779535
vt 0.38088495 0.78130496
vt 0.5839002 0.8114679
vt 0.48239258 0.80811644
vt 0.5839002 0.80811644
vt 0.48239258 0.8114679
vt 0.6854078 0.8114679
vt 0.6854078 0.80811644
vt 0.38088495 0.80811644
vt 0.38088495 0.8114679
vt 0.58390015 0.7779535
vt 0.48239255 0.751142
vt 0.58390015 0.751142
vt 0.48239255 0.7779535
vt 0.68540776 0.7779535
vt 0.68540776 0.751142
vt 0.38088495 0.751142
vt 0.38088495 0.7779535
vt 0.58390015 0.78130496
vt 0.48239255 0.7779535
vt 0.58390015 0.7779535
vt 0.48239255 0.78130496
vt 0.68540776 0.78130496
vt 0.68540776 0.7779535
vt 0.38088495 0.7779535
vt 0.38088495 0.78130496
vt 0.5839002 0.8114679
vt 0.48239258 0.80811644
vt 0.5839002 0.80811644
vt 0.48239258 0.8114679
vt 0.6854078 0.8114679
vt 0.6854078 0.80811644
vt 0.38088498 0.80811644
vt 0.38088498 0.8114679
vt 0.45960695 0.0018787384
vt 0.41988915 0.12361574
vt 0.45960698 0.1236158
vt 0.41988912 0.0018787384
vt 0.49932477 0.0018787384
vt 0.4993248 0.1236158
vt 0.38017133 0.12361574
vt 0.3801713 0.0018787384
vt 0.5848378 0.7779535
vt 0.48286137 0.751142
vt 0.5848378 0.751142
vt 0.4828614 0.7779535
vt 0.68681425 0.7779535
vt 0.68681425 0.751142
vt 0.38088492 0.751142
vt 0.38088495 0.7779535
vt 0.5848378 0.78130496
vt 0.4828614 0.7779535
vt 0.5848378 0.7779535
vt 0.4828614 0.78130496
vt 0.68681425 0.78130496
vt 0.68681425 0.7779535
vt 0.38088495 0.7779535
vt 0.38088495 0.78130496
vt 0.58483785 0.8114679
vt 0.4828614 0.80811644
vt 0.58483785 0.80811644
vt 0.4828614 0.8114679
vt 0.6868143 0.8114679
vt 0.6868143 0.80811644
vt 0.38088495 0.80811644
vt 0.38088495 0.8114679
vt 0.5848378 0.7779535
vt 0.48286137 0.751142
vt 0.5848378 0.751142
vt 0.4828614 0.7779535
vt 0.68681425 0.7779535
vt 0.68681425 0.751142
vt 0.38088495 0.751142
vt 0.38088495 0.7779535
vt 0.5848378 0.78130496
vt 0.4828614 0.7779535
vt 0.5848378 0.7779535
vt 0.4828614 0.78130496
vt 0.68681425 0.78130496
vt 0.68681425 0.7779535
vt 0.38088495 0.7779535
vt 0.38088495 0.78130496
vt 0.58483785 0.8114679
vt 0.48286143 0.80811644
vt 0.58483785 0.80811644
vt 0.48286143 0.8114679
vt 0.6868143 0.8114679
vt 0.6868143 0.80811644
vt 0.38088498 0.80811644
vt 0.38088498 0.8114679
vt 0.45997384 0.0018787384
vt 0.4200726 0.12361574
vt 0.45997387 0.1236158
vt 0.42007256 0.0018787384
vt 0.49987513 0.0018787384
vt 0.49987513 0.1236158
vt 0.38017133 0.12361574
vt 0.3801713 0.0018787384
vt 0.58390015 0.751142
vt 0.48239255 0.7779535
vt 0.58390015 0.7779535
vt 0.48239255 0.751142
vt 0.68540776 0.751142
vt 0.68540776 0.7779535
vt 0.38088495 0.7779535
vt 0.38088492 0.751142
vt 0.58390015 0.7779535
vt 0.48239255 0.78130496
vt 0.58390015 0.78130496
vt 0.48239255 0.7779535
vt 0.68540776 0.7779535
vt 0.68540776 0.78130496
vt 0.38088495 0.78130496
vt 0.38088495 0.7779535
vt 0.5839002 0.80811644
vt 0.48239255 0.8114679
vt 0.5839002 0.8114679
vt 0.48239255 0.80811644
vt 0.6854078 0.80811644
vt 0.6854078 0.8114679
vt 0.38088495 0.8114679
vt 0.38088495 0.80811644
vt 0.58390015 0.751142
vt 0.48239255 0.7779535
vt 0.58390015 0.7779535
vt 0.48239255 0.751142
vt 0.68540776 0.751142
vt 0.68540776 0.7779535
vt 0.38088495 0.7779535
vt 0.38088495 0.751142
vt 0.58390015 0.7779535
vt 0.48239255 0.78130496
vt 0.58390015 0.78130496
vt 0.48239255 0.7779535
vt 0.68540776 0.7779535
vt 0.68540776 0.78130496
vt 0.38088495 0.78130496
vt 0.38088495 0.7779535
vt 0.5839002 0.80811644
vt 0.4823926 0.8114679
vt 0.5839002 0.8114679
vt 0.4823926 0.80811644
vt 0.6854078 0.80811644
vt 0.6854078 0.8114679
vt 0.38088498 0.8114679
vt 0.38088498 0.80811644
vt 0.45960698 0.1236158
vt 0.41988912 0.0018787384
vt 0.45960695 0.0018787384
vt 0.41988915 0.12361574
vt 0.4993248 0.1236158
vt 0.49932477 0.0018787384
vt 0.3801713 0.0018787384
vt 0.38017133 0.12361574

g Two_Lane_90Degrees_01
s 1
usemtl Two_Lane_90Degrees_01
f 3/3/3 2/2/2 1/1/1 
f 4/4/4 1/1/1 2/2/2 
f 1/1/1 5/5/5 3/3/3 
f 6/6/6 3/3/3 5/5/5 
f 2/2/2 7/7/7 4/4/4 
f 8/8/8 4/4/4 7/7/7 
f 11/11/11 10/10/10 9/9/9 
f 12/12/12 9/9/9 10/10/10 
f 9/9/9 13/13/13 11/11/11 
f 14/14/14 11/11/11 13/13/13 
f 10/10/10 15/15/15 12/12/12 
f 16/16/16 12/12/12 15/15/15 
f 19/19/19 18/18/18 17/17/17 
f 20/20/20 17/17/17 18/18/18 
f 17/17/17 21/21/21 19/19/19 
f 22/22/22 19/19/19 21/21/21 
f 18/18/18 23/23/23 20/20/20 
f 24/24/24 20/20/20 23/23/23 
f 27/27/27 26/26/26 25/25/25 
f 28/28/28 25/25/25 26/26/26 
f 25/25/25 29/29/29 27/27/27 
f 30/30/30 27/27/27 29/29/29 
f 26/26/26 31/31/31 28/28/28 
f 32/32/32 28/28/28 31/31/31 
f 35/35/35 34/34/34 33/33/33 
f 36/36/36 33/33/33 34/34/34 
f 33/33/33 37/37/37 35/35/35 
f 38/38/38 35/35/35 37/37/37 
f 34/34/34 39/39/39 36/36/36 
f 40/40/40 36/36/36 39/39/39 
f 43/43/43 42/42/42 41/41/41 
f 44/44/44 41/41/41 42/42/42 
f 41/41/41 45/45/45 43/43/43 
f 46/46/46 43/43/43 45/45/45 
f 42/42/42 47/47/47 44/44/44 
f 48/48/48 44/44/44 47/47/47 
f 51/51/51 50/50/50 49/49/49 
f 52/52/52 49/49/49 50/50/50 
f 49/49/49 53/53/53 51/51/51 
f 54/54/54 51/51/51 53/53/53 
f 50/50/50 55/55/55 52/52/52 
f 56/56/56 52/52/52 55/55/55 
f 59/59/59 58/58/58 57/57/57 
f 60/60/60 57/57/57 58/58/58 
f 57/57/57 61/61/61 59/59/59 
f 62/62/62 59/59/59 61/61/61 
f 58/58/58 63/63/63 60/60/60 
f 64/64/64 60/60/60 63/63/63 
f 67/67/67 66/66/66 65/65/65 
f 68/68/68 65/65/65 66/66/66 
f 65/65/65 69/69/69 67/67/67 
f 70/70/70 67/67/67 69/69/69 
f 66/66/66 71/71/71 68/68/68 
f 72/72/72 68/68/68 71/71/71 
f 75/75/75 74/74/74 73/73/73 
f 76/76/76 73/73/73 74/74/74 
f 73/73/73 77/77/77 75/75/75 
f 78/78/78 75/75/75 77/77/77 
f 74/74/74 79/79/79 76/76/76 
f 80/80/80 76/76/76 79/79/79 
f 83/83/83 82/82/82 81/81/81 
f 84/84/84 81/81/81 82/82/82 
f 81/81/81 85/85/85 83/83/83 
f 86/86/86 83/83/83 85/85/85 
f 82/82/82 87/87/87 84/84/84 
f 88/88/88 84/84/84 87/87/87 
f 91/91/91 90/90/90 89/89/89 
f 92/92/92 89/89/89 90/90/90 
f 89/89/89 93/93/93 91/91/91 
f 94/94/94 91/91/91 93/93/93 
f 90/90/90 95/95/95 92/92/92 
f 96/96/96 92/92/92 95/95/95 
f 99/99/99 98/98/98 97/97/97 
f 100/100/100 97/97/97 98/98/98 
f 97/97/97 101/101/101 99/99/99 
f 102/102/102 99/99/99 101/101/101 
f 98/98/98 103/103/103 100/100/100 
f 104/104/104 100/100/100 103/103/103 
f 107/107/107 106/106/106 105/105/105 
f 108/108/108 105/105/105 106/106/106 
f 105/105/105 109/109/109 107/107/107 
f 110/110/110 107/107/107 109/109/109 
f 106/106/106 111/111/111 108/108/108 
f 112/112/112 108/108/108 111/111/111 
f 115/115/115 114/114/114 113/113/113 
f 116/116/116 113/113/113 114/114/114 
f 113/113/113 117/117/117 115/115/115 
f 118/118/118 115/115/115 117/117/117 
f 114/114/114 119/119/119 116/116/116 
f 120/120/120 116/116/116 119/119/119 
f 123/123/123 122/122/122 121/121/121 
f 124/124/124 121/121/121 122/122/122 
f 121/121/121 125/125/125 123/123/123 
f 126/126/126 123/123/123 125/125/125 
f 122/122/122 127/127/127 124/124/124 
f 128/128/128 124/124/124 127/127/127 
f 131/131/131 130/130/130 129/129/129 
f 132/132/132 129/129/129 130/130/130 
f 129/129/129 133/133/133 131/131/131 
f 134/134/134 131/131/131 133/133/133 
f 130/130/130 135/135/135 132/132/132 
f 136/136/136 132/132/132 135/135/135 
f 139/139/139 138/138/138 137/137/137 
f 140/140/140 137/137/137 138/138/138 
f 137/137/137 141/141/141 139/139/139 
f 142/142/142 139/139/139 141/141/141 
f 138/138/138 143/143/143 140/140/140 
f 144/144/144 140/140/140 143/143/143 
f 147/147/147 146/146/146 145/145/145 
f 148/148/148 145/145/145 146/146/146 
f 145/145/145 149/149/149 147/147/147 
f 150/150/150 147/147/147 149/149/149 
f 146/146/146 151/151/151 148/148/148 
f 152/152/152 148/148/148 151/151/151 
f 155/155/155 154/154/154 153/153/153 
f 156/156/156 153/153/153 154/154/154 
f 153/153/153 157/157/157 155/155/155 
f 158/158/158 155/155/155 157/157/157 
f 154/154/154 159/159/159 156/156/156 
f 160/160/160 156/156/156 159/159/159 
f 163/163/163 162/162/162 161/161/161 
f 164/164/164 161/161/161 162/162/162 
f 161/161/161 165/165/165 163/163/163 
f 166/166/166 163/163/163 165/165/165 
f 162/162/162 167/167/167 164/164/164 
f 168/168/168 164/164/164 167/167/167 

