# Created by DisUnity v0.3.4
v -10.000061 0.2542499 -9.999958
v -2.0001056 0.2542513 -17.999914
v -2.000107 0.2542513 -9.999957
v -10.000058 0.2542499 -17.999914
v 7.9999747 0.25425324 -17.999908
v -1.2036632E-4 0.25425172 -9.999955
v -1.1706021E-4 0.25425172 -17.999907
v 7.9999714 0.25425324 -9.999953
v -2.000107 0.2542513 -9.999957
v -1.1706021E-4 0.25425172 -17.999907
v -1.2036632E-4 0.25425172 -9.999955
v -2.0001056 0.2542513 -17.999914
v -2.0001125 0.25425148 2.511312E-6
v -10.000061 0.25424993 -7.9999714
v -2.0001092 0.25425133 -7.999971
v -10.000065 0.25425008 -7.9479287E-7
v -10.000061 0.2542499 -9.999958
v -2.0001092 0.25425133 -7.999971
v -10.000061 0.25424993 -7.9999714
v -2.000107 0.2542513 -9.999957
v -20.000141 0.25424835 -9.999965
v -12.000045 0.25424963 -17.999916
v -12.000047 0.25424963 -9.99996
v -20.000135 0.25424835 -17.999918
v -10.000058 0.2542499 -17.999914
v -12.000047 0.25424963 -9.99996
v -12.000045 0.25424963 -17.999916
v -10.000061 0.2542499 -9.999958
v -10.000058 0.49422672 -9.999969
v -12.000072 0.4942266 -1.0681229E-5
v -12.000073 0.49422652 -8.000076
v -10.000056 0.49422693 -1.0331534E-5
v -10.000058 0.2542499 -9.999969
v -10.000056 0.49422693 -1.0331534E-5
v -10.000058 0.49422672 -9.999969
v -10.000056 0.25425008 -1.0331534E-5
v -12.000073 0.49422652 -8.000076
v -12.000072 3.885023E-5 -1.0681229E-5
v -12.000073 3.8790626E-5 -8.000076
v -12.000072 0.4942266 -1.0681229E-5
v -20.000132 0.4942252 -9.999969
v -12.000073 0.49422652 -8.000076
v -20.000132 0.4942252 -8.000076
v -10.000058 0.49422672 -9.999969
v -20.000132 0.25424835 -9.999969
v -10.000058 0.49422672 -9.999969
v -20.000132 0.4942252 -9.999969
v -10.000058 0.2542499 -9.999969
v -20.000132 0.4942252 -8.000076
v -12.000073 3.8790626E-5 -8.000076
v -20.00013 3.7451457E-5 -8.000076
v -12.000073 0.49422652 -8.000076
v -2.0001032 0.49422812 -9.999965
v 7.9999766 0.4942301 -8.000077
v -8.833302E-5 0.49422854 -8.000072
v 7.9999785 0.4942301 -9.999971
v -2.0001032 0.2542513 -9.999965
v 7.9999785 0.4942301 -9.999971
v -2.0001032 0.49422812 -9.999965
v 7.999979 0.25425324 -9.999971
v -8.833302E-5 0.49422854 -8.000072
v 7.9999785 4.234715E-5 -8.000077
v -8.824662E-5 4.088877E-5 -8.000072
v 7.9999766 0.4942301 -8.000077
v -2.000101 0.49422833 -1.6562171E-5
v -8.833302E-5 0.49422854 -8.000072
v -8.400975E-5 0.4942287 -1.5258804E-5
v -2.0001032 0.49422812 -9.999965
v -2.000101 0.25425148 -1.6562171E-5
v -2.0001032 0.49422812 -9.999965
v -2.000101 0.49422833 -1.6562171E-5
v -2.0001032 0.2542513 -9.999965
v -8.400975E-5 0.4942287 -1.5258804E-5
v -8.824662E-5 4.088877E-5 -8.000072
v -8.392335E-5 4.0948376E-5 -1.5258804E-5
v -8.833302E-5 0.49422854 -8.000072
v -20.000132 0.49422517 -20.000044
v 7.9999666 0.49423006 -17.999908
v -20.000134 0.49422517 -17.99991
v 7.999971 0.49423006 -20.000044
v 7.9999666 0.49423006 -17.999908
v -20.000134 0.25424835 -17.99991
v -20.000134 0.49422517 -17.99991
v 7.999967 0.25425324 -17.999908
v -20.000132 3.7391852E-5 -20.000044
v 7.999971 0.49423006 -20.000044
v -20.000132 0.49422517 -20.000044
v 7.999971 4.2287546E-5 -20.000044
vn -0.0 1.0 0.0
vn -0.0 1.0 0.0
vn -0.0 1.0 0.0
vn -0.0 1.0 0.0
vn -0.0 1.0 0.0
vn -0.0 1.0 0.0
vn -0.0 1.0 0.0
vn -0.0 1.0 0.0
vn -0.0 1.0 0.0
vn -0.0 1.0 0.0
vn -0.0 1.0 0.0
vn -0.0 1.0 0.0
vn -0.0 1.0 0.0
vn -0.0 1.0 0.0
vn -0.0 1.0 0.0
vn -0.0 1.0 0.0
vn -0.0 1.0 0.0
vn -0.0 1.0 0.0
vn -0.0 1.0 0.0
vn -0.0 1.0 0.0
vn -0.0 1.0 0.0
vn -0.0 1.0 0.0
vn -0.0 1.0 0.0
vn -0.0 1.0 0.0
vn -0.0 1.0 0.0
vn -0.0 1.0 0.0
vn -0.0 1.0 0.0
vn -0.0 1.0 0.0
vn -0.0 1.0 0.0
vn -0.0 1.0 0.0
vn -0.0 1.0 0.0
vn -0.0 1.0 0.0
vn 0.70710677 0.0 -0.70710677
vn 1.0 0.0 0.0
vn 0.7071066 0.0 -0.70710695
vn 1.0 0.0 0.0
vn -0.7071067 0.0 0.7071068
vn -1.0 0.0 0.0
vn -0.7071066 0.0 0.7071069
vn -1.0 0.0 0.0
vn -0.0 1.0 0.0
vn -0.0 1.0 0.0
vn -0.0 1.0 0.0
vn -0.0 1.0 0.0
vn -0.0 0.0 -1.0
vn 0.7071066 0.0 -0.70710695
vn -0.0 0.0 -1.0
vn 0.70710677 0.0 -0.70710677
vn -0.0 0.0 1.0
vn -0.7071066 0.0 0.7071069
vn -0.0 0.0 1.0
vn -0.7071067 0.0 0.7071068
vn -0.0 1.0 0.0
vn -0.0 1.0 0.0
vn -0.0 1.0 0.0
vn -0.0 1.0 0.0
vn -0.7071074 0.0 -0.70710605
vn -0.0 0.0 -1.0
vn -0.7071071 0.0 -0.7071064
vn -0.0 0.0 -1.0
vn 0.7071071 0.0 0.70710635
vn -0.0 0.0 1.0
vn 0.7071072 0.0 0.7071063
vn -0.0 0.0 1.0
vn -0.0 1.0 0.0
vn -0.0 1.0 0.0
vn -0.0 1.0 0.0
vn -0.0 1.0 0.0
vn -1.0 0.0 0.0
vn -0.7071071 0.0 -0.7071064
vn -1.0 0.0 0.0
vn -0.7071074 0.0 -0.70710605
vn 1.0 0.0 0.0
vn 0.7071072 0.0 0.7071063
vn 1.0 0.0 0.0
vn 0.7071071 0.0 0.70710635
vn -0.0 1.0 0.0
vn -0.0 1.0 0.0
vn -0.0 1.0 0.0
vn -0.0 1.0 0.0
vn -0.0 0.0 1.0
vn -0.0 0.0 1.0
vn -0.0 0.0 1.0
vn -0.0 0.0 1.0
vn -0.0 0.0 -1.0
vn -0.0 0.0 -1.0
vn -0.0 0.0 -1.0
vn -0.0 0.0 -1.0
vt 0.37776935 0.6236158
vt 0.49987513 0.50187874
vt 0.37776935 0.50187874
vt 0.49987513 0.6236158
vt 0.2785282 0.6276055
vt 0.44521785 0.74869883
vt 0.44521785 0.6276055
vt 0.2785282 0.74869883
vt 0.25039104 0.6260443
vt 0.001457759 0.74922323
vt 0.25039104 0.74922323
vt 0.0014577298 0.6260443
vt 0.2785282 0.6276055
vt 0.44521785 0.74869883
vt 0.44521785 0.6276055
vt 0.2785282 0.74869883
vt 0.25039104 0.6260443
vt 0.001457759 0.74922323
vt 0.25039104 0.74922323
vt 0.0014577298 0.6260443
vt 0.28463233 0.6276055
vt 0.3857029 0.74869883
vt 0.3857029 0.6276055
vt 0.28463233 0.74869883
vt 0.25039104 0.6260443
vt 0.001457759 0.74922323
vt 0.25039104 0.74922323
vt 0.0014577298 0.6260443
vt 0.623796 0.7564854
vt 0.31996065 0.80529976
vt 0.5630273 0.80529976
vt 0.31996065 0.7564854
vt 0.623796 0.7503836
vt 0.31996065 0.7564854
vt 0.623796 0.7564854
vt 0.31996065 0.7503836
vt 0.5630273 0.80529976
vt 0.31996065 0.8114015
vt 0.5630273 0.8114015
vt 0.31996065 0.80529976
vt 0.31996065 0.7564854
vt 0.5630439 0.80529976
vt 0.31996065 0.80529976
vt 0.62381256 0.7564854
vt 0.31996065 0.7503836
vt 0.62381256 0.7564854
vt 0.31996065 0.7564854
vt 0.62381256 0.7503836
vt 0.31996065 0.80529976
vt 0.5630439 0.8114015
vt 0.31996065 0.8114015
vt 0.5630439 0.80529976
vt 0.623796 0.7564854
vt 0.31996065 0.80529976
vt 0.5630273 0.80529976
vt 0.31996065 0.7564854
vt 0.623796 0.7503836
vt 0.31996065 0.7564854
vt 0.623796 0.7564854
vt 0.31996065 0.7503836
vt 0.5630273 0.80529976
vt 0.31996065 0.8114015
vt 0.5630273 0.8114015
vt 0.31996065 0.80529976
vt 0.31996065 0.7564854
vt 0.5630439 0.80529976
vt 0.31996065 0.80529976
vt 0.62381256 0.7564854
vt 0.31996065 0.7503836
vt 0.62381256 0.7564854
vt 0.31996065 0.7564854
vt 0.62381256 0.7503836
vt 0.31996065 0.80529976
vt 0.5630439 0.8114015
vt 0.31996065 0.8114015
vt 0.5630439 0.80529976
vt 0.12550873 0.75027037
vt 0.936739 0.7776922
vt 0.12550876 0.7776922
vt 0.936739 0.75027037
vt 0.936739 0.7776922
vt 0.12550876 0.7811199
vt 0.12550876 0.7776922
vt 0.936739 0.7811199
vt 0.12550879 0.8085418
vt 0.9367391 0.8119695
vt 0.12550879 0.8119695
vt 0.9367391 0.8085418

g Two_Lane_14
s 1
usemtl Two_Lane_14
f 3/3/3 2/2/2 1/1/1 
f 4/4/4 1/1/1 2/2/2 
f 7/7/7 6/6/6 5/5/5 
f 8/8/8 5/5/5 6/6/6 
f 11/11/11 10/10/10 9/9/9 
f 12/12/12 9/9/9 10/10/10 
f 15/15/15 14/14/14 13/13/13 
f 16/16/16 13/13/13 14/14/14 
f 19/19/19 18/18/18 17/17/17 
f 20/20/20 17/17/17 18/18/18 
f 23/23/23 22/22/22 21/21/21 
f 24/24/24 21/21/21 22/22/22 
f 27/27/27 26/26/26 25/25/25 
f 28/28/28 25/25/25 26/26/26 
f 31/31/31 30/30/30 29/29/29 
f 32/32/32 29/29/29 30/30/30 
f 35/35/35 34/34/34 33/33/33 
f 36/36/36 33/33/33 34/34/34 
f 39/39/39 38/38/38 37/37/37 
f 40/40/40 37/37/37 38/38/38 
f 43/43/43 42/42/42 41/41/41 
f 44/44/44 41/41/41 42/42/42 
f 47/47/47 46/46/46 45/45/45 
f 48/48/48 45/45/45 46/46/46 
f 51/51/51 50/50/50 49/49/49 
f 52/52/52 49/49/49 50/50/50 
f 55/55/55 54/54/54 53/53/53 
f 56/56/56 53/53/53 54/54/54 
f 59/59/59 58/58/58 57/57/57 
f 60/60/60 57/57/57 58/58/58 
f 63/63/63 62/62/62 61/61/61 
f 64/64/64 61/61/61 62/62/62 
f 67/67/67 66/66/66 65/65/65 
f 68/68/68 65/65/65 66/66/66 
f 71/71/71 70/70/70 69/69/69 
f 72/72/72 69/69/69 70/70/70 
f 75/75/75 74/74/74 73/73/73 
f 76/76/76 73/73/73 74/74/74 
f 79/79/79 78/78/78 77/77/77 
f 80/80/80 77/77/77 78/78/78 
f 83/83/83 82/82/82 81/81/81 
f 84/84/84 81/81/81 82/82/82 
f 87/87/87 86/86/86 85/85/85 
f 88/88/88 85/85/85 86/86/86 

