# Created by DisUnity v0.3.4
v 0.09004879 0.25000012 -10.510582
v 3.4116135 0.25 -12.732422
v 1.9383736 0.24999997 -9.744972
v 1.6790314 0.25000015 -13.732733
v -1.0647669 0.2500001 -7.108593
v 0.8676777 0.24999991 -6.59079
v -1.7656555 0.25000006 -3.5849762
v 0.21784401 0.24999988 -3.3238373
v -2.0006237 0.25000003 -1.9073486E-5
v -8.583069E-6 0.24999985 -1.5258789E-5
v 5.262188 0.25000006 -15.502014
v 3.6749945 0.25000018 -16.719913
v 7.458435 0.25000015 -18.006367
v 6.043787 0.25000027 -19.421015
v -3.5999317 0.2500001 -12.038998
v 1.4644995 0.25000015 -13.856581
v -0.13881493 0.2500001 -10.605366
v -1.7798815 0.25000012 -15.729713
v -7.0715494 0.2500001 -13.476967
v -5.034108 0.2500001 -17.608515
v -4.9226766 0.2500001 -8.142296
v -1.3040438 0.25000006 -7.172695
v -5.725485 0.2500001 -4.1062775
v -2.0112514 0.25000006 -3.617302
v -9.450983 0.25000012 -4.5967293
v -8.552286 0.25000012 -9.114828
v -5.99462 0.2500001 1.530809E-17
v -2.2483377 0.25000003 -1.1444092E-5
v 3.4784641 0.25000018 -16.870707
v 0.5063305 0.25000015 -19.151287
v 5.868622 0.25000024 -19.59617
v 3.2195883 0.25000018 -22.245182
v -2.474821 0.25000012 -21.43878
v 0.5625162 0.25000012 -24.902222
v -9.752262 0.25000012 1.5258789E-5
v -0.13881493 0.2500001 -10.605366
v 1.6790314 0.25000015 -13.732733
v 0.09004879 0.25000012 -10.510582
v 1.4644995 0.25000015 -13.856581
v -1.3040438 0.25000006 -7.172695
v -1.0647669 0.2500001 -7.108593
v -2.0112514 0.25000006 -3.617302
v -1.7656555 0.25000006 -3.5849762
v -2.2483377 0.25000003 -1.1444092E-5
v -2.0006237 0.25000003 -1.9073486E-5
v 3.6749945 0.25000018 -16.719913
v 3.4784641 0.25000018 -16.870707
v 6.043787 0.25000027 -19.421015
v 5.868622 0.25000024 -19.59617
v -9.148191 0.24999958 -14.337109
v -5.2486424 0.25 -17.73237
v -7.300415 0.25 -13.571758
v -6.9807124 0.24999958 -18.732355
v -10.723434 0.24999961 -9.696552
v -8.791567 0.25000003 -9.178936
v -11.679486 0.24999964 -4.890091
v -9.696584 0.25000003 -4.6290627
v -11.999992 0.2499997 4.5776367E-5
v -9.999983 0.25000006 1.5258789E-5
v -2.6713543 0.25 -21.589577
v -4.258083 0.24999958 -22.807087
v 0.38734913 0.25000003 -25.077381
v -1.0268869 0.24999958 -26.491585
v -7.300415 0.25 -13.571758
v -5.034108 0.2500001 -17.608515
v -7.0715494 0.2500001 -13.476967
v -5.2486424 0.25 -17.73237
v -8.791567 0.25000003 -9.178936
v -8.552286 0.25000012 -9.114828
v -9.696584 0.25000003 -4.6290627
v -9.450983 0.25000012 -4.5967293
v -9.999983 0.25000006 1.5258789E-5
v -9.752262 0.25000012 1.5258789E-5
v -2.474821 0.25000012 -21.43878
v -2.6713543 0.25 -21.589577
v 0.5625162 0.25000012 -24.902222
v 0.38734913 0.25000003 -25.077381
v 1.9383736 0.24999997 -9.744972
v 3.4116135 7.301569E-6 -12.732422
v 1.9383745 7.2419643E-6 -9.744972
v 3.4116135 0.25 -12.732422
v -9.148191 7.033348E-6 -14.337109
v -6.9807124 0.24999958 -18.732355
v -9.148191 0.24999958 -14.337109
v -6.9807124 7.033348E-6 -18.732355
v 0.21784401 0.24999988 -3.3238373
v 0.86767864 7.1823597E-6 -6.59079
v 0.21784496 7.1823597E-6 -3.3238373
v 0.8676777 0.24999991 -6.59079
v 5.262188 0.25000006 -15.502014
v 7.458435 7.480383E-6 -18.006365
v 5.262188 7.390976E-6 -15.502014
v 7.458435 0.25000015 -18.006367
v -11.679486 7.122755E-6 -4.890091
v -10.723434 0.24999961 -9.696552
v -11.679486 0.24999964 -4.890091
v -10.723434 7.0631504E-6 -9.696552
v -4.258083 7.033348E-6 -22.807087
v -1.0268869 0.24999958 -26.491585
v -4.258083 0.24999958 -22.807087
v -1.0268869 7.033348E-6 -26.491585
v 0.8676777 0.24999991 -6.59079
v 1.9383745 7.2419643E-6 -9.744972
v 0.86767864 7.1823597E-6 -6.59079
v 1.9383736 0.24999997 -9.744972
v -10.723434 7.0631504E-6 -9.696552
v -9.148191 0.24999958 -14.337109
v -10.723434 0.24999961 -9.696552
v -9.148191 7.033348E-6 -14.337109
v -8.583069E-6 0.24999985 -1.5258789E-5
v 0.21784496 7.1823597E-6 -3.3238373
v -7.6293945E-6 7.122755E-6 -1.5258789E-5
v 0.21784401 0.24999988 -3.3238373
v 3.4116135 0.25 -12.732422
v 5.262188 7.390976E-6 -15.502014
v 3.4116135 7.301569E-6 -12.732422
v 5.262188 0.25000006 -15.502014
v -11.999992 7.1525574E-6 4.5776367E-5
v -11.679486 0.24999964 -4.890091
v -11.999992 0.2499997 4.5776367E-5
v -11.679486 7.122755E-6 -4.890091
v -6.9807124 7.033348E-6 -18.732355
v -4.258083 0.24999958 -22.807087
v -6.9807124 0.24999958 -18.732355
v -4.258083 7.033348E-6 -22.807087
vn -0.0 1.0 0.0
vn -0.0 1.0 0.0
vn -0.0 1.0 0.0
vn -0.0 1.0 0.0
vn -0.0 1.0 0.0
vn -0.0 1.0 0.0
vn -0.0 1.0 0.0
vn -0.0 1.0 0.0
vn -0.0 1.0 0.0
vn -0.0 1.0 0.0
vn -0.0 1.0 0.0
vn -0.0 1.0 0.0
vn -0.0 1.0 0.0
vn -0.0 1.0 0.0
vn -0.0 1.0 0.0
vn -0.0 1.0 0.0
vn -0.0 1.0 0.0
vn -0.0 1.0 0.0
vn -0.0 1.0 0.0
vn -0.0 1.0 0.0
vn -0.0 1.0 0.0
vn -0.0 1.0 0.0
vn -0.0 1.0 0.0
vn -0.0 1.0 0.0
vn -0.0 1.0 0.0
vn -0.0 1.0 0.0
vn -0.0 1.0 0.0
vn -0.0 1.0 0.0
vn -0.0 1.0 0.0
vn -0.0 1.0 0.0
vn -0.0 1.0 0.0
vn -0.0 1.0 0.0
vn -0.0 1.0 0.0
vn -0.0 1.0 0.0
vn -0.0 1.0 0.0
vn -0.0 1.0 0.0
vn -0.0 1.0 0.0
vn -0.0 1.0 0.0
vn -0.0 1.0 0.0
vn -0.0 1.0 0.0
vn -0.0 1.0 0.0
vn -0.0 1.0 0.0
vn -0.0 1.0 0.0
vn -0.0 1.0 0.0
vn -0.0 1.0 0.0
vn -0.0 1.0 0.0
vn -0.0 1.0 0.0
vn -0.0 1.0 0.0
vn -0.0 1.0 0.0
vn -0.0 1.0 0.0
vn -0.0 1.0 0.0
vn -0.0 1.0 0.0
vn -0.0 1.0 0.0
vn -0.0 1.0 0.0
vn -0.0 1.0 0.0
vn -0.0 1.0 0.0
vn -0.0 1.0 0.0
vn -0.0 1.0 0.0
vn -0.0 1.0 0.0
vn -0.0 1.0 0.0
vn -0.0 1.0 0.0
vn -0.0 1.0 0.0
vn -0.0 1.0 0.0
vn -0.0 1.0 0.0
vn -0.0 1.0 0.0
vn -0.0 1.0 0.0
vn -0.0 1.0 0.0
vn -0.0 1.0 0.0
vn -0.0 1.0 0.0
vn -0.0 1.0 0.0
vn -0.0 1.0 0.0
vn -0.0 1.0 0.0
vn -0.0 1.0 0.0
vn -0.0 1.0 0.0
vn -0.0 1.0 0.0
vn -0.0 1.0 0.0
vn -0.0 1.0 0.0
vn 0.8968737 0.0 0.4422867
vn 0.8968737 0.0 0.44228667
vn 0.8968737 0.0 0.4422867
vn 0.89687365 0.0 0.44228697
vn -0.896874 0.0 -0.44228593
vn -0.896874 0.0 -0.44228595
vn -0.896874 0.0 -0.44228593
vn -0.896874 0.0 -0.44228593
vn 0.9807854 0.0 0.19508928
vn 0.9807854 0.0 0.19508928
vn 0.9807854 0.0 0.1950893
vn 0.9807854 0.0 0.19508928
vn 0.7518412 0.0 0.6593442
vn 0.75184125 0.0 0.6593442
vn 0.7518412 0.0 0.6593442
vn 0.7518415 0.0 0.65934396
vn -0.9807858 0.0 -0.19508782
vn -0.9807858 0.0 -0.1950878
vn -0.9807858 0.0 -0.19508782
vn -0.9807858 0.0 -0.19508782
vn -0.7518421 0.0 -0.6593433
vn -0.751842 0.0 -0.65934336
vn -0.751842 0.0 -0.6593433
vn -0.751842 0.0 -0.6593433
vn 0.9469306 0.0 0.32143822
vn 0.9469306 0.0 0.32143822
vn 0.9469306 0.0 0.32143822
vn 0.9469306 0.0 0.32143822
vn -0.946931 0.0 -0.32143697
vn -0.946931 0.0 -0.32143697
vn -0.946931 0.0 -0.32143697
vn -0.946931 0.0 -0.32143697
vn 0.99785894 0.0 0.06540247
vn 0.99785894 0.0 0.06540246
vn 0.99785894 0.0 0.06540246
vn 0.99785894 0.0 0.06540246
vn 0.83147067 0.0 0.5555686
vn 0.83147067 0.0 0.5555686
vn 0.83147067 0.0 0.5555685
vn 0.83147067 0.0 0.55556864
vn -0.99785906 0.0 -0.06540102
vn -0.99785906 0.0 -0.06540102
vn -0.99785906 0.0 -0.065401025
vn -0.99785906 0.0 -0.06540102
vn -0.83147144 0.0 -0.55556756
vn -0.83147144 0.0 -0.5555675
vn -0.8314713 0.0 -0.55556756
vn -0.8314713 0.0 -0.55556756
vt 2.391847 0.93696743
vt 2.286639 0.8750567
vt 2.3918476 0.8750567
vt 2.2866383 0.93696743
vt 2.4970555 0.93696743
vt 2.497056 0.8750567
vt 2.6022642 0.93609667
vt 2.6022646 0.87505674
vt 2.7074728 0.93609667
vt 2.7074733 0.87505674
vt 2.1814303 0.8750566
vt 2.1814299 0.9369674
vt 2.076222 0.8750566
vt 2.0762212 0.9369674
vt 1.0571601 0.062343955
vt 1.0021255 4.9215555E-4
vt 1.0571601 4.9221516E-4
vt 1.0021255 0.062343955
vt 1.0571601 0.12438357
vt 1.0021255 0.12438351
vt 1.1121948 0.062343955
vt 1.1121948 4.9221516E-4
vt 1.1672294 0.062343955
vt 1.1672294 4.9221516E-4
vt 1.1672294 0.12438357
vt 1.1121948 0.12438357
vt 1.2222639 0.062344015
vt 1.2222639 4.9221516E-4
vt 0.94709086 4.9209595E-4
vt 0.94709086 0.062343955
vt 0.8920563 4.9209595E-4
vt 0.8920562 0.062343895
vt 0.94709086 0.12438345
vt 0.8920562 0.12438345
vt 1.2222639 0.12438357
vt 1.1394142 0.31379265
vt 1.0815625 0.31136346
vt 1.139414 0.31136322
vt 1.0815628 0.31379294
vt 1.1972656 0.31379235
vt 1.1972654 0.31136292
vt 1.2551172 0.3137921
vt 1.2551169 0.31136262
vt 1.3129686 0.3137918
vt 1.3129684 0.3113624
vt 1.0237111 0.31136382
vt 1.0237112 0.3137933
vt 0.9658596 0.3113641
vt 0.9658598 0.31379354
vt 0.17778575 0.87505645
vt 0.28294134 0.9369671
vt 0.17773283 0.9369671
vt 0.28299427 0.87505645
vt 0.07257724 0.8750564
vt 0.07252431 0.9369671
vt -0.032631278 0.8750564
vt -0.032684207 0.936967
vt -0.1378398 0.8750564
vt -0.13789272 0.936967
vt 0.38814986 0.93696713
vt 0.38820285 0.87505645
vt 0.49335837 0.93696713
vt 0.49341142 0.8750565
vt 1.3363488 0.4389044
vt 1.2572861 0.43652517
vt 1.3363488 0.4365251
vt 1.2572861 0.43890446
vt 1.4154116 0.4389043
vt 1.4154116 0.43652505
vt 1.4944744 0.4389043
vt 1.4944744 0.436525
vt 1.5735371 0.43890417
vt 1.5735371 0.43652493
vt 1.1782234 0.43652523
vt 1.1782234 0.43890452
vt 1.0991607 0.43652534
vt 1.0991607 0.43890458
vt 2.2303362 0.90801597
vt 2.1251278 0.9001257
vt 2.2303362 0.9001256
vt 2.1251278 0.90801597
vt 0.33658248 0.88904935
vt 0.44179106 0.89693964
vt 0.33658248 0.89693964
vt 0.44179106 0.8890494
vt 2.4407535 0.90801597
vt 2.3355448 0.9001256
vt 2.4407535 0.9001256
vt 2.3355448 0.90801597
vt 2.0199192 0.90801597
vt 1.9147106 0.9001257
vt 2.0199192 0.9001257
vt 1.9147106 0.90801597
vt 0.12616533 0.88904935
vt 0.2313739 0.89693964
vt 0.12616533 0.8969396
vt 0.2313739 0.88904935
vt 0.54699963 0.8890494
vt 0.6522082 0.89693964
vt 0.54699963 0.89693964
vt 0.6522082 0.8890494
vt 2.3355448 0.90801597
vt 2.2303362 0.9001256
vt 2.3355448 0.9001256
vt 2.2303362 0.90801597
vt 0.2313739 0.88904935
vt 0.33658248 0.89693964
vt 0.2313739 0.89693964
vt 0.33658248 0.88904935
vt 2.5459619 0.9080159
vt 2.4407535 0.9001256
vt 2.5459619 0.9001256
vt 2.4407535 0.90801597
vt 2.1251278 0.90801597
vt 2.0199192 0.9001257
vt 2.1251278 0.9001257
vt 2.0199192 0.90801597
vt 0.020956755 0.88904935
vt 0.12616533 0.8969396
vt 0.020956755 0.8969396
vt 0.12616533 0.88904935
vt 0.44179106 0.8890494
vt 0.54699963 0.89693964
vt 0.44179106 0.89693964
vt 0.54699963 0.8890494

g Two_Lane_45Degree_R_20m
s 1
usemtl Two_Lane_45Degree_R_20m
f 3/3/3 2/2/2 1/1/1 
f 4/4/4 1/1/1 2/2/2 
f 1/1/1 5/5/5 3/3/3 
f 6/6/6 3/3/3 5/5/5 
f 5/5/5 7/7/7 6/6/6 
f 8/8/8 6/6/6 7/7/7 
f 7/7/7 9/9/9 8/8/8 
f 10/10/10 8/8/8 9/9/9 
f 2/2/2 11/11/11 4/4/4 
f 12/12/12 4/4/4 11/11/11 
f 11/11/11 13/13/13 12/12/12 
f 14/14/14 12/12/12 13/13/13 
f 17/17/17 16/16/16 15/15/15 
f 18/18/18 15/15/15 16/16/16 
f 15/15/15 18/18/18 19/19/19 
f 20/20/20 19/19/19 18/18/18 
f 15/15/15 21/21/21 17/17/17 
f 22/22/22 17/17/17 21/21/21 
f 21/21/21 23/23/23 22/22/22 
f 24/24/24 22/22/22 23/23/23 
f 23/23/23 21/21/21 25/25/25 
f 26/26/26 25/25/25 21/21/21 
f 21/21/21 15/15/15 26/26/26 
f 19/19/19 26/26/26 15/15/15 
f 23/23/23 27/27/27 24/24/24 
f 28/28/28 24/24/24 27/27/27 
f 16/16/16 29/29/29 18/18/18 
f 30/30/30 18/18/18 29/29/29 
f 18/18/18 30/30/30 20/20/20 
f 29/29/29 31/31/31 30/30/30 
f 32/32/32 30/30/30 31/31/31 
f 30/30/30 32/32/32 33/33/33 
f 33/33/33 20/20/20 30/30/30 
f 34/34/34 33/33/33 32/32/32 
f 27/27/27 23/23/23 35/35/35 
f 25/25/25 35/35/35 23/23/23 
f 38/38/38 37/37/37 36/36/36 
f 39/39/39 36/36/36 37/37/37 
f 36/36/36 40/40/40 38/38/38 
f 41/41/41 38/38/38 40/40/40 
f 40/40/40 42/42/42 41/41/41 
f 43/43/43 41/41/41 42/42/42 
f 42/42/42 44/44/44 43/43/43 
f 45/45/45 43/43/43 44/44/44 
f 37/37/37 46/46/46 39/39/39 
f 47/47/47 39/39/39 46/46/46 
f 46/46/46 48/48/48 47/47/47 
f 49/49/49 47/47/47 48/48/48 
f 52/52/52 51/51/51 50/50/50 
f 53/53/53 50/50/50 51/51/51 
f 50/50/50 54/54/54 52/52/52 
f 55/55/55 52/52/52 54/54/54 
f 54/54/54 56/56/56 55/55/55 
f 57/57/57 55/55/55 56/56/56 
f 56/56/56 58/58/58 57/57/57 
f 59/59/59 57/57/57 58/58/58 
f 51/51/51 60/60/60 53/53/53 
f 61/61/61 53/53/53 60/60/60 
f 60/60/60 62/62/62 61/61/61 
f 63/63/63 61/61/61 62/62/62 
f 66/66/66 65/65/65 64/64/64 
f 67/67/67 64/64/64 65/65/65 
f 64/64/64 68/68/68 66/66/66 
f 69/69/69 66/66/66 68/68/68 
f 68/68/68 70/70/70 69/69/69 
f 71/71/71 69/69/69 70/70/70 
f 70/70/70 72/72/72 71/71/71 
f 73/73/73 71/71/71 72/72/72 
f 65/65/65 74/74/74 67/67/67 
f 75/75/75 67/67/67 74/74/74 
f 74/74/74 76/76/76 75/75/75 
f 77/77/77 75/75/75 76/76/76 
f 80/80/80 79/79/79 78/78/78 
f 81/81/81 78/78/78 79/79/79 
f 84/84/84 83/83/83 82/82/82 
f 85/85/85 82/82/82 83/83/83 
f 88/88/88 87/87/87 86/86/86 
f 89/89/89 86/86/86 87/87/87 
f 92/92/92 91/91/91 90/90/90 
f 93/93/93 90/90/90 91/91/91 
f 96/96/96 95/95/95 94/94/94 
f 97/97/97 94/94/94 95/95/95 
f 100/100/100 99/99/99 98/98/98 
f 101/101/101 98/98/98 99/99/99 
f 104/104/104 103/103/103 102/102/102 
f 105/105/105 102/102/102 103/103/103 
f 108/108/108 107/107/107 106/106/106 
f 109/109/109 106/106/106 107/107/107 
f 112/112/112 111/111/111 110/110/110 
f 113/113/113 110/110/110 111/111/111 
f 116/116/116 115/115/115 114/114/114 
f 117/117/117 114/114/114 115/115/115 
f 120/120/120 119/119/119 118/118/118 
f 121/121/121 118/118/118 119/119/119 
f 124/124/124 123/123/123 122/122/122 
f 125/125/125 122/122/122 123/123/123 

