# Created by DisUnity v0.3.4
v -1.02996826E-4 0.25000066 -80.0
v -2.0006237 0.25000003 -1.9073486E-5
v -2.000719 0.25000083 -79.99999
v -8.583069E-6 0.24999987 -1.5258789E-5
v -2.248433 0.25000086 -80.0
v -5.99462 0.2500001 1.530809E-17
v -5.994719 0.25000095 -80.0
v -2.2483377 0.25000003 -1.1444092E-5
v -9.752366 0.25000098 -79.99999
v -9.752262 0.25000015 1.1444092E-5
v -2.248433 0.25000086 -80.0
v -2.0006237 0.25000003 -1.9073486E-5
v -2.2483377 0.25000003 -1.1444092E-5
v -2.000719 0.25000083 -79.99999
v -11.999992 0.2499997 3.0517578E-5
v -10.000083 0.25000083 -79.99998
v -9.999983 0.2500001 1.1444092E-5
v -12.000092 0.25000045 -79.99998
v -9.999983 0.2500001 1.1444092E-5
v -9.752366 0.25000098 -79.99999
v -9.752262 0.25000015 1.1444092E-5
v -10.000083 0.25000083 -79.99998
v -8.583069E-6 0.24999987 -1.5258789E-5
v -1.02996826E-4 8.165836E-6 -80.0
v -7.6293945E-6 7.122755E-6 -1.5258789E-5
v -1.02996826E-4 0.25000066 -80.0
v -12.000092 0.25000045 -79.99998
v -11.999992 7.1525574E-6 3.0517578E-5
v -12.000092 7.897615E-6 -79.99998
v -11.999992 0.2499997 3.0517578E-5
vn -0.0 1.0 0.0
vn -0.0 1.0 0.0
vn -0.0 1.0 0.0
vn -0.0 1.0 0.0
vn -0.0 1.0 0.0
vn -0.0 1.0 0.0
vn -0.0 1.0 0.0
vn -0.0 1.0 0.0
vn -0.0 1.0 0.0
vn -0.0 1.0 0.0
vn -0.0 1.0 0.0
vn -0.0 1.0 0.0
vn -0.0 1.0 0.0
vn -0.0 1.0 0.0
vn -0.0 1.0 0.0
vn -0.0 1.0 0.0
vn -0.0 1.0 0.0
vn -0.0 1.0 0.0
vn -0.0 1.0 0.0
vn -0.0 1.0 0.0
vn -0.0 1.0 0.0
vn -0.0 1.0 0.0
vn 1.0 0.0 0.0
vn 1.0 0.0 0.0
vn 1.0 0.0 0.0
vn 1.0 0.0 0.0
vn -1.0 0.0 0.0
vn -1.0 0.0 0.0
vn -1.0 0.0 0.0
vn -1.0 0.0 0.0
vt 0.18246734 0.87505627
vt 2.7074728 0.93609667
vt 0.18246734 0.93609667
vt 2.7074733 0.87505674
vt -0.098566614 4.917383E-4
vt 1.2222639 0.062344015
vt -0.09856684 0.06234348
vt 1.2222639 4.9221516E-4
vt -0.09856688 0.12438315
vt 1.2222639 0.12438357
vt -0.07546692 0.31462818
vt 1.3129684 0.31031597
vt 1.3129686 0.3146159
vt -0.075466774 0.31032825
vt -0.1378398 0.8750564
vt 2.3871117 0.9351746
vt -0.13789272 0.9351741
vt 2.387165 0.87505674
vt 1.5735371 0.4407367
vt -0.32396895 0.434866
vt 1.5735371 0.43486196
vt -0.3239686 0.44074064
vt 2.5459619 0.9080159
vt 0.020956755 0.9001259
vt 2.5459619 0.9001256
vt 0.020956755 0.90801615
vt 2.5459623 0.8969398
vt 0.020956755 0.88904935
vt 2.5459623 0.8890496
vt 0.020956755 0.8969396

g Two_Lane_80m_OneDirection
s 1
usemtl Two_Lane_80m_OneDirection
f 3/3/3 2/2/2 1/1/1 
f 4/4/4 1/1/1 2/2/2 
f 7/7/7 6/6/6 5/5/5 
f 8/8/8 5/5/5 6/6/6 
f 7/7/7 9/9/9 6/6/6 
f 10/10/10 6/6/6 9/9/9 
f 13/13/13 12/12/12 11/11/11 
f 14/14/14 11/11/11 12/12/12 
f 17/17/17 16/16/16 15/15/15 
f 18/18/18 15/15/15 16/16/16 
f 21/21/21 20/20/20 19/19/19 
f 22/22/22 19/19/19 20/20/20 
f 25/25/25 24/24/24 23/23/23 
f 26/26/26 23/23/23 24/24/24 
f 29/29/29 28/28/28 27/27/27 
f 30/30/30 27/27/27 28/28/28 

