# Created by DisUnity v0.3.4
v -3.528595E-5 0.48567128 -32.000034
v -1.9999695 0.48567128 -24.0
v -1.9999695 0.48567128 -32.000034
v -3.528595E-5 0.48567128 -24.0
v -1.9999695 0.48567128 -32.000034
v -1.99997 0.24985492 -24.0
v -1.999969 0.24985492 -32.000034
v -1.9999695 0.48567128 -24.0
v -3.528595E-5 5.1379204E-5 -32.000034
v -3.528595E-5 0.48567128 -24.0
v -3.528595E-5 0.48567128 -32.000034
v -3.528595E-5 5.1379204E-5 -24.0
v -18.000008 0.48567128 -32.000034
v -19.99994 0.48567128 -24.0
v -19.99994 0.48567128 -32.00003
v -18.000008 0.48567128 -24.0
v -19.99994 0.48567128 -32.00003
v -19.99994 5.1379204E-5 -24.0
v -19.99994 5.1379204E-5 -32.00003
v -19.99994 0.48567128 -24.0
v -18.000006 0.24985492 -32.000034
v -18.000008 0.48567128 -24.0
v -18.000008 0.48567128 -32.000034
v -18.000008 0.24985492 -24.0
v -1.999969 0.24985492 -32.000034
v -9.729494 0.24985492 -24.0
v -9.729492 0.24985492 -32.000034
v -1.99997 0.24985492 -24.0
v -1.9999695 0.48567128 -24.0
v -3.528595E-5 0.48567128 -16.0
v -1.9999695 0.48567128 -16.0
v -3.528595E-5 0.48567128 -24.0
v -1.99997 0.24985492 -24.0
v -1.9999695 0.48567128 -16.0
v -1.999969 0.24985492 -16.0
v -1.9999695 0.48567128 -24.0
v -3.528595E-5 0.48567128 -24.0
v -3.528595E-5 5.1379204E-5 -16.0
v -3.528595E-5 0.48567128 -16.0
v -3.528595E-5 5.1379204E-5 -24.0
v -19.99994 0.48567128 -24.0
v -18.000008 0.48567128 -16.0
v -19.99994 0.48567128 -16.0
v -18.000008 0.48567128 -24.0
v -19.99994 5.1379204E-5 -24.0
v -19.99994 0.48567128 -16.0
v -19.99994 5.1379204E-5 -16.0
v -19.99994 0.48567128 -24.0
v -18.000008 0.48567128 -24.0
v -18.000006 0.24985492 -16.0
v -18.000008 0.48567128 -16.0
v -18.000008 0.24985492 -24.0
v -9.729494 0.24985492 -24.0
v -1.999969 0.24985492 -16.0
v -9.729492 0.24985492 -16.0
v -1.99997 0.24985492 -24.0
v -3.528595E-5 0.48567128 3.4332275E-5
v -1.9999695 0.48567128 -8.0
v -3.528595E-5 0.48567128 -8.0
v -1.9999695 0.48567128 3.4332275E-5
v -1.9999695 0.48567128 3.4332275E-5
v -1.99997 0.24985492 -8.0
v -1.9999695 0.48567128 -8.0
v -1.999969 0.24985492 3.2424927E-5
v -3.528595E-5 5.1379204E-5 3.4332275E-5
v -3.528595E-5 0.48567128 -8.0
v -3.528595E-5 5.1379204E-5 -8.0
v -3.528595E-5 0.48567128 3.4332275E-5
v -18.000008 0.48567128 3.4332275E-5
v -19.99994 0.48567128 -8.0
v -18.000008 0.48567128 -8.0
v -19.99994 0.48567128 3.0517578E-5
v -19.99994 0.48567128 3.0517578E-5
v -19.99994 5.1379204E-5 -8.0
v -19.99994 0.48567128 -8.0
v -19.99994 5.1379204E-5 3.0517578E-5
v -18.000006 0.24985492 3.4332275E-5
v -18.000008 0.48567128 -8.0
v -18.000008 0.24985492 -8.0
v -18.000008 0.48567128 3.4332275E-5
v -9.729494 0.24985492 -8.0
v -1.999969 0.24985492 3.2424927E-5
v -9.729492 0.24985492 3.2424927E-5
v -1.99997 0.24985492 -8.0
v -1.9999695 0.48567128 -8.0
v -3.528595E-5 0.48567128 -16.0
v -3.528595E-5 0.48567128 -8.0
v -1.9999695 0.48567128 -16.0
v -1.99997 0.24985492 -8.0
v -1.9999695 0.48567128 -16.0
v -1.9999695 0.48567128 -8.0
v -1.999969 0.24985492 -16.0
v -3.528595E-5 0.48567128 -8.0
v -3.528595E-5 5.1379204E-5 -16.0
v -3.528595E-5 5.1379204E-5 -8.0
v -3.528595E-5 0.48567128 -16.0
v -19.99994 0.48567128 -8.0
v -18.000008 0.48567128 -16.0
v -18.000008 0.48567128 -8.0
v -19.99994 0.48567128 -16.0
v -19.99994 5.1379204E-5 -8.0
v -19.99994 0.48567128 -16.0
v -19.99994 0.48567128 -8.0
v -19.99994 5.1379204E-5 -16.0
v -18.000008 0.48567128 -8.0
v -18.000006 0.24985492 -16.0
v -18.000008 0.24985492 -8.0
v -18.000008 0.48567128 -16.0
v -1.99997 0.24985492 -8.0
v -9.729492 0.24985492 -16.0
v -1.999969 0.24985492 -16.0
v -9.729494 0.24985492 -8.0
v -10.277649 0.24985492 -32.000034
v -9.729494 0.24985492 -24.0
v -10.277651 0.24985492 -24.0
v -9.729492 0.24985492 -32.000034
v -9.729492 0.24985492 -16.0
v -10.277649 0.24985492 -16.0
v -9.729494 0.24985492 -8.0
v -10.277651 0.24985492 -8.0
v -9.729492 0.24985492 3.2424927E-5
v -10.277649 0.24985492 3.2424927E-5
v -18.000006 0.24985492 -32.000034
v -10.277651 0.24985492 -24.0
v -18.000008 0.24985492 -24.0
v -10.277649 0.24985492 -32.000034
v -18.000008 0.24985492 -24.0
v -10.277649 0.24985492 -16.0
v -18.000006 0.24985492 -16.0
v -10.277651 0.24985492 -24.0
v -18.000008 0.24985492 -8.0
v -10.277649 0.24985492 3.2424927E-5
v -18.000006 0.24985492 3.4332275E-5
v -10.277651 0.24985492 -8.0
v -18.000006 0.24985492 -16.0
v -10.277651 0.24985492 -8.0
v -18.000008 0.24985492 -8.0
v -10.277649 0.24985492 -16.0
vn -0.0 1.0 0.0
vn -0.0 1.0 0.0
vn -0.0 1.0 0.0
vn -0.0 1.0 0.0
vn -1.0 0.0 0.0
vn -1.0 0.0 0.0
vn -1.0 0.0 0.0
vn -1.0 0.0 0.0
vn 1.0 0.0 0.0
vn 1.0 0.0 0.0
vn 1.0 0.0 0.0
vn 1.0 0.0 0.0
vn -0.0 1.0 0.0
vn -0.0 1.0 0.0
vn -0.0 1.0 0.0
vn -0.0 1.0 0.0
vn -1.0 0.0 0.0
vn -1.0 0.0 0.0
vn -1.0 0.0 0.0
vn -1.0 0.0 0.0
vn 1.0 0.0 0.0
vn 1.0 0.0 0.0
vn 1.0 0.0 0.0
vn 1.0 0.0 0.0
vn -0.0 1.0 0.0
vn -0.0 1.0 0.0
vn -0.0 1.0 0.0
vn -0.0 1.0 0.0
vn -0.0 1.0 0.0
vn -0.0 1.0 0.0
vn -0.0 1.0 0.0
vn -0.0 1.0 0.0
vn -1.0 0.0 0.0
vn -1.0 0.0 0.0
vn -1.0 0.0 0.0
vn -1.0 0.0 0.0
vn 1.0 0.0 0.0
vn 1.0 0.0 0.0
vn 1.0 0.0 0.0
vn 1.0 0.0 0.0
vn -0.0 1.0 0.0
vn -0.0 1.0 0.0
vn -0.0 1.0 0.0
vn -0.0 1.0 0.0
vn -1.0 0.0 0.0
vn -1.0 0.0 0.0
vn -1.0 0.0 0.0
vn -1.0 0.0 0.0
vn 1.0 0.0 0.0
vn 1.0 0.0 0.0
vn 1.0 0.0 0.0
vn 1.0 0.0 0.0
vn -0.0 1.0 0.0
vn -0.0 1.0 0.0
vn -0.0 1.0 0.0
vn -0.0 1.0 0.0
vn -0.0 1.0 0.0
vn -0.0 1.0 0.0
vn -0.0 1.0 0.0
vn -0.0 1.0 0.0
vn -1.0 0.0 0.0
vn -1.0 0.0 0.0
vn -1.0 0.0 0.0
vn -1.0 0.0 0.0
vn 1.0 0.0 0.0
vn 1.0 0.0 0.0
vn 1.0 0.0 0.0
vn 1.0 0.0 0.0
vn -0.0 1.0 0.0
vn -0.0 1.0 0.0
vn -0.0 1.0 0.0
vn -0.0 1.0 0.0
vn -1.0 0.0 0.0
vn -1.0 0.0 0.0
vn -1.0 0.0 0.0
vn -1.0 0.0 0.0
vn 1.0 0.0 0.0
vn 1.0 0.0 0.0
vn 1.0 0.0 0.0
vn 1.0 0.0 0.0
vn -0.0 1.0 0.0
vn -0.0 1.0 0.0
vn -0.0 1.0 0.0
vn -0.0 1.0 0.0
vn -0.0 1.0 0.0
vn -0.0 1.0 0.0
vn -0.0 1.0 0.0
vn -0.0 1.0 0.0
vn -1.0 0.0 0.0
vn -1.0 0.0 0.0
vn -1.0 0.0 0.0
vn -1.0 0.0 0.0
vn 1.0 0.0 0.0
vn 1.0 0.0 0.0
vn 1.0 0.0 0.0
vn 1.0 0.0 0.0
vn -0.0 1.0 0.0
vn -0.0 1.0 0.0
vn -0.0 1.0 0.0
vn -0.0 1.0 0.0
vn -1.0 0.0 0.0
vn -1.0 0.0 0.0
vn -1.0 0.0 0.0
vn -1.0 0.0 0.0
vn 1.0 0.0 0.0
vn 1.0 0.0 0.0
vn 1.0 0.0 0.0
vn 1.0 0.0 0.0
vn -0.0 1.0 0.0
vn -0.0 1.0 0.0
vn -0.0 1.0 0.0
vn -0.0 1.0 0.0
vn -0.0 1.0 0.0
vn -0.0 1.0 0.0
vn -0.0 1.0 0.0
vn -0.0 1.0 0.0
vn -0.0 1.0 0.0
vn -0.0 1.0 0.0
vn -0.0 1.0 0.0
vn -0.0 1.0 0.0
vn -0.0 1.0 0.0
vn -0.0 1.0 0.0
vn -0.0 1.0 0.0
vn -0.0 1.0 0.0
vn -0.0 1.0 0.0
vn -0.0 1.0 0.0
vn -0.0 1.0 0.0
vn -0.0 1.0 0.0
vn -0.0 1.0 0.0
vn -0.0 1.0 0.0
vn -0.0 1.0 0.0
vn -0.0 1.0 0.0
vn -0.0 1.0 0.0
vn -0.0 1.0 0.0
vn -0.0 1.0 0.0
vn -0.0 1.0 0.0
vn -0.0 1.0 0.0
vn -0.0 1.0 0.0
vt 0.68681425 0.751142
vt 0.38088495 0.7779535
vt 0.68681425 0.7779535
vt 0.38088492 0.751142
vt 0.68681425 0.7779535
vt 0.38088495 0.78130496
vt 0.68681425 0.78130496
vt 0.38088495 0.7779535
vt 0.6868143 0.80811644
vt 0.38088495 0.8114679
vt 0.6868143 0.8114679
vt 0.38088495 0.80811644
vt 0.68681425 0.751142
vt 0.38088495 0.7779535
vt 0.68681425 0.7779535
vt 0.38088495 0.751142
vt 0.68681425 0.7779535
vt 0.38088495 0.78130496
vt 0.68681425 0.78130496
vt 0.38088495 0.7779535
vt 0.6868143 0.80811644
vt 0.38088498 0.8114679
vt 0.6868143 0.8114679
vt 0.38088498 0.80811644
vt 0.62702537 0.12368059
vt 0.50121844 0.0
vt 0.62702537 0.0
vt 0.50121844 0.12368059
vt 0.38088495 0.7779535
vt 0.68540776 0.751142
vt 0.68540776 0.7779535
vt 0.38088492 0.751142
vt 0.38088495 0.78130496
vt 0.68540776 0.7779535
vt 0.68540776 0.78130496
vt 0.38088495 0.7779535
vt 0.38088495 0.8114679
vt 0.6854078 0.80811644
vt 0.6854078 0.8114679
vt 0.38088495 0.80811644
vt 0.38088495 0.7779535
vt 0.68540776 0.751142
vt 0.68540776 0.7779535
vt 0.38088495 0.751142
vt 0.38088495 0.78130496
vt 0.68540776 0.7779535
vt 0.68540776 0.78130496
vt 0.38088495 0.7779535
vt 0.38088498 0.8114679
vt 0.6854078 0.80811644
vt 0.6854078 0.8114679
vt 0.38088498 0.80811644
vt 0.62702537 0.0
vt 0.50121844 0.12368059
vt 0.50121844 0.0
vt 0.62702537 0.12368059
vt 0.68681425 0.751142
vt 0.38088495 0.7779535
vt 0.38088492 0.751142
vt 0.68681425 0.7779535
vt 0.68681425 0.7779535
vt 0.38088495 0.78130496
vt 0.38088495 0.7779535
vt 0.68681425 0.78130496
vt 0.6868143 0.80811644
vt 0.38088495 0.8114679
vt 0.38088495 0.80811644
vt 0.6868143 0.8114679
vt 0.68681425 0.751142
vt 0.38088495 0.7779535
vt 0.38088495 0.751142
vt 0.68681425 0.7779535
vt 0.68681425 0.7779535
vt 0.38088495 0.78130496
vt 0.38088495 0.7779535
vt 0.68681425 0.78130496
vt 0.6868143 0.80811644
vt 0.38088498 0.8114679
vt 0.38088498 0.80811644
vt 0.6868143 0.8114679
vt 0.62702537 0.0
vt 0.50121844 0.12368059
vt 0.50121844 0.0
vt 0.62702537 0.12368059
vt 0.38088495 0.7779535
vt 0.68540776 0.751142
vt 0.38088492 0.751142
vt 0.68540776 0.7779535
vt 0.38088495 0.78130496
vt 0.68540776 0.7779535
vt 0.38088495 0.7779535
vt 0.68540776 0.78130496
vt 0.38088495 0.8114679
vt 0.6854078 0.80811644
vt 0.38088495 0.80811644
vt 0.6854078 0.8114679
vt 0.38088495 0.7779535
vt 0.68540776 0.751142
vt 0.38088495 0.751142
vt 0.68540776 0.7779535
vt 0.38088495 0.78130496
vt 0.68540776 0.7779535
vt 0.38088495 0.7779535
vt 0.68540776 0.78130496
vt 0.38088498 0.8114679
vt 0.6854078 0.80811644
vt 0.38088498 0.80811644
vt 0.6854078 0.8114679
vt 0.50121844 0.12368059
vt 0.62702537 0.0
vt 0.62702537 0.12368059
vt 0.50121844 0.0
vt 0.9889418 0.42830837
vt 0.74394125 0.44509554
vt 0.74394125 0.4283083
vt 0.9889418 0.4450956
vt 0.49894175 0.4450956
vt 0.49894175 0.42830837
vt 0.25394228 0.44509554
vt 0.25394228 0.4283083
vt 0.008941819 0.4450956
vt 0.008941819 0.42830837
vt 0.62702537 0.0
vt 0.50121844 0.12368059
vt 0.50121844 0.0
vt 0.62702537 0.12368059
vt 0.62702537 0.0
vt 0.50121844 0.12368059
vt 0.50121844 0.0
vt 0.62702537 0.12368059
vt 0.62702537 0.0
vt 0.50121844 0.12368059
vt 0.50121844 0.0
vt 0.62702537 0.12368059
vt 0.62702537 0.0
vt 0.50121844 0.12368059
vt 0.50121844 0.0
vt 0.62702537 0.12368059

g Two_Lane_31
s 1
usemtl Two_Lane_31
f 3/3/3 2/2/2 1/1/1 
f 4/4/4 1/1/1 2/2/2 
f 7/7/7 6/6/6 5/5/5 
f 8/8/8 5/5/5 6/6/6 
f 11/11/11 10/10/10 9/9/9 
f 12/12/12 9/9/9 10/10/10 
f 15/15/15 14/14/14 13/13/13 
f 16/16/16 13/13/13 14/14/14 
f 19/19/19 18/18/18 17/17/17 
f 20/20/20 17/17/17 18/18/18 
f 23/23/23 22/22/22 21/21/21 
f 24/24/24 21/21/21 22/22/22 
f 27/27/27 26/26/26 25/25/25 
f 28/28/28 25/25/25 26/26/26 
f 31/31/31 30/30/30 29/29/29 
f 32/32/32 29/29/29 30/30/30 
f 35/35/35 34/34/34 33/33/33 
f 36/36/36 33/33/33 34/34/34 
f 39/39/39 38/38/38 37/37/37 
f 40/40/40 37/37/37 38/38/38 
f 43/43/43 42/42/42 41/41/41 
f 44/44/44 41/41/41 42/42/42 
f 47/47/47 46/46/46 45/45/45 
f 48/48/48 45/45/45 46/46/46 
f 51/51/51 50/50/50 49/49/49 
f 52/52/52 49/49/49 50/50/50 
f 55/55/55 54/54/54 53/53/53 
f 56/56/56 53/53/53 54/54/54 
f 59/59/59 58/58/58 57/57/57 
f 60/60/60 57/57/57 58/58/58 
f 63/63/63 62/62/62 61/61/61 
f 64/64/64 61/61/61 62/62/62 
f 67/67/67 66/66/66 65/65/65 
f 68/68/68 65/65/65 66/66/66 
f 71/71/71 70/70/70 69/69/69 
f 72/72/72 69/69/69 70/70/70 
f 75/75/75 74/74/74 73/73/73 
f 76/76/76 73/73/73 74/74/74 
f 79/79/79 78/78/78 77/77/77 
f 80/80/80 77/77/77 78/78/78 
f 83/83/83 82/82/82 81/81/81 
f 84/84/84 81/81/81 82/82/82 
f 87/87/87 86/86/86 85/85/85 
f 88/88/88 85/85/85 86/86/86 
f 91/91/91 90/90/90 89/89/89 
f 92/92/92 89/89/89 90/90/90 
f 95/95/95 94/94/94 93/93/93 
f 96/96/96 93/93/93 94/94/94 
f 99/99/99 98/98/98 97/97/97 
f 100/100/100 97/97/97 98/98/98 
f 103/103/103 102/102/102 101/101/101 
f 104/104/104 101/101/101 102/102/102 
f 107/107/107 106/106/106 105/105/105 
f 108/108/108 105/105/105 106/106/106 
f 111/111/111 110/110/110 109/109/109 
f 112/112/112 109/109/109 110/110/110 
f 115/115/115 114/114/114 113/113/113 
f 116/116/116 113/113/113 114/114/114 
f 114/114/114 115/115/115 117/117/117 
f 118/118/118 117/117/117 115/115/115 
f 117/117/117 118/118/118 119/119/119 
f 120/120/120 119/119/119 118/118/118 
f 119/119/119 120/120/120 121/121/121 
f 122/122/122 121/121/121 120/120/120 
f 125/125/125 124/124/124 123/123/123 
f 126/126/126 123/123/123 124/124/124 
f 129/129/129 128/128/128 127/127/127 
f 130/130/130 127/127/127 128/128/128 
f 133/133/133 132/132/132 131/131/131 
f 134/134/134 131/131/131 132/132/132 
f 137/137/137 136/136/136 135/135/135 
f 138/138/138 135/135/135 136/136/136 

