# Created by DisUnity v0.3.4
v -3.528595E-5 0.48567128 -16.000034
v -1.9999695 0.48567128 -8.0
v -1.9999695 0.48567128 -16.000034
v -3.528595E-5 0.48567128 -8.0
v -1.9999695 0.48567128 -16.000034
v -1.99997 0.24985492 -8.0
v -1.999969 0.24985492 -16.000034
v -1.9999695 0.48567128 -8.0
v -3.528595E-5 5.1379204E-5 -16.000034
v -3.528595E-5 0.48567128 -8.0
v -3.528595E-5 0.48567128 -16.000034
v -3.528595E-5 5.1379204E-5 -8.0
v -18.000008 0.48567128 -16.000034
v -19.99994 0.48567128 -8.0
v -19.99994 0.48567128 -16.000032
v -18.000008 0.48567128 -8.0
v -19.99994 0.48567128 -16.000032
v -19.99994 5.1379204E-5 -8.0
v -19.99994 5.1379204E-5 -16.000032
v -19.99994 0.48567128 -8.0
v -18.000006 0.24985492 -16.000034
v -18.000008 0.48567128 -8.0
v -18.000008 0.48567128 -16.000034
v -18.000008 0.24985492 -8.0
v -1.999969 0.24985492 -16.000034
v -9.729494 0.24985492 -8.0
v -9.729492 0.24985492 -16.000034
v -1.99997 0.24985492 -8.0
v -1.9999695 0.48567128 -8.0
v -3.528595E-5 0.48567128 2.9738787E-17
v -1.9999695 0.48567128 2.9738787E-17
v -3.528595E-5 0.48567128 -8.0
v -1.99997 0.24985492 -8.0
v -1.9999695 0.48567128 2.9738787E-17
v -1.999969 0.24985492 1.5299202E-17
v -1.9999695 0.48567128 -8.0
v -3.528595E-5 0.48567128 -8.0
v -3.528595E-5 5.1379204E-5 3.1460688E-21
v -3.528595E-5 0.48567128 2.9738787E-17
v -3.528595E-5 5.1379204E-5 -8.0
v -19.99994 0.48567128 -8.0
v -18.000008 0.48567128 2.9738787E-17
v -19.99994 0.48567128 2.9738787E-17
v -18.000008 0.48567128 -8.0
v -19.99994 5.1379204E-5 -8.0
v -19.99994 0.48567128 2.9738787E-17
v -19.99994 5.1379204E-5 3.1460688E-21
v -19.99994 0.48567128 -8.0
v -18.000008 0.48567128 -8.0
v -18.000006 0.24985492 1.5299202E-17
v -18.000008 0.48567128 2.9738787E-17
v -18.000008 0.24985492 -8.0
v -9.729494 0.24985492 -8.0
v -1.999969 0.24985492 1.5299202E-17
v -9.729492 0.24985492 1.5299202E-17
v -1.99997 0.24985492 -8.0
v -10.277649 0.24985492 -16.000034
v -9.729494 0.24985492 -8.0
v -10.277651 0.24985492 -8.0
v -9.729492 0.24985492 -16.000034
v -9.729492 0.24985492 1.5299202E-17
v -10.277649 0.24985492 1.5299202E-17
v -18.000006 0.24985492 -16.000034
v -10.277651 0.24985492 -8.0
v -18.000008 0.24985492 -8.0
v -10.277649 0.24985492 -16.000034
v -18.000008 0.24985492 -8.0
v -10.277649 0.24985492 1.5299202E-17
v -18.000006 0.24985492 1.5299202E-17
v -10.277651 0.24985492 -8.0
vn -0.0 1.0 0.0
vn -0.0 1.0 0.0
vn -0.0 1.0 0.0
vn -0.0 1.0 0.0
vn -1.0 0.0 0.0
vn -1.0 0.0 0.0
vn -1.0 0.0 0.0
vn -1.0 0.0 0.0
vn 1.0 0.0 0.0
vn 1.0 0.0 0.0
vn 1.0 0.0 0.0
vn 1.0 0.0 0.0
vn -0.0 1.0 0.0
vn -0.0 1.0 0.0
vn -0.0 1.0 0.0
vn -0.0 1.0 0.0
vn -1.0 0.0 0.0
vn -1.0 0.0 0.0
vn -1.0 0.0 0.0
vn -1.0 0.0 0.0
vn 1.0 0.0 0.0
vn 1.0 0.0 0.0
vn 1.0 0.0 0.0
vn 1.0 0.0 0.0
vn -0.0 1.0 0.0
vn -0.0 1.0 0.0
vn -0.0 1.0 0.0
vn -0.0 1.0 0.0
vn -0.0 1.0 0.0
vn -0.0 1.0 0.0
vn -0.0 1.0 0.0
vn -0.0 1.0 0.0
vn -1.0 0.0 0.0
vn -1.0 0.0 0.0
vn -1.0 0.0 0.0
vn -1.0 0.0 0.0
vn 1.0 0.0 0.0
vn 1.0 0.0 0.0
vn 1.0 0.0 0.0
vn 1.0 0.0 0.0
vn -0.0 1.0 0.0
vn -0.0 1.0 0.0
vn -0.0 1.0 0.0
vn -0.0 1.0 0.0
vn -1.0 0.0 0.0
vn -1.0 0.0 0.0
vn -1.0 0.0 0.0
vn -1.0 0.0 0.0
vn 1.0 0.0 0.0
vn 1.0 0.0 0.0
vn 1.0 0.0 0.0
vn 1.0 0.0 0.0
vn -0.0 1.0 0.0
vn -0.0 1.0 0.0
vn -0.0 1.0 0.0
vn -0.0 1.0 0.0
vn -0.0 1.0 0.0
vn -0.0 1.0 0.0
vn -0.0 1.0 0.0
vn -0.0 1.0 0.0
vn -0.0 1.0 0.0
vn -0.0 1.0 0.0
vn -0.0 1.0 0.0
vn -0.0 1.0 0.0
vn -0.0 1.0 0.0
vn -0.0 1.0 0.0
vn -0.0 1.0 0.0
vn -0.0 1.0 0.0
vn -0.0 1.0 0.0
vn -0.0 1.0 0.0
vt 0.68681425 0.751142
vt 0.38088495 0.7779535
vt 0.68681425 0.7779535
vt 0.38088492 0.751142
vt 0.68681425 0.7779535
vt 0.38088495 0.78130496
vt 0.68681425 0.78130496
vt 0.38088495 0.7779535
vt 0.6868143 0.80811644
vt 0.38088495 0.8114679
vt 0.6868143 0.8114679
vt 0.38088495 0.80811644
vt 0.68681425 0.751142
vt 0.38088495 0.7779535
vt 0.68681425 0.7779535
vt 0.38088495 0.751142
vt 0.68681425 0.7779535
vt 0.38088495 0.78130496
vt 0.68681425 0.78130496
vt 0.38088495 0.7779535
vt 0.6868143 0.80811644
vt 0.38088498 0.8114679
vt 0.6868143 0.8114679
vt 0.38088498 0.80811644
vt 0.62702537 0.12368059
vt 0.50121844 0.0
vt 0.62702537 0.0
vt 0.50121844 0.12368059
vt 0.38088495 0.7779535
vt 0.68540776 0.751142
vt 0.68540776 0.7779535
vt 0.38088492 0.751142
vt 0.38088495 0.78130496
vt 0.68540776 0.7779535
vt 0.68540776 0.78130496
vt 0.38088495 0.7779535
vt 0.38088495 0.8114679
vt 0.6854078 0.80811644
vt 0.6854078 0.8114679
vt 0.38088495 0.80811644
vt 0.38088495 0.7779535
vt 0.68540776 0.751142
vt 0.68540776 0.7779535
vt 0.38088495 0.751142
vt 0.38088495 0.78130496
vt 0.68540776 0.7779535
vt 0.68540776 0.78130496
vt 0.38088495 0.7779535
vt 0.38088498 0.8114679
vt 0.6854078 0.80811644
vt 0.6854078 0.8114679
vt 0.38088498 0.80811644
vt 0.62702537 0.0
vt 0.50121844 0.12368059
vt 0.50121844 0.0
vt 0.62702537 0.12368059
vt 0.9889418 0.42830837
vt 0.74394125 0.44509554
vt 0.74394125 0.4283083
vt 0.9889418 0.4450956
vt 0.49894175 0.4450956
vt 0.49894175 0.42830837
vt 0.62702537 0.0
vt 0.50121844 0.12368059
vt 0.50121844 0.0
vt 0.62702537 0.12368059
vt 0.62702537 0.0
vt 0.50121844 0.12368059
vt 0.50121844 0.0
vt 0.62702537 0.12368059

g Two_Lane_32
s 1
usemtl Two_Lane_32
f 3/3/3 2/2/2 1/1/1 
f 4/4/4 1/1/1 2/2/2 
f 7/7/7 6/6/6 5/5/5 
f 8/8/8 5/5/5 6/6/6 
f 11/11/11 10/10/10 9/9/9 
f 12/12/12 9/9/9 10/10/10 
f 15/15/15 14/14/14 13/13/13 
f 16/16/16 13/13/13 14/14/14 
f 19/19/19 18/18/18 17/17/17 
f 20/20/20 17/17/17 18/18/18 
f 23/23/23 22/22/22 21/21/21 
f 24/24/24 21/21/21 22/22/22 
f 27/27/27 26/26/26 25/25/25 
f 28/28/28 25/25/25 26/26/26 
f 31/31/31 30/30/30 29/29/29 
f 32/32/32 29/29/29 30/30/30 
f 35/35/35 34/34/34 33/33/33 
f 36/36/36 33/33/33 34/34/34 
f 39/39/39 38/38/38 37/37/37 
f 40/40/40 37/37/37 38/38/38 
f 43/43/43 42/42/42 41/41/41 
f 44/44/44 41/41/41 42/42/42 
f 47/47/47 46/46/46 45/45/45 
f 48/48/48 45/45/45 46/46/46 
f 51/51/51 50/50/50 49/49/49 
f 52/52/52 49/49/49 50/50/50 
f 55/55/55 54/54/54 53/53/53 
f 56/56/56 53/53/53 54/54/54 
f 59/59/59 58/58/58 57/57/57 
f 60/60/60 57/57/57 58/58/58 
f 58/58/58 59/59/59 61/61/61 
f 62/62/62 61/61/61 59/59/59 
f 65/65/65 64/64/64 63/63/63 
f 66/66/66 63/63/63 64/64/64 
f 69/69/69 68/68/68 67/67/67 
f 70/70/70 67/67/67 68/68/68 

