# Created by DisUnity v0.3.4
v 2.2177042E-5 0.2498036 -18.000076
v 2.8297498 0.24980403 -9.9999075
v 2.042858E-5 0.2498036 -8.000036
v 2.8297513 0.24980403 -18.000076
v 2.042858E-5 0.2498036 -8.000036
v -10.113426 0.24980177 -5.283588
v -12.00002 0.24980153 -8.000039
v -1.8865787 0.24980322 -5.283582
v -10.113426 0.24980177 -5.283588
v -14.82975 0.24980095 -9.999919
v -12.00002 0.24980153 -8.000039
v 2.8297498 0.24980403 -9.9999075
v -1.8865787 0.24980322 -5.283582
v 2.042858E-5 0.2498036 -8.000036
v 8.000056 0.24980512 -18.000074
v 2.8297498 0.24980403 -9.9999075
v 2.8297513 0.24980403 -18.000076
v 8.000055 0.24980512 -9.999908
v -1.8865814 0.2498034 1.2936984E-4
v -10.113426 0.24980177 -5.283588
v -1.8865787 0.24980322 -5.283582
v -10.113428 0.24980195 1.2030202E-4
v -20.000044 0.24979997 -18.000082
v -14.82975 0.24980095 -9.999919
v -20.000055 0.2498001 -9.999922
v -14.829744 0.24980095 -18.000078
v -12.000017 0.24980153 -18.000078
v -14.82975 0.24980095 -9.999919
v -14.829744 0.24980095 -18.000078
v -12.00002 0.24980153 -8.000039
v -12.00002 0.24980153 -8.000039
v 2.2177042E-5 0.2498036 -18.000076
v 2.042858E-5 0.2498036 -8.000036
v -12.000017 0.24980153 -18.000078
v -20.000042 0.48561633 -19.999893
v 8.000056 0.48562148 -18.000072
v -20.000042 0.48561633 -18.000082
v 8.000057 0.48562148 -19.999884
v 8.000056 0.48562148 -18.000072
v -20.000044 0.24979997 -18.000082
v -20.000042 0.48561633 -18.000082
v 8.000056 0.24980512 -18.000074
v -20.000042 -3.616128E-6 -19.999893
v 8.000057 0.48562148 -19.999884
v -20.000042 0.48561633 -19.999893
v 8.000057 1.5179838E-6 -19.999884
v 2.8297498 0.4856204 -10.000023
v 8.000054 0.48562148 -7.9999666
v 2.9382186 0.4856204 -7.999967
v 8.000055 0.48562148 -10.000024
v 1.7490747 0.48561993 -9.875339
v 2.1805966 0.48562008 -7.912555
v 0.75665444 0.48561975 -9.520239
v 1.5910658 0.48562 -7.815145
v -0.11908955 0.4856196 -8.963159
v 1.0683568 0.4856199 -7.482644
v -0.8497167 0.4856195 -8.232531
v 0.63079566 0.48561984 -7.045082
v -1.4067981 0.4856194 -7.35679
v 0.2982951 0.48561978 -6.5223737
v -1.761897 0.48561934 -6.364367
v 0.087361336 0.48561972 -5.932843
v -1.8865806 0.48561957 -5.2836976
v -4.8771108E-5 0.4856199 -5.1752253
v -1.8865815 0.48561975 1.4928929E-5
v -5.1583324E-5 0.48562008 1.7166129E-5
v 2.8297498 0.24980403 -9.9999075
v 8.000055 0.48562148 -10.000024
v 2.8297498 0.4856204 -10.000023
v 8.000055 0.24980512 -9.999908
v 1.7490747 0.24980359 -9.875339
v 1.7490747 0.48561993 -9.875339
v 0.75665444 0.24980341 -9.520239
v 0.75665444 0.48561975 -9.520239
v -0.119089514 0.24980326 -8.963159
v -0.11908955 0.4856196 -8.963159
v -0.8497167 0.24980313 -8.232531
v -0.8497167 0.4856195 -8.232531
v -1.4067981 0.24980302 -7.35679
v -1.4067981 0.4856194 -7.35679
v -1.761897 0.24980296 -6.364367
v -1.761897 0.48561934 -6.364367
v -1.8865787 0.24980322 -5.283582
v -1.8865806 0.48561957 -5.2836976
v -1.8865814 0.2498034 1.2936984E-4
v -1.8865815 0.48561975 1.4928929E-5
v 2.9382186 0.4856204 -7.999967
v 8.000054 8.027277E-7 -7.9999657
v 2.9382205 -8.2311615E-8 -7.999967
v 8.000054 0.48562148 -7.9999666
v 2.1805966 0.48562008 -7.912555
v 2.1805987 -4.53197E-7 -7.9125547
v 1.5910658 0.48562 -7.815145
v 1.5910696 -5.5627356E-7 -7.815145
v 1.0683568 0.4856199 -7.482644
v 1.0683569 -6.4766755E-7 -7.482644
v 0.63079566 0.48561984 -7.045082
v 0.63079566 0.48561984 -7.045082
v 1.0683569 -6.4766755E-7 -7.482644
v 0.6307958 -7.2417316E-7 -7.0450816
v 0.2982951 0.48561978 -6.5223737
v 0.2982952 -7.823094E-7 -6.5223737
v 0.087361336 0.48561972 -5.932843
v 0.08736142 -8.191903E-7 -5.9328423
v -4.8771108E-5 0.4856199 -5.1752253
v -4.8686197E-5 -5.96055E-7 -5.1752253
v -5.1583324E-5 0.48562008 1.7166129E-5
v -5.1498417E-5 -5.9605543E-7 1.7166129E-5
v -10.113429 0.48561814 -5.2837086
v -11.999963 0.485618 -2.0981406E-6
v -11.99996 0.48561782 -5.1752405
v -10.113432 0.48561832 -8.146146E-7
v -10.238114 0.48561785 -6.3643827
v -12.087371 0.48561758 -5.9328623
v -10.593213 0.4856178 -7.356806
v -12.298306 0.48561758 -6.5223927
v -11.150292 0.4856177 -8.232548
v -12.630808 0.48561752 -7.0451035
v -11.8809185 0.48561755 -8.963176
v -13.06837 0.48561743 -7.482665
v -12.75666 0.4856174 -9.520257
v -13.591078 0.48561734 -7.8151655
v -13.7490835 0.48561722 -9.875358
v -14.180608 0.48561722 -7.9125757
v -14.829753 0.4856173 -10.000041
v -14.938226 0.48561728 -7.9999847
v -20.000061 0.4856166 -10.000046
v -20.000065 0.4856166 -7.999989
v -10.113426 0.24980177 -5.283588
v -10.113432 0.48561832 -8.146146E-7
v -10.113429 0.48561814 -5.2837086
v -10.113428 0.24980195 1.2030202E-4
v -10.238114 0.24980149 -6.3643827
v -10.238114 0.48561785 -6.3643827
v -10.593213 0.24980143 -7.356806
v -10.593213 0.4856178 -7.356806
v -11.150292 0.24980132 -8.232548
v -11.150292 0.4856177 -8.232548
v -11.8809185 0.2498012 -8.963176
v -11.8809185 0.48561755 -8.963176
v -12.75666 0.24980104 -9.520257
v -12.75666 0.4856174 -9.520257
v -13.7490835 0.24980088 -9.875358
v -13.7490835 0.48561722 -9.875358
v -14.82975 0.24980095 -9.999919
v -14.829753 0.4856173 -10.000041
v -20.000055 0.2498001 -9.999922
v -20.000061 0.4856166 -10.000046
v -11.99996 0.48561782 -5.1752405
v -11.999963 -2.6941868E-6 -2.0981406E-6
v -11.99996 -2.6941864E-6 -5.1752405
v -11.999963 0.485618 -2.0981406E-6
v -12.087371 0.48561758 -5.9328623
v -12.087369 -2.9478879E-6 -5.932863
v -12.298306 0.48561758 -6.5223927
v -12.2983055 -2.9847693E-6 -6.5223927
v -12.630808 0.48561752 -7.0451035
v -12.630808 -3.0429057E-6 -7.045104
v -13.06837 0.48561743 -7.482665
v -13.06837 0.48561743 -7.482665
v -12.630808 -3.0429057E-6 -7.045104
v -13.06837 -3.1194115E-6 -7.482665
v -13.591078 0.48561734 -7.8151655
v -13.591076 -3.2108044E-6 -7.8151655
v -14.180608 0.48561722 -7.9125757
v -14.180606 -3.313881E-6 -7.912576
v -14.938226 0.48561728 -7.9999847
v -14.938224 -3.2079286E-6 -7.9999847
v -20.000065 0.4856166 -7.999989
v -20.000065 -4.0929694E-6 -7.9999895
vn -0.0 1.0 0.0
vn -0.0 1.0 0.0
vn -0.0 1.0 0.0
vn -0.0 1.0 0.0
vn -0.0 1.0 0.0
vn -0.0 1.0 0.0
vn -0.0 1.0 0.0
vn -0.0 1.0 0.0
vn -0.0 1.0 0.0
vn -0.0 1.0 0.0
vn -0.0 1.0 0.0
vn -0.0 1.0 0.0
vn -0.0 1.0 0.0
vn -0.0 1.0 0.0
vn -0.0 1.0 0.0
vn -0.0 1.0 0.0
vn -0.0 1.0 0.0
vn -0.0 1.0 0.0
vn -0.0 1.0 0.0
vn -0.0 1.0 0.0
vn -0.0 1.0 0.0
vn -0.0 1.0 0.0
vn -0.0 1.0 0.0
vn -0.0 1.0 0.0
vn -0.0 1.0 0.0
vn -0.0 1.0 0.0
vn -0.0 1.0 0.0
vn -0.0 1.0 0.0
vn -0.0 1.0 0.0
vn -0.0 1.0 0.0
vn -0.0 1.0 0.0
vn -0.0 1.0 0.0
vn -0.0 1.0 0.0
vn -0.0 1.0 0.0
vn -0.0 1.0 0.0
vn -0.0 1.0 0.0
vn -0.0 1.0 0.0
vn -0.0 1.0 0.0
vn -0.0 0.0 1.0
vn -0.0 0.0 1.0
vn -0.0 0.0 1.0
vn -0.0 0.0 1.0
vn -0.0 0.0 -1.0
vn -0.0 0.0 -1.0
vn -0.0 0.0 -1.0
vn -0.0 0.0 -1.0
vn -0.0 1.0 0.0
vn -0.0 1.0 0.0
vn -0.0 1.0 0.0
vn -0.0 1.0 0.0
vn -0.0 1.0 0.0
vn -0.0 1.0 0.0
vn -0.0 1.0 0.0
vn -0.0 1.0 0.0
vn -0.0 1.0 0.0
vn -0.0 1.0 0.0
vn -0.0 1.0 0.0
vn -0.0 1.0 0.0
vn -0.0 1.0 0.0
vn -0.0 1.0 0.0
vn -0.0 1.0 0.0
vn -0.0 1.0 0.0
vn -0.0 1.0 0.0
vn -0.0 1.0 0.0
vn -0.0 1.0 0.0
vn -0.0 1.0 0.0
vn -0.057351425 -4.885455E-4 -0.99835396
vn -0.0 -4.8934086E-4 -0.9999999
vn -0.057356503 -4.5545882E-4 -0.9983537
vn -0.0 -4.893409E-4 -0.9999999
vn -0.22723347 -3.328889E-5 -0.97384036
vn -0.22724038 0.0 -0.9738386
vn -0.43954057 0.0 -0.89822274
vn -0.43954057 0.0 -0.89822274
vn -0.62566054 0.0 -0.78009546
vn -0.62566054 0.0 -0.78009546
vn -0.780095 0.0 -0.62566113
vn -0.780095 0.0 -0.62566113
vn -0.89822245 0.0 -0.43954107
vn -0.8982225 0.0 -0.43954107
vn -0.97384053 0.0 -0.22723259
vn -0.97384036 0.0 -0.22723351
vn -0.99835217 -3.1966487E-5 -0.05738413
vn -0.99835 -3.623268E-5 -0.057420682
vn -1.0 0.0 0.0
vn -1.0 0.0 0.0
vn 0.05740274 0.0 0.9983511
vn -0.0 0.0 1.0
vn 0.057402562 0.0 0.9983511
vn -0.0 0.0 1.0
vn 0.13886121 0.0 0.99031186
vn 0.13886115 0.0 0.99031186
vn 0.3570919 0.0 0.9340693
vn 0.35708946 0.0 0.9340702
vn 0.62565714 0.0 0.7800982
vn 0.6256566 0.0 0.78009856
vn 0.7800984 0.0 0.6256568
vn 0.7800984 0.0 0.6256568
vn 0.6256566 0.0 0.78009856
vn 0.7800985 0.0 0.6256567
vn 0.89822674 0.0 0.43953237
vn 0.89822674 0.0 0.43953228
vn 0.97384024 0.0 0.22723421
vn 0.97384024 0.0 0.2272339
vn 0.9983511 0.0 0.057402253
vn 0.9983511 0.0 0.05740229
vn 1.0 0.0 0.0
vn 1.0 0.0 0.0
vn -0.0 1.0 0.0
vn -0.0 1.0 0.0
vn -0.0 1.0 0.0
vn -0.0 1.0 0.0
vn -0.0 1.0 0.0
vn -0.0 1.0 0.0
vn -0.0 1.0 0.0
vn -0.0 1.0 0.0
vn -0.0 1.0 0.0
vn -0.0 1.0 0.0
vn -0.0 1.0 0.0
vn -0.0 1.0 0.0
vn -0.0 1.0 0.0
vn -0.0 1.0 0.0
vn -0.0 1.0 0.0
vn -0.0 1.0 0.0
vn -0.0 1.0 0.0
vn -0.0 1.0 0.0
vn -0.0 1.0 0.0
vn -0.0 1.0 0.0
vn 0.9983524 -1.7009783E-5 -0.05737906
vn 1.0 1.6236698E-5 0.0
vn 0.99835026 -1.3916171E-5 -0.057417076
vn 1.0 1.6351496E-5 0.0
vn 0.973839 0.0 -0.22723894
vn 0.97383887 0.0 -0.22723961
vn 0.8982231 0.0 -0.43953994
vn 0.8982231 0.0 -0.4395399
vn 0.7800957 0.0 -0.62566006
vn 0.7800958 0.0 -0.62566006
vn 0.62566143 0.0 -0.7800947
vn 0.6256615 0.0 -0.7800947
vn 0.43954128 0.0 -0.89822245
vn 0.43954128 0.0 -0.89822245
vn 0.2271856 0.0 -0.9738514
vn 0.22719294 -3.50384E-5 -0.9738497
vn 0.057396848 -4.81184E-4 -0.99835134
vn 0.057401326 -5.162075E-4 -0.9983511
vn -0.0 -5.255032E-4 -0.9999999
vn -0.0 -5.257378E-4 -0.9999999
vn -0.9983511 0.0 0.057401825
vn -1.0 0.0 0.0
vn -0.9983512 0.0 0.057401374
vn -1.0 0.0 0.0
vn -0.97384 0.0 0.22723486
vn -0.97384 0.0 0.22723494
vn -0.8982262 0.0 0.43953356
vn -0.898226 0.0 0.43953404
vn -0.7800982 0.0 0.6256571
vn -0.7800979 0.0 0.62565744
vn -0.6256571 0.0 0.7800982
vn -0.6256571 0.0 0.7800982
vn -0.7800979 0.0 0.62565744
vn -0.6256573 0.0 0.780098
vn -0.35709134 0.0 0.93406945
vn -0.3570927 0.0 0.934069
vn -0.13886002 0.0 0.990312
vn -0.1388602 0.0 0.990312
vn -0.057401404 0.0 0.9983512
vn -0.057401586 0.0 0.9983512
vn -0.0 0.0 1.0
vn -0.0 0.0 1.0
vt 0.20541342 0.7487682
vt 0.044503815 0.6272476
vt 0.0042798305 0.7487682
vt 0.20541345 0.62724745
vt 0.0018229266 0.6258457
vt 0.20523752 0.7491083
vt 0.24318312 0.62584555
vt 0.03976861 0.74910855
vt 0.09954284 0.7426908
vt 0.2231141 0.6330093
vt 0.09954284 0.6330093
vt 0.09156044 0.63319075
vt 0.2012194 0.7424867
vt 0.20121937 0.63319075
vt 0.34893787 0.6282382
vt 0.4411372 0.74852455
vt 0.4411372 0.6282382
vt 0.34893787 0.74852455
vt 0.34893787 0.6282382
vt 0.4411372 0.74852455
vt 0.4411372 0.6282382
vt 0.34893787 0.74852455
vt 0.41613162 0.74852455
vt 0.32393226 0.62823814
vt 0.41613162 0.62823814
vt 0.32393226 0.74852455
vt 0.20541345 0.62645936
vt 0.044503976 0.74798036
vt 0.20541345 0.7479801
vt 0.0042798584 0.62645936
vt 0.37776935 0.6236158
vt 0.49987513 0.50187874
vt 0.37776935 0.50187874
vt 0.49987513 0.6236158
vt 0.18787412 0.7503676
vt 0.93673676 0.77754563
vt 0.18787415 0.77754563
vt 0.93673676 0.7503676
vt 0.93673676 0.77754563
vt 0.18787415 0.7809429
vt 0.18787415 0.77754563
vt 0.93673676 0.7809429
vt 0.18787418 0.8081209
vt 0.9367368 0.8115182
vt 0.18787418 0.8115182
vt 0.9367368 0.8081209
vt 0.435021 0.7779745
vt 0.31320915 0.75081515
vt 0.435021 0.75081515
vt 0.31320918 0.7779745
vt 0.4631175 0.7779745
vt 0.4631175 0.75081515
vt 0.4903409 0.7779745
vt 0.49796513 0.75081515
vt 0.51714784 0.7779745
vt 0.51714784 0.75081515
vt 0.5438347 0.7779745
vt 0.5533072 0.75081515
vt 0.5706416 0.7779745
vt 0.5704105 0.75081515
vt 0.597865 0.7779745
vt 0.5978649 0.75081515
vt 0.62596136 0.7779745
vt 0.6259613 0.75081515
vt 0.74882483 0.7779745
vt 0.74882483 0.75081515
vt 0.435021 0.7813694
vt 0.31320918 0.7779745
vt 0.435021 0.7779745
vt 0.31320918 0.7813694
vt 0.4631175 0.7813694
vt 0.4631175 0.7779745
vt 0.4903409 0.7813694
vt 0.4903409 0.7779745
vt 0.51714784 0.7813694
vt 0.51714784 0.7779745
vt 0.5438347 0.7813694
vt 0.5438347 0.7779745
vt 0.5706416 0.7813694
vt 0.5706416 0.7779745
vt 0.597865 0.7813694
vt 0.597865 0.7779745
vt 0.62596136 0.7813694
vt 0.62596136 0.7779745
vt 0.74882483 0.7813694
vt 0.74882483 0.7779745
vt 0.43502104 0.81192356
vt 0.31320918 0.80852866
vt 0.43502104 0.80852866
vt 0.31320918 0.81192356
vt 0.4631175 0.81192356
vt 0.4631175 0.80852866
vt 0.49034098 0.81192356
vt 0.49034095 0.80852866
vt 0.51714784 0.81192356
vt 0.51714784 0.80852866
vt 0.5438347 0.81192356
vt 0.5438347 0.81192356
vt 0.51714784 0.80852866
vt 0.5438347 0.80852866
vt 0.5706416 0.81192356
vt 0.5706416 0.80852866
vt 0.597865 0.81192356
vt 0.597865 0.80852866
vt 0.62596136 0.81192356
vt 0.62596136 0.80852866
vt 0.74882483 0.81192356
vt 0.74882483 0.80852866
vt 0.435021 0.7779745
vt 0.31320915 0.75081515
vt 0.435021 0.75081515
vt 0.31320918 0.7779745
vt 0.4631175 0.7779745
vt 0.4631175 0.75081515
vt 0.4903409 0.7779745
vt 0.49796513 0.75081515
vt 0.51714784 0.7779745
vt 0.51714784 0.75081515
vt 0.5438347 0.7779745
vt 0.5533072 0.75081515
vt 0.5706416 0.7779745
vt 0.5704105 0.75081515
vt 0.597865 0.7779745
vt 0.5978649 0.75081515
vt 0.62596136 0.7779745
vt 0.6259613 0.75081515
vt 0.74882483 0.7779745
vt 0.74882483 0.75081515
vt 0.435021 0.7813694
vt 0.31320918 0.7779745
vt 0.435021 0.7779745
vt 0.31320918 0.7813694
vt 0.4631175 0.7813694
vt 0.4631175 0.7779745
vt 0.4903409 0.7813694
vt 0.4903409 0.7779745
vt 0.51714784 0.7813694
vt 0.51714784 0.7779745
vt 0.5438347 0.7813694
vt 0.5438347 0.7779745
vt 0.5706416 0.7813694
vt 0.5706416 0.7779745
vt 0.597865 0.7813694
vt 0.597865 0.7779745
vt 0.62596136 0.7813694
vt 0.62596136 0.7779745
vt 0.74882483 0.7813694
vt 0.74882483 0.7779745
vt 0.43502104 0.81192356
vt 0.31320918 0.80852866
vt 0.43502104 0.80852866
vt 0.31320918 0.81192356
vt 0.4631175 0.81192356
vt 0.4631175 0.80852866
vt 0.49034098 0.81192356
vt 0.49034095 0.80852866
vt 0.51714784 0.81192356
vt 0.51714784 0.80852866
vt 0.5438347 0.81192356
vt 0.5438347 0.81192356
vt 0.51714784 0.80852866
vt 0.5438347 0.80852866
vt 0.5706416 0.81192356
vt 0.5706416 0.80852866
vt 0.597865 0.81192356
vt 0.597865 0.80852866
vt 0.62596136 0.81192356
vt 0.62596136 0.80852866
vt 0.74882483 0.81192356
vt 0.74882483 0.80852866

g Two_Lane_12
s 1
usemtl Two_Lane_12
f 3/3/3 2/2/2 1/1/1 
f 4/4/4 1/1/1 2/2/2 
f 7/7/7 6/6/6 5/5/5 
f 8/8/8 5/5/5 6/6/6 
f 11/11/11 10/10/10 9/9/9 
f 14/14/14 13/13/13 12/12/12 
f 17/17/17 16/16/16 15/15/15 
f 18/18/18 15/15/15 16/16/16 
f 21/21/21 20/20/20 19/19/19 
f 22/22/22 19/19/19 20/20/20 
f 25/25/25 24/24/24 23/23/23 
f 26/26/26 23/23/23 24/24/24 
f 29/29/29 28/28/28 27/27/27 
f 30/30/30 27/27/27 28/28/28 
f 33/33/33 32/32/32 31/31/31 
f 34/34/34 31/31/31 32/32/32 
f 37/37/37 36/36/36 35/35/35 
f 38/38/38 35/35/35 36/36/36 
f 41/41/41 40/40/40 39/39/39 
f 42/42/42 39/39/39 40/40/40 
f 45/45/45 44/44/44 43/43/43 
f 46/46/46 43/43/43 44/44/44 
f 49/49/49 48/48/48 47/47/47 
f 50/50/50 47/47/47 48/48/48 
f 47/47/47 51/51/51 49/49/49 
f 52/52/52 49/49/49 51/51/51 
f 51/51/51 53/53/53 52/52/52 
f 54/54/54 52/52/52 53/53/53 
f 53/53/53 55/55/55 54/54/54 
f 56/56/56 54/54/54 55/55/55 
f 55/55/55 57/57/57 56/56/56 
f 58/58/58 56/56/56 57/57/57 
f 57/57/57 59/59/59 58/58/58 
f 60/60/60 58/58/58 59/59/59 
f 59/59/59 61/61/61 60/60/60 
f 62/62/62 60/60/60 61/61/61 
f 61/61/61 63/63/63 62/62/62 
f 64/64/64 62/62/62 63/63/63 
f 63/63/63 65/65/65 64/64/64 
f 66/66/66 64/64/64 65/65/65 
f 69/69/69 68/68/68 67/67/67 
f 70/70/70 67/67/67 68/68/68 
f 67/67/67 71/71/71 69/69/69 
f 72/72/72 69/69/69 71/71/71 
f 71/71/71 73/73/73 72/72/72 
f 74/74/74 72/72/72 73/73/73 
f 73/73/73 75/75/75 74/74/74 
f 76/76/76 74/74/74 75/75/75 
f 75/75/75 77/77/77 76/76/76 
f 78/78/78 76/76/76 77/77/77 
f 77/77/77 79/79/79 78/78/78 
f 80/80/80 78/78/78 79/79/79 
f 79/79/79 81/81/81 80/80/80 
f 82/82/82 80/80/80 81/81/81 
f 81/81/81 83/83/83 82/82/82 
f 84/84/84 82/82/82 83/83/83 
f 83/83/83 85/85/85 84/84/84 
f 86/86/86 84/84/84 85/85/85 
f 89/89/89 88/88/88 87/87/87 
f 90/90/90 87/87/87 88/88/88 
f 87/87/87 91/91/91 89/89/89 
f 92/92/92 89/89/89 91/91/91 
f 91/91/91 93/93/93 92/92/92 
f 94/94/94 92/92/92 93/93/93 
f 93/93/93 95/95/95 94/94/94 
f 96/96/96 94/94/94 95/95/95 
f 95/95/95 97/97/97 96/96/96 
f 100/100/100 99/99/99 98/98/98 
f 98/98/98 101/101/101 100/100/100 
f 102/102/102 100/100/100 101/101/101 
f 101/101/101 103/103/103 102/102/102 
f 104/104/104 102/102/102 103/103/103 
f 103/103/103 105/105/105 104/104/104 
f 106/106/106 104/104/104 105/105/105 
f 105/105/105 107/107/107 106/106/106 
f 108/108/108 106/106/106 107/107/107 
f 111/111/111 110/110/110 109/109/109 
f 112/112/112 109/109/109 110/110/110 
f 109/109/109 113/113/113 111/111/111 
f 114/114/114 111/111/111 113/113/113 
f 113/113/113 115/115/115 114/114/114 
f 116/116/116 114/114/114 115/115/115 
f 115/115/115 117/117/117 116/116/116 
f 118/118/118 116/116/116 117/117/117 
f 117/117/117 119/119/119 118/118/118 
f 120/120/120 118/118/118 119/119/119 
f 119/119/119 121/121/121 120/120/120 
f 122/122/122 120/120/120 121/121/121 
f 121/121/121 123/123/123 122/122/122 
f 124/124/124 122/122/122 123/123/123 
f 123/123/123 125/125/125 124/124/124 
f 126/126/126 124/124/124 125/125/125 
f 125/125/125 127/127/127 126/126/126 
f 128/128/128 126/126/126 127/127/127 
f 131/131/131 130/130/130 129/129/129 
f 132/132/132 129/129/129 130/130/130 
f 129/129/129 133/133/133 131/131/131 
f 134/134/134 131/131/131 133/133/133 
f 133/133/133 135/135/135 134/134/134 
f 136/136/136 134/134/134 135/135/135 
f 135/135/135 137/137/137 136/136/136 
f 138/138/138 136/136/136 137/137/137 
f 137/137/137 139/139/139 138/138/138 
f 140/140/140 138/138/138 139/139/139 
f 139/139/139 141/141/141 140/140/140 
f 142/142/142 140/140/140 141/141/141 
f 141/141/141 143/143/143 142/142/142 
f 144/144/144 142/142/142 143/143/143 
f 143/143/143 145/145/145 144/144/144 
f 146/146/146 144/144/144 145/145/145 
f 145/145/145 147/147/147 146/146/146 
f 148/148/148 146/146/146 147/147/147 
f 151/151/151 150/150/150 149/149/149 
f 152/152/152 149/149/149 150/150/150 
f 149/149/149 153/153/153 151/151/151 
f 154/154/154 151/151/151 153/153/153 
f 153/153/153 155/155/155 154/154/154 
f 156/156/156 154/154/154 155/155/155 
f 155/155/155 157/157/157 156/156/156 
f 158/158/158 156/156/156 157/157/157 
f 157/157/157 159/159/159 158/158/158 
f 162/162/162 161/161/161 160/160/160 
f 160/160/160 163/163/163 162/162/162 
f 164/164/164 162/162/162 163/163/163 
f 163/163/163 165/165/165 164/164/164 
f 166/166/166 164/164/164 165/165/165 
f 165/165/165 167/167/167 166/166/166 
f 168/168/168 166/166/166 167/167/167 
f 167/167/167 169/169/169 168/168/168 
f 170/170/170 168/168/168 169/169/169 

