# Created by DisUnity v0.3.4
v -15.45472 5.232403 -27.765503
v 16.964485 3.8146973E-6 -27.580643
v 16.964485 5.232403 -27.580643
v -15.45472 3.8146973E-6 -27.765503
v -16.967148 5.232403 27.320496
v -15.45472 3.8146973E-6 -27.765503
v -15.45472 5.232403 -27.765503
v -16.967148 3.8146973E-6 27.320496
v 1.2657166 5.232403 27.91272
v -16.967148 3.8146973E-6 27.320496
v -16.967148 5.232403 27.320496
v 1.2657166 3.8146973E-6 27.91272
v 1.9860687 5.232403 -3.079834
v 1.2657166 3.8146973E-6 27.91272
v 1.2657166 5.232403 27.91272
v 1.9860687 3.8146973E-6 -3.079834
v 17.089272 5.232403 -2.9759674
v 1.9860687 3.8146973E-6 -3.079834
v 1.9860687 5.232403 -3.079834
v 17.089272 3.8146973E-6 -2.9759674
v 16.964485 5.232403 -27.580643
v 17.089272 3.8146973E-6 -2.9759674
v 17.089272 5.232403 -2.9759674
v 16.964485 3.8146973E-6 -27.580643
v 1.4491043 4.8121853 -3.633316
v -16.40258 4.8121853 26.788956
v -14.919907 4.812187 -27.212708
v 0.7290573 4.8121853 27.345352
v 16.417519 4.812187 -27.034058
v 16.536812 4.8121853 -3.5295105
v 16.964485 5.232403 -27.580643
v -14.919907 5.232403 -27.212708
v -15.45472 5.232403 -27.765503
v 16.417519 5.232403 -27.034058
v -16.40258 5.232403 26.788956
v -16.967148 5.232403 27.320496
v 0.7290573 5.232403 27.345352
v 1.2657166 5.232403 27.91272
v 1.4491043 5.232403 -3.633316
v 1.9860687 5.232403 -3.079834
v 16.536812 5.232403 -3.5295105
v 17.089272 5.232403 -2.9759674
v 16.417519 5.232403 -27.034058
v -14.919907 4.812187 -27.212708
v -14.919907 5.232403 -27.212708
v 16.417519 5.232403 -27.034058
v 16.417519 4.812187 -27.034058
v -14.919907 5.232403 -27.212708
v -16.40258 4.8121853 26.788956
v -16.40258 5.232403 26.788956
v -14.919907 4.812187 -27.212708
v -16.40258 5.232403 26.788956
v 0.7290573 4.8121853 27.345352
v 0.7290573 5.232403 27.345352
v -16.40258 5.232403 26.788956
v -16.40258 4.8121853 26.788956
v 0.7290573 5.232403 27.345352
v 1.4491043 4.8121853 -3.633316
v 1.4491043 5.232403 -3.633316
v 0.7290573 4.8121853 27.345352
v 1.4491043 5.232403 -3.633316
v 16.536812 4.8121853 -3.5295105
v 16.536812 5.232403 -3.5295105
v 1.4491043 4.8121853 -3.633316
v 16.536812 5.232403 -3.5295105
v 16.417519 4.812187 -27.034058
v 16.417519 5.232403 -27.034058
v 16.536812 4.8121853 -3.5295105
vn 0.0057020904 0.0 -0.9999838
vn 0.0057020904 0.0 -0.9999838
vn 0.00570209 0.0 -0.9999838
vn 0.00570209 0.0 -0.9999838
vn -0.9996233 0.0 -0.02744542
vn -0.9996233 0.0 -0.02744542
vn -0.9996233 0.0 -0.02744542
vn -0.9996233 0.0 -0.02744542
vn -0.032464016 0.0 0.9994729
vn -0.032464016 0.0 0.9994729
vn -0.032464013 0.0 0.9994729
vn -0.032464013 0.0 0.9994729
vn 0.99972993 0.0 0.02323647
vn 0.99972993 0.0 0.02323647
vn 0.99972993 0.0 0.023236474
vn 0.99972993 0.0 0.023236474
vn -0.0068769604 0.0 0.9999764
vn -0.0068769604 0.0 0.9999764
vn -0.0068769604 0.0 0.9999764
vn -0.0068769604 0.0 0.9999764
vn 0.9999871 0.0 -0.0050715874
vn 0.9999871 0.0 -0.0050715874
vn 0.9999871 0.0 -0.005071588
vn 0.9999871 0.0 -0.005071588
vn -0.0 1.0 0.0
vn -0.0 1.0 0.0
vn -0.0 1.0 0.0
vn -0.0 1.0 0.0
vn -0.0 1.0 0.0
vn -0.0 1.0 0.0
vn -0.0 1.0 0.0
vn -0.0 1.0 0.0
vn -0.0 1.0 0.0
vn -0.0 1.0 0.0
vn -0.0 1.0 0.0
vn -0.0 1.0 0.0
vn -0.0 1.0 0.0
vn -0.0 1.0 0.0
vn -0.0 1.0 0.0
vn -0.0 1.0 0.0
vn -0.0 1.0 0.0
vn -0.0 1.0 0.0
vn -0.005700755 0.0 0.9999838
vn -0.005700756 0.0 0.9999838
vn -0.005700756 0.0 0.9999838
vn -0.005700756 0.0 0.9999838
vn -0.005700756 0.0 0.9999838
vn 0.9996233 0.0 0.027445732
vn 0.9996233 0.0 0.027445734
vn 0.9996233 0.0 0.027445732
vn 0.9996233 0.0 0.027445734
vn 0.032460604 0.0 -0.99947304
vn 0.032460604 0.0 -0.99947304
vn 0.032460604 0.0 -0.99947304
vn 0.032460604 0.0 -0.99947304
vn 0.032460604 0.0 -0.99947304
vn -0.99972993 0.0 -0.023237038
vn -0.99972993 0.0 -0.02323704
vn -0.99972993 0.0 -0.023237038
vn -0.99972993 0.0 -0.023237038
vn 0.0068799783 0.0 -0.9999764
vn 0.0068799783 0.0 -0.9999764
vn 0.006879978 0.0 -0.9999764
vn 0.006879978 0.0 -0.9999764
vn -0.9999871 0.0 0.0050752596
vn -0.9999871 0.0 0.0050752596
vn -0.9999871 0.0 0.0050752596
vn -0.9999871 0.0 0.0050752596
vt -1.4819756 0.44895577
vt -2.3487616 0.5888512
vt -2.3487616 0.44895577
vt -1.4819756 0.5888512
vt -0.008620407 0.44895577
vt -1.4819756 0.5888512
vt -1.4819756 0.44895577
vt -0.008620407 0.5888512
vt 0.47911605 0.44895577
vt -0.008620407 0.5888512
vt -0.008620407 0.44895577
vt 0.47911605 0.5888512
vt 1.3079717 0.44895577
vt 0.47911605 0.5888512
vt 0.47911605 0.44895577
vt 1.3079717 0.5888512
vt 1.7117851 0.44895577
vt 1.3079717 0.5888512
vt 1.3079717 0.44895577
vt 1.7117851 0.5888512
vt -2.3487616 0.44895577
vt -3.006608 0.5888512
vt -3.006608 0.44895577
vt -2.3487616 0.5888512
vt 0.5801348 0.1006642
vt 0.4462719 0.026097834
vt 0.68097407 0.027472436
vt 0.44515532 0.100131094
vt 0.6831438 0.16334587
vt 0.58142424 0.16637486
vt 0.68597853 0.16611749
vt 0.6815831 0.026916564
vt 0.6837715 0.024727881
vt 0.6837272 0.16395599
vt 0.44571555 0.025464237
vt 0.44354266 0.023210108
vt 0.4442411 0.10065514
vt 0.44180638 0.10283536
vt 0.57921344 0.10160202
vt 0.5768604 0.1039992
vt 0.58085126 0.16730183
vt 0.57868373 0.1697753
vt 0.6837272 0.16395599
vt 0.68097407 0.027472436
vt 0.6815831 0.026916564
vt 0.6837272 0.16395599
vt 0.6831438 0.16334587
vt 0.6815831 0.026916564
vt 0.4462719 0.026097834
vt 0.44571555 0.025464237
vt 0.68097407 0.027472436
vt 0.44571555 0.025464237
vt 0.44515532 0.100131094
vt 0.4442411 0.10065514
vt 0.44571555 0.025464237
vt 0.4462719 0.026097834
vt 0.4442411 0.10065514
vt 0.5801348 0.1006642
vt 0.57921344 0.10160202
vt 0.44515532 0.100131094
vt 0.57921344 0.10160202
vt 0.58142424 0.16637486
vt 0.58085126 0.16730183
vt 0.5801348 0.1006642
vt 0.58085126 0.16730183
vt 0.6831438 0.16334587
vt 0.6837272 0.16395599
vt 0.58142424 0.16637486

g Warehouse_Medium_01
s 1
usemtl Warehouse_Medium_01
f 3/3/3 2/2/2 1/1/1 
f 4/4/4 1/1/1 2/2/2 
f 7/7/7 6/6/6 5/5/5 
f 8/8/8 5/5/5 6/6/6 
f 11/11/11 10/10/10 9/9/9 
f 12/12/12 9/9/9 10/10/10 
f 15/15/15 14/14/14 13/13/13 
f 16/16/16 13/13/13 14/14/14 
f 19/19/19 18/18/18 17/17/17 
f 20/20/20 17/17/17 18/18/18 
f 23/23/23 22/22/22 21/21/21 
f 24/24/24 21/21/21 22/22/22 
f 27/27/27 26/26/26 25/25/25 
f 28/28/28 25/25/25 26/26/26 
f 27/27/27 25/25/25 29/29/29 
f 30/30/30 29/29/29 25/25/25 
f 33/33/33 32/32/32 31/31/31 
f 34/34/34 31/31/31 32/32/32 
f 32/32/32 33/33/33 35/35/35 
f 36/36/36 35/35/35 33/33/33 
f 35/35/35 36/36/36 37/37/37 
f 38/38/38 37/37/37 36/36/36 
f 37/37/37 38/38/38 39/39/39 
f 40/40/40 39/39/39 38/38/38 
f 39/39/39 40/40/40 41/41/41 
f 42/42/42 41/41/41 40/40/40 
f 31/31/31 34/34/34 42/42/42 
f 41/41/41 42/42/42 34/34/34 
f 45/45/45 44/44/44 43/43/43 
f 47/47/47 46/46/46 44/44/44 
f 50/50/50 49/49/49 48/48/48 
f 51/51/51 48/48/48 49/49/49 
f 54/54/54 53/53/53 52/52/52 
f 56/56/56 55/55/55 53/53/53 
f 59/59/59 58/58/58 57/57/57 
f 60/60/60 57/57/57 58/58/58 
f 63/63/63 62/62/62 61/61/61 
f 64/64/64 61/61/61 62/62/62 
f 67/67/67 66/66/66 65/65/65 
f 68/68/68 65/65/65 66/66/66 

