# Created by DisUnity v0.3.4
v -2.041316 5.0672874 -12.121101
v -2.0907145 -1.5258789E-5 -13.277649
v -2.0907145 5.0672874 -13.277649
v -2.041316 -1.5258789E-5 -12.121101
v -2.6150732 -1.5258789E-5 13.016014
v -2.4466121 5.0672855 0.16113281
v -2.6150732 5.0672855 13.016014
v -2.4474058 -1.5258789E-5 0.22280121
v -2.4220803 5.0672874 -1.7040787
v -2.4220803 -1.5258789E-5 -1.7040787
v 8.958583 5.0672874 13.3474045
v -2.6150732 -1.5258789E-5 13.016014
v -2.6150732 5.0672855 13.016014
v 8.958583 -1.5258789E-5 13.3474045
v 9.000763 -1.5258789E-5 0.3102646
v 8.958583 5.0672874 13.3474045
v 9.000763 5.0672874 0.3102646
v 8.958583 -1.5258789E-5 13.3474045
v 9.045015 -1.5258789E-5 -13.347397
v 9.045015 5.0672874 -13.347397
v -2.0907145 5.0672874 -13.277649
v 9.045015 -1.5258789E-5 -13.347397
v 9.045015 5.0672874 -13.347397
v -2.0907145 -1.5258789E-5 -13.277649
v -8.554903 7.7500668 -11.897018
v -2.8390346 7.7500668 -2.1456528
v -8.609746 7.7500668 -2.2668
v -2.4897103 7.7500668 -11.7024
v -2.1767123 4.7339573 12.595573
v 8.568046 4.7339573 0.29512787
v 8.527279 4.7339573 12.902115
v -1.9142168 4.7339573 0.1696701
v -1.6391327 4.7339573 -12.847786
v 8.610785 4.7339573 -12.9118805
v -2.041316 -1.5258789E-5 -12.121101
v -8.985178 8.083395 -12.343849
v -8.985178 -1.5258789E-5 -12.343849
v -2.041316 5.0672874 -12.121101
v -2.041316 8.083395 -12.121101
v -8.985178 -1.5258789E-5 -12.343849
v -9.044994 8.083395 -1.8430328
v -9.044994 -1.5258789E-5 -1.8430328
v -8.985178 8.083395 -12.343849
v -9.044994 -1.5258789E-5 -1.8430328
v -2.4220803 5.0672874 -1.7040787
v -2.4220803 -1.5258789E-5 -1.7040787
v -9.044994 8.083395 -1.8430328
v -2.4220803 8.083395 -1.7040787
v -2.4220803 5.0672874 -1.7040787
v -2.041316 8.083395 -12.121101
v -2.041316 5.0672874 -12.121101
v -2.4220803 8.083395 -1.7040787
v -2.041316 8.083395 -12.121101
v -8.554903 8.083395 -11.897018
v -8.985178 8.083395 -12.343849
v -2.4897103 8.083395 -11.7024
v -8.609746 8.083395 -2.2668
v -9.044994 8.083395 -1.8430328
v -2.8390346 8.083395 -2.1456528
v -2.4220803 8.083395 -1.7040787
v -2.4466121 5.0672855 0.16113281
v -2.1767123 5.0672855 12.595573
v -2.6150732 5.0672855 13.016014
v -1.9142168 5.0672855 0.1696701
v 8.527279 5.0672874 12.902115
v 8.958583 5.0672874 13.3474045
v 9.000763 5.0672874 0.3102646
v 8.568046 5.0672874 0.29512787
v 8.610785 5.0672874 -12.9118805
v 9.045015 5.0672874 -13.347397
v -1.6391327 5.0672874 -12.847786
v -2.0907145 5.0672874 -13.277649
v -2.041316 5.0672874 -12.121101
v -2.4220803 5.0672874 -1.7040787
v -2.4897103 8.083395 -11.7024
v -8.554903 7.7500668 -11.897018
v -8.554903 8.083395 -11.897018
v -2.4897103 7.7500668 -11.7024
v -8.554903 8.083395 -11.897018
v -8.609746 7.7500668 -2.2668
v -8.609746 8.083395 -2.2668
v -8.554903 7.7500668 -11.897018
v -8.609746 8.083395 -2.2668
v -2.8390346 7.7500668 -2.1456528
v -2.8390346 8.083395 -2.1456528
v -8.609746 7.7500668 -2.2668
v -2.8390346 8.083395 -2.1456528
v -2.4897103 7.7500668 -11.7024
v -2.4897103 8.083395 -11.7024
v -2.8390346 7.7500668 -2.1456528
v -1.9142168 5.0672855 0.1696701
v -1.6391327 4.7339573 -12.847786
v -1.9142168 4.7339573 0.1696701
v -1.6391327 5.0672874 -12.847786
v -2.1767123 5.0672855 12.595573
v -2.1767123 4.7339573 12.595573
v -2.1767123 5.0672855 12.595573
v 8.527279 4.7339573 12.902115
v 8.527279 5.0672874 12.902115
v -2.1767123 4.7339573 12.595573
v 8.568046 5.0672874 0.29512787
v 8.527279 4.7339573 12.902115
v 8.568046 4.7339573 0.29512787
v 8.527279 5.0672874 12.902115
v 8.610785 5.0672874 -12.9118805
v 8.610785 4.7339573 -12.9118805
v 8.610785 5.0672874 -12.9118805
v -1.6391327 4.7339573 -12.847786
v -1.6391327 5.0672874 -12.847786
v 8.610785 4.7339573 -12.9118805
vn -0.9990891 0.0 0.042673066
vn -0.9990891 0.0 0.042673066
vn -0.9990891 0.0 0.042673063
vn -0.9990891 0.0 0.042673063
vn -0.99991417 0.0 -0.01310398
vn -0.9999138 0.0 -0.013128049
vn -0.99991417 0.0 -0.01310371
vn -0.99991393 0.0 -0.01312436
vn -0.9999136 0.0 -0.013149086
vn -0.9999137 0.0 -0.013142154
vn -0.02862143 0.0 0.99959034
vn -0.028621431 0.0 0.99959034
vn -0.028621431 0.0 0.99959034
vn -0.028621431 0.0 0.99959034
vn 0.99999475 0.0 0.003237729
vn 0.99999475 0.0 0.0032353597
vn 0.99999475 0.0 0.0032377287
vn 0.99999475 0.0 0.0032353597
vn 0.99999475 0.0 0.0032400982
vn 0.99999475 0.0 0.0032400982
vn -0.006263313 0.0 -0.99998045
vn -0.006263313 0.0 -0.99998045
vn -0.0062633133 0.0 -0.99998045
vn -0.0062633133 0.0 -0.99998045
vn -0.0 1.0 0.0
vn -0.0 1.0 0.0
vn -0.0 1.0 0.0
vn -0.0 1.0 0.0
vn -0.0 1.0 0.0
vn -0.0 1.0 0.0
vn -0.0 1.0 0.0
vn -0.0 1.0 0.0
vn -0.0 1.0 0.0
vn -0.0 1.0 0.0
vn 0.032061886 0.0 -0.99948585
vn 0.032061882 0.0 -0.99948585
vn 0.032061882 0.0 -0.99948585
vn 0.032061882 0.0 -0.99948585
vn 0.032061882 0.0 -0.99948585
vn -0.9999838 0.0 -0.005696261
vn -0.9999838 0.0 -0.005696261
vn -0.9999838 0.0 -0.005696261
vn -0.9999838 0.0 -0.005696261
vn -0.020976203 0.0 0.99978
vn -0.020976203 0.0 0.99978
vn -0.020976203 0.0 0.99978
vn -0.020976203 0.0 0.99978
vn -0.020976203 0.0 0.99978
vn 0.9993326 0.0 0.036527723
vn 0.9993326 0.0 0.036527723
vn 0.9993326 0.0 0.036527723
vn 0.9993326 0.0 0.036527723
vn -0.0 1.0 0.0
vn -0.0 1.0 0.0
vn -0.0 1.0 0.0
vn -0.0 1.0 0.0
vn -0.0 1.0 0.0
vn -0.0 1.0 0.0
vn -0.0 1.0 0.0
vn -0.0 1.0 0.0
vn -0.0 1.0 0.0
vn -0.0 1.0 0.0
vn -0.0 1.0 0.0
vn -0.0 1.0 0.0
vn -0.0 1.0 0.0
vn -0.0 1.0 0.0
vn -0.0 1.0 0.0
vn -0.0 1.0 0.0
vn -0.0 1.0 0.0
vn -0.0 1.0 0.0
vn -0.0 1.0 0.0
vn -0.0 1.0 0.0
vn -0.0 1.0 0.0
vn -0.0 1.0 0.0
vn -0.032071218 0.0 0.9994856
vn -0.032071214 0.0 0.9994856
vn -0.032071218 0.0 0.9994856
vn -0.032071218 0.0 0.9994856
vn 0.9999838 0.0 0.005694789
vn 0.9999838 0.0 0.0056947884
vn 0.9999838 0.0 0.005694789
vn 0.9999838 0.0 0.005694789
vn 0.02098883 0.0 -0.99977976
vn 0.020988833 0.0 -0.99977976
vn 0.020988831 0.0 -0.99977976
vn 0.020988831 0.0 -0.99977976
vn -0.9993326 0.0 -0.036528233
vn -0.9993326 0.0 -0.036528237
vn -0.9993326 0.0 -0.036528237
vn -0.9993326 0.0 -0.036528237
vn 0.9997768 0.0 0.021127218
vn 0.9997768 0.0 0.021127217
vn 0.9997768 0.0 0.021127218
vn 0.9997768 0.0 0.021127218
vn 0.999777 0.0 0.021120155
vn 0.999777 0.0 0.021120155
vn 0.028626315 0.0 -0.9995902
vn 0.028626317 0.0 -0.9995902
vn 0.028626315 0.0 -0.9995902
vn 0.028626315 0.0 -0.9995902
vn -0.99999475 0.0 -0.0032336432
vn -0.99999475 0.0 -0.0032336432
vn -0.99999475 0.0 -0.0032336432
vn -0.99999475 0.0 -0.0032336432
vn -0.99999475 0.0 -0.003236061
vn -0.99999475 0.0 -0.0032360612
vn 0.0062530544 0.0 0.99998045
vn 0.006253055 0.0 0.99998045
vn 0.0062530544 0.0 0.99998045
vn 0.0062530544 0.0 0.99998045
vt 0.99937385 0.9439202
vt 0.98677176 1.0
vt 0.98677176 0.9439202
vt 0.99937385 1.0
vt 0.760577 1.0
vt 0.59953636 0.9432941
vt 0.760577 0.9432941
vt 0.6003084 1.0
vt 0.57617 0.9432941
vt 0.57617 1.0
vt 0.904914 0.9432941
vt 0.760577 1.0
vt 0.760577 0.9432941
vt 0.904914 1.0
vt 0.7168817 1.0
vt 0.57496625 0.9439202
vt 0.7168817 0.9439202
vt 0.57496625 1.0
vt 0.8661615 1.0
vt 0.8661615 0.9439202
vt 0.98677176 0.9439202
vt 0.8661615 1.0
vt 0.8661615 0.9439202
vt 0.98738074 1.0
vt 0.3128524 0.242203
vt 0.464996 0.15302229
vt 0.46310583 0.24305868
vt 0.3158889 0.14757204
vt 0.6615739 0.2519549
vt 0.46965888 0.08431208
vt 0.6663567 0.08494818
vt 0.46770135 0.24785948
vt 0.26459923 0.24356747
vt 0.2635993 0.083645344
vt 6.511775E-4 0.7941052
vt 0.22837994 0.5896119
vt 0.22837994 0.7941052
vt 6.511775E-4 0.6659131
vt 6.511775E-4 0.5896119
vt 0.21681103 0.79535735
vt 0.46688297 0.590238
vt 0.46688297 0.79535735
vt 0.21681103 0.590238
vt 0.0012337614 0.7941052
vt 0.22957456 0.66630435
vt 0.22957456 0.7941052
vt 0.0012337614 0.59023607
vt 0.22957456 0.59023607
vt 0.34219575 0.6946111
vt 0.57405496 0.591068
vt 0.57405496 0.6946111
vt 0.34219575 0.591068
vt 0.46928993 0.13466549
vt 0.4767677 0.23607719
vt 0.47006455 0.24305868
vt 0.4760919 0.1414001
vt 0.62693894 0.23104167
vt 0.63381183 0.23756814
vt 0.6252979 0.14100051
vt 0.63192725 0.13423002
vt 0.47436324 0.2609142
vt 0.66836894 0.25670314
vt 0.6749288 0.26354265
vt 0.4744965 0.25260758
vt 0.67315173 0.08969641
vt 0.68009925 0.08296704
vt 0.47668996 0.08230901
vt 0.47645393 0.08906031
vt 0.27039436 0.08839357
vt 0.2635993 0.08161855
vt 0.27139428 0.24831581
vt 0.26468745 0.25536144
vt 0.28273228 0.25459075
vt 0.44526163 0.26053143
vt 0.5121218 0.15753031
vt 0.6068014 0.15232968
vt 0.6068014 0.15753031
vt 0.5121218 0.15232968
vt 0.65806687 0.096529484
vt 0.6632675 0.24678302
vt 0.65806687 0.24678302
vt 0.6632675 0.096529484
vt 0.516765 0.16702485
vt 0.6068014 0.1618241
vt 0.6068014 0.16702485
vt 0.516765 0.1618241
vt 0.6485723 0.09757626
vt 0.65377295 0.24678302
vt 0.6485723 0.24678302
vt 0.65377295 0.09757626
vt 0.45751503 0.10084301
vt 0.66066253 0.1060437
vt 0.45751503 0.1060437
vt 0.66066253 0.10084295
vt 0.2635993 0.10084307
vt 0.2635993 0.106043756
vt 0.43067446 0.114631414
vt 0.2635993 0.11983216
vt 0.2635993 0.114631414
vt 0.43067446 0.1198321
vt 0.46965888 0.08705455
vt 0.6663567 0.092255294
vt 0.46965888 0.092255294
vt 0.6663567 0.08705455
vt 0.2635993 0.08705461
vt 0.2635993 0.092255354
vt 0.47388974 0.12993622
vt 0.63381183 0.124735355
vt 0.63381183 0.12993622
vt 0.47388974 0.124735355

g Warehouse_Small_02
s 1
usemtl Warehouse_Small_02
f 3/3/3 2/2/2 1/1/1 
f 4/4/4 1/1/1 2/2/2 
f 7/7/7 6/6/6 5/5/5 
f 8/8/8 5/5/5 6/6/6 
f 6/6/6 9/9/9 8/8/8 
f 10/10/10 8/8/8 9/9/9 
f 13/13/13 12/12/12 11/11/11 
f 14/14/14 11/11/11 12/12/12 
f 17/17/17 16/16/16 15/15/15 
f 18/18/18 15/15/15 16/16/16 
f 15/15/15 19/19/19 17/17/17 
f 20/20/20 17/17/17 19/19/19 
f 23/23/23 22/22/22 21/21/21 
f 24/24/24 21/21/21 22/22/22 
f 27/27/27 26/26/26 25/25/25 
f 28/28/28 25/25/25 26/26/26 
f 31/31/31 30/30/30 29/29/29 
f 32/32/32 29/29/29 30/30/30 
f 32/32/32 30/30/30 33/33/33 
f 34/34/34 33/33/33 30/30/30 
f 37/37/37 36/36/36 35/35/35 
f 35/35/35 36/36/36 38/38/38 
f 36/36/36 39/39/39 38/38/38 
f 42/42/42 41/41/41 40/40/40 
f 43/43/43 40/40/40 41/41/41 
f 46/46/46 45/45/45 44/44/44 
f 45/45/45 47/47/47 44/44/44 
f 48/48/48 47/47/47 45/45/45 
f 51/51/51 50/50/50 49/49/49 
f 52/52/52 49/49/49 50/50/50 
f 55/55/55 54/54/54 53/53/53 
f 56/56/56 53/53/53 54/54/54 
f 54/54/54 55/55/55 57/57/57 
f 58/58/58 57/57/57 55/55/55 
f 57/57/57 58/58/58 59/59/59 
f 60/60/60 59/59/59 58/58/58 
f 53/53/53 56/56/56 60/60/60 
f 59/59/59 60/60/60 56/56/56 
f 63/63/63 62/62/62 61/61/61 
f 64/64/64 61/61/61 62/62/62 
f 62/62/62 63/63/63 65/65/65 
f 66/66/66 65/65/65 63/63/63 
f 66/66/66 67/67/67 65/65/65 
f 68/68/68 65/65/65 67/67/67 
f 68/68/68 67/67/67 69/69/69 
f 70/70/70 69/69/69 67/67/67 
f 69/69/69 70/70/70 71/71/71 
f 72/72/72 71/71/71 70/70/70 
f 72/72/72 73/73/73 71/71/71 
f 71/71/71 73/73/73 64/64/64 
f 73/73/73 74/74/74 64/64/64 
f 74/74/74 61/61/61 64/64/64 
f 77/77/77 76/76/76 75/75/75 
f 78/78/78 75/75/75 76/76/76 
f 81/81/81 80/80/80 79/79/79 
f 82/82/82 79/79/79 80/80/80 
f 85/85/85 84/84/84 83/83/83 
f 86/86/86 83/83/83 84/84/84 
f 89/89/89 88/88/88 87/87/87 
f 90/90/90 87/87/87 88/88/88 
f 93/93/93 92/92/92 91/91/91 
f 94/94/94 91/91/91 92/92/92 
f 91/91/91 95/95/95 93/93/93 
f 96/96/96 93/93/93 95/95/95 
f 99/99/99 98/98/98 97/97/97 
f 100/100/100 97/97/97 98/98/98 
f 103/103/103 102/102/102 101/101/101 
f 104/104/104 101/101/101 102/102/102 
f 101/101/101 105/105/105 103/103/103 
f 106/106/106 103/103/103 105/105/105 
f 109/109/109 108/108/108 107/107/107 
f 110/110/110 107/107/107 108/108/108 

