# Created by DisUnity v0.3.4
v -8.710806 4.658703 -5.885597
v 8.733429 7.99218 0.033721924
v -8.733414 7.99218 -0.033676147
v 8.756025 4.658703 -5.818161
v -8.733414 4.658703 -0.033676147
v -8.710806 4.658703 -5.885597
v -8.733414 7.99218 -0.033676147
v -8.75602 4.658703 5.8182526
v -8.75602 -0.6208267 5.8182526
v 8.710808 4.658703 5.8856506
v 8.710808 -0.6208267 5.8856506
v -8.75602 4.658703 5.8182526
v 8.733429 4.6587124 0.033714294
v 8.710808 4.658703 5.8856506
v 8.733429 7.99218 0.033721924
v 8.756025 4.658703 -5.818161
v 8.756025 -0.6208267 -5.818161
v -8.710806 4.658703 -5.885597
v -8.710806 -0.6208267 -5.885597
v 8.756025 4.658703 -5.818161
v -8.75602 4.658703 5.8182526
v 8.733429 7.99218 0.033721924
v 8.710808 4.658703 5.8856506
v -8.733414 7.99218 -0.033676147
v 8.733429 -0.6208267 0.033721924
v 8.710808 4.658703 5.8856506
v 8.733429 4.6587124 0.033714294
v 8.710808 -0.6208267 5.8856506
v 8.756025 4.658703 -5.818161
v 8.756025 -0.6208267 -5.818161
v -8.733414 -0.6208267 -0.033676147
v -8.710806 4.658703 -5.885597
v -8.733414 4.658703 -0.033676147
v -8.710806 -0.6208267 -5.885597
v -8.75602 4.658703 5.8182526
v -8.75602 -0.6208267 5.8182526
vn 0.0019098641 0.8689141 -0.49495918
vn 0.0019098639 0.8689141 -0.49495918
vn 0.0019098639 0.8689141 -0.49495918
vn 0.0019109556 0.86891276 -0.49496153
vn -0.9999926 0.0 -0.0038632846
vn -0.9999926 0.0 -0.0038632846
vn -0.9999926 0.0 -0.0038632846
vn -0.9999926 0.0 -0.0038629535
vn -0.003858604 0.0 0.9999926
vn -0.0038586042 0.0 0.9999926
vn -0.0038586042 0.0 0.9999926
vn -0.0038586042 0.0 0.9999926
vn 0.9999926 0.0 0.0038655563
vn 0.9999926 0.0 0.0038655566
vn 0.9999926 0.0 0.003865556
vn 0.9999926 0.0 0.003861359
vn 0.0038607873 0.0 -0.9999926
vn 0.0038607873 0.0 -0.9999926
vn 0.0038607873 0.0 -0.9999926
vn 0.0038607873 0.0 -0.9999926
vn -0.0019098638 0.86891437 0.49495873
vn -0.0019098638 0.86891437 0.4949588
vn -0.0019098637 0.86891437 0.49495867
vn -0.0019098618 0.86891437 0.49495867
vn 0.9999926 0.0 0.0038655556
vn 0.9999926 0.0 0.0038655559
vn 0.9999926 0.0 0.0038655559
vn 0.9999926 0.0 0.0038655612
vn 0.9999926 0.0 0.003861354
vn 0.9999926 0.0 0.0038613537
vn -0.9999926 0.0 -0.0038632846
vn -0.9999926 0.0 -0.0038632846
vn -0.9999926 0.0 -0.0038632846
vn -0.9999926 0.0 -0.0038632846
vn -0.9999926 0.0 -0.0038629535
vn -0.9999926 0.0 -0.0038629535
vt 0.56789935 0.79344606
vt 0.4111024 0.84231526
vt 0.56789935 0.8423152
vt 0.41110235 0.79344606
vt 0.15661371 0.8993684
vt 0.11401741 0.8993684
vt 0.15661371 0.87212974
vt 0.19921006 0.8993684
vt 0.078687504 0.9992539
vt 0.39900163 0.884658
vt 0.39900163 0.9992539
vt 0.078687504 0.884658
vt 0.15518358 0.89936835
vt 0.1125872 0.8993684
vt 0.15518358 0.87212974
vt 0.19777986 0.8993684
vt 0.013345681 0.9992539
vt 0.397088 0.884658
vt 0.397088 0.9992539
vt 0.013345681 0.884658
vt 0.41110235 0.79344606
vt 0.56789935 0.8423152
vt 0.56789935 0.79344606
vt 0.4111024 0.84231526
vt 0.11819328 0.9992539
vt 0.0050424226 0.884658
vt 0.11819328 0.88465786
vt 0.0050424226 0.9992539
vt 0.23134392 0.884658
vt 0.23134392 0.9992539
vt 0.1219922 0.9992539
vt 0.0088415295 0.884658
vt 0.1219922 0.884658
vt 0.0088415295 0.9992539
vt 0.235143 0.884658
vt 0.235143 0.9992539

g Warehouse_Small_07
s 1
usemtl Warehouse_Small_07
f 3/3/3 2/2/2 1/1/1 
f 4/4/4 1/1/1 2/2/2 
f 7/7/7 6/6/6 5/5/5 
f 7/7/7 5/5/5 8/8/8 
f 11/11/11 10/10/10 9/9/9 
f 12/12/12 9/9/9 10/10/10 
f 15/15/15 14/14/14 13/13/13 
f 15/15/15 13/13/13 16/16/16 
f 19/19/19 18/18/18 17/17/17 
f 20/20/20 17/17/17 18/18/18 
f 23/23/23 22/22/22 21/21/21 
f 24/24/24 21/21/21 22/22/22 
f 27/27/27 26/26/26 25/25/25 
f 28/28/28 25/25/25 26/26/26 
f 27/27/27 25/25/25 29/29/29 
f 30/30/30 29/29/29 25/25/25 
f 33/33/33 32/32/32 31/31/31 
f 34/34/34 31/31/31 32/32/32 
f 33/33/33 31/31/31 35/35/35 
f 36/36/36 35/35/35 31/31/31 

