# Created by DisUnity v0.3.4
v -12.951836 5.969002 -8.42836
v -1.6732635 -1.9073486E-6 -14.861195
v -1.6732635 5.969002 -14.861195
v -12.951836 -1.9073486E-6 -8.42836
v -15.132141 5.969002 -3.4245796
v -12.951836 -1.9073486E-6 -8.42836
v -12.951836 5.969002 -8.42836
v -15.132141 -1.9073486E-6 -3.4245796
v -16.774414 5.969 8.783207
v -15.132141 -1.9073486E-6 -3.4245796
v -15.132141 5.969002 -3.4245796
v -16.774414 -1.9073486E-6 8.783207
v -15.865749 5.969 15.378288
v -16.774414 -1.9073486E-6 8.783207
v -16.774414 5.969 8.783207
v -15.865749 -1.9073486E-6 15.378288
v -5.506199 5.969 15.234383
v -15.865749 -1.9073486E-6 15.378288
v -15.865749 5.969 15.378288
v -5.506199 -1.9073486E-6 15.234383
v -4.9138565 5.969 9.293377
v -5.506199 -1.9073486E-6 15.234383
v -5.506199 5.969 15.234383
v -4.9138565 -1.9073486E-6 9.293377
v 11.409714 5.969 8.00079
v -4.9138565 -1.9073486E-6 9.293377
v -4.9138565 5.969 9.293377
v 11.409714 -1.9073486E-6 8.00079
v 16.455704 5.969002 -14.91177
v 11.409714 -1.9073486E-6 8.00079
v 11.409714 5.969 8.00079
v 16.455704 -1.9073486E-6 -14.91177
v -1.6732635 5.969002 -14.861195
v 16.455704 -1.9073486E-6 -14.91177
v 16.455704 5.969002 -14.91177
v -1.6732635 -1.9073486E-6 -14.861195
v 11.062767 5.651726 7.6023483
v -1.5601807 5.651726 -14.436886
v 15.92704 5.6517277 -14.485676
v -5.301098 5.651726 8.898125
v -12.619064 5.651726 -8.129471
v -14.719246 5.6517277 -3.3092957
v -16.345768 5.651726 8.7824745
v -15.496197 5.651726 14.948544
v -5.8911552 5.651726 14.8149605
v -1.6732635 5.969002 -14.861195
v -12.619064 5.969002 -8.129471
v -12.951836 5.969002 -8.42836
v -1.5601807 5.969002 -14.436886
v -14.719246 5.969002 -3.3092957
v -15.132141 5.969002 -3.4245796
v -16.345768 5.969 8.7824745
v -16.774414 5.969 8.783207
v -15.496197 5.969 14.948544
v -15.865749 5.969 15.378288
v -5.8911552 5.969 14.8149605
v -5.506199 5.969 15.234383
v -5.301098 5.969 8.898125
v -4.9138565 5.969 9.293377
v 11.062767 5.969 7.6023483
v 11.409714 5.969 8.00079
v 15.92704 5.969002 -14.485676
v 16.455704 5.969002 -14.91177
v -1.5601807 5.969002 -14.436886
v -12.619064 5.651726 -8.129471
v -12.619064 5.969002 -8.129471
v -1.5601807 5.651726 -14.436886
v -12.619064 5.969002 -8.129471
v -14.719246 5.6517277 -3.3092957
v -14.719246 5.969002 -3.3092957
v -12.619064 5.651726 -8.129471
v -14.719246 5.969002 -3.3092957
v -16.345768 5.651726 8.7824745
v -16.345768 5.969 8.7824745
v -14.719246 5.6517277 -3.3092957
v -16.345768 5.969 8.7824745
v -15.496197 5.651726 14.948544
v -15.496197 5.969 14.948544
v -16.345768 5.651726 8.7824745
v -15.496197 5.969 14.948544
v -5.8911552 5.651726 14.8149605
v -5.8911552 5.969 14.8149605
v -15.496197 5.651726 14.948544
v -5.8911552 5.969 14.8149605
v -5.301098 5.651726 8.898125
v -5.301098 5.969 8.898125
v -5.8911552 5.651726 14.8149605
v -5.301098 5.969 8.898125
v 11.062767 5.651726 7.6023483
v 11.062767 5.969 7.6023483
v -5.301098 5.651726 8.898125
v 11.062767 5.969 7.6023483
v 15.92704 5.6517277 -14.485676
v 15.92704 5.969002 -14.485676
v 11.062767 5.651726 7.6023483
v 15.92704 5.969002 -14.485676
v -1.5601807 5.651726 -14.436886
v -1.5601807 5.969002 -14.436886
v 15.92704 5.6517277 -14.485676
vn -0.49543837 0.0 -0.8686431
vn -0.49543837 0.0 -0.8686431
vn -0.49543837 0.0 -0.8686431
vn -0.49543837 0.0 -0.8686431
vn -0.9167517 0.0 -0.3994577
vn -0.9167517 0.0 -0.3994577
vn -0.9167517 0.0 -0.39945772
vn -0.9167517 0.0 -0.39945772
vn -0.99107224 0.0 -0.13332565
vn -0.99107224 0.0 -0.13332565
vn -0.99107224 0.0 -0.13332564
vn -0.99107224 0.0 -0.13332565
vn -0.9906414 0.0 0.13648973
vn -0.9906414 0.0 0.13648973
vn -0.9906414 0.0 0.13648973
vn -0.9906414 0.0 0.13648973
vn 0.013889769 0.0 0.99990356
vn 0.013889769 0.0 0.99990356
vn 0.01388977 0.0 0.99990356
vn 0.01388977 0.0 0.99990356
vn 0.9950663 0.0 0.09921215
vn 0.9950663 0.0 0.09921215
vn 0.9950663 0.0 0.09921215
vn 0.9950663 0.0 0.09921215
vn 0.078938246 0.0 0.9968796
vn 0.078938246 0.0 0.9968796
vn 0.078938246 0.0 0.9968796
vn 0.078938246 0.0 0.9968796
vn 0.9765977 0.0 0.21507432
vn 0.9765977 0.0 0.21507432
vn 0.9765977 0.0 0.21507432
vn 0.9765977 0.0 0.21507432
vn -0.0027897374 0.0 -0.9999962
vn -0.0027897374 0.0 -0.9999962
vn -0.0027897374 0.0 -0.9999962
vn -0.0027897374 0.0 -0.9999962
vn -0.0 1.0 0.0
vn -0.0 1.0 0.0
vn -0.0 1.0 0.0
vn -0.0 1.0 0.0
vn -0.0 1.0 0.0
vn -0.0 1.0 0.0
vn -0.0 1.0 0.0
vn -0.0 1.0 0.0
vn -0.0 1.0 0.0
vn -0.0 1.0 0.0
vn -0.0 1.0 0.0
vn -0.0 1.0 0.0
vn -0.0 1.0 0.0
vn -0.0 1.0 0.0
vn -0.0 1.0 0.0
vn -0.0 1.0 0.0
vn -0.0 1.0 0.0
vn -0.0 1.0 0.0
vn -0.0 1.0 0.0
vn -0.0 1.0 0.0
vn -0.0 1.0 0.0
vn -0.0 1.0 0.0
vn -0.0 1.0 0.0
vn -0.0 1.0 0.0
vn -0.0 1.0 0.0
vn -0.0 1.0 0.0
vn -0.0 1.0 0.0
vn 0.49543133 0.0 0.86864704
vn 0.49543127 0.0 0.86864704
vn 0.49543127 0.0 0.86864704
vn 0.49543127 0.0 0.86864704
vn 0.9167601 0.0 0.3994383
vn 0.91676 0.0 0.3994383
vn 0.91676 0.0 0.3994383
vn 0.9167601 0.0 0.3994383
vn 0.9910739 0.0 0.13331412
vn 0.9910739 0.0 0.1333141
vn 0.9910739 0.0 0.13331412
vn 0.9910739 0.0 0.13331412
vn 0.99064106 0.0 -0.13649216
vn 0.99064106 0.0 -0.13649218
vn 0.99064106 0.0 -0.13649218
vn 0.99064106 0.0 -0.13649218
vn -0.013906256 0.0 -0.9999033
vn -0.013906255 0.0 -0.9999033
vn -0.013906256 0.0 -0.9999033
vn -0.013906256 0.0 -0.9999033
vn -0.9950642 0.0 -0.099232934
vn -0.9950642 0.0 -0.09923294
vn -0.9950642 0.0 -0.09923293
vn -0.9950642 0.0 -0.09923293
vn -0.078938134 0.0 -0.9968796
vn -0.078938134 0.0 -0.9968796
vn -0.078938134 0.0 -0.9968796
vn -0.078938134 0.0 -0.9968796
vn -0.976599 0.0 -0.21506876
vn -0.976599 0.0 -0.21506876
vn -0.976599 0.0 -0.21506876
vn -0.976599 0.0 -0.21506876
vn 0.0027900254 0.0 0.9999962
vn 0.0027900252 0.0 0.9999962
vn 0.0027900254 0.0 0.9999962
vn 0.0027900254 0.0 0.9999962
vt -0.8111803 0.45474887
vt -1.0920541 0.5838703
vt -1.0920541 0.45474887
vt -0.8111803 0.5838703
vt -0.69310826 0.45474887
vt -0.8111803 0.5838703
vt -0.8111803 0.45474887
vt -0.69310826 0.5838703
vt -0.42664862 0.45474887
vt -0.69310826 0.5838703
vt -0.69310826 0.45474887
vt -0.42664862 0.5838703
vt -0.28263754 0.45474887
vt -0.42664862 0.5838703
vt -0.42664862 0.45474887
vt -0.28263754 0.5838703
vt -0.058519818 0.45474887
vt -0.28263754 0.5838703
vt -0.28263754 0.45474887
vt -0.058519818 0.5838703
vt 0.07063134 0.45474887
vt -0.058519818 0.5838703
vt -0.058519818 0.45474887
vt 0.07063134 0.5838703
vt 0.42484742 0.45474887
vt 0.07063134 0.5838703
vt 0.07063134 0.45474887
vt 0.42484742 0.5838703
vt 0.9323712 0.45474887
vt 0.42484742 0.5838703
vt 0.42484742 0.45474887
vt 0.9323712 0.5838703
vt -1.0920541 0.45474887
vt -1.4842196 0.5838703
vt -1.4842196 0.45474887
vt -1.0920541 0.5838703
vt 0.48445195 0.08537024
vt 0.57382923 0.24613547
vt 0.44718832 0.24487507
vt 0.60307294 0.07749671
vt 0.6544958 0.20147997
vt 0.6701494 0.16676766
vt 0.683044 0.07935339
vt 0.67746073 0.03462249
vt 0.6078921 0.034703434
vt 0.56535083 0.26828498
vt 0.6560767 0.21406913
vt 0.6587823 0.21656209
vt 0.56446534 0.2647835
vt 0.6738543 0.17464715
vt 0.67723805 0.17563862
vt 0.6884983 0.07537264
vt 0.6920237 0.0754115
vt 0.6821576 0.024572551
vt 0.6852419 0.021077096
vt 0.60314995 0.02466458
vt 0.60002786 0.021174729
vt 0.59767705 0.07326394
vt 0.59453374 0.069972694
vt 0.4629616 0.08220571
vt 0.46015006 0.07889241
vt 0.42064196 0.2633521
vt 0.41624957 0.26680094
vt 0.884876 0.023624301
vt 0.9784051 0.02101469
vt 0.9784051 0.023624301
vt 0.884876 0.02101469
vt 0.744707 0.022443056
vt 0.78340185 0.019833565
vt 0.78340185 0.022443056
vt 0.744707 0.019833565
vt 0.78340185 0.022443056
vt 0.88202584 0.019833565
vt 0.88202584 0.022443056
vt 0.78340185 0.019833565
vt 0.88202584 0.022443056
vt 0.9330355 0.019833565
vt 0.9330355 0.022443056
vt 0.88202584 0.019833565
vt 0.8315793 0.021709442
vt 0.75257146 0.024318933
vt 0.75257146 0.021709442
vt 0.8315793 0.024318933
vt 0.8177656 0.023199558
vt 0.8661132 0.020589948
vt 0.8661132 0.023199558
vt 0.8177656 0.020589948
vt 0.8975047 0.020449877
vt 0.76254237 0.023059368
vt 0.76254237 0.020449877
vt 0.8975047 0.023059368
vt 0.74123156 0.022644758
vt 0.92725563 0.020035267
vt 0.92725563 0.022644758
vt 0.74123156 0.020035267
vt 0.7412193 0.023624301
vt 0.884876 0.02101469
vt 0.884876 0.023624301
vt 0.7412193 0.02101469

g Warehouse_Small_05
s 1
usemtl Warehouse_Small_05
f 3/3/3 2/2/2 1/1/1 
f 4/4/4 1/1/1 2/2/2 
f 7/7/7 6/6/6 5/5/5 
f 8/8/8 5/5/5 6/6/6 
f 11/11/11 10/10/10 9/9/9 
f 12/12/12 9/9/9 10/10/10 
f 15/15/15 14/14/14 13/13/13 
f 16/16/16 13/13/13 14/14/14 
f 19/19/19 18/18/18 17/17/17 
f 20/20/20 17/17/17 18/18/18 
f 23/23/23 22/22/22 21/21/21 
f 24/24/24 21/21/21 22/22/22 
f 27/27/27 26/26/26 25/25/25 
f 28/28/28 25/25/25 26/26/26 
f 31/31/31 30/30/30 29/29/29 
f 32/32/32 29/29/29 30/30/30 
f 35/35/35 34/34/34 33/33/33 
f 36/36/36 33/33/33 34/34/34 
f 39/39/39 38/38/38 37/37/37 
f 40/40/40 37/37/37 38/38/38 
f 38/38/38 41/41/41 40/40/40 
f 42/42/42 40/40/40 41/41/41 
f 43/43/43 40/40/40 42/42/42 
f 43/43/43 44/44/44 40/40/40 
f 45/45/45 40/40/40 44/44/44 
f 48/48/48 47/47/47 46/46/46 
f 49/49/49 46/46/46 47/47/47 
f 47/47/47 48/48/48 50/50/50 
f 51/51/51 50/50/50 48/48/48 
f 50/50/50 51/51/51 52/52/52 
f 53/53/53 52/52/52 51/51/51 
f 52/52/52 53/53/53 54/54/54 
f 55/55/55 54/54/54 53/53/53 
f 54/54/54 55/55/55 56/56/56 
f 57/57/57 56/56/56 55/55/55 
f 56/56/56 57/57/57 58/58/58 
f 59/59/59 58/58/58 57/57/57 
f 58/58/58 59/59/59 60/60/60 
f 61/61/61 60/60/60 59/59/59 
f 60/60/60 61/61/61 62/62/62 
f 63/63/63 62/62/62 61/61/61 
f 62/62/62 63/63/63 49/49/49 
f 46/46/46 49/49/49 63/63/63 
f 66/66/66 65/65/65 64/64/64 
f 67/67/67 64/64/64 65/65/65 
f 70/70/70 69/69/69 68/68/68 
f 71/71/71 68/68/68 69/69/69 
f 74/74/74 73/73/73 72/72/72 
f 75/75/75 72/72/72 73/73/73 
f 78/78/78 77/77/77 76/76/76 
f 79/79/79 76/76/76 77/77/77 
f 82/82/82 81/81/81 80/80/80 
f 83/83/83 80/80/80 81/81/81 
f 86/86/86 85/85/85 84/84/84 
f 87/87/87 84/84/84 85/85/85 
f 90/90/90 89/89/89 88/88/88 
f 91/91/91 88/88/88 89/89/89 
f 94/94/94 93/93/93 92/92/92 
f 95/95/95 92/92/92 93/93/93 
f 98/98/98 97/97/97 96/96/96 
f 99/99/99 96/96/96 97/97/97 

