# Created by DisUnity v0.3.4
v -124.64117 17.675835 -61.71305
v -123.906525 0.005519867 61.71309
v -124.641365 0.0055179596 -61.71325
v -123.906525 17.675837 61.71309
v 124.607376 0.0054569244 -7.91893
v 124.64148 17.675777 58.265244
v 124.60722 17.675777 -7.919029
v 124.64148 0.0054569244 58.265244
v -124.64117 17.675835 -61.71305
v -0.016998291 0.005487442 -34.81609
v -0.016975403 17.675808 -34.81604
v -124.641365 0.0055179596 -61.71325
v -119.59454 16.21462 57.30168
v -0.0032806396 16.214592 -30.417053
v 0.3614273 16.214592 55.647247
v -120.27071 16.21462 -56.369522
v 120.264145 16.214563 -4.4645844
v 120.3174 16.214563 53.992798
v -123.906525 0.005519867 61.71309
v 0.36747742 17.675808 59.989166
v 0.36747742 0.005487442 59.989166
v -123.906525 17.675837 61.71309
v -124.64117 17.675835 -61.71305
v -119.59454 17.675837 57.30168
v -123.906525 17.675837 61.71309
v -120.27071 17.675837 -56.369522
v 0.36747742 17.675808 59.989166
v -119.59454 17.675837 57.30168
v 0.3614273 17.675808 55.647247
v -123.906525 17.675837 61.71309
v 120.3174 17.67578 53.992798
v 124.64148 17.675777 58.265244
v 124.64148 17.675777 58.265244
v 120.264145 17.67578 -4.4645844
v 124.60722 17.675777 -7.919029
v 120.3174 17.67578 53.992798
v -0.016975403 17.675808 -34.81604
v 120.264145 17.67578 -4.4645844
v -0.0032806396 17.675808 -30.417053
v 124.60722 17.675777 -7.919029
v -120.27071 17.675837 -56.369522
v -124.64117 17.675835 -61.71305
v -120.27071 17.675837 -56.369522
v -119.59454 16.21462 57.30168
v -119.59454 17.675837 57.30168
v -120.27071 16.21462 -56.369522
v 0.3614273 17.675808 55.647247
v -119.59454 16.21462 57.30168
v 0.3614273 16.214592 55.647247
v -119.59454 17.675837 57.30168
v 120.3174 17.67578 53.992798
v 120.3174 16.214563 53.992798
v 120.3174 17.67578 53.992798
v 120.264145 16.214563 -4.4645844
v 120.264145 17.67578 -4.4645844
v 120.3174 16.214563 53.992798
v -0.0032806396 17.675808 -30.417053
v 120.264145 16.214563 -4.4645844
v -0.0032806396 16.214592 -30.417053
v 120.264145 17.67578 -4.4645844
v -120.27071 17.675837 -56.369522
v -120.27071 16.21462 -56.369522
v 124.60722 17.675777 -7.919029
v -0.016998291 0.005487442 -34.81609
v 124.607376 0.0054569244 -7.91893
v -0.016975403 17.675808 -34.81604
v 124.64148 0.0054569244 58.265244
v 0.36747742 17.675808 59.989166
v 124.64148 17.675777 58.265244
v 0.36747742 0.005487442 59.989166
vn -0.99998236 1.0148666E-5 0.005953426
vn -0.99998236 0.0 0.005952117
vn -0.99998236 1.1158814E-5 0.00595357
vn -0.99998236 0.0 0.005951972
vn 0.9999999 0.0 -5.172021E-4
vn 0.9999999 0.0 -5.1566295E-4
vn 0.9999999 0.0 -5.1758497E-4
vn 0.9999999 0.0 -5.152802E-4
vn 0.21096817 0.0 -0.9774929
vn 0.21096747 0.0 -0.97749305
vn 0.21096738 0.0 -0.97749305
vn 0.21096821 0.0 -0.9774929
vn -0.0 1.0 0.0
vn -0.0 1.0 0.0
vn -0.0 1.0 0.0
vn -0.0 1.0 0.0
vn -0.0 1.0 0.0
vn -0.0 1.0 0.0
vn 0.0138706155 0.0 0.9999038
vn 0.013870616 0.0 0.9999038
vn 0.013870616 0.0 0.9999038
vn 0.013870615 0.0 0.9999038
vn -0.0 1.0 0.0
vn -0.0 1.0 0.0
vn -0.0 1.0 0.0
vn -0.0 1.0 0.0
vn -0.0 1.0 0.0
vn -0.0 1.0 0.0
vn -0.0 1.0 0.0
vn -0.0 1.0 0.0
vn -0.0 1.0 0.0
vn -0.0 1.0 0.0
vn -0.0 1.0 0.0
vn -0.0 1.0 0.0
vn -0.0 1.0 0.0
vn -0.0 1.0 0.0
vn -0.0 1.0 0.0
vn -0.0 1.0 0.0
vn -0.0 1.0 0.0
vn -0.0 1.0 0.0
vn -0.0 1.0 0.0
vn -0.0 1.0 0.0
vn 0.99998236 0.0 -0.00594837
vn 0.99998236 0.0 -0.0059483703
vn 0.99998236 0.0 -0.0059483703
vn 0.99998236 0.0 -0.0059483703
vn -0.013790701 0.0 -0.9999049
vn -0.0137907 0.0 -0.9999049
vn -0.0137907 0.0 -0.9999049
vn -0.0137907 0.0 -0.9999049
vn -0.013790827 0.0 -0.9999049
vn -0.013790826 0.0 -0.9999049
vn -0.99999964 0.0 9.10974E-4
vn -0.99999964 0.0 9.10974E-4
vn -0.99999964 0.0 9.10974E-4
vn -0.99999964 0.0 9.10974E-4
vn -0.21093445 0.0 0.97750026
vn -0.21093448 0.0 0.97750026
vn -0.21093445 0.0 0.97750026
vn -0.21093445 0.0 0.97750026
vn -0.21093445 0.0 0.97750026
vn -0.21093445 0.0 0.97750026
vn 0.21096817 0.0 -0.9774929
vn 0.21096747 0.0 -0.97749305
vn 0.21096821 0.0 -0.9774929
vn 0.21096738 0.0 -0.97749305
vn 0.0138706155 0.0 0.9999038
vn 0.013870616 0.0 0.9999038
vn 0.0138706155 0.0 0.9999038
vn 0.013870616 0.0 0.9999038
vt 0.028442625 0.46261144
vt 0.7210999 0.5803771
vt 0.028442625 0.580377
vt 0.7210999 0.46261144
vt 0.97383773 0.5812918
vt 0.60245353 0.46352607
vt 0.97383773 0.4635262
vt 0.60245353 0.5812917
vt 0.7175724 0.4659258
vt 0.021967195 0.58369166
vt 0.021966618 0.465926
vt 0.7175736 0.5836915
vt 0.652958 0.017187238
vt 0.37718108 0.22463691
vt 0.37987143 0.016341388
vt 0.6499701 0.2883749
vt 0.10439215 0.16089898
vt 0.10678487 0.015495539
vt 0.025158543 0.5844159
vt 0.7226183 0.4666505
vt 0.7226183 0.58441615
vt 0.025158543 0.4666502
vt 0.47918168 0.069719434
vt 0.91898924 0.051070094
vt 0.93529105 0.06700456
vt 0.49892828 0.05356896
vt 0.47678518 0.037256062
vt 0.92009324 0.04718733
vt 0.4768076 0.053301096
vt 0.9360277 0.030885518
vt 0.033521928 0.059414923
vt 0.017542632 0.043626606
vt 0.92254996 0.051428676
vt 0.6907378 0.06760472
vt 0.67797226 0.051555276
vt 0.90676165 0.067407966
vt 0.4840415 0.04713881
vt 0.026830567 0.013866305
vt 0.48116896 0.03113854
vt 0.013241669 0.029224813
vt 0.9355073 0.048410714
vt 0.9548413 0.06505275
vt 0.064068586 0.07330054
vt 0.48412958 0.06790078
vt 0.48412958 0.07330054
vt 0.064068586 0.06790078
vt 0.49545696 0.051158488
vt 0.052171297 0.045758784
vt 0.49545696 0.045758724
vt 0.052171297 0.051158607
vt 0.93874264 0.05115837
vt 0.93874264 0.045758605
vt 0.69488543 0.07330054
vt 0.91090906 0.06790078
vt 0.91090906 0.07330054
vt 0.69488543 0.06790078
vt 0.49430594 0.06972182
vt 0.04986921 0.064321876
vt 0.49430594 0.064321995
vt 0.04986921 0.0697217
vt 0.93874264 0.06972194
vt 0.93874264 0.064322114
vt 0.025760386 0.46592617
vt 0.7213666 0.58369166
vt 0.025760386 0.58369184
vt 0.721366 0.465926
vt 0.7206792 0.58441633
vt 0.023219079 0.4666505
vt 0.7206792 0.46665072
vt 0.023219079 0.58441615

g Warehouse_Large_04
s 1
usemtl Warehouse_Large_04
f 3/3/3 2/2/2 1/1/1 
f 4/4/4 1/1/1 2/2/2 
f 7/7/7 6/6/6 5/5/5 
f 8/8/8 5/5/5 6/6/6 
f 11/11/11 10/10/10 9/9/9 
f 12/12/12 9/9/9 10/10/10 
f 15/15/15 14/14/14 13/13/13 
f 16/16/16 13/13/13 14/14/14 
f 14/14/14 15/15/15 17/17/17 
f 18/18/18 17/17/17 15/15/15 
f 21/21/21 20/20/20 19/19/19 
f 22/22/22 19/19/19 20/20/20 
f 25/25/25 24/24/24 23/23/23 
f 26/26/26 23/23/23 24/24/24 
f 29/29/29 28/28/28 27/27/27 
f 30/30/30 27/27/27 28/28/28 
f 29/29/29 27/27/27 31/31/31 
f 32/32/32 31/31/31 27/27/27 
f 35/35/35 34/34/34 33/33/33 
f 36/36/36 33/33/33 34/34/34 
f 39/39/39 38/38/38 37/37/37 
f 40/40/40 37/37/37 38/38/38 
f 39/39/39 37/37/37 41/41/41 
f 42/42/42 41/41/41 37/37/37 
f 45/45/45 44/44/44 43/43/43 
f 46/46/46 43/43/43 44/44/44 
f 49/49/49 48/48/48 47/47/47 
f 50/50/50 47/47/47 48/48/48 
f 47/47/47 51/51/51 49/49/49 
f 52/52/52 49/49/49 51/51/51 
f 55/55/55 54/54/54 53/53/53 
f 56/56/56 53/53/53 54/54/54 
f 59/59/59 58/58/58 57/57/57 
f 60/60/60 57/57/57 58/58/58 
f 57/57/57 61/61/61 59/59/59 
f 62/62/62 59/59/59 61/61/61 
f 65/65/65 64/64/64 63/63/63 
f 66/66/66 63/63/63 64/64/64 
f 69/69/69 68/68/68 67/67/67 
f 70/70/70 67/67/67 68/68/68 

