# Created by DisUnity v0.3.4
v 60.828873 9.889767 52.539543
v 10.039352 7.6293945E-6 51.967937
v 9.976761 9.889767 51.96719
v 60.828873 7.6293945E-6 52.539543
v -34.60475 9.889767 51.46535
v -34.60475 7.6293945E-6 51.46535
v 60.769333 9.889767 1.6174812
v 60.828873 7.6293945E-6 52.539543
v 60.828873 9.889767 52.539543
v 60.769333 7.6293945E-6 1.6174812
v 41.373306 9.889767 1.4027553
v 60.769333 7.6293945E-6 1.6174812
v 60.769333 9.889767 1.6174812
v 41.373306 7.6293945E-6 1.4027553
v 41.89766 9.889767 -12.27124
v 41.373306 7.6293945E-6 1.4027553
v 41.373306 9.889767 1.4027553
v 41.89766 7.5139673E-16 -12.27124
v 49.234528 9.889767 -17.91243
v 41.89766 7.5139673E-16 -12.27124
v 41.89766 9.889767 -12.27124
v 49.234528 1.09682E-15 -17.91243
v 49.23471 9.889767 -23.286575
v 49.234528 1.09682E-15 -17.91243
v 49.234528 9.889767 -17.91243
v 49.23471 1.4258915E-15 -23.286575
v 35.593628 9.889767 -38.142963
v 35.593628 2.3355828E-15 -38.142963
v 30.856583 9.889767 -37.639812
v 30.856583 2.304774E-15 -37.639812
v 21.881851 9.889767 -30.17655
v 21.881851 1.8477808E-15 -30.17655
v 14.480621 9.889767 -30.455034
v 14.480621 7.6293945E-6 -30.455034
v 9.734467 9.889767 -45.74857
v 14.480621 7.6293945E-6 -30.455034
v 14.480621 9.889767 -30.455034
v 9.734467 7.6293945E-6 -45.74857
v -33.026413 9.889763 -45.32662
v 9.734467 7.6293945E-6 -45.74857
v 9.734467 9.889767 -45.74857
v -33.026413 7.6293945E-6 -45.32662
v -40.01494 9.889763 -52.53915
v -33.026413 7.6293945E-6 -45.32662
v -33.026413 9.889763 -45.32662
v -40.01494 7.6293945E-6 -52.53915
v -60.629135 9.889763 -51.886345
v -40.01494 7.6293945E-6 -52.53915
v -40.01494 9.889763 -52.53915
v -60.629135 7.6293945E-6 -51.886345
v -60.828934 9.889763 -19.045319
v -60.629135 7.6293945E-6 -51.886345
v -60.629135 9.889763 -51.886345
v -60.828934 7.6293945E-6 -19.045319
v -33.170822 9.889763 -19.957108
v -60.828934 7.6293945E-6 -19.045319
v -60.828934 9.889763 -19.045319
v -33.170822 7.6293945E-6 -19.957108
v -34.60475 9.889767 51.46535
v -33.170822 7.6293945E-6 -19.957108
v -33.170822 9.889763 -19.957108
v -34.60475 7.6293945E-6 51.46535
v -59.26439 9.100651 -50.555798
v -33.60228 9.100651 -43.947872
v -59.44725 9.100651 -20.46476
v -40.578537 9.100651 -51.147465
v -31.769333 9.100651 -21.376736
v 8.726288 9.100651 -44.365696
v 13.45752 9.100651 -29.119612
v 22.355316 9.100651 -28.78449
v -33.20439 9.100651 50.10817
v 9.54361 9.100651 22.439121
v 39.947067 9.100651 2.7601218
v 59.454163 9.100651 51.150856
v 59.397614 9.100651 2.9755976
v 9.975967 9.100651 50.594067
v 40.550232 9.100651 -12.967363
v 31.414963 9.100651 -36.318268
v 47.861588 9.100651 -18.588863
v 35.05063 9.100651 -36.704582
v 47.86151 9.100651 -22.751728
v 9.976761 9.889767 51.96719
v 59.454163 9.889767 51.150856
v 60.828873 9.889767 52.539543
v 9.97554 9.889767 50.594067
v 59.397614 9.889767 2.9755976
v 60.769333 9.889767 1.6174812
v 39.947067 9.889767 2.7601218
v 41.373306 9.889767 1.4027553
v 40.550232 9.889767 -12.967363
v 41.89766 9.889767 -12.27124
v 47.861588 9.889767 -18.588863
v 49.234528 9.889767 -17.91243
v 47.86151 9.889767 -22.751728
v 49.23471 9.889767 -23.286575
v 35.05063 9.889767 -36.704582
v 35.593628 9.889767 -38.142963
v 31.414963 9.889767 -36.318268
v 30.856583 9.889767 -37.639812
v 22.355316 9.889767 -28.78449
v 21.881851 9.889767 -30.17655
v 13.45752 9.889767 -29.119612
v 14.480621 9.889767 -30.455034
v 8.726288 9.889767 -44.365696
v 9.734467 9.889767 -45.74857
v -33.60228 9.889763 -43.947872
v -33.026413 9.889763 -45.32662
v -40.578537 9.889763 -51.147465
v -40.01494 9.889763 -52.53915
v -59.26439 9.889763 -50.555798
v -60.629135 9.889763 -51.886345
v -59.44725 9.889763 -20.46476
v -60.828934 9.889763 -19.045319
v -31.769333 9.889763 -21.376736
v -33.170822 9.889763 -19.957108
v -33.20439 9.889767 50.10817
v -34.60475 9.889767 51.46535
v 59.454163 9.889767 51.150856
v 9.975967 9.100651 50.594067
v 59.454163 9.100651 51.150856
v 9.97554 9.889767 50.594067
v -33.20439 9.100651 50.10817
v -33.20439 9.889767 50.10817
v 59.454163 9.889767 51.150856
v 59.397614 9.100651 2.9755976
v 59.397614 9.889767 2.9755976
v 59.454163 9.889767 51.150856
v 59.454163 9.100651 51.150856
v 59.397614 9.889767 2.9755976
v 39.947067 9.100651 2.7601218
v 39.947067 9.889767 2.7601218
v 59.397614 9.100651 2.9755976
v 39.947067 9.889767 2.7601218
v 40.550232 9.100651 -12.967363
v 40.550232 9.889767 -12.967363
v 39.947067 9.100651 2.7601218
v 40.550232 9.889767 -12.967363
v 47.861588 9.100651 -18.588863
v 47.861588 9.889767 -18.588863
v 40.550232 9.100651 -12.967363
v 47.861588 9.889767 -18.588863
v 47.86151 9.100651 -22.751728
v 47.86151 9.889767 -22.751728
v 47.861588 9.889767 -18.588863
v 47.861588 9.100651 -18.588863
v 35.05063 9.100651 -36.704582
v 47.86151 9.889767 -22.751728
v 35.05063 9.889767 -36.704582
v 35.05063 9.889767 -36.704582
v 31.414963 9.100651 -36.318268
v 31.414963 9.889767 -36.318268
v 35.05063 9.100651 -36.704582
v 22.355316 9.100651 -28.78449
v 22.355316 9.889767 -28.78449
v 13.45752 9.100651 -29.119612
v 13.45752 9.889767 -29.119612
v 13.45752 9.889767 -29.119612
v 8.726288 9.100651 -44.365696
v 8.726288 9.889767 -44.365696
v 13.45752 9.100651 -29.119612
v 8.726288 9.889767 -44.365696
v -33.60228 9.100651 -43.947872
v -33.60228 9.889763 -43.947872
v 8.726288 9.100651 -44.365696
v -33.60228 9.889763 -43.947872
v -40.578537 9.100651 -51.147465
v -40.578537 9.889763 -51.147465
v -33.60228 9.100651 -43.947872
v -40.578537 9.889763 -51.147465
v -59.26439 9.100651 -50.555798
v -59.26439 9.889763 -50.555798
v -40.578537 9.100651 -51.147465
v -59.26439 9.889763 -50.555798
v -59.44725 9.100651 -20.46476
v -59.44725 9.889763 -20.46476
v -59.26439 9.889763 -50.555798
v -59.26439 9.100651 -50.555798
v -59.44725 9.889763 -20.46476
v -31.769333 9.100651 -21.376736
v -31.769333 9.889763 -21.376736
v -59.44725 9.100651 -20.46476
v -31.769333 9.889763 -21.376736
v -33.20439 9.100651 50.10817
v -33.20439 9.889767 50.10817
v -31.769333 9.100651 -21.376736
vn -0.011253794 0.0 0.9999367
vn -0.011255252 0.0 0.9999367
vn -0.011255244 0.0 0.9999367
vn -0.011253689 0.0 0.9999367
vn -0.011256774 0.0 0.9999367
vn -0.011256909 0.0 0.9999367
vn 0.9999994 0.0 -0.0011692331
vn 0.9999994 0.0 -0.0011692331
vn 0.9999994 0.0 -0.0011692331
vn 0.9999994 0.0 -0.0011692331
vn 0.011069938 0.0 -0.9999387
vn 0.011069938 0.0 -0.9999387
vn 0.011069939 0.0 -0.9999387
vn 0.011069939 0.0 -0.9999387
vn 0.9992656 0.0 0.038318567
vn 0.9992656 0.0 0.038318567
vn 0.9992656 0.0 0.03831857
vn 0.9992656 0.0 0.038318567
vn 0.60953724 0.0 0.79275733
vn 0.60953724 0.0 0.79275733
vn 0.60953724 0.0 0.79275733
vn 0.60953724 0.0 0.79275733
vn 0.93183035 0.0 -0.36289418
vn 1.0 0.0 3.407155E-5
vn 1.0 0.0 3.4071552E-5
vn 0.93183035 0.0 -0.36289415
vn 0.35330305 0.0 -0.93550897
vn 0.35330305 0.0 -0.93550897
vn -0.38919985 0.0 -0.9211533
vn -0.38919985 0.0 -0.9211533
vn -0.32219627 0.0 -0.9466728
vn -0.32219642 0.0 -0.9466728
vn 0.037600156 0.0 -0.99929285
vn 0.037600156 0.0 -0.99929285
vn 0.9550662 0.0 -0.29639274
vn 0.9550662 0.0 -0.29639274
vn 0.9550662 0.0 -0.29639274
vn 0.9550662 0.0 -0.29639274
vn -0.009867215 0.0 -0.99995136
vn -0.009867215 0.0 -0.99995136
vn -0.009867215 0.0 -0.99995136
vn -0.0098672155 0.0 -0.99995136
vn 0.71817124 0.0 -0.6958663
vn 0.71817124 0.0 -0.6958663
vn 0.71817124 0.0 -0.6958663
vn 0.71817124 0.0 -0.6958663
vn -0.03165189 0.0 -0.99949896
vn -0.03165189 0.0 -0.99949896
vn -0.031651888 0.0 -0.99949896
vn -0.031651888 0.0 -0.99949896
vn -0.9999815 0.0 -0.006083698
vn -0.9999815 0.0 -0.006083698
vn -0.9999815 0.0 -0.0060836975
vn -0.9999815 0.0 -0.0060836975
vn 0.032948516 0.0 0.99945706
vn 0.032948516 0.0 0.99945706
vn 0.03294852 0.0 0.99945706
vn 0.03294852 0.0 0.99945706
vn -0.9997986 0.0 -0.020072686
vn -0.9997986 0.0 -0.020072687
vn -0.9997986 0.0 -0.02007269
vn -0.9997986 0.0 -0.020072687
vn -0.0 1.0 0.0
vn -0.0 1.0 0.0
vn -0.0 1.0 0.0
vn -0.0 1.0 0.0
vn -0.0 1.0 0.0
vn -0.0 1.0 0.0
vn -0.0 1.0 0.0
vn -0.0 1.0 0.0
vn -0.0 1.0 0.0
vn -0.0 1.0 0.0
vn -0.0 1.0 0.0
vn -0.0 1.0 0.0
vn -0.0 1.0 0.0
vn -0.0 1.0 0.0
vn -0.0 1.0 0.0
vn -0.0 1.0 0.0
vn -0.0 1.0 0.0
vn -0.0 1.0 0.0
vn -0.0 1.0 0.0
vn -0.0 1.0 0.0
vn -0.0 1.0 0.0
vn -0.0 1.0 0.0
vn -0.0 1.0 0.0
vn -0.0 1.0 0.0
vn -0.0 1.0 0.0
vn -0.0 1.0 0.0
vn -0.0 1.0 0.0
vn -0.0 1.0 0.0
vn -0.0 1.0 0.0
vn -0.0 1.0 0.0
vn -0.0 1.0 0.0
vn -0.0 1.0 0.0
vn -0.0 1.0 0.0
vn -0.0 1.0 0.0
vn -0.0 1.0 0.0
vn -0.0 1.0 0.0
vn -0.0 1.0 0.0
vn -0.0 1.0 0.0
vn -0.0 1.0 0.0
vn -0.0 1.0 0.0
vn -0.0 1.0 0.0
vn -0.0 1.0 0.0
vn -0.0 1.0 0.0
vn -0.0 1.0 0.0
vn -0.0 1.0 0.0
vn -0.0 1.0 0.0
vn -0.0 1.0 0.0
vn -0.0 1.0 0.0
vn -0.0 1.0 0.0
vn -0.0 1.0 0.0
vn -0.0 1.0 0.0
vn -0.0 1.0 0.0
vn -0.0 1.0 0.0
vn -0.0 1.0 0.0
vn -0.0 1.0 0.0
vn 0.011252515 0.0 -0.9999367
vn 0.01125222 0.0 -0.9999367
vn 0.011252516 0.0 -0.9999367
vn 0.011252221 0.0 -0.9999367
vn 0.011252133 0.0 -0.9999367
vn 0.011252132 0.0 -0.9999367
vn -0.9999993 0.0 0.0011738191
vn -0.9999993 0.0 0.0011738191
vn -0.9999993 0.0 0.0011738191
vn -0.9999993 0.0 0.0011738191
vn -0.9999993 0.0 0.0011738191
vn -0.011077455 0.0 0.9999387
vn -0.011077455 0.0 0.9999387
vn -0.011077457 0.0 0.9999387
vn -0.011077457 0.0 0.9999387
vn -0.9992654 0.0 -0.038322818
vn -0.9992654 0.0 -0.038322818
vn -0.9992654 0.0 -0.038322818
vn -0.9992654 0.0 -0.038322818
vn -0.6095323 0.0 -0.79276127
vn -0.6095323 0.0 -0.79276127
vn -0.60953236 0.0 -0.79276127
vn -0.60953236 0.0 -0.79276127
vn -1.0 0.0 1.8327273E-5
vn -0.931825 0.0 0.36290812
vn -0.93182486 0.0 0.3629081
vn -1.0 0.0 1.8327273E-5
vn -1.0 0.0 1.8327271E-5
vn -0.7366078 0.0 0.6763202
vn -0.93182486 0.0 0.3629081
vn -0.73660785 0.0 0.67632014
vn 0.105662026 0.0 0.9944021
vn 0.38921544 0.0 0.92114675
vn 0.38921556 0.0 0.92114675
vn 0.105662026 0.0 0.9944021
vn 0.32217613 0.0 0.9466798
vn 0.3221761 0.0 0.9466798
vn -0.037636705 0.0 0.9992914
vn -0.037636705 0.0 0.99929154
vn -0.95506966 0.0 0.29638138
vn -0.95506966 0.0 0.29638138
vn -0.95506966 0.0 0.2963814
vn -0.95506966 0.0 0.2963814
vn 0.0098704845 0.0 0.99995136
vn 0.009870483 0.0 0.99995136
vn 0.009870484 0.0 0.99995136
vn 0.0098704845 0.0 0.99995136
vn -0.7181578 0.0 0.6958802
vn -0.7181578 0.0 0.6958802
vn -0.7181578 0.0 0.6958802
vn -0.7181578 0.0 0.6958802
vn 0.031648047 0.0 0.9994991
vn 0.031648047 0.0 0.9994991
vn 0.031648047 0.0 0.9994991
vn 0.031648047 0.0 0.9994991
vn 0.9999815 0.0 0.006076825
vn 0.9999815 0.0 0.006076825
vn 0.9999815 0.0 0.006076825
vn 0.9999815 0.0 0.006076825
vn 0.9999815 0.0 0.006076825
vn -0.032931715 0.0 -0.99945766
vn -0.032931715 0.0 -0.99945766
vn -0.03293171 0.0 -0.99945766
vn -0.03293171 0.0 -0.99945766
vn 0.9997986 0.0 0.020070944
vn 0.9997986 0.0 0.020070944
vn 0.9997986 0.0 0.020070944
vn 0.9997986 0.0 0.020070944
vt -0.6985538 0.449879
vt -1.4126766 0.58892536
vt -1.4135568 0.449879
vt -0.6985538 0.58892536
vt -2.0403974 0.449879
vt -2.0403974 0.58892536
vt 0.017388567 0.449879
vt -0.6985538 0.58892536
vt -0.6985538 0.449879
vt 0.017388567 0.58892536
vt 0.29010415 0.45045537
vt 0.017388567 0.58892536
vt 0.017388567 0.449879
vt 0.29010415 0.588349
vt 0.47930646 0.45103174
vt 0.29010415 0.588349
vt 0.29010415 0.45045537
vt 0.47930646 0.58777255
vt 0.60727334 0.45103174
vt 0.47930646 0.58777255
vt 0.47930646 0.45103174
vt 0.60727334 0.58777255
vt 0.68157697 0.45103174
vt 0.60727334 0.58777255
vt 0.60727334 0.45103174
vt 0.68157697 0.58777255
vt 0.9604447 0.45103174
vt 0.9604447 0.58777255
vt 1.0263093 0.45103174
vt 1.0263093 0.58777255
vt 1.1877005 0.45103174
vt 1.1877005 0.58777255
vt 1.2901042 0.4504553
vt 1.2901042 0.588349
vt 1.5152421 0.44987893
vt 1.2901042 0.588349
vt 1.2901042 0.4504553
vt 1.5152421 0.58892536
vt 2.1164749 0.44987893
vt 1.5152421 0.58892536
vt 1.5152421 0.44987893
vt 2.1164749 0.58892536
vt 2.257672 0.44987893
vt 2.1164749 0.58892536
vt 2.1164749 0.44987893
vt 2.257672 0.58892536
vt 2.5476449 0.44987893
vt 2.257672 0.58892536
vt 2.257672 0.44987893
vt 2.5476449 0.58892536
vt 3.0093832 0.44987893
vt 2.5476449 0.58892536
vt 2.5476449 0.44987893
vt 3.0093832 0.58892536
vt 3.3984554 0.44987893
vt 3.0093832 0.58892536
vt 3.0093832 0.44987893
vt 3.3984554 0.58892536
vt 4.402831 0.44987893
vt 3.3984554 0.58892536
vt 3.3984554 0.44987893
vt 4.402831 0.58892536
vt 0.43749824 0.0112121105
vt 0.49137846 0.022414565
vt 0.43925962 0.07339132
vt 0.47591886 0.008282423
vt 0.4967409 0.069303155
vt 0.5796351 0.019317865
vt 0.59051883 0.050878584
vt 0.6096061 0.051385105
vt 0.49680653 0.21837884
vt 0.58481294 0.15912014
vt 0.6474063 0.11697328
vt 0.68957466 0.2169851
vt 0.6880148 0.11704004
vt 0.5866397 0.21772933
vt 0.6482052 0.083995104
vt 0.6283697 0.035328448
vt 0.6633615 0.07199782
vt 0.63597757 0.03441131
vt 0.66323817 0.06327367
vt 0.59279734 0.22123265
vt 0.69622856 0.21749347
vt 0.69898486 0.22018445
vt 0.59272796 0.21843171
vt 0.6949413 0.11649555
vt 0.69776845 0.113782465
vt 0.6543465 0.11652863
vt 0.657293 0.11383098
vt 0.6553551 0.084178686
vt 0.6581788 0.085454404
vt 0.67045504 0.07232714
vt 0.67336065 0.073505044
vt 0.67003435 0.063301325
vt 0.6727622 0.062120378
vt 0.642732 0.034113646
vt 0.64389145 0.03125143
vt 0.6347056 0.03450668
vt 0.6337742 0.03173077
vt 0.615466 0.04983926
vt 0.6145904 0.046923637
vt 0.597252 0.04975325
vt 0.59919137 0.04689765
vt 0.58638835 0.018250823
vt 0.58837473 0.015311122
vt 0.49802655 0.020880222
vt 0.49908262 0.017915845
vt 0.48230416 0.0069860816
vt 0.48316115 0.004057944
vt 0.44300967 0.0106835365
vt 0.4401865 0.00818789
vt 0.44453186 0.07394767
vt 0.4417287 0.076842666
vt 0.5021575 0.07007778
vt 0.4993285 0.07311082
vt 0.5024039 0.21925044
vt 0.49970335 0.22215164
vt 0.69622856 0.21749347
vt 0.59275216 0.21772933
vt 0.6956871 0.2169851
vt 0.59272796 0.21843171
vt 0.50291896 0.21837884
vt 0.5024039 0.21925044
vt 0.69622856 0.21749347
vt 0.69412726 0.11704004
vt 0.6949413 0.11649555
vt 0.69622856 0.21749347
vt 0.6956871 0.2169851
vt 0.6949413 0.11649555
vt 0.65351874 0.11697328
vt 0.6543465 0.11652863
vt 0.69412726 0.11704004
vt 0.6543465 0.11652863
vt 0.65402997 0.08381826
vt 0.6553551 0.084178686
vt 0.65351874 0.11697328
vt 0.6553551 0.084178686
vt 0.66910726 0.07197225
vt 0.67045504 0.07232714
vt 0.65402997 0.08381826
vt 0.67045504 0.07232714
vt 0.66881543 0.06392741
vt 0.67003435 0.063301325
vt 0.67045504 0.07232714
vt 0.66910726 0.07197225
vt 0.6422866 0.03527212
vt 0.67003435 0.063301325
vt 0.642732 0.034113646
vt 0.642732 0.034113646
vt 0.6350366 0.035888374
vt 0.6347056 0.03450668
vt 0.6422866 0.03527212
vt 0.61571854 0.051385105
vt 0.615466 0.04983926
vt 0.5966313 0.050878584
vt 0.597252 0.04975325
vt 0.597252 0.04975325
vt 0.58574754 0.019317865
vt 0.58638835 0.018250823
vt 0.5966313 0.050878584
vt 0.58638835 0.018250823
vt 0.49749088 0.022414565
vt 0.49802655 0.020880222
vt 0.58574754 0.019317865
vt 0.49802655 0.020880222
vt 0.4820313 0.008282423
vt 0.48230416 0.0069860816
vt 0.49749088 0.022414565
vt 0.48230416 0.0069860816
vt 0.44361067 0.0112121105
vt 0.44300967 0.0106835365
vt 0.4820313 0.008282423
vt 0.44300967 0.0106835365
vt 0.44537205 0.07339132
vt 0.44453186 0.07394767
vt 0.44300967 0.0106835365
vt 0.44361067 0.0112121105
vt 0.44453186 0.07394767
vt 0.50285333 0.069303155
vt 0.5021575 0.07007778
vt 0.44537205 0.07339132
vt 0.5021575 0.07007778
vt 0.50291896 0.21837884
vt 0.5024039 0.21925044
vt 0.50285333 0.069303155

g Warehouse_Large_05
s 1
usemtl Warehouse_Large_05
f 3/3/3 2/2/2 1/1/1 
f 4/4/4 1/1/1 2/2/2 
f 3/3/3 5/5/5 2/2/2 
f 6/6/6 2/2/2 5/5/5 
f 9/9/9 8/8/8 7/7/7 
f 10/10/10 7/7/7 8/8/8 
f 13/13/13 12/12/12 11/11/11 
f 14/14/14 11/11/11 12/12/12 
f 17/17/17 16/16/16 15/15/15 
f 18/18/18 15/15/15 16/16/16 
f 21/21/21 20/20/20 19/19/19 
f 22/22/22 19/19/19 20/20/20 
f 25/25/25 24/24/24 23/23/23 
f 26/26/26 23/23/23 24/24/24 
f 23/23/23 26/26/26 27/27/27 
f 28/28/28 27/27/27 26/26/26 
f 27/27/27 28/28/28 29/29/29 
f 30/30/30 29/29/29 28/28/28 
f 29/29/29 30/30/30 31/31/31 
f 32/32/32 31/31/31 30/30/30 
f 31/31/31 32/32/32 33/33/33 
f 34/34/34 33/33/33 32/32/32 
f 37/37/37 36/36/36 35/35/35 
f 38/38/38 35/35/35 36/36/36 
f 41/41/41 40/40/40 39/39/39 
f 42/42/42 39/39/39 40/40/40 
f 45/45/45 44/44/44 43/43/43 
f 46/46/46 43/43/43 44/44/44 
f 49/49/49 48/48/48 47/47/47 
f 50/50/50 47/47/47 48/48/48 
f 53/53/53 52/52/52 51/51/51 
f 54/54/54 51/51/51 52/52/52 
f 57/57/57 56/56/56 55/55/55 
f 58/58/58 55/55/55 56/56/56 
f 61/61/61 60/60/60 59/59/59 
f 62/62/62 59/59/59 60/60/60 
f 65/65/65 64/64/64 63/63/63 
f 66/66/66 63/63/63 64/64/64 
f 65/65/65 67/67/67 64/64/64 
f 64/64/64 67/67/67 68/68/68 
f 69/69/69 68/68/68 67/67/67 
f 69/69/69 67/67/67 70/70/70 
f 71/71/71 70/70/70 67/67/67 
f 71/71/71 72/72/72 70/70/70 
f 73/73/73 70/70/70 72/72/72 
f 73/73/73 72/72/72 74/74/74 
f 75/75/75 73/73/73 74/74/74 
f 74/74/74 72/72/72 76/76/76 
f 71/71/71 76/76/76 72/72/72 
f 77/77/77 70/70/70 73/73/73 
f 70/70/70 77/77/77 78/78/78 
f 79/79/79 78/78/78 77/77/77 
f 78/78/78 79/79/79 80/80/80 
f 81/81/81 80/80/80 79/79/79 
f 84/84/84 83/83/83 82/82/82 
f 85/85/85 82/82/82 83/83/83 
f 83/83/83 84/84/84 86/86/86 
f 87/87/87 86/86/86 84/84/84 
f 86/86/86 87/87/87 88/88/88 
f 89/89/89 88/88/88 87/87/87 
f 88/88/88 89/89/89 90/90/90 
f 91/91/91 90/90/90 89/89/89 
f 90/90/90 91/91/91 92/92/92 
f 93/93/93 92/92/92 91/91/91 
f 92/92/92 93/93/93 94/94/94 
f 95/95/95 94/94/94 93/93/93 
f 94/94/94 95/95/95 96/96/96 
f 97/97/97 96/96/96 95/95/95 
f 96/96/96 97/97/97 98/98/98 
f 99/99/99 98/98/98 97/97/97 
f 98/98/98 99/99/99 100/100/100 
f 101/101/101 100/100/100 99/99/99 
f 100/100/100 101/101/101 102/102/102 
f 103/103/103 102/102/102 101/101/101 
f 102/102/102 103/103/103 104/104/104 
f 105/105/105 104/104/104 103/103/103 
f 104/104/104 105/105/105 106/106/106 
f 107/107/107 106/106/106 105/105/105 
f 106/106/106 107/107/107 108/108/108 
f 109/109/109 108/108/108 107/107/107 
f 108/108/108 109/109/109 110/110/110 
f 111/111/111 110/110/110 109/109/109 
f 110/110/110 111/111/111 112/112/112 
f 113/113/113 112/112/112 111/111/111 
f 112/112/112 113/113/113 114/114/114 
f 115/115/115 114/114/114 113/113/113 
f 114/114/114 115/115/115 116/116/116 
f 117/117/117 116/116/116 115/115/115 
f 117/117/117 82/82/82 116/116/116 
f 85/85/85 116/116/116 82/82/82 
f 120/120/120 119/119/119 118/118/118 
f 121/121/121 118/118/118 119/119/119 
f 119/119/119 122/122/122 121/121/121 
f 123/123/123 121/121/121 122/122/122 
f 126/126/126 125/125/125 124/124/124 
f 128/128/128 127/127/127 125/125/125 
f 131/131/131 130/130/130 129/129/129 
f 132/132/132 129/129/129 130/130/130 
f 135/135/135 134/134/134 133/133/133 
f 136/136/136 133/133/133 134/134/134 
f 139/139/139 138/138/138 137/137/137 
f 140/140/140 137/137/137 138/138/138 
f 143/143/143 142/142/142 141/141/141 
f 145/145/145 144/144/144 142/142/142 
f 142/142/142 147/147/147 146/146/146 
f 148/148/148 146/146/146 147/147/147 
f 151/151/151 150/150/150 149/149/149 
f 152/152/152 149/149/149 150/150/150 
f 150/150/150 151/151/151 153/153/153 
f 154/154/154 153/153/153 151/151/151 
f 153/153/153 154/154/154 155/155/155 
f 156/156/156 155/155/155 154/154/154 
f 159/159/159 158/158/158 157/157/157 
f 160/160/160 157/157/157 158/158/158 
f 163/163/163 162/162/162 161/161/161 
f 164/164/164 161/161/161 162/162/162 
f 167/167/167 166/166/166 165/165/165 
f 168/168/168 165/165/165 166/166/166 
f 171/171/171 170/170/170 169/169/169 
f 172/172/172 169/169/169 170/170/170 
f 175/175/175 174/174/174 173/173/173 
f 177/177/177 176/176/176 174/174/174 
f 180/180/180 179/179/179 178/178/178 
f 181/181/181 178/178/178 179/179/179 
f 184/184/184 183/183/183 182/182/182 
f 185/185/185 182/182/182 183/183/183 

