# Created by DisUnity v0.3.4
v 12.360321 4.5255566 5.1943455
v -12.3603325 4.5255566 -5.194199
v 12.3335495 4.5255566 -5.25775
v -12.333542 4.5255547 5.257697
v 13.015007 -1.7166138E-5 5.8454366
v 12.984802 4.9892654 -5.9123197
v 12.984802 -1.7166138E-5 -5.9123197
v 13.015007 4.9892673 5.8454366
v 12.984802 -1.7166138E-5 -5.9123197
v -13.015015 4.9892673 -5.845489
v -13.015015 -1.7166138E-5 -5.845489
v 12.984802 4.9892654 -5.9123197
v -13.015015 -1.7166138E-5 -5.845489
v -12.984825 4.9892673 5.9124684
v -12.984825 -1.5258789E-5 5.9124684
v -13.015015 4.9892673 -5.845489
v -12.984825 -1.5258789E-5 5.9124684
v 13.015007 4.9892673 5.8454366
v 13.015007 -1.7166138E-5 5.8454366
v -12.984825 4.9892673 5.9124684
v 13.015007 4.9892673 5.8454366
v 12.3335495 4.9892654 -5.25775
v 12.984802 4.9892654 -5.9123197
v 12.360321 4.9892673 5.1943455
v -12.3603325 4.9892673 -5.194199
v -13.015015 4.9892673 -5.845489
v -12.333542 4.9892673 5.257697
v -12.984825 4.9892673 5.9124684
v 12.360321 4.9892673 5.1943455
v 12.3335495 4.5255566 -5.25775
v 12.3335495 4.9892654 -5.25775
v 12.360321 4.5255566 5.1943455
v 12.3335495 4.9892654 -5.25775
v -12.3603325 4.5255566 -5.194199
v -12.3603325 4.9892673 -5.194199
v 12.3335495 4.5255566 -5.25775
v -12.3603325 4.9892673 -5.194199
v -12.333542 4.5255547 5.257697
v -12.333542 4.9892673 5.257697
v -12.3603325 4.5255566 -5.194199
v -12.333542 4.9892673 5.257697
v 12.360321 4.5255566 5.1943455
v 12.360321 4.9892673 5.1943455
v -12.333542 4.5255547 5.257697
vn -0.0 1.0 0.0
vn -0.0 1.0 0.0
vn -0.0 1.0 0.0
vn -0.0 1.0 0.0
vn 0.9999968 0.0 -0.0025689148
vn 0.9999968 0.0 -0.0025689148
vn 0.9999968 0.0 -0.0025689148
vn 0.9999968 0.0 -0.0025689148
vn -0.0025704184 0.0 -0.9999968
vn -0.0025704186 0.0 -0.9999968
vn -0.0025704184 0.0 -0.9999968
vn -0.0025704184 0.0 -0.9999968
vn -0.9999968 0.0 0.0025675732
vn -0.9999968 0.0 0.0025675732
vn -0.9999968 0.0 0.0025675732
vn -0.9999968 0.0 0.0025675732
vn 0.0025781565 0.0 0.99999666
vn 0.0025781565 0.0 0.99999666
vn 0.002578156 0.0 0.99999666
vn 0.0025781565 0.0 0.99999666
vn -0.0 1.0 0.0
vn -0.0 1.0 0.0
vn -0.0 1.0 0.0
vn -0.0 1.0 0.0
vn -0.0 1.0 0.0
vn -0.0 1.0 0.0
vn -0.0 1.0 0.0
vn -0.0 1.0 0.0
vn -0.9999968 0.0 0.002561349
vn -0.9999968 0.0 0.002561349
vn -0.9999968 0.0 0.0025613487
vn -0.9999968 0.0 0.002561349
vn 0.0025735416 0.0 0.99999666
vn 0.0025735416 0.0 0.99999666
vn 0.0025735418 0.0 0.99999666
vn 0.0025735416 0.0 0.99999666
vn 0.9999968 0.0 -0.0025632216
vn 0.9999968 0.0 -0.0025632218
vn 0.9999968 0.0 -0.0025632216
vn 0.9999968 0.0 -0.0025632216
vn -0.0025654724 0.0 -0.9999968
vn -0.0025654724 0.0 -0.9999968
vn -0.0025654724 0.0 -0.9999968
vn -0.0025654724 0.0 -0.9999968
vt 0.6604462 0.1787883
vt 0.35673517 0.027299225
vt 0.66868156 0.046751976
vt 0.34850028 0.15933323
vt 0.0037901518 0.7926507
vt 0.22940965 0.6889209
vt 0.22940965 0.7926507
vt 0.0037901518 0.6889209
vt 0.004404396 0.79283154
vt 0.5754186 0.6898347
vt 0.5754186 0.79283154
vt 0.004404396 0.6898347
vt 0.0033677164 0.7924905
vt 0.22898719 0.68876064
vt 0.22898719 0.7924905
vt 0.0033677164 0.68876064
vt 0.0020329654 0.7910571
vt 0.57304716 0.6880602
vt 0.57304716 0.7910571
vt 0.0020329654 0.6880602
vt 0.34851438 0.022016764
vt 0.35676518 0.16257274
vt 0.34850028 0.17083561
vt 0.35677886 0.030279756
vt 0.66931754 0.162601
vt 0.67758185 0.17086649
vt 0.6693309 0.030310571
vt 0.6775963 0.022045135
vt 0.5104438 0.15131235
vt 0.37840736 0.15718162
vt 0.37840736 0.15131241
vt 0.5104438 0.15718162
vt 0.6604467 0.009151459
vt 0.34850028 0.015020728
vt 0.34850028 0.009151459
vt 0.6604467 0.015020728
vt 0.51044124 0.14223844
vt 0.37840736 0.14810765
vt 0.37840736 0.14223844
vt 0.51044124 0.14810765
vt 0.6604462 0.018225372
vt 0.34850028 0.024094582
vt 0.34850028 0.018225372
vt 0.6604462 0.024094582

g Warehouse_Small_03
s 1
usemtl Warehouse_Small_03
f 3/3/3 2/2/2 1/1/1 
f 2/2/2 4/4/4 1/1/1 
f 7/7/7 6/6/6 5/5/5 
f 6/6/6 8/8/8 5/5/5 
f 11/11/11 10/10/10 9/9/9 
f 10/10/10 12/12/12 9/9/9 
f 15/15/15 14/14/14 13/13/13 
f 14/14/14 16/16/16 13/13/13 
f 19/19/19 18/18/18 17/17/17 
f 18/18/18 20/20/20 17/17/17 
f 23/23/23 22/22/22 21/21/21 
f 22/22/22 24/24/24 21/21/21 
f 25/25/25 22/22/22 23/23/23 
f 26/26/26 25/25/25 23/23/23 
f 27/27/27 25/25/25 26/26/26 
f 28/28/28 27/27/27 26/26/26 
f 21/21/21 24/24/24 28/28/28 
f 24/24/24 27/27/27 28/28/28 
f 31/31/31 30/30/30 29/29/29 
f 30/30/30 32/32/32 29/29/29 
f 35/35/35 34/34/34 33/33/33 
f 34/34/34 36/36/36 33/33/33 
f 39/39/39 38/38/38 37/37/37 
f 38/38/38 40/40/40 37/37/37 
f 43/43/43 42/42/42 41/41/41 
f 42/42/42 44/44/44 41/41/41 

