# Created by DisUnity v0.3.4
v 15.253754 19.88541 -9.806744
v 32.10353 19.88541 34.818726
v 15.986893 19.88541 31.230896
v 31.835724 19.88541 -9.282297
v -5.685974 19.88541 -10.116901
v -4.861664 19.88541 26.847824
v 31.887024 19.88541 -24.276073
v 18.934586 19.88541 -20.953873
v -5.6739807 19.88541 -21.373861
v -32.084785 19.885357 -9.928713
v -32.24803 19.885357 20.631111
v -32.059868 19.885357 -21.221428
v 32.169754 19.88541 -35.322845
v 19.310654 19.88541 -35.65175
v 15.681778 3.1892357 -39.471165
v 35.989227 20.859554 -38.951756
v 15.681778 20.859554 -39.471165
v 35.989227 3.1892357 -38.951756
v -35.81015 3.1891766 -9.942774
v -35.989334 20.859493 23.601994
v -35.989334 3.1891766 23.601994
v -35.81015 20.859493 -9.942774
v -35.777084 20.859493 -24.9254
v -35.777084 3.1891766 -24.9254
v 15.198883 3.1892357 34.872055
v -5.6572723 20.859554 30.487381
v 15.198883 20.859554 34.872055
v -5.6572723 3.1892357 30.487381
v 35.85724 3.1892357 39.47094
v 35.85724 20.859554 39.47094
v -35.989334 20.859493 23.601994
v -35.989334 3.1891766 23.601994
v 35.85724 3.1892357 39.47094
v 35.561142 20.859554 -9.287235
v 35.561142 3.1892357 -9.287235
v 35.85724 20.859554 39.47094
v 35.612244 3.1892357 -24.222038
v 35.612244 20.859554 -24.222038
v 35.989227 3.1892357 -38.951756
v 35.989227 20.859554 -38.951756
v 15.304901 20.859554 -24.741745
v -5.652954 3.1892357 -25.09943
v 15.304901 3.1892357 -24.741745
v -5.652954 20.859554 -25.09943
v -35.777084 3.1891766 -24.9254
v -35.777084 20.859493 -24.9254
v 15.304901 3.1892357 -24.741745
v 15.681778 20.859554 -39.471165
v 15.304901 20.859554 -24.741745
v 15.681778 3.1892357 -39.471165
v 15.198883 20.859554 34.872055
v 32.10353 20.859554 34.818726
v 35.85724 20.859554 39.47094
v 15.986893 20.859554 31.230896
v 31.835724 20.859554 -9.282297
v 35.561142 20.859554 -9.287235
v 31.887024 20.859554 -24.276073
v 35.612244 20.859554 -24.222038
v 32.169754 20.859554 -35.322845
v 35.989227 20.859554 -38.951756
v 19.310654 20.859554 -35.65175
v 15.681778 20.859554 -39.471165
v 18.934586 20.859554 -20.953873
v 15.304901 20.859554 -24.741745
v -5.6739807 20.859554 -21.373861
v -5.652954 20.859554 -25.09943
v -32.059868 20.8595 -21.221428
v -35.777084 20.859493 -24.9254
v -32.084785 20.8595 -9.928713
v -35.81015 20.859493 -9.942774
v -32.24803 20.8595 20.631111
v -35.989334 20.859493 23.601994
v -4.861664 20.859554 26.847824
v -5.6572723 20.859554 30.487381
v 15.986893 20.859554 31.230896
v 32.10353 19.88541 34.818726
v 32.10353 20.859554 34.818726
v 15.986893 19.88541 31.230896
v -4.861664 20.859554 26.847824
v -4.861664 19.88541 26.847824
v -32.24803 20.8595 20.631111
v -32.24803 19.885357 20.631111
v 32.10353 20.859554 34.818726
v 31.835724 19.88541 -9.282297
v 31.835724 20.859554 -9.282297
v 32.10353 19.88541 34.818726
v 31.887024 19.88541 -24.276073
v 31.887024 20.859554 -24.276073
v 32.169754 19.88541 -35.322845
v 32.169754 20.859554 -35.322845
v 32.169754 20.859554 -35.322845
v 19.310654 19.88541 -35.65175
v 19.310654 20.859554 -35.65175
v 32.169754 19.88541 -35.322845
v 19.310654 20.859554 -35.65175
v 18.934586 19.88541 -20.953873
v 18.934586 20.859554 -20.953873
v 19.310654 19.88541 -35.65175
v 18.934586 20.859554 -20.953873
v -5.6739807 19.88541 -21.373861
v -5.6739807 20.859554 -21.373861
v 18.934586 19.88541 -20.953873
v -32.059868 19.885357 -21.221428
v -32.059868 20.8595 -21.221428
v -32.059868 20.8595 -21.221428
v -32.084785 19.885357 -9.928713
v -32.084785 20.8595 -9.928713
v -32.059868 19.885357 -21.221428
v -32.24803 19.885357 20.631111
v -32.24803 20.8595 20.631111
vn -0.0 1.0 0.0
vn -0.0 1.0 0.0
vn -0.0 1.0 0.0
vn -0.0 1.0 0.0
vn -0.0 1.0 0.0
vn -0.0 1.0 0.0
vn -0.0 1.0 0.0
vn -0.0 1.0 0.0
vn -0.0 1.0 0.0
vn -0.0 1.0 0.0
vn -0.0 1.0 0.0
vn -0.0 1.0 0.0
vn -0.0 1.0 0.0
vn -0.0 1.0 0.0
vn 0.02556891 0.0 -0.999673
vn 0.02556891 0.0 -0.999673
vn 0.02556891 0.0 -0.999673
vn 0.02556891 0.0 -0.999673
vn -0.9999858 0.0 -0.0053415606
vn -0.9999858 0.0 -0.0053415606
vn -0.9999858 0.0 -0.0053415596
vn -0.9999858 0.0 -0.0053415596
vn -0.9999976 0.0 -0.0022069376
vn -0.9999976 0.0 -0.0022069374
vn -0.21152045 0.0 0.9773736
vn -0.20573658 0.0 0.9786074
vn -0.21152046 0.0 0.9773736
vn -0.20573659 0.0 0.9786074
vn -0.21729688 0.0 0.9761055
vn -0.2172969 0.0 0.9761055
vn -0.2213685 0.0 0.9751902
vn -0.22136849 0.0 0.9751902
vn 0.99998164 0.0 -0.0060726507
vn 0.99998164 0.0 -0.0060726507
vn 0.99998164 0.0 -0.006072651
vn 0.99998164 0.0 -0.006072651
vn 0.99999416 0.0 0.003421631
vn 0.99999416 0.0 0.0034216312
vn 0.99967265 0.0 0.02558503
vn 0.99967265 0.0 0.025585027
vn 0.017064389 0.0 -0.99985445
vn 0.017064389 0.0 -0.99985445
vn 0.01706439 0.0 -0.99985445
vn 0.01706439 0.0 -0.99985445
vn -0.0057770107 0.0 -0.9999833
vn -0.00577701 0.0 -0.9999833
vn -0.9996728 0.0 -0.025578298
vn -0.9996728 0.0 -0.025578301
vn -0.9996728 0.0 -0.025578301
vn -0.9996728 0.0 -0.025578301
vn -0.0 1.0 0.0
vn -0.0 1.0 0.0
vn -0.0 1.0 0.0
vn -0.0 1.0 0.0
vn -0.0 1.0 0.0
vn -0.0 1.0 0.0
vn -0.0 1.0 0.0
vn -0.0 1.0 0.0
vn -0.0 1.0 0.0
vn -0.0 1.0 0.0
vn -0.0 1.0 0.0
vn -0.0 1.0 0.0
vn -0.0 1.0 0.0
vn -0.0 1.0 0.0
vn -0.0 1.0 0.0
vn -0.0 1.0 0.0
vn -0.0 1.0 0.0
vn -0.0 1.0 0.0
vn -0.0 1.0 0.0
vn -0.0 1.0 0.0
vn -0.0 1.0 0.0
vn -0.0 1.0 0.0
vn -0.0 1.0 0.0
vn -0.0 1.0 0.0
vn 0.21729718 0.0 -0.9761054
vn 0.21729718 0.0 -0.9761054
vn 0.21729717 0.0 -0.9761054
vn 0.21729717 0.0 -0.9761054
vn 0.22136843 0.0 -0.9751902
vn 0.22136845 0.0 -0.9751902
vn 0.22136846 0.0 -0.9751902
vn 0.22136843 0.0 -0.9751902
vn -0.99998164 0.0 0.00607247
vn -0.99998164 0.0 0.0060724695
vn -0.99998164 0.0 0.0060724695
vn -0.99998164 0.0 0.0060724695
vn -0.99999416 0.0 -0.0034214028
vn -0.99999416 0.0 -0.0034214025
vn -0.99967265 0.0 -0.025585534
vn -0.99967265 0.0 -0.025585534
vn -0.0255691 0.0 0.999673
vn -0.025569102 0.0 0.999673
vn -0.025569102 0.0 0.999673
vn -0.025569102 0.0 0.999673
vn 0.9996728 0.0 0.025578188
vn 0.9996728 0.0 0.02557819
vn 0.9996728 0.0 0.025578188
vn 0.9996728 0.0 0.025578188
vn -0.017064283 0.0 0.99985445
vn -0.017064283 0.0 0.99985445
vn -0.017064283 0.0 0.99985445
vn -0.017064283 0.0 0.99985445
vn 0.005776984 0.0 0.9999833
vn 0.005776984 0.0 0.9999833
vn 0.9999976 0.0 0.0022065148
vn 0.9999976 0.0 0.0022065148
vn 0.9999976 0.0 0.0022065146
vn 0.9999976 0.0 0.0022065146
vn 0.9999858 0.0 0.005341779
vn 0.9999858 0.0 0.0053417785
vt 0.25918478 0.11851883
vt 0.30518183 0.24033916
vt 0.26118603 0.23054498
vt 0.30445072 0.11995053
vt 0.20202258 0.117672205
vt 0.20427293 0.21857989
vt 0.30459082 0.079019904
vt 0.26923275 0.08808899
vt 0.2020553 0.086942494
vt 0.12995812 0.11818588
vt 0.12951252 0.20160925
vt 0.13002619 0.087358594
vt 0.30536258 0.048864007
vt 0.2702593 0.047966123
vt 0.69746435 0.5825075
vt 0.5567198 0.46007985
vt 0.69746447 0.4600799
vt 0.5567198 0.58250743
vt 0.7176682 0.5851308
vt 0.9500794 0.46270317
vt 0.9500793 0.5851308
vt 0.7176682 0.46270317
vt 0.613868 0.46270317
vt 0.613868 0.58513075
vt 0.50392514 0.5767519
vt 0.35906217 0.45432425
vt 0.50392514 0.45432436
vt 0.35906208 0.5767519
vt 0.64743435 0.5767519
vt 0.64743435 0.45432436
vt 0.1483389 0.45432472
vt 0.14833885 0.5767523
vt 0.15412247 0.5809103
vt 0.4918899 0.45848286
vt 0.4918899 0.5809103
vt 0.15412247 0.45848286
vt 0.59536237 0.5809103
vt 0.59536237 0.45848286
vt 0.6974389 0.5809103
vt 0.6974389 0.45848286
vt 0.15412247 0.45209396
vt 0.29934773 0.57452154
vt 0.15412247 0.57452154
vt 0.29934773 0.45209396
vt 0.5080298 0.574522
vt 0.5080298 0.45209444
vt 0.25712848 0.58097994
vt 0.1550429 0.45855236
vt 0.25712848 0.45855236
vt 0.1550429 0.58097994
vt 0.2544964 0.25301403
vt 0.3081432 0.2528448
vt 0.32005557 0.26760852
vt 0.25699717 0.24145883
vt 0.3072933 0.11289054
vt 0.31911588 0.112874866
vt 0.3074561 0.065307856
vt 0.31927806 0.0654794
vt 0.3083533 0.030251026
vt 0.3204744 0.018734694
vt 0.26754507 0.02920729
vt 0.25602886 0.017086387
vt 0.26635158 0.075850844
vt 0.25483283 0.06383002
vt 0.18825653 0.074518025
vt 0.18832326 0.06269491
vt 0.10452112 0.075001776
vt 0.09272454 0.06324726
vt 0.10444202 0.11083913
vt 0.092619605 0.110794544
vt 0.10392401 0.20782048
vt 0.09205099 0.21724856
vt 0.1908344 0.2275492
vt 0.18830958 0.23909926
vt 0.07464983 0.035985112
vt 0.023503786 0.039076567
vt 0.023503786 0.035985112
vt 0.07464983 0.039076567
vt 0.14081252 0.035985112
vt 0.14081252 0.039076567
vt 0.22772297 0.03598523
vt 0.22772297 0.039076686
vt 0.2422348 0.03951323
vt 0.102280594 0.042604685
vt 0.102280594 0.03951323
vt 0.2422348 0.042604685
vt 0.054697953 0.042604685
vt 0.054697953 0.03951323
vt 0.019641092 0.042604685
vt 0.019641092 0.03951323
vt 0.19502336 0.03563595
vt 0.15420178 0.038727403
vt 0.15420178 0.03563595
vt 0.19502336 0.038727403
vt 0.11779001 0.03563595
vt 0.07113115 0.038727403
vt 0.07113115 0.03563595
vt 0.11779001 0.038727403
vt 0.18147156 0.033174396
vt 0.103376515 0.03626585
vt 0.103376515 0.033174396
vt 0.18147156 0.03626585
vt 0.019641092 0.03626597
vt 0.019641092 0.033174634
vt 0.15230575 0.038925767
vt 0.11646837 0.042017102
vt 0.11646837 0.038925767
vt 0.15230575 0.042017102
vt 0.019487029 0.042017102
vt 0.019487029 0.038925767

g Warehouse_Large_02
s 1
usemtl Warehouse_Large_02
f 3/3/3 2/2/2 1/1/1 
f 4/4/4 1/1/1 2/2/2 
f 1/1/1 5/5/5 3/3/3 
f 6/6/6 3/3/3 5/5/5 
f 4/4/4 7/7/7 1/1/1 
f 8/8/8 1/1/1 7/7/7 
f 8/8/8 9/9/9 1/1/1 
f 5/5/5 1/1/1 9/9/9 
f 5/5/5 10/10/10 6/6/6 
f 11/11/11 6/6/6 10/10/10 
f 9/9/9 12/12/12 5/5/5 
f 10/10/10 5/5/5 12/12/12 
f 7/7/7 13/13/13 8/8/8 
f 14/14/14 8/8/8 13/13/13 
f 17/17/17 16/16/16 15/15/15 
f 18/18/18 15/15/15 16/16/16 
f 21/21/21 20/20/20 19/19/19 
f 22/22/22 19/19/19 20/20/20 
f 22/22/22 23/23/23 19/19/19 
f 24/24/24 19/19/19 23/23/23 
f 27/27/27 26/26/26 25/25/25 
f 28/28/28 25/25/25 26/26/26 
f 25/25/25 29/29/29 27/27/27 
f 30/30/30 27/27/27 29/29/29 
f 26/26/26 31/31/31 28/28/28 
f 32/32/32 28/28/28 31/31/31 
f 35/35/35 34/34/34 33/33/33 
f 36/36/36 33/33/33 34/34/34 
f 35/35/35 37/37/37 34/34/34 
f 38/38/38 34/34/34 37/37/37 
f 37/37/37 39/39/39 38/38/38 
f 40/40/40 38/38/38 39/39/39 
f 43/43/43 42/42/42 41/41/41 
f 44/44/44 41/41/41 42/42/42 
f 42/42/42 45/45/45 44/44/44 
f 46/46/46 44/44/44 45/45/45 
f 49/49/49 48/48/48 47/47/47 
f 50/50/50 47/47/47 48/48/48 
f 53/53/53 52/52/52 51/51/51 
f 54/54/54 51/51/51 52/52/52 
f 52/52/52 53/53/53 55/55/55 
f 56/56/56 55/55/55 53/53/53 
f 55/55/55 56/56/56 57/57/57 
f 58/58/58 57/57/57 56/56/56 
f 57/57/57 58/58/58 59/59/59 
f 60/60/60 59/59/59 58/58/58 
f 59/59/59 60/60/60 61/61/61 
f 62/62/62 61/61/61 60/60/60 
f 61/61/61 62/62/62 63/63/63 
f 64/64/64 63/63/63 62/62/62 
f 63/63/63 64/64/64 65/65/65 
f 66/66/66 65/65/65 64/64/64 
f 65/65/65 66/66/66 67/67/67 
f 68/68/68 67/67/67 66/66/66 
f 67/67/67 68/68/68 69/69/69 
f 70/70/70 69/69/69 68/68/68 
f 69/69/69 70/70/70 71/71/71 
f 72/72/72 71/71/71 70/70/70 
f 71/71/71 72/72/72 73/73/73 
f 74/74/74 73/73/73 72/72/72 
f 73/73/73 74/74/74 54/54/54 
f 51/51/51 54/54/54 74/74/74 
f 77/77/77 76/76/76 75/75/75 
f 78/78/78 75/75/75 76/76/76 
f 75/75/75 78/78/78 79/79/79 
f 80/80/80 79/79/79 78/78/78 
f 79/79/79 80/80/80 81/81/81 
f 82/82/82 81/81/81 80/80/80 
f 85/85/85 84/84/84 83/83/83 
f 86/86/86 83/83/83 84/84/84 
f 84/84/84 85/85/85 87/87/87 
f 88/88/88 87/87/87 85/85/85 
f 87/87/87 88/88/88 89/89/89 
f 90/90/90 89/89/89 88/88/88 
f 93/93/93 92/92/92 91/91/91 
f 94/94/94 91/91/91 92/92/92 
f 97/97/97 96/96/96 95/95/95 
f 98/98/98 95/95/95 96/96/96 
f 101/101/101 100/100/100 99/99/99 
f 102/102/102 99/99/99 100/100/100 
f 100/100/100 101/101/101 103/103/103 
f 104/104/104 103/103/103 101/101/101 
f 107/107/107 106/106/106 105/105/105 
f 108/108/108 105/105/105 106/106/106 
f 106/106/106 107/107/107 109/109/109 
f 110/110/110 109/109/109 107/107/107 

