# Created by DisUnity v0.3.4
v -0.029273033 -5.9604645E-7 -0.02845636
v 0.029271603 1.6141996 -0.028456967
v -0.029273033 1.6141996 -0.028456565
v 0.029271603 -5.9604645E-7 -0.02845678
v -0.029273272 -5.9604645E-7 0.028456526
v 0.029271603 1.6141996 0.028456708
v 0.029271603 -5.9604645E-7 0.028456898
v -0.029273033 1.6141996 0.028456328
v 0.029271603 -5.9604645E-7 0.028456898
v 0.029271603 1.6141996 -0.028456967
v 0.029271603 -5.9604645E-7 -0.02845678
v 0.029271603 1.6141996 0.028456708
v -0.029273033 1.6141996 0.028456328
v -0.029273033 -5.9604645E-7 -0.02845636
v -0.029273033 1.6141996 -0.028456565
v -0.029273272 -5.9604645E-7 0.028456526
v -0.029273272 -5.9604645E-7 0.028456526
v 0.029271603 -5.9604645E-7 -0.02845678
v -0.029273033 -5.9604645E-7 -0.02845636
v 0.029271603 -5.9604645E-7 0.028456898
v 0.029271603 1.6141996 0.028456708
v -0.029273033 1.6141996 -0.028456565
v 0.029271603 1.6141996 -0.028456967
v -0.029273033 1.6141996 0.028456328
v -0.04393673 1.6141996 -0.042711414
v 0.043935537 1.6429427 -0.042712025
v -0.043936253 1.6429427 -0.042711414
v 0.0439353 1.6141996 -0.04271204
v -0.04393673 1.6141996 0.0427112
v 0.043935537 1.6429427 0.042711765
v 0.0439353 1.6141996 0.042711757
v -0.043936253 1.6429427 0.042711213
v 0.0439353 1.6141996 0.042711757
v 0.043935537 1.6429427 -0.042712025
v 0.0439353 1.6141996 -0.04271204
v 0.043935537 1.6429427 0.042711765
v -0.043936253 1.6429427 0.042711213
v -0.04393673 1.6141996 -0.042711414
v -0.043936253 1.6429427 -0.042711414
v -0.04393673 1.6141996 0.0427112
v -0.04393673 1.6141996 0.0427112
v 0.0439353 1.6141996 -0.04271204
v -0.04393673 1.6141996 -0.042711414
v 0.0439353 1.6141996 0.042711757
v 0.043935537 1.6429427 0.042711765
v -0.043936253 1.6429427 -0.042711414
v 0.043935537 1.6429427 -0.042712025
v -0.043936253 1.6429427 0.042711213
vn -0.0 0.0 -1.0
vn -0.0 0.0 -1.0
vn -0.0 0.0 -1.0
vn -0.0 0.0 -1.0
vn -0.0 0.0 1.0
vn -0.0 0.0 1.0
vn -0.0 0.0 1.0
vn -0.0 0.0 1.0
vn 1.0 0.0 0.0
vn 1.0 0.0 0.0
vn 1.0 0.0 0.0
vn 1.0 0.0 0.0
vn -1.0 0.0 0.0
vn -1.0 0.0 0.0
vn -1.0 0.0 0.0
vn -1.0 0.0 0.0
vn -0.0 -1.0 0.0
vn -0.0 -1.0 0.0
vn -0.0 -1.0 0.0
vn -0.0 -1.0 0.0
vn -0.0 1.0 0.0
vn -0.0 1.0 0.0
vn -0.0 1.0 0.0
vn -0.0 1.0 0.0
vn -0.0 0.0 -1.0
vn -0.0 0.0 -1.0
vn -0.0 0.0 -1.0
vn -0.0 0.0 -1.0
vn -0.0 0.0 1.0
vn -0.0 0.0 1.0
vn -0.0 0.0 1.0
vn -0.0 0.0 1.0
vn 1.0 0.0 0.0
vn 1.0 0.0 0.0
vn 1.0 0.0 0.0
vn 1.0 0.0 0.0
vn -1.0 1.6589664E-5 0.0
vn -1.0 1.6589664E-5 0.0
vn -1.0 1.6589664E-5 0.0
vn -1.0 1.6589662E-5 0.0
vn -0.0 -1.0 0.0
vn -0.0 -1.0 0.0
vn -0.0 -1.0 0.0
vn -0.0 -1.0 0.0
vn -0.0 1.0 0.0
vn -0.0 1.0 0.0
vn -0.0 1.0 0.0
vn -0.0 1.0 0.0
vt 0.008224273 0.64094764
vt 0.20243853 0.6339041
vt 0.20243853 0.6409477
vt 0.008224277 0.633904
vt 0.20253211 0.64094543
vt 0.008317881 0.6339017
vt 0.20253214 0.63390183
vt 0.008317878 0.6409453
vt 0.008224311 0.6339392
vt 0.20243856 0.64078665
vt 0.008224308 0.64078665
vt 0.20243856 0.63393927
vt 0.20243856 0.64065856
vt 0.008224311 0.63381124
vt 0.20243856 0.63381124
vt 0.008224308 0.64065856
vt 0.03546442 0.64221054
vt 0.044361625 0.63305867
vt 0.044361584 0.6422105
vt 0.035464384 0.63305867
vt 0.047936834 0.6330436
vt 0.03903963 0.64219546
vt 0.039039593 0.6330436
vt 0.047936793 0.64219546
vt 0.20027325 0.64140034
vt 0.1778545 0.63406724
vt 0.20027314 0.63406724
vt 0.17785461 0.64140034
vt 0.20026845 0.6338688
vt 0.17784965 0.6412019
vt 0.17784975 0.6338688
vt 0.20026833 0.6412019
vt 0.17803353 0.64140034
vt 0.19982767 0.63406724
vt 0.19982767 0.64140034
vt 0.17803353 0.63406724
vt 0.19955581 0.63406724
vt 0.17776199 0.64140034
vt 0.17776199 0.63406724
vt 0.19955581 0.64140034
vt 0.035827395 0.6423981
vt 0.045093145 0.63286644
vt 0.0450931 0.6423981
vt 0.035827354 0.63286644
vt 0.047573797 0.632856
vt 0.038308043 0.6423876
vt 0.038308002 0.632856
vt 0.047573756 0.6423876

g Wooden_Fence_Post
s 1
usemtl Wooden_Fence_Post
f 3/3/3 2/2/2 1/1/1 
f 4/4/4 1/1/1 2/2/2 
f 7/7/7 6/6/6 5/5/5 
f 8/8/8 5/5/5 6/6/6 
f 11/11/11 10/10/10 9/9/9 
f 12/12/12 9/9/9 10/10/10 
f 15/15/15 14/14/14 13/13/13 
f 16/16/16 13/13/13 14/14/14 
f 19/19/19 18/18/18 17/17/17 
f 20/20/20 17/17/17 18/18/18 
f 23/23/23 22/22/22 21/21/21 
f 24/24/24 21/21/21 22/22/22 
f 27/27/27 26/26/26 25/25/25 
f 28/28/28 25/25/25 26/26/26 
f 31/31/31 30/30/30 29/29/29 
f 32/32/32 29/29/29 30/30/30 
f 35/35/35 34/34/34 33/33/33 
f 36/36/36 33/33/33 34/34/34 
f 39/39/39 38/38/38 37/37/37 
f 40/40/40 37/37/37 38/38/38 
f 43/43/43 42/42/42 41/41/41 
f 44/44/44 41/41/41 42/42/42 
f 47/47/47 46/46/46 45/45/45 
f 48/48/48 45/45/45 46/46/46 

